%TF.GenerationSoftware,KiCad,Pcbnew,9.0.7*%
%TF.CreationDate,2026-03-25T09:32:40-05:00*%
%TF.ProjectId,Sensor Cell with Comms,53656e73-6f72-4204-9365-6c6c20776974,rev?*%
%TF.SameCoordinates,Original*%
%TF.FileFunction,Legend,Top*%
%TF.FilePolarity,Positive*%
%FSLAX46Y46*%
G04 Gerber Fmt 4.6, Leading zero omitted, Abs format (unit mm)*
G04 Created by KiCad (PCBNEW 9.0.7) date 2026-03-25 09:32:40*
%MOMM*%
%LPD*%
G01*
G04 APERTURE LIST*
%ADD10C,0.100000*%
%ADD11C,0.150000*%
%ADD12C,0.300000*%
%ADD13C,0.400000*%
%ADD14C,0.120000*%
%TA.AperFunction,Profile*%
%ADD15C,0.050000*%
%TD*%
G04 APERTURE END LIST*
D10*
D11*
X177002200Y-166007200D02*
X285002200Y-166007200D01*
X285002200Y-198007200D01*
X177002200Y-198007200D01*
X177002200Y-166007200D01*
D10*
D11*
X10000000Y-10000000D02*
X287002200Y-10000000D01*
X287002200Y-200007200D01*
X10000000Y-200007200D01*
X10000000Y-10000000D01*
D10*
D11*
X12000000Y-12000000D02*
X285002200Y-12000000D01*
X285002200Y-198007200D01*
X12000000Y-198007200D01*
X12000000Y-12000000D01*
D10*
D11*
X60000000Y-12000000D02*
X60000000Y-10000000D01*
D10*
D11*
X110000000Y-12000000D02*
X110000000Y-10000000D01*
D10*
D11*
X160000000Y-12000000D02*
X160000000Y-10000000D01*
D10*
D11*
X210000000Y-12000000D02*
X210000000Y-10000000D01*
D10*
D11*
X260000000Y-12000000D02*
X260000000Y-10000000D01*
D10*
D11*
X36089160Y-11593604D02*
X35346303Y-11593604D01*
X35717731Y-11593604D02*
X35717731Y-10293604D01*
X35717731Y-10293604D02*
X35593922Y-10479319D01*
X35593922Y-10479319D02*
X35470112Y-10603128D01*
X35470112Y-10603128D02*
X35346303Y-10665033D01*
D10*
D11*
X85346303Y-10417414D02*
X85408207Y-10355509D01*
X85408207Y-10355509D02*
X85532017Y-10293604D01*
X85532017Y-10293604D02*
X85841541Y-10293604D01*
X85841541Y-10293604D02*
X85965350Y-10355509D01*
X85965350Y-10355509D02*
X86027255Y-10417414D01*
X86027255Y-10417414D02*
X86089160Y-10541223D01*
X86089160Y-10541223D02*
X86089160Y-10665033D01*
X86089160Y-10665033D02*
X86027255Y-10850747D01*
X86027255Y-10850747D02*
X85284398Y-11593604D01*
X85284398Y-11593604D02*
X86089160Y-11593604D01*
D10*
D11*
X135284398Y-10293604D02*
X136089160Y-10293604D01*
X136089160Y-10293604D02*
X135655826Y-10788842D01*
X135655826Y-10788842D02*
X135841541Y-10788842D01*
X135841541Y-10788842D02*
X135965350Y-10850747D01*
X135965350Y-10850747D02*
X136027255Y-10912652D01*
X136027255Y-10912652D02*
X136089160Y-11036461D01*
X136089160Y-11036461D02*
X136089160Y-11345985D01*
X136089160Y-11345985D02*
X136027255Y-11469795D01*
X136027255Y-11469795D02*
X135965350Y-11531700D01*
X135965350Y-11531700D02*
X135841541Y-11593604D01*
X135841541Y-11593604D02*
X135470112Y-11593604D01*
X135470112Y-11593604D02*
X135346303Y-11531700D01*
X135346303Y-11531700D02*
X135284398Y-11469795D01*
D10*
D11*
X185965350Y-10726938D02*
X185965350Y-11593604D01*
X185655826Y-10231700D02*
X185346303Y-11160271D01*
X185346303Y-11160271D02*
X186151064Y-11160271D01*
D10*
D11*
X236027255Y-10293604D02*
X235408207Y-10293604D01*
X235408207Y-10293604D02*
X235346303Y-10912652D01*
X235346303Y-10912652D02*
X235408207Y-10850747D01*
X235408207Y-10850747D02*
X235532017Y-10788842D01*
X235532017Y-10788842D02*
X235841541Y-10788842D01*
X235841541Y-10788842D02*
X235965350Y-10850747D01*
X235965350Y-10850747D02*
X236027255Y-10912652D01*
X236027255Y-10912652D02*
X236089160Y-11036461D01*
X236089160Y-11036461D02*
X236089160Y-11345985D01*
X236089160Y-11345985D02*
X236027255Y-11469795D01*
X236027255Y-11469795D02*
X235965350Y-11531700D01*
X235965350Y-11531700D02*
X235841541Y-11593604D01*
X235841541Y-11593604D02*
X235532017Y-11593604D01*
X235532017Y-11593604D02*
X235408207Y-11531700D01*
X235408207Y-11531700D02*
X235346303Y-11469795D01*
D10*
D11*
X285965350Y-10293604D02*
X285717731Y-10293604D01*
X285717731Y-10293604D02*
X285593922Y-10355509D01*
X285593922Y-10355509D02*
X285532017Y-10417414D01*
X285532017Y-10417414D02*
X285408207Y-10603128D01*
X285408207Y-10603128D02*
X285346303Y-10850747D01*
X285346303Y-10850747D02*
X285346303Y-11345985D01*
X285346303Y-11345985D02*
X285408207Y-11469795D01*
X285408207Y-11469795D02*
X285470112Y-11531700D01*
X285470112Y-11531700D02*
X285593922Y-11593604D01*
X285593922Y-11593604D02*
X285841541Y-11593604D01*
X285841541Y-11593604D02*
X285965350Y-11531700D01*
X285965350Y-11531700D02*
X286027255Y-11469795D01*
X286027255Y-11469795D02*
X286089160Y-11345985D01*
X286089160Y-11345985D02*
X286089160Y-11036461D01*
X286089160Y-11036461D02*
X286027255Y-10912652D01*
X286027255Y-10912652D02*
X285965350Y-10850747D01*
X285965350Y-10850747D02*
X285841541Y-10788842D01*
X285841541Y-10788842D02*
X285593922Y-10788842D01*
X285593922Y-10788842D02*
X285470112Y-10850747D01*
X285470112Y-10850747D02*
X285408207Y-10912652D01*
X285408207Y-10912652D02*
X285346303Y-11036461D01*
D10*
D11*
X60000000Y-198007200D02*
X60000000Y-200007200D01*
D10*
D11*
X110000000Y-198007200D02*
X110000000Y-200007200D01*
D10*
D11*
X160000000Y-198007200D02*
X160000000Y-200007200D01*
D10*
D11*
X210000000Y-198007200D02*
X210000000Y-200007200D01*
D10*
D11*
X260000000Y-198007200D02*
X260000000Y-200007200D01*
D10*
D11*
X36089160Y-199600804D02*
X35346303Y-199600804D01*
X35717731Y-199600804D02*
X35717731Y-198300804D01*
X35717731Y-198300804D02*
X35593922Y-198486519D01*
X35593922Y-198486519D02*
X35470112Y-198610328D01*
X35470112Y-198610328D02*
X35346303Y-198672233D01*
D10*
D11*
X85346303Y-198424614D02*
X85408207Y-198362709D01*
X85408207Y-198362709D02*
X85532017Y-198300804D01*
X85532017Y-198300804D02*
X85841541Y-198300804D01*
X85841541Y-198300804D02*
X85965350Y-198362709D01*
X85965350Y-198362709D02*
X86027255Y-198424614D01*
X86027255Y-198424614D02*
X86089160Y-198548423D01*
X86089160Y-198548423D02*
X86089160Y-198672233D01*
X86089160Y-198672233D02*
X86027255Y-198857947D01*
X86027255Y-198857947D02*
X85284398Y-199600804D01*
X85284398Y-199600804D02*
X86089160Y-199600804D01*
D10*
D11*
X135284398Y-198300804D02*
X136089160Y-198300804D01*
X136089160Y-198300804D02*
X135655826Y-198796042D01*
X135655826Y-198796042D02*
X135841541Y-198796042D01*
X135841541Y-198796042D02*
X135965350Y-198857947D01*
X135965350Y-198857947D02*
X136027255Y-198919852D01*
X136027255Y-198919852D02*
X136089160Y-199043661D01*
X136089160Y-199043661D02*
X136089160Y-199353185D01*
X136089160Y-199353185D02*
X136027255Y-199476995D01*
X136027255Y-199476995D02*
X135965350Y-199538900D01*
X135965350Y-199538900D02*
X135841541Y-199600804D01*
X135841541Y-199600804D02*
X135470112Y-199600804D01*
X135470112Y-199600804D02*
X135346303Y-199538900D01*
X135346303Y-199538900D02*
X135284398Y-199476995D01*
D10*
D11*
X185965350Y-198734138D02*
X185965350Y-199600804D01*
X185655826Y-198238900D02*
X185346303Y-199167471D01*
X185346303Y-199167471D02*
X186151064Y-199167471D01*
D10*
D11*
X236027255Y-198300804D02*
X235408207Y-198300804D01*
X235408207Y-198300804D02*
X235346303Y-198919852D01*
X235346303Y-198919852D02*
X235408207Y-198857947D01*
X235408207Y-198857947D02*
X235532017Y-198796042D01*
X235532017Y-198796042D02*
X235841541Y-198796042D01*
X235841541Y-198796042D02*
X235965350Y-198857947D01*
X235965350Y-198857947D02*
X236027255Y-198919852D01*
X236027255Y-198919852D02*
X236089160Y-199043661D01*
X236089160Y-199043661D02*
X236089160Y-199353185D01*
X236089160Y-199353185D02*
X236027255Y-199476995D01*
X236027255Y-199476995D02*
X235965350Y-199538900D01*
X235965350Y-199538900D02*
X235841541Y-199600804D01*
X235841541Y-199600804D02*
X235532017Y-199600804D01*
X235532017Y-199600804D02*
X235408207Y-199538900D01*
X235408207Y-199538900D02*
X235346303Y-199476995D01*
D10*
D11*
X285965350Y-198300804D02*
X285717731Y-198300804D01*
X285717731Y-198300804D02*
X285593922Y-198362709D01*
X285593922Y-198362709D02*
X285532017Y-198424614D01*
X285532017Y-198424614D02*
X285408207Y-198610328D01*
X285408207Y-198610328D02*
X285346303Y-198857947D01*
X285346303Y-198857947D02*
X285346303Y-199353185D01*
X285346303Y-199353185D02*
X285408207Y-199476995D01*
X285408207Y-199476995D02*
X285470112Y-199538900D01*
X285470112Y-199538900D02*
X285593922Y-199600804D01*
X285593922Y-199600804D02*
X285841541Y-199600804D01*
X285841541Y-199600804D02*
X285965350Y-199538900D01*
X285965350Y-199538900D02*
X286027255Y-199476995D01*
X286027255Y-199476995D02*
X286089160Y-199353185D01*
X286089160Y-199353185D02*
X286089160Y-199043661D01*
X286089160Y-199043661D02*
X286027255Y-198919852D01*
X286027255Y-198919852D02*
X285965350Y-198857947D01*
X285965350Y-198857947D02*
X285841541Y-198796042D01*
X285841541Y-198796042D02*
X285593922Y-198796042D01*
X285593922Y-198796042D02*
X285470112Y-198857947D01*
X285470112Y-198857947D02*
X285408207Y-198919852D01*
X285408207Y-198919852D02*
X285346303Y-199043661D01*
D10*
D11*
X10000000Y-60000000D02*
X12000000Y-60000000D01*
D10*
D11*
X10000000Y-110000000D02*
X12000000Y-110000000D01*
D10*
D11*
X10000000Y-160000000D02*
X12000000Y-160000000D01*
D10*
D11*
X10690476Y-35222176D02*
X11309523Y-35222176D01*
X10566666Y-35593604D02*
X10999999Y-34293604D01*
X10999999Y-34293604D02*
X11433333Y-35593604D01*
D10*
D11*
X11092857Y-84912652D02*
X11278571Y-84974557D01*
X11278571Y-84974557D02*
X11340476Y-85036461D01*
X11340476Y-85036461D02*
X11402380Y-85160271D01*
X11402380Y-85160271D02*
X11402380Y-85345985D01*
X11402380Y-85345985D02*
X11340476Y-85469795D01*
X11340476Y-85469795D02*
X11278571Y-85531700D01*
X11278571Y-85531700D02*
X11154761Y-85593604D01*
X11154761Y-85593604D02*
X10659523Y-85593604D01*
X10659523Y-85593604D02*
X10659523Y-84293604D01*
X10659523Y-84293604D02*
X11092857Y-84293604D01*
X11092857Y-84293604D02*
X11216666Y-84355509D01*
X11216666Y-84355509D02*
X11278571Y-84417414D01*
X11278571Y-84417414D02*
X11340476Y-84541223D01*
X11340476Y-84541223D02*
X11340476Y-84665033D01*
X11340476Y-84665033D02*
X11278571Y-84788842D01*
X11278571Y-84788842D02*
X11216666Y-84850747D01*
X11216666Y-84850747D02*
X11092857Y-84912652D01*
X11092857Y-84912652D02*
X10659523Y-84912652D01*
D10*
D11*
X11402380Y-135469795D02*
X11340476Y-135531700D01*
X11340476Y-135531700D02*
X11154761Y-135593604D01*
X11154761Y-135593604D02*
X11030952Y-135593604D01*
X11030952Y-135593604D02*
X10845238Y-135531700D01*
X10845238Y-135531700D02*
X10721428Y-135407890D01*
X10721428Y-135407890D02*
X10659523Y-135284080D01*
X10659523Y-135284080D02*
X10597619Y-135036461D01*
X10597619Y-135036461D02*
X10597619Y-134850747D01*
X10597619Y-134850747D02*
X10659523Y-134603128D01*
X10659523Y-134603128D02*
X10721428Y-134479319D01*
X10721428Y-134479319D02*
X10845238Y-134355509D01*
X10845238Y-134355509D02*
X11030952Y-134293604D01*
X11030952Y-134293604D02*
X11154761Y-134293604D01*
X11154761Y-134293604D02*
X11340476Y-134355509D01*
X11340476Y-134355509D02*
X11402380Y-134417414D01*
D10*
D11*
X10659523Y-185593604D02*
X10659523Y-184293604D01*
X10659523Y-184293604D02*
X10969047Y-184293604D01*
X10969047Y-184293604D02*
X11154761Y-184355509D01*
X11154761Y-184355509D02*
X11278571Y-184479319D01*
X11278571Y-184479319D02*
X11340476Y-184603128D01*
X11340476Y-184603128D02*
X11402380Y-184850747D01*
X11402380Y-184850747D02*
X11402380Y-185036461D01*
X11402380Y-185036461D02*
X11340476Y-185284080D01*
X11340476Y-185284080D02*
X11278571Y-185407890D01*
X11278571Y-185407890D02*
X11154761Y-185531700D01*
X11154761Y-185531700D02*
X10969047Y-185593604D01*
X10969047Y-185593604D02*
X10659523Y-185593604D01*
D10*
D11*
X287002200Y-60000000D02*
X285002200Y-60000000D01*
D10*
D11*
X287002200Y-110000000D02*
X285002200Y-110000000D01*
D10*
D11*
X287002200Y-160000000D02*
X285002200Y-160000000D01*
D10*
D11*
X285692676Y-35222176D02*
X286311723Y-35222176D01*
X285568866Y-35593604D02*
X286002199Y-34293604D01*
X286002199Y-34293604D02*
X286435533Y-35593604D01*
D10*
D11*
X286095057Y-84912652D02*
X286280771Y-84974557D01*
X286280771Y-84974557D02*
X286342676Y-85036461D01*
X286342676Y-85036461D02*
X286404580Y-85160271D01*
X286404580Y-85160271D02*
X286404580Y-85345985D01*
X286404580Y-85345985D02*
X286342676Y-85469795D01*
X286342676Y-85469795D02*
X286280771Y-85531700D01*
X286280771Y-85531700D02*
X286156961Y-85593604D01*
X286156961Y-85593604D02*
X285661723Y-85593604D01*
X285661723Y-85593604D02*
X285661723Y-84293604D01*
X285661723Y-84293604D02*
X286095057Y-84293604D01*
X286095057Y-84293604D02*
X286218866Y-84355509D01*
X286218866Y-84355509D02*
X286280771Y-84417414D01*
X286280771Y-84417414D02*
X286342676Y-84541223D01*
X286342676Y-84541223D02*
X286342676Y-84665033D01*
X286342676Y-84665033D02*
X286280771Y-84788842D01*
X286280771Y-84788842D02*
X286218866Y-84850747D01*
X286218866Y-84850747D02*
X286095057Y-84912652D01*
X286095057Y-84912652D02*
X285661723Y-84912652D01*
D10*
D11*
X286404580Y-135469795D02*
X286342676Y-135531700D01*
X286342676Y-135531700D02*
X286156961Y-135593604D01*
X286156961Y-135593604D02*
X286033152Y-135593604D01*
X286033152Y-135593604D02*
X285847438Y-135531700D01*
X285847438Y-135531700D02*
X285723628Y-135407890D01*
X285723628Y-135407890D02*
X285661723Y-135284080D01*
X285661723Y-135284080D02*
X285599819Y-135036461D01*
X285599819Y-135036461D02*
X285599819Y-134850747D01*
X285599819Y-134850747D02*
X285661723Y-134603128D01*
X285661723Y-134603128D02*
X285723628Y-134479319D01*
X285723628Y-134479319D02*
X285847438Y-134355509D01*
X285847438Y-134355509D02*
X286033152Y-134293604D01*
X286033152Y-134293604D02*
X286156961Y-134293604D01*
X286156961Y-134293604D02*
X286342676Y-134355509D01*
X286342676Y-134355509D02*
X286404580Y-134417414D01*
D10*
D11*
X285661723Y-185593604D02*
X285661723Y-184293604D01*
X285661723Y-184293604D02*
X285971247Y-184293604D01*
X285971247Y-184293604D02*
X286156961Y-184355509D01*
X286156961Y-184355509D02*
X286280771Y-184479319D01*
X286280771Y-184479319D02*
X286342676Y-184603128D01*
X286342676Y-184603128D02*
X286404580Y-184850747D01*
X286404580Y-184850747D02*
X286404580Y-185036461D01*
X286404580Y-185036461D02*
X286342676Y-185284080D01*
X286342676Y-185284080D02*
X286280771Y-185407890D01*
X286280771Y-185407890D02*
X286156961Y-185531700D01*
X286156961Y-185531700D02*
X285971247Y-185593604D01*
X285971247Y-185593604D02*
X285661723Y-185593604D01*
D10*
D11*
X200458026Y-193793328D02*
X200458026Y-192293328D01*
X200458026Y-192293328D02*
X200815169Y-192293328D01*
X200815169Y-192293328D02*
X201029455Y-192364757D01*
X201029455Y-192364757D02*
X201172312Y-192507614D01*
X201172312Y-192507614D02*
X201243741Y-192650471D01*
X201243741Y-192650471D02*
X201315169Y-192936185D01*
X201315169Y-192936185D02*
X201315169Y-193150471D01*
X201315169Y-193150471D02*
X201243741Y-193436185D01*
X201243741Y-193436185D02*
X201172312Y-193579042D01*
X201172312Y-193579042D02*
X201029455Y-193721900D01*
X201029455Y-193721900D02*
X200815169Y-193793328D01*
X200815169Y-193793328D02*
X200458026Y-193793328D01*
X202600884Y-193793328D02*
X202600884Y-193007614D01*
X202600884Y-193007614D02*
X202529455Y-192864757D01*
X202529455Y-192864757D02*
X202386598Y-192793328D01*
X202386598Y-192793328D02*
X202100884Y-192793328D01*
X202100884Y-192793328D02*
X201958026Y-192864757D01*
X202600884Y-193721900D02*
X202458026Y-193793328D01*
X202458026Y-193793328D02*
X202100884Y-193793328D01*
X202100884Y-193793328D02*
X201958026Y-193721900D01*
X201958026Y-193721900D02*
X201886598Y-193579042D01*
X201886598Y-193579042D02*
X201886598Y-193436185D01*
X201886598Y-193436185D02*
X201958026Y-193293328D01*
X201958026Y-193293328D02*
X202100884Y-193221900D01*
X202100884Y-193221900D02*
X202458026Y-193221900D01*
X202458026Y-193221900D02*
X202600884Y-193150471D01*
X203100884Y-192793328D02*
X203672312Y-192793328D01*
X203315169Y-192293328D02*
X203315169Y-193579042D01*
X203315169Y-193579042D02*
X203386598Y-193721900D01*
X203386598Y-193721900D02*
X203529455Y-193793328D01*
X203529455Y-193793328D02*
X203672312Y-193793328D01*
X204743741Y-193721900D02*
X204600884Y-193793328D01*
X204600884Y-193793328D02*
X204315170Y-193793328D01*
X204315170Y-193793328D02*
X204172312Y-193721900D01*
X204172312Y-193721900D02*
X204100884Y-193579042D01*
X204100884Y-193579042D02*
X204100884Y-193007614D01*
X204100884Y-193007614D02*
X204172312Y-192864757D01*
X204172312Y-192864757D02*
X204315170Y-192793328D01*
X204315170Y-192793328D02*
X204600884Y-192793328D01*
X204600884Y-192793328D02*
X204743741Y-192864757D01*
X204743741Y-192864757D02*
X204815170Y-193007614D01*
X204815170Y-193007614D02*
X204815170Y-193150471D01*
X204815170Y-193150471D02*
X204100884Y-193293328D01*
X205458026Y-193650471D02*
X205529455Y-193721900D01*
X205529455Y-193721900D02*
X205458026Y-193793328D01*
X205458026Y-193793328D02*
X205386598Y-193721900D01*
X205386598Y-193721900D02*
X205458026Y-193650471D01*
X205458026Y-193650471D02*
X205458026Y-193793328D01*
X205458026Y-192864757D02*
X205529455Y-192936185D01*
X205529455Y-192936185D02*
X205458026Y-193007614D01*
X205458026Y-193007614D02*
X205386598Y-192936185D01*
X205386598Y-192936185D02*
X205458026Y-192864757D01*
X205458026Y-192864757D02*
X205458026Y-193007614D01*
D10*
D11*
X177002200Y-194507200D02*
X285002200Y-194507200D01*
D10*
D11*
X178458026Y-196593328D02*
X178458026Y-195093328D01*
X179315169Y-196593328D02*
X178672312Y-195736185D01*
X179315169Y-195093328D02*
X178458026Y-195950471D01*
X179958026Y-196593328D02*
X179958026Y-195593328D01*
X179958026Y-195093328D02*
X179886598Y-195164757D01*
X179886598Y-195164757D02*
X179958026Y-195236185D01*
X179958026Y-195236185D02*
X180029455Y-195164757D01*
X180029455Y-195164757D02*
X179958026Y-195093328D01*
X179958026Y-195093328D02*
X179958026Y-195236185D01*
X181529455Y-196450471D02*
X181458027Y-196521900D01*
X181458027Y-196521900D02*
X181243741Y-196593328D01*
X181243741Y-196593328D02*
X181100884Y-196593328D01*
X181100884Y-196593328D02*
X180886598Y-196521900D01*
X180886598Y-196521900D02*
X180743741Y-196379042D01*
X180743741Y-196379042D02*
X180672312Y-196236185D01*
X180672312Y-196236185D02*
X180600884Y-195950471D01*
X180600884Y-195950471D02*
X180600884Y-195736185D01*
X180600884Y-195736185D02*
X180672312Y-195450471D01*
X180672312Y-195450471D02*
X180743741Y-195307614D01*
X180743741Y-195307614D02*
X180886598Y-195164757D01*
X180886598Y-195164757D02*
X181100884Y-195093328D01*
X181100884Y-195093328D02*
X181243741Y-195093328D01*
X181243741Y-195093328D02*
X181458027Y-195164757D01*
X181458027Y-195164757D02*
X181529455Y-195236185D01*
X182815170Y-196593328D02*
X182815170Y-195807614D01*
X182815170Y-195807614D02*
X182743741Y-195664757D01*
X182743741Y-195664757D02*
X182600884Y-195593328D01*
X182600884Y-195593328D02*
X182315170Y-195593328D01*
X182315170Y-195593328D02*
X182172312Y-195664757D01*
X182815170Y-196521900D02*
X182672312Y-196593328D01*
X182672312Y-196593328D02*
X182315170Y-196593328D01*
X182315170Y-196593328D02*
X182172312Y-196521900D01*
X182172312Y-196521900D02*
X182100884Y-196379042D01*
X182100884Y-196379042D02*
X182100884Y-196236185D01*
X182100884Y-196236185D02*
X182172312Y-196093328D01*
X182172312Y-196093328D02*
X182315170Y-196021900D01*
X182315170Y-196021900D02*
X182672312Y-196021900D01*
X182672312Y-196021900D02*
X182815170Y-195950471D01*
X184172313Y-196593328D02*
X184172313Y-195093328D01*
X184172313Y-196521900D02*
X184029455Y-196593328D01*
X184029455Y-196593328D02*
X183743741Y-196593328D01*
X183743741Y-196593328D02*
X183600884Y-196521900D01*
X183600884Y-196521900D02*
X183529455Y-196450471D01*
X183529455Y-196450471D02*
X183458027Y-196307614D01*
X183458027Y-196307614D02*
X183458027Y-195879042D01*
X183458027Y-195879042D02*
X183529455Y-195736185D01*
X183529455Y-195736185D02*
X183600884Y-195664757D01*
X183600884Y-195664757D02*
X183743741Y-195593328D01*
X183743741Y-195593328D02*
X184029455Y-195593328D01*
X184029455Y-195593328D02*
X184172313Y-195664757D01*
X186029455Y-195807614D02*
X186529455Y-195807614D01*
X186743741Y-196593328D02*
X186029455Y-196593328D01*
X186029455Y-196593328D02*
X186029455Y-195093328D01*
X186029455Y-195093328D02*
X186743741Y-195093328D01*
X187386598Y-196450471D02*
X187458027Y-196521900D01*
X187458027Y-196521900D02*
X187386598Y-196593328D01*
X187386598Y-196593328D02*
X187315170Y-196521900D01*
X187315170Y-196521900D02*
X187386598Y-196450471D01*
X187386598Y-196450471D02*
X187386598Y-196593328D01*
X188100884Y-196593328D02*
X188100884Y-195093328D01*
X188100884Y-195093328D02*
X188458027Y-195093328D01*
X188458027Y-195093328D02*
X188672313Y-195164757D01*
X188672313Y-195164757D02*
X188815170Y-195307614D01*
X188815170Y-195307614D02*
X188886599Y-195450471D01*
X188886599Y-195450471D02*
X188958027Y-195736185D01*
X188958027Y-195736185D02*
X188958027Y-195950471D01*
X188958027Y-195950471D02*
X188886599Y-196236185D01*
X188886599Y-196236185D02*
X188815170Y-196379042D01*
X188815170Y-196379042D02*
X188672313Y-196521900D01*
X188672313Y-196521900D02*
X188458027Y-196593328D01*
X188458027Y-196593328D02*
X188100884Y-196593328D01*
X189600884Y-196450471D02*
X189672313Y-196521900D01*
X189672313Y-196521900D02*
X189600884Y-196593328D01*
X189600884Y-196593328D02*
X189529456Y-196521900D01*
X189529456Y-196521900D02*
X189600884Y-196450471D01*
X189600884Y-196450471D02*
X189600884Y-196593328D01*
X190243742Y-196164757D02*
X190958028Y-196164757D01*
X190100885Y-196593328D02*
X190600885Y-195093328D01*
X190600885Y-195093328D02*
X191100885Y-196593328D01*
X191600884Y-196450471D02*
X191672313Y-196521900D01*
X191672313Y-196521900D02*
X191600884Y-196593328D01*
X191600884Y-196593328D02*
X191529456Y-196521900D01*
X191529456Y-196521900D02*
X191600884Y-196450471D01*
X191600884Y-196450471D02*
X191600884Y-196593328D01*
X193529456Y-196593328D02*
X193815170Y-196593328D01*
X193815170Y-196593328D02*
X193958027Y-196521900D01*
X193958027Y-196521900D02*
X194029456Y-196450471D01*
X194029456Y-196450471D02*
X194172313Y-196236185D01*
X194172313Y-196236185D02*
X194243742Y-195950471D01*
X194243742Y-195950471D02*
X194243742Y-195379042D01*
X194243742Y-195379042D02*
X194172313Y-195236185D01*
X194172313Y-195236185D02*
X194100885Y-195164757D01*
X194100885Y-195164757D02*
X193958027Y-195093328D01*
X193958027Y-195093328D02*
X193672313Y-195093328D01*
X193672313Y-195093328D02*
X193529456Y-195164757D01*
X193529456Y-195164757D02*
X193458027Y-195236185D01*
X193458027Y-195236185D02*
X193386599Y-195379042D01*
X193386599Y-195379042D02*
X193386599Y-195736185D01*
X193386599Y-195736185D02*
X193458027Y-195879042D01*
X193458027Y-195879042D02*
X193529456Y-195950471D01*
X193529456Y-195950471D02*
X193672313Y-196021900D01*
X193672313Y-196021900D02*
X193958027Y-196021900D01*
X193958027Y-196021900D02*
X194100885Y-195950471D01*
X194100885Y-195950471D02*
X194172313Y-195879042D01*
X194172313Y-195879042D02*
X194243742Y-195736185D01*
X194886598Y-196450471D02*
X194958027Y-196521900D01*
X194958027Y-196521900D02*
X194886598Y-196593328D01*
X194886598Y-196593328D02*
X194815170Y-196521900D01*
X194815170Y-196521900D02*
X194886598Y-196450471D01*
X194886598Y-196450471D02*
X194886598Y-196593328D01*
X195886599Y-195093328D02*
X196029456Y-195093328D01*
X196029456Y-195093328D02*
X196172313Y-195164757D01*
X196172313Y-195164757D02*
X196243742Y-195236185D01*
X196243742Y-195236185D02*
X196315170Y-195379042D01*
X196315170Y-195379042D02*
X196386599Y-195664757D01*
X196386599Y-195664757D02*
X196386599Y-196021900D01*
X196386599Y-196021900D02*
X196315170Y-196307614D01*
X196315170Y-196307614D02*
X196243742Y-196450471D01*
X196243742Y-196450471D02*
X196172313Y-196521900D01*
X196172313Y-196521900D02*
X196029456Y-196593328D01*
X196029456Y-196593328D02*
X195886599Y-196593328D01*
X195886599Y-196593328D02*
X195743742Y-196521900D01*
X195743742Y-196521900D02*
X195672313Y-196450471D01*
X195672313Y-196450471D02*
X195600884Y-196307614D01*
X195600884Y-196307614D02*
X195529456Y-196021900D01*
X195529456Y-196021900D02*
X195529456Y-195664757D01*
X195529456Y-195664757D02*
X195600884Y-195379042D01*
X195600884Y-195379042D02*
X195672313Y-195236185D01*
X195672313Y-195236185D02*
X195743742Y-195164757D01*
X195743742Y-195164757D02*
X195886599Y-195093328D01*
X197029455Y-196450471D02*
X197100884Y-196521900D01*
X197100884Y-196521900D02*
X197029455Y-196593328D01*
X197029455Y-196593328D02*
X196958027Y-196521900D01*
X196958027Y-196521900D02*
X197029455Y-196450471D01*
X197029455Y-196450471D02*
X197029455Y-196593328D01*
X197600884Y-195093328D02*
X198600884Y-195093328D01*
X198600884Y-195093328D02*
X197958027Y-196593328D01*
D10*
D11*
X177002200Y-191507200D02*
X285002200Y-191507200D01*
D10*
D12*
X264413853Y-193785528D02*
X263913853Y-193071242D01*
X263556710Y-193785528D02*
X263556710Y-192285528D01*
X263556710Y-192285528D02*
X264128139Y-192285528D01*
X264128139Y-192285528D02*
X264270996Y-192356957D01*
X264270996Y-192356957D02*
X264342425Y-192428385D01*
X264342425Y-192428385D02*
X264413853Y-192571242D01*
X264413853Y-192571242D02*
X264413853Y-192785528D01*
X264413853Y-192785528D02*
X264342425Y-192928385D01*
X264342425Y-192928385D02*
X264270996Y-192999814D01*
X264270996Y-192999814D02*
X264128139Y-193071242D01*
X264128139Y-193071242D02*
X263556710Y-193071242D01*
X265628139Y-193714100D02*
X265485282Y-193785528D01*
X265485282Y-193785528D02*
X265199568Y-193785528D01*
X265199568Y-193785528D02*
X265056710Y-193714100D01*
X265056710Y-193714100D02*
X264985282Y-193571242D01*
X264985282Y-193571242D02*
X264985282Y-192999814D01*
X264985282Y-192999814D02*
X265056710Y-192856957D01*
X265056710Y-192856957D02*
X265199568Y-192785528D01*
X265199568Y-192785528D02*
X265485282Y-192785528D01*
X265485282Y-192785528D02*
X265628139Y-192856957D01*
X265628139Y-192856957D02*
X265699568Y-192999814D01*
X265699568Y-192999814D02*
X265699568Y-193142671D01*
X265699568Y-193142671D02*
X264985282Y-193285528D01*
X266199567Y-192785528D02*
X266556710Y-193785528D01*
X266556710Y-193785528D02*
X266913853Y-192785528D01*
X267485281Y-193642671D02*
X267556710Y-193714100D01*
X267556710Y-193714100D02*
X267485281Y-193785528D01*
X267485281Y-193785528D02*
X267413853Y-193714100D01*
X267413853Y-193714100D02*
X267485281Y-193642671D01*
X267485281Y-193642671D02*
X267485281Y-193785528D01*
X267485281Y-192856957D02*
X267556710Y-192928385D01*
X267556710Y-192928385D02*
X267485281Y-192999814D01*
X267485281Y-192999814D02*
X267413853Y-192928385D01*
X267413853Y-192928385D02*
X267485281Y-192856957D01*
X267485281Y-192856957D02*
X267485281Y-192999814D01*
D10*
D11*
X178386598Y-193721900D02*
X178600884Y-193793328D01*
X178600884Y-193793328D02*
X178958026Y-193793328D01*
X178958026Y-193793328D02*
X179100884Y-193721900D01*
X179100884Y-193721900D02*
X179172312Y-193650471D01*
X179172312Y-193650471D02*
X179243741Y-193507614D01*
X179243741Y-193507614D02*
X179243741Y-193364757D01*
X179243741Y-193364757D02*
X179172312Y-193221900D01*
X179172312Y-193221900D02*
X179100884Y-193150471D01*
X179100884Y-193150471D02*
X178958026Y-193079042D01*
X178958026Y-193079042D02*
X178672312Y-193007614D01*
X178672312Y-193007614D02*
X178529455Y-192936185D01*
X178529455Y-192936185D02*
X178458026Y-192864757D01*
X178458026Y-192864757D02*
X178386598Y-192721900D01*
X178386598Y-192721900D02*
X178386598Y-192579042D01*
X178386598Y-192579042D02*
X178458026Y-192436185D01*
X178458026Y-192436185D02*
X178529455Y-192364757D01*
X178529455Y-192364757D02*
X178672312Y-192293328D01*
X178672312Y-192293328D02*
X179029455Y-192293328D01*
X179029455Y-192293328D02*
X179243741Y-192364757D01*
X179886597Y-193793328D02*
X179886597Y-192793328D01*
X179886597Y-192293328D02*
X179815169Y-192364757D01*
X179815169Y-192364757D02*
X179886597Y-192436185D01*
X179886597Y-192436185D02*
X179958026Y-192364757D01*
X179958026Y-192364757D02*
X179886597Y-192293328D01*
X179886597Y-192293328D02*
X179886597Y-192436185D01*
X180458026Y-192793328D02*
X181243741Y-192793328D01*
X181243741Y-192793328D02*
X180458026Y-193793328D01*
X180458026Y-193793328D02*
X181243741Y-193793328D01*
X182386598Y-193721900D02*
X182243741Y-193793328D01*
X182243741Y-193793328D02*
X181958027Y-193793328D01*
X181958027Y-193793328D02*
X181815169Y-193721900D01*
X181815169Y-193721900D02*
X181743741Y-193579042D01*
X181743741Y-193579042D02*
X181743741Y-193007614D01*
X181743741Y-193007614D02*
X181815169Y-192864757D01*
X181815169Y-192864757D02*
X181958027Y-192793328D01*
X181958027Y-192793328D02*
X182243741Y-192793328D01*
X182243741Y-192793328D02*
X182386598Y-192864757D01*
X182386598Y-192864757D02*
X182458027Y-193007614D01*
X182458027Y-193007614D02*
X182458027Y-193150471D01*
X182458027Y-193150471D02*
X181743741Y-193293328D01*
X183100883Y-193650471D02*
X183172312Y-193721900D01*
X183172312Y-193721900D02*
X183100883Y-193793328D01*
X183100883Y-193793328D02*
X183029455Y-193721900D01*
X183029455Y-193721900D02*
X183100883Y-193650471D01*
X183100883Y-193650471D02*
X183100883Y-193793328D01*
X183100883Y-192864757D02*
X183172312Y-192936185D01*
X183172312Y-192936185D02*
X183100883Y-193007614D01*
X183100883Y-193007614D02*
X183029455Y-192936185D01*
X183029455Y-192936185D02*
X183100883Y-192864757D01*
X183100883Y-192864757D02*
X183100883Y-193007614D01*
X184886598Y-193364757D02*
X185600884Y-193364757D01*
X184743741Y-193793328D02*
X185243741Y-192293328D01*
X185243741Y-192293328D02*
X185743741Y-193793328D01*
X186886598Y-192793328D02*
X186886598Y-193793328D01*
X186529455Y-192221900D02*
X186172312Y-193293328D01*
X186172312Y-193293328D02*
X187100883Y-193293328D01*
D10*
D11*
X263458026Y-196593328D02*
X263458026Y-195093328D01*
X264815170Y-196593328D02*
X264815170Y-195093328D01*
X264815170Y-196521900D02*
X264672312Y-196593328D01*
X264672312Y-196593328D02*
X264386598Y-196593328D01*
X264386598Y-196593328D02*
X264243741Y-196521900D01*
X264243741Y-196521900D02*
X264172312Y-196450471D01*
X264172312Y-196450471D02*
X264100884Y-196307614D01*
X264100884Y-196307614D02*
X264100884Y-195879042D01*
X264100884Y-195879042D02*
X264172312Y-195736185D01*
X264172312Y-195736185D02*
X264243741Y-195664757D01*
X264243741Y-195664757D02*
X264386598Y-195593328D01*
X264386598Y-195593328D02*
X264672312Y-195593328D01*
X264672312Y-195593328D02*
X264815170Y-195664757D01*
X265529455Y-196450471D02*
X265600884Y-196521900D01*
X265600884Y-196521900D02*
X265529455Y-196593328D01*
X265529455Y-196593328D02*
X265458027Y-196521900D01*
X265458027Y-196521900D02*
X265529455Y-196450471D01*
X265529455Y-196450471D02*
X265529455Y-196593328D01*
X265529455Y-195664757D02*
X265600884Y-195736185D01*
X265600884Y-195736185D02*
X265529455Y-195807614D01*
X265529455Y-195807614D02*
X265458027Y-195736185D01*
X265458027Y-195736185D02*
X265529455Y-195664757D01*
X265529455Y-195664757D02*
X265529455Y-195807614D01*
X268100884Y-195093328D02*
X267386598Y-195093328D01*
X267386598Y-195093328D02*
X267315170Y-195807614D01*
X267315170Y-195807614D02*
X267386598Y-195736185D01*
X267386598Y-195736185D02*
X267529456Y-195664757D01*
X267529456Y-195664757D02*
X267886598Y-195664757D01*
X267886598Y-195664757D02*
X268029456Y-195736185D01*
X268029456Y-195736185D02*
X268100884Y-195807614D01*
X268100884Y-195807614D02*
X268172313Y-195950471D01*
X268172313Y-195950471D02*
X268172313Y-196307614D01*
X268172313Y-196307614D02*
X268100884Y-196450471D01*
X268100884Y-196450471D02*
X268029456Y-196521900D01*
X268029456Y-196521900D02*
X267886598Y-196593328D01*
X267886598Y-196593328D02*
X267529456Y-196593328D01*
X267529456Y-196593328D02*
X267386598Y-196521900D01*
X267386598Y-196521900D02*
X267315170Y-196450471D01*
X269886598Y-195021900D02*
X268600884Y-196950471D01*
X270458027Y-196593328D02*
X270743741Y-196593328D01*
X270743741Y-196593328D02*
X270886598Y-196521900D01*
X270886598Y-196521900D02*
X270958027Y-196450471D01*
X270958027Y-196450471D02*
X271100884Y-196236185D01*
X271100884Y-196236185D02*
X271172313Y-195950471D01*
X271172313Y-195950471D02*
X271172313Y-195379042D01*
X271172313Y-195379042D02*
X271100884Y-195236185D01*
X271100884Y-195236185D02*
X271029456Y-195164757D01*
X271029456Y-195164757D02*
X270886598Y-195093328D01*
X270886598Y-195093328D02*
X270600884Y-195093328D01*
X270600884Y-195093328D02*
X270458027Y-195164757D01*
X270458027Y-195164757D02*
X270386598Y-195236185D01*
X270386598Y-195236185D02*
X270315170Y-195379042D01*
X270315170Y-195379042D02*
X270315170Y-195736185D01*
X270315170Y-195736185D02*
X270386598Y-195879042D01*
X270386598Y-195879042D02*
X270458027Y-195950471D01*
X270458027Y-195950471D02*
X270600884Y-196021900D01*
X270600884Y-196021900D02*
X270886598Y-196021900D01*
X270886598Y-196021900D02*
X271029456Y-195950471D01*
X271029456Y-195950471D02*
X271100884Y-195879042D01*
X271100884Y-195879042D02*
X271172313Y-195736185D01*
D10*
D11*
X177002200Y-187507200D02*
X285002200Y-187507200D01*
D10*
D13*
X178693928Y-188211638D02*
X179836785Y-188211638D01*
X179015357Y-190211638D02*
X179265357Y-188211638D01*
X180253452Y-190211638D02*
X180420119Y-188878304D01*
X180503452Y-188211638D02*
X180396309Y-188306876D01*
X180396309Y-188306876D02*
X180479643Y-188402114D01*
X180479643Y-188402114D02*
X180586786Y-188306876D01*
X180586786Y-188306876D02*
X180503452Y-188211638D01*
X180503452Y-188211638D02*
X180479643Y-188402114D01*
X181086786Y-188878304D02*
X181848690Y-188878304D01*
X181455833Y-188211638D02*
X181241548Y-189925923D01*
X181241548Y-189925923D02*
X181312976Y-190116400D01*
X181312976Y-190116400D02*
X181491548Y-190211638D01*
X181491548Y-190211638D02*
X181682024Y-190211638D01*
X182634405Y-190211638D02*
X182455833Y-190116400D01*
X182455833Y-190116400D02*
X182384405Y-189925923D01*
X182384405Y-189925923D02*
X182598690Y-188211638D01*
X184170119Y-190116400D02*
X183967738Y-190211638D01*
X183967738Y-190211638D02*
X183586785Y-190211638D01*
X183586785Y-190211638D02*
X183408214Y-190116400D01*
X183408214Y-190116400D02*
X183336785Y-189925923D01*
X183336785Y-189925923D02*
X183432024Y-189164019D01*
X183432024Y-189164019D02*
X183551071Y-188973542D01*
X183551071Y-188973542D02*
X183753452Y-188878304D01*
X183753452Y-188878304D02*
X184134404Y-188878304D01*
X184134404Y-188878304D02*
X184312976Y-188973542D01*
X184312976Y-188973542D02*
X184384404Y-189164019D01*
X184384404Y-189164019D02*
X184360595Y-189354495D01*
X184360595Y-189354495D02*
X183384404Y-189544971D01*
X185134405Y-190021161D02*
X185217738Y-190116400D01*
X185217738Y-190116400D02*
X185110595Y-190211638D01*
X185110595Y-190211638D02*
X185027262Y-190116400D01*
X185027262Y-190116400D02*
X185134405Y-190021161D01*
X185134405Y-190021161D02*
X185110595Y-190211638D01*
X185265357Y-188973542D02*
X185348690Y-189068780D01*
X185348690Y-189068780D02*
X185241548Y-189164019D01*
X185241548Y-189164019D02*
X185158214Y-189068780D01*
X185158214Y-189068780D02*
X185265357Y-188973542D01*
X185265357Y-188973542D02*
X185241548Y-189164019D01*
D10*
D11*
X178958026Y-185607614D02*
X178458026Y-185607614D01*
X178458026Y-186393328D02*
X178458026Y-184893328D01*
X178458026Y-184893328D02*
X179172312Y-184893328D01*
X179743740Y-186393328D02*
X179743740Y-185393328D01*
X179743740Y-184893328D02*
X179672312Y-184964757D01*
X179672312Y-184964757D02*
X179743740Y-185036185D01*
X179743740Y-185036185D02*
X179815169Y-184964757D01*
X179815169Y-184964757D02*
X179743740Y-184893328D01*
X179743740Y-184893328D02*
X179743740Y-185036185D01*
X180672312Y-186393328D02*
X180529455Y-186321900D01*
X180529455Y-186321900D02*
X180458026Y-186179042D01*
X180458026Y-186179042D02*
X180458026Y-184893328D01*
X181815169Y-186321900D02*
X181672312Y-186393328D01*
X181672312Y-186393328D02*
X181386598Y-186393328D01*
X181386598Y-186393328D02*
X181243740Y-186321900D01*
X181243740Y-186321900D02*
X181172312Y-186179042D01*
X181172312Y-186179042D02*
X181172312Y-185607614D01*
X181172312Y-185607614D02*
X181243740Y-185464757D01*
X181243740Y-185464757D02*
X181386598Y-185393328D01*
X181386598Y-185393328D02*
X181672312Y-185393328D01*
X181672312Y-185393328D02*
X181815169Y-185464757D01*
X181815169Y-185464757D02*
X181886598Y-185607614D01*
X181886598Y-185607614D02*
X181886598Y-185750471D01*
X181886598Y-185750471D02*
X181172312Y-185893328D01*
X182529454Y-186250471D02*
X182600883Y-186321900D01*
X182600883Y-186321900D02*
X182529454Y-186393328D01*
X182529454Y-186393328D02*
X182458026Y-186321900D01*
X182458026Y-186321900D02*
X182529454Y-186250471D01*
X182529454Y-186250471D02*
X182529454Y-186393328D01*
X182529454Y-185464757D02*
X182600883Y-185536185D01*
X182600883Y-185536185D02*
X182529454Y-185607614D01*
X182529454Y-185607614D02*
X182458026Y-185536185D01*
X182458026Y-185536185D02*
X182529454Y-185464757D01*
X182529454Y-185464757D02*
X182529454Y-185607614D01*
X184315169Y-186321900D02*
X184529455Y-186393328D01*
X184529455Y-186393328D02*
X184886597Y-186393328D01*
X184886597Y-186393328D02*
X185029455Y-186321900D01*
X185029455Y-186321900D02*
X185100883Y-186250471D01*
X185100883Y-186250471D02*
X185172312Y-186107614D01*
X185172312Y-186107614D02*
X185172312Y-185964757D01*
X185172312Y-185964757D02*
X185100883Y-185821900D01*
X185100883Y-185821900D02*
X185029455Y-185750471D01*
X185029455Y-185750471D02*
X184886597Y-185679042D01*
X184886597Y-185679042D02*
X184600883Y-185607614D01*
X184600883Y-185607614D02*
X184458026Y-185536185D01*
X184458026Y-185536185D02*
X184386597Y-185464757D01*
X184386597Y-185464757D02*
X184315169Y-185321900D01*
X184315169Y-185321900D02*
X184315169Y-185179042D01*
X184315169Y-185179042D02*
X184386597Y-185036185D01*
X184386597Y-185036185D02*
X184458026Y-184964757D01*
X184458026Y-184964757D02*
X184600883Y-184893328D01*
X184600883Y-184893328D02*
X184958026Y-184893328D01*
X184958026Y-184893328D02*
X185172312Y-184964757D01*
X186386597Y-186321900D02*
X186243740Y-186393328D01*
X186243740Y-186393328D02*
X185958026Y-186393328D01*
X185958026Y-186393328D02*
X185815168Y-186321900D01*
X185815168Y-186321900D02*
X185743740Y-186179042D01*
X185743740Y-186179042D02*
X185743740Y-185607614D01*
X185743740Y-185607614D02*
X185815168Y-185464757D01*
X185815168Y-185464757D02*
X185958026Y-185393328D01*
X185958026Y-185393328D02*
X186243740Y-185393328D01*
X186243740Y-185393328D02*
X186386597Y-185464757D01*
X186386597Y-185464757D02*
X186458026Y-185607614D01*
X186458026Y-185607614D02*
X186458026Y-185750471D01*
X186458026Y-185750471D02*
X185743740Y-185893328D01*
X187100882Y-185393328D02*
X187100882Y-186393328D01*
X187100882Y-185536185D02*
X187172311Y-185464757D01*
X187172311Y-185464757D02*
X187315168Y-185393328D01*
X187315168Y-185393328D02*
X187529454Y-185393328D01*
X187529454Y-185393328D02*
X187672311Y-185464757D01*
X187672311Y-185464757D02*
X187743740Y-185607614D01*
X187743740Y-185607614D02*
X187743740Y-186393328D01*
X188386597Y-186321900D02*
X188529454Y-186393328D01*
X188529454Y-186393328D02*
X188815168Y-186393328D01*
X188815168Y-186393328D02*
X188958025Y-186321900D01*
X188958025Y-186321900D02*
X189029454Y-186179042D01*
X189029454Y-186179042D02*
X189029454Y-186107614D01*
X189029454Y-186107614D02*
X188958025Y-185964757D01*
X188958025Y-185964757D02*
X188815168Y-185893328D01*
X188815168Y-185893328D02*
X188600883Y-185893328D01*
X188600883Y-185893328D02*
X188458025Y-185821900D01*
X188458025Y-185821900D02*
X188386597Y-185679042D01*
X188386597Y-185679042D02*
X188386597Y-185607614D01*
X188386597Y-185607614D02*
X188458025Y-185464757D01*
X188458025Y-185464757D02*
X188600883Y-185393328D01*
X188600883Y-185393328D02*
X188815168Y-185393328D01*
X188815168Y-185393328D02*
X188958025Y-185464757D01*
X189886597Y-186393328D02*
X189743740Y-186321900D01*
X189743740Y-186321900D02*
X189672311Y-186250471D01*
X189672311Y-186250471D02*
X189600883Y-186107614D01*
X189600883Y-186107614D02*
X189600883Y-185679042D01*
X189600883Y-185679042D02*
X189672311Y-185536185D01*
X189672311Y-185536185D02*
X189743740Y-185464757D01*
X189743740Y-185464757D02*
X189886597Y-185393328D01*
X189886597Y-185393328D02*
X190100883Y-185393328D01*
X190100883Y-185393328D02*
X190243740Y-185464757D01*
X190243740Y-185464757D02*
X190315169Y-185536185D01*
X190315169Y-185536185D02*
X190386597Y-185679042D01*
X190386597Y-185679042D02*
X190386597Y-186107614D01*
X190386597Y-186107614D02*
X190315169Y-186250471D01*
X190315169Y-186250471D02*
X190243740Y-186321900D01*
X190243740Y-186321900D02*
X190100883Y-186393328D01*
X190100883Y-186393328D02*
X189886597Y-186393328D01*
X191029454Y-186393328D02*
X191029454Y-185393328D01*
X191029454Y-185679042D02*
X191100883Y-185536185D01*
X191100883Y-185536185D02*
X191172312Y-185464757D01*
X191172312Y-185464757D02*
X191315169Y-185393328D01*
X191315169Y-185393328D02*
X191458026Y-185393328D01*
X193958025Y-186250471D02*
X193886597Y-186321900D01*
X193886597Y-186321900D02*
X193672311Y-186393328D01*
X193672311Y-186393328D02*
X193529454Y-186393328D01*
X193529454Y-186393328D02*
X193315168Y-186321900D01*
X193315168Y-186321900D02*
X193172311Y-186179042D01*
X193172311Y-186179042D02*
X193100882Y-186036185D01*
X193100882Y-186036185D02*
X193029454Y-185750471D01*
X193029454Y-185750471D02*
X193029454Y-185536185D01*
X193029454Y-185536185D02*
X193100882Y-185250471D01*
X193100882Y-185250471D02*
X193172311Y-185107614D01*
X193172311Y-185107614D02*
X193315168Y-184964757D01*
X193315168Y-184964757D02*
X193529454Y-184893328D01*
X193529454Y-184893328D02*
X193672311Y-184893328D01*
X193672311Y-184893328D02*
X193886597Y-184964757D01*
X193886597Y-184964757D02*
X193958025Y-185036185D01*
X195172311Y-186321900D02*
X195029454Y-186393328D01*
X195029454Y-186393328D02*
X194743740Y-186393328D01*
X194743740Y-186393328D02*
X194600882Y-186321900D01*
X194600882Y-186321900D02*
X194529454Y-186179042D01*
X194529454Y-186179042D02*
X194529454Y-185607614D01*
X194529454Y-185607614D02*
X194600882Y-185464757D01*
X194600882Y-185464757D02*
X194743740Y-185393328D01*
X194743740Y-185393328D02*
X195029454Y-185393328D01*
X195029454Y-185393328D02*
X195172311Y-185464757D01*
X195172311Y-185464757D02*
X195243740Y-185607614D01*
X195243740Y-185607614D02*
X195243740Y-185750471D01*
X195243740Y-185750471D02*
X194529454Y-185893328D01*
X196100882Y-186393328D02*
X195958025Y-186321900D01*
X195958025Y-186321900D02*
X195886596Y-186179042D01*
X195886596Y-186179042D02*
X195886596Y-184893328D01*
X196886596Y-186393328D02*
X196743739Y-186321900D01*
X196743739Y-186321900D02*
X196672310Y-186179042D01*
X196672310Y-186179042D02*
X196672310Y-184893328D01*
X198458024Y-185393328D02*
X198743739Y-186393328D01*
X198743739Y-186393328D02*
X199029453Y-185679042D01*
X199029453Y-185679042D02*
X199315167Y-186393328D01*
X199315167Y-186393328D02*
X199600881Y-185393328D01*
X200172310Y-186393328D02*
X200172310Y-185393328D01*
X200172310Y-184893328D02*
X200100882Y-184964757D01*
X200100882Y-184964757D02*
X200172310Y-185036185D01*
X200172310Y-185036185D02*
X200243739Y-184964757D01*
X200243739Y-184964757D02*
X200172310Y-184893328D01*
X200172310Y-184893328D02*
X200172310Y-185036185D01*
X200672311Y-185393328D02*
X201243739Y-185393328D01*
X200886596Y-184893328D02*
X200886596Y-186179042D01*
X200886596Y-186179042D02*
X200958025Y-186321900D01*
X200958025Y-186321900D02*
X201100882Y-186393328D01*
X201100882Y-186393328D02*
X201243739Y-186393328D01*
X201743739Y-186393328D02*
X201743739Y-184893328D01*
X202386597Y-186393328D02*
X202386597Y-185607614D01*
X202386597Y-185607614D02*
X202315168Y-185464757D01*
X202315168Y-185464757D02*
X202172311Y-185393328D01*
X202172311Y-185393328D02*
X201958025Y-185393328D01*
X201958025Y-185393328D02*
X201815168Y-185464757D01*
X201815168Y-185464757D02*
X201743739Y-185536185D01*
X205100882Y-186250471D02*
X205029454Y-186321900D01*
X205029454Y-186321900D02*
X204815168Y-186393328D01*
X204815168Y-186393328D02*
X204672311Y-186393328D01*
X204672311Y-186393328D02*
X204458025Y-186321900D01*
X204458025Y-186321900D02*
X204315168Y-186179042D01*
X204315168Y-186179042D02*
X204243739Y-186036185D01*
X204243739Y-186036185D02*
X204172311Y-185750471D01*
X204172311Y-185750471D02*
X204172311Y-185536185D01*
X204172311Y-185536185D02*
X204243739Y-185250471D01*
X204243739Y-185250471D02*
X204315168Y-185107614D01*
X204315168Y-185107614D02*
X204458025Y-184964757D01*
X204458025Y-184964757D02*
X204672311Y-184893328D01*
X204672311Y-184893328D02*
X204815168Y-184893328D01*
X204815168Y-184893328D02*
X205029454Y-184964757D01*
X205029454Y-184964757D02*
X205100882Y-185036185D01*
X205958025Y-186393328D02*
X205815168Y-186321900D01*
X205815168Y-186321900D02*
X205743739Y-186250471D01*
X205743739Y-186250471D02*
X205672311Y-186107614D01*
X205672311Y-186107614D02*
X205672311Y-185679042D01*
X205672311Y-185679042D02*
X205743739Y-185536185D01*
X205743739Y-185536185D02*
X205815168Y-185464757D01*
X205815168Y-185464757D02*
X205958025Y-185393328D01*
X205958025Y-185393328D02*
X206172311Y-185393328D01*
X206172311Y-185393328D02*
X206315168Y-185464757D01*
X206315168Y-185464757D02*
X206386597Y-185536185D01*
X206386597Y-185536185D02*
X206458025Y-185679042D01*
X206458025Y-185679042D02*
X206458025Y-186107614D01*
X206458025Y-186107614D02*
X206386597Y-186250471D01*
X206386597Y-186250471D02*
X206315168Y-186321900D01*
X206315168Y-186321900D02*
X206172311Y-186393328D01*
X206172311Y-186393328D02*
X205958025Y-186393328D01*
X207100882Y-186393328D02*
X207100882Y-185393328D01*
X207100882Y-185536185D02*
X207172311Y-185464757D01*
X207172311Y-185464757D02*
X207315168Y-185393328D01*
X207315168Y-185393328D02*
X207529454Y-185393328D01*
X207529454Y-185393328D02*
X207672311Y-185464757D01*
X207672311Y-185464757D02*
X207743740Y-185607614D01*
X207743740Y-185607614D02*
X207743740Y-186393328D01*
X207743740Y-185607614D02*
X207815168Y-185464757D01*
X207815168Y-185464757D02*
X207958025Y-185393328D01*
X207958025Y-185393328D02*
X208172311Y-185393328D01*
X208172311Y-185393328D02*
X208315168Y-185464757D01*
X208315168Y-185464757D02*
X208386597Y-185607614D01*
X208386597Y-185607614D02*
X208386597Y-186393328D01*
X209100882Y-186393328D02*
X209100882Y-185393328D01*
X209100882Y-185536185D02*
X209172311Y-185464757D01*
X209172311Y-185464757D02*
X209315168Y-185393328D01*
X209315168Y-185393328D02*
X209529454Y-185393328D01*
X209529454Y-185393328D02*
X209672311Y-185464757D01*
X209672311Y-185464757D02*
X209743740Y-185607614D01*
X209743740Y-185607614D02*
X209743740Y-186393328D01*
X209743740Y-185607614D02*
X209815168Y-185464757D01*
X209815168Y-185464757D02*
X209958025Y-185393328D01*
X209958025Y-185393328D02*
X210172311Y-185393328D01*
X210172311Y-185393328D02*
X210315168Y-185464757D01*
X210315168Y-185464757D02*
X210386597Y-185607614D01*
X210386597Y-185607614D02*
X210386597Y-186393328D01*
X211029454Y-186321900D02*
X211172311Y-186393328D01*
X211172311Y-186393328D02*
X211458025Y-186393328D01*
X211458025Y-186393328D02*
X211600882Y-186321900D01*
X211600882Y-186321900D02*
X211672311Y-186179042D01*
X211672311Y-186179042D02*
X211672311Y-186107614D01*
X211672311Y-186107614D02*
X211600882Y-185964757D01*
X211600882Y-185964757D02*
X211458025Y-185893328D01*
X211458025Y-185893328D02*
X211243740Y-185893328D01*
X211243740Y-185893328D02*
X211100882Y-185821900D01*
X211100882Y-185821900D02*
X211029454Y-185679042D01*
X211029454Y-185679042D02*
X211029454Y-185607614D01*
X211029454Y-185607614D02*
X211100882Y-185464757D01*
X211100882Y-185464757D02*
X211243740Y-185393328D01*
X211243740Y-185393328D02*
X211458025Y-185393328D01*
X211458025Y-185393328D02*
X211600882Y-185464757D01*
X212315168Y-186250471D02*
X212386597Y-186321900D01*
X212386597Y-186321900D02*
X212315168Y-186393328D01*
X212315168Y-186393328D02*
X212243740Y-186321900D01*
X212243740Y-186321900D02*
X212315168Y-186250471D01*
X212315168Y-186250471D02*
X212315168Y-186393328D01*
X213029454Y-186393328D02*
X213029454Y-184893328D01*
X213172312Y-185821900D02*
X213600883Y-186393328D01*
X213600883Y-185393328D02*
X213029454Y-185964757D01*
X214243740Y-186393328D02*
X214243740Y-185393328D01*
X214243740Y-184893328D02*
X214172312Y-184964757D01*
X214172312Y-184964757D02*
X214243740Y-185036185D01*
X214243740Y-185036185D02*
X214315169Y-184964757D01*
X214315169Y-184964757D02*
X214243740Y-184893328D01*
X214243740Y-184893328D02*
X214243740Y-185036185D01*
X215600884Y-186321900D02*
X215458026Y-186393328D01*
X215458026Y-186393328D02*
X215172312Y-186393328D01*
X215172312Y-186393328D02*
X215029455Y-186321900D01*
X215029455Y-186321900D02*
X214958026Y-186250471D01*
X214958026Y-186250471D02*
X214886598Y-186107614D01*
X214886598Y-186107614D02*
X214886598Y-185679042D01*
X214886598Y-185679042D02*
X214958026Y-185536185D01*
X214958026Y-185536185D02*
X215029455Y-185464757D01*
X215029455Y-185464757D02*
X215172312Y-185393328D01*
X215172312Y-185393328D02*
X215458026Y-185393328D01*
X215458026Y-185393328D02*
X215600884Y-185464757D01*
X216886598Y-186393328D02*
X216886598Y-185607614D01*
X216886598Y-185607614D02*
X216815169Y-185464757D01*
X216815169Y-185464757D02*
X216672312Y-185393328D01*
X216672312Y-185393328D02*
X216386598Y-185393328D01*
X216386598Y-185393328D02*
X216243740Y-185464757D01*
X216886598Y-186321900D02*
X216743740Y-186393328D01*
X216743740Y-186393328D02*
X216386598Y-186393328D01*
X216386598Y-186393328D02*
X216243740Y-186321900D01*
X216243740Y-186321900D02*
X216172312Y-186179042D01*
X216172312Y-186179042D02*
X216172312Y-186036185D01*
X216172312Y-186036185D02*
X216243740Y-185893328D01*
X216243740Y-185893328D02*
X216386598Y-185821900D01*
X216386598Y-185821900D02*
X216743740Y-185821900D01*
X216743740Y-185821900D02*
X216886598Y-185750471D01*
X218243741Y-186393328D02*
X218243741Y-184893328D01*
X218243741Y-186321900D02*
X218100883Y-186393328D01*
X218100883Y-186393328D02*
X217815169Y-186393328D01*
X217815169Y-186393328D02*
X217672312Y-186321900D01*
X217672312Y-186321900D02*
X217600883Y-186250471D01*
X217600883Y-186250471D02*
X217529455Y-186107614D01*
X217529455Y-186107614D02*
X217529455Y-185679042D01*
X217529455Y-185679042D02*
X217600883Y-185536185D01*
X217600883Y-185536185D02*
X217672312Y-185464757D01*
X217672312Y-185464757D02*
X217815169Y-185393328D01*
X217815169Y-185393328D02*
X218100883Y-185393328D01*
X218100883Y-185393328D02*
X218243741Y-185464757D01*
X218600884Y-186536185D02*
X219743741Y-186536185D01*
X220100883Y-185393328D02*
X220100883Y-186893328D01*
X220100883Y-185464757D02*
X220243741Y-185393328D01*
X220243741Y-185393328D02*
X220529455Y-185393328D01*
X220529455Y-185393328D02*
X220672312Y-185464757D01*
X220672312Y-185464757D02*
X220743741Y-185536185D01*
X220743741Y-185536185D02*
X220815169Y-185679042D01*
X220815169Y-185679042D02*
X220815169Y-186107614D01*
X220815169Y-186107614D02*
X220743741Y-186250471D01*
X220743741Y-186250471D02*
X220672312Y-186321900D01*
X220672312Y-186321900D02*
X220529455Y-186393328D01*
X220529455Y-186393328D02*
X220243741Y-186393328D01*
X220243741Y-186393328D02*
X220100883Y-186321900D01*
X222100884Y-186321900D02*
X221958026Y-186393328D01*
X221958026Y-186393328D02*
X221672312Y-186393328D01*
X221672312Y-186393328D02*
X221529455Y-186321900D01*
X221529455Y-186321900D02*
X221458026Y-186250471D01*
X221458026Y-186250471D02*
X221386598Y-186107614D01*
X221386598Y-186107614D02*
X221386598Y-185679042D01*
X221386598Y-185679042D02*
X221458026Y-185536185D01*
X221458026Y-185536185D02*
X221529455Y-185464757D01*
X221529455Y-185464757D02*
X221672312Y-185393328D01*
X221672312Y-185393328D02*
X221958026Y-185393328D01*
X221958026Y-185393328D02*
X222100884Y-185464757D01*
X222743740Y-186393328D02*
X222743740Y-184893328D01*
X222743740Y-185464757D02*
X222886598Y-185393328D01*
X222886598Y-185393328D02*
X223172312Y-185393328D01*
X223172312Y-185393328D02*
X223315169Y-185464757D01*
X223315169Y-185464757D02*
X223386598Y-185536185D01*
X223386598Y-185536185D02*
X223458026Y-185679042D01*
X223458026Y-185679042D02*
X223458026Y-186107614D01*
X223458026Y-186107614D02*
X223386598Y-186250471D01*
X223386598Y-186250471D02*
X223315169Y-186321900D01*
X223315169Y-186321900D02*
X223172312Y-186393328D01*
X223172312Y-186393328D02*
X222886598Y-186393328D01*
X222886598Y-186393328D02*
X222743740Y-186321900D01*
D10*
D11*
X177002200Y-181507200D02*
X285002200Y-181507200D01*
D10*
D11*
X178386598Y-183621900D02*
X178600884Y-183693328D01*
X178600884Y-183693328D02*
X178958026Y-183693328D01*
X178958026Y-183693328D02*
X179100884Y-183621900D01*
X179100884Y-183621900D02*
X179172312Y-183550471D01*
X179172312Y-183550471D02*
X179243741Y-183407614D01*
X179243741Y-183407614D02*
X179243741Y-183264757D01*
X179243741Y-183264757D02*
X179172312Y-183121900D01*
X179172312Y-183121900D02*
X179100884Y-183050471D01*
X179100884Y-183050471D02*
X178958026Y-182979042D01*
X178958026Y-182979042D02*
X178672312Y-182907614D01*
X178672312Y-182907614D02*
X178529455Y-182836185D01*
X178529455Y-182836185D02*
X178458026Y-182764757D01*
X178458026Y-182764757D02*
X178386598Y-182621900D01*
X178386598Y-182621900D02*
X178386598Y-182479042D01*
X178386598Y-182479042D02*
X178458026Y-182336185D01*
X178458026Y-182336185D02*
X178529455Y-182264757D01*
X178529455Y-182264757D02*
X178672312Y-182193328D01*
X178672312Y-182193328D02*
X179029455Y-182193328D01*
X179029455Y-182193328D02*
X179243741Y-182264757D01*
X179886597Y-183693328D02*
X179886597Y-182193328D01*
X180529455Y-183693328D02*
X180529455Y-182907614D01*
X180529455Y-182907614D02*
X180458026Y-182764757D01*
X180458026Y-182764757D02*
X180315169Y-182693328D01*
X180315169Y-182693328D02*
X180100883Y-182693328D01*
X180100883Y-182693328D02*
X179958026Y-182764757D01*
X179958026Y-182764757D02*
X179886597Y-182836185D01*
X181815169Y-183621900D02*
X181672312Y-183693328D01*
X181672312Y-183693328D02*
X181386598Y-183693328D01*
X181386598Y-183693328D02*
X181243740Y-183621900D01*
X181243740Y-183621900D02*
X181172312Y-183479042D01*
X181172312Y-183479042D02*
X181172312Y-182907614D01*
X181172312Y-182907614D02*
X181243740Y-182764757D01*
X181243740Y-182764757D02*
X181386598Y-182693328D01*
X181386598Y-182693328D02*
X181672312Y-182693328D01*
X181672312Y-182693328D02*
X181815169Y-182764757D01*
X181815169Y-182764757D02*
X181886598Y-182907614D01*
X181886598Y-182907614D02*
X181886598Y-183050471D01*
X181886598Y-183050471D02*
X181172312Y-183193328D01*
X183100883Y-183621900D02*
X182958026Y-183693328D01*
X182958026Y-183693328D02*
X182672312Y-183693328D01*
X182672312Y-183693328D02*
X182529454Y-183621900D01*
X182529454Y-183621900D02*
X182458026Y-183479042D01*
X182458026Y-183479042D02*
X182458026Y-182907614D01*
X182458026Y-182907614D02*
X182529454Y-182764757D01*
X182529454Y-182764757D02*
X182672312Y-182693328D01*
X182672312Y-182693328D02*
X182958026Y-182693328D01*
X182958026Y-182693328D02*
X183100883Y-182764757D01*
X183100883Y-182764757D02*
X183172312Y-182907614D01*
X183172312Y-182907614D02*
X183172312Y-183050471D01*
X183172312Y-183050471D02*
X182458026Y-183193328D01*
X183600883Y-182693328D02*
X184172311Y-182693328D01*
X183815168Y-182193328D02*
X183815168Y-183479042D01*
X183815168Y-183479042D02*
X183886597Y-183621900D01*
X183886597Y-183621900D02*
X184029454Y-183693328D01*
X184029454Y-183693328D02*
X184172311Y-183693328D01*
X184672311Y-183550471D02*
X184743740Y-183621900D01*
X184743740Y-183621900D02*
X184672311Y-183693328D01*
X184672311Y-183693328D02*
X184600883Y-183621900D01*
X184600883Y-183621900D02*
X184672311Y-183550471D01*
X184672311Y-183550471D02*
X184672311Y-183693328D01*
X184672311Y-182764757D02*
X184743740Y-182836185D01*
X184743740Y-182836185D02*
X184672311Y-182907614D01*
X184672311Y-182907614D02*
X184600883Y-182836185D01*
X184600883Y-182836185D02*
X184672311Y-182764757D01*
X184672311Y-182764757D02*
X184672311Y-182907614D01*
D10*
D11*
X197002200Y-191507200D02*
X197002200Y-194507200D01*
D10*
D11*
X261002200Y-191507200D02*
X261002200Y-198007200D01*
X100357142Y-62954819D02*
X100023809Y-62478628D01*
X99785714Y-62954819D02*
X99785714Y-61954819D01*
X99785714Y-61954819D02*
X100166666Y-61954819D01*
X100166666Y-61954819D02*
X100261904Y-62002438D01*
X100261904Y-62002438D02*
X100309523Y-62050057D01*
X100309523Y-62050057D02*
X100357142Y-62145295D01*
X100357142Y-62145295D02*
X100357142Y-62288152D01*
X100357142Y-62288152D02*
X100309523Y-62383390D01*
X100309523Y-62383390D02*
X100261904Y-62431009D01*
X100261904Y-62431009D02*
X100166666Y-62478628D01*
X100166666Y-62478628D02*
X99785714Y-62478628D01*
X100738095Y-62050057D02*
X100785714Y-62002438D01*
X100785714Y-62002438D02*
X100880952Y-61954819D01*
X100880952Y-61954819D02*
X101119047Y-61954819D01*
X101119047Y-61954819D02*
X101214285Y-62002438D01*
X101214285Y-62002438D02*
X101261904Y-62050057D01*
X101261904Y-62050057D02*
X101309523Y-62145295D01*
X101309523Y-62145295D02*
X101309523Y-62240533D01*
X101309523Y-62240533D02*
X101261904Y-62383390D01*
X101261904Y-62383390D02*
X100690476Y-62954819D01*
X100690476Y-62954819D02*
X101309523Y-62954819D01*
X102214285Y-61954819D02*
X101738095Y-61954819D01*
X101738095Y-61954819D02*
X101690476Y-62431009D01*
X101690476Y-62431009D02*
X101738095Y-62383390D01*
X101738095Y-62383390D02*
X101833333Y-62335771D01*
X101833333Y-62335771D02*
X102071428Y-62335771D01*
X102071428Y-62335771D02*
X102166666Y-62383390D01*
X102166666Y-62383390D02*
X102214285Y-62431009D01*
X102214285Y-62431009D02*
X102261904Y-62526247D01*
X102261904Y-62526247D02*
X102261904Y-62764342D01*
X102261904Y-62764342D02*
X102214285Y-62859580D01*
X102214285Y-62859580D02*
X102166666Y-62907200D01*
X102166666Y-62907200D02*
X102071428Y-62954819D01*
X102071428Y-62954819D02*
X101833333Y-62954819D01*
X101833333Y-62954819D02*
X101738095Y-62907200D01*
X101738095Y-62907200D02*
X101690476Y-62859580D01*
X120712142Y-57454819D02*
X120378809Y-56978628D01*
X120140714Y-57454819D02*
X120140714Y-56454819D01*
X120140714Y-56454819D02*
X120521666Y-56454819D01*
X120521666Y-56454819D02*
X120616904Y-56502438D01*
X120616904Y-56502438D02*
X120664523Y-56550057D01*
X120664523Y-56550057D02*
X120712142Y-56645295D01*
X120712142Y-56645295D02*
X120712142Y-56788152D01*
X120712142Y-56788152D02*
X120664523Y-56883390D01*
X120664523Y-56883390D02*
X120616904Y-56931009D01*
X120616904Y-56931009D02*
X120521666Y-56978628D01*
X120521666Y-56978628D02*
X120140714Y-56978628D01*
X121093095Y-56550057D02*
X121140714Y-56502438D01*
X121140714Y-56502438D02*
X121235952Y-56454819D01*
X121235952Y-56454819D02*
X121474047Y-56454819D01*
X121474047Y-56454819D02*
X121569285Y-56502438D01*
X121569285Y-56502438D02*
X121616904Y-56550057D01*
X121616904Y-56550057D02*
X121664523Y-56645295D01*
X121664523Y-56645295D02*
X121664523Y-56740533D01*
X121664523Y-56740533D02*
X121616904Y-56883390D01*
X121616904Y-56883390D02*
X121045476Y-57454819D01*
X121045476Y-57454819D02*
X121664523Y-57454819D01*
X121997857Y-56454819D02*
X122664523Y-56454819D01*
X122664523Y-56454819D02*
X122235952Y-57454819D01*
X48454819Y-78738094D02*
X47454819Y-78738094D01*
X47454819Y-78738094D02*
X47454819Y-78499999D01*
X47454819Y-78499999D02*
X47502438Y-78357142D01*
X47502438Y-78357142D02*
X47597676Y-78261904D01*
X47597676Y-78261904D02*
X47692914Y-78214285D01*
X47692914Y-78214285D02*
X47883390Y-78166666D01*
X47883390Y-78166666D02*
X48026247Y-78166666D01*
X48026247Y-78166666D02*
X48216723Y-78214285D01*
X48216723Y-78214285D02*
X48311961Y-78261904D01*
X48311961Y-78261904D02*
X48407200Y-78357142D01*
X48407200Y-78357142D02*
X48454819Y-78499999D01*
X48454819Y-78499999D02*
X48454819Y-78738094D01*
X47788152Y-77309523D02*
X48454819Y-77309523D01*
X47407200Y-77547618D02*
X48121485Y-77785713D01*
X48121485Y-77785713D02*
X48121485Y-77166666D01*
X71834819Y-73024166D02*
X71358628Y-73357499D01*
X71834819Y-73595594D02*
X70834819Y-73595594D01*
X70834819Y-73595594D02*
X70834819Y-73214642D01*
X70834819Y-73214642D02*
X70882438Y-73119404D01*
X70882438Y-73119404D02*
X70930057Y-73071785D01*
X70930057Y-73071785D02*
X71025295Y-73024166D01*
X71025295Y-73024166D02*
X71168152Y-73024166D01*
X71168152Y-73024166D02*
X71263390Y-73071785D01*
X71263390Y-73071785D02*
X71311009Y-73119404D01*
X71311009Y-73119404D02*
X71358628Y-73214642D01*
X71358628Y-73214642D02*
X71358628Y-73595594D01*
X70834819Y-72690832D02*
X70834819Y-72024166D01*
X70834819Y-72024166D02*
X71834819Y-72452737D01*
X51494642Y-37289580D02*
X51447023Y-37337200D01*
X51447023Y-37337200D02*
X51304166Y-37384819D01*
X51304166Y-37384819D02*
X51208928Y-37384819D01*
X51208928Y-37384819D02*
X51066071Y-37337200D01*
X51066071Y-37337200D02*
X50970833Y-37241961D01*
X50970833Y-37241961D02*
X50923214Y-37146723D01*
X50923214Y-37146723D02*
X50875595Y-36956247D01*
X50875595Y-36956247D02*
X50875595Y-36813390D01*
X50875595Y-36813390D02*
X50923214Y-36622914D01*
X50923214Y-36622914D02*
X50970833Y-36527676D01*
X50970833Y-36527676D02*
X51066071Y-36432438D01*
X51066071Y-36432438D02*
X51208928Y-36384819D01*
X51208928Y-36384819D02*
X51304166Y-36384819D01*
X51304166Y-36384819D02*
X51447023Y-36432438D01*
X51447023Y-36432438D02*
X51494642Y-36480057D01*
X51875595Y-36480057D02*
X51923214Y-36432438D01*
X51923214Y-36432438D02*
X52018452Y-36384819D01*
X52018452Y-36384819D02*
X52256547Y-36384819D01*
X52256547Y-36384819D02*
X52351785Y-36432438D01*
X52351785Y-36432438D02*
X52399404Y-36480057D01*
X52399404Y-36480057D02*
X52447023Y-36575295D01*
X52447023Y-36575295D02*
X52447023Y-36670533D01*
X52447023Y-36670533D02*
X52399404Y-36813390D01*
X52399404Y-36813390D02*
X51827976Y-37384819D01*
X51827976Y-37384819D02*
X52447023Y-37384819D01*
X52780357Y-36384819D02*
X53447023Y-36384819D01*
X53447023Y-36384819D02*
X53018452Y-37384819D01*
X111245833Y-46884819D02*
X110912500Y-46408628D01*
X110674405Y-46884819D02*
X110674405Y-45884819D01*
X110674405Y-45884819D02*
X111055357Y-45884819D01*
X111055357Y-45884819D02*
X111150595Y-45932438D01*
X111150595Y-45932438D02*
X111198214Y-45980057D01*
X111198214Y-45980057D02*
X111245833Y-46075295D01*
X111245833Y-46075295D02*
X111245833Y-46218152D01*
X111245833Y-46218152D02*
X111198214Y-46313390D01*
X111198214Y-46313390D02*
X111150595Y-46361009D01*
X111150595Y-46361009D02*
X111055357Y-46408628D01*
X111055357Y-46408628D02*
X110674405Y-46408628D01*
X111579167Y-45884819D02*
X112198214Y-45884819D01*
X112198214Y-45884819D02*
X111864881Y-46265771D01*
X111864881Y-46265771D02*
X112007738Y-46265771D01*
X112007738Y-46265771D02*
X112102976Y-46313390D01*
X112102976Y-46313390D02*
X112150595Y-46361009D01*
X112150595Y-46361009D02*
X112198214Y-46456247D01*
X112198214Y-46456247D02*
X112198214Y-46694342D01*
X112198214Y-46694342D02*
X112150595Y-46789580D01*
X112150595Y-46789580D02*
X112102976Y-46837200D01*
X112102976Y-46837200D02*
X112007738Y-46884819D01*
X112007738Y-46884819D02*
X111722024Y-46884819D01*
X111722024Y-46884819D02*
X111626786Y-46837200D01*
X111626786Y-46837200D02*
X111579167Y-46789580D01*
X101347142Y-39859580D02*
X101299523Y-39907200D01*
X101299523Y-39907200D02*
X101156666Y-39954819D01*
X101156666Y-39954819D02*
X101061428Y-39954819D01*
X101061428Y-39954819D02*
X100918571Y-39907200D01*
X100918571Y-39907200D02*
X100823333Y-39811961D01*
X100823333Y-39811961D02*
X100775714Y-39716723D01*
X100775714Y-39716723D02*
X100728095Y-39526247D01*
X100728095Y-39526247D02*
X100728095Y-39383390D01*
X100728095Y-39383390D02*
X100775714Y-39192914D01*
X100775714Y-39192914D02*
X100823333Y-39097676D01*
X100823333Y-39097676D02*
X100918571Y-39002438D01*
X100918571Y-39002438D02*
X101061428Y-38954819D01*
X101061428Y-38954819D02*
X101156666Y-38954819D01*
X101156666Y-38954819D02*
X101299523Y-39002438D01*
X101299523Y-39002438D02*
X101347142Y-39050057D01*
X102299523Y-39954819D02*
X101728095Y-39954819D01*
X102013809Y-39954819D02*
X102013809Y-38954819D01*
X102013809Y-38954819D02*
X101918571Y-39097676D01*
X101918571Y-39097676D02*
X101823333Y-39192914D01*
X101823333Y-39192914D02*
X101728095Y-39240533D01*
X102775714Y-39954819D02*
X102966190Y-39954819D01*
X102966190Y-39954819D02*
X103061428Y-39907200D01*
X103061428Y-39907200D02*
X103109047Y-39859580D01*
X103109047Y-39859580D02*
X103204285Y-39716723D01*
X103204285Y-39716723D02*
X103251904Y-39526247D01*
X103251904Y-39526247D02*
X103251904Y-39145295D01*
X103251904Y-39145295D02*
X103204285Y-39050057D01*
X103204285Y-39050057D02*
X103156666Y-39002438D01*
X103156666Y-39002438D02*
X103061428Y-38954819D01*
X103061428Y-38954819D02*
X102870952Y-38954819D01*
X102870952Y-38954819D02*
X102775714Y-39002438D01*
X102775714Y-39002438D02*
X102728095Y-39050057D01*
X102728095Y-39050057D02*
X102680476Y-39145295D01*
X102680476Y-39145295D02*
X102680476Y-39383390D01*
X102680476Y-39383390D02*
X102728095Y-39478628D01*
X102728095Y-39478628D02*
X102775714Y-39526247D01*
X102775714Y-39526247D02*
X102870952Y-39573866D01*
X102870952Y-39573866D02*
X103061428Y-39573866D01*
X103061428Y-39573866D02*
X103156666Y-39526247D01*
X103156666Y-39526247D02*
X103204285Y-39478628D01*
X103204285Y-39478628D02*
X103251904Y-39383390D01*
X51064819Y-84761904D02*
X51064819Y-84190476D01*
X52064819Y-84476190D02*
X51064819Y-84476190D01*
X52064819Y-83857142D02*
X51064819Y-83857142D01*
X51064819Y-83857142D02*
X51064819Y-83476190D01*
X51064819Y-83476190D02*
X51112438Y-83380952D01*
X51112438Y-83380952D02*
X51160057Y-83333333D01*
X51160057Y-83333333D02*
X51255295Y-83285714D01*
X51255295Y-83285714D02*
X51398152Y-83285714D01*
X51398152Y-83285714D02*
X51493390Y-83333333D01*
X51493390Y-83333333D02*
X51541009Y-83380952D01*
X51541009Y-83380952D02*
X51588628Y-83476190D01*
X51588628Y-83476190D02*
X51588628Y-83857142D01*
X51064819Y-82952380D02*
X51064819Y-82333333D01*
X51064819Y-82333333D02*
X51445771Y-82666666D01*
X51445771Y-82666666D02*
X51445771Y-82523809D01*
X51445771Y-82523809D02*
X51493390Y-82428571D01*
X51493390Y-82428571D02*
X51541009Y-82380952D01*
X51541009Y-82380952D02*
X51636247Y-82333333D01*
X51636247Y-82333333D02*
X51874342Y-82333333D01*
X51874342Y-82333333D02*
X51969580Y-82380952D01*
X51969580Y-82380952D02*
X52017200Y-82428571D01*
X52017200Y-82428571D02*
X52064819Y-82523809D01*
X52064819Y-82523809D02*
X52064819Y-82809523D01*
X52064819Y-82809523D02*
X52017200Y-82904761D01*
X52017200Y-82904761D02*
X51969580Y-82952380D01*
X108494642Y-92359580D02*
X108447023Y-92407200D01*
X108447023Y-92407200D02*
X108304166Y-92454819D01*
X108304166Y-92454819D02*
X108208928Y-92454819D01*
X108208928Y-92454819D02*
X108066071Y-92407200D01*
X108066071Y-92407200D02*
X107970833Y-92311961D01*
X107970833Y-92311961D02*
X107923214Y-92216723D01*
X107923214Y-92216723D02*
X107875595Y-92026247D01*
X107875595Y-92026247D02*
X107875595Y-91883390D01*
X107875595Y-91883390D02*
X107923214Y-91692914D01*
X107923214Y-91692914D02*
X107970833Y-91597676D01*
X107970833Y-91597676D02*
X108066071Y-91502438D01*
X108066071Y-91502438D02*
X108208928Y-91454819D01*
X108208928Y-91454819D02*
X108304166Y-91454819D01*
X108304166Y-91454819D02*
X108447023Y-91502438D01*
X108447023Y-91502438D02*
X108494642Y-91550057D01*
X109447023Y-92454819D02*
X108875595Y-92454819D01*
X109161309Y-92454819D02*
X109161309Y-91454819D01*
X109161309Y-91454819D02*
X109066071Y-91597676D01*
X109066071Y-91597676D02*
X108970833Y-91692914D01*
X108970833Y-91692914D02*
X108875595Y-91740533D01*
X109827976Y-91550057D02*
X109875595Y-91502438D01*
X109875595Y-91502438D02*
X109970833Y-91454819D01*
X109970833Y-91454819D02*
X110208928Y-91454819D01*
X110208928Y-91454819D02*
X110304166Y-91502438D01*
X110304166Y-91502438D02*
X110351785Y-91550057D01*
X110351785Y-91550057D02*
X110399404Y-91645295D01*
X110399404Y-91645295D02*
X110399404Y-91740533D01*
X110399404Y-91740533D02*
X110351785Y-91883390D01*
X110351785Y-91883390D02*
X109780357Y-92454819D01*
X109780357Y-92454819D02*
X110399404Y-92454819D01*
X73857142Y-46359580D02*
X73809523Y-46407200D01*
X73809523Y-46407200D02*
X73666666Y-46454819D01*
X73666666Y-46454819D02*
X73571428Y-46454819D01*
X73571428Y-46454819D02*
X73428571Y-46407200D01*
X73428571Y-46407200D02*
X73333333Y-46311961D01*
X73333333Y-46311961D02*
X73285714Y-46216723D01*
X73285714Y-46216723D02*
X73238095Y-46026247D01*
X73238095Y-46026247D02*
X73238095Y-45883390D01*
X73238095Y-45883390D02*
X73285714Y-45692914D01*
X73285714Y-45692914D02*
X73333333Y-45597676D01*
X73333333Y-45597676D02*
X73428571Y-45502438D01*
X73428571Y-45502438D02*
X73571428Y-45454819D01*
X73571428Y-45454819D02*
X73666666Y-45454819D01*
X73666666Y-45454819D02*
X73809523Y-45502438D01*
X73809523Y-45502438D02*
X73857142Y-45550057D01*
X74238095Y-45550057D02*
X74285714Y-45502438D01*
X74285714Y-45502438D02*
X74380952Y-45454819D01*
X74380952Y-45454819D02*
X74619047Y-45454819D01*
X74619047Y-45454819D02*
X74714285Y-45502438D01*
X74714285Y-45502438D02*
X74761904Y-45550057D01*
X74761904Y-45550057D02*
X74809523Y-45645295D01*
X74809523Y-45645295D02*
X74809523Y-45740533D01*
X74809523Y-45740533D02*
X74761904Y-45883390D01*
X74761904Y-45883390D02*
X74190476Y-46454819D01*
X74190476Y-46454819D02*
X74809523Y-46454819D01*
X75666666Y-45788152D02*
X75666666Y-46454819D01*
X75428571Y-45407200D02*
X75190476Y-46121485D01*
X75190476Y-46121485D02*
X75809523Y-46121485D01*
X94954819Y-46381904D02*
X95764342Y-46381904D01*
X95764342Y-46381904D02*
X95859580Y-46334285D01*
X95859580Y-46334285D02*
X95907200Y-46286666D01*
X95907200Y-46286666D02*
X95954819Y-46191428D01*
X95954819Y-46191428D02*
X95954819Y-46000952D01*
X95954819Y-46000952D02*
X95907200Y-45905714D01*
X95907200Y-45905714D02*
X95859580Y-45858095D01*
X95859580Y-45858095D02*
X95764342Y-45810476D01*
X95764342Y-45810476D02*
X94954819Y-45810476D01*
X95954819Y-44810476D02*
X95954819Y-45381904D01*
X95954819Y-45096190D02*
X94954819Y-45096190D01*
X94954819Y-45096190D02*
X95097676Y-45191428D01*
X95097676Y-45191428D02*
X95192914Y-45286666D01*
X95192914Y-45286666D02*
X95240533Y-45381904D01*
X103357142Y-69954819D02*
X103023809Y-69478628D01*
X102785714Y-69954819D02*
X102785714Y-68954819D01*
X102785714Y-68954819D02*
X103166666Y-68954819D01*
X103166666Y-68954819D02*
X103261904Y-69002438D01*
X103261904Y-69002438D02*
X103309523Y-69050057D01*
X103309523Y-69050057D02*
X103357142Y-69145295D01*
X103357142Y-69145295D02*
X103357142Y-69288152D01*
X103357142Y-69288152D02*
X103309523Y-69383390D01*
X103309523Y-69383390D02*
X103261904Y-69431009D01*
X103261904Y-69431009D02*
X103166666Y-69478628D01*
X103166666Y-69478628D02*
X102785714Y-69478628D01*
X104309523Y-69954819D02*
X103738095Y-69954819D01*
X104023809Y-69954819D02*
X104023809Y-68954819D01*
X104023809Y-68954819D02*
X103928571Y-69097676D01*
X103928571Y-69097676D02*
X103833333Y-69192914D01*
X103833333Y-69192914D02*
X103738095Y-69240533D01*
X104642857Y-68954819D02*
X105261904Y-68954819D01*
X105261904Y-68954819D02*
X104928571Y-69335771D01*
X104928571Y-69335771D02*
X105071428Y-69335771D01*
X105071428Y-69335771D02*
X105166666Y-69383390D01*
X105166666Y-69383390D02*
X105214285Y-69431009D01*
X105214285Y-69431009D02*
X105261904Y-69526247D01*
X105261904Y-69526247D02*
X105261904Y-69764342D01*
X105261904Y-69764342D02*
X105214285Y-69859580D01*
X105214285Y-69859580D02*
X105166666Y-69907200D01*
X105166666Y-69907200D02*
X105071428Y-69954819D01*
X105071428Y-69954819D02*
X104785714Y-69954819D01*
X104785714Y-69954819D02*
X104690476Y-69907200D01*
X104690476Y-69907200D02*
X104642857Y-69859580D01*
X112954819Y-73642857D02*
X112478628Y-73976190D01*
X112954819Y-74214285D02*
X111954819Y-74214285D01*
X111954819Y-74214285D02*
X111954819Y-73833333D01*
X111954819Y-73833333D02*
X112002438Y-73738095D01*
X112002438Y-73738095D02*
X112050057Y-73690476D01*
X112050057Y-73690476D02*
X112145295Y-73642857D01*
X112145295Y-73642857D02*
X112288152Y-73642857D01*
X112288152Y-73642857D02*
X112383390Y-73690476D01*
X112383390Y-73690476D02*
X112431009Y-73738095D01*
X112431009Y-73738095D02*
X112478628Y-73833333D01*
X112478628Y-73833333D02*
X112478628Y-74214285D01*
X112954819Y-72690476D02*
X112954819Y-73261904D01*
X112954819Y-72976190D02*
X111954819Y-72976190D01*
X111954819Y-72976190D02*
X112097676Y-73071428D01*
X112097676Y-73071428D02*
X112192914Y-73166666D01*
X112192914Y-73166666D02*
X112240533Y-73261904D01*
X111954819Y-71785714D02*
X111954819Y-72261904D01*
X111954819Y-72261904D02*
X112431009Y-72309523D01*
X112431009Y-72309523D02*
X112383390Y-72261904D01*
X112383390Y-72261904D02*
X112335771Y-72166666D01*
X112335771Y-72166666D02*
X112335771Y-71928571D01*
X112335771Y-71928571D02*
X112383390Y-71833333D01*
X112383390Y-71833333D02*
X112431009Y-71785714D01*
X112431009Y-71785714D02*
X112526247Y-71738095D01*
X112526247Y-71738095D02*
X112764342Y-71738095D01*
X112764342Y-71738095D02*
X112859580Y-71785714D01*
X112859580Y-71785714D02*
X112907200Y-71833333D01*
X112907200Y-71833333D02*
X112954819Y-71928571D01*
X112954819Y-71928571D02*
X112954819Y-72166666D01*
X112954819Y-72166666D02*
X112907200Y-72261904D01*
X112907200Y-72261904D02*
X112859580Y-72309523D01*
X109261905Y-66454819D02*
X109261905Y-67264342D01*
X109261905Y-67264342D02*
X109309524Y-67359580D01*
X109309524Y-67359580D02*
X109357143Y-67407200D01*
X109357143Y-67407200D02*
X109452381Y-67454819D01*
X109452381Y-67454819D02*
X109642857Y-67454819D01*
X109642857Y-67454819D02*
X109738095Y-67407200D01*
X109738095Y-67407200D02*
X109785714Y-67359580D01*
X109785714Y-67359580D02*
X109833333Y-67264342D01*
X109833333Y-67264342D02*
X109833333Y-66454819D01*
X110833333Y-67454819D02*
X110261905Y-67454819D01*
X110547619Y-67454819D02*
X110547619Y-66454819D01*
X110547619Y-66454819D02*
X110452381Y-66597676D01*
X110452381Y-66597676D02*
X110357143Y-66692914D01*
X110357143Y-66692914D02*
X110261905Y-66740533D01*
X111452381Y-66454819D02*
X111547619Y-66454819D01*
X111547619Y-66454819D02*
X111642857Y-66502438D01*
X111642857Y-66502438D02*
X111690476Y-66550057D01*
X111690476Y-66550057D02*
X111738095Y-66645295D01*
X111738095Y-66645295D02*
X111785714Y-66835771D01*
X111785714Y-66835771D02*
X111785714Y-67073866D01*
X111785714Y-67073866D02*
X111738095Y-67264342D01*
X111738095Y-67264342D02*
X111690476Y-67359580D01*
X111690476Y-67359580D02*
X111642857Y-67407200D01*
X111642857Y-67407200D02*
X111547619Y-67454819D01*
X111547619Y-67454819D02*
X111452381Y-67454819D01*
X111452381Y-67454819D02*
X111357143Y-67407200D01*
X111357143Y-67407200D02*
X111309524Y-67359580D01*
X111309524Y-67359580D02*
X111261905Y-67264342D01*
X111261905Y-67264342D02*
X111214286Y-67073866D01*
X111214286Y-67073866D02*
X111214286Y-66835771D01*
X111214286Y-66835771D02*
X111261905Y-66645295D01*
X111261905Y-66645295D02*
X111309524Y-66550057D01*
X111309524Y-66550057D02*
X111357143Y-66502438D01*
X111357143Y-66502438D02*
X111452381Y-66454819D01*
X97857142Y-55929580D02*
X97809523Y-55977200D01*
X97809523Y-55977200D02*
X97666666Y-56024819D01*
X97666666Y-56024819D02*
X97571428Y-56024819D01*
X97571428Y-56024819D02*
X97428571Y-55977200D01*
X97428571Y-55977200D02*
X97333333Y-55881961D01*
X97333333Y-55881961D02*
X97285714Y-55786723D01*
X97285714Y-55786723D02*
X97238095Y-55596247D01*
X97238095Y-55596247D02*
X97238095Y-55453390D01*
X97238095Y-55453390D02*
X97285714Y-55262914D01*
X97285714Y-55262914D02*
X97333333Y-55167676D01*
X97333333Y-55167676D02*
X97428571Y-55072438D01*
X97428571Y-55072438D02*
X97571428Y-55024819D01*
X97571428Y-55024819D02*
X97666666Y-55024819D01*
X97666666Y-55024819D02*
X97809523Y-55072438D01*
X97809523Y-55072438D02*
X97857142Y-55120057D01*
X98238095Y-55120057D02*
X98285714Y-55072438D01*
X98285714Y-55072438D02*
X98380952Y-55024819D01*
X98380952Y-55024819D02*
X98619047Y-55024819D01*
X98619047Y-55024819D02*
X98714285Y-55072438D01*
X98714285Y-55072438D02*
X98761904Y-55120057D01*
X98761904Y-55120057D02*
X98809523Y-55215295D01*
X98809523Y-55215295D02*
X98809523Y-55310533D01*
X98809523Y-55310533D02*
X98761904Y-55453390D01*
X98761904Y-55453390D02*
X98190476Y-56024819D01*
X98190476Y-56024819D02*
X98809523Y-56024819D01*
X99142857Y-55024819D02*
X99761904Y-55024819D01*
X99761904Y-55024819D02*
X99428571Y-55405771D01*
X99428571Y-55405771D02*
X99571428Y-55405771D01*
X99571428Y-55405771D02*
X99666666Y-55453390D01*
X99666666Y-55453390D02*
X99714285Y-55501009D01*
X99714285Y-55501009D02*
X99761904Y-55596247D01*
X99761904Y-55596247D02*
X99761904Y-55834342D01*
X99761904Y-55834342D02*
X99714285Y-55929580D01*
X99714285Y-55929580D02*
X99666666Y-55977200D01*
X99666666Y-55977200D02*
X99571428Y-56024819D01*
X99571428Y-56024819D02*
X99285714Y-56024819D01*
X99285714Y-56024819D02*
X99190476Y-55977200D01*
X99190476Y-55977200D02*
X99142857Y-55929580D01*
X50494642Y-59789580D02*
X50447023Y-59837200D01*
X50447023Y-59837200D02*
X50304166Y-59884819D01*
X50304166Y-59884819D02*
X50208928Y-59884819D01*
X50208928Y-59884819D02*
X50066071Y-59837200D01*
X50066071Y-59837200D02*
X49970833Y-59741961D01*
X49970833Y-59741961D02*
X49923214Y-59646723D01*
X49923214Y-59646723D02*
X49875595Y-59456247D01*
X49875595Y-59456247D02*
X49875595Y-59313390D01*
X49875595Y-59313390D02*
X49923214Y-59122914D01*
X49923214Y-59122914D02*
X49970833Y-59027676D01*
X49970833Y-59027676D02*
X50066071Y-58932438D01*
X50066071Y-58932438D02*
X50208928Y-58884819D01*
X50208928Y-58884819D02*
X50304166Y-58884819D01*
X50304166Y-58884819D02*
X50447023Y-58932438D01*
X50447023Y-58932438D02*
X50494642Y-58980057D01*
X50875595Y-58980057D02*
X50923214Y-58932438D01*
X50923214Y-58932438D02*
X51018452Y-58884819D01*
X51018452Y-58884819D02*
X51256547Y-58884819D01*
X51256547Y-58884819D02*
X51351785Y-58932438D01*
X51351785Y-58932438D02*
X51399404Y-58980057D01*
X51399404Y-58980057D02*
X51447023Y-59075295D01*
X51447023Y-59075295D02*
X51447023Y-59170533D01*
X51447023Y-59170533D02*
X51399404Y-59313390D01*
X51399404Y-59313390D02*
X50827976Y-59884819D01*
X50827976Y-59884819D02*
X51447023Y-59884819D01*
X52304166Y-58884819D02*
X52113690Y-58884819D01*
X52113690Y-58884819D02*
X52018452Y-58932438D01*
X52018452Y-58932438D02*
X51970833Y-58980057D01*
X51970833Y-58980057D02*
X51875595Y-59122914D01*
X51875595Y-59122914D02*
X51827976Y-59313390D01*
X51827976Y-59313390D02*
X51827976Y-59694342D01*
X51827976Y-59694342D02*
X51875595Y-59789580D01*
X51875595Y-59789580D02*
X51923214Y-59837200D01*
X51923214Y-59837200D02*
X52018452Y-59884819D01*
X52018452Y-59884819D02*
X52208928Y-59884819D01*
X52208928Y-59884819D02*
X52304166Y-59837200D01*
X52304166Y-59837200D02*
X52351785Y-59789580D01*
X52351785Y-59789580D02*
X52399404Y-59694342D01*
X52399404Y-59694342D02*
X52399404Y-59456247D01*
X52399404Y-59456247D02*
X52351785Y-59361009D01*
X52351785Y-59361009D02*
X52304166Y-59313390D01*
X52304166Y-59313390D02*
X52208928Y-59265771D01*
X52208928Y-59265771D02*
X52018452Y-59265771D01*
X52018452Y-59265771D02*
X51923214Y-59313390D01*
X51923214Y-59313390D02*
X51875595Y-59361009D01*
X51875595Y-59361009D02*
X51827976Y-59456247D01*
X106212142Y-58884819D02*
X105878809Y-58408628D01*
X105640714Y-58884819D02*
X105640714Y-57884819D01*
X105640714Y-57884819D02*
X106021666Y-57884819D01*
X106021666Y-57884819D02*
X106116904Y-57932438D01*
X106116904Y-57932438D02*
X106164523Y-57980057D01*
X106164523Y-57980057D02*
X106212142Y-58075295D01*
X106212142Y-58075295D02*
X106212142Y-58218152D01*
X106212142Y-58218152D02*
X106164523Y-58313390D01*
X106164523Y-58313390D02*
X106116904Y-58361009D01*
X106116904Y-58361009D02*
X106021666Y-58408628D01*
X106021666Y-58408628D02*
X105640714Y-58408628D01*
X106593095Y-57980057D02*
X106640714Y-57932438D01*
X106640714Y-57932438D02*
X106735952Y-57884819D01*
X106735952Y-57884819D02*
X106974047Y-57884819D01*
X106974047Y-57884819D02*
X107069285Y-57932438D01*
X107069285Y-57932438D02*
X107116904Y-57980057D01*
X107116904Y-57980057D02*
X107164523Y-58075295D01*
X107164523Y-58075295D02*
X107164523Y-58170533D01*
X107164523Y-58170533D02*
X107116904Y-58313390D01*
X107116904Y-58313390D02*
X106545476Y-58884819D01*
X106545476Y-58884819D02*
X107164523Y-58884819D01*
X107735952Y-58313390D02*
X107640714Y-58265771D01*
X107640714Y-58265771D02*
X107593095Y-58218152D01*
X107593095Y-58218152D02*
X107545476Y-58122914D01*
X107545476Y-58122914D02*
X107545476Y-58075295D01*
X107545476Y-58075295D02*
X107593095Y-57980057D01*
X107593095Y-57980057D02*
X107640714Y-57932438D01*
X107640714Y-57932438D02*
X107735952Y-57884819D01*
X107735952Y-57884819D02*
X107926428Y-57884819D01*
X107926428Y-57884819D02*
X108021666Y-57932438D01*
X108021666Y-57932438D02*
X108069285Y-57980057D01*
X108069285Y-57980057D02*
X108116904Y-58075295D01*
X108116904Y-58075295D02*
X108116904Y-58122914D01*
X108116904Y-58122914D02*
X108069285Y-58218152D01*
X108069285Y-58218152D02*
X108021666Y-58265771D01*
X108021666Y-58265771D02*
X107926428Y-58313390D01*
X107926428Y-58313390D02*
X107735952Y-58313390D01*
X107735952Y-58313390D02*
X107640714Y-58361009D01*
X107640714Y-58361009D02*
X107593095Y-58408628D01*
X107593095Y-58408628D02*
X107545476Y-58503866D01*
X107545476Y-58503866D02*
X107545476Y-58694342D01*
X107545476Y-58694342D02*
X107593095Y-58789580D01*
X107593095Y-58789580D02*
X107640714Y-58837200D01*
X107640714Y-58837200D02*
X107735952Y-58884819D01*
X107735952Y-58884819D02*
X107926428Y-58884819D01*
X107926428Y-58884819D02*
X108021666Y-58837200D01*
X108021666Y-58837200D02*
X108069285Y-58789580D01*
X108069285Y-58789580D02*
X108116904Y-58694342D01*
X108116904Y-58694342D02*
X108116904Y-58503866D01*
X108116904Y-58503866D02*
X108069285Y-58408628D01*
X108069285Y-58408628D02*
X108021666Y-58361009D01*
X108021666Y-58361009D02*
X107926428Y-58313390D01*
X58408333Y-45954580D02*
X58360714Y-46002200D01*
X58360714Y-46002200D02*
X58217857Y-46049819D01*
X58217857Y-46049819D02*
X58122619Y-46049819D01*
X58122619Y-46049819D02*
X57979762Y-46002200D01*
X57979762Y-46002200D02*
X57884524Y-45906961D01*
X57884524Y-45906961D02*
X57836905Y-45811723D01*
X57836905Y-45811723D02*
X57789286Y-45621247D01*
X57789286Y-45621247D02*
X57789286Y-45478390D01*
X57789286Y-45478390D02*
X57836905Y-45287914D01*
X57836905Y-45287914D02*
X57884524Y-45192676D01*
X57884524Y-45192676D02*
X57979762Y-45097438D01*
X57979762Y-45097438D02*
X58122619Y-45049819D01*
X58122619Y-45049819D02*
X58217857Y-45049819D01*
X58217857Y-45049819D02*
X58360714Y-45097438D01*
X58360714Y-45097438D02*
X58408333Y-45145057D01*
X58789286Y-45145057D02*
X58836905Y-45097438D01*
X58836905Y-45097438D02*
X58932143Y-45049819D01*
X58932143Y-45049819D02*
X59170238Y-45049819D01*
X59170238Y-45049819D02*
X59265476Y-45097438D01*
X59265476Y-45097438D02*
X59313095Y-45145057D01*
X59313095Y-45145057D02*
X59360714Y-45240295D01*
X59360714Y-45240295D02*
X59360714Y-45335533D01*
X59360714Y-45335533D02*
X59313095Y-45478390D01*
X59313095Y-45478390D02*
X58741667Y-46049819D01*
X58741667Y-46049819D02*
X59360714Y-46049819D01*
X50357142Y-47789580D02*
X50309523Y-47837200D01*
X50309523Y-47837200D02*
X50166666Y-47884819D01*
X50166666Y-47884819D02*
X50071428Y-47884819D01*
X50071428Y-47884819D02*
X49928571Y-47837200D01*
X49928571Y-47837200D02*
X49833333Y-47741961D01*
X49833333Y-47741961D02*
X49785714Y-47646723D01*
X49785714Y-47646723D02*
X49738095Y-47456247D01*
X49738095Y-47456247D02*
X49738095Y-47313390D01*
X49738095Y-47313390D02*
X49785714Y-47122914D01*
X49785714Y-47122914D02*
X49833333Y-47027676D01*
X49833333Y-47027676D02*
X49928571Y-46932438D01*
X49928571Y-46932438D02*
X50071428Y-46884819D01*
X50071428Y-46884819D02*
X50166666Y-46884819D01*
X50166666Y-46884819D02*
X50309523Y-46932438D01*
X50309523Y-46932438D02*
X50357142Y-46980057D01*
X50738095Y-46980057D02*
X50785714Y-46932438D01*
X50785714Y-46932438D02*
X50880952Y-46884819D01*
X50880952Y-46884819D02*
X51119047Y-46884819D01*
X51119047Y-46884819D02*
X51214285Y-46932438D01*
X51214285Y-46932438D02*
X51261904Y-46980057D01*
X51261904Y-46980057D02*
X51309523Y-47075295D01*
X51309523Y-47075295D02*
X51309523Y-47170533D01*
X51309523Y-47170533D02*
X51261904Y-47313390D01*
X51261904Y-47313390D02*
X50690476Y-47884819D01*
X50690476Y-47884819D02*
X51309523Y-47884819D01*
X52214285Y-46884819D02*
X51738095Y-46884819D01*
X51738095Y-46884819D02*
X51690476Y-47361009D01*
X51690476Y-47361009D02*
X51738095Y-47313390D01*
X51738095Y-47313390D02*
X51833333Y-47265771D01*
X51833333Y-47265771D02*
X52071428Y-47265771D01*
X52071428Y-47265771D02*
X52166666Y-47313390D01*
X52166666Y-47313390D02*
X52214285Y-47361009D01*
X52214285Y-47361009D02*
X52261904Y-47456247D01*
X52261904Y-47456247D02*
X52261904Y-47694342D01*
X52261904Y-47694342D02*
X52214285Y-47789580D01*
X52214285Y-47789580D02*
X52166666Y-47837200D01*
X52166666Y-47837200D02*
X52071428Y-47884819D01*
X52071428Y-47884819D02*
X51833333Y-47884819D01*
X51833333Y-47884819D02*
X51738095Y-47837200D01*
X51738095Y-47837200D02*
X51690476Y-47789580D01*
X69738095Y-50064819D02*
X69738095Y-50874342D01*
X69738095Y-50874342D02*
X69785714Y-50969580D01*
X69785714Y-50969580D02*
X69833333Y-51017200D01*
X69833333Y-51017200D02*
X69928571Y-51064819D01*
X69928571Y-51064819D02*
X70119047Y-51064819D01*
X70119047Y-51064819D02*
X70214285Y-51017200D01*
X70214285Y-51017200D02*
X70261904Y-50969580D01*
X70261904Y-50969580D02*
X70309523Y-50874342D01*
X70309523Y-50874342D02*
X70309523Y-50064819D01*
X71214285Y-50064819D02*
X71023809Y-50064819D01*
X71023809Y-50064819D02*
X70928571Y-50112438D01*
X70928571Y-50112438D02*
X70880952Y-50160057D01*
X70880952Y-50160057D02*
X70785714Y-50302914D01*
X70785714Y-50302914D02*
X70738095Y-50493390D01*
X70738095Y-50493390D02*
X70738095Y-50874342D01*
X70738095Y-50874342D02*
X70785714Y-50969580D01*
X70785714Y-50969580D02*
X70833333Y-51017200D01*
X70833333Y-51017200D02*
X70928571Y-51064819D01*
X70928571Y-51064819D02*
X71119047Y-51064819D01*
X71119047Y-51064819D02*
X71214285Y-51017200D01*
X71214285Y-51017200D02*
X71261904Y-50969580D01*
X71261904Y-50969580D02*
X71309523Y-50874342D01*
X71309523Y-50874342D02*
X71309523Y-50636247D01*
X71309523Y-50636247D02*
X71261904Y-50541009D01*
X71261904Y-50541009D02*
X71214285Y-50493390D01*
X71214285Y-50493390D02*
X71119047Y-50445771D01*
X71119047Y-50445771D02*
X70928571Y-50445771D01*
X70928571Y-50445771D02*
X70833333Y-50493390D01*
X70833333Y-50493390D02*
X70785714Y-50541009D01*
X70785714Y-50541009D02*
X70738095Y-50636247D01*
X121954819Y-44938094D02*
X120954819Y-44938094D01*
X120954819Y-44938094D02*
X120954819Y-44699999D01*
X120954819Y-44699999D02*
X121002438Y-44557142D01*
X121002438Y-44557142D02*
X121097676Y-44461904D01*
X121097676Y-44461904D02*
X121192914Y-44414285D01*
X121192914Y-44414285D02*
X121383390Y-44366666D01*
X121383390Y-44366666D02*
X121526247Y-44366666D01*
X121526247Y-44366666D02*
X121716723Y-44414285D01*
X121716723Y-44414285D02*
X121811961Y-44461904D01*
X121811961Y-44461904D02*
X121907200Y-44557142D01*
X121907200Y-44557142D02*
X121954819Y-44699999D01*
X121954819Y-44699999D02*
X121954819Y-44938094D01*
X120954819Y-43461904D02*
X120954819Y-43938094D01*
X120954819Y-43938094D02*
X121431009Y-43985713D01*
X121431009Y-43985713D02*
X121383390Y-43938094D01*
X121383390Y-43938094D02*
X121335771Y-43842856D01*
X121335771Y-43842856D02*
X121335771Y-43604761D01*
X121335771Y-43604761D02*
X121383390Y-43509523D01*
X121383390Y-43509523D02*
X121431009Y-43461904D01*
X121431009Y-43461904D02*
X121526247Y-43414285D01*
X121526247Y-43414285D02*
X121764342Y-43414285D01*
X121764342Y-43414285D02*
X121859580Y-43461904D01*
X121859580Y-43461904D02*
X121907200Y-43509523D01*
X121907200Y-43509523D02*
X121954819Y-43604761D01*
X121954819Y-43604761D02*
X121954819Y-43842856D01*
X121954819Y-43842856D02*
X121907200Y-43938094D01*
X121907200Y-43938094D02*
X121859580Y-43985713D01*
X104454819Y-90730357D02*
X103978628Y-91063690D01*
X104454819Y-91301785D02*
X103454819Y-91301785D01*
X103454819Y-91301785D02*
X103454819Y-90920833D01*
X103454819Y-90920833D02*
X103502438Y-90825595D01*
X103502438Y-90825595D02*
X103550057Y-90777976D01*
X103550057Y-90777976D02*
X103645295Y-90730357D01*
X103645295Y-90730357D02*
X103788152Y-90730357D01*
X103788152Y-90730357D02*
X103883390Y-90777976D01*
X103883390Y-90777976D02*
X103931009Y-90825595D01*
X103931009Y-90825595D02*
X103978628Y-90920833D01*
X103978628Y-90920833D02*
X103978628Y-91301785D01*
X104454819Y-89777976D02*
X104454819Y-90349404D01*
X104454819Y-90063690D02*
X103454819Y-90063690D01*
X103454819Y-90063690D02*
X103597676Y-90158928D01*
X103597676Y-90158928D02*
X103692914Y-90254166D01*
X103692914Y-90254166D02*
X103740533Y-90349404D01*
X103454819Y-89158928D02*
X103454819Y-89063690D01*
X103454819Y-89063690D02*
X103502438Y-88968452D01*
X103502438Y-88968452D02*
X103550057Y-88920833D01*
X103550057Y-88920833D02*
X103645295Y-88873214D01*
X103645295Y-88873214D02*
X103835771Y-88825595D01*
X103835771Y-88825595D02*
X104073866Y-88825595D01*
X104073866Y-88825595D02*
X104264342Y-88873214D01*
X104264342Y-88873214D02*
X104359580Y-88920833D01*
X104359580Y-88920833D02*
X104407200Y-88968452D01*
X104407200Y-88968452D02*
X104454819Y-89063690D01*
X104454819Y-89063690D02*
X104454819Y-89158928D01*
X104454819Y-89158928D02*
X104407200Y-89254166D01*
X104407200Y-89254166D02*
X104359580Y-89301785D01*
X104359580Y-89301785D02*
X104264342Y-89349404D01*
X104264342Y-89349404D02*
X104073866Y-89397023D01*
X104073866Y-89397023D02*
X103835771Y-89397023D01*
X103835771Y-89397023D02*
X103645295Y-89349404D01*
X103645295Y-89349404D02*
X103550057Y-89301785D01*
X103550057Y-89301785D02*
X103502438Y-89254166D01*
X103502438Y-89254166D02*
X103454819Y-89158928D01*
X48454819Y-72188094D02*
X47454819Y-72188094D01*
X47454819Y-72188094D02*
X47454819Y-71949999D01*
X47454819Y-71949999D02*
X47502438Y-71807142D01*
X47502438Y-71807142D02*
X47597676Y-71711904D01*
X47597676Y-71711904D02*
X47692914Y-71664285D01*
X47692914Y-71664285D02*
X47883390Y-71616666D01*
X47883390Y-71616666D02*
X48026247Y-71616666D01*
X48026247Y-71616666D02*
X48216723Y-71664285D01*
X48216723Y-71664285D02*
X48311961Y-71711904D01*
X48311961Y-71711904D02*
X48407200Y-71807142D01*
X48407200Y-71807142D02*
X48454819Y-71949999D01*
X48454819Y-71949999D02*
X48454819Y-72188094D01*
X47454819Y-71283332D02*
X47454819Y-70664285D01*
X47454819Y-70664285D02*
X47835771Y-70997618D01*
X47835771Y-70997618D02*
X47835771Y-70854761D01*
X47835771Y-70854761D02*
X47883390Y-70759523D01*
X47883390Y-70759523D02*
X47931009Y-70711904D01*
X47931009Y-70711904D02*
X48026247Y-70664285D01*
X48026247Y-70664285D02*
X48264342Y-70664285D01*
X48264342Y-70664285D02*
X48359580Y-70711904D01*
X48359580Y-70711904D02*
X48407200Y-70759523D01*
X48407200Y-70759523D02*
X48454819Y-70854761D01*
X48454819Y-70854761D02*
X48454819Y-71140475D01*
X48454819Y-71140475D02*
X48407200Y-71235713D01*
X48407200Y-71235713D02*
X48359580Y-71283332D01*
X105857142Y-39859580D02*
X105809523Y-39907200D01*
X105809523Y-39907200D02*
X105666666Y-39954819D01*
X105666666Y-39954819D02*
X105571428Y-39954819D01*
X105571428Y-39954819D02*
X105428571Y-39907200D01*
X105428571Y-39907200D02*
X105333333Y-39811961D01*
X105333333Y-39811961D02*
X105285714Y-39716723D01*
X105285714Y-39716723D02*
X105238095Y-39526247D01*
X105238095Y-39526247D02*
X105238095Y-39383390D01*
X105238095Y-39383390D02*
X105285714Y-39192914D01*
X105285714Y-39192914D02*
X105333333Y-39097676D01*
X105333333Y-39097676D02*
X105428571Y-39002438D01*
X105428571Y-39002438D02*
X105571428Y-38954819D01*
X105571428Y-38954819D02*
X105666666Y-38954819D01*
X105666666Y-38954819D02*
X105809523Y-39002438D01*
X105809523Y-39002438D02*
X105857142Y-39050057D01*
X106809523Y-39954819D02*
X106238095Y-39954819D01*
X106523809Y-39954819D02*
X106523809Y-38954819D01*
X106523809Y-38954819D02*
X106428571Y-39097676D01*
X106428571Y-39097676D02*
X106333333Y-39192914D01*
X106333333Y-39192914D02*
X106238095Y-39240533D01*
X107714285Y-38954819D02*
X107238095Y-38954819D01*
X107238095Y-38954819D02*
X107190476Y-39431009D01*
X107190476Y-39431009D02*
X107238095Y-39383390D01*
X107238095Y-39383390D02*
X107333333Y-39335771D01*
X107333333Y-39335771D02*
X107571428Y-39335771D01*
X107571428Y-39335771D02*
X107666666Y-39383390D01*
X107666666Y-39383390D02*
X107714285Y-39431009D01*
X107714285Y-39431009D02*
X107761904Y-39526247D01*
X107761904Y-39526247D02*
X107761904Y-39764342D01*
X107761904Y-39764342D02*
X107714285Y-39859580D01*
X107714285Y-39859580D02*
X107666666Y-39907200D01*
X107666666Y-39907200D02*
X107571428Y-39954819D01*
X107571428Y-39954819D02*
X107333333Y-39954819D01*
X107333333Y-39954819D02*
X107238095Y-39907200D01*
X107238095Y-39907200D02*
X107190476Y-39859580D01*
X117357142Y-50929580D02*
X117309523Y-50977200D01*
X117309523Y-50977200D02*
X117166666Y-51024819D01*
X117166666Y-51024819D02*
X117071428Y-51024819D01*
X117071428Y-51024819D02*
X116928571Y-50977200D01*
X116928571Y-50977200D02*
X116833333Y-50881961D01*
X116833333Y-50881961D02*
X116785714Y-50786723D01*
X116785714Y-50786723D02*
X116738095Y-50596247D01*
X116738095Y-50596247D02*
X116738095Y-50453390D01*
X116738095Y-50453390D02*
X116785714Y-50262914D01*
X116785714Y-50262914D02*
X116833333Y-50167676D01*
X116833333Y-50167676D02*
X116928571Y-50072438D01*
X116928571Y-50072438D02*
X117071428Y-50024819D01*
X117071428Y-50024819D02*
X117166666Y-50024819D01*
X117166666Y-50024819D02*
X117309523Y-50072438D01*
X117309523Y-50072438D02*
X117357142Y-50120057D01*
X117738095Y-50120057D02*
X117785714Y-50072438D01*
X117785714Y-50072438D02*
X117880952Y-50024819D01*
X117880952Y-50024819D02*
X118119047Y-50024819D01*
X118119047Y-50024819D02*
X118214285Y-50072438D01*
X118214285Y-50072438D02*
X118261904Y-50120057D01*
X118261904Y-50120057D02*
X118309523Y-50215295D01*
X118309523Y-50215295D02*
X118309523Y-50310533D01*
X118309523Y-50310533D02*
X118261904Y-50453390D01*
X118261904Y-50453390D02*
X117690476Y-51024819D01*
X117690476Y-51024819D02*
X118309523Y-51024819D01*
X118928571Y-50024819D02*
X119023809Y-50024819D01*
X119023809Y-50024819D02*
X119119047Y-50072438D01*
X119119047Y-50072438D02*
X119166666Y-50120057D01*
X119166666Y-50120057D02*
X119214285Y-50215295D01*
X119214285Y-50215295D02*
X119261904Y-50405771D01*
X119261904Y-50405771D02*
X119261904Y-50643866D01*
X119261904Y-50643866D02*
X119214285Y-50834342D01*
X119214285Y-50834342D02*
X119166666Y-50929580D01*
X119166666Y-50929580D02*
X119119047Y-50977200D01*
X119119047Y-50977200D02*
X119023809Y-51024819D01*
X119023809Y-51024819D02*
X118928571Y-51024819D01*
X118928571Y-51024819D02*
X118833333Y-50977200D01*
X118833333Y-50977200D02*
X118785714Y-50929580D01*
X118785714Y-50929580D02*
X118738095Y-50834342D01*
X118738095Y-50834342D02*
X118690476Y-50643866D01*
X118690476Y-50643866D02*
X118690476Y-50405771D01*
X118690476Y-50405771D02*
X118738095Y-50215295D01*
X118738095Y-50215295D02*
X118785714Y-50120057D01*
X118785714Y-50120057D02*
X118833333Y-50072438D01*
X118833333Y-50072438D02*
X118928571Y-50024819D01*
X41454819Y-82333333D02*
X42169104Y-82333333D01*
X42169104Y-82333333D02*
X42311961Y-82380952D01*
X42311961Y-82380952D02*
X42407200Y-82476190D01*
X42407200Y-82476190D02*
X42454819Y-82619047D01*
X42454819Y-82619047D02*
X42454819Y-82714285D01*
X41454819Y-81952380D02*
X41454819Y-81333333D01*
X41454819Y-81333333D02*
X41835771Y-81666666D01*
X41835771Y-81666666D02*
X41835771Y-81523809D01*
X41835771Y-81523809D02*
X41883390Y-81428571D01*
X41883390Y-81428571D02*
X41931009Y-81380952D01*
X41931009Y-81380952D02*
X42026247Y-81333333D01*
X42026247Y-81333333D02*
X42264342Y-81333333D01*
X42264342Y-81333333D02*
X42359580Y-81380952D01*
X42359580Y-81380952D02*
X42407200Y-81428571D01*
X42407200Y-81428571D02*
X42454819Y-81523809D01*
X42454819Y-81523809D02*
X42454819Y-81809523D01*
X42454819Y-81809523D02*
X42407200Y-81904761D01*
X42407200Y-81904761D02*
X42359580Y-81952380D01*
X88954819Y-74367857D02*
X88478628Y-74701190D01*
X88954819Y-74939285D02*
X87954819Y-74939285D01*
X87954819Y-74939285D02*
X87954819Y-74558333D01*
X87954819Y-74558333D02*
X88002438Y-74463095D01*
X88002438Y-74463095D02*
X88050057Y-74415476D01*
X88050057Y-74415476D02*
X88145295Y-74367857D01*
X88145295Y-74367857D02*
X88288152Y-74367857D01*
X88288152Y-74367857D02*
X88383390Y-74415476D01*
X88383390Y-74415476D02*
X88431009Y-74463095D01*
X88431009Y-74463095D02*
X88478628Y-74558333D01*
X88478628Y-74558333D02*
X88478628Y-74939285D01*
X88954819Y-73415476D02*
X88954819Y-73986904D01*
X88954819Y-73701190D02*
X87954819Y-73701190D01*
X87954819Y-73701190D02*
X88097676Y-73796428D01*
X88097676Y-73796428D02*
X88192914Y-73891666D01*
X88192914Y-73891666D02*
X88240533Y-73986904D01*
X88954819Y-72463095D02*
X88954819Y-73034523D01*
X88954819Y-72748809D02*
X87954819Y-72748809D01*
X87954819Y-72748809D02*
X88097676Y-72844047D01*
X88097676Y-72844047D02*
X88192914Y-72939285D01*
X88192914Y-72939285D02*
X88240533Y-73034523D01*
X78954819Y-35261904D02*
X78954819Y-34690476D01*
X79954819Y-34976190D02*
X78954819Y-34976190D01*
X79954819Y-34357142D02*
X78954819Y-34357142D01*
X78954819Y-34357142D02*
X78954819Y-33976190D01*
X78954819Y-33976190D02*
X79002438Y-33880952D01*
X79002438Y-33880952D02*
X79050057Y-33833333D01*
X79050057Y-33833333D02*
X79145295Y-33785714D01*
X79145295Y-33785714D02*
X79288152Y-33785714D01*
X79288152Y-33785714D02*
X79383390Y-33833333D01*
X79383390Y-33833333D02*
X79431009Y-33880952D01*
X79431009Y-33880952D02*
X79478628Y-33976190D01*
X79478628Y-33976190D02*
X79478628Y-34357142D01*
X78954819Y-32880952D02*
X78954819Y-33357142D01*
X78954819Y-33357142D02*
X79431009Y-33404761D01*
X79431009Y-33404761D02*
X79383390Y-33357142D01*
X79383390Y-33357142D02*
X79335771Y-33261904D01*
X79335771Y-33261904D02*
X79335771Y-33023809D01*
X79335771Y-33023809D02*
X79383390Y-32928571D01*
X79383390Y-32928571D02*
X79431009Y-32880952D01*
X79431009Y-32880952D02*
X79526247Y-32833333D01*
X79526247Y-32833333D02*
X79764342Y-32833333D01*
X79764342Y-32833333D02*
X79859580Y-32880952D01*
X79859580Y-32880952D02*
X79907200Y-32928571D01*
X79907200Y-32928571D02*
X79954819Y-33023809D01*
X79954819Y-33023809D02*
X79954819Y-33261904D01*
X79954819Y-33261904D02*
X79907200Y-33357142D01*
X79907200Y-33357142D02*
X79859580Y-33404761D01*
X75039580Y-37605357D02*
X75087200Y-37652976D01*
X75087200Y-37652976D02*
X75134819Y-37795833D01*
X75134819Y-37795833D02*
X75134819Y-37891071D01*
X75134819Y-37891071D02*
X75087200Y-38033928D01*
X75087200Y-38033928D02*
X74991961Y-38129166D01*
X74991961Y-38129166D02*
X74896723Y-38176785D01*
X74896723Y-38176785D02*
X74706247Y-38224404D01*
X74706247Y-38224404D02*
X74563390Y-38224404D01*
X74563390Y-38224404D02*
X74372914Y-38176785D01*
X74372914Y-38176785D02*
X74277676Y-38129166D01*
X74277676Y-38129166D02*
X74182438Y-38033928D01*
X74182438Y-38033928D02*
X74134819Y-37891071D01*
X74134819Y-37891071D02*
X74134819Y-37795833D01*
X74134819Y-37795833D02*
X74182438Y-37652976D01*
X74182438Y-37652976D02*
X74230057Y-37605357D01*
X75134819Y-36652976D02*
X75134819Y-37224404D01*
X75134819Y-36938690D02*
X74134819Y-36938690D01*
X74134819Y-36938690D02*
X74277676Y-37033928D01*
X74277676Y-37033928D02*
X74372914Y-37129166D01*
X74372914Y-37129166D02*
X74420533Y-37224404D01*
X74134819Y-36319642D02*
X74134819Y-35652976D01*
X74134819Y-35652976D02*
X75134819Y-36081547D01*
X128454819Y-45333333D02*
X129169104Y-45333333D01*
X129169104Y-45333333D02*
X129311961Y-45380952D01*
X129311961Y-45380952D02*
X129407200Y-45476190D01*
X129407200Y-45476190D02*
X129454819Y-45619047D01*
X129454819Y-45619047D02*
X129454819Y-45714285D01*
X129454819Y-44333333D02*
X129454819Y-44904761D01*
X129454819Y-44619047D02*
X128454819Y-44619047D01*
X128454819Y-44619047D02*
X128597676Y-44714285D01*
X128597676Y-44714285D02*
X128692914Y-44809523D01*
X128692914Y-44809523D02*
X128740533Y-44904761D01*
X100357142Y-66454819D02*
X100023809Y-65978628D01*
X99785714Y-66454819D02*
X99785714Y-65454819D01*
X99785714Y-65454819D02*
X100166666Y-65454819D01*
X100166666Y-65454819D02*
X100261904Y-65502438D01*
X100261904Y-65502438D02*
X100309523Y-65550057D01*
X100309523Y-65550057D02*
X100357142Y-65645295D01*
X100357142Y-65645295D02*
X100357142Y-65788152D01*
X100357142Y-65788152D02*
X100309523Y-65883390D01*
X100309523Y-65883390D02*
X100261904Y-65931009D01*
X100261904Y-65931009D02*
X100166666Y-65978628D01*
X100166666Y-65978628D02*
X99785714Y-65978628D01*
X100738095Y-65550057D02*
X100785714Y-65502438D01*
X100785714Y-65502438D02*
X100880952Y-65454819D01*
X100880952Y-65454819D02*
X101119047Y-65454819D01*
X101119047Y-65454819D02*
X101214285Y-65502438D01*
X101214285Y-65502438D02*
X101261904Y-65550057D01*
X101261904Y-65550057D02*
X101309523Y-65645295D01*
X101309523Y-65645295D02*
X101309523Y-65740533D01*
X101309523Y-65740533D02*
X101261904Y-65883390D01*
X101261904Y-65883390D02*
X100690476Y-66454819D01*
X100690476Y-66454819D02*
X101309523Y-66454819D01*
X102166666Y-65454819D02*
X101976190Y-65454819D01*
X101976190Y-65454819D02*
X101880952Y-65502438D01*
X101880952Y-65502438D02*
X101833333Y-65550057D01*
X101833333Y-65550057D02*
X101738095Y-65692914D01*
X101738095Y-65692914D02*
X101690476Y-65883390D01*
X101690476Y-65883390D02*
X101690476Y-66264342D01*
X101690476Y-66264342D02*
X101738095Y-66359580D01*
X101738095Y-66359580D02*
X101785714Y-66407200D01*
X101785714Y-66407200D02*
X101880952Y-66454819D01*
X101880952Y-66454819D02*
X102071428Y-66454819D01*
X102071428Y-66454819D02*
X102166666Y-66407200D01*
X102166666Y-66407200D02*
X102214285Y-66359580D01*
X102214285Y-66359580D02*
X102261904Y-66264342D01*
X102261904Y-66264342D02*
X102261904Y-66026247D01*
X102261904Y-66026247D02*
X102214285Y-65931009D01*
X102214285Y-65931009D02*
X102166666Y-65883390D01*
X102166666Y-65883390D02*
X102071428Y-65835771D01*
X102071428Y-65835771D02*
X101880952Y-65835771D01*
X101880952Y-65835771D02*
X101785714Y-65883390D01*
X101785714Y-65883390D02*
X101738095Y-65931009D01*
X101738095Y-65931009D02*
X101690476Y-66026247D01*
X126454819Y-79738094D02*
X125454819Y-79738094D01*
X125454819Y-79738094D02*
X125454819Y-79499999D01*
X125454819Y-79499999D02*
X125502438Y-79357142D01*
X125502438Y-79357142D02*
X125597676Y-79261904D01*
X125597676Y-79261904D02*
X125692914Y-79214285D01*
X125692914Y-79214285D02*
X125883390Y-79166666D01*
X125883390Y-79166666D02*
X126026247Y-79166666D01*
X126026247Y-79166666D02*
X126216723Y-79214285D01*
X126216723Y-79214285D02*
X126311961Y-79261904D01*
X126311961Y-79261904D02*
X126407200Y-79357142D01*
X126407200Y-79357142D02*
X126454819Y-79499999D01*
X126454819Y-79499999D02*
X126454819Y-79738094D01*
X125550057Y-78785713D02*
X125502438Y-78738094D01*
X125502438Y-78738094D02*
X125454819Y-78642856D01*
X125454819Y-78642856D02*
X125454819Y-78404761D01*
X125454819Y-78404761D02*
X125502438Y-78309523D01*
X125502438Y-78309523D02*
X125550057Y-78261904D01*
X125550057Y-78261904D02*
X125645295Y-78214285D01*
X125645295Y-78214285D02*
X125740533Y-78214285D01*
X125740533Y-78214285D02*
X125883390Y-78261904D01*
X125883390Y-78261904D02*
X126454819Y-78833332D01*
X126454819Y-78833332D02*
X126454819Y-78214285D01*
X124738095Y-85844819D02*
X125309523Y-85844819D01*
X125023809Y-86844819D02*
X125023809Y-85844819D01*
X125642857Y-86844819D02*
X125642857Y-85844819D01*
X125642857Y-85844819D02*
X126023809Y-85844819D01*
X126023809Y-85844819D02*
X126119047Y-85892438D01*
X126119047Y-85892438D02*
X126166666Y-85940057D01*
X126166666Y-85940057D02*
X126214285Y-86035295D01*
X126214285Y-86035295D02*
X126214285Y-86178152D01*
X126214285Y-86178152D02*
X126166666Y-86273390D01*
X126166666Y-86273390D02*
X126119047Y-86321009D01*
X126119047Y-86321009D02*
X126023809Y-86368628D01*
X126023809Y-86368628D02*
X125642857Y-86368628D01*
X126595238Y-85940057D02*
X126642857Y-85892438D01*
X126642857Y-85892438D02*
X126738095Y-85844819D01*
X126738095Y-85844819D02*
X126976190Y-85844819D01*
X126976190Y-85844819D02*
X127071428Y-85892438D01*
X127071428Y-85892438D02*
X127119047Y-85940057D01*
X127119047Y-85940057D02*
X127166666Y-86035295D01*
X127166666Y-86035295D02*
X127166666Y-86130533D01*
X127166666Y-86130533D02*
X127119047Y-86273390D01*
X127119047Y-86273390D02*
X126547619Y-86844819D01*
X126547619Y-86844819D02*
X127166666Y-86844819D01*
X87524819Y-42754166D02*
X87048628Y-43087499D01*
X87524819Y-43325594D02*
X86524819Y-43325594D01*
X86524819Y-43325594D02*
X86524819Y-42944642D01*
X86524819Y-42944642D02*
X86572438Y-42849404D01*
X86572438Y-42849404D02*
X86620057Y-42801785D01*
X86620057Y-42801785D02*
X86715295Y-42754166D01*
X86715295Y-42754166D02*
X86858152Y-42754166D01*
X86858152Y-42754166D02*
X86953390Y-42801785D01*
X86953390Y-42801785D02*
X87001009Y-42849404D01*
X87001009Y-42849404D02*
X87048628Y-42944642D01*
X87048628Y-42944642D02*
X87048628Y-43325594D01*
X87524819Y-41801785D02*
X87524819Y-42373213D01*
X87524819Y-42087499D02*
X86524819Y-42087499D01*
X86524819Y-42087499D02*
X86667676Y-42182737D01*
X86667676Y-42182737D02*
X86762914Y-42277975D01*
X86762914Y-42277975D02*
X86810533Y-42373213D01*
X122357142Y-87454819D02*
X122023809Y-86978628D01*
X121785714Y-87454819D02*
X121785714Y-86454819D01*
X121785714Y-86454819D02*
X122166666Y-86454819D01*
X122166666Y-86454819D02*
X122261904Y-86502438D01*
X122261904Y-86502438D02*
X122309523Y-86550057D01*
X122309523Y-86550057D02*
X122357142Y-86645295D01*
X122357142Y-86645295D02*
X122357142Y-86788152D01*
X122357142Y-86788152D02*
X122309523Y-86883390D01*
X122309523Y-86883390D02*
X122261904Y-86931009D01*
X122261904Y-86931009D02*
X122166666Y-86978628D01*
X122166666Y-86978628D02*
X121785714Y-86978628D01*
X123309523Y-87454819D02*
X122738095Y-87454819D01*
X123023809Y-87454819D02*
X123023809Y-86454819D01*
X123023809Y-86454819D02*
X122928571Y-86597676D01*
X122928571Y-86597676D02*
X122833333Y-86692914D01*
X122833333Y-86692914D02*
X122738095Y-86740533D01*
X123785714Y-87454819D02*
X123976190Y-87454819D01*
X123976190Y-87454819D02*
X124071428Y-87407200D01*
X124071428Y-87407200D02*
X124119047Y-87359580D01*
X124119047Y-87359580D02*
X124214285Y-87216723D01*
X124214285Y-87216723D02*
X124261904Y-87026247D01*
X124261904Y-87026247D02*
X124261904Y-86645295D01*
X124261904Y-86645295D02*
X124214285Y-86550057D01*
X124214285Y-86550057D02*
X124166666Y-86502438D01*
X124166666Y-86502438D02*
X124071428Y-86454819D01*
X124071428Y-86454819D02*
X123880952Y-86454819D01*
X123880952Y-86454819D02*
X123785714Y-86502438D01*
X123785714Y-86502438D02*
X123738095Y-86550057D01*
X123738095Y-86550057D02*
X123690476Y-86645295D01*
X123690476Y-86645295D02*
X123690476Y-86883390D01*
X123690476Y-86883390D02*
X123738095Y-86978628D01*
X123738095Y-86978628D02*
X123785714Y-87026247D01*
X123785714Y-87026247D02*
X123880952Y-87073866D01*
X123880952Y-87073866D02*
X124071428Y-87073866D01*
X124071428Y-87073866D02*
X124166666Y-87026247D01*
X124166666Y-87026247D02*
X124214285Y-86978628D01*
X124214285Y-86978628D02*
X124261904Y-86883390D01*
X117719642Y-61879580D02*
X117672023Y-61927200D01*
X117672023Y-61927200D02*
X117529166Y-61974819D01*
X117529166Y-61974819D02*
X117433928Y-61974819D01*
X117433928Y-61974819D02*
X117291071Y-61927200D01*
X117291071Y-61927200D02*
X117195833Y-61831961D01*
X117195833Y-61831961D02*
X117148214Y-61736723D01*
X117148214Y-61736723D02*
X117100595Y-61546247D01*
X117100595Y-61546247D02*
X117100595Y-61403390D01*
X117100595Y-61403390D02*
X117148214Y-61212914D01*
X117148214Y-61212914D02*
X117195833Y-61117676D01*
X117195833Y-61117676D02*
X117291071Y-61022438D01*
X117291071Y-61022438D02*
X117433928Y-60974819D01*
X117433928Y-60974819D02*
X117529166Y-60974819D01*
X117529166Y-60974819D02*
X117672023Y-61022438D01*
X117672023Y-61022438D02*
X117719642Y-61070057D01*
X118672023Y-61974819D02*
X118100595Y-61974819D01*
X118386309Y-61974819D02*
X118386309Y-60974819D01*
X118386309Y-60974819D02*
X118291071Y-61117676D01*
X118291071Y-61117676D02*
X118195833Y-61212914D01*
X118195833Y-61212914D02*
X118100595Y-61260533D01*
X119005357Y-60974819D02*
X119624404Y-60974819D01*
X119624404Y-60974819D02*
X119291071Y-61355771D01*
X119291071Y-61355771D02*
X119433928Y-61355771D01*
X119433928Y-61355771D02*
X119529166Y-61403390D01*
X119529166Y-61403390D02*
X119576785Y-61451009D01*
X119576785Y-61451009D02*
X119624404Y-61546247D01*
X119624404Y-61546247D02*
X119624404Y-61784342D01*
X119624404Y-61784342D02*
X119576785Y-61879580D01*
X119576785Y-61879580D02*
X119529166Y-61927200D01*
X119529166Y-61927200D02*
X119433928Y-61974819D01*
X119433928Y-61974819D02*
X119148214Y-61974819D01*
X119148214Y-61974819D02*
X119052976Y-61927200D01*
X119052976Y-61927200D02*
X119005357Y-61879580D01*
X119219642Y-36567080D02*
X119172023Y-36614700D01*
X119172023Y-36614700D02*
X119029166Y-36662319D01*
X119029166Y-36662319D02*
X118933928Y-36662319D01*
X118933928Y-36662319D02*
X118791071Y-36614700D01*
X118791071Y-36614700D02*
X118695833Y-36519461D01*
X118695833Y-36519461D02*
X118648214Y-36424223D01*
X118648214Y-36424223D02*
X118600595Y-36233747D01*
X118600595Y-36233747D02*
X118600595Y-36090890D01*
X118600595Y-36090890D02*
X118648214Y-35900414D01*
X118648214Y-35900414D02*
X118695833Y-35805176D01*
X118695833Y-35805176D02*
X118791071Y-35709938D01*
X118791071Y-35709938D02*
X118933928Y-35662319D01*
X118933928Y-35662319D02*
X119029166Y-35662319D01*
X119029166Y-35662319D02*
X119172023Y-35709938D01*
X119172023Y-35709938D02*
X119219642Y-35757557D01*
X119600595Y-35757557D02*
X119648214Y-35709938D01*
X119648214Y-35709938D02*
X119743452Y-35662319D01*
X119743452Y-35662319D02*
X119981547Y-35662319D01*
X119981547Y-35662319D02*
X120076785Y-35709938D01*
X120076785Y-35709938D02*
X120124404Y-35757557D01*
X120124404Y-35757557D02*
X120172023Y-35852795D01*
X120172023Y-35852795D02*
X120172023Y-35948033D01*
X120172023Y-35948033D02*
X120124404Y-36090890D01*
X120124404Y-36090890D02*
X119552976Y-36662319D01*
X119552976Y-36662319D02*
X120172023Y-36662319D01*
X121124404Y-36662319D02*
X120552976Y-36662319D01*
X120838690Y-36662319D02*
X120838690Y-35662319D01*
X120838690Y-35662319D02*
X120743452Y-35805176D01*
X120743452Y-35805176D02*
X120648214Y-35900414D01*
X120648214Y-35900414D02*
X120552976Y-35948033D01*
X115470833Y-73929580D02*
X115423214Y-73977200D01*
X115423214Y-73977200D02*
X115280357Y-74024819D01*
X115280357Y-74024819D02*
X115185119Y-74024819D01*
X115185119Y-74024819D02*
X115042262Y-73977200D01*
X115042262Y-73977200D02*
X114947024Y-73881961D01*
X114947024Y-73881961D02*
X114899405Y-73786723D01*
X114899405Y-73786723D02*
X114851786Y-73596247D01*
X114851786Y-73596247D02*
X114851786Y-73453390D01*
X114851786Y-73453390D02*
X114899405Y-73262914D01*
X114899405Y-73262914D02*
X114947024Y-73167676D01*
X114947024Y-73167676D02*
X115042262Y-73072438D01*
X115042262Y-73072438D02*
X115185119Y-73024819D01*
X115185119Y-73024819D02*
X115280357Y-73024819D01*
X115280357Y-73024819D02*
X115423214Y-73072438D01*
X115423214Y-73072438D02*
X115470833Y-73120057D01*
X115947024Y-74024819D02*
X116137500Y-74024819D01*
X116137500Y-74024819D02*
X116232738Y-73977200D01*
X116232738Y-73977200D02*
X116280357Y-73929580D01*
X116280357Y-73929580D02*
X116375595Y-73786723D01*
X116375595Y-73786723D02*
X116423214Y-73596247D01*
X116423214Y-73596247D02*
X116423214Y-73215295D01*
X116423214Y-73215295D02*
X116375595Y-73120057D01*
X116375595Y-73120057D02*
X116327976Y-73072438D01*
X116327976Y-73072438D02*
X116232738Y-73024819D01*
X116232738Y-73024819D02*
X116042262Y-73024819D01*
X116042262Y-73024819D02*
X115947024Y-73072438D01*
X115947024Y-73072438D02*
X115899405Y-73120057D01*
X115899405Y-73120057D02*
X115851786Y-73215295D01*
X115851786Y-73215295D02*
X115851786Y-73453390D01*
X115851786Y-73453390D02*
X115899405Y-73548628D01*
X115899405Y-73548628D02*
X115947024Y-73596247D01*
X115947024Y-73596247D02*
X116042262Y-73643866D01*
X116042262Y-73643866D02*
X116232738Y-73643866D01*
X116232738Y-73643866D02*
X116327976Y-73596247D01*
X116327976Y-73596247D02*
X116375595Y-73548628D01*
X116375595Y-73548628D02*
X116423214Y-73453390D01*
X122454819Y-55188094D02*
X121454819Y-55188094D01*
X121454819Y-55188094D02*
X121454819Y-54949999D01*
X121454819Y-54949999D02*
X121502438Y-54807142D01*
X121502438Y-54807142D02*
X121597676Y-54711904D01*
X121597676Y-54711904D02*
X121692914Y-54664285D01*
X121692914Y-54664285D02*
X121883390Y-54616666D01*
X121883390Y-54616666D02*
X122026247Y-54616666D01*
X122026247Y-54616666D02*
X122216723Y-54664285D01*
X122216723Y-54664285D02*
X122311961Y-54711904D01*
X122311961Y-54711904D02*
X122407200Y-54807142D01*
X122407200Y-54807142D02*
X122454819Y-54949999D01*
X122454819Y-54949999D02*
X122454819Y-55188094D01*
X121454819Y-53759523D02*
X121454819Y-53949999D01*
X121454819Y-53949999D02*
X121502438Y-54045237D01*
X121502438Y-54045237D02*
X121550057Y-54092856D01*
X121550057Y-54092856D02*
X121692914Y-54188094D01*
X121692914Y-54188094D02*
X121883390Y-54235713D01*
X121883390Y-54235713D02*
X122264342Y-54235713D01*
X122264342Y-54235713D02*
X122359580Y-54188094D01*
X122359580Y-54188094D02*
X122407200Y-54140475D01*
X122407200Y-54140475D02*
X122454819Y-54045237D01*
X122454819Y-54045237D02*
X122454819Y-53854761D01*
X122454819Y-53854761D02*
X122407200Y-53759523D01*
X122407200Y-53759523D02*
X122359580Y-53711904D01*
X122359580Y-53711904D02*
X122264342Y-53664285D01*
X122264342Y-53664285D02*
X122026247Y-53664285D01*
X122026247Y-53664285D02*
X121931009Y-53711904D01*
X121931009Y-53711904D02*
X121883390Y-53759523D01*
X121883390Y-53759523D02*
X121835771Y-53854761D01*
X121835771Y-53854761D02*
X121835771Y-54045237D01*
X121835771Y-54045237D02*
X121883390Y-54140475D01*
X121883390Y-54140475D02*
X121931009Y-54188094D01*
X121931009Y-54188094D02*
X122026247Y-54235713D01*
X100357142Y-64859580D02*
X100309523Y-64907200D01*
X100309523Y-64907200D02*
X100166666Y-64954819D01*
X100166666Y-64954819D02*
X100071428Y-64954819D01*
X100071428Y-64954819D02*
X99928571Y-64907200D01*
X99928571Y-64907200D02*
X99833333Y-64811961D01*
X99833333Y-64811961D02*
X99785714Y-64716723D01*
X99785714Y-64716723D02*
X99738095Y-64526247D01*
X99738095Y-64526247D02*
X99738095Y-64383390D01*
X99738095Y-64383390D02*
X99785714Y-64192914D01*
X99785714Y-64192914D02*
X99833333Y-64097676D01*
X99833333Y-64097676D02*
X99928571Y-64002438D01*
X99928571Y-64002438D02*
X100071428Y-63954819D01*
X100071428Y-63954819D02*
X100166666Y-63954819D01*
X100166666Y-63954819D02*
X100309523Y-64002438D01*
X100309523Y-64002438D02*
X100357142Y-64050057D01*
X101309523Y-64954819D02*
X100738095Y-64954819D01*
X101023809Y-64954819D02*
X101023809Y-63954819D01*
X101023809Y-63954819D02*
X100928571Y-64097676D01*
X100928571Y-64097676D02*
X100833333Y-64192914D01*
X100833333Y-64192914D02*
X100738095Y-64240533D01*
X102166666Y-63954819D02*
X101976190Y-63954819D01*
X101976190Y-63954819D02*
X101880952Y-64002438D01*
X101880952Y-64002438D02*
X101833333Y-64050057D01*
X101833333Y-64050057D02*
X101738095Y-64192914D01*
X101738095Y-64192914D02*
X101690476Y-64383390D01*
X101690476Y-64383390D02*
X101690476Y-64764342D01*
X101690476Y-64764342D02*
X101738095Y-64859580D01*
X101738095Y-64859580D02*
X101785714Y-64907200D01*
X101785714Y-64907200D02*
X101880952Y-64954819D01*
X101880952Y-64954819D02*
X102071428Y-64954819D01*
X102071428Y-64954819D02*
X102166666Y-64907200D01*
X102166666Y-64907200D02*
X102214285Y-64859580D01*
X102214285Y-64859580D02*
X102261904Y-64764342D01*
X102261904Y-64764342D02*
X102261904Y-64526247D01*
X102261904Y-64526247D02*
X102214285Y-64431009D01*
X102214285Y-64431009D02*
X102166666Y-64383390D01*
X102166666Y-64383390D02*
X102071428Y-64335771D01*
X102071428Y-64335771D02*
X101880952Y-64335771D01*
X101880952Y-64335771D02*
X101785714Y-64383390D01*
X101785714Y-64383390D02*
X101738095Y-64431009D01*
X101738095Y-64431009D02*
X101690476Y-64526247D01*
X83524819Y-42754166D02*
X83048628Y-43087499D01*
X83524819Y-43325594D02*
X82524819Y-43325594D01*
X82524819Y-43325594D02*
X82524819Y-42944642D01*
X82524819Y-42944642D02*
X82572438Y-42849404D01*
X82572438Y-42849404D02*
X82620057Y-42801785D01*
X82620057Y-42801785D02*
X82715295Y-42754166D01*
X82715295Y-42754166D02*
X82858152Y-42754166D01*
X82858152Y-42754166D02*
X82953390Y-42801785D01*
X82953390Y-42801785D02*
X83001009Y-42849404D01*
X83001009Y-42849404D02*
X83048628Y-42944642D01*
X83048628Y-42944642D02*
X83048628Y-43325594D01*
X82620057Y-42373213D02*
X82572438Y-42325594D01*
X82572438Y-42325594D02*
X82524819Y-42230356D01*
X82524819Y-42230356D02*
X82524819Y-41992261D01*
X82524819Y-41992261D02*
X82572438Y-41897023D01*
X82572438Y-41897023D02*
X82620057Y-41849404D01*
X82620057Y-41849404D02*
X82715295Y-41801785D01*
X82715295Y-41801785D02*
X82810533Y-41801785D01*
X82810533Y-41801785D02*
X82953390Y-41849404D01*
X82953390Y-41849404D02*
X83524819Y-42420832D01*
X83524819Y-42420832D02*
X83524819Y-41801785D01*
X85238095Y-67844819D02*
X85809523Y-67844819D01*
X85523809Y-68844819D02*
X85523809Y-67844819D01*
X86142857Y-68844819D02*
X86142857Y-67844819D01*
X86142857Y-67844819D02*
X86523809Y-67844819D01*
X86523809Y-67844819D02*
X86619047Y-67892438D01*
X86619047Y-67892438D02*
X86666666Y-67940057D01*
X86666666Y-67940057D02*
X86714285Y-68035295D01*
X86714285Y-68035295D02*
X86714285Y-68178152D01*
X86714285Y-68178152D02*
X86666666Y-68273390D01*
X86666666Y-68273390D02*
X86619047Y-68321009D01*
X86619047Y-68321009D02*
X86523809Y-68368628D01*
X86523809Y-68368628D02*
X86142857Y-68368628D01*
X87047619Y-67844819D02*
X87714285Y-67844819D01*
X87714285Y-67844819D02*
X87285714Y-68844819D01*
X122833333Y-75717319D02*
X122500000Y-75241128D01*
X122261905Y-75717319D02*
X122261905Y-74717319D01*
X122261905Y-74717319D02*
X122642857Y-74717319D01*
X122642857Y-74717319D02*
X122738095Y-74764938D01*
X122738095Y-74764938D02*
X122785714Y-74812557D01*
X122785714Y-74812557D02*
X122833333Y-74907795D01*
X122833333Y-74907795D02*
X122833333Y-75050652D01*
X122833333Y-75050652D02*
X122785714Y-75145890D01*
X122785714Y-75145890D02*
X122738095Y-75193509D01*
X122738095Y-75193509D02*
X122642857Y-75241128D01*
X122642857Y-75241128D02*
X122261905Y-75241128D01*
X123309524Y-75717319D02*
X123500000Y-75717319D01*
X123500000Y-75717319D02*
X123595238Y-75669700D01*
X123595238Y-75669700D02*
X123642857Y-75622080D01*
X123642857Y-75622080D02*
X123738095Y-75479223D01*
X123738095Y-75479223D02*
X123785714Y-75288747D01*
X123785714Y-75288747D02*
X123785714Y-74907795D01*
X123785714Y-74907795D02*
X123738095Y-74812557D01*
X123738095Y-74812557D02*
X123690476Y-74764938D01*
X123690476Y-74764938D02*
X123595238Y-74717319D01*
X123595238Y-74717319D02*
X123404762Y-74717319D01*
X123404762Y-74717319D02*
X123309524Y-74764938D01*
X123309524Y-74764938D02*
X123261905Y-74812557D01*
X123261905Y-74812557D02*
X123214286Y-74907795D01*
X123214286Y-74907795D02*
X123214286Y-75145890D01*
X123214286Y-75145890D02*
X123261905Y-75241128D01*
X123261905Y-75241128D02*
X123309524Y-75288747D01*
X123309524Y-75288747D02*
X123404762Y-75336366D01*
X123404762Y-75336366D02*
X123595238Y-75336366D01*
X123595238Y-75336366D02*
X123690476Y-75288747D01*
X123690476Y-75288747D02*
X123738095Y-75241128D01*
X123738095Y-75241128D02*
X123785714Y-75145890D01*
X102738095Y-70554819D02*
X102738095Y-71364342D01*
X102738095Y-71364342D02*
X102785714Y-71459580D01*
X102785714Y-71459580D02*
X102833333Y-71507200D01*
X102833333Y-71507200D02*
X102928571Y-71554819D01*
X102928571Y-71554819D02*
X103119047Y-71554819D01*
X103119047Y-71554819D02*
X103214285Y-71507200D01*
X103214285Y-71507200D02*
X103261904Y-71459580D01*
X103261904Y-71459580D02*
X103309523Y-71364342D01*
X103309523Y-71364342D02*
X103309523Y-70554819D01*
X103690476Y-70554819D02*
X104357142Y-70554819D01*
X104357142Y-70554819D02*
X103928571Y-71554819D01*
X46064819Y-67261904D02*
X46064819Y-66690476D01*
X47064819Y-66976190D02*
X46064819Y-66976190D01*
X47064819Y-66357142D02*
X46064819Y-66357142D01*
X46064819Y-66357142D02*
X46064819Y-65976190D01*
X46064819Y-65976190D02*
X46112438Y-65880952D01*
X46112438Y-65880952D02*
X46160057Y-65833333D01*
X46160057Y-65833333D02*
X46255295Y-65785714D01*
X46255295Y-65785714D02*
X46398152Y-65785714D01*
X46398152Y-65785714D02*
X46493390Y-65833333D01*
X46493390Y-65833333D02*
X46541009Y-65880952D01*
X46541009Y-65880952D02*
X46588628Y-65976190D01*
X46588628Y-65976190D02*
X46588628Y-66357142D01*
X46398152Y-64928571D02*
X47064819Y-64928571D01*
X46017200Y-65166666D02*
X46731485Y-65404761D01*
X46731485Y-65404761D02*
X46731485Y-64785714D01*
X108454819Y-81642857D02*
X107978628Y-81976190D01*
X108454819Y-82214285D02*
X107454819Y-82214285D01*
X107454819Y-82214285D02*
X107454819Y-81833333D01*
X107454819Y-81833333D02*
X107502438Y-81738095D01*
X107502438Y-81738095D02*
X107550057Y-81690476D01*
X107550057Y-81690476D02*
X107645295Y-81642857D01*
X107645295Y-81642857D02*
X107788152Y-81642857D01*
X107788152Y-81642857D02*
X107883390Y-81690476D01*
X107883390Y-81690476D02*
X107931009Y-81738095D01*
X107931009Y-81738095D02*
X107978628Y-81833333D01*
X107978628Y-81833333D02*
X107978628Y-82214285D01*
X107550057Y-81261904D02*
X107502438Y-81214285D01*
X107502438Y-81214285D02*
X107454819Y-81119047D01*
X107454819Y-81119047D02*
X107454819Y-80880952D01*
X107454819Y-80880952D02*
X107502438Y-80785714D01*
X107502438Y-80785714D02*
X107550057Y-80738095D01*
X107550057Y-80738095D02*
X107645295Y-80690476D01*
X107645295Y-80690476D02*
X107740533Y-80690476D01*
X107740533Y-80690476D02*
X107883390Y-80738095D01*
X107883390Y-80738095D02*
X108454819Y-81309523D01*
X108454819Y-81309523D02*
X108454819Y-80690476D01*
X107550057Y-80309523D02*
X107502438Y-80261904D01*
X107502438Y-80261904D02*
X107454819Y-80166666D01*
X107454819Y-80166666D02*
X107454819Y-79928571D01*
X107454819Y-79928571D02*
X107502438Y-79833333D01*
X107502438Y-79833333D02*
X107550057Y-79785714D01*
X107550057Y-79785714D02*
X107645295Y-79738095D01*
X107645295Y-79738095D02*
X107740533Y-79738095D01*
X107740533Y-79738095D02*
X107883390Y-79785714D01*
X107883390Y-79785714D02*
X108454819Y-80357142D01*
X108454819Y-80357142D02*
X108454819Y-79738095D01*
X103333333Y-44024819D02*
X103000000Y-43548628D01*
X102761905Y-44024819D02*
X102761905Y-43024819D01*
X102761905Y-43024819D02*
X103142857Y-43024819D01*
X103142857Y-43024819D02*
X103238095Y-43072438D01*
X103238095Y-43072438D02*
X103285714Y-43120057D01*
X103285714Y-43120057D02*
X103333333Y-43215295D01*
X103333333Y-43215295D02*
X103333333Y-43358152D01*
X103333333Y-43358152D02*
X103285714Y-43453390D01*
X103285714Y-43453390D02*
X103238095Y-43501009D01*
X103238095Y-43501009D02*
X103142857Y-43548628D01*
X103142857Y-43548628D02*
X102761905Y-43548628D01*
X103904762Y-43453390D02*
X103809524Y-43405771D01*
X103809524Y-43405771D02*
X103761905Y-43358152D01*
X103761905Y-43358152D02*
X103714286Y-43262914D01*
X103714286Y-43262914D02*
X103714286Y-43215295D01*
X103714286Y-43215295D02*
X103761905Y-43120057D01*
X103761905Y-43120057D02*
X103809524Y-43072438D01*
X103809524Y-43072438D02*
X103904762Y-43024819D01*
X103904762Y-43024819D02*
X104095238Y-43024819D01*
X104095238Y-43024819D02*
X104190476Y-43072438D01*
X104190476Y-43072438D02*
X104238095Y-43120057D01*
X104238095Y-43120057D02*
X104285714Y-43215295D01*
X104285714Y-43215295D02*
X104285714Y-43262914D01*
X104285714Y-43262914D02*
X104238095Y-43358152D01*
X104238095Y-43358152D02*
X104190476Y-43405771D01*
X104190476Y-43405771D02*
X104095238Y-43453390D01*
X104095238Y-43453390D02*
X103904762Y-43453390D01*
X103904762Y-43453390D02*
X103809524Y-43501009D01*
X103809524Y-43501009D02*
X103761905Y-43548628D01*
X103761905Y-43548628D02*
X103714286Y-43643866D01*
X103714286Y-43643866D02*
X103714286Y-43834342D01*
X103714286Y-43834342D02*
X103761905Y-43929580D01*
X103761905Y-43929580D02*
X103809524Y-43977200D01*
X103809524Y-43977200D02*
X103904762Y-44024819D01*
X103904762Y-44024819D02*
X104095238Y-44024819D01*
X104095238Y-44024819D02*
X104190476Y-43977200D01*
X104190476Y-43977200D02*
X104238095Y-43929580D01*
X104238095Y-43929580D02*
X104285714Y-43834342D01*
X104285714Y-43834342D02*
X104285714Y-43643866D01*
X104285714Y-43643866D02*
X104238095Y-43548628D01*
X104238095Y-43548628D02*
X104190476Y-43501009D01*
X104190476Y-43501009D02*
X104095238Y-43453390D01*
X87238095Y-32954819D02*
X87809523Y-32954819D01*
X87523809Y-33954819D02*
X87523809Y-32954819D01*
X88142857Y-33954819D02*
X88142857Y-32954819D01*
X88142857Y-32954819D02*
X88523809Y-32954819D01*
X88523809Y-32954819D02*
X88619047Y-33002438D01*
X88619047Y-33002438D02*
X88666666Y-33050057D01*
X88666666Y-33050057D02*
X88714285Y-33145295D01*
X88714285Y-33145295D02*
X88714285Y-33288152D01*
X88714285Y-33288152D02*
X88666666Y-33383390D01*
X88666666Y-33383390D02*
X88619047Y-33431009D01*
X88619047Y-33431009D02*
X88523809Y-33478628D01*
X88523809Y-33478628D02*
X88142857Y-33478628D01*
X89285714Y-33383390D02*
X89190476Y-33335771D01*
X89190476Y-33335771D02*
X89142857Y-33288152D01*
X89142857Y-33288152D02*
X89095238Y-33192914D01*
X89095238Y-33192914D02*
X89095238Y-33145295D01*
X89095238Y-33145295D02*
X89142857Y-33050057D01*
X89142857Y-33050057D02*
X89190476Y-33002438D01*
X89190476Y-33002438D02*
X89285714Y-32954819D01*
X89285714Y-32954819D02*
X89476190Y-32954819D01*
X89476190Y-32954819D02*
X89571428Y-33002438D01*
X89571428Y-33002438D02*
X89619047Y-33050057D01*
X89619047Y-33050057D02*
X89666666Y-33145295D01*
X89666666Y-33145295D02*
X89666666Y-33192914D01*
X89666666Y-33192914D02*
X89619047Y-33288152D01*
X89619047Y-33288152D02*
X89571428Y-33335771D01*
X89571428Y-33335771D02*
X89476190Y-33383390D01*
X89476190Y-33383390D02*
X89285714Y-33383390D01*
X89285714Y-33383390D02*
X89190476Y-33431009D01*
X89190476Y-33431009D02*
X89142857Y-33478628D01*
X89142857Y-33478628D02*
X89095238Y-33573866D01*
X89095238Y-33573866D02*
X89095238Y-33764342D01*
X89095238Y-33764342D02*
X89142857Y-33859580D01*
X89142857Y-33859580D02*
X89190476Y-33907200D01*
X89190476Y-33907200D02*
X89285714Y-33954819D01*
X89285714Y-33954819D02*
X89476190Y-33954819D01*
X89476190Y-33954819D02*
X89571428Y-33907200D01*
X89571428Y-33907200D02*
X89619047Y-33859580D01*
X89619047Y-33859580D02*
X89666666Y-33764342D01*
X89666666Y-33764342D02*
X89666666Y-33573866D01*
X89666666Y-33573866D02*
X89619047Y-33478628D01*
X89619047Y-33478628D02*
X89571428Y-33431009D01*
X89571428Y-33431009D02*
X89476190Y-33383390D01*
X108454819Y-90642857D02*
X107978628Y-90976190D01*
X108454819Y-91214285D02*
X107454819Y-91214285D01*
X107454819Y-91214285D02*
X107454819Y-90833333D01*
X107454819Y-90833333D02*
X107502438Y-90738095D01*
X107502438Y-90738095D02*
X107550057Y-90690476D01*
X107550057Y-90690476D02*
X107645295Y-90642857D01*
X107645295Y-90642857D02*
X107788152Y-90642857D01*
X107788152Y-90642857D02*
X107883390Y-90690476D01*
X107883390Y-90690476D02*
X107931009Y-90738095D01*
X107931009Y-90738095D02*
X107978628Y-90833333D01*
X107978628Y-90833333D02*
X107978628Y-91214285D01*
X108454819Y-89690476D02*
X108454819Y-90261904D01*
X108454819Y-89976190D02*
X107454819Y-89976190D01*
X107454819Y-89976190D02*
X107597676Y-90071428D01*
X107597676Y-90071428D02*
X107692914Y-90166666D01*
X107692914Y-90166666D02*
X107740533Y-90261904D01*
X107883390Y-89119047D02*
X107835771Y-89214285D01*
X107835771Y-89214285D02*
X107788152Y-89261904D01*
X107788152Y-89261904D02*
X107692914Y-89309523D01*
X107692914Y-89309523D02*
X107645295Y-89309523D01*
X107645295Y-89309523D02*
X107550057Y-89261904D01*
X107550057Y-89261904D02*
X107502438Y-89214285D01*
X107502438Y-89214285D02*
X107454819Y-89119047D01*
X107454819Y-89119047D02*
X107454819Y-88928571D01*
X107454819Y-88928571D02*
X107502438Y-88833333D01*
X107502438Y-88833333D02*
X107550057Y-88785714D01*
X107550057Y-88785714D02*
X107645295Y-88738095D01*
X107645295Y-88738095D02*
X107692914Y-88738095D01*
X107692914Y-88738095D02*
X107788152Y-88785714D01*
X107788152Y-88785714D02*
X107835771Y-88833333D01*
X107835771Y-88833333D02*
X107883390Y-88928571D01*
X107883390Y-88928571D02*
X107883390Y-89119047D01*
X107883390Y-89119047D02*
X107931009Y-89214285D01*
X107931009Y-89214285D02*
X107978628Y-89261904D01*
X107978628Y-89261904D02*
X108073866Y-89309523D01*
X108073866Y-89309523D02*
X108264342Y-89309523D01*
X108264342Y-89309523D02*
X108359580Y-89261904D01*
X108359580Y-89261904D02*
X108407200Y-89214285D01*
X108407200Y-89214285D02*
X108454819Y-89119047D01*
X108454819Y-89119047D02*
X108454819Y-88928571D01*
X108454819Y-88928571D02*
X108407200Y-88833333D01*
X108407200Y-88833333D02*
X108359580Y-88785714D01*
X108359580Y-88785714D02*
X108264342Y-88738095D01*
X108264342Y-88738095D02*
X108073866Y-88738095D01*
X108073866Y-88738095D02*
X107978628Y-88785714D01*
X107978628Y-88785714D02*
X107931009Y-88833333D01*
X107931009Y-88833333D02*
X107883390Y-88928571D01*
X113357142Y-33954819D02*
X113023809Y-33478628D01*
X112785714Y-33954819D02*
X112785714Y-32954819D01*
X112785714Y-32954819D02*
X113166666Y-32954819D01*
X113166666Y-32954819D02*
X113261904Y-33002438D01*
X113261904Y-33002438D02*
X113309523Y-33050057D01*
X113309523Y-33050057D02*
X113357142Y-33145295D01*
X113357142Y-33145295D02*
X113357142Y-33288152D01*
X113357142Y-33288152D02*
X113309523Y-33383390D01*
X113309523Y-33383390D02*
X113261904Y-33431009D01*
X113261904Y-33431009D02*
X113166666Y-33478628D01*
X113166666Y-33478628D02*
X112785714Y-33478628D01*
X113738095Y-33050057D02*
X113785714Y-33002438D01*
X113785714Y-33002438D02*
X113880952Y-32954819D01*
X113880952Y-32954819D02*
X114119047Y-32954819D01*
X114119047Y-32954819D02*
X114214285Y-33002438D01*
X114214285Y-33002438D02*
X114261904Y-33050057D01*
X114261904Y-33050057D02*
X114309523Y-33145295D01*
X114309523Y-33145295D02*
X114309523Y-33240533D01*
X114309523Y-33240533D02*
X114261904Y-33383390D01*
X114261904Y-33383390D02*
X113690476Y-33954819D01*
X113690476Y-33954819D02*
X114309523Y-33954819D01*
X115166666Y-33288152D02*
X115166666Y-33954819D01*
X114928571Y-32907200D02*
X114690476Y-33621485D01*
X114690476Y-33621485D02*
X115309523Y-33621485D01*
X94359580Y-74166666D02*
X94407200Y-74214285D01*
X94407200Y-74214285D02*
X94454819Y-74357142D01*
X94454819Y-74357142D02*
X94454819Y-74452380D01*
X94454819Y-74452380D02*
X94407200Y-74595237D01*
X94407200Y-74595237D02*
X94311961Y-74690475D01*
X94311961Y-74690475D02*
X94216723Y-74738094D01*
X94216723Y-74738094D02*
X94026247Y-74785713D01*
X94026247Y-74785713D02*
X93883390Y-74785713D01*
X93883390Y-74785713D02*
X93692914Y-74738094D01*
X93692914Y-74738094D02*
X93597676Y-74690475D01*
X93597676Y-74690475D02*
X93502438Y-74595237D01*
X93502438Y-74595237D02*
X93454819Y-74452380D01*
X93454819Y-74452380D02*
X93454819Y-74357142D01*
X93454819Y-74357142D02*
X93502438Y-74214285D01*
X93502438Y-74214285D02*
X93550057Y-74166666D01*
X93454819Y-73309523D02*
X93454819Y-73499999D01*
X93454819Y-73499999D02*
X93502438Y-73595237D01*
X93502438Y-73595237D02*
X93550057Y-73642856D01*
X93550057Y-73642856D02*
X93692914Y-73738094D01*
X93692914Y-73738094D02*
X93883390Y-73785713D01*
X93883390Y-73785713D02*
X94264342Y-73785713D01*
X94264342Y-73785713D02*
X94359580Y-73738094D01*
X94359580Y-73738094D02*
X94407200Y-73690475D01*
X94407200Y-73690475D02*
X94454819Y-73595237D01*
X94454819Y-73595237D02*
X94454819Y-73404761D01*
X94454819Y-73404761D02*
X94407200Y-73309523D01*
X94407200Y-73309523D02*
X94359580Y-73261904D01*
X94359580Y-73261904D02*
X94264342Y-73214285D01*
X94264342Y-73214285D02*
X94026247Y-73214285D01*
X94026247Y-73214285D02*
X93931009Y-73261904D01*
X93931009Y-73261904D02*
X93883390Y-73309523D01*
X93883390Y-73309523D02*
X93835771Y-73404761D01*
X93835771Y-73404761D02*
X93835771Y-73595237D01*
X93835771Y-73595237D02*
X93883390Y-73690475D01*
X93883390Y-73690475D02*
X93931009Y-73738094D01*
X93931009Y-73738094D02*
X94026247Y-73785713D01*
X97238095Y-35954819D02*
X97809523Y-35954819D01*
X97523809Y-36954819D02*
X97523809Y-35954819D01*
X98142857Y-36954819D02*
X98142857Y-35954819D01*
X98142857Y-35954819D02*
X98523809Y-35954819D01*
X98523809Y-35954819D02*
X98619047Y-36002438D01*
X98619047Y-36002438D02*
X98666666Y-36050057D01*
X98666666Y-36050057D02*
X98714285Y-36145295D01*
X98714285Y-36145295D02*
X98714285Y-36288152D01*
X98714285Y-36288152D02*
X98666666Y-36383390D01*
X98666666Y-36383390D02*
X98619047Y-36431009D01*
X98619047Y-36431009D02*
X98523809Y-36478628D01*
X98523809Y-36478628D02*
X98142857Y-36478628D01*
X99666666Y-36954819D02*
X99095238Y-36954819D01*
X99380952Y-36954819D02*
X99380952Y-35954819D01*
X99380952Y-35954819D02*
X99285714Y-36097676D01*
X99285714Y-36097676D02*
X99190476Y-36192914D01*
X99190476Y-36192914D02*
X99095238Y-36240533D01*
X65320833Y-49479819D02*
X64987500Y-49003628D01*
X64749405Y-49479819D02*
X64749405Y-48479819D01*
X64749405Y-48479819D02*
X65130357Y-48479819D01*
X65130357Y-48479819D02*
X65225595Y-48527438D01*
X65225595Y-48527438D02*
X65273214Y-48575057D01*
X65273214Y-48575057D02*
X65320833Y-48670295D01*
X65320833Y-48670295D02*
X65320833Y-48813152D01*
X65320833Y-48813152D02*
X65273214Y-48908390D01*
X65273214Y-48908390D02*
X65225595Y-48956009D01*
X65225595Y-48956009D02*
X65130357Y-49003628D01*
X65130357Y-49003628D02*
X64749405Y-49003628D01*
X66225595Y-48479819D02*
X65749405Y-48479819D01*
X65749405Y-48479819D02*
X65701786Y-48956009D01*
X65701786Y-48956009D02*
X65749405Y-48908390D01*
X65749405Y-48908390D02*
X65844643Y-48860771D01*
X65844643Y-48860771D02*
X66082738Y-48860771D01*
X66082738Y-48860771D02*
X66177976Y-48908390D01*
X66177976Y-48908390D02*
X66225595Y-48956009D01*
X66225595Y-48956009D02*
X66273214Y-49051247D01*
X66273214Y-49051247D02*
X66273214Y-49289342D01*
X66273214Y-49289342D02*
X66225595Y-49384580D01*
X66225595Y-49384580D02*
X66177976Y-49432200D01*
X66177976Y-49432200D02*
X66082738Y-49479819D01*
X66082738Y-49479819D02*
X65844643Y-49479819D01*
X65844643Y-49479819D02*
X65749405Y-49432200D01*
X65749405Y-49432200D02*
X65701786Y-49384580D01*
X118067080Y-78280357D02*
X118114700Y-78327976D01*
X118114700Y-78327976D02*
X118162319Y-78470833D01*
X118162319Y-78470833D02*
X118162319Y-78566071D01*
X118162319Y-78566071D02*
X118114700Y-78708928D01*
X118114700Y-78708928D02*
X118019461Y-78804166D01*
X118019461Y-78804166D02*
X117924223Y-78851785D01*
X117924223Y-78851785D02*
X117733747Y-78899404D01*
X117733747Y-78899404D02*
X117590890Y-78899404D01*
X117590890Y-78899404D02*
X117400414Y-78851785D01*
X117400414Y-78851785D02*
X117305176Y-78804166D01*
X117305176Y-78804166D02*
X117209938Y-78708928D01*
X117209938Y-78708928D02*
X117162319Y-78566071D01*
X117162319Y-78566071D02*
X117162319Y-78470833D01*
X117162319Y-78470833D02*
X117209938Y-78327976D01*
X117209938Y-78327976D02*
X117257557Y-78280357D01*
X118162319Y-77327976D02*
X118162319Y-77899404D01*
X118162319Y-77613690D02*
X117162319Y-77613690D01*
X117162319Y-77613690D02*
X117305176Y-77708928D01*
X117305176Y-77708928D02*
X117400414Y-77804166D01*
X117400414Y-77804166D02*
X117448033Y-77899404D01*
X118162319Y-76375595D02*
X118162319Y-76947023D01*
X118162319Y-76661309D02*
X117162319Y-76661309D01*
X117162319Y-76661309D02*
X117305176Y-76756547D01*
X117305176Y-76756547D02*
X117400414Y-76851785D01*
X117400414Y-76851785D02*
X117448033Y-76947023D01*
X117929580Y-72505357D02*
X117977200Y-72552976D01*
X117977200Y-72552976D02*
X118024819Y-72695833D01*
X118024819Y-72695833D02*
X118024819Y-72791071D01*
X118024819Y-72791071D02*
X117977200Y-72933928D01*
X117977200Y-72933928D02*
X117881961Y-73029166D01*
X117881961Y-73029166D02*
X117786723Y-73076785D01*
X117786723Y-73076785D02*
X117596247Y-73124404D01*
X117596247Y-73124404D02*
X117453390Y-73124404D01*
X117453390Y-73124404D02*
X117262914Y-73076785D01*
X117262914Y-73076785D02*
X117167676Y-73029166D01*
X117167676Y-73029166D02*
X117072438Y-72933928D01*
X117072438Y-72933928D02*
X117024819Y-72791071D01*
X117024819Y-72791071D02*
X117024819Y-72695833D01*
X117024819Y-72695833D02*
X117072438Y-72552976D01*
X117072438Y-72552976D02*
X117120057Y-72505357D01*
X118024819Y-71552976D02*
X118024819Y-72124404D01*
X118024819Y-71838690D02*
X117024819Y-71838690D01*
X117024819Y-71838690D02*
X117167676Y-71933928D01*
X117167676Y-71933928D02*
X117262914Y-72029166D01*
X117262914Y-72029166D02*
X117310533Y-72124404D01*
X117024819Y-70933928D02*
X117024819Y-70838690D01*
X117024819Y-70838690D02*
X117072438Y-70743452D01*
X117072438Y-70743452D02*
X117120057Y-70695833D01*
X117120057Y-70695833D02*
X117215295Y-70648214D01*
X117215295Y-70648214D02*
X117405771Y-70600595D01*
X117405771Y-70600595D02*
X117643866Y-70600595D01*
X117643866Y-70600595D02*
X117834342Y-70648214D01*
X117834342Y-70648214D02*
X117929580Y-70695833D01*
X117929580Y-70695833D02*
X117977200Y-70743452D01*
X117977200Y-70743452D02*
X118024819Y-70838690D01*
X118024819Y-70838690D02*
X118024819Y-70933928D01*
X118024819Y-70933928D02*
X117977200Y-71029166D01*
X117977200Y-71029166D02*
X117929580Y-71076785D01*
X117929580Y-71076785D02*
X117834342Y-71124404D01*
X117834342Y-71124404D02*
X117643866Y-71172023D01*
X117643866Y-71172023D02*
X117405771Y-71172023D01*
X117405771Y-71172023D02*
X117215295Y-71124404D01*
X117215295Y-71124404D02*
X117120057Y-71076785D01*
X117120057Y-71076785D02*
X117072438Y-71029166D01*
X117072438Y-71029166D02*
X117024819Y-70933928D01*
X126954819Y-72738094D02*
X125954819Y-72738094D01*
X125954819Y-72738094D02*
X125954819Y-72499999D01*
X125954819Y-72499999D02*
X126002438Y-72357142D01*
X126002438Y-72357142D02*
X126097676Y-72261904D01*
X126097676Y-72261904D02*
X126192914Y-72214285D01*
X126192914Y-72214285D02*
X126383390Y-72166666D01*
X126383390Y-72166666D02*
X126526247Y-72166666D01*
X126526247Y-72166666D02*
X126716723Y-72214285D01*
X126716723Y-72214285D02*
X126811961Y-72261904D01*
X126811961Y-72261904D02*
X126907200Y-72357142D01*
X126907200Y-72357142D02*
X126954819Y-72499999D01*
X126954819Y-72499999D02*
X126954819Y-72738094D01*
X126954819Y-71214285D02*
X126954819Y-71785713D01*
X126954819Y-71499999D02*
X125954819Y-71499999D01*
X125954819Y-71499999D02*
X126097676Y-71595237D01*
X126097676Y-71595237D02*
X126192914Y-71690475D01*
X126192914Y-71690475D02*
X126240533Y-71785713D01*
X126970833Y-93289580D02*
X126923214Y-93337200D01*
X126923214Y-93337200D02*
X126780357Y-93384819D01*
X126780357Y-93384819D02*
X126685119Y-93384819D01*
X126685119Y-93384819D02*
X126542262Y-93337200D01*
X126542262Y-93337200D02*
X126447024Y-93241961D01*
X126447024Y-93241961D02*
X126399405Y-93146723D01*
X126399405Y-93146723D02*
X126351786Y-92956247D01*
X126351786Y-92956247D02*
X126351786Y-92813390D01*
X126351786Y-92813390D02*
X126399405Y-92622914D01*
X126399405Y-92622914D02*
X126447024Y-92527676D01*
X126447024Y-92527676D02*
X126542262Y-92432438D01*
X126542262Y-92432438D02*
X126685119Y-92384819D01*
X126685119Y-92384819D02*
X126780357Y-92384819D01*
X126780357Y-92384819D02*
X126923214Y-92432438D01*
X126923214Y-92432438D02*
X126970833Y-92480057D01*
X127542262Y-92813390D02*
X127447024Y-92765771D01*
X127447024Y-92765771D02*
X127399405Y-92718152D01*
X127399405Y-92718152D02*
X127351786Y-92622914D01*
X127351786Y-92622914D02*
X127351786Y-92575295D01*
X127351786Y-92575295D02*
X127399405Y-92480057D01*
X127399405Y-92480057D02*
X127447024Y-92432438D01*
X127447024Y-92432438D02*
X127542262Y-92384819D01*
X127542262Y-92384819D02*
X127732738Y-92384819D01*
X127732738Y-92384819D02*
X127827976Y-92432438D01*
X127827976Y-92432438D02*
X127875595Y-92480057D01*
X127875595Y-92480057D02*
X127923214Y-92575295D01*
X127923214Y-92575295D02*
X127923214Y-92622914D01*
X127923214Y-92622914D02*
X127875595Y-92718152D01*
X127875595Y-92718152D02*
X127827976Y-92765771D01*
X127827976Y-92765771D02*
X127732738Y-92813390D01*
X127732738Y-92813390D02*
X127542262Y-92813390D01*
X127542262Y-92813390D02*
X127447024Y-92861009D01*
X127447024Y-92861009D02*
X127399405Y-92908628D01*
X127399405Y-92908628D02*
X127351786Y-93003866D01*
X127351786Y-93003866D02*
X127351786Y-93194342D01*
X127351786Y-93194342D02*
X127399405Y-93289580D01*
X127399405Y-93289580D02*
X127447024Y-93337200D01*
X127447024Y-93337200D02*
X127542262Y-93384819D01*
X127542262Y-93384819D02*
X127732738Y-93384819D01*
X127732738Y-93384819D02*
X127827976Y-93337200D01*
X127827976Y-93337200D02*
X127875595Y-93289580D01*
X127875595Y-93289580D02*
X127923214Y-93194342D01*
X127923214Y-93194342D02*
X127923214Y-93003866D01*
X127923214Y-93003866D02*
X127875595Y-92908628D01*
X127875595Y-92908628D02*
X127827976Y-92861009D01*
X127827976Y-92861009D02*
X127732738Y-92813390D01*
X62738095Y-43354819D02*
X62738095Y-44164342D01*
X62738095Y-44164342D02*
X62785714Y-44259580D01*
X62785714Y-44259580D02*
X62833333Y-44307200D01*
X62833333Y-44307200D02*
X62928571Y-44354819D01*
X62928571Y-44354819D02*
X63119047Y-44354819D01*
X63119047Y-44354819D02*
X63214285Y-44307200D01*
X63214285Y-44307200D02*
X63261904Y-44259580D01*
X63261904Y-44259580D02*
X63309523Y-44164342D01*
X63309523Y-44164342D02*
X63309523Y-43354819D01*
X63690476Y-43354819D02*
X64309523Y-43354819D01*
X64309523Y-43354819D02*
X63976190Y-43735771D01*
X63976190Y-43735771D02*
X64119047Y-43735771D01*
X64119047Y-43735771D02*
X64214285Y-43783390D01*
X64214285Y-43783390D02*
X64261904Y-43831009D01*
X64261904Y-43831009D02*
X64309523Y-43926247D01*
X64309523Y-43926247D02*
X64309523Y-44164342D01*
X64309523Y-44164342D02*
X64261904Y-44259580D01*
X64261904Y-44259580D02*
X64214285Y-44307200D01*
X64214285Y-44307200D02*
X64119047Y-44354819D01*
X64119047Y-44354819D02*
X63833333Y-44354819D01*
X63833333Y-44354819D02*
X63738095Y-44307200D01*
X63738095Y-44307200D02*
X63690476Y-44259580D01*
X93238095Y-32954819D02*
X93809523Y-32954819D01*
X93523809Y-33954819D02*
X93523809Y-32954819D01*
X94142857Y-33954819D02*
X94142857Y-32954819D01*
X94142857Y-32954819D02*
X94523809Y-32954819D01*
X94523809Y-32954819D02*
X94619047Y-33002438D01*
X94619047Y-33002438D02*
X94666666Y-33050057D01*
X94666666Y-33050057D02*
X94714285Y-33145295D01*
X94714285Y-33145295D02*
X94714285Y-33288152D01*
X94714285Y-33288152D02*
X94666666Y-33383390D01*
X94666666Y-33383390D02*
X94619047Y-33431009D01*
X94619047Y-33431009D02*
X94523809Y-33478628D01*
X94523809Y-33478628D02*
X94142857Y-33478628D01*
X95571428Y-32954819D02*
X95380952Y-32954819D01*
X95380952Y-32954819D02*
X95285714Y-33002438D01*
X95285714Y-33002438D02*
X95238095Y-33050057D01*
X95238095Y-33050057D02*
X95142857Y-33192914D01*
X95142857Y-33192914D02*
X95095238Y-33383390D01*
X95095238Y-33383390D02*
X95095238Y-33764342D01*
X95095238Y-33764342D02*
X95142857Y-33859580D01*
X95142857Y-33859580D02*
X95190476Y-33907200D01*
X95190476Y-33907200D02*
X95285714Y-33954819D01*
X95285714Y-33954819D02*
X95476190Y-33954819D01*
X95476190Y-33954819D02*
X95571428Y-33907200D01*
X95571428Y-33907200D02*
X95619047Y-33859580D01*
X95619047Y-33859580D02*
X95666666Y-33764342D01*
X95666666Y-33764342D02*
X95666666Y-33526247D01*
X95666666Y-33526247D02*
X95619047Y-33431009D01*
X95619047Y-33431009D02*
X95571428Y-33383390D01*
X95571428Y-33383390D02*
X95476190Y-33335771D01*
X95476190Y-33335771D02*
X95285714Y-33335771D01*
X95285714Y-33335771D02*
X95190476Y-33383390D01*
X95190476Y-33383390D02*
X95142857Y-33431009D01*
X95142857Y-33431009D02*
X95095238Y-33526247D01*
X116789580Y-46304166D02*
X116837200Y-46351785D01*
X116837200Y-46351785D02*
X116884819Y-46494642D01*
X116884819Y-46494642D02*
X116884819Y-46589880D01*
X116884819Y-46589880D02*
X116837200Y-46732737D01*
X116837200Y-46732737D02*
X116741961Y-46827975D01*
X116741961Y-46827975D02*
X116646723Y-46875594D01*
X116646723Y-46875594D02*
X116456247Y-46923213D01*
X116456247Y-46923213D02*
X116313390Y-46923213D01*
X116313390Y-46923213D02*
X116122914Y-46875594D01*
X116122914Y-46875594D02*
X116027676Y-46827975D01*
X116027676Y-46827975D02*
X115932438Y-46732737D01*
X115932438Y-46732737D02*
X115884819Y-46589880D01*
X115884819Y-46589880D02*
X115884819Y-46494642D01*
X115884819Y-46494642D02*
X115932438Y-46351785D01*
X115932438Y-46351785D02*
X115980057Y-46304166D01*
X115884819Y-45970832D02*
X115884819Y-45351785D01*
X115884819Y-45351785D02*
X116265771Y-45685118D01*
X116265771Y-45685118D02*
X116265771Y-45542261D01*
X116265771Y-45542261D02*
X116313390Y-45447023D01*
X116313390Y-45447023D02*
X116361009Y-45399404D01*
X116361009Y-45399404D02*
X116456247Y-45351785D01*
X116456247Y-45351785D02*
X116694342Y-45351785D01*
X116694342Y-45351785D02*
X116789580Y-45399404D01*
X116789580Y-45399404D02*
X116837200Y-45447023D01*
X116837200Y-45447023D02*
X116884819Y-45542261D01*
X116884819Y-45542261D02*
X116884819Y-45827975D01*
X116884819Y-45827975D02*
X116837200Y-45923213D01*
X116837200Y-45923213D02*
X116789580Y-45970832D01*
X112954819Y-77142857D02*
X112478628Y-77476190D01*
X112954819Y-77714285D02*
X111954819Y-77714285D01*
X111954819Y-77714285D02*
X111954819Y-77333333D01*
X111954819Y-77333333D02*
X112002438Y-77238095D01*
X112002438Y-77238095D02*
X112050057Y-77190476D01*
X112050057Y-77190476D02*
X112145295Y-77142857D01*
X112145295Y-77142857D02*
X112288152Y-77142857D01*
X112288152Y-77142857D02*
X112383390Y-77190476D01*
X112383390Y-77190476D02*
X112431009Y-77238095D01*
X112431009Y-77238095D02*
X112478628Y-77333333D01*
X112478628Y-77333333D02*
X112478628Y-77714285D01*
X112954819Y-76190476D02*
X112954819Y-76761904D01*
X112954819Y-76476190D02*
X111954819Y-76476190D01*
X111954819Y-76476190D02*
X112097676Y-76571428D01*
X112097676Y-76571428D02*
X112192914Y-76666666D01*
X112192914Y-76666666D02*
X112240533Y-76761904D01*
X111954819Y-75333333D02*
X111954819Y-75523809D01*
X111954819Y-75523809D02*
X112002438Y-75619047D01*
X112002438Y-75619047D02*
X112050057Y-75666666D01*
X112050057Y-75666666D02*
X112192914Y-75761904D01*
X112192914Y-75761904D02*
X112383390Y-75809523D01*
X112383390Y-75809523D02*
X112764342Y-75809523D01*
X112764342Y-75809523D02*
X112859580Y-75761904D01*
X112859580Y-75761904D02*
X112907200Y-75714285D01*
X112907200Y-75714285D02*
X112954819Y-75619047D01*
X112954819Y-75619047D02*
X112954819Y-75428571D01*
X112954819Y-75428571D02*
X112907200Y-75333333D01*
X112907200Y-75333333D02*
X112859580Y-75285714D01*
X112859580Y-75285714D02*
X112764342Y-75238095D01*
X112764342Y-75238095D02*
X112526247Y-75238095D01*
X112526247Y-75238095D02*
X112431009Y-75285714D01*
X112431009Y-75285714D02*
X112383390Y-75333333D01*
X112383390Y-75333333D02*
X112335771Y-75428571D01*
X112335771Y-75428571D02*
X112335771Y-75619047D01*
X112335771Y-75619047D02*
X112383390Y-75714285D01*
X112383390Y-75714285D02*
X112431009Y-75761904D01*
X112431009Y-75761904D02*
X112526247Y-75809523D01*
X105914642Y-43609819D02*
X105581309Y-43133628D01*
X105343214Y-43609819D02*
X105343214Y-42609819D01*
X105343214Y-42609819D02*
X105724166Y-42609819D01*
X105724166Y-42609819D02*
X105819404Y-42657438D01*
X105819404Y-42657438D02*
X105867023Y-42705057D01*
X105867023Y-42705057D02*
X105914642Y-42800295D01*
X105914642Y-42800295D02*
X105914642Y-42943152D01*
X105914642Y-42943152D02*
X105867023Y-43038390D01*
X105867023Y-43038390D02*
X105819404Y-43086009D01*
X105819404Y-43086009D02*
X105724166Y-43133628D01*
X105724166Y-43133628D02*
X105343214Y-43133628D01*
X106247976Y-42609819D02*
X106867023Y-42609819D01*
X106867023Y-42609819D02*
X106533690Y-42990771D01*
X106533690Y-42990771D02*
X106676547Y-42990771D01*
X106676547Y-42990771D02*
X106771785Y-43038390D01*
X106771785Y-43038390D02*
X106819404Y-43086009D01*
X106819404Y-43086009D02*
X106867023Y-43181247D01*
X106867023Y-43181247D02*
X106867023Y-43419342D01*
X106867023Y-43419342D02*
X106819404Y-43514580D01*
X106819404Y-43514580D02*
X106771785Y-43562200D01*
X106771785Y-43562200D02*
X106676547Y-43609819D01*
X106676547Y-43609819D02*
X106390833Y-43609819D01*
X106390833Y-43609819D02*
X106295595Y-43562200D01*
X106295595Y-43562200D02*
X106247976Y-43514580D01*
X107486071Y-42609819D02*
X107581309Y-42609819D01*
X107581309Y-42609819D02*
X107676547Y-42657438D01*
X107676547Y-42657438D02*
X107724166Y-42705057D01*
X107724166Y-42705057D02*
X107771785Y-42800295D01*
X107771785Y-42800295D02*
X107819404Y-42990771D01*
X107819404Y-42990771D02*
X107819404Y-43228866D01*
X107819404Y-43228866D02*
X107771785Y-43419342D01*
X107771785Y-43419342D02*
X107724166Y-43514580D01*
X107724166Y-43514580D02*
X107676547Y-43562200D01*
X107676547Y-43562200D02*
X107581309Y-43609819D01*
X107581309Y-43609819D02*
X107486071Y-43609819D01*
X107486071Y-43609819D02*
X107390833Y-43562200D01*
X107390833Y-43562200D02*
X107343214Y-43514580D01*
X107343214Y-43514580D02*
X107295595Y-43419342D01*
X107295595Y-43419342D02*
X107247976Y-43228866D01*
X107247976Y-43228866D02*
X107247976Y-42990771D01*
X107247976Y-42990771D02*
X107295595Y-42800295D01*
X107295595Y-42800295D02*
X107343214Y-42705057D01*
X107343214Y-42705057D02*
X107390833Y-42657438D01*
X107390833Y-42657438D02*
X107486071Y-42609819D01*
X136166666Y-80454819D02*
X136166666Y-81169104D01*
X136166666Y-81169104D02*
X136119047Y-81311961D01*
X136119047Y-81311961D02*
X136023809Y-81407200D01*
X136023809Y-81407200D02*
X135880952Y-81454819D01*
X135880952Y-81454819D02*
X135785714Y-81454819D01*
X136595238Y-80550057D02*
X136642857Y-80502438D01*
X136642857Y-80502438D02*
X136738095Y-80454819D01*
X136738095Y-80454819D02*
X136976190Y-80454819D01*
X136976190Y-80454819D02*
X137071428Y-80502438D01*
X137071428Y-80502438D02*
X137119047Y-80550057D01*
X137119047Y-80550057D02*
X137166666Y-80645295D01*
X137166666Y-80645295D02*
X137166666Y-80740533D01*
X137166666Y-80740533D02*
X137119047Y-80883390D01*
X137119047Y-80883390D02*
X136547619Y-81454819D01*
X136547619Y-81454819D02*
X137166666Y-81454819D01*
X99954819Y-84642857D02*
X99478628Y-84976190D01*
X99954819Y-85214285D02*
X98954819Y-85214285D01*
X98954819Y-85214285D02*
X98954819Y-84833333D01*
X98954819Y-84833333D02*
X99002438Y-84738095D01*
X99002438Y-84738095D02*
X99050057Y-84690476D01*
X99050057Y-84690476D02*
X99145295Y-84642857D01*
X99145295Y-84642857D02*
X99288152Y-84642857D01*
X99288152Y-84642857D02*
X99383390Y-84690476D01*
X99383390Y-84690476D02*
X99431009Y-84738095D01*
X99431009Y-84738095D02*
X99478628Y-84833333D01*
X99478628Y-84833333D02*
X99478628Y-85214285D01*
X99050057Y-84261904D02*
X99002438Y-84214285D01*
X99002438Y-84214285D02*
X98954819Y-84119047D01*
X98954819Y-84119047D02*
X98954819Y-83880952D01*
X98954819Y-83880952D02*
X99002438Y-83785714D01*
X99002438Y-83785714D02*
X99050057Y-83738095D01*
X99050057Y-83738095D02*
X99145295Y-83690476D01*
X99145295Y-83690476D02*
X99240533Y-83690476D01*
X99240533Y-83690476D02*
X99383390Y-83738095D01*
X99383390Y-83738095D02*
X99954819Y-84309523D01*
X99954819Y-84309523D02*
X99954819Y-83690476D01*
X98954819Y-83071428D02*
X98954819Y-82976190D01*
X98954819Y-82976190D02*
X99002438Y-82880952D01*
X99002438Y-82880952D02*
X99050057Y-82833333D01*
X99050057Y-82833333D02*
X99145295Y-82785714D01*
X99145295Y-82785714D02*
X99335771Y-82738095D01*
X99335771Y-82738095D02*
X99573866Y-82738095D01*
X99573866Y-82738095D02*
X99764342Y-82785714D01*
X99764342Y-82785714D02*
X99859580Y-82833333D01*
X99859580Y-82833333D02*
X99907200Y-82880952D01*
X99907200Y-82880952D02*
X99954819Y-82976190D01*
X99954819Y-82976190D02*
X99954819Y-83071428D01*
X99954819Y-83071428D02*
X99907200Y-83166666D01*
X99907200Y-83166666D02*
X99859580Y-83214285D01*
X99859580Y-83214285D02*
X99764342Y-83261904D01*
X99764342Y-83261904D02*
X99573866Y-83309523D01*
X99573866Y-83309523D02*
X99335771Y-83309523D01*
X99335771Y-83309523D02*
X99145295Y-83261904D01*
X99145295Y-83261904D02*
X99050057Y-83214285D01*
X99050057Y-83214285D02*
X99002438Y-83166666D01*
X99002438Y-83166666D02*
X98954819Y-83071428D01*
X76444642Y-36384819D02*
X76111309Y-35908628D01*
X75873214Y-36384819D02*
X75873214Y-35384819D01*
X75873214Y-35384819D02*
X76254166Y-35384819D01*
X76254166Y-35384819D02*
X76349404Y-35432438D01*
X76349404Y-35432438D02*
X76397023Y-35480057D01*
X76397023Y-35480057D02*
X76444642Y-35575295D01*
X76444642Y-35575295D02*
X76444642Y-35718152D01*
X76444642Y-35718152D02*
X76397023Y-35813390D01*
X76397023Y-35813390D02*
X76349404Y-35861009D01*
X76349404Y-35861009D02*
X76254166Y-35908628D01*
X76254166Y-35908628D02*
X75873214Y-35908628D01*
X76777976Y-35384819D02*
X77397023Y-35384819D01*
X77397023Y-35384819D02*
X77063690Y-35765771D01*
X77063690Y-35765771D02*
X77206547Y-35765771D01*
X77206547Y-35765771D02*
X77301785Y-35813390D01*
X77301785Y-35813390D02*
X77349404Y-35861009D01*
X77349404Y-35861009D02*
X77397023Y-35956247D01*
X77397023Y-35956247D02*
X77397023Y-36194342D01*
X77397023Y-36194342D02*
X77349404Y-36289580D01*
X77349404Y-36289580D02*
X77301785Y-36337200D01*
X77301785Y-36337200D02*
X77206547Y-36384819D01*
X77206547Y-36384819D02*
X76920833Y-36384819D01*
X76920833Y-36384819D02*
X76825595Y-36337200D01*
X76825595Y-36337200D02*
X76777976Y-36289580D01*
X78349404Y-36384819D02*
X77777976Y-36384819D01*
X78063690Y-36384819D02*
X78063690Y-35384819D01*
X78063690Y-35384819D02*
X77968452Y-35527676D01*
X77968452Y-35527676D02*
X77873214Y-35622914D01*
X77873214Y-35622914D02*
X77777976Y-35670533D01*
X74738095Y-55344819D02*
X75309523Y-55344819D01*
X75023809Y-56344819D02*
X75023809Y-55344819D01*
X75642857Y-56344819D02*
X75642857Y-55344819D01*
X75642857Y-55344819D02*
X76023809Y-55344819D01*
X76023809Y-55344819D02*
X76119047Y-55392438D01*
X76119047Y-55392438D02*
X76166666Y-55440057D01*
X76166666Y-55440057D02*
X76214285Y-55535295D01*
X76214285Y-55535295D02*
X76214285Y-55678152D01*
X76214285Y-55678152D02*
X76166666Y-55773390D01*
X76166666Y-55773390D02*
X76119047Y-55821009D01*
X76119047Y-55821009D02*
X76023809Y-55868628D01*
X76023809Y-55868628D02*
X75642857Y-55868628D01*
X76690476Y-56344819D02*
X76880952Y-56344819D01*
X76880952Y-56344819D02*
X76976190Y-56297200D01*
X76976190Y-56297200D02*
X77023809Y-56249580D01*
X77023809Y-56249580D02*
X77119047Y-56106723D01*
X77119047Y-56106723D02*
X77166666Y-55916247D01*
X77166666Y-55916247D02*
X77166666Y-55535295D01*
X77166666Y-55535295D02*
X77119047Y-55440057D01*
X77119047Y-55440057D02*
X77071428Y-55392438D01*
X77071428Y-55392438D02*
X76976190Y-55344819D01*
X76976190Y-55344819D02*
X76785714Y-55344819D01*
X76785714Y-55344819D02*
X76690476Y-55392438D01*
X76690476Y-55392438D02*
X76642857Y-55440057D01*
X76642857Y-55440057D02*
X76595238Y-55535295D01*
X76595238Y-55535295D02*
X76595238Y-55773390D01*
X76595238Y-55773390D02*
X76642857Y-55868628D01*
X76642857Y-55868628D02*
X76690476Y-55916247D01*
X76690476Y-55916247D02*
X76785714Y-55963866D01*
X76785714Y-55963866D02*
X76976190Y-55963866D01*
X76976190Y-55963866D02*
X77071428Y-55916247D01*
X77071428Y-55916247D02*
X77119047Y-55868628D01*
X77119047Y-55868628D02*
X77166666Y-55773390D01*
X82833333Y-74629580D02*
X82785714Y-74677200D01*
X82785714Y-74677200D02*
X82642857Y-74724819D01*
X82642857Y-74724819D02*
X82547619Y-74724819D01*
X82547619Y-74724819D02*
X82404762Y-74677200D01*
X82404762Y-74677200D02*
X82309524Y-74581961D01*
X82309524Y-74581961D02*
X82261905Y-74486723D01*
X82261905Y-74486723D02*
X82214286Y-74296247D01*
X82214286Y-74296247D02*
X82214286Y-74153390D01*
X82214286Y-74153390D02*
X82261905Y-73962914D01*
X82261905Y-73962914D02*
X82309524Y-73867676D01*
X82309524Y-73867676D02*
X82404762Y-73772438D01*
X82404762Y-73772438D02*
X82547619Y-73724819D01*
X82547619Y-73724819D02*
X82642857Y-73724819D01*
X82642857Y-73724819D02*
X82785714Y-73772438D01*
X82785714Y-73772438D02*
X82833333Y-73820057D01*
X83785714Y-74724819D02*
X83214286Y-74724819D01*
X83500000Y-74724819D02*
X83500000Y-73724819D01*
X83500000Y-73724819D02*
X83404762Y-73867676D01*
X83404762Y-73867676D02*
X83309524Y-73962914D01*
X83309524Y-73962914D02*
X83214286Y-74010533D01*
X110454819Y-86230357D02*
X109978628Y-86563690D01*
X110454819Y-86801785D02*
X109454819Y-86801785D01*
X109454819Y-86801785D02*
X109454819Y-86420833D01*
X109454819Y-86420833D02*
X109502438Y-86325595D01*
X109502438Y-86325595D02*
X109550057Y-86277976D01*
X109550057Y-86277976D02*
X109645295Y-86230357D01*
X109645295Y-86230357D02*
X109788152Y-86230357D01*
X109788152Y-86230357D02*
X109883390Y-86277976D01*
X109883390Y-86277976D02*
X109931009Y-86325595D01*
X109931009Y-86325595D02*
X109978628Y-86420833D01*
X109978628Y-86420833D02*
X109978628Y-86801785D01*
X110454819Y-85277976D02*
X110454819Y-85849404D01*
X110454819Y-85563690D02*
X109454819Y-85563690D01*
X109454819Y-85563690D02*
X109597676Y-85658928D01*
X109597676Y-85658928D02*
X109692914Y-85754166D01*
X109692914Y-85754166D02*
X109740533Y-85849404D01*
X109454819Y-84944642D02*
X109454819Y-84277976D01*
X109454819Y-84277976D02*
X110454819Y-84706547D01*
X104359580Y-53142857D02*
X104407200Y-53190476D01*
X104407200Y-53190476D02*
X104454819Y-53333333D01*
X104454819Y-53333333D02*
X104454819Y-53428571D01*
X104454819Y-53428571D02*
X104407200Y-53571428D01*
X104407200Y-53571428D02*
X104311961Y-53666666D01*
X104311961Y-53666666D02*
X104216723Y-53714285D01*
X104216723Y-53714285D02*
X104026247Y-53761904D01*
X104026247Y-53761904D02*
X103883390Y-53761904D01*
X103883390Y-53761904D02*
X103692914Y-53714285D01*
X103692914Y-53714285D02*
X103597676Y-53666666D01*
X103597676Y-53666666D02*
X103502438Y-53571428D01*
X103502438Y-53571428D02*
X103454819Y-53428571D01*
X103454819Y-53428571D02*
X103454819Y-53333333D01*
X103454819Y-53333333D02*
X103502438Y-53190476D01*
X103502438Y-53190476D02*
X103550057Y-53142857D01*
X104454819Y-52190476D02*
X104454819Y-52761904D01*
X104454819Y-52476190D02*
X103454819Y-52476190D01*
X103454819Y-52476190D02*
X103597676Y-52571428D01*
X103597676Y-52571428D02*
X103692914Y-52666666D01*
X103692914Y-52666666D02*
X103740533Y-52761904D01*
X103883390Y-51619047D02*
X103835771Y-51714285D01*
X103835771Y-51714285D02*
X103788152Y-51761904D01*
X103788152Y-51761904D02*
X103692914Y-51809523D01*
X103692914Y-51809523D02*
X103645295Y-51809523D01*
X103645295Y-51809523D02*
X103550057Y-51761904D01*
X103550057Y-51761904D02*
X103502438Y-51714285D01*
X103502438Y-51714285D02*
X103454819Y-51619047D01*
X103454819Y-51619047D02*
X103454819Y-51428571D01*
X103454819Y-51428571D02*
X103502438Y-51333333D01*
X103502438Y-51333333D02*
X103550057Y-51285714D01*
X103550057Y-51285714D02*
X103645295Y-51238095D01*
X103645295Y-51238095D02*
X103692914Y-51238095D01*
X103692914Y-51238095D02*
X103788152Y-51285714D01*
X103788152Y-51285714D02*
X103835771Y-51333333D01*
X103835771Y-51333333D02*
X103883390Y-51428571D01*
X103883390Y-51428571D02*
X103883390Y-51619047D01*
X103883390Y-51619047D02*
X103931009Y-51714285D01*
X103931009Y-51714285D02*
X103978628Y-51761904D01*
X103978628Y-51761904D02*
X104073866Y-51809523D01*
X104073866Y-51809523D02*
X104264342Y-51809523D01*
X104264342Y-51809523D02*
X104359580Y-51761904D01*
X104359580Y-51761904D02*
X104407200Y-51714285D01*
X104407200Y-51714285D02*
X104454819Y-51619047D01*
X104454819Y-51619047D02*
X104454819Y-51428571D01*
X104454819Y-51428571D02*
X104407200Y-51333333D01*
X104407200Y-51333333D02*
X104359580Y-51285714D01*
X104359580Y-51285714D02*
X104264342Y-51238095D01*
X104264342Y-51238095D02*
X104073866Y-51238095D01*
X104073866Y-51238095D02*
X103978628Y-51285714D01*
X103978628Y-51285714D02*
X103931009Y-51333333D01*
X103931009Y-51333333D02*
X103883390Y-51428571D01*
X119857142Y-92954819D02*
X119523809Y-92478628D01*
X119285714Y-92954819D02*
X119285714Y-91954819D01*
X119285714Y-91954819D02*
X119666666Y-91954819D01*
X119666666Y-91954819D02*
X119761904Y-92002438D01*
X119761904Y-92002438D02*
X119809523Y-92050057D01*
X119809523Y-92050057D02*
X119857142Y-92145295D01*
X119857142Y-92145295D02*
X119857142Y-92288152D01*
X119857142Y-92288152D02*
X119809523Y-92383390D01*
X119809523Y-92383390D02*
X119761904Y-92431009D01*
X119761904Y-92431009D02*
X119666666Y-92478628D01*
X119666666Y-92478628D02*
X119285714Y-92478628D01*
X120809523Y-92954819D02*
X120238095Y-92954819D01*
X120523809Y-92954819D02*
X120523809Y-91954819D01*
X120523809Y-91954819D02*
X120428571Y-92097676D01*
X120428571Y-92097676D02*
X120333333Y-92192914D01*
X120333333Y-92192914D02*
X120238095Y-92240533D01*
X121666666Y-92288152D02*
X121666666Y-92954819D01*
X121428571Y-91907200D02*
X121190476Y-92621485D01*
X121190476Y-92621485D02*
X121809523Y-92621485D01*
X116713095Y-88924819D02*
X116713095Y-89734342D01*
X116713095Y-89734342D02*
X116760714Y-89829580D01*
X116760714Y-89829580D02*
X116808333Y-89877200D01*
X116808333Y-89877200D02*
X116903571Y-89924819D01*
X116903571Y-89924819D02*
X117094047Y-89924819D01*
X117094047Y-89924819D02*
X117189285Y-89877200D01*
X117189285Y-89877200D02*
X117236904Y-89829580D01*
X117236904Y-89829580D02*
X117284523Y-89734342D01*
X117284523Y-89734342D02*
X117284523Y-88924819D01*
X117903571Y-89353390D02*
X117808333Y-89305771D01*
X117808333Y-89305771D02*
X117760714Y-89258152D01*
X117760714Y-89258152D02*
X117713095Y-89162914D01*
X117713095Y-89162914D02*
X117713095Y-89115295D01*
X117713095Y-89115295D02*
X117760714Y-89020057D01*
X117760714Y-89020057D02*
X117808333Y-88972438D01*
X117808333Y-88972438D02*
X117903571Y-88924819D01*
X117903571Y-88924819D02*
X118094047Y-88924819D01*
X118094047Y-88924819D02*
X118189285Y-88972438D01*
X118189285Y-88972438D02*
X118236904Y-89020057D01*
X118236904Y-89020057D02*
X118284523Y-89115295D01*
X118284523Y-89115295D02*
X118284523Y-89162914D01*
X118284523Y-89162914D02*
X118236904Y-89258152D01*
X118236904Y-89258152D02*
X118189285Y-89305771D01*
X118189285Y-89305771D02*
X118094047Y-89353390D01*
X118094047Y-89353390D02*
X117903571Y-89353390D01*
X117903571Y-89353390D02*
X117808333Y-89401009D01*
X117808333Y-89401009D02*
X117760714Y-89448628D01*
X117760714Y-89448628D02*
X117713095Y-89543866D01*
X117713095Y-89543866D02*
X117713095Y-89734342D01*
X117713095Y-89734342D02*
X117760714Y-89829580D01*
X117760714Y-89829580D02*
X117808333Y-89877200D01*
X117808333Y-89877200D02*
X117903571Y-89924819D01*
X117903571Y-89924819D02*
X118094047Y-89924819D01*
X118094047Y-89924819D02*
X118189285Y-89877200D01*
X118189285Y-89877200D02*
X118236904Y-89829580D01*
X118236904Y-89829580D02*
X118284523Y-89734342D01*
X118284523Y-89734342D02*
X118284523Y-89543866D01*
X118284523Y-89543866D02*
X118236904Y-89448628D01*
X118236904Y-89448628D02*
X118189285Y-89401009D01*
X118189285Y-89401009D02*
X118094047Y-89353390D01*
X120089642Y-42179819D02*
X119756309Y-41703628D01*
X119518214Y-42179819D02*
X119518214Y-41179819D01*
X119518214Y-41179819D02*
X119899166Y-41179819D01*
X119899166Y-41179819D02*
X119994404Y-41227438D01*
X119994404Y-41227438D02*
X120042023Y-41275057D01*
X120042023Y-41275057D02*
X120089642Y-41370295D01*
X120089642Y-41370295D02*
X120089642Y-41513152D01*
X120089642Y-41513152D02*
X120042023Y-41608390D01*
X120042023Y-41608390D02*
X119994404Y-41656009D01*
X119994404Y-41656009D02*
X119899166Y-41703628D01*
X119899166Y-41703628D02*
X119518214Y-41703628D01*
X120470595Y-41275057D02*
X120518214Y-41227438D01*
X120518214Y-41227438D02*
X120613452Y-41179819D01*
X120613452Y-41179819D02*
X120851547Y-41179819D01*
X120851547Y-41179819D02*
X120946785Y-41227438D01*
X120946785Y-41227438D02*
X120994404Y-41275057D01*
X120994404Y-41275057D02*
X121042023Y-41370295D01*
X121042023Y-41370295D02*
X121042023Y-41465533D01*
X121042023Y-41465533D02*
X120994404Y-41608390D01*
X120994404Y-41608390D02*
X120422976Y-42179819D01*
X120422976Y-42179819D02*
X121042023Y-42179819D01*
X121518214Y-42179819D02*
X121708690Y-42179819D01*
X121708690Y-42179819D02*
X121803928Y-42132200D01*
X121803928Y-42132200D02*
X121851547Y-42084580D01*
X121851547Y-42084580D02*
X121946785Y-41941723D01*
X121946785Y-41941723D02*
X121994404Y-41751247D01*
X121994404Y-41751247D02*
X121994404Y-41370295D01*
X121994404Y-41370295D02*
X121946785Y-41275057D01*
X121946785Y-41275057D02*
X121899166Y-41227438D01*
X121899166Y-41227438D02*
X121803928Y-41179819D01*
X121803928Y-41179819D02*
X121613452Y-41179819D01*
X121613452Y-41179819D02*
X121518214Y-41227438D01*
X121518214Y-41227438D02*
X121470595Y-41275057D01*
X121470595Y-41275057D02*
X121422976Y-41370295D01*
X121422976Y-41370295D02*
X121422976Y-41608390D01*
X121422976Y-41608390D02*
X121470595Y-41703628D01*
X121470595Y-41703628D02*
X121518214Y-41751247D01*
X121518214Y-41751247D02*
X121613452Y-41798866D01*
X121613452Y-41798866D02*
X121803928Y-41798866D01*
X121803928Y-41798866D02*
X121899166Y-41751247D01*
X121899166Y-41751247D02*
X121946785Y-41703628D01*
X121946785Y-41703628D02*
X121994404Y-41608390D01*
X108359580Y-53142857D02*
X108407200Y-53190476D01*
X108407200Y-53190476D02*
X108454819Y-53333333D01*
X108454819Y-53333333D02*
X108454819Y-53428571D01*
X108454819Y-53428571D02*
X108407200Y-53571428D01*
X108407200Y-53571428D02*
X108311961Y-53666666D01*
X108311961Y-53666666D02*
X108216723Y-53714285D01*
X108216723Y-53714285D02*
X108026247Y-53761904D01*
X108026247Y-53761904D02*
X107883390Y-53761904D01*
X107883390Y-53761904D02*
X107692914Y-53714285D01*
X107692914Y-53714285D02*
X107597676Y-53666666D01*
X107597676Y-53666666D02*
X107502438Y-53571428D01*
X107502438Y-53571428D02*
X107454819Y-53428571D01*
X107454819Y-53428571D02*
X107454819Y-53333333D01*
X107454819Y-53333333D02*
X107502438Y-53190476D01*
X107502438Y-53190476D02*
X107550057Y-53142857D01*
X108454819Y-52190476D02*
X108454819Y-52761904D01*
X108454819Y-52476190D02*
X107454819Y-52476190D01*
X107454819Y-52476190D02*
X107597676Y-52571428D01*
X107597676Y-52571428D02*
X107692914Y-52666666D01*
X107692914Y-52666666D02*
X107740533Y-52761904D01*
X107788152Y-51333333D02*
X108454819Y-51333333D01*
X107407200Y-51571428D02*
X108121485Y-51809523D01*
X108121485Y-51809523D02*
X108121485Y-51190476D01*
X99789580Y-74304166D02*
X99837200Y-74351785D01*
X99837200Y-74351785D02*
X99884819Y-74494642D01*
X99884819Y-74494642D02*
X99884819Y-74589880D01*
X99884819Y-74589880D02*
X99837200Y-74732737D01*
X99837200Y-74732737D02*
X99741961Y-74827975D01*
X99741961Y-74827975D02*
X99646723Y-74875594D01*
X99646723Y-74875594D02*
X99456247Y-74923213D01*
X99456247Y-74923213D02*
X99313390Y-74923213D01*
X99313390Y-74923213D02*
X99122914Y-74875594D01*
X99122914Y-74875594D02*
X99027676Y-74827975D01*
X99027676Y-74827975D02*
X98932438Y-74732737D01*
X98932438Y-74732737D02*
X98884819Y-74589880D01*
X98884819Y-74589880D02*
X98884819Y-74494642D01*
X98884819Y-74494642D02*
X98932438Y-74351785D01*
X98932438Y-74351785D02*
X98980057Y-74304166D01*
X98884819Y-73970832D02*
X98884819Y-73304166D01*
X98884819Y-73304166D02*
X99884819Y-73732737D01*
X93954819Y-71867857D02*
X93478628Y-72201190D01*
X93954819Y-72439285D02*
X92954819Y-72439285D01*
X92954819Y-72439285D02*
X92954819Y-72058333D01*
X92954819Y-72058333D02*
X93002438Y-71963095D01*
X93002438Y-71963095D02*
X93050057Y-71915476D01*
X93050057Y-71915476D02*
X93145295Y-71867857D01*
X93145295Y-71867857D02*
X93288152Y-71867857D01*
X93288152Y-71867857D02*
X93383390Y-71915476D01*
X93383390Y-71915476D02*
X93431009Y-71963095D01*
X93431009Y-71963095D02*
X93478628Y-72058333D01*
X93478628Y-72058333D02*
X93478628Y-72439285D01*
X93954819Y-70915476D02*
X93954819Y-71486904D01*
X93954819Y-71201190D02*
X92954819Y-71201190D01*
X92954819Y-71201190D02*
X93097676Y-71296428D01*
X93097676Y-71296428D02*
X93192914Y-71391666D01*
X93192914Y-71391666D02*
X93240533Y-71486904D01*
X93050057Y-70534523D02*
X93002438Y-70486904D01*
X93002438Y-70486904D02*
X92954819Y-70391666D01*
X92954819Y-70391666D02*
X92954819Y-70153571D01*
X92954819Y-70153571D02*
X93002438Y-70058333D01*
X93002438Y-70058333D02*
X93050057Y-70010714D01*
X93050057Y-70010714D02*
X93145295Y-69963095D01*
X93145295Y-69963095D02*
X93240533Y-69963095D01*
X93240533Y-69963095D02*
X93383390Y-70010714D01*
X93383390Y-70010714D02*
X93954819Y-70582142D01*
X93954819Y-70582142D02*
X93954819Y-69963095D01*
X101333333Y-47454819D02*
X101000000Y-46978628D01*
X100761905Y-47454819D02*
X100761905Y-46454819D01*
X100761905Y-46454819D02*
X101142857Y-46454819D01*
X101142857Y-46454819D02*
X101238095Y-46502438D01*
X101238095Y-46502438D02*
X101285714Y-46550057D01*
X101285714Y-46550057D02*
X101333333Y-46645295D01*
X101333333Y-46645295D02*
X101333333Y-46788152D01*
X101333333Y-46788152D02*
X101285714Y-46883390D01*
X101285714Y-46883390D02*
X101238095Y-46931009D01*
X101238095Y-46931009D02*
X101142857Y-46978628D01*
X101142857Y-46978628D02*
X100761905Y-46978628D01*
X102190476Y-46454819D02*
X102000000Y-46454819D01*
X102000000Y-46454819D02*
X101904762Y-46502438D01*
X101904762Y-46502438D02*
X101857143Y-46550057D01*
X101857143Y-46550057D02*
X101761905Y-46692914D01*
X101761905Y-46692914D02*
X101714286Y-46883390D01*
X101714286Y-46883390D02*
X101714286Y-47264342D01*
X101714286Y-47264342D02*
X101761905Y-47359580D01*
X101761905Y-47359580D02*
X101809524Y-47407200D01*
X101809524Y-47407200D02*
X101904762Y-47454819D01*
X101904762Y-47454819D02*
X102095238Y-47454819D01*
X102095238Y-47454819D02*
X102190476Y-47407200D01*
X102190476Y-47407200D02*
X102238095Y-47359580D01*
X102238095Y-47359580D02*
X102285714Y-47264342D01*
X102285714Y-47264342D02*
X102285714Y-47026247D01*
X102285714Y-47026247D02*
X102238095Y-46931009D01*
X102238095Y-46931009D02*
X102190476Y-46883390D01*
X102190476Y-46883390D02*
X102095238Y-46835771D01*
X102095238Y-46835771D02*
X101904762Y-46835771D01*
X101904762Y-46835771D02*
X101809524Y-46883390D01*
X101809524Y-46883390D02*
X101761905Y-46931009D01*
X101761905Y-46931009D02*
X101714286Y-47026247D01*
X133523809Y-83978628D02*
X133523809Y-84454819D01*
X133190476Y-83454819D02*
X133523809Y-83978628D01*
X133523809Y-83978628D02*
X133857142Y-83454819D01*
X134714285Y-84454819D02*
X134142857Y-84454819D01*
X134428571Y-84454819D02*
X134428571Y-83454819D01*
X134428571Y-83454819D02*
X134333333Y-83597676D01*
X134333333Y-83597676D02*
X134238095Y-83692914D01*
X134238095Y-83692914D02*
X134142857Y-83740533D01*
X111693095Y-57854819D02*
X111693095Y-58664342D01*
X111693095Y-58664342D02*
X111740714Y-58759580D01*
X111740714Y-58759580D02*
X111788333Y-58807200D01*
X111788333Y-58807200D02*
X111883571Y-58854819D01*
X111883571Y-58854819D02*
X112074047Y-58854819D01*
X112074047Y-58854819D02*
X112169285Y-58807200D01*
X112169285Y-58807200D02*
X112216904Y-58759580D01*
X112216904Y-58759580D02*
X112264523Y-58664342D01*
X112264523Y-58664342D02*
X112264523Y-57854819D01*
X112788333Y-58854819D02*
X112978809Y-58854819D01*
X112978809Y-58854819D02*
X113074047Y-58807200D01*
X113074047Y-58807200D02*
X113121666Y-58759580D01*
X113121666Y-58759580D02*
X113216904Y-58616723D01*
X113216904Y-58616723D02*
X113264523Y-58426247D01*
X113264523Y-58426247D02*
X113264523Y-58045295D01*
X113264523Y-58045295D02*
X113216904Y-57950057D01*
X113216904Y-57950057D02*
X113169285Y-57902438D01*
X113169285Y-57902438D02*
X113074047Y-57854819D01*
X113074047Y-57854819D02*
X112883571Y-57854819D01*
X112883571Y-57854819D02*
X112788333Y-57902438D01*
X112788333Y-57902438D02*
X112740714Y-57950057D01*
X112740714Y-57950057D02*
X112693095Y-58045295D01*
X112693095Y-58045295D02*
X112693095Y-58283390D01*
X112693095Y-58283390D02*
X112740714Y-58378628D01*
X112740714Y-58378628D02*
X112788333Y-58426247D01*
X112788333Y-58426247D02*
X112883571Y-58473866D01*
X112883571Y-58473866D02*
X113074047Y-58473866D01*
X113074047Y-58473866D02*
X113169285Y-58426247D01*
X113169285Y-58426247D02*
X113216904Y-58378628D01*
X113216904Y-58378628D02*
X113264523Y-58283390D01*
X52559642Y-43204580D02*
X52512023Y-43252200D01*
X52512023Y-43252200D02*
X52369166Y-43299819D01*
X52369166Y-43299819D02*
X52273928Y-43299819D01*
X52273928Y-43299819D02*
X52131071Y-43252200D01*
X52131071Y-43252200D02*
X52035833Y-43156961D01*
X52035833Y-43156961D02*
X51988214Y-43061723D01*
X51988214Y-43061723D02*
X51940595Y-42871247D01*
X51940595Y-42871247D02*
X51940595Y-42728390D01*
X51940595Y-42728390D02*
X51988214Y-42537914D01*
X51988214Y-42537914D02*
X52035833Y-42442676D01*
X52035833Y-42442676D02*
X52131071Y-42347438D01*
X52131071Y-42347438D02*
X52273928Y-42299819D01*
X52273928Y-42299819D02*
X52369166Y-42299819D01*
X52369166Y-42299819D02*
X52512023Y-42347438D01*
X52512023Y-42347438D02*
X52559642Y-42395057D01*
X52940595Y-42395057D02*
X52988214Y-42347438D01*
X52988214Y-42347438D02*
X53083452Y-42299819D01*
X53083452Y-42299819D02*
X53321547Y-42299819D01*
X53321547Y-42299819D02*
X53416785Y-42347438D01*
X53416785Y-42347438D02*
X53464404Y-42395057D01*
X53464404Y-42395057D02*
X53512023Y-42490295D01*
X53512023Y-42490295D02*
X53512023Y-42585533D01*
X53512023Y-42585533D02*
X53464404Y-42728390D01*
X53464404Y-42728390D02*
X52892976Y-43299819D01*
X52892976Y-43299819D02*
X53512023Y-43299819D01*
X53892976Y-42395057D02*
X53940595Y-42347438D01*
X53940595Y-42347438D02*
X54035833Y-42299819D01*
X54035833Y-42299819D02*
X54273928Y-42299819D01*
X54273928Y-42299819D02*
X54369166Y-42347438D01*
X54369166Y-42347438D02*
X54416785Y-42395057D01*
X54416785Y-42395057D02*
X54464404Y-42490295D01*
X54464404Y-42490295D02*
X54464404Y-42585533D01*
X54464404Y-42585533D02*
X54416785Y-42728390D01*
X54416785Y-42728390D02*
X53845357Y-43299819D01*
X53845357Y-43299819D02*
X54464404Y-43299819D01*
X103454819Y-84555357D02*
X102978628Y-84888690D01*
X103454819Y-85126785D02*
X102454819Y-85126785D01*
X102454819Y-85126785D02*
X102454819Y-84745833D01*
X102454819Y-84745833D02*
X102502438Y-84650595D01*
X102502438Y-84650595D02*
X102550057Y-84602976D01*
X102550057Y-84602976D02*
X102645295Y-84555357D01*
X102645295Y-84555357D02*
X102788152Y-84555357D01*
X102788152Y-84555357D02*
X102883390Y-84602976D01*
X102883390Y-84602976D02*
X102931009Y-84650595D01*
X102931009Y-84650595D02*
X102978628Y-84745833D01*
X102978628Y-84745833D02*
X102978628Y-85126785D01*
X102550057Y-84174404D02*
X102502438Y-84126785D01*
X102502438Y-84126785D02*
X102454819Y-84031547D01*
X102454819Y-84031547D02*
X102454819Y-83793452D01*
X102454819Y-83793452D02*
X102502438Y-83698214D01*
X102502438Y-83698214D02*
X102550057Y-83650595D01*
X102550057Y-83650595D02*
X102645295Y-83602976D01*
X102645295Y-83602976D02*
X102740533Y-83602976D01*
X102740533Y-83602976D02*
X102883390Y-83650595D01*
X102883390Y-83650595D02*
X103454819Y-84222023D01*
X103454819Y-84222023D02*
X103454819Y-83602976D01*
X103454819Y-82650595D02*
X103454819Y-83222023D01*
X103454819Y-82936309D02*
X102454819Y-82936309D01*
X102454819Y-82936309D02*
X102597676Y-83031547D01*
X102597676Y-83031547D02*
X102692914Y-83126785D01*
X102692914Y-83126785D02*
X102740533Y-83222023D01*
X106769642Y-48954819D02*
X106436309Y-48478628D01*
X106198214Y-48954819D02*
X106198214Y-47954819D01*
X106198214Y-47954819D02*
X106579166Y-47954819D01*
X106579166Y-47954819D02*
X106674404Y-48002438D01*
X106674404Y-48002438D02*
X106722023Y-48050057D01*
X106722023Y-48050057D02*
X106769642Y-48145295D01*
X106769642Y-48145295D02*
X106769642Y-48288152D01*
X106769642Y-48288152D02*
X106722023Y-48383390D01*
X106722023Y-48383390D02*
X106674404Y-48431009D01*
X106674404Y-48431009D02*
X106579166Y-48478628D01*
X106579166Y-48478628D02*
X106198214Y-48478628D01*
X107150595Y-48050057D02*
X107198214Y-48002438D01*
X107198214Y-48002438D02*
X107293452Y-47954819D01*
X107293452Y-47954819D02*
X107531547Y-47954819D01*
X107531547Y-47954819D02*
X107626785Y-48002438D01*
X107626785Y-48002438D02*
X107674404Y-48050057D01*
X107674404Y-48050057D02*
X107722023Y-48145295D01*
X107722023Y-48145295D02*
X107722023Y-48240533D01*
X107722023Y-48240533D02*
X107674404Y-48383390D01*
X107674404Y-48383390D02*
X107102976Y-48954819D01*
X107102976Y-48954819D02*
X107722023Y-48954819D01*
X108055357Y-47954819D02*
X108674404Y-47954819D01*
X108674404Y-47954819D02*
X108341071Y-48335771D01*
X108341071Y-48335771D02*
X108483928Y-48335771D01*
X108483928Y-48335771D02*
X108579166Y-48383390D01*
X108579166Y-48383390D02*
X108626785Y-48431009D01*
X108626785Y-48431009D02*
X108674404Y-48526247D01*
X108674404Y-48526247D02*
X108674404Y-48764342D01*
X108674404Y-48764342D02*
X108626785Y-48859580D01*
X108626785Y-48859580D02*
X108579166Y-48907200D01*
X108579166Y-48907200D02*
X108483928Y-48954819D01*
X108483928Y-48954819D02*
X108198214Y-48954819D01*
X108198214Y-48954819D02*
X108102976Y-48907200D01*
X108102976Y-48907200D02*
X108055357Y-48859580D01*
X74713095Y-74759819D02*
X74713095Y-75569342D01*
X74713095Y-75569342D02*
X74760714Y-75664580D01*
X74760714Y-75664580D02*
X74808333Y-75712200D01*
X74808333Y-75712200D02*
X74903571Y-75759819D01*
X74903571Y-75759819D02*
X75094047Y-75759819D01*
X75094047Y-75759819D02*
X75189285Y-75712200D01*
X75189285Y-75712200D02*
X75236904Y-75664580D01*
X75236904Y-75664580D02*
X75284523Y-75569342D01*
X75284523Y-75569342D02*
X75284523Y-74759819D01*
X75713095Y-74855057D02*
X75760714Y-74807438D01*
X75760714Y-74807438D02*
X75855952Y-74759819D01*
X75855952Y-74759819D02*
X76094047Y-74759819D01*
X76094047Y-74759819D02*
X76189285Y-74807438D01*
X76189285Y-74807438D02*
X76236904Y-74855057D01*
X76236904Y-74855057D02*
X76284523Y-74950295D01*
X76284523Y-74950295D02*
X76284523Y-75045533D01*
X76284523Y-75045533D02*
X76236904Y-75188390D01*
X76236904Y-75188390D02*
X75665476Y-75759819D01*
X75665476Y-75759819D02*
X76284523Y-75759819D01*
X110861905Y-42579819D02*
X110861905Y-43389342D01*
X110861905Y-43389342D02*
X110909524Y-43484580D01*
X110909524Y-43484580D02*
X110957143Y-43532200D01*
X110957143Y-43532200D02*
X111052381Y-43579819D01*
X111052381Y-43579819D02*
X111242857Y-43579819D01*
X111242857Y-43579819D02*
X111338095Y-43532200D01*
X111338095Y-43532200D02*
X111385714Y-43484580D01*
X111385714Y-43484580D02*
X111433333Y-43389342D01*
X111433333Y-43389342D02*
X111433333Y-42579819D01*
X112433333Y-43579819D02*
X111861905Y-43579819D01*
X112147619Y-43579819D02*
X112147619Y-42579819D01*
X112147619Y-42579819D02*
X112052381Y-42722676D01*
X112052381Y-42722676D02*
X111957143Y-42817914D01*
X111957143Y-42817914D02*
X111861905Y-42865533D01*
X113385714Y-43579819D02*
X112814286Y-43579819D01*
X113100000Y-43579819D02*
X113100000Y-42579819D01*
X113100000Y-42579819D02*
X113004762Y-42722676D01*
X113004762Y-42722676D02*
X112909524Y-42817914D01*
X112909524Y-42817914D02*
X112814286Y-42865533D01*
X122454819Y-37438094D02*
X121454819Y-37438094D01*
X121454819Y-37438094D02*
X121454819Y-37199999D01*
X121454819Y-37199999D02*
X121502438Y-37057142D01*
X121502438Y-37057142D02*
X121597676Y-36961904D01*
X121597676Y-36961904D02*
X121692914Y-36914285D01*
X121692914Y-36914285D02*
X121883390Y-36866666D01*
X121883390Y-36866666D02*
X122026247Y-36866666D01*
X122026247Y-36866666D02*
X122216723Y-36914285D01*
X122216723Y-36914285D02*
X122311961Y-36961904D01*
X122311961Y-36961904D02*
X122407200Y-37057142D01*
X122407200Y-37057142D02*
X122454819Y-37199999D01*
X122454819Y-37199999D02*
X122454819Y-37438094D01*
X121454819Y-36533332D02*
X121454819Y-35866666D01*
X121454819Y-35866666D02*
X122454819Y-36295237D01*
X88929580Y-77529166D02*
X88977200Y-77576785D01*
X88977200Y-77576785D02*
X89024819Y-77719642D01*
X89024819Y-77719642D02*
X89024819Y-77814880D01*
X89024819Y-77814880D02*
X88977200Y-77957737D01*
X88977200Y-77957737D02*
X88881961Y-78052975D01*
X88881961Y-78052975D02*
X88786723Y-78100594D01*
X88786723Y-78100594D02*
X88596247Y-78148213D01*
X88596247Y-78148213D02*
X88453390Y-78148213D01*
X88453390Y-78148213D02*
X88262914Y-78100594D01*
X88262914Y-78100594D02*
X88167676Y-78052975D01*
X88167676Y-78052975D02*
X88072438Y-77957737D01*
X88072438Y-77957737D02*
X88024819Y-77814880D01*
X88024819Y-77814880D02*
X88024819Y-77719642D01*
X88024819Y-77719642D02*
X88072438Y-77576785D01*
X88072438Y-77576785D02*
X88120057Y-77529166D01*
X88024819Y-76624404D02*
X88024819Y-77100594D01*
X88024819Y-77100594D02*
X88501009Y-77148213D01*
X88501009Y-77148213D02*
X88453390Y-77100594D01*
X88453390Y-77100594D02*
X88405771Y-77005356D01*
X88405771Y-77005356D02*
X88405771Y-76767261D01*
X88405771Y-76767261D02*
X88453390Y-76672023D01*
X88453390Y-76672023D02*
X88501009Y-76624404D01*
X88501009Y-76624404D02*
X88596247Y-76576785D01*
X88596247Y-76576785D02*
X88834342Y-76576785D01*
X88834342Y-76576785D02*
X88929580Y-76624404D01*
X88929580Y-76624404D02*
X88977200Y-76672023D01*
X88977200Y-76672023D02*
X89024819Y-76767261D01*
X89024819Y-76767261D02*
X89024819Y-77005356D01*
X89024819Y-77005356D02*
X88977200Y-77100594D01*
X88977200Y-77100594D02*
X88929580Y-77148213D01*
D14*
%TO.C,R25*%
X104745276Y-62477500D02*
X105254724Y-62477500D01*
X104745276Y-63522500D02*
X105254724Y-63522500D01*
%TO.C,R27*%
X117600276Y-56477500D02*
X118109724Y-56477500D01*
X117600276Y-57522500D02*
X118109724Y-57522500D01*
%TO.C,D4*%
X48990000Y-80360000D02*
X48990000Y-76600000D01*
X48990000Y-80360000D02*
X51010000Y-80360000D01*
X51010000Y-80360000D02*
X51010000Y-76600000D01*
%TO.C,R7*%
X69427500Y-72602776D02*
X69427500Y-73112224D01*
X70472500Y-72602776D02*
X70472500Y-73112224D01*
%TO.C,C27*%
X52283767Y-34990000D02*
X51991233Y-34990000D01*
X52283767Y-36010000D02*
X51991233Y-36010000D01*
%TO.C,R3*%
X111667224Y-44477500D02*
X111157776Y-44477500D01*
X111667224Y-45522500D02*
X111157776Y-45522500D01*
%TO.C,C19*%
X101990000Y-36853733D02*
X101990000Y-37146267D01*
X103010000Y-36853733D02*
X103010000Y-37146267D01*
%TO.C,TP3*%
X49265000Y-82755000D02*
X49265000Y-82814435D01*
X49265000Y-82755000D02*
X49265000Y-84245000D01*
X49265000Y-82755000D02*
X49390000Y-82755000D01*
X49265000Y-84185565D02*
X49265000Y-84245000D01*
X49265000Y-84245000D02*
X49390000Y-84245000D01*
X50000000Y-82755000D02*
X50735000Y-82755000D01*
X50735000Y-82755000D02*
X50735000Y-83500000D01*
%TO.C,C12*%
X112283767Y-90490000D02*
X111991233Y-90490000D01*
X112283767Y-91510000D02*
X111991233Y-91510000D01*
%TO.C,C24*%
X73990000Y-48491233D02*
X73990000Y-48783767D01*
X75010000Y-48491233D02*
X75010000Y-48783767D01*
%TO.C,U1*%
X75890000Y-37255000D02*
X75890000Y-37589970D01*
X75890000Y-38410030D02*
X75890000Y-38745000D01*
X75890000Y-52495000D02*
X75890000Y-52829970D01*
X75890000Y-53650030D02*
X75890000Y-53985000D01*
X94765000Y-37255000D02*
X75890000Y-37255000D01*
X94765000Y-37255000D02*
X94765000Y-37314435D01*
X94765000Y-38685565D02*
X94765000Y-38745000D01*
X94765000Y-38745000D02*
X75890000Y-38745000D01*
X94765000Y-52495000D02*
X75890000Y-52495000D01*
X94765000Y-52495000D02*
X94765000Y-52554435D01*
X94765000Y-53925565D02*
X94765000Y-53985000D01*
X94765000Y-53985000D02*
X75890000Y-53985000D01*
X95500000Y-37255000D02*
X96235000Y-37255000D01*
X95500000Y-52495000D02*
X96235000Y-52495000D01*
X96235000Y-37255000D02*
X96235000Y-38000000D01*
X96235000Y-52495000D02*
X96235000Y-53240000D01*
%TO.C,R13*%
X105977500Y-69245276D02*
X105977500Y-69754724D01*
X107022500Y-69245276D02*
X107022500Y-69754724D01*
%TO.C,R15*%
X110477500Y-72745276D02*
X110477500Y-73254724D01*
X111522500Y-72745276D02*
X111522500Y-73254724D01*
%TO.C,U10*%
X109727500Y-62890000D02*
X111547500Y-62890000D01*
X109727500Y-62940000D02*
X109727500Y-62890000D01*
X109727500Y-66010000D02*
X109727500Y-65960000D01*
X111547500Y-62890000D02*
X111547500Y-62940000D01*
X111547500Y-65960000D02*
X111547500Y-66010000D01*
X111547500Y-66010000D02*
X109727500Y-66010000D01*
X112327500Y-66290000D02*
X111847500Y-66290000D01*
X112087500Y-65960000D01*
X112327500Y-66290000D01*
G36*
X112327500Y-66290000D02*
G01*
X111847500Y-66290000D01*
X112087500Y-65960000D01*
X112327500Y-66290000D01*
G37*
%TO.C,C23*%
X98353733Y-56490000D02*
X98646267Y-56490000D01*
X98353733Y-57510000D02*
X98646267Y-57510000D01*
%TO.C,C26*%
X51283767Y-57490000D02*
X50991233Y-57490000D01*
X51283767Y-58510000D02*
X50991233Y-58510000D01*
%TO.C,R28*%
X107109724Y-56477500D02*
X106600276Y-56477500D01*
X107109724Y-57522500D02*
X106600276Y-57522500D01*
%TO.C,C2*%
X58065000Y-42811233D02*
X58065000Y-43103767D01*
X59085000Y-42811233D02*
X59085000Y-43103767D01*
%TO.C,C25*%
X51146267Y-45490000D02*
X50853733Y-45490000D01*
X51146267Y-46510000D02*
X50853733Y-46510000D01*
%TO.C,U6*%
X69755000Y-48265000D02*
X69755000Y-41390000D01*
X69814435Y-48265000D02*
X69755000Y-48265000D01*
X70089970Y-41390000D02*
X69755000Y-41390000D01*
X71245000Y-41390000D02*
X70910030Y-41390000D01*
X71245000Y-48265000D02*
X71185565Y-48265000D01*
X71245000Y-48265000D02*
X71245000Y-41390000D01*
X71245000Y-49000000D02*
X71245000Y-49735000D01*
X71245000Y-49735000D02*
X70500000Y-49735000D01*
X48025000Y-62200000D02*
G75*
G02*
X44625000Y-62200000I-1700000J0D01*
G01*
X44625000Y-62200000D02*
G75*
G02*
X48025000Y-62200000I1700000J0D01*
G01*
X48075000Y-57825000D02*
G75*
G02*
X44675000Y-57825000I-1700000J0D01*
G01*
X44675000Y-57825000D02*
G75*
G02*
X48075000Y-57825000I1700000J0D01*
G01*
X48150000Y-40050000D02*
G75*
G02*
X44750000Y-40050000I-1700000J0D01*
G01*
X44750000Y-40050000D02*
G75*
G02*
X48150000Y-40050000I1700000J0D01*
G01*
X48150000Y-50500000D02*
G75*
G02*
X44750000Y-50500000I-1700000J0D01*
G01*
X44750000Y-50500000D02*
G75*
G02*
X48150000Y-50500000I1700000J0D01*
G01*
X48200000Y-35675000D02*
G75*
G02*
X44800000Y-35675000I-1700000J0D01*
G01*
X44800000Y-35675000D02*
G75*
G02*
X48200000Y-35675000I1700000J0D01*
G01*
X48200000Y-46125000D02*
G75*
G02*
X44800000Y-46125000I-1700000J0D01*
G01*
X44800000Y-46125000D02*
G75*
G02*
X48200000Y-46125000I1700000J0D01*
G01*
X69575000Y-62675000D02*
G75*
G02*
X66175000Y-62675000I-1700000J0D01*
G01*
X66175000Y-62675000D02*
G75*
G02*
X69575000Y-62675000I1700000J0D01*
G01*
X75700000Y-62750000D02*
G75*
G02*
X72300000Y-62750000I-1700000J0D01*
G01*
X72300000Y-62750000D02*
G75*
G02*
X75700000Y-62750000I1700000J0D01*
G01*
X81275000Y-62800000D02*
G75*
G02*
X77875000Y-62800000I-1700000J0D01*
G01*
X77875000Y-62800000D02*
G75*
G02*
X81275000Y-62800000I1700000J0D01*
G01*
%TO.C,D5*%
X122490000Y-46560000D02*
X122490000Y-42800000D01*
X122490000Y-46560000D02*
X124510000Y-46560000D01*
X124510000Y-46560000D02*
X124510000Y-42800000D01*
%TO.C,R10*%
X103477500Y-86754724D02*
X103477500Y-86245276D01*
X104522500Y-86754724D02*
X104522500Y-86245276D01*
%TO.C,D3*%
X48990000Y-69090000D02*
X48990000Y-72850000D01*
X51010000Y-69090000D02*
X48990000Y-69090000D01*
X51010000Y-69090000D02*
X51010000Y-72850000D01*
%TO.C,C15*%
X105990000Y-36853733D02*
X105990000Y-37146267D01*
X107010000Y-36853733D02*
X107010000Y-37146267D01*
%TO.C,C20*%
X117490000Y-52853733D02*
X117490000Y-53146267D01*
X118510000Y-52853733D02*
X118510000Y-53146267D01*
%TO.C,J3*%
X39240000Y-70890000D02*
X39240000Y-75000000D01*
X39240000Y-78660000D02*
X43250000Y-78660000D01*
X39240000Y-79110000D02*
X39240000Y-75000000D01*
X39950000Y-73000000D02*
X40200000Y-72750000D01*
X39950000Y-75000000D02*
X40200000Y-74750000D01*
X39950000Y-77000000D02*
X40200000Y-76750000D01*
X40200000Y-72750000D02*
X43250000Y-72750000D01*
X40200000Y-73250000D02*
X39950000Y-73000000D01*
X40200000Y-74750000D02*
X43250000Y-74750000D01*
X40200000Y-75250000D02*
X39950000Y-75000000D01*
X40200000Y-76750000D02*
X43250000Y-76750000D01*
X40200000Y-77250000D02*
X39950000Y-77000000D01*
X43250000Y-71340000D02*
X39240000Y-71340000D01*
X43250000Y-73250000D02*
X40200000Y-73250000D01*
X43250000Y-75250000D02*
X40200000Y-75250000D01*
X43250000Y-77250000D02*
X40200000Y-77250000D01*
X43250000Y-78660000D02*
X43250000Y-71340000D01*
X45350000Y-70890000D02*
X39240000Y-70890000D01*
X45350000Y-70990000D02*
X45350000Y-70890000D01*
X45350000Y-79010000D02*
X45350000Y-79110000D01*
X45350000Y-79110000D02*
X39240000Y-79110000D01*
X45850000Y-70990000D02*
X45350000Y-70990000D01*
X45850000Y-79010000D02*
X45350000Y-79010000D01*
X46510000Y-72700000D02*
X46760000Y-72500000D01*
X46510000Y-73300000D02*
X46510000Y-72700000D01*
X46510000Y-74700000D02*
X46760000Y-74500000D01*
X46510000Y-75300000D02*
X46510000Y-74700000D01*
X46510000Y-76700000D02*
X46760000Y-76500000D01*
X46510000Y-77300000D02*
X46510000Y-76700000D01*
X46510000Y-77300000D02*
X46760000Y-77500000D01*
X46760000Y-71490000D02*
X45850000Y-70990000D01*
X46760000Y-72500000D02*
X46760000Y-71490000D01*
X46760000Y-73500000D02*
X46510000Y-73300000D01*
X46760000Y-74500000D02*
X46760000Y-73500000D01*
X46760000Y-75500000D02*
X46510000Y-75300000D01*
X46760000Y-76500000D02*
X46760000Y-75500000D01*
X46760000Y-77500000D02*
X46760000Y-78510000D01*
X46760000Y-78510000D02*
X45850000Y-79010000D01*
X47060000Y-77110000D02*
X47060000Y-79410000D01*
X47060000Y-79410000D02*
X44760000Y-79410000D01*
%TO.C,R11*%
X89477500Y-73470276D02*
X89477500Y-73979724D01*
X90522500Y-73470276D02*
X90522500Y-73979724D01*
%TO.C,TP5*%
X80515000Y-33755000D02*
X80515000Y-33814435D01*
X80515000Y-33755000D02*
X80515000Y-35245000D01*
X80515000Y-33755000D02*
X80640000Y-33755000D01*
X80515000Y-35185565D02*
X80515000Y-35245000D01*
X80515000Y-35245000D02*
X80640000Y-35245000D01*
X81250000Y-33755000D02*
X81985000Y-33755000D01*
X81985000Y-33755000D02*
X81985000Y-34500000D01*
%TO.C,C17*%
X72265000Y-36701248D02*
X72265000Y-37223752D01*
X73735000Y-36701248D02*
X73735000Y-37223752D01*
%TO.C,J1*%
X130470000Y-38065000D02*
X131470000Y-37065000D01*
X130470000Y-51935000D02*
X130470000Y-38065000D01*
X131470000Y-37065000D02*
X140590000Y-37065000D01*
X131470000Y-52935000D02*
X130470000Y-51935000D01*
X140590000Y-37065000D02*
X140590000Y-39848233D01*
X140590000Y-42848233D02*
X140590000Y-41151767D01*
X140590000Y-45848233D02*
X140590000Y-44151767D01*
X140590000Y-48490000D02*
X140590000Y-47151767D01*
X140590000Y-52935000D02*
X131470000Y-52935000D01*
X140590000Y-52935000D02*
X140590000Y-50510000D01*
%TO.C,R26*%
X105254724Y-65477500D02*
X104745276Y-65477500D01*
X105254724Y-66522500D02*
X104745276Y-66522500D01*
%TO.C,D2*%
X127350000Y-82510000D02*
X127350000Y-77000000D01*
X127350000Y-82510000D02*
X130650000Y-82510000D01*
X130650000Y-82510000D02*
X130650000Y-77000000D01*
%TO.C,TP2*%
X125255000Y-87265000D02*
X126000000Y-87265000D01*
X125255000Y-88000000D02*
X125255000Y-87265000D01*
X125255000Y-88735000D02*
X125255000Y-88610000D01*
X125255000Y-88735000D02*
X125314435Y-88735000D01*
X125255000Y-88735000D02*
X126745000Y-88735000D01*
X126685565Y-88735000D02*
X126745000Y-88735000D01*
X126745000Y-88735000D02*
X126745000Y-88610000D01*
%TO.C,R1*%
X87977500Y-42842224D02*
X87977500Y-42332776D01*
X89022500Y-42842224D02*
X89022500Y-42332776D01*
%TO.C,R19*%
X122477500Y-84342224D02*
X122477500Y-83832776D01*
X123522500Y-84342224D02*
X123522500Y-83832776D01*
%TO.C,C13*%
X118216233Y-62440000D02*
X118508767Y-62440000D01*
X118216233Y-63460000D02*
X118508767Y-63460000D01*
%TO.C,C21*%
X116990000Y-37491233D02*
X116990000Y-37783767D01*
X118010000Y-37491233D02*
X118010000Y-37783767D01*
%TO.C,C9*%
X115491233Y-74490000D02*
X115783767Y-74490000D01*
X115491233Y-75510000D02*
X115783767Y-75510000D01*
%TO.C,D6*%
X122990000Y-56810000D02*
X122990000Y-53050000D01*
X122990000Y-56810000D02*
X125010000Y-56810000D01*
X125010000Y-56810000D02*
X125010000Y-53050000D01*
%TO.C,C16*%
X104853733Y-63990000D02*
X105146267Y-63990000D01*
X104853733Y-65010000D02*
X105146267Y-65010000D01*
%TO.C,R2*%
X83977500Y-42842224D02*
X83977500Y-42332776D01*
X85022500Y-42842224D02*
X85022500Y-42332776D01*
%TO.C,TP7*%
X85755000Y-69265000D02*
X86500000Y-69265000D01*
X85755000Y-70000000D02*
X85755000Y-69265000D01*
X85755000Y-70735000D02*
X85755000Y-70610000D01*
X85755000Y-70735000D02*
X85814435Y-70735000D01*
X85755000Y-70735000D02*
X87245000Y-70735000D01*
X87185565Y-70735000D02*
X87245000Y-70735000D01*
X87245000Y-70735000D02*
X87245000Y-70610000D01*
%TO.C,R9*%
X122477500Y-77007776D02*
X122477500Y-77517224D01*
X123522500Y-77007776D02*
X123522500Y-77517224D01*
%TO.C,U7*%
X101440000Y-71940000D02*
X105560000Y-71940000D01*
X101440000Y-72035000D02*
X101440000Y-71940000D01*
X101440000Y-77060000D02*
X101440000Y-76965000D01*
X105560000Y-71940000D02*
X105560000Y-72035000D01*
X105560000Y-76965000D02*
X105560000Y-77060000D01*
X105560000Y-77060000D02*
X101440000Y-77060000D01*
X100900000Y-72030000D02*
X100660000Y-71700000D01*
X101140000Y-71700000D01*
X100900000Y-72030000D01*
G36*
X100900000Y-72030000D02*
G01*
X100660000Y-71700000D01*
X101140000Y-71700000D01*
X100900000Y-72030000D01*
G37*
%TO.C,TP4*%
X44265000Y-65255000D02*
X44265000Y-65314435D01*
X44265000Y-65255000D02*
X44265000Y-66745000D01*
X44265000Y-65255000D02*
X44390000Y-65255000D01*
X44265000Y-66685565D02*
X44265000Y-66745000D01*
X44265000Y-66745000D02*
X44390000Y-66745000D01*
X45000000Y-65255000D02*
X45735000Y-65255000D01*
X45735000Y-65255000D02*
X45735000Y-66000000D01*
%TO.C,R22*%
X105977500Y-81254724D02*
X105977500Y-80745276D01*
X107022500Y-81254724D02*
X107022500Y-80745276D01*
%TO.C,R8*%
X104157776Y-44477500D02*
X104667224Y-44477500D01*
X104157776Y-45522500D02*
X104667224Y-45522500D01*
%TO.C,TP8*%
X84755000Y-32765000D02*
X85500000Y-32765000D01*
X84755000Y-33500000D02*
X84755000Y-32765000D01*
X84755000Y-34235000D02*
X84755000Y-34110000D01*
X84755000Y-34235000D02*
X84814435Y-34235000D01*
X84755000Y-34235000D02*
X86245000Y-34235000D01*
X86185565Y-34235000D02*
X86245000Y-34235000D01*
X86245000Y-34235000D02*
X86245000Y-34110000D01*
%TO.C,R18*%
X107477500Y-86332776D02*
X107477500Y-86842224D01*
X108522500Y-86332776D02*
X108522500Y-86842224D01*
%TO.C,R24*%
X110754724Y-32977500D02*
X110245276Y-32977500D01*
X110754724Y-34022500D02*
X110245276Y-34022500D01*
%TO.C,C6*%
X94990000Y-73991233D02*
X94990000Y-74283767D01*
X96010000Y-73991233D02*
X96010000Y-74283767D01*
%TO.C,TP1*%
X97755000Y-32765000D02*
X98500000Y-32765000D01*
X97755000Y-33500000D02*
X97755000Y-32765000D01*
X97755000Y-34235000D02*
X97755000Y-34110000D01*
X97755000Y-34235000D02*
X97814435Y-34235000D01*
X97755000Y-34235000D02*
X99245000Y-34235000D01*
X99185565Y-34235000D02*
X99245000Y-34235000D01*
X99245000Y-34235000D02*
X99245000Y-34110000D01*
%TO.C,R5*%
X65742224Y-47072500D02*
X65232776Y-47072500D01*
X65742224Y-48117500D02*
X65232776Y-48117500D01*
%TO.C,C11*%
X118627500Y-77783767D02*
X118627500Y-77491233D01*
X119647500Y-77783767D02*
X119647500Y-77491233D01*
%TO.C,C10*%
X118490000Y-72008767D02*
X118490000Y-71716233D01*
X119510000Y-72008767D02*
X119510000Y-71716233D01*
%TO.C,D1*%
X127350000Y-75510000D02*
X127350000Y-70000000D01*
X127350000Y-75510000D02*
X130650000Y-75510000D01*
X130650000Y-75510000D02*
X130650000Y-70000000D01*
%TO.C,C8*%
X127283767Y-90990000D02*
X126991233Y-90990000D01*
X127283767Y-92010000D02*
X126991233Y-92010000D01*
%TO.C,U3*%
X61440000Y-37940000D02*
X65560000Y-37940000D01*
X61440000Y-38035000D02*
X61440000Y-37940000D01*
X61440000Y-43060000D02*
X61440000Y-42965000D01*
X65560000Y-37940000D02*
X65560000Y-38035000D01*
X65560000Y-42965000D02*
X65560000Y-43060000D01*
X65560000Y-43060000D02*
X61440000Y-43060000D01*
X66340000Y-43300000D02*
X65860000Y-43300000D01*
X66100000Y-42970000D01*
X66340000Y-43300000D01*
G36*
X66340000Y-43300000D02*
G01*
X65860000Y-43300000D01*
X66100000Y-42970000D01*
X66340000Y-43300000D01*
G37*
%TO.C,TP6*%
X90755000Y-32765000D02*
X91500000Y-32765000D01*
X90755000Y-33500000D02*
X90755000Y-32765000D01*
X90755000Y-34235000D02*
X90755000Y-34110000D01*
X90755000Y-34235000D02*
X90814435Y-34235000D01*
X90755000Y-34235000D02*
X92245000Y-34235000D01*
X92185565Y-34235000D02*
X92245000Y-34235000D01*
X92245000Y-34235000D02*
X92245000Y-34110000D01*
%TO.C,C3*%
X114490000Y-45991233D02*
X114490000Y-46283767D01*
X115510000Y-45991233D02*
X115510000Y-46283767D01*
%TO.C,R16*%
X110477500Y-76245276D02*
X110477500Y-76754724D01*
X111522500Y-76245276D02*
X111522500Y-76754724D01*
%TO.C,R30*%
X106812224Y-41202500D02*
X106302776Y-41202500D01*
X106812224Y-42247500D02*
X106302776Y-42247500D01*
%TO.C,J2*%
X132790000Y-71090000D02*
X135090000Y-71090000D01*
X132790000Y-73390000D02*
X132790000Y-71090000D01*
X133090000Y-71990000D02*
X134000000Y-71490000D01*
X133090000Y-73000000D02*
X133090000Y-71990000D01*
X133090000Y-74000000D02*
X133090000Y-75000000D01*
X133090000Y-75000000D02*
X133340000Y-75200000D01*
X133090000Y-76000000D02*
X133090000Y-77000000D01*
X133090000Y-77000000D02*
X133340000Y-77200000D01*
X133090000Y-78000000D02*
X133090000Y-79010000D01*
X133090000Y-79010000D02*
X134000000Y-79510000D01*
X133340000Y-73200000D02*
X133090000Y-73000000D01*
X133340000Y-73200000D02*
X133340000Y-73800000D01*
X133340000Y-73800000D02*
X133090000Y-74000000D01*
X133340000Y-75200000D02*
X133340000Y-75800000D01*
X133340000Y-75800000D02*
X133090000Y-76000000D01*
X133340000Y-77200000D02*
X133340000Y-77800000D01*
X133340000Y-77800000D02*
X133090000Y-78000000D01*
X134000000Y-71490000D02*
X134500000Y-71490000D01*
X134000000Y-79510000D02*
X134500000Y-79510000D01*
X134500000Y-71390000D02*
X140610000Y-71390000D01*
X134500000Y-71490000D02*
X134500000Y-71390000D01*
X134500000Y-79510000D02*
X134500000Y-79610000D01*
X134500000Y-79610000D02*
X140610000Y-79610000D01*
X136600000Y-71840000D02*
X136600000Y-79160000D01*
X136600000Y-73250000D02*
X139650000Y-73250000D01*
X136600000Y-75250000D02*
X139650000Y-75250000D01*
X136600000Y-77250000D02*
X139650000Y-77250000D01*
X136600000Y-79160000D02*
X140610000Y-79160000D01*
X139650000Y-73250000D02*
X139900000Y-73500000D01*
X139650000Y-73750000D02*
X136600000Y-73750000D01*
X139650000Y-75250000D02*
X139900000Y-75500000D01*
X139650000Y-75750000D02*
X136600000Y-75750000D01*
X139650000Y-77250000D02*
X139900000Y-77500000D01*
X139650000Y-77750000D02*
X136600000Y-77750000D01*
X139900000Y-73500000D02*
X139650000Y-73750000D01*
X139900000Y-75500000D02*
X139650000Y-75750000D01*
X139900000Y-77500000D02*
X139650000Y-77750000D01*
X140610000Y-71390000D02*
X140610000Y-75500000D01*
X140610000Y-71840000D02*
X136600000Y-71840000D01*
X140610000Y-79610000D02*
X140610000Y-75500000D01*
%TO.C,R20*%
X98977500Y-81079724D02*
X98977500Y-80570276D01*
X100022500Y-81079724D02*
X100022500Y-80570276D01*
%TO.C,R31*%
X77342224Y-33977500D02*
X76832776Y-33977500D01*
X77342224Y-35022500D02*
X76832776Y-35022500D01*
%TO.C,TP9*%
X75255000Y-56765000D02*
X76000000Y-56765000D01*
X75255000Y-57500000D02*
X75255000Y-56765000D01*
X75255000Y-58235000D02*
X75255000Y-58110000D01*
X75255000Y-58235000D02*
X75314435Y-58235000D01*
X75255000Y-58235000D02*
X76745000Y-58235000D01*
X76685565Y-58235000D02*
X76745000Y-58235000D01*
X76745000Y-58235000D02*
X76745000Y-58110000D01*
%TO.C,C1*%
X82490000Y-70761233D02*
X82490000Y-71053767D01*
X83510000Y-70761233D02*
X83510000Y-71053767D01*
%TO.C,R17*%
X110977500Y-85332776D02*
X110977500Y-85842224D01*
X112022500Y-85332776D02*
X112022500Y-85842224D01*
%TO.C,C18*%
X101990000Y-52353733D02*
X101990000Y-52646267D01*
X103010000Y-52353733D02*
X103010000Y-52646267D01*
%TO.C,R14*%
X117477500Y-91842224D02*
X117477500Y-91332776D01*
X118522500Y-91842224D02*
X118522500Y-91332776D01*
%TO.C,U8*%
X115415000Y-79755000D02*
X119535000Y-79755000D01*
X115415000Y-79820000D02*
X115415000Y-79755000D01*
X115415000Y-88625000D02*
X115415000Y-88560000D01*
X119535000Y-79755000D02*
X119535000Y-79820000D01*
X119535000Y-88560000D02*
X119535000Y-88625000D01*
X119535000Y-88625000D02*
X115415000Y-88625000D01*
X120315000Y-88890000D02*
X119835000Y-88890000D01*
X120075000Y-88560000D01*
X120315000Y-88890000D01*
G36*
X120315000Y-88890000D02*
G01*
X119835000Y-88890000D01*
X120075000Y-88560000D01*
X120315000Y-88890000D01*
G37*
%TO.C,R29*%
X117477776Y-41202500D02*
X117987224Y-41202500D01*
X117477776Y-42247500D02*
X117987224Y-42247500D01*
%TO.C,C14*%
X105990000Y-52353733D02*
X105990000Y-52646267D01*
X107010000Y-52353733D02*
X107010000Y-52646267D01*
%TO.C,C7*%
X97490000Y-73991233D02*
X97490000Y-74283767D01*
X98510000Y-73991233D02*
X98510000Y-74283767D01*
%TO.C,R12*%
X91477500Y-70882776D02*
X91477500Y-71392224D01*
X92522500Y-70882776D02*
X92522500Y-71392224D01*
%TO.C,R6*%
X104157776Y-46477500D02*
X104667224Y-46477500D01*
X104157776Y-47522500D02*
X104667224Y-47522500D01*
%TO.C,Y1*%
X132540000Y-84740000D02*
X132540000Y-87260000D01*
X132540000Y-87260000D02*
X135460000Y-87260000D01*
%TO.C,U9*%
X110395000Y-52440000D02*
X114515000Y-52440000D01*
X110395000Y-52535000D02*
X110395000Y-52440000D01*
X110395000Y-57560000D02*
X110395000Y-57465000D01*
X114515000Y-52440000D02*
X114515000Y-52535000D01*
X114515000Y-57465000D02*
X114515000Y-57560000D01*
X114515000Y-57560000D02*
X110395000Y-57560000D01*
X115355000Y-57800000D02*
X114875000Y-57800000D01*
X115115000Y-57470000D01*
X115355000Y-57800000D01*
G36*
X115355000Y-57800000D02*
G01*
X114875000Y-57800000D01*
X115115000Y-57470000D01*
X115355000Y-57800000D01*
G37*
%TO.C,C22*%
X53348767Y-40905000D02*
X53056233Y-40905000D01*
X53348767Y-41925000D02*
X53056233Y-41925000D01*
%TO.C,R21*%
X102477500Y-81254724D02*
X102477500Y-80745276D01*
X103522500Y-81254724D02*
X103522500Y-80745276D01*
%TO.C,R23*%
X111167224Y-47977500D02*
X110657776Y-47977500D01*
X111167224Y-49022500D02*
X110657776Y-49022500D01*
%TO.C,U2*%
X73415000Y-69345000D02*
X77535000Y-69345000D01*
X73415000Y-69440000D02*
X73415000Y-69345000D01*
X73415000Y-74465000D02*
X73415000Y-74370000D01*
X77535000Y-69345000D02*
X77535000Y-69440000D01*
X77535000Y-74370000D02*
X77535000Y-74465000D01*
X77535000Y-74465000D02*
X73415000Y-74465000D01*
X78315000Y-74705000D02*
X77835000Y-74705000D01*
X78075000Y-74375000D01*
X78315000Y-74705000D01*
G36*
X78315000Y-74705000D02*
G01*
X77835000Y-74705000D01*
X78075000Y-74375000D01*
X78315000Y-74705000D01*
G37*
%TO.C,U11*%
X110040000Y-37165000D02*
X114160000Y-37165000D01*
X110040000Y-37260000D02*
X110040000Y-37165000D01*
X110040000Y-42285000D02*
X110040000Y-42190000D01*
X114160000Y-37165000D02*
X114160000Y-37260000D01*
X114160000Y-42190000D02*
X114160000Y-42285000D01*
X114160000Y-42285000D02*
X110040000Y-42285000D01*
X115000000Y-42525000D02*
X114520000Y-42525000D01*
X114760000Y-42195000D01*
X115000000Y-42525000D01*
G36*
X115000000Y-42525000D02*
G01*
X114520000Y-42525000D01*
X114760000Y-42195000D01*
X115000000Y-42525000D01*
G37*
%TO.C,D7*%
X122990000Y-39060000D02*
X122990000Y-35300000D01*
X122990000Y-39060000D02*
X125010000Y-39060000D01*
X125010000Y-39060000D02*
X125010000Y-35300000D01*
%TO.C,C5*%
X89490000Y-77508767D02*
X89490000Y-77216233D01*
X90510000Y-77508767D02*
X90510000Y-77216233D01*
%TD*%
D15*
X38750000Y-31812500D02*
X141250000Y-31812500D01*
X141250000Y-93812500D01*
X38750000Y-93812500D01*
X38750000Y-31812500D01*
M02*
