%TF.GenerationSoftware,KiCad,Pcbnew,9.0.7*%
%TF.CreationDate,2026-04-01T09:11:17-05:00*%
%TF.ProjectId,Sensor Cell with Comms,53656e73-6f72-4204-9365-6c6c20776974,rev?*%
%TF.SameCoordinates,Original*%
%TF.FileFunction,Drillmap*%
%TF.FilePolarity,Positive*%
%FSLAX45Y45*%
G04 Gerber Fmt 4.5, Leading zero omitted, Abs format (unit mm)*
G04 Created by KiCad (PCBNEW 9.0.7) date 2026-04-01 09:11:17*
%MOMM*%
%LPD*%
G01*
G04 APERTURE LIST*
%ADD10C,0.050000*%
%ADD11C,0.200000*%
%ADD12C,0.100000*%
%ADD13C,0.102000*%
%ADD14C,0.106680*%
G04 APERTURE END LIST*
D10*
X6100000Y-3300000D02*
X13100000Y-3300000D01*
X13100000Y-11000000D01*
X6100000Y-11000000D01*
X6100000Y-3300000D01*
D11*
D12*
X7534500Y-10037500D02*
X7554500Y-10057500D01*
X7554500Y-10037500D02*
X7534500Y-10057500D01*
X7534500Y-10167500D02*
X7554500Y-10187500D01*
X7554500Y-10167500D02*
X7534500Y-10187500D01*
X7534500Y-10297500D02*
X7554500Y-10317500D01*
X7554500Y-10297500D02*
X7534500Y-10317500D01*
X7725500Y-10037500D02*
X7745500Y-10057500D01*
X7745500Y-10037500D02*
X7725500Y-10057500D01*
X7725500Y-10167500D02*
X7745500Y-10187500D01*
X7745500Y-10167500D02*
X7725500Y-10187500D01*
X7725500Y-10297500D02*
X7745500Y-10317500D01*
X7745500Y-10297500D02*
X7725500Y-10317500D01*
X10099000Y-10060000D02*
X10119000Y-10080000D01*
X10119000Y-10060000D02*
X10099000Y-10080000D01*
X10099000Y-10190000D02*
X10119000Y-10210000D01*
X10119000Y-10190000D02*
X10099000Y-10210000D01*
X10099000Y-10320000D02*
X10119000Y-10340000D01*
X10119000Y-10320000D02*
X10099000Y-10340000D01*
X10290000Y-10060000D02*
X10310000Y-10080000D01*
X10310000Y-10060000D02*
X10290000Y-10080000D01*
X10290000Y-10190000D02*
X10310000Y-10210000D01*
X10310000Y-10190000D02*
X10290000Y-10210000D01*
X10290000Y-10320000D02*
X10310000Y-10340000D01*
X10310000Y-10320000D02*
X10290000Y-10340000D01*
X6315000Y-6600000D02*
G75*
G02*
X6285000Y-6600000I-15000J0D01*
G01*
X6285000Y-6600000D02*
G75*
G02*
X6315000Y-6600000I15000J0D01*
G01*
X6385100Y-8070100D02*
G75*
G02*
X6355100Y-8070100I-15000J0D01*
G01*
X6355100Y-8070100D02*
G75*
G02*
X6385100Y-8070100I15000J0D01*
G01*
X6415000Y-4100000D02*
G75*
G02*
X6385000Y-4100000I-15000J0D01*
G01*
X6385000Y-4100000D02*
G75*
G02*
X6415000Y-4100000I15000J0D01*
G01*
X6477400Y-7300000D02*
G75*
G02*
X6447400Y-7300000I-15000J0D01*
G01*
X6447400Y-7300000D02*
G75*
G02*
X6477400Y-7300000I15000J0D01*
G01*
X6515000Y-3900000D02*
G75*
G02*
X6485000Y-3900000I-15000J0D01*
G01*
X6485000Y-3900000D02*
G75*
G02*
X6515000Y-3900000I15000J0D01*
G01*
X6515000Y-4000000D02*
G75*
G02*
X6485000Y-4000000I-15000J0D01*
G01*
X6485000Y-4000000D02*
G75*
G02*
X6515000Y-4000000I15000J0D01*
G01*
X6615000Y-4100000D02*
G75*
G02*
X6585000Y-4100000I-15000J0D01*
G01*
X6585000Y-4100000D02*
G75*
G02*
X6615000Y-4100000I15000J0D01*
G01*
X6615000Y-7000000D02*
G75*
G02*
X6585000Y-7000000I-15000J0D01*
G01*
X6585000Y-7000000D02*
G75*
G02*
X6615000Y-7000000I15000J0D01*
G01*
X6615000Y-8200000D02*
G75*
G02*
X6585000Y-8200000I-15000J0D01*
G01*
X6585000Y-8200000D02*
G75*
G02*
X6615000Y-8200000I15000J0D01*
G01*
X6615000Y-8500000D02*
G75*
G02*
X6585000Y-8500000I-15000J0D01*
G01*
X6585000Y-8500000D02*
G75*
G02*
X6615000Y-8500000I15000J0D01*
G01*
X6715000Y-7200000D02*
G75*
G02*
X6685000Y-7200000I-15000J0D01*
G01*
X6685000Y-7200000D02*
G75*
G02*
X6715000Y-7200000I15000J0D01*
G01*
X6715000Y-9600000D02*
G75*
G02*
X6685000Y-9600000I-15000J0D01*
G01*
X6685000Y-9600000D02*
G75*
G02*
X6715000Y-9600000I15000J0D01*
G01*
X6815000Y-8600000D02*
G75*
G02*
X6785000Y-8600000I-15000J0D01*
G01*
X6785000Y-8600000D02*
G75*
G02*
X6815000Y-8600000I15000J0D01*
G01*
X6915000Y-6600000D02*
G75*
G02*
X6885000Y-6600000I-15000J0D01*
G01*
X6885000Y-6600000D02*
G75*
G02*
X6915000Y-6600000I15000J0D01*
G01*
X6915000Y-10500000D02*
G75*
G02*
X6885000Y-10500000I-15000J0D01*
G01*
X6885000Y-10500000D02*
G75*
G02*
X6915000Y-10500000I15000J0D01*
G01*
X7015000Y-4700000D02*
G75*
G02*
X6985000Y-4700000I-15000J0D01*
G01*
X6985000Y-4700000D02*
G75*
G02*
X7015000Y-4700000I15000J0D01*
G01*
X7115000Y-4700000D02*
G75*
G02*
X7085000Y-4700000I-15000J0D01*
G01*
X7085000Y-4700000D02*
G75*
G02*
X7115000Y-4700000I15000J0D01*
G01*
X7115000Y-8200000D02*
G75*
G02*
X7085000Y-8200000I-15000J0D01*
G01*
X7085000Y-8200000D02*
G75*
G02*
X7115000Y-8200000I15000J0D01*
G01*
X7134900Y-10180100D02*
G75*
G02*
X7104900Y-10180100I-15000J0D01*
G01*
X7104900Y-10180100D02*
G75*
G02*
X7134900Y-10180100I15000J0D01*
G01*
X7142500Y-10500000D02*
G75*
G02*
X7112500Y-10500000I-15000J0D01*
G01*
X7112500Y-10500000D02*
G75*
G02*
X7142500Y-10500000I15000J0D01*
G01*
X7202600Y-3901350D02*
G75*
G02*
X7172600Y-3901350I-15000J0D01*
G01*
X7172600Y-3901350D02*
G75*
G02*
X7202600Y-3901350I15000J0D01*
G01*
X7215000Y-4700000D02*
G75*
G02*
X7185000Y-4700000I-15000J0D01*
G01*
X7185000Y-4700000D02*
G75*
G02*
X7215000Y-4700000I15000J0D01*
G01*
X7215000Y-7300000D02*
G75*
G02*
X7185000Y-7300000I-15000J0D01*
G01*
X7185000Y-7300000D02*
G75*
G02*
X7215000Y-7300000I15000J0D01*
G01*
X7215000Y-10100000D02*
G75*
G02*
X7185000Y-10100000I-15000J0D01*
G01*
X7185000Y-10100000D02*
G75*
G02*
X7215000Y-10100000I15000J0D01*
G01*
X7315000Y-6500000D02*
G75*
G02*
X7285000Y-6500000I-15000J0D01*
G01*
X7285000Y-6500000D02*
G75*
G02*
X7315000Y-6500000I15000J0D01*
G01*
X7315000Y-7700000D02*
G75*
G02*
X7285000Y-7700000I-15000J0D01*
G01*
X7285000Y-7700000D02*
G75*
G02*
X7315000Y-7700000I15000J0D01*
G01*
X7325816Y-8099238D02*
G75*
G02*
X7295816Y-8099238I-15000J0D01*
G01*
X7295816Y-8099238D02*
G75*
G02*
X7325816Y-8099238I15000J0D01*
G01*
X7515000Y-3900000D02*
G75*
G02*
X7485000Y-3900000I-15000J0D01*
G01*
X7485000Y-3900000D02*
G75*
G02*
X7515000Y-3900000I15000J0D01*
G01*
X7515000Y-7200000D02*
G75*
G02*
X7485000Y-7200000I-15000J0D01*
G01*
X7485000Y-7200000D02*
G75*
G02*
X7515000Y-7200000I15000J0D01*
G01*
X7515000Y-8000000D02*
G75*
G02*
X7485000Y-8000000I-15000J0D01*
G01*
X7485000Y-8000000D02*
G75*
G02*
X7515000Y-8000000I15000J0D01*
G01*
X7515000Y-9700000D02*
G75*
G02*
X7485000Y-9700000I-15000J0D01*
G01*
X7485000Y-9700000D02*
G75*
G02*
X7515000Y-9700000I15000J0D01*
G01*
X7615000Y-9400000D02*
G75*
G02*
X7585000Y-9400000I-15000J0D01*
G01*
X7585000Y-9400000D02*
G75*
G02*
X7615000Y-9400000I15000J0D01*
G01*
X7621833Y-6383361D02*
G75*
G02*
X7591833Y-6383361I-15000J0D01*
G01*
X7591833Y-6383361D02*
G75*
G02*
X7621833Y-6383361I15000J0D01*
G01*
X7815000Y-9800000D02*
G75*
G02*
X7785000Y-9800000I-15000J0D01*
G01*
X7785000Y-9800000D02*
G75*
G02*
X7815000Y-9800000I15000J0D01*
G01*
X7832500Y-7983364D02*
G75*
G02*
X7802500Y-7983364I-15000J0D01*
G01*
X7802500Y-7983364D02*
G75*
G02*
X7832500Y-7983364I15000J0D01*
G01*
X7915000Y-7500000D02*
G75*
G02*
X7885000Y-7500000I-15000J0D01*
G01*
X7885000Y-7500000D02*
G75*
G02*
X7915000Y-7500000I15000J0D01*
G01*
X7915000Y-9900000D02*
G75*
G02*
X7885000Y-9900000I-15000J0D01*
G01*
X7885000Y-9900000D02*
G75*
G02*
X7915000Y-9900000I15000J0D01*
G01*
X8015000Y-8400000D02*
G75*
G02*
X7985000Y-8400000I-15000J0D01*
G01*
X7985000Y-8400000D02*
G75*
G02*
X8015000Y-8400000I15000J0D01*
G01*
X8015000Y-10500000D02*
G75*
G02*
X7985000Y-10500000I-15000J0D01*
G01*
X7985000Y-10500000D02*
G75*
G02*
X8015000Y-10500000I15000J0D01*
G01*
X8015000Y-10600000D02*
G75*
G02*
X7985000Y-10600000I-15000J0D01*
G01*
X7985000Y-10600000D02*
G75*
G02*
X8015000Y-10600000I15000J0D01*
G01*
X8115000Y-7800000D02*
G75*
G02*
X8085000Y-7800000I-15000J0D01*
G01*
X8085000Y-7800000D02*
G75*
G02*
X8115000Y-7800000I15000J0D01*
G01*
X8115000Y-9400000D02*
G75*
G02*
X8085000Y-9400000I-15000J0D01*
G01*
X8085000Y-9400000D02*
G75*
G02*
X8115000Y-9400000I15000J0D01*
G01*
X8115000Y-10200000D02*
G75*
G02*
X8085000Y-10200000I-15000J0D01*
G01*
X8085000Y-10200000D02*
G75*
G02*
X8115000Y-10200000I15000J0D01*
G01*
X8215000Y-7300000D02*
G75*
G02*
X8185000Y-7300000I-15000J0D01*
G01*
X8185000Y-7300000D02*
G75*
G02*
X8215000Y-7300000I15000J0D01*
G01*
X8215000Y-8300000D02*
G75*
G02*
X8185000Y-8300000I-15000J0D01*
G01*
X8185000Y-8300000D02*
G75*
G02*
X8215000Y-8300000I15000J0D01*
G01*
X8215000Y-8500000D02*
G75*
G02*
X8185000Y-8500000I-15000J0D01*
G01*
X8185000Y-8500000D02*
G75*
G02*
X8215000Y-8500000I15000J0D01*
G01*
X8215000Y-8700000D02*
G75*
G02*
X8185000Y-8700000I-15000J0D01*
G01*
X8185000Y-8700000D02*
G75*
G02*
X8215000Y-8700000I15000J0D01*
G01*
X8223750Y-10708750D02*
G75*
G02*
X8193750Y-10708750I-15000J0D01*
G01*
X8193750Y-10708750D02*
G75*
G02*
X8223750Y-10708750I15000J0D01*
G01*
X8287500Y-5672500D02*
G75*
G02*
X8257500Y-5672500I-15000J0D01*
G01*
X8257500Y-5672500D02*
G75*
G02*
X8287500Y-5672500I15000J0D01*
G01*
X8315000Y-6500000D02*
G75*
G02*
X8285000Y-6500000I-15000J0D01*
G01*
X8285000Y-6500000D02*
G75*
G02*
X8315000Y-6500000I15000J0D01*
G01*
X8315000Y-6700000D02*
G75*
G02*
X8285000Y-6700000I-15000J0D01*
G01*
X8285000Y-6700000D02*
G75*
G02*
X8315000Y-6700000I15000J0D01*
G01*
X8315000Y-9100000D02*
G75*
G02*
X8285000Y-9100000I-15000J0D01*
G01*
X8285000Y-9100000D02*
G75*
G02*
X8315000Y-9100000I15000J0D01*
G01*
X8415000Y-9500000D02*
G75*
G02*
X8385000Y-9500000I-15000J0D01*
G01*
X8385000Y-9500000D02*
G75*
G02*
X8415000Y-9500000I15000J0D01*
G01*
X8415000Y-10200000D02*
G75*
G02*
X8385000Y-10200000I-15000J0D01*
G01*
X8385000Y-10200000D02*
G75*
G02*
X8415000Y-10200000I15000J0D01*
G01*
X8515000Y-7600000D02*
G75*
G02*
X8485000Y-7600000I-15000J0D01*
G01*
X8485000Y-7600000D02*
G75*
G02*
X8515000Y-7600000I15000J0D01*
G01*
X8515000Y-7800000D02*
G75*
G02*
X8485000Y-7800000I-15000J0D01*
G01*
X8485000Y-7800000D02*
G75*
G02*
X8515000Y-7800000I15000J0D01*
G01*
X8515000Y-8700000D02*
G75*
G02*
X8485000Y-8700000I-15000J0D01*
G01*
X8485000Y-8700000D02*
G75*
G02*
X8515000Y-8700000I15000J0D01*
G01*
X8587500Y-8400000D02*
G75*
G02*
X8557500Y-8400000I-15000J0D01*
G01*
X8557500Y-8400000D02*
G75*
G02*
X8587500Y-8400000I15000J0D01*
G01*
X8609900Y-8905100D02*
G75*
G02*
X8579900Y-8905100I-15000J0D01*
G01*
X8579900Y-8905100D02*
G75*
G02*
X8609900Y-8905100I15000J0D01*
G01*
X8615000Y-7200000D02*
G75*
G02*
X8585000Y-7200000I-15000J0D01*
G01*
X8585000Y-7200000D02*
G75*
G02*
X8615000Y-7200000I15000J0D01*
G01*
X8615000Y-10200000D02*
G75*
G02*
X8585000Y-10200000I-15000J0D01*
G01*
X8585000Y-10200000D02*
G75*
G02*
X8615000Y-10200000I15000J0D01*
G01*
X8615000Y-10800000D02*
G75*
G02*
X8585000Y-10800000I-15000J0D01*
G01*
X8585000Y-10800000D02*
G75*
G02*
X8615000Y-10800000I15000J0D01*
G01*
X8715000Y-6600000D02*
G75*
G02*
X8685000Y-6600000I-15000J0D01*
G01*
X8685000Y-6600000D02*
G75*
G02*
X8715000Y-6600000I15000J0D01*
G01*
X8715000Y-9600000D02*
G75*
G02*
X8685000Y-9600000I-15000J0D01*
G01*
X8685000Y-9600000D02*
G75*
G02*
X8715000Y-9600000I15000J0D01*
G01*
X8815000Y-7300000D02*
G75*
G02*
X8785000Y-7300000I-15000J0D01*
G01*
X8785000Y-7300000D02*
G75*
G02*
X8815000Y-7300000I15000J0D01*
G01*
X8815000Y-7800000D02*
G75*
G02*
X8785000Y-7800000I-15000J0D01*
G01*
X8785000Y-7800000D02*
G75*
G02*
X8815000Y-7800000I15000J0D01*
G01*
X8815000Y-8700000D02*
G75*
G02*
X8785000Y-8700000I-15000J0D01*
G01*
X8785000Y-8700000D02*
G75*
G02*
X8815000Y-8700000I15000J0D01*
G01*
X8815000Y-9100000D02*
G75*
G02*
X8785000Y-9100000I-15000J0D01*
G01*
X8785000Y-9100000D02*
G75*
G02*
X8815000Y-9100000I15000J0D01*
G01*
X8815000Y-10900000D02*
G75*
G02*
X8785000Y-10900000I-15000J0D01*
G01*
X8785000Y-10900000D02*
G75*
G02*
X8815000Y-10900000I15000J0D01*
G01*
X8915000Y-8191250D02*
G75*
G02*
X8885000Y-8191250I-15000J0D01*
G01*
X8885000Y-8191250D02*
G75*
G02*
X8915000Y-8191250I15000J0D01*
G01*
X9015000Y-3900000D02*
G75*
G02*
X8985000Y-3900000I-15000J0D01*
G01*
X8985000Y-3900000D02*
G75*
G02*
X9015000Y-3900000I15000J0D01*
G01*
X9015000Y-6400000D02*
G75*
G02*
X8985000Y-6400000I-15000J0D01*
G01*
X8985000Y-6400000D02*
G75*
G02*
X9015000Y-6400000I15000J0D01*
G01*
X9015000Y-6700000D02*
G75*
G02*
X8985000Y-6700000I-15000J0D01*
G01*
X8985000Y-6700000D02*
G75*
G02*
X9015000Y-6700000I15000J0D01*
G01*
X9015000Y-7400000D02*
G75*
G02*
X8985000Y-7400000I-15000J0D01*
G01*
X8985000Y-7400000D02*
G75*
G02*
X9015000Y-7400000I15000J0D01*
G01*
X9015000Y-10300000D02*
G75*
G02*
X8985000Y-10300000I-15000J0D01*
G01*
X8985000Y-10300000D02*
G75*
G02*
X9015000Y-10300000I15000J0D01*
G01*
X9106250Y-9008750D02*
G75*
G02*
X9076250Y-9008750I-15000J0D01*
G01*
X9076250Y-9008750D02*
G75*
G02*
X9106250Y-9008750I15000J0D01*
G01*
X9115000Y-8100000D02*
G75*
G02*
X9085000Y-8100000I-15000J0D01*
G01*
X9085000Y-8100000D02*
G75*
G02*
X9115000Y-8100000I15000J0D01*
G01*
X9115000Y-8700000D02*
G75*
G02*
X9085000Y-8700000I-15000J0D01*
G01*
X9085000Y-8700000D02*
G75*
G02*
X9115000Y-8700000I15000J0D01*
G01*
X9115000Y-9200000D02*
G75*
G02*
X9085000Y-9200000I-15000J0D01*
G01*
X9085000Y-9200000D02*
G75*
G02*
X9115000Y-9200000I15000J0D01*
G01*
X9115000Y-10600000D02*
G75*
G02*
X9085000Y-10600000I-15000J0D01*
G01*
X9085000Y-10600000D02*
G75*
G02*
X9115000Y-10600000I15000J0D01*
G01*
X9115000Y-10800000D02*
G75*
G02*
X9085000Y-10800000I-15000J0D01*
G01*
X9085000Y-10800000D02*
G75*
G02*
X9115000Y-10800000I15000J0D01*
G01*
X9213484Y-7543970D02*
G75*
G02*
X9183484Y-7543970I-15000J0D01*
G01*
X9183484Y-7543970D02*
G75*
G02*
X9213484Y-7543970I15000J0D01*
G01*
X9215000Y-9800000D02*
G75*
G02*
X9185000Y-9800000I-15000J0D01*
G01*
X9185000Y-9800000D02*
G75*
G02*
X9215000Y-9800000I15000J0D01*
G01*
X9215000Y-10600000D02*
G75*
G02*
X9185000Y-10600000I-15000J0D01*
G01*
X9185000Y-10600000D02*
G75*
G02*
X9215000Y-10600000I15000J0D01*
G01*
X9222049Y-7124632D02*
G75*
G02*
X9192049Y-7124632I-15000J0D01*
G01*
X9192049Y-7124632D02*
G75*
G02*
X9222049Y-7124632I15000J0D01*
G01*
X9230235Y-9601625D02*
G75*
G02*
X9200235Y-9601625I-15000J0D01*
G01*
X9200235Y-9601625D02*
G75*
G02*
X9230235Y-9601625I15000J0D01*
G01*
X9291140Y-8583807D02*
G75*
G02*
X9261140Y-8583807I-15000J0D01*
G01*
X9261140Y-8583807D02*
G75*
G02*
X9291140Y-8583807I15000J0D01*
G01*
X9300938Y-9137630D02*
G75*
G02*
X9270938Y-9137630I-15000J0D01*
G01*
X9270938Y-9137630D02*
G75*
G02*
X9300938Y-9137630I15000J0D01*
G01*
X9315000Y-6000000D02*
G75*
G02*
X9285000Y-6000000I-15000J0D01*
G01*
X9285000Y-6000000D02*
G75*
G02*
X9315000Y-6000000I15000J0D01*
G01*
X9315000Y-7100000D02*
G75*
G02*
X9285000Y-7100000I-15000J0D01*
G01*
X9285000Y-7100000D02*
G75*
G02*
X9315000Y-7100000I15000J0D01*
G01*
X9315000Y-7800000D02*
G75*
G02*
X9285000Y-7800000I-15000J0D01*
G01*
X9285000Y-7800000D02*
G75*
G02*
X9315000Y-7800000I15000J0D01*
G01*
X9353921Y-8962661D02*
G75*
G02*
X9323921Y-8962661I-15000J0D01*
G01*
X9323921Y-8962661D02*
G75*
G02*
X9353921Y-8962661I15000J0D01*
G01*
X9415000Y-5500000D02*
G75*
G02*
X9385000Y-5500000I-15000J0D01*
G01*
X9385000Y-5500000D02*
G75*
G02*
X9415000Y-5500000I15000J0D01*
G01*
X9415000Y-6200000D02*
G75*
G02*
X9385000Y-6200000I-15000J0D01*
G01*
X9385000Y-6200000D02*
G75*
G02*
X9415000Y-6200000I15000J0D01*
G01*
X9415000Y-7500000D02*
G75*
G02*
X9385000Y-7500000I-15000J0D01*
G01*
X9385000Y-7500000D02*
G75*
G02*
X9415000Y-7500000I15000J0D01*
G01*
X9415000Y-8299800D02*
G75*
G02*
X9385000Y-8299800I-15000J0D01*
G01*
X9385000Y-8299800D02*
G75*
G02*
X9415000Y-8299800I15000J0D01*
G01*
X9415000Y-9500000D02*
G75*
G02*
X9385000Y-9500000I-15000J0D01*
G01*
X9385000Y-9500000D02*
G75*
G02*
X9415000Y-9500000I15000J0D01*
G01*
X9415000Y-10200000D02*
G75*
G02*
X9385000Y-10200000I-15000J0D01*
G01*
X9385000Y-10200000D02*
G75*
G02*
X9415000Y-10200000I15000J0D01*
G01*
X9515000Y-5300000D02*
G75*
G02*
X9485000Y-5300000I-15000J0D01*
G01*
X9485000Y-5300000D02*
G75*
G02*
X9515000Y-5300000I15000J0D01*
G01*
X9608182Y-7736232D02*
G75*
G02*
X9578182Y-7736232I-15000J0D01*
G01*
X9578182Y-7736232D02*
G75*
G02*
X9608182Y-7736232I15000J0D01*
G01*
X9615000Y-6800000D02*
G75*
G02*
X9585000Y-6800000I-15000J0D01*
G01*
X9585000Y-6800000D02*
G75*
G02*
X9615000Y-6800000I15000J0D01*
G01*
X9615000Y-8200000D02*
G75*
G02*
X9585000Y-8200000I-15000J0D01*
G01*
X9585000Y-8200000D02*
G75*
G02*
X9615000Y-8200000I15000J0D01*
G01*
X9615000Y-8900000D02*
G75*
G02*
X9585000Y-8900000I-15000J0D01*
G01*
X9585000Y-8900000D02*
G75*
G02*
X9615000Y-8900000I15000J0D01*
G01*
X9615000Y-10500000D02*
G75*
G02*
X9585000Y-10500000I-15000J0D01*
G01*
X9585000Y-10500000D02*
G75*
G02*
X9615000Y-10500000I15000J0D01*
G01*
X9616453Y-8318320D02*
G75*
G02*
X9586453Y-8318320I-15000J0D01*
G01*
X9586453Y-8318320D02*
G75*
G02*
X9616453Y-8318320I15000J0D01*
G01*
X9648547Y-7199004D02*
G75*
G02*
X9618547Y-7199004I-15000J0D01*
G01*
X9618547Y-7199004D02*
G75*
G02*
X9648547Y-7199004I15000J0D01*
G01*
X9652888Y-7655507D02*
G75*
G02*
X9622888Y-7655507I-15000J0D01*
G01*
X9622888Y-7655507D02*
G75*
G02*
X9652888Y-7655507I15000J0D01*
G01*
X9668359Y-7798191D02*
G75*
G02*
X9638359Y-7798191I-15000J0D01*
G01*
X9638359Y-7798191D02*
G75*
G02*
X9668359Y-7798191I15000J0D01*
G01*
X9713669Y-9258963D02*
G75*
G02*
X9683669Y-9258963I-15000J0D01*
G01*
X9683669Y-9258963D02*
G75*
G02*
X9713669Y-9258963I15000J0D01*
G01*
X9715000Y-4300000D02*
G75*
G02*
X9685000Y-4300000I-15000J0D01*
G01*
X9685000Y-4300000D02*
G75*
G02*
X9715000Y-4300000I15000J0D01*
G01*
X9715000Y-6000000D02*
G75*
G02*
X9685000Y-6000000I-15000J0D01*
G01*
X9685000Y-6000000D02*
G75*
G02*
X9715000Y-6000000I15000J0D01*
G01*
X9715000Y-8000000D02*
G75*
G02*
X9685000Y-8000000I-15000J0D01*
G01*
X9685000Y-8000000D02*
G75*
G02*
X9715000Y-8000000I15000J0D01*
G01*
X9715000Y-8500000D02*
G75*
G02*
X9685000Y-8500000I-15000J0D01*
G01*
X9685000Y-8500000D02*
G75*
G02*
X9715000Y-8500000I15000J0D01*
G01*
X9715000Y-10000000D02*
G75*
G02*
X9685000Y-10000000I-15000J0D01*
G01*
X9685000Y-10000000D02*
G75*
G02*
X9715000Y-10000000I15000J0D01*
G01*
X9732292Y-9762004D02*
G75*
G02*
X9702292Y-9762004I-15000J0D01*
G01*
X9702292Y-9762004D02*
G75*
G02*
X9732292Y-9762004I15000J0D01*
G01*
X9815000Y-6600000D02*
G75*
G02*
X9785000Y-6600000I-15000J0D01*
G01*
X9785000Y-6600000D02*
G75*
G02*
X9815000Y-6600000I15000J0D01*
G01*
X9815000Y-6800000D02*
G75*
G02*
X9785000Y-6800000I-15000J0D01*
G01*
X9785000Y-6800000D02*
G75*
G02*
X9815000Y-6800000I15000J0D01*
G01*
X9815000Y-8900000D02*
G75*
G02*
X9785000Y-8900000I-15000J0D01*
G01*
X9785000Y-8900000D02*
G75*
G02*
X9815000Y-8900000I15000J0D01*
G01*
X9857806Y-9768977D02*
G75*
G02*
X9827806Y-9768977I-15000J0D01*
G01*
X9827806Y-9768977D02*
G75*
G02*
X9857806Y-9768977I15000J0D01*
G01*
X9915000Y-5000000D02*
G75*
G02*
X9885000Y-5000000I-15000J0D01*
G01*
X9885000Y-5000000D02*
G75*
G02*
X9915000Y-5000000I15000J0D01*
G01*
X9954500Y-8579396D02*
G75*
G02*
X9924500Y-8579396I-15000J0D01*
G01*
X9924500Y-8579396D02*
G75*
G02*
X9954500Y-8579396I15000J0D01*
G01*
X9954900Y-7400000D02*
G75*
G02*
X9924900Y-7400000I-15000J0D01*
G01*
X9924900Y-7400000D02*
G75*
G02*
X9954900Y-7400000I15000J0D01*
G01*
X10015000Y-7500000D02*
G75*
G02*
X9985000Y-7500000I-15000J0D01*
G01*
X9985000Y-7500000D02*
G75*
G02*
X10015000Y-7500000I15000J0D01*
G01*
X10015000Y-8300000D02*
G75*
G02*
X9985000Y-8300000I-15000J0D01*
G01*
X9985000Y-8300000D02*
G75*
G02*
X10015000Y-8300000I15000J0D01*
G01*
X10015000Y-8500000D02*
G75*
G02*
X9985000Y-8500000I-15000J0D01*
G01*
X9985000Y-8500000D02*
G75*
G02*
X10015000Y-8500000I15000J0D01*
G01*
X10115000Y-5200000D02*
G75*
G02*
X10085000Y-5200000I-15000J0D01*
G01*
X10085000Y-5200000D02*
G75*
G02*
X10115000Y-5200000I15000J0D01*
G01*
X10115000Y-8200000D02*
G75*
G02*
X10085000Y-8200000I-15000J0D01*
G01*
X10085000Y-8200000D02*
G75*
G02*
X10115000Y-8200000I15000J0D01*
G01*
X10115000Y-8700000D02*
G75*
G02*
X10085000Y-8700000I-15000J0D01*
G01*
X10085000Y-8700000D02*
G75*
G02*
X10115000Y-8700000I15000J0D01*
G01*
X10115000Y-8800000D02*
G75*
G02*
X10085000Y-8800000I-15000J0D01*
G01*
X10085000Y-8800000D02*
G75*
G02*
X10115000Y-8800000I15000J0D01*
G01*
X10115000Y-8900000D02*
G75*
G02*
X10085000Y-8900000I-15000J0D01*
G01*
X10085000Y-8900000D02*
G75*
G02*
X10115000Y-8900000I15000J0D01*
G01*
X10115000Y-9300000D02*
G75*
G02*
X10085000Y-9300000I-15000J0D01*
G01*
X10085000Y-9300000D02*
G75*
G02*
X10115000Y-9300000I15000J0D01*
G01*
X10115000Y-9700000D02*
G75*
G02*
X10085000Y-9700000I-15000J0D01*
G01*
X10085000Y-9700000D02*
G75*
G02*
X10115000Y-9700000I15000J0D01*
G01*
X10215000Y-5500000D02*
G75*
G02*
X10185000Y-5500000I-15000J0D01*
G01*
X10185000Y-5500000D02*
G75*
G02*
X10215000Y-5500000I15000J0D01*
G01*
X10215000Y-5600000D02*
G75*
G02*
X10185000Y-5600000I-15000J0D01*
G01*
X10185000Y-5600000D02*
G75*
G02*
X10215000Y-5600000I15000J0D01*
G01*
X10215000Y-9500000D02*
G75*
G02*
X10185000Y-9500000I-15000J0D01*
G01*
X10185000Y-9500000D02*
G75*
G02*
X10215000Y-9500000I15000J0D01*
G01*
X10229321Y-9796162D02*
G75*
G02*
X10199321Y-9796162I-15000J0D01*
G01*
X10199321Y-9796162D02*
G75*
G02*
X10229321Y-9796162I15000J0D01*
G01*
X10315000Y-5400000D02*
G75*
G02*
X10285000Y-5400000I-15000J0D01*
G01*
X10285000Y-5400000D02*
G75*
G02*
X10315000Y-5400000I15000J0D01*
G01*
X10315000Y-6400000D02*
G75*
G02*
X10285000Y-6400000I-15000J0D01*
G01*
X10285000Y-6400000D02*
G75*
G02*
X10315000Y-6400000I15000J0D01*
G01*
X10315000Y-7400000D02*
G75*
G02*
X10285000Y-7400000I-15000J0D01*
G01*
X10285000Y-7400000D02*
G75*
G02*
X10315000Y-7400000I15000J0D01*
G01*
X10378500Y-5736500D02*
G75*
G02*
X10348500Y-5736500I-15000J0D01*
G01*
X10348500Y-5736500D02*
G75*
G02*
X10378500Y-5736500I15000J0D01*
G01*
X10501243Y-5399996D02*
G75*
G02*
X10471243Y-5399996I-15000J0D01*
G01*
X10471243Y-5399996D02*
G75*
G02*
X10501243Y-5399996I15000J0D01*
G01*
X10515000Y-6000000D02*
G75*
G02*
X10485000Y-6000000I-15000J0D01*
G01*
X10485000Y-6000000D02*
G75*
G02*
X10515000Y-6000000I15000J0D01*
G01*
X10515000Y-6400000D02*
G75*
G02*
X10485000Y-6400000I-15000J0D01*
G01*
X10485000Y-6400000D02*
G75*
G02*
X10515000Y-6400000I15000J0D01*
G01*
X10515000Y-7900000D02*
G75*
G02*
X10485000Y-7900000I-15000J0D01*
G01*
X10485000Y-7900000D02*
G75*
G02*
X10515000Y-7900000I15000J0D01*
G01*
X10515000Y-8600000D02*
G75*
G02*
X10485000Y-8600000I-15000J0D01*
G01*
X10485000Y-8600000D02*
G75*
G02*
X10515000Y-8600000I15000J0D01*
G01*
X10515000Y-9100000D02*
G75*
G02*
X10485000Y-9100000I-15000J0D01*
G01*
X10485000Y-9100000D02*
G75*
G02*
X10515000Y-9100000I15000J0D01*
G01*
X10605470Y-9785978D02*
G75*
G02*
X10575470Y-9785978I-15000J0D01*
G01*
X10575470Y-9785978D02*
G75*
G02*
X10605470Y-9785978I15000J0D01*
G01*
X10606209Y-8508791D02*
G75*
G02*
X10576209Y-8508791I-15000J0D01*
G01*
X10576209Y-8508791D02*
G75*
G02*
X10606209Y-8508791I15000J0D01*
G01*
X10615000Y-6200000D02*
G75*
G02*
X10585000Y-6200000I-15000J0D01*
G01*
X10585000Y-6200000D02*
G75*
G02*
X10615000Y-6200000I15000J0D01*
G01*
X10615000Y-8700000D02*
G75*
G02*
X10585000Y-8700000I-15000J0D01*
G01*
X10585000Y-8700000D02*
G75*
G02*
X10615000Y-8700000I15000J0D01*
G01*
X10615000Y-8800000D02*
G75*
G02*
X10585000Y-8800000I-15000J0D01*
G01*
X10585000Y-8800000D02*
G75*
G02*
X10615000Y-8800000I15000J0D01*
G01*
X10615000Y-9000000D02*
G75*
G02*
X10585000Y-9000000I-15000J0D01*
G01*
X10585000Y-9000000D02*
G75*
G02*
X10615000Y-9000000I15000J0D01*
G01*
X10615000Y-9400000D02*
G75*
G02*
X10585000Y-9400000I-15000J0D01*
G01*
X10585000Y-9400000D02*
G75*
G02*
X10615000Y-9400000I15000J0D01*
G01*
X10615000Y-9700000D02*
G75*
G02*
X10585000Y-9700000I-15000J0D01*
G01*
X10585000Y-9700000D02*
G75*
G02*
X10615000Y-9700000I15000J0D01*
G01*
X10615000Y-10700000D02*
G75*
G02*
X10585000Y-10700000I-15000J0D01*
G01*
X10585000Y-10700000D02*
G75*
G02*
X10615000Y-10700000I15000J0D01*
G01*
X10715000Y-5400000D02*
G75*
G02*
X10685000Y-5400000I-15000J0D01*
G01*
X10685000Y-5400000D02*
G75*
G02*
X10715000Y-5400000I15000J0D01*
G01*
X10715000Y-9300000D02*
G75*
G02*
X10685000Y-9300000I-15000J0D01*
G01*
X10685000Y-9300000D02*
G75*
G02*
X10715000Y-9300000I15000J0D01*
G01*
X10783660Y-9172281D02*
G75*
G02*
X10753660Y-9172281I-15000J0D01*
G01*
X10753660Y-9172281D02*
G75*
G02*
X10783660Y-9172281I15000J0D01*
G01*
X10815000Y-7300000D02*
G75*
G02*
X10785000Y-7300000I-15000J0D01*
G01*
X10785000Y-7300000D02*
G75*
G02*
X10815000Y-7300000I15000J0D01*
G01*
X10815000Y-8700000D02*
G75*
G02*
X10785000Y-8700000I-15000J0D01*
G01*
X10785000Y-8700000D02*
G75*
G02*
X10815000Y-8700000I15000J0D01*
G01*
X10815000Y-8900000D02*
G75*
G02*
X10785000Y-8900000I-15000J0D01*
G01*
X10785000Y-8900000D02*
G75*
G02*
X10815000Y-8900000I15000J0D01*
G01*
X10815000Y-10000000D02*
G75*
G02*
X10785000Y-10000000I-15000J0D01*
G01*
X10785000Y-10000000D02*
G75*
G02*
X10815000Y-10000000I15000J0D01*
G01*
X10830054Y-8008279D02*
G75*
G02*
X10800054Y-8008279I-15000J0D01*
G01*
X10800054Y-8008279D02*
G75*
G02*
X10830054Y-8008279I15000J0D01*
G01*
X10915000Y-5700000D02*
G75*
G02*
X10885000Y-5700000I-15000J0D01*
G01*
X10885000Y-5700000D02*
G75*
G02*
X10915000Y-5700000I15000J0D01*
G01*
X10915000Y-10500000D02*
G75*
G02*
X10885000Y-10500000I-15000J0D01*
G01*
X10885000Y-10500000D02*
G75*
G02*
X10915000Y-10500000I15000J0D01*
G01*
X11115000Y-5100000D02*
G75*
G02*
X11085000Y-5100000I-15000J0D01*
G01*
X11085000Y-5100000D02*
G75*
G02*
X11115000Y-5100000I15000J0D01*
G01*
X11215000Y-6900000D02*
G75*
G02*
X11185000Y-6900000I-15000J0D01*
G01*
X11185000Y-6900000D02*
G75*
G02*
X11215000Y-6900000I15000J0D01*
G01*
X11215000Y-7200000D02*
G75*
G02*
X11185000Y-7200000I-15000J0D01*
G01*
X11185000Y-7200000D02*
G75*
G02*
X11215000Y-7200000I15000J0D01*
G01*
X11215000Y-8100000D02*
G75*
G02*
X11185000Y-8100000I-15000J0D01*
G01*
X11185000Y-8100000D02*
G75*
G02*
X11215000Y-8100000I15000J0D01*
G01*
X11215000Y-10200000D02*
G75*
G02*
X11185000Y-10200000I-15000J0D01*
G01*
X11185000Y-10200000D02*
G75*
G02*
X11215000Y-10200000I15000J0D01*
G01*
X11215000Y-10700000D02*
G75*
G02*
X11185000Y-10700000I-15000J0D01*
G01*
X11185000Y-10700000D02*
G75*
G02*
X11215000Y-10700000I15000J0D01*
G01*
X11226243Y-5705942D02*
G75*
G02*
X11196243Y-5705942I-15000J0D01*
G01*
X11196243Y-5705942D02*
G75*
G02*
X11226243Y-5705942I15000J0D01*
G01*
X11415000Y-7000000D02*
G75*
G02*
X11385000Y-7000000I-15000J0D01*
G01*
X11385000Y-7000000D02*
G75*
G02*
X11415000Y-7000000I15000J0D01*
G01*
X11415000Y-7100000D02*
G75*
G02*
X11385000Y-7100000I-15000J0D01*
G01*
X11385000Y-7100000D02*
G75*
G02*
X11415000Y-7100000I15000J0D01*
G01*
X11415000Y-7400000D02*
G75*
G02*
X11385000Y-7400000I-15000J0D01*
G01*
X11385000Y-7400000D02*
G75*
G02*
X11415000Y-7400000I15000J0D01*
G01*
X11515000Y-5900000D02*
G75*
G02*
X11485000Y-5900000I-15000J0D01*
G01*
X11485000Y-5900000D02*
G75*
G02*
X11515000Y-5900000I15000J0D01*
G01*
X11515000Y-7300000D02*
G75*
G02*
X11485000Y-7300000I-15000J0D01*
G01*
X11485000Y-7300000D02*
G75*
G02*
X11515000Y-7300000I15000J0D01*
G01*
X11615000Y-4200000D02*
G75*
G02*
X11585000Y-4200000I-15000J0D01*
G01*
X11585000Y-4200000D02*
G75*
G02*
X11615000Y-4200000I15000J0D01*
G01*
X11615000Y-5900000D02*
G75*
G02*
X11585000Y-5900000I-15000J0D01*
G01*
X11585000Y-5900000D02*
G75*
G02*
X11615000Y-5900000I15000J0D01*
G01*
X11615000Y-6300000D02*
G75*
G02*
X11585000Y-6300000I-15000J0D01*
G01*
X11585000Y-6300000D02*
G75*
G02*
X11615000Y-6300000I15000J0D01*
G01*
X11615000Y-6600000D02*
G75*
G02*
X11585000Y-6600000I-15000J0D01*
G01*
X11585000Y-6600000D02*
G75*
G02*
X11615000Y-6600000I15000J0D01*
G01*
X11615000Y-9200000D02*
G75*
G02*
X11585000Y-9200000I-15000J0D01*
G01*
X11585000Y-9200000D02*
G75*
G02*
X11615000Y-9200000I15000J0D01*
G01*
X11634000Y-6119000D02*
G75*
G02*
X11604000Y-6119000I-15000J0D01*
G01*
X11604000Y-6119000D02*
G75*
G02*
X11634000Y-6119000I15000J0D01*
G01*
X11715000Y-9900000D02*
G75*
G02*
X11685000Y-9900000I-15000J0D01*
G01*
X11685000Y-9900000D02*
G75*
G02*
X11715000Y-9900000I15000J0D01*
G01*
X11740213Y-6653295D02*
G75*
G02*
X11710213Y-6653295I-15000J0D01*
G01*
X11710213Y-6653295D02*
G75*
G02*
X11740213Y-6653295I15000J0D01*
G01*
X11815000Y-6900000D02*
G75*
G02*
X11785000Y-6900000I-15000J0D01*
G01*
X11785000Y-6900000D02*
G75*
G02*
X11815000Y-6900000I15000J0D01*
G01*
X11915000Y-6800000D02*
G75*
G02*
X11885000Y-6800000I-15000J0D01*
G01*
X11885000Y-6800000D02*
G75*
G02*
X11915000Y-6800000I15000J0D01*
G01*
X11915000Y-7600000D02*
G75*
G02*
X11885000Y-7600000I-15000J0D01*
G01*
X11885000Y-7600000D02*
G75*
G02*
X11915000Y-7600000I15000J0D01*
G01*
X12015000Y-5200000D02*
G75*
G02*
X11985000Y-5200000I-15000J0D01*
G01*
X11985000Y-5200000D02*
G75*
G02*
X12015000Y-5200000I15000J0D01*
G01*
X12015000Y-5600000D02*
G75*
G02*
X11985000Y-5600000I-15000J0D01*
G01*
X11985000Y-5600000D02*
G75*
G02*
X12015000Y-5600000I15000J0D01*
G01*
X12115000Y-6400000D02*
G75*
G02*
X12085000Y-6400000I-15000J0D01*
G01*
X12085000Y-6400000D02*
G75*
G02*
X12115000Y-6400000I15000J0D01*
G01*
X12115000Y-8100000D02*
G75*
G02*
X12085000Y-8100000I-15000J0D01*
G01*
X12085000Y-8100000D02*
G75*
G02*
X12115000Y-8100000I15000J0D01*
G01*
X12215000Y-5454000D02*
G75*
G02*
X12185000Y-5454000I-15000J0D01*
G01*
X12185000Y-5454000D02*
G75*
G02*
X12215000Y-5454000I15000J0D01*
G01*
X12297500Y-5682500D02*
G75*
G02*
X12267500Y-5682500I-15000J0D01*
G01*
X12267500Y-5682500D02*
G75*
G02*
X12297500Y-5682500I15000J0D01*
G01*
X12315000Y-4800000D02*
G75*
G02*
X12285000Y-4800000I-15000J0D01*
G01*
X12285000Y-4800000D02*
G75*
G02*
X12315000Y-4800000I15000J0D01*
G01*
X12315000Y-5900000D02*
G75*
G02*
X12285000Y-5900000I-15000J0D01*
G01*
X12285000Y-5900000D02*
G75*
G02*
X12315000Y-5900000I15000J0D01*
G01*
X12515000Y-5600000D02*
G75*
G02*
X12485000Y-5600000I-15000J0D01*
G01*
X12485000Y-5600000D02*
G75*
G02*
X12515000Y-5600000I15000J0D01*
G01*
X7000000Y-4475000D02*
X7000000Y-4525000D01*
X6975000Y-4500000D02*
X7025000Y-4500000D01*
X7100000Y-4475000D02*
X7100000Y-4525000D01*
X7075000Y-4500000D02*
X7125000Y-4500000D01*
X7200000Y-4475000D02*
X7200000Y-4525000D01*
X7175000Y-4500000D02*
X7225000Y-4500000D01*
X7300000Y-4475000D02*
X7300000Y-4525000D01*
X7275000Y-4500000D02*
X7325000Y-4500000D01*
X7400000Y-4475000D02*
X7400000Y-4525000D01*
X7375000Y-4500000D02*
X7425000Y-4500000D01*
X7500000Y-4475000D02*
X7500000Y-4525000D01*
X7475000Y-4500000D02*
X7525000Y-4500000D01*
X7600000Y-4475000D02*
X7600000Y-4525000D01*
X7575000Y-4500000D02*
X7625000Y-4500000D01*
X7700000Y-4475000D02*
X7700000Y-4525000D01*
X7675000Y-4500000D02*
X7725000Y-4500000D01*
X8800000Y-8875000D02*
X8800000Y-8925000D01*
X8775000Y-8900000D02*
X8825000Y-8900000D01*
X9000000Y-7275000D02*
X9000000Y-7325000D01*
X8975000Y-7300000D02*
X9025000Y-7300000D01*
X9041214Y-7654854D02*
X9041214Y-7704854D01*
X9016214Y-7679854D02*
X9066214Y-7679854D01*
X9500000Y-6975000D02*
X9500000Y-7025000D01*
X9475000Y-7000000D02*
X9525000Y-7000000D01*
X9500000Y-7675000D02*
X9500000Y-7725000D01*
X9475000Y-7700000D02*
X9525000Y-7700000D01*
X9500000Y-7775000D02*
X9500000Y-7825000D01*
X9475000Y-7800000D02*
X9525000Y-7800000D01*
X9500000Y-7875000D02*
X9500000Y-7925000D01*
X9475000Y-7900000D02*
X9525000Y-7900000D01*
X9500000Y-7975000D02*
X9500000Y-8025000D01*
X9475000Y-8000000D02*
X9525000Y-8000000D01*
X9500000Y-8075000D02*
X9500000Y-8125000D01*
X9475000Y-8100000D02*
X9525000Y-8100000D01*
X9500000Y-8175000D02*
X9500000Y-8225000D01*
X9475000Y-8200000D02*
X9525000Y-8200000D01*
X9500000Y-8275000D02*
X9500000Y-8325000D01*
X9475000Y-8300000D02*
X9525000Y-8300000D01*
X9500000Y-8375000D02*
X9500000Y-8425000D01*
X9475000Y-8400000D02*
X9525000Y-8400000D01*
X9500000Y-8475000D02*
X9500000Y-8525000D01*
X9475000Y-8500000D02*
X9525000Y-8500000D01*
X9500000Y-8575000D02*
X9500000Y-8625000D01*
X9475000Y-8600000D02*
X9525000Y-8600000D01*
X9500000Y-8675000D02*
X9500000Y-8725000D01*
X9475000Y-8700000D02*
X9525000Y-8700000D01*
X9500000Y-8775000D02*
X9500000Y-8825000D01*
X9475000Y-8800000D02*
X9525000Y-8800000D01*
X9500000Y-8875000D02*
X9500000Y-8925000D01*
X9475000Y-8900000D02*
X9525000Y-8900000D01*
X9500000Y-8975000D02*
X9500000Y-9025000D01*
X9475000Y-9000000D02*
X9525000Y-9000000D01*
X9500000Y-9075000D02*
X9500000Y-9125000D01*
X9475000Y-9100000D02*
X9525000Y-9100000D01*
X9500000Y-9175000D02*
X9500000Y-9225000D01*
X9475000Y-9200000D02*
X9525000Y-9200000D01*
X9500000Y-9275000D02*
X9500000Y-9325000D01*
X9475000Y-9300000D02*
X9525000Y-9300000D01*
X9500000Y-9375000D02*
X9500000Y-9425000D01*
X9475000Y-9400000D02*
X9525000Y-9400000D01*
X9500000Y-9475000D02*
X9500000Y-9525000D01*
X9475000Y-9500000D02*
X9525000Y-9500000D01*
X9500000Y-9575000D02*
X9500000Y-9625000D01*
X9475000Y-9600000D02*
X9525000Y-9600000D01*
X10900000Y-4275000D02*
X10900000Y-4325000D01*
X10875000Y-4300000D02*
X10925000Y-4300000D01*
X11024000Y-7675000D02*
X11024000Y-7725000D01*
X10999000Y-7700000D02*
X11049000Y-7700000D01*
X11024000Y-7775000D02*
X11024000Y-7825000D01*
X10999000Y-7800000D02*
X11049000Y-7800000D01*
X11024000Y-7875000D02*
X11024000Y-7925000D01*
X10999000Y-7900000D02*
X11049000Y-7900000D01*
X11024000Y-7975000D02*
X11024000Y-8025000D01*
X10999000Y-8000000D02*
X11049000Y-8000000D01*
X11024000Y-8075000D02*
X11024000Y-8125000D01*
X10999000Y-8100000D02*
X11049000Y-8100000D01*
X11024000Y-8175000D02*
X11024000Y-8225000D01*
X10999000Y-8200000D02*
X11049000Y-8200000D01*
X11024000Y-8275000D02*
X11024000Y-8325000D01*
X10999000Y-8300000D02*
X11049000Y-8300000D01*
X11024000Y-8375000D02*
X11024000Y-8425000D01*
X10999000Y-8400000D02*
X11049000Y-8400000D01*
X11024000Y-8475000D02*
X11024000Y-8525000D01*
X10999000Y-8500000D02*
X11049000Y-8500000D01*
X11024000Y-8575000D02*
X11024000Y-8625000D01*
X10999000Y-8600000D02*
X11049000Y-8600000D01*
X11024000Y-8675000D02*
X11024000Y-8725000D01*
X10999000Y-8700000D02*
X11049000Y-8700000D01*
X11024000Y-8775000D02*
X11024000Y-8825000D01*
X10999000Y-8800000D02*
X11049000Y-8800000D01*
X11024000Y-8875000D02*
X11024000Y-8925000D01*
X10999000Y-8900000D02*
X11049000Y-8900000D01*
X11024000Y-8975000D02*
X11024000Y-9025000D01*
X10999000Y-9000000D02*
X11049000Y-9000000D01*
X11024000Y-9075000D02*
X11024000Y-9125000D01*
X10999000Y-9100000D02*
X11049000Y-9100000D01*
X11024000Y-9175000D02*
X11024000Y-9225000D01*
X10999000Y-9200000D02*
X11049000Y-9200000D01*
X11024000Y-9275000D02*
X11024000Y-9325000D01*
X10999000Y-9300000D02*
X11049000Y-9300000D01*
X11024000Y-9375000D02*
X11024000Y-9425000D01*
X10999000Y-9400000D02*
X11049000Y-9400000D01*
X11024000Y-9475000D02*
X11024000Y-9525000D01*
X10999000Y-9500000D02*
X11049000Y-9500000D01*
X11024000Y-9575000D02*
X11024000Y-9625000D01*
X10999000Y-9600000D02*
X11049000Y-9600000D01*
X11100000Y-10375000D02*
X11100000Y-10425000D01*
X11075000Y-10400000D02*
X11125000Y-10400000D01*
X11600000Y-8875000D02*
X11600000Y-8925000D01*
X11575000Y-8900000D02*
X11625000Y-8900000D01*
X12400000Y-8375000D02*
X12400000Y-8425000D01*
X12375000Y-8400000D02*
X12425000Y-8400000D01*
X12900000Y-9075000D02*
X12900000Y-9125000D01*
X12875000Y-9100000D02*
X12925000Y-9100000D01*
D13*
X6504063Y-9336063D02*
X6504063Y-9263937D01*
X6431937Y-9263937D01*
X6431937Y-9336063D01*
X6504063Y-9336063D01*
X6504063Y-9636063D02*
X6504063Y-9563937D01*
X6431937Y-9563937D01*
X6431937Y-9636063D01*
X6504063Y-9636063D01*
X6504063Y-9936063D02*
X6504063Y-9863937D01*
X6431937Y-9863937D01*
X6431937Y-9936063D01*
X6504063Y-9936063D01*
X6504063Y-10236063D02*
X6504063Y-10163937D01*
X6431937Y-10163937D01*
X6431937Y-10236063D01*
X6504063Y-10236063D01*
D14*
X6502700Y-5519380D02*
X6556040Y-5466040D01*
X6502700Y-5412700D01*
X6449360Y-5466040D01*
X6502700Y-5519380D01*
X6502700Y-5819380D02*
X6556040Y-5766040D01*
X6502700Y-5712700D01*
X6449360Y-5766040D01*
X6502700Y-5819380D01*
X6502700Y-6119380D02*
X6556040Y-6066040D01*
X6502700Y-6012700D01*
X6449360Y-6066040D01*
X6502700Y-6119380D01*
X12897300Y-9687300D02*
X12950640Y-9633960D01*
X12897300Y-9580620D01*
X12843960Y-9633960D01*
X12897300Y-9687300D01*
X12897300Y-9987300D02*
X12950640Y-9933960D01*
X12897300Y-9880620D01*
X12843960Y-9933960D01*
X12897300Y-9987300D01*
X12897300Y-10287300D02*
X12950640Y-10233960D01*
X12897300Y-10180620D01*
X12843960Y-10233960D01*
X12897300Y-10287300D01*
D11*
X6267500Y-6800000D02*
X6467500Y-7000000D01*
X6467500Y-6800000D02*
X6267500Y-7000000D01*
X6467500Y-6900000D02*
G75*
G02*
X6267500Y-6900000I-100000J0D01*
G01*
X6267500Y-6900000D02*
G75*
G02*
X6467500Y-6900000I100000J0D01*
G01*
X6705000Y-6805000D02*
X6905000Y-7005000D01*
X6905000Y-6805000D02*
X6705000Y-7005000D01*
X6905000Y-6905000D02*
G75*
G02*
X6705000Y-6905000I-100000J0D01*
G01*
X6705000Y-6905000D02*
G75*
G02*
X6905000Y-6905000I100000J0D01*
G01*
X7312500Y-6800000D02*
X7512500Y-7000000D01*
X7512500Y-6800000D02*
X7312500Y-7000000D01*
X7512500Y-6900000D02*
G75*
G02*
X7312500Y-6900000I-100000J0D01*
G01*
X7312500Y-6900000D02*
G75*
G02*
X7512500Y-6900000I100000J0D01*
G01*
X7750000Y-6805000D02*
X7950000Y-7005000D01*
X7950000Y-6805000D02*
X7750000Y-7005000D01*
X7950000Y-6905000D02*
G75*
G02*
X7750000Y-6905000I-100000J0D01*
G01*
X7750000Y-6905000D02*
G75*
G02*
X7950000Y-6905000I100000J0D01*
G01*
X8482500Y-6812500D02*
X8682500Y-7012500D01*
X8682500Y-6812500D02*
X8482500Y-7012500D01*
X8682500Y-6912500D02*
G75*
G02*
X8482500Y-6912500I-100000J0D01*
G01*
X8482500Y-6912500D02*
G75*
G02*
X8682500Y-6912500I100000J0D01*
G01*
X8920000Y-6817500D02*
X9120000Y-7017500D01*
X9120000Y-6817500D02*
X8920000Y-7017500D01*
X9120000Y-6917500D02*
G75*
G02*
X8920000Y-6917500I-100000J0D01*
G01*
X8920000Y-6917500D02*
G75*
G02*
X9120000Y-6917500I100000J0D01*
G01*
X8967500Y-4662500D02*
X9167500Y-4862500D01*
X9167500Y-4662500D02*
X8967500Y-4862500D01*
X9167500Y-4762500D02*
G75*
G02*
X8967500Y-4762500I-100000J0D01*
G01*
X8967500Y-4762500D02*
G75*
G02*
X9167500Y-4762500I100000J0D01*
G01*
X8975000Y-4050000D02*
X9175000Y-4250000D01*
X9175000Y-4050000D02*
X8975000Y-4250000D01*
X9175000Y-4150000D02*
G75*
G02*
X8975000Y-4150000I-100000J0D01*
G01*
X8975000Y-4150000D02*
G75*
G02*
X9175000Y-4150000I100000J0D01*
G01*
X8980000Y-3492500D02*
X9180000Y-3692500D01*
X9180000Y-3492500D02*
X8980000Y-3692500D01*
X9180000Y-3592500D02*
G75*
G02*
X8980000Y-3592500I-100000J0D01*
G01*
X8980000Y-3592500D02*
G75*
G02*
X9180000Y-3592500I100000J0D01*
G01*
X6358277Y-11313984D02*
X6358277Y-11113984D01*
X6358277Y-11113984D02*
X6405896Y-11113984D01*
X6405896Y-11113984D02*
X6434467Y-11123508D01*
X6434467Y-11123508D02*
X6453515Y-11142555D01*
X6453515Y-11142555D02*
X6463039Y-11161603D01*
X6463039Y-11161603D02*
X6472562Y-11199698D01*
X6472562Y-11199698D02*
X6472562Y-11228269D01*
X6472562Y-11228269D02*
X6463039Y-11266365D01*
X6463039Y-11266365D02*
X6453515Y-11285412D01*
X6453515Y-11285412D02*
X6434467Y-11304460D01*
X6434467Y-11304460D02*
X6405896Y-11313984D01*
X6405896Y-11313984D02*
X6358277Y-11313984D01*
X6558277Y-11313984D02*
X6558277Y-11180650D01*
X6558277Y-11218746D02*
X6567801Y-11199698D01*
X6567801Y-11199698D02*
X6577324Y-11190174D01*
X6577324Y-11190174D02*
X6596372Y-11180650D01*
X6596372Y-11180650D02*
X6615420Y-11180650D01*
X6682086Y-11313984D02*
X6682086Y-11180650D01*
X6682086Y-11113984D02*
X6672562Y-11123508D01*
X6672562Y-11123508D02*
X6682086Y-11133031D01*
X6682086Y-11133031D02*
X6691610Y-11123508D01*
X6691610Y-11123508D02*
X6682086Y-11113984D01*
X6682086Y-11113984D02*
X6682086Y-11133031D01*
X6805896Y-11313984D02*
X6786848Y-11304460D01*
X6786848Y-11304460D02*
X6777324Y-11285412D01*
X6777324Y-11285412D02*
X6777324Y-11113984D01*
X6910658Y-11313984D02*
X6891610Y-11304460D01*
X6891610Y-11304460D02*
X6882086Y-11285412D01*
X6882086Y-11285412D02*
X6882086Y-11113984D01*
X7139229Y-11313984D02*
X7139229Y-11113984D01*
X7139229Y-11113984D02*
X7205896Y-11256841D01*
X7205896Y-11256841D02*
X7272562Y-11113984D01*
X7272562Y-11113984D02*
X7272562Y-11313984D01*
X7453515Y-11313984D02*
X7453515Y-11209222D01*
X7453515Y-11209222D02*
X7443991Y-11190174D01*
X7443991Y-11190174D02*
X7424943Y-11180650D01*
X7424943Y-11180650D02*
X7386848Y-11180650D01*
X7386848Y-11180650D02*
X7367801Y-11190174D01*
X7453515Y-11304460D02*
X7434467Y-11313984D01*
X7434467Y-11313984D02*
X7386848Y-11313984D01*
X7386848Y-11313984D02*
X7367801Y-11304460D01*
X7367801Y-11304460D02*
X7358277Y-11285412D01*
X7358277Y-11285412D02*
X7358277Y-11266365D01*
X7358277Y-11266365D02*
X7367801Y-11247317D01*
X7367801Y-11247317D02*
X7386848Y-11237793D01*
X7386848Y-11237793D02*
X7434467Y-11237793D01*
X7434467Y-11237793D02*
X7453515Y-11228269D01*
X7548753Y-11180650D02*
X7548753Y-11380650D01*
X7548753Y-11190174D02*
X7567801Y-11180650D01*
X7567801Y-11180650D02*
X7605896Y-11180650D01*
X7605896Y-11180650D02*
X7624943Y-11190174D01*
X7624943Y-11190174D02*
X7634467Y-11199698D01*
X7634467Y-11199698D02*
X7643991Y-11218746D01*
X7643991Y-11218746D02*
X7643991Y-11275888D01*
X7643991Y-11275888D02*
X7634467Y-11294936D01*
X7634467Y-11294936D02*
X7624943Y-11304460D01*
X7624943Y-11304460D02*
X7605896Y-11313984D01*
X7605896Y-11313984D02*
X7567801Y-11313984D01*
X7567801Y-11313984D02*
X7548753Y-11304460D01*
X7729705Y-11294936D02*
X7739229Y-11304460D01*
X7739229Y-11304460D02*
X7729705Y-11313984D01*
X7729705Y-11313984D02*
X7720182Y-11304460D01*
X7720182Y-11304460D02*
X7729705Y-11294936D01*
X7729705Y-11294936D02*
X7729705Y-11313984D01*
X7729705Y-11190174D02*
X7739229Y-11199698D01*
X7739229Y-11199698D02*
X7729705Y-11209222D01*
X7729705Y-11209222D02*
X7720182Y-11199698D01*
X7720182Y-11199698D02*
X7729705Y-11190174D01*
X7729705Y-11190174D02*
X7729705Y-11209222D01*
D12*
X6077500Y-11632500D02*
X6097500Y-11652500D01*
X6097500Y-11632500D02*
X6077500Y-11652500D01*
D11*
X6396372Y-11533984D02*
X6415420Y-11533984D01*
X6415420Y-11533984D02*
X6434467Y-11543508D01*
X6434467Y-11543508D02*
X6443991Y-11553031D01*
X6443991Y-11553031D02*
X6453515Y-11572079D01*
X6453515Y-11572079D02*
X6463039Y-11610174D01*
X6463039Y-11610174D02*
X6463039Y-11657793D01*
X6463039Y-11657793D02*
X6453515Y-11695888D01*
X6453515Y-11695888D02*
X6443991Y-11714936D01*
X6443991Y-11714936D02*
X6434467Y-11724460D01*
X6434467Y-11724460D02*
X6415420Y-11733984D01*
X6415420Y-11733984D02*
X6396372Y-11733984D01*
X6396372Y-11733984D02*
X6377324Y-11724460D01*
X6377324Y-11724460D02*
X6367801Y-11714936D01*
X6367801Y-11714936D02*
X6358277Y-11695888D01*
X6358277Y-11695888D02*
X6348753Y-11657793D01*
X6348753Y-11657793D02*
X6348753Y-11610174D01*
X6348753Y-11610174D02*
X6358277Y-11572079D01*
X6358277Y-11572079D02*
X6367801Y-11553031D01*
X6367801Y-11553031D02*
X6377324Y-11543508D01*
X6377324Y-11543508D02*
X6396372Y-11533984D01*
X6548753Y-11714936D02*
X6558277Y-11724460D01*
X6558277Y-11724460D02*
X6548753Y-11733984D01*
X6548753Y-11733984D02*
X6539229Y-11724460D01*
X6539229Y-11724460D02*
X6548753Y-11714936D01*
X6548753Y-11714936D02*
X6548753Y-11733984D01*
X6634467Y-11553031D02*
X6643991Y-11543508D01*
X6643991Y-11543508D02*
X6663039Y-11533984D01*
X6663039Y-11533984D02*
X6710658Y-11533984D01*
X6710658Y-11533984D02*
X6729705Y-11543508D01*
X6729705Y-11543508D02*
X6739229Y-11553031D01*
X6739229Y-11553031D02*
X6748753Y-11572079D01*
X6748753Y-11572079D02*
X6748753Y-11591127D01*
X6748753Y-11591127D02*
X6739229Y-11619698D01*
X6739229Y-11619698D02*
X6624943Y-11733984D01*
X6624943Y-11733984D02*
X6748753Y-11733984D01*
X6872562Y-11533984D02*
X6891610Y-11533984D01*
X6891610Y-11533984D02*
X6910658Y-11543508D01*
X6910658Y-11543508D02*
X6920182Y-11553031D01*
X6920182Y-11553031D02*
X6929705Y-11572079D01*
X6929705Y-11572079D02*
X6939229Y-11610174D01*
X6939229Y-11610174D02*
X6939229Y-11657793D01*
X6939229Y-11657793D02*
X6929705Y-11695888D01*
X6929705Y-11695888D02*
X6920182Y-11714936D01*
X6920182Y-11714936D02*
X6910658Y-11724460D01*
X6910658Y-11724460D02*
X6891610Y-11733984D01*
X6891610Y-11733984D02*
X6872562Y-11733984D01*
X6872562Y-11733984D02*
X6853515Y-11724460D01*
X6853515Y-11724460D02*
X6843991Y-11714936D01*
X6843991Y-11714936D02*
X6834467Y-11695888D01*
X6834467Y-11695888D02*
X6824943Y-11657793D01*
X6824943Y-11657793D02*
X6824943Y-11610174D01*
X6824943Y-11610174D02*
X6834467Y-11572079D01*
X6834467Y-11572079D02*
X6843991Y-11553031D01*
X6843991Y-11553031D02*
X6853515Y-11543508D01*
X6853515Y-11543508D02*
X6872562Y-11533984D01*
X7063039Y-11533984D02*
X7082086Y-11533984D01*
X7082086Y-11533984D02*
X7101134Y-11543508D01*
X7101134Y-11543508D02*
X7110658Y-11553031D01*
X7110658Y-11553031D02*
X7120182Y-11572079D01*
X7120182Y-11572079D02*
X7129705Y-11610174D01*
X7129705Y-11610174D02*
X7129705Y-11657793D01*
X7129705Y-11657793D02*
X7120182Y-11695888D01*
X7120182Y-11695888D02*
X7110658Y-11714936D01*
X7110658Y-11714936D02*
X7101134Y-11724460D01*
X7101134Y-11724460D02*
X7082086Y-11733984D01*
X7082086Y-11733984D02*
X7063039Y-11733984D01*
X7063039Y-11733984D02*
X7043991Y-11724460D01*
X7043991Y-11724460D02*
X7034467Y-11714936D01*
X7034467Y-11714936D02*
X7024943Y-11695888D01*
X7024943Y-11695888D02*
X7015420Y-11657793D01*
X7015420Y-11657793D02*
X7015420Y-11610174D01*
X7015420Y-11610174D02*
X7024943Y-11572079D01*
X7024943Y-11572079D02*
X7034467Y-11553031D01*
X7034467Y-11553031D02*
X7043991Y-11543508D01*
X7043991Y-11543508D02*
X7063039Y-11533984D01*
X7215420Y-11733984D02*
X7215420Y-11600650D01*
X7215420Y-11619698D02*
X7224943Y-11610174D01*
X7224943Y-11610174D02*
X7243991Y-11600650D01*
X7243991Y-11600650D02*
X7272563Y-11600650D01*
X7272563Y-11600650D02*
X7291610Y-11610174D01*
X7291610Y-11610174D02*
X7301134Y-11629222D01*
X7301134Y-11629222D02*
X7301134Y-11733984D01*
X7301134Y-11629222D02*
X7310658Y-11610174D01*
X7310658Y-11610174D02*
X7329705Y-11600650D01*
X7329705Y-11600650D02*
X7358277Y-11600650D01*
X7358277Y-11600650D02*
X7377324Y-11610174D01*
X7377324Y-11610174D02*
X7386848Y-11629222D01*
X7386848Y-11629222D02*
X7386848Y-11733984D01*
X7482086Y-11733984D02*
X7482086Y-11600650D01*
X7482086Y-11619698D02*
X7491610Y-11610174D01*
X7491610Y-11610174D02*
X7510658Y-11600650D01*
X7510658Y-11600650D02*
X7539229Y-11600650D01*
X7539229Y-11600650D02*
X7558277Y-11610174D01*
X7558277Y-11610174D02*
X7567801Y-11629222D01*
X7567801Y-11629222D02*
X7567801Y-11733984D01*
X7567801Y-11629222D02*
X7577324Y-11610174D01*
X7577324Y-11610174D02*
X7596372Y-11600650D01*
X7596372Y-11600650D02*
X7624943Y-11600650D01*
X7624943Y-11600650D02*
X7643991Y-11610174D01*
X7643991Y-11610174D02*
X7653515Y-11629222D01*
X7653515Y-11629222D02*
X7653515Y-11733984D01*
X8043991Y-11524460D02*
X7872563Y-11781603D01*
X8301134Y-11533984D02*
X8320182Y-11533984D01*
X8320182Y-11533984D02*
X8339229Y-11543508D01*
X8339229Y-11543508D02*
X8348753Y-11553031D01*
X8348753Y-11553031D02*
X8358277Y-11572079D01*
X8358277Y-11572079D02*
X8367801Y-11610174D01*
X8367801Y-11610174D02*
X8367801Y-11657793D01*
X8367801Y-11657793D02*
X8358277Y-11695888D01*
X8358277Y-11695888D02*
X8348753Y-11714936D01*
X8348753Y-11714936D02*
X8339229Y-11724460D01*
X8339229Y-11724460D02*
X8320182Y-11733984D01*
X8320182Y-11733984D02*
X8301134Y-11733984D01*
X8301134Y-11733984D02*
X8282086Y-11724460D01*
X8282086Y-11724460D02*
X8272563Y-11714936D01*
X8272563Y-11714936D02*
X8263039Y-11695888D01*
X8263039Y-11695888D02*
X8253515Y-11657793D01*
X8253515Y-11657793D02*
X8253515Y-11610174D01*
X8253515Y-11610174D02*
X8263039Y-11572079D01*
X8263039Y-11572079D02*
X8272563Y-11553031D01*
X8272563Y-11553031D02*
X8282086Y-11543508D01*
X8282086Y-11543508D02*
X8301134Y-11533984D01*
X8453515Y-11714936D02*
X8463039Y-11724460D01*
X8463039Y-11724460D02*
X8453515Y-11733984D01*
X8453515Y-11733984D02*
X8443991Y-11724460D01*
X8443991Y-11724460D02*
X8453515Y-11714936D01*
X8453515Y-11714936D02*
X8453515Y-11733984D01*
X8586848Y-11533984D02*
X8605896Y-11533984D01*
X8605896Y-11533984D02*
X8624944Y-11543508D01*
X8624944Y-11543508D02*
X8634468Y-11553031D01*
X8634468Y-11553031D02*
X8643991Y-11572079D01*
X8643991Y-11572079D02*
X8653515Y-11610174D01*
X8653515Y-11610174D02*
X8653515Y-11657793D01*
X8653515Y-11657793D02*
X8643991Y-11695888D01*
X8643991Y-11695888D02*
X8634468Y-11714936D01*
X8634468Y-11714936D02*
X8624944Y-11724460D01*
X8624944Y-11724460D02*
X8605896Y-11733984D01*
X8605896Y-11733984D02*
X8586848Y-11733984D01*
X8586848Y-11733984D02*
X8567801Y-11724460D01*
X8567801Y-11724460D02*
X8558277Y-11714936D01*
X8558277Y-11714936D02*
X8548753Y-11695888D01*
X8548753Y-11695888D02*
X8539229Y-11657793D01*
X8539229Y-11657793D02*
X8539229Y-11610174D01*
X8539229Y-11610174D02*
X8548753Y-11572079D01*
X8548753Y-11572079D02*
X8558277Y-11553031D01*
X8558277Y-11553031D02*
X8567801Y-11543508D01*
X8567801Y-11543508D02*
X8586848Y-11533984D01*
X8777325Y-11533984D02*
X8796372Y-11533984D01*
X8796372Y-11533984D02*
X8815420Y-11543508D01*
X8815420Y-11543508D02*
X8824944Y-11553031D01*
X8824944Y-11553031D02*
X8834468Y-11572079D01*
X8834468Y-11572079D02*
X8843991Y-11610174D01*
X8843991Y-11610174D02*
X8843991Y-11657793D01*
X8843991Y-11657793D02*
X8834468Y-11695888D01*
X8834468Y-11695888D02*
X8824944Y-11714936D01*
X8824944Y-11714936D02*
X8815420Y-11724460D01*
X8815420Y-11724460D02*
X8796372Y-11733984D01*
X8796372Y-11733984D02*
X8777325Y-11733984D01*
X8777325Y-11733984D02*
X8758277Y-11724460D01*
X8758277Y-11724460D02*
X8748753Y-11714936D01*
X8748753Y-11714936D02*
X8739229Y-11695888D01*
X8739229Y-11695888D02*
X8729706Y-11657793D01*
X8729706Y-11657793D02*
X8729706Y-11610174D01*
X8729706Y-11610174D02*
X8739229Y-11572079D01*
X8739229Y-11572079D02*
X8748753Y-11553031D01*
X8748753Y-11553031D02*
X8758277Y-11543508D01*
X8758277Y-11543508D02*
X8777325Y-11533984D01*
X8910658Y-11533984D02*
X9043991Y-11533984D01*
X9043991Y-11533984D02*
X8958277Y-11733984D01*
X9129706Y-11733984D02*
X9167801Y-11733984D01*
X9167801Y-11733984D02*
X9186849Y-11724460D01*
X9186849Y-11724460D02*
X9196372Y-11714936D01*
X9196372Y-11714936D02*
X9215420Y-11686365D01*
X9215420Y-11686365D02*
X9224944Y-11648269D01*
X9224944Y-11648269D02*
X9224944Y-11572079D01*
X9224944Y-11572079D02*
X9215420Y-11553031D01*
X9215420Y-11553031D02*
X9205896Y-11543508D01*
X9205896Y-11543508D02*
X9186849Y-11533984D01*
X9186849Y-11533984D02*
X9148753Y-11533984D01*
X9148753Y-11533984D02*
X9129706Y-11543508D01*
X9129706Y-11543508D02*
X9120182Y-11553031D01*
X9120182Y-11553031D02*
X9110658Y-11572079D01*
X9110658Y-11572079D02*
X9110658Y-11619698D01*
X9110658Y-11619698D02*
X9120182Y-11638746D01*
X9120182Y-11638746D02*
X9129706Y-11648269D01*
X9129706Y-11648269D02*
X9148753Y-11657793D01*
X9148753Y-11657793D02*
X9186849Y-11657793D01*
X9186849Y-11657793D02*
X9205896Y-11648269D01*
X9205896Y-11648269D02*
X9215420Y-11638746D01*
X9215420Y-11638746D02*
X9224944Y-11619698D01*
X9301134Y-11533984D02*
X9301134Y-11572079D01*
X9377325Y-11533984D02*
X9377325Y-11572079D01*
X9672563Y-11810174D02*
X9663039Y-11800650D01*
X9663039Y-11800650D02*
X9643991Y-11772079D01*
X9643991Y-11772079D02*
X9634468Y-11753031D01*
X9634468Y-11753031D02*
X9624944Y-11724460D01*
X9624944Y-11724460D02*
X9615420Y-11676841D01*
X9615420Y-11676841D02*
X9615420Y-11638746D01*
X9615420Y-11638746D02*
X9624944Y-11591127D01*
X9624944Y-11591127D02*
X9634468Y-11562555D01*
X9634468Y-11562555D02*
X9643991Y-11543508D01*
X9643991Y-11543508D02*
X9663039Y-11514936D01*
X9663039Y-11514936D02*
X9672563Y-11505412D01*
X9853515Y-11733984D02*
X9739230Y-11733984D01*
X9796372Y-11733984D02*
X9796372Y-11533984D01*
X9796372Y-11533984D02*
X9777325Y-11562555D01*
X9777325Y-11562555D02*
X9758277Y-11581603D01*
X9758277Y-11581603D02*
X9739230Y-11591127D01*
X9929706Y-11553031D02*
X9939230Y-11543508D01*
X9939230Y-11543508D02*
X9958277Y-11533984D01*
X9958277Y-11533984D02*
X10005896Y-11533984D01*
X10005896Y-11533984D02*
X10024944Y-11543508D01*
X10024944Y-11543508D02*
X10034468Y-11553031D01*
X10034468Y-11553031D02*
X10043991Y-11572079D01*
X10043991Y-11572079D02*
X10043991Y-11591127D01*
X10043991Y-11591127D02*
X10034468Y-11619698D01*
X10034468Y-11619698D02*
X9920182Y-11733984D01*
X9920182Y-11733984D02*
X10043991Y-11733984D01*
X10282087Y-11733984D02*
X10282087Y-11533984D01*
X10367801Y-11733984D02*
X10367801Y-11629222D01*
X10367801Y-11629222D02*
X10358277Y-11610174D01*
X10358277Y-11610174D02*
X10339230Y-11600650D01*
X10339230Y-11600650D02*
X10310658Y-11600650D01*
X10310658Y-11600650D02*
X10291611Y-11610174D01*
X10291611Y-11610174D02*
X10282087Y-11619698D01*
X10491611Y-11733984D02*
X10472563Y-11724460D01*
X10472563Y-11724460D02*
X10463039Y-11714936D01*
X10463039Y-11714936D02*
X10453515Y-11695888D01*
X10453515Y-11695888D02*
X10453515Y-11638746D01*
X10453515Y-11638746D02*
X10463039Y-11619698D01*
X10463039Y-11619698D02*
X10472563Y-11610174D01*
X10472563Y-11610174D02*
X10491611Y-11600650D01*
X10491611Y-11600650D02*
X10520182Y-11600650D01*
X10520182Y-11600650D02*
X10539230Y-11610174D01*
X10539230Y-11610174D02*
X10548753Y-11619698D01*
X10548753Y-11619698D02*
X10558277Y-11638746D01*
X10558277Y-11638746D02*
X10558277Y-11695888D01*
X10558277Y-11695888D02*
X10548753Y-11714936D01*
X10548753Y-11714936D02*
X10539230Y-11724460D01*
X10539230Y-11724460D02*
X10520182Y-11733984D01*
X10520182Y-11733984D02*
X10491611Y-11733984D01*
X10672563Y-11733984D02*
X10653515Y-11724460D01*
X10653515Y-11724460D02*
X10643992Y-11705412D01*
X10643992Y-11705412D02*
X10643992Y-11533984D01*
X10824944Y-11724460D02*
X10805896Y-11733984D01*
X10805896Y-11733984D02*
X10767801Y-11733984D01*
X10767801Y-11733984D02*
X10748753Y-11724460D01*
X10748753Y-11724460D02*
X10739230Y-11705412D01*
X10739230Y-11705412D02*
X10739230Y-11629222D01*
X10739230Y-11629222D02*
X10748753Y-11610174D01*
X10748753Y-11610174D02*
X10767801Y-11600650D01*
X10767801Y-11600650D02*
X10805896Y-11600650D01*
X10805896Y-11600650D02*
X10824944Y-11610174D01*
X10824944Y-11610174D02*
X10834468Y-11629222D01*
X10834468Y-11629222D02*
X10834468Y-11648269D01*
X10834468Y-11648269D02*
X10739230Y-11667317D01*
X10910658Y-11724460D02*
X10929706Y-11733984D01*
X10929706Y-11733984D02*
X10967801Y-11733984D01*
X10967801Y-11733984D02*
X10986849Y-11724460D01*
X10986849Y-11724460D02*
X10996373Y-11705412D01*
X10996373Y-11705412D02*
X10996373Y-11695888D01*
X10996373Y-11695888D02*
X10986849Y-11676841D01*
X10986849Y-11676841D02*
X10967801Y-11667317D01*
X10967801Y-11667317D02*
X10939230Y-11667317D01*
X10939230Y-11667317D02*
X10920182Y-11657793D01*
X10920182Y-11657793D02*
X10910658Y-11638746D01*
X10910658Y-11638746D02*
X10910658Y-11629222D01*
X10910658Y-11629222D02*
X10920182Y-11610174D01*
X10920182Y-11610174D02*
X10939230Y-11600650D01*
X10939230Y-11600650D02*
X10967801Y-11600650D01*
X10967801Y-11600650D02*
X10986849Y-11610174D01*
X11063039Y-11810174D02*
X11072563Y-11800650D01*
X11072563Y-11800650D02*
X11091611Y-11772079D01*
X11091611Y-11772079D02*
X11101134Y-11753031D01*
X11101134Y-11753031D02*
X11110658Y-11724460D01*
X11110658Y-11724460D02*
X11120182Y-11676841D01*
X11120182Y-11676841D02*
X11120182Y-11638746D01*
X11120182Y-11638746D02*
X11110658Y-11591127D01*
X11110658Y-11591127D02*
X11101134Y-11562555D01*
X11101134Y-11562555D02*
X11091611Y-11543508D01*
X11091611Y-11543508D02*
X11072563Y-11514936D01*
X11072563Y-11514936D02*
X11063039Y-11505412D01*
D12*
X6097500Y-11906500D02*
G75*
G02*
X6067500Y-11906500I-15000J0D01*
G01*
X6067500Y-11906500D02*
G75*
G02*
X6097500Y-11906500I15000J0D01*
G01*
D11*
X6396372Y-11797984D02*
X6415420Y-11797984D01*
X6415420Y-11797984D02*
X6434467Y-11807508D01*
X6434467Y-11807508D02*
X6443991Y-11817031D01*
X6443991Y-11817031D02*
X6453515Y-11836079D01*
X6453515Y-11836079D02*
X6463039Y-11874174D01*
X6463039Y-11874174D02*
X6463039Y-11921793D01*
X6463039Y-11921793D02*
X6453515Y-11959888D01*
X6453515Y-11959888D02*
X6443991Y-11978936D01*
X6443991Y-11978936D02*
X6434467Y-11988460D01*
X6434467Y-11988460D02*
X6415420Y-11997984D01*
X6415420Y-11997984D02*
X6396372Y-11997984D01*
X6396372Y-11997984D02*
X6377324Y-11988460D01*
X6377324Y-11988460D02*
X6367801Y-11978936D01*
X6367801Y-11978936D02*
X6358277Y-11959888D01*
X6358277Y-11959888D02*
X6348753Y-11921793D01*
X6348753Y-11921793D02*
X6348753Y-11874174D01*
X6348753Y-11874174D02*
X6358277Y-11836079D01*
X6358277Y-11836079D02*
X6367801Y-11817031D01*
X6367801Y-11817031D02*
X6377324Y-11807508D01*
X6377324Y-11807508D02*
X6396372Y-11797984D01*
X6548753Y-11978936D02*
X6558277Y-11988460D01*
X6558277Y-11988460D02*
X6548753Y-11997984D01*
X6548753Y-11997984D02*
X6539229Y-11988460D01*
X6539229Y-11988460D02*
X6548753Y-11978936D01*
X6548753Y-11978936D02*
X6548753Y-11997984D01*
X6624943Y-11797984D02*
X6748753Y-11797984D01*
X6748753Y-11797984D02*
X6682086Y-11874174D01*
X6682086Y-11874174D02*
X6710658Y-11874174D01*
X6710658Y-11874174D02*
X6729705Y-11883698D01*
X6729705Y-11883698D02*
X6739229Y-11893222D01*
X6739229Y-11893222D02*
X6748753Y-11912269D01*
X6748753Y-11912269D02*
X6748753Y-11959888D01*
X6748753Y-11959888D02*
X6739229Y-11978936D01*
X6739229Y-11978936D02*
X6729705Y-11988460D01*
X6729705Y-11988460D02*
X6710658Y-11997984D01*
X6710658Y-11997984D02*
X6653515Y-11997984D01*
X6653515Y-11997984D02*
X6634467Y-11988460D01*
X6634467Y-11988460D02*
X6624943Y-11978936D01*
X6872562Y-11797984D02*
X6891610Y-11797984D01*
X6891610Y-11797984D02*
X6910658Y-11807508D01*
X6910658Y-11807508D02*
X6920182Y-11817031D01*
X6920182Y-11817031D02*
X6929705Y-11836079D01*
X6929705Y-11836079D02*
X6939229Y-11874174D01*
X6939229Y-11874174D02*
X6939229Y-11921793D01*
X6939229Y-11921793D02*
X6929705Y-11959888D01*
X6929705Y-11959888D02*
X6920182Y-11978936D01*
X6920182Y-11978936D02*
X6910658Y-11988460D01*
X6910658Y-11988460D02*
X6891610Y-11997984D01*
X6891610Y-11997984D02*
X6872562Y-11997984D01*
X6872562Y-11997984D02*
X6853515Y-11988460D01*
X6853515Y-11988460D02*
X6843991Y-11978936D01*
X6843991Y-11978936D02*
X6834467Y-11959888D01*
X6834467Y-11959888D02*
X6824943Y-11921793D01*
X6824943Y-11921793D02*
X6824943Y-11874174D01*
X6824943Y-11874174D02*
X6834467Y-11836079D01*
X6834467Y-11836079D02*
X6843991Y-11817031D01*
X6843991Y-11817031D02*
X6853515Y-11807508D01*
X6853515Y-11807508D02*
X6872562Y-11797984D01*
X7063039Y-11797984D02*
X7082086Y-11797984D01*
X7082086Y-11797984D02*
X7101134Y-11807508D01*
X7101134Y-11807508D02*
X7110658Y-11817031D01*
X7110658Y-11817031D02*
X7120182Y-11836079D01*
X7120182Y-11836079D02*
X7129705Y-11874174D01*
X7129705Y-11874174D02*
X7129705Y-11921793D01*
X7129705Y-11921793D02*
X7120182Y-11959888D01*
X7120182Y-11959888D02*
X7110658Y-11978936D01*
X7110658Y-11978936D02*
X7101134Y-11988460D01*
X7101134Y-11988460D02*
X7082086Y-11997984D01*
X7082086Y-11997984D02*
X7063039Y-11997984D01*
X7063039Y-11997984D02*
X7043991Y-11988460D01*
X7043991Y-11988460D02*
X7034467Y-11978936D01*
X7034467Y-11978936D02*
X7024943Y-11959888D01*
X7024943Y-11959888D02*
X7015420Y-11921793D01*
X7015420Y-11921793D02*
X7015420Y-11874174D01*
X7015420Y-11874174D02*
X7024943Y-11836079D01*
X7024943Y-11836079D02*
X7034467Y-11817031D01*
X7034467Y-11817031D02*
X7043991Y-11807508D01*
X7043991Y-11807508D02*
X7063039Y-11797984D01*
X7215420Y-11997984D02*
X7215420Y-11864650D01*
X7215420Y-11883698D02*
X7224943Y-11874174D01*
X7224943Y-11874174D02*
X7243991Y-11864650D01*
X7243991Y-11864650D02*
X7272563Y-11864650D01*
X7272563Y-11864650D02*
X7291610Y-11874174D01*
X7291610Y-11874174D02*
X7301134Y-11893222D01*
X7301134Y-11893222D02*
X7301134Y-11997984D01*
X7301134Y-11893222D02*
X7310658Y-11874174D01*
X7310658Y-11874174D02*
X7329705Y-11864650D01*
X7329705Y-11864650D02*
X7358277Y-11864650D01*
X7358277Y-11864650D02*
X7377324Y-11874174D01*
X7377324Y-11874174D02*
X7386848Y-11893222D01*
X7386848Y-11893222D02*
X7386848Y-11997984D01*
X7482086Y-11997984D02*
X7482086Y-11864650D01*
X7482086Y-11883698D02*
X7491610Y-11874174D01*
X7491610Y-11874174D02*
X7510658Y-11864650D01*
X7510658Y-11864650D02*
X7539229Y-11864650D01*
X7539229Y-11864650D02*
X7558277Y-11874174D01*
X7558277Y-11874174D02*
X7567801Y-11893222D01*
X7567801Y-11893222D02*
X7567801Y-11997984D01*
X7567801Y-11893222D02*
X7577324Y-11874174D01*
X7577324Y-11874174D02*
X7596372Y-11864650D01*
X7596372Y-11864650D02*
X7624943Y-11864650D01*
X7624943Y-11864650D02*
X7643991Y-11874174D01*
X7643991Y-11874174D02*
X7653515Y-11893222D01*
X7653515Y-11893222D02*
X7653515Y-11997984D01*
X8043991Y-11788460D02*
X7872563Y-12045603D01*
X8301134Y-11797984D02*
X8320182Y-11797984D01*
X8320182Y-11797984D02*
X8339229Y-11807508D01*
X8339229Y-11807508D02*
X8348753Y-11817031D01*
X8348753Y-11817031D02*
X8358277Y-11836079D01*
X8358277Y-11836079D02*
X8367801Y-11874174D01*
X8367801Y-11874174D02*
X8367801Y-11921793D01*
X8367801Y-11921793D02*
X8358277Y-11959888D01*
X8358277Y-11959888D02*
X8348753Y-11978936D01*
X8348753Y-11978936D02*
X8339229Y-11988460D01*
X8339229Y-11988460D02*
X8320182Y-11997984D01*
X8320182Y-11997984D02*
X8301134Y-11997984D01*
X8301134Y-11997984D02*
X8282086Y-11988460D01*
X8282086Y-11988460D02*
X8272563Y-11978936D01*
X8272563Y-11978936D02*
X8263039Y-11959888D01*
X8263039Y-11959888D02*
X8253515Y-11921793D01*
X8253515Y-11921793D02*
X8253515Y-11874174D01*
X8253515Y-11874174D02*
X8263039Y-11836079D01*
X8263039Y-11836079D02*
X8272563Y-11817031D01*
X8272563Y-11817031D02*
X8282086Y-11807508D01*
X8282086Y-11807508D02*
X8301134Y-11797984D01*
X8453515Y-11978936D02*
X8463039Y-11988460D01*
X8463039Y-11988460D02*
X8453515Y-11997984D01*
X8453515Y-11997984D02*
X8443991Y-11988460D01*
X8443991Y-11988460D02*
X8453515Y-11978936D01*
X8453515Y-11978936D02*
X8453515Y-11997984D01*
X8586848Y-11797984D02*
X8605896Y-11797984D01*
X8605896Y-11797984D02*
X8624944Y-11807508D01*
X8624944Y-11807508D02*
X8634468Y-11817031D01*
X8634468Y-11817031D02*
X8643991Y-11836079D01*
X8643991Y-11836079D02*
X8653515Y-11874174D01*
X8653515Y-11874174D02*
X8653515Y-11921793D01*
X8653515Y-11921793D02*
X8643991Y-11959888D01*
X8643991Y-11959888D02*
X8634468Y-11978936D01*
X8634468Y-11978936D02*
X8624944Y-11988460D01*
X8624944Y-11988460D02*
X8605896Y-11997984D01*
X8605896Y-11997984D02*
X8586848Y-11997984D01*
X8586848Y-11997984D02*
X8567801Y-11988460D01*
X8567801Y-11988460D02*
X8558277Y-11978936D01*
X8558277Y-11978936D02*
X8548753Y-11959888D01*
X8548753Y-11959888D02*
X8539229Y-11921793D01*
X8539229Y-11921793D02*
X8539229Y-11874174D01*
X8539229Y-11874174D02*
X8548753Y-11836079D01*
X8548753Y-11836079D02*
X8558277Y-11817031D01*
X8558277Y-11817031D02*
X8567801Y-11807508D01*
X8567801Y-11807508D02*
X8586848Y-11797984D01*
X8843991Y-11997984D02*
X8729706Y-11997984D01*
X8786848Y-11997984D02*
X8786848Y-11797984D01*
X8786848Y-11797984D02*
X8767801Y-11826555D01*
X8767801Y-11826555D02*
X8748753Y-11845603D01*
X8748753Y-11845603D02*
X8729706Y-11855127D01*
X9034468Y-11997984D02*
X8920182Y-11997984D01*
X8977325Y-11997984D02*
X8977325Y-11797984D01*
X8977325Y-11797984D02*
X8958277Y-11826555D01*
X8958277Y-11826555D02*
X8939229Y-11845603D01*
X8939229Y-11845603D02*
X8920182Y-11855127D01*
X9148753Y-11883698D02*
X9129706Y-11874174D01*
X9129706Y-11874174D02*
X9120182Y-11864650D01*
X9120182Y-11864650D02*
X9110658Y-11845603D01*
X9110658Y-11845603D02*
X9110658Y-11836079D01*
X9110658Y-11836079D02*
X9120182Y-11817031D01*
X9120182Y-11817031D02*
X9129706Y-11807508D01*
X9129706Y-11807508D02*
X9148753Y-11797984D01*
X9148753Y-11797984D02*
X9186849Y-11797984D01*
X9186849Y-11797984D02*
X9205896Y-11807508D01*
X9205896Y-11807508D02*
X9215420Y-11817031D01*
X9215420Y-11817031D02*
X9224944Y-11836079D01*
X9224944Y-11836079D02*
X9224944Y-11845603D01*
X9224944Y-11845603D02*
X9215420Y-11864650D01*
X9215420Y-11864650D02*
X9205896Y-11874174D01*
X9205896Y-11874174D02*
X9186849Y-11883698D01*
X9186849Y-11883698D02*
X9148753Y-11883698D01*
X9148753Y-11883698D02*
X9129706Y-11893222D01*
X9129706Y-11893222D02*
X9120182Y-11902746D01*
X9120182Y-11902746D02*
X9110658Y-11921793D01*
X9110658Y-11921793D02*
X9110658Y-11959888D01*
X9110658Y-11959888D02*
X9120182Y-11978936D01*
X9120182Y-11978936D02*
X9129706Y-11988460D01*
X9129706Y-11988460D02*
X9148753Y-11997984D01*
X9148753Y-11997984D02*
X9186849Y-11997984D01*
X9186849Y-11997984D02*
X9205896Y-11988460D01*
X9205896Y-11988460D02*
X9215420Y-11978936D01*
X9215420Y-11978936D02*
X9224944Y-11959888D01*
X9224944Y-11959888D02*
X9224944Y-11921793D01*
X9224944Y-11921793D02*
X9215420Y-11902746D01*
X9215420Y-11902746D02*
X9205896Y-11893222D01*
X9205896Y-11893222D02*
X9186849Y-11883698D01*
X9301134Y-11797984D02*
X9301134Y-11836079D01*
X9377325Y-11797984D02*
X9377325Y-11836079D01*
X9672563Y-12074174D02*
X9663039Y-12064650D01*
X9663039Y-12064650D02*
X9643991Y-12036079D01*
X9643991Y-12036079D02*
X9634468Y-12017031D01*
X9634468Y-12017031D02*
X9624944Y-11988460D01*
X9624944Y-11988460D02*
X9615420Y-11940841D01*
X9615420Y-11940841D02*
X9615420Y-11902746D01*
X9615420Y-11902746D02*
X9624944Y-11855127D01*
X9624944Y-11855127D02*
X9634468Y-11826555D01*
X9634468Y-11826555D02*
X9643991Y-11807508D01*
X9643991Y-11807508D02*
X9663039Y-11778936D01*
X9663039Y-11778936D02*
X9672563Y-11769412D01*
X9853515Y-11997984D02*
X9739230Y-11997984D01*
X9796372Y-11997984D02*
X9796372Y-11797984D01*
X9796372Y-11797984D02*
X9777325Y-11826555D01*
X9777325Y-11826555D02*
X9758277Y-11845603D01*
X9758277Y-11845603D02*
X9739230Y-11855127D01*
X9948753Y-11997984D02*
X9986849Y-11997984D01*
X9986849Y-11997984D02*
X10005896Y-11988460D01*
X10005896Y-11988460D02*
X10015420Y-11978936D01*
X10015420Y-11978936D02*
X10034468Y-11950365D01*
X10034468Y-11950365D02*
X10043991Y-11912269D01*
X10043991Y-11912269D02*
X10043991Y-11836079D01*
X10043991Y-11836079D02*
X10034468Y-11817031D01*
X10034468Y-11817031D02*
X10024944Y-11807508D01*
X10024944Y-11807508D02*
X10005896Y-11797984D01*
X10005896Y-11797984D02*
X9967801Y-11797984D01*
X9967801Y-11797984D02*
X9948753Y-11807508D01*
X9948753Y-11807508D02*
X9939230Y-11817031D01*
X9939230Y-11817031D02*
X9929706Y-11836079D01*
X9929706Y-11836079D02*
X9929706Y-11883698D01*
X9929706Y-11883698D02*
X9939230Y-11902746D01*
X9939230Y-11902746D02*
X9948753Y-11912269D01*
X9948753Y-11912269D02*
X9967801Y-11921793D01*
X9967801Y-11921793D02*
X10005896Y-11921793D01*
X10005896Y-11921793D02*
X10024944Y-11912269D01*
X10024944Y-11912269D02*
X10034468Y-11902746D01*
X10034468Y-11902746D02*
X10043991Y-11883698D01*
X10110658Y-11797984D02*
X10243991Y-11797984D01*
X10243991Y-11797984D02*
X10158277Y-11997984D01*
X10472563Y-11997984D02*
X10472563Y-11797984D01*
X10558277Y-11997984D02*
X10558277Y-11893222D01*
X10558277Y-11893222D02*
X10548753Y-11874174D01*
X10548753Y-11874174D02*
X10529706Y-11864650D01*
X10529706Y-11864650D02*
X10501134Y-11864650D01*
X10501134Y-11864650D02*
X10482087Y-11874174D01*
X10482087Y-11874174D02*
X10472563Y-11883698D01*
X10682087Y-11997984D02*
X10663039Y-11988460D01*
X10663039Y-11988460D02*
X10653515Y-11978936D01*
X10653515Y-11978936D02*
X10643992Y-11959888D01*
X10643992Y-11959888D02*
X10643992Y-11902746D01*
X10643992Y-11902746D02*
X10653515Y-11883698D01*
X10653515Y-11883698D02*
X10663039Y-11874174D01*
X10663039Y-11874174D02*
X10682087Y-11864650D01*
X10682087Y-11864650D02*
X10710658Y-11864650D01*
X10710658Y-11864650D02*
X10729706Y-11874174D01*
X10729706Y-11874174D02*
X10739230Y-11883698D01*
X10739230Y-11883698D02*
X10748753Y-11902746D01*
X10748753Y-11902746D02*
X10748753Y-11959888D01*
X10748753Y-11959888D02*
X10739230Y-11978936D01*
X10739230Y-11978936D02*
X10729706Y-11988460D01*
X10729706Y-11988460D02*
X10710658Y-11997984D01*
X10710658Y-11997984D02*
X10682087Y-11997984D01*
X10863039Y-11997984D02*
X10843992Y-11988460D01*
X10843992Y-11988460D02*
X10834468Y-11969412D01*
X10834468Y-11969412D02*
X10834468Y-11797984D01*
X11015420Y-11988460D02*
X10996373Y-11997984D01*
X10996373Y-11997984D02*
X10958277Y-11997984D01*
X10958277Y-11997984D02*
X10939230Y-11988460D01*
X10939230Y-11988460D02*
X10929706Y-11969412D01*
X10929706Y-11969412D02*
X10929706Y-11893222D01*
X10929706Y-11893222D02*
X10939230Y-11874174D01*
X10939230Y-11874174D02*
X10958277Y-11864650D01*
X10958277Y-11864650D02*
X10996373Y-11864650D01*
X10996373Y-11864650D02*
X11015420Y-11874174D01*
X11015420Y-11874174D02*
X11024944Y-11893222D01*
X11024944Y-11893222D02*
X11024944Y-11912269D01*
X11024944Y-11912269D02*
X10929706Y-11931317D01*
X11101134Y-11988460D02*
X11120182Y-11997984D01*
X11120182Y-11997984D02*
X11158277Y-11997984D01*
X11158277Y-11997984D02*
X11177325Y-11988460D01*
X11177325Y-11988460D02*
X11186849Y-11969412D01*
X11186849Y-11969412D02*
X11186849Y-11959888D01*
X11186849Y-11959888D02*
X11177325Y-11940841D01*
X11177325Y-11940841D02*
X11158277Y-11931317D01*
X11158277Y-11931317D02*
X11129706Y-11931317D01*
X11129706Y-11931317D02*
X11110658Y-11921793D01*
X11110658Y-11921793D02*
X11101134Y-11902746D01*
X11101134Y-11902746D02*
X11101134Y-11893222D01*
X11101134Y-11893222D02*
X11110658Y-11874174D01*
X11110658Y-11874174D02*
X11129706Y-11864650D01*
X11129706Y-11864650D02*
X11158277Y-11864650D01*
X11158277Y-11864650D02*
X11177325Y-11874174D01*
X11253515Y-12074174D02*
X11263039Y-12064650D01*
X11263039Y-12064650D02*
X11282087Y-12036079D01*
X11282087Y-12036079D02*
X11291611Y-12017031D01*
X11291611Y-12017031D02*
X11301134Y-11988460D01*
X11301134Y-11988460D02*
X11310658Y-11940841D01*
X11310658Y-11940841D02*
X11310658Y-11902746D01*
X11310658Y-11902746D02*
X11301134Y-11855127D01*
X11301134Y-11855127D02*
X11291611Y-11826555D01*
X11291611Y-11826555D02*
X11282087Y-11807508D01*
X11282087Y-11807508D02*
X11263039Y-11778936D01*
X11263039Y-11778936D02*
X11253515Y-11769412D01*
D12*
X6072500Y-12145500D02*
X6072500Y-12195500D01*
X6047500Y-12170500D02*
X6097500Y-12170500D01*
D11*
X6396372Y-12061984D02*
X6415420Y-12061984D01*
X6415420Y-12061984D02*
X6434467Y-12071508D01*
X6434467Y-12071508D02*
X6443991Y-12081031D01*
X6443991Y-12081031D02*
X6453515Y-12100079D01*
X6453515Y-12100079D02*
X6463039Y-12138174D01*
X6463039Y-12138174D02*
X6463039Y-12185793D01*
X6463039Y-12185793D02*
X6453515Y-12223888D01*
X6453515Y-12223888D02*
X6443991Y-12242936D01*
X6443991Y-12242936D02*
X6434467Y-12252460D01*
X6434467Y-12252460D02*
X6415420Y-12261984D01*
X6415420Y-12261984D02*
X6396372Y-12261984D01*
X6396372Y-12261984D02*
X6377324Y-12252460D01*
X6377324Y-12252460D02*
X6367801Y-12242936D01*
X6367801Y-12242936D02*
X6358277Y-12223888D01*
X6358277Y-12223888D02*
X6348753Y-12185793D01*
X6348753Y-12185793D02*
X6348753Y-12138174D01*
X6348753Y-12138174D02*
X6358277Y-12100079D01*
X6358277Y-12100079D02*
X6367801Y-12081031D01*
X6367801Y-12081031D02*
X6377324Y-12071508D01*
X6377324Y-12071508D02*
X6396372Y-12061984D01*
X6548753Y-12242936D02*
X6558277Y-12252460D01*
X6558277Y-12252460D02*
X6548753Y-12261984D01*
X6548753Y-12261984D02*
X6539229Y-12252460D01*
X6539229Y-12252460D02*
X6548753Y-12242936D01*
X6548753Y-12242936D02*
X6548753Y-12261984D01*
X6739229Y-12061984D02*
X6643991Y-12061984D01*
X6643991Y-12061984D02*
X6634467Y-12157222D01*
X6634467Y-12157222D02*
X6643991Y-12147698D01*
X6643991Y-12147698D02*
X6663039Y-12138174D01*
X6663039Y-12138174D02*
X6710658Y-12138174D01*
X6710658Y-12138174D02*
X6729705Y-12147698D01*
X6729705Y-12147698D02*
X6739229Y-12157222D01*
X6739229Y-12157222D02*
X6748753Y-12176269D01*
X6748753Y-12176269D02*
X6748753Y-12223888D01*
X6748753Y-12223888D02*
X6739229Y-12242936D01*
X6739229Y-12242936D02*
X6729705Y-12252460D01*
X6729705Y-12252460D02*
X6710658Y-12261984D01*
X6710658Y-12261984D02*
X6663039Y-12261984D01*
X6663039Y-12261984D02*
X6643991Y-12252460D01*
X6643991Y-12252460D02*
X6634467Y-12242936D01*
X6872562Y-12061984D02*
X6891610Y-12061984D01*
X6891610Y-12061984D02*
X6910658Y-12071508D01*
X6910658Y-12071508D02*
X6920182Y-12081031D01*
X6920182Y-12081031D02*
X6929705Y-12100079D01*
X6929705Y-12100079D02*
X6939229Y-12138174D01*
X6939229Y-12138174D02*
X6939229Y-12185793D01*
X6939229Y-12185793D02*
X6929705Y-12223888D01*
X6929705Y-12223888D02*
X6920182Y-12242936D01*
X6920182Y-12242936D02*
X6910658Y-12252460D01*
X6910658Y-12252460D02*
X6891610Y-12261984D01*
X6891610Y-12261984D02*
X6872562Y-12261984D01*
X6872562Y-12261984D02*
X6853515Y-12252460D01*
X6853515Y-12252460D02*
X6843991Y-12242936D01*
X6843991Y-12242936D02*
X6834467Y-12223888D01*
X6834467Y-12223888D02*
X6824943Y-12185793D01*
X6824943Y-12185793D02*
X6824943Y-12138174D01*
X6824943Y-12138174D02*
X6834467Y-12100079D01*
X6834467Y-12100079D02*
X6843991Y-12081031D01*
X6843991Y-12081031D02*
X6853515Y-12071508D01*
X6853515Y-12071508D02*
X6872562Y-12061984D01*
X7063039Y-12061984D02*
X7082086Y-12061984D01*
X7082086Y-12061984D02*
X7101134Y-12071508D01*
X7101134Y-12071508D02*
X7110658Y-12081031D01*
X7110658Y-12081031D02*
X7120182Y-12100079D01*
X7120182Y-12100079D02*
X7129705Y-12138174D01*
X7129705Y-12138174D02*
X7129705Y-12185793D01*
X7129705Y-12185793D02*
X7120182Y-12223888D01*
X7120182Y-12223888D02*
X7110658Y-12242936D01*
X7110658Y-12242936D02*
X7101134Y-12252460D01*
X7101134Y-12252460D02*
X7082086Y-12261984D01*
X7082086Y-12261984D02*
X7063039Y-12261984D01*
X7063039Y-12261984D02*
X7043991Y-12252460D01*
X7043991Y-12252460D02*
X7034467Y-12242936D01*
X7034467Y-12242936D02*
X7024943Y-12223888D01*
X7024943Y-12223888D02*
X7015420Y-12185793D01*
X7015420Y-12185793D02*
X7015420Y-12138174D01*
X7015420Y-12138174D02*
X7024943Y-12100079D01*
X7024943Y-12100079D02*
X7034467Y-12081031D01*
X7034467Y-12081031D02*
X7043991Y-12071508D01*
X7043991Y-12071508D02*
X7063039Y-12061984D01*
X7215420Y-12261984D02*
X7215420Y-12128650D01*
X7215420Y-12147698D02*
X7224943Y-12138174D01*
X7224943Y-12138174D02*
X7243991Y-12128650D01*
X7243991Y-12128650D02*
X7272563Y-12128650D01*
X7272563Y-12128650D02*
X7291610Y-12138174D01*
X7291610Y-12138174D02*
X7301134Y-12157222D01*
X7301134Y-12157222D02*
X7301134Y-12261984D01*
X7301134Y-12157222D02*
X7310658Y-12138174D01*
X7310658Y-12138174D02*
X7329705Y-12128650D01*
X7329705Y-12128650D02*
X7358277Y-12128650D01*
X7358277Y-12128650D02*
X7377324Y-12138174D01*
X7377324Y-12138174D02*
X7386848Y-12157222D01*
X7386848Y-12157222D02*
X7386848Y-12261984D01*
X7482086Y-12261984D02*
X7482086Y-12128650D01*
X7482086Y-12147698D02*
X7491610Y-12138174D01*
X7491610Y-12138174D02*
X7510658Y-12128650D01*
X7510658Y-12128650D02*
X7539229Y-12128650D01*
X7539229Y-12128650D02*
X7558277Y-12138174D01*
X7558277Y-12138174D02*
X7567801Y-12157222D01*
X7567801Y-12157222D02*
X7567801Y-12261984D01*
X7567801Y-12157222D02*
X7577324Y-12138174D01*
X7577324Y-12138174D02*
X7596372Y-12128650D01*
X7596372Y-12128650D02*
X7624943Y-12128650D01*
X7624943Y-12128650D02*
X7643991Y-12138174D01*
X7643991Y-12138174D02*
X7653515Y-12157222D01*
X7653515Y-12157222D02*
X7653515Y-12261984D01*
X8043991Y-12052460D02*
X7872563Y-12309603D01*
X8301134Y-12061984D02*
X8320182Y-12061984D01*
X8320182Y-12061984D02*
X8339229Y-12071508D01*
X8339229Y-12071508D02*
X8348753Y-12081031D01*
X8348753Y-12081031D02*
X8358277Y-12100079D01*
X8358277Y-12100079D02*
X8367801Y-12138174D01*
X8367801Y-12138174D02*
X8367801Y-12185793D01*
X8367801Y-12185793D02*
X8358277Y-12223888D01*
X8358277Y-12223888D02*
X8348753Y-12242936D01*
X8348753Y-12242936D02*
X8339229Y-12252460D01*
X8339229Y-12252460D02*
X8320182Y-12261984D01*
X8320182Y-12261984D02*
X8301134Y-12261984D01*
X8301134Y-12261984D02*
X8282086Y-12252460D01*
X8282086Y-12252460D02*
X8272563Y-12242936D01*
X8272563Y-12242936D02*
X8263039Y-12223888D01*
X8263039Y-12223888D02*
X8253515Y-12185793D01*
X8253515Y-12185793D02*
X8253515Y-12138174D01*
X8253515Y-12138174D02*
X8263039Y-12100079D01*
X8263039Y-12100079D02*
X8272563Y-12081031D01*
X8272563Y-12081031D02*
X8282086Y-12071508D01*
X8282086Y-12071508D02*
X8301134Y-12061984D01*
X8453515Y-12242936D02*
X8463039Y-12252460D01*
X8463039Y-12252460D02*
X8453515Y-12261984D01*
X8453515Y-12261984D02*
X8443991Y-12252460D01*
X8443991Y-12252460D02*
X8453515Y-12242936D01*
X8453515Y-12242936D02*
X8453515Y-12261984D01*
X8586848Y-12061984D02*
X8605896Y-12061984D01*
X8605896Y-12061984D02*
X8624944Y-12071508D01*
X8624944Y-12071508D02*
X8634468Y-12081031D01*
X8634468Y-12081031D02*
X8643991Y-12100079D01*
X8643991Y-12100079D02*
X8653515Y-12138174D01*
X8653515Y-12138174D02*
X8653515Y-12185793D01*
X8653515Y-12185793D02*
X8643991Y-12223888D01*
X8643991Y-12223888D02*
X8634468Y-12242936D01*
X8634468Y-12242936D02*
X8624944Y-12252460D01*
X8624944Y-12252460D02*
X8605896Y-12261984D01*
X8605896Y-12261984D02*
X8586848Y-12261984D01*
X8586848Y-12261984D02*
X8567801Y-12252460D01*
X8567801Y-12252460D02*
X8558277Y-12242936D01*
X8558277Y-12242936D02*
X8548753Y-12223888D01*
X8548753Y-12223888D02*
X8539229Y-12185793D01*
X8539229Y-12185793D02*
X8539229Y-12138174D01*
X8539229Y-12138174D02*
X8548753Y-12100079D01*
X8548753Y-12100079D02*
X8558277Y-12081031D01*
X8558277Y-12081031D02*
X8567801Y-12071508D01*
X8567801Y-12071508D02*
X8586848Y-12061984D01*
X8843991Y-12261984D02*
X8729706Y-12261984D01*
X8786848Y-12261984D02*
X8786848Y-12061984D01*
X8786848Y-12061984D02*
X8767801Y-12090555D01*
X8767801Y-12090555D02*
X8748753Y-12109603D01*
X8748753Y-12109603D02*
X8729706Y-12119127D01*
X8939229Y-12261984D02*
X8977325Y-12261984D01*
X8977325Y-12261984D02*
X8996372Y-12252460D01*
X8996372Y-12252460D02*
X9005896Y-12242936D01*
X9005896Y-12242936D02*
X9024944Y-12214365D01*
X9024944Y-12214365D02*
X9034468Y-12176269D01*
X9034468Y-12176269D02*
X9034468Y-12100079D01*
X9034468Y-12100079D02*
X9024944Y-12081031D01*
X9024944Y-12081031D02*
X9015420Y-12071508D01*
X9015420Y-12071508D02*
X8996372Y-12061984D01*
X8996372Y-12061984D02*
X8958277Y-12061984D01*
X8958277Y-12061984D02*
X8939229Y-12071508D01*
X8939229Y-12071508D02*
X8929706Y-12081031D01*
X8929706Y-12081031D02*
X8920182Y-12100079D01*
X8920182Y-12100079D02*
X8920182Y-12147698D01*
X8920182Y-12147698D02*
X8929706Y-12166746D01*
X8929706Y-12166746D02*
X8939229Y-12176269D01*
X8939229Y-12176269D02*
X8958277Y-12185793D01*
X8958277Y-12185793D02*
X8996372Y-12185793D01*
X8996372Y-12185793D02*
X9015420Y-12176269D01*
X9015420Y-12176269D02*
X9024944Y-12166746D01*
X9024944Y-12166746D02*
X9034468Y-12147698D01*
X9101134Y-12061984D02*
X9234468Y-12061984D01*
X9234468Y-12061984D02*
X9148753Y-12261984D01*
X9301134Y-12061984D02*
X9301134Y-12100079D01*
X9377325Y-12061984D02*
X9377325Y-12100079D01*
X9672563Y-12338174D02*
X9663039Y-12328650D01*
X9663039Y-12328650D02*
X9643991Y-12300079D01*
X9643991Y-12300079D02*
X9634468Y-12281031D01*
X9634468Y-12281031D02*
X9624944Y-12252460D01*
X9624944Y-12252460D02*
X9615420Y-12204841D01*
X9615420Y-12204841D02*
X9615420Y-12166746D01*
X9615420Y-12166746D02*
X9624944Y-12119127D01*
X9624944Y-12119127D02*
X9634468Y-12090555D01*
X9634468Y-12090555D02*
X9643991Y-12071508D01*
X9643991Y-12071508D02*
X9663039Y-12042936D01*
X9663039Y-12042936D02*
X9672563Y-12033412D01*
X9843991Y-12061984D02*
X9748753Y-12061984D01*
X9748753Y-12061984D02*
X9739230Y-12157222D01*
X9739230Y-12157222D02*
X9748753Y-12147698D01*
X9748753Y-12147698D02*
X9767801Y-12138174D01*
X9767801Y-12138174D02*
X9815420Y-12138174D01*
X9815420Y-12138174D02*
X9834468Y-12147698D01*
X9834468Y-12147698D02*
X9843991Y-12157222D01*
X9843991Y-12157222D02*
X9853515Y-12176269D01*
X9853515Y-12176269D02*
X9853515Y-12223888D01*
X9853515Y-12223888D02*
X9843991Y-12242936D01*
X9843991Y-12242936D02*
X9834468Y-12252460D01*
X9834468Y-12252460D02*
X9815420Y-12261984D01*
X9815420Y-12261984D02*
X9767801Y-12261984D01*
X9767801Y-12261984D02*
X9748753Y-12252460D01*
X9748753Y-12252460D02*
X9739230Y-12242936D01*
X9920182Y-12061984D02*
X10053515Y-12061984D01*
X10053515Y-12061984D02*
X9967801Y-12261984D01*
X10282087Y-12261984D02*
X10282087Y-12061984D01*
X10367801Y-12261984D02*
X10367801Y-12157222D01*
X10367801Y-12157222D02*
X10358277Y-12138174D01*
X10358277Y-12138174D02*
X10339230Y-12128650D01*
X10339230Y-12128650D02*
X10310658Y-12128650D01*
X10310658Y-12128650D02*
X10291611Y-12138174D01*
X10291611Y-12138174D02*
X10282087Y-12147698D01*
X10491611Y-12261984D02*
X10472563Y-12252460D01*
X10472563Y-12252460D02*
X10463039Y-12242936D01*
X10463039Y-12242936D02*
X10453515Y-12223888D01*
X10453515Y-12223888D02*
X10453515Y-12166746D01*
X10453515Y-12166746D02*
X10463039Y-12147698D01*
X10463039Y-12147698D02*
X10472563Y-12138174D01*
X10472563Y-12138174D02*
X10491611Y-12128650D01*
X10491611Y-12128650D02*
X10520182Y-12128650D01*
X10520182Y-12128650D02*
X10539230Y-12138174D01*
X10539230Y-12138174D02*
X10548753Y-12147698D01*
X10548753Y-12147698D02*
X10558277Y-12166746D01*
X10558277Y-12166746D02*
X10558277Y-12223888D01*
X10558277Y-12223888D02*
X10548753Y-12242936D01*
X10548753Y-12242936D02*
X10539230Y-12252460D01*
X10539230Y-12252460D02*
X10520182Y-12261984D01*
X10520182Y-12261984D02*
X10491611Y-12261984D01*
X10672563Y-12261984D02*
X10653515Y-12252460D01*
X10653515Y-12252460D02*
X10643992Y-12233412D01*
X10643992Y-12233412D02*
X10643992Y-12061984D01*
X10824944Y-12252460D02*
X10805896Y-12261984D01*
X10805896Y-12261984D02*
X10767801Y-12261984D01*
X10767801Y-12261984D02*
X10748753Y-12252460D01*
X10748753Y-12252460D02*
X10739230Y-12233412D01*
X10739230Y-12233412D02*
X10739230Y-12157222D01*
X10739230Y-12157222D02*
X10748753Y-12138174D01*
X10748753Y-12138174D02*
X10767801Y-12128650D01*
X10767801Y-12128650D02*
X10805896Y-12128650D01*
X10805896Y-12128650D02*
X10824944Y-12138174D01*
X10824944Y-12138174D02*
X10834468Y-12157222D01*
X10834468Y-12157222D02*
X10834468Y-12176269D01*
X10834468Y-12176269D02*
X10739230Y-12195317D01*
X10910658Y-12252460D02*
X10929706Y-12261984D01*
X10929706Y-12261984D02*
X10967801Y-12261984D01*
X10967801Y-12261984D02*
X10986849Y-12252460D01*
X10986849Y-12252460D02*
X10996373Y-12233412D01*
X10996373Y-12233412D02*
X10996373Y-12223888D01*
X10996373Y-12223888D02*
X10986849Y-12204841D01*
X10986849Y-12204841D02*
X10967801Y-12195317D01*
X10967801Y-12195317D02*
X10939230Y-12195317D01*
X10939230Y-12195317D02*
X10920182Y-12185793D01*
X10920182Y-12185793D02*
X10910658Y-12166746D01*
X10910658Y-12166746D02*
X10910658Y-12157222D01*
X10910658Y-12157222D02*
X10920182Y-12138174D01*
X10920182Y-12138174D02*
X10939230Y-12128650D01*
X10939230Y-12128650D02*
X10967801Y-12128650D01*
X10967801Y-12128650D02*
X10986849Y-12138174D01*
X11063039Y-12338174D02*
X11072563Y-12328650D01*
X11072563Y-12328650D02*
X11091611Y-12300079D01*
X11091611Y-12300079D02*
X11101134Y-12281031D01*
X11101134Y-12281031D02*
X11110658Y-12252460D01*
X11110658Y-12252460D02*
X11120182Y-12204841D01*
X11120182Y-12204841D02*
X11120182Y-12166746D01*
X11120182Y-12166746D02*
X11110658Y-12119127D01*
X11110658Y-12119127D02*
X11101134Y-12090555D01*
X11101134Y-12090555D02*
X11091611Y-12071508D01*
X11091611Y-12071508D02*
X11072563Y-12042936D01*
X11072563Y-12042936D02*
X11063039Y-12033412D01*
D13*
X6082563Y-12470563D02*
X6082563Y-12398437D01*
X6010437Y-12398437D01*
X6010437Y-12470563D01*
X6082563Y-12470563D01*
D11*
X6463039Y-12525984D02*
X6348753Y-12525984D01*
X6405896Y-12525984D02*
X6405896Y-12325984D01*
X6405896Y-12325984D02*
X6386848Y-12354555D01*
X6386848Y-12354555D02*
X6367801Y-12373603D01*
X6367801Y-12373603D02*
X6348753Y-12383127D01*
X6548753Y-12506936D02*
X6558277Y-12516460D01*
X6558277Y-12516460D02*
X6548753Y-12525984D01*
X6548753Y-12525984D02*
X6539229Y-12516460D01*
X6539229Y-12516460D02*
X6548753Y-12506936D01*
X6548753Y-12506936D02*
X6548753Y-12525984D01*
X6682086Y-12325984D02*
X6701134Y-12325984D01*
X6701134Y-12325984D02*
X6720182Y-12335508D01*
X6720182Y-12335508D02*
X6729705Y-12345031D01*
X6729705Y-12345031D02*
X6739229Y-12364079D01*
X6739229Y-12364079D02*
X6748753Y-12402174D01*
X6748753Y-12402174D02*
X6748753Y-12449793D01*
X6748753Y-12449793D02*
X6739229Y-12487888D01*
X6739229Y-12487888D02*
X6729705Y-12506936D01*
X6729705Y-12506936D02*
X6720182Y-12516460D01*
X6720182Y-12516460D02*
X6701134Y-12525984D01*
X6701134Y-12525984D02*
X6682086Y-12525984D01*
X6682086Y-12525984D02*
X6663039Y-12516460D01*
X6663039Y-12516460D02*
X6653515Y-12506936D01*
X6653515Y-12506936D02*
X6643991Y-12487888D01*
X6643991Y-12487888D02*
X6634467Y-12449793D01*
X6634467Y-12449793D02*
X6634467Y-12402174D01*
X6634467Y-12402174D02*
X6643991Y-12364079D01*
X6643991Y-12364079D02*
X6653515Y-12345031D01*
X6653515Y-12345031D02*
X6663039Y-12335508D01*
X6663039Y-12335508D02*
X6682086Y-12325984D01*
X6824943Y-12345031D02*
X6834467Y-12335508D01*
X6834467Y-12335508D02*
X6853515Y-12325984D01*
X6853515Y-12325984D02*
X6901134Y-12325984D01*
X6901134Y-12325984D02*
X6920182Y-12335508D01*
X6920182Y-12335508D02*
X6929705Y-12345031D01*
X6929705Y-12345031D02*
X6939229Y-12364079D01*
X6939229Y-12364079D02*
X6939229Y-12383127D01*
X6939229Y-12383127D02*
X6929705Y-12411698D01*
X6929705Y-12411698D02*
X6815420Y-12525984D01*
X6815420Y-12525984D02*
X6939229Y-12525984D01*
X7063039Y-12325984D02*
X7082086Y-12325984D01*
X7082086Y-12325984D02*
X7101134Y-12335508D01*
X7101134Y-12335508D02*
X7110658Y-12345031D01*
X7110658Y-12345031D02*
X7120182Y-12364079D01*
X7120182Y-12364079D02*
X7129705Y-12402174D01*
X7129705Y-12402174D02*
X7129705Y-12449793D01*
X7129705Y-12449793D02*
X7120182Y-12487888D01*
X7120182Y-12487888D02*
X7110658Y-12506936D01*
X7110658Y-12506936D02*
X7101134Y-12516460D01*
X7101134Y-12516460D02*
X7082086Y-12525984D01*
X7082086Y-12525984D02*
X7063039Y-12525984D01*
X7063039Y-12525984D02*
X7043991Y-12516460D01*
X7043991Y-12516460D02*
X7034467Y-12506936D01*
X7034467Y-12506936D02*
X7024943Y-12487888D01*
X7024943Y-12487888D02*
X7015420Y-12449793D01*
X7015420Y-12449793D02*
X7015420Y-12402174D01*
X7015420Y-12402174D02*
X7024943Y-12364079D01*
X7024943Y-12364079D02*
X7034467Y-12345031D01*
X7034467Y-12345031D02*
X7043991Y-12335508D01*
X7043991Y-12335508D02*
X7063039Y-12325984D01*
X7215420Y-12525984D02*
X7215420Y-12392650D01*
X7215420Y-12411698D02*
X7224943Y-12402174D01*
X7224943Y-12402174D02*
X7243991Y-12392650D01*
X7243991Y-12392650D02*
X7272563Y-12392650D01*
X7272563Y-12392650D02*
X7291610Y-12402174D01*
X7291610Y-12402174D02*
X7301134Y-12421222D01*
X7301134Y-12421222D02*
X7301134Y-12525984D01*
X7301134Y-12421222D02*
X7310658Y-12402174D01*
X7310658Y-12402174D02*
X7329705Y-12392650D01*
X7329705Y-12392650D02*
X7358277Y-12392650D01*
X7358277Y-12392650D02*
X7377324Y-12402174D01*
X7377324Y-12402174D02*
X7386848Y-12421222D01*
X7386848Y-12421222D02*
X7386848Y-12525984D01*
X7482086Y-12525984D02*
X7482086Y-12392650D01*
X7482086Y-12411698D02*
X7491610Y-12402174D01*
X7491610Y-12402174D02*
X7510658Y-12392650D01*
X7510658Y-12392650D02*
X7539229Y-12392650D01*
X7539229Y-12392650D02*
X7558277Y-12402174D01*
X7558277Y-12402174D02*
X7567801Y-12421222D01*
X7567801Y-12421222D02*
X7567801Y-12525984D01*
X7567801Y-12421222D02*
X7577324Y-12402174D01*
X7577324Y-12402174D02*
X7596372Y-12392650D01*
X7596372Y-12392650D02*
X7624943Y-12392650D01*
X7624943Y-12392650D02*
X7643991Y-12402174D01*
X7643991Y-12402174D02*
X7653515Y-12421222D01*
X7653515Y-12421222D02*
X7653515Y-12525984D01*
X8043991Y-12316460D02*
X7872563Y-12573603D01*
X8301134Y-12325984D02*
X8320182Y-12325984D01*
X8320182Y-12325984D02*
X8339229Y-12335508D01*
X8339229Y-12335508D02*
X8348753Y-12345031D01*
X8348753Y-12345031D02*
X8358277Y-12364079D01*
X8358277Y-12364079D02*
X8367801Y-12402174D01*
X8367801Y-12402174D02*
X8367801Y-12449793D01*
X8367801Y-12449793D02*
X8358277Y-12487888D01*
X8358277Y-12487888D02*
X8348753Y-12506936D01*
X8348753Y-12506936D02*
X8339229Y-12516460D01*
X8339229Y-12516460D02*
X8320182Y-12525984D01*
X8320182Y-12525984D02*
X8301134Y-12525984D01*
X8301134Y-12525984D02*
X8282086Y-12516460D01*
X8282086Y-12516460D02*
X8272563Y-12506936D01*
X8272563Y-12506936D02*
X8263039Y-12487888D01*
X8263039Y-12487888D02*
X8253515Y-12449793D01*
X8253515Y-12449793D02*
X8253515Y-12402174D01*
X8253515Y-12402174D02*
X8263039Y-12364079D01*
X8263039Y-12364079D02*
X8272563Y-12345031D01*
X8272563Y-12345031D02*
X8282086Y-12335508D01*
X8282086Y-12335508D02*
X8301134Y-12325984D01*
X8453515Y-12506936D02*
X8463039Y-12516460D01*
X8463039Y-12516460D02*
X8453515Y-12525984D01*
X8453515Y-12525984D02*
X8443991Y-12516460D01*
X8443991Y-12516460D02*
X8453515Y-12506936D01*
X8453515Y-12506936D02*
X8453515Y-12525984D01*
X8586848Y-12325984D02*
X8605896Y-12325984D01*
X8605896Y-12325984D02*
X8624944Y-12335508D01*
X8624944Y-12335508D02*
X8634468Y-12345031D01*
X8634468Y-12345031D02*
X8643991Y-12364079D01*
X8643991Y-12364079D02*
X8653515Y-12402174D01*
X8653515Y-12402174D02*
X8653515Y-12449793D01*
X8653515Y-12449793D02*
X8643991Y-12487888D01*
X8643991Y-12487888D02*
X8634468Y-12506936D01*
X8634468Y-12506936D02*
X8624944Y-12516460D01*
X8624944Y-12516460D02*
X8605896Y-12525984D01*
X8605896Y-12525984D02*
X8586848Y-12525984D01*
X8586848Y-12525984D02*
X8567801Y-12516460D01*
X8567801Y-12516460D02*
X8558277Y-12506936D01*
X8558277Y-12506936D02*
X8548753Y-12487888D01*
X8548753Y-12487888D02*
X8539229Y-12449793D01*
X8539229Y-12449793D02*
X8539229Y-12402174D01*
X8539229Y-12402174D02*
X8548753Y-12364079D01*
X8548753Y-12364079D02*
X8558277Y-12345031D01*
X8558277Y-12345031D02*
X8567801Y-12335508D01*
X8567801Y-12335508D02*
X8586848Y-12325984D01*
X8824944Y-12392650D02*
X8824944Y-12525984D01*
X8777325Y-12316460D02*
X8729706Y-12459317D01*
X8729706Y-12459317D02*
X8853515Y-12459317D01*
X8967801Y-12325984D02*
X8986849Y-12325984D01*
X8986849Y-12325984D02*
X9005896Y-12335508D01*
X9005896Y-12335508D02*
X9015420Y-12345031D01*
X9015420Y-12345031D02*
X9024944Y-12364079D01*
X9024944Y-12364079D02*
X9034468Y-12402174D01*
X9034468Y-12402174D02*
X9034468Y-12449793D01*
X9034468Y-12449793D02*
X9024944Y-12487888D01*
X9024944Y-12487888D02*
X9015420Y-12506936D01*
X9015420Y-12506936D02*
X9005896Y-12516460D01*
X9005896Y-12516460D02*
X8986849Y-12525984D01*
X8986849Y-12525984D02*
X8967801Y-12525984D01*
X8967801Y-12525984D02*
X8948753Y-12516460D01*
X8948753Y-12516460D02*
X8939229Y-12506936D01*
X8939229Y-12506936D02*
X8929706Y-12487888D01*
X8929706Y-12487888D02*
X8920182Y-12449793D01*
X8920182Y-12449793D02*
X8920182Y-12402174D01*
X8920182Y-12402174D02*
X8929706Y-12364079D01*
X8929706Y-12364079D02*
X8939229Y-12345031D01*
X8939229Y-12345031D02*
X8948753Y-12335508D01*
X8948753Y-12335508D02*
X8967801Y-12325984D01*
X9110658Y-12345031D02*
X9120182Y-12335508D01*
X9120182Y-12335508D02*
X9139229Y-12325984D01*
X9139229Y-12325984D02*
X9186849Y-12325984D01*
X9186849Y-12325984D02*
X9205896Y-12335508D01*
X9205896Y-12335508D02*
X9215420Y-12345031D01*
X9215420Y-12345031D02*
X9224944Y-12364079D01*
X9224944Y-12364079D02*
X9224944Y-12383127D01*
X9224944Y-12383127D02*
X9215420Y-12411698D01*
X9215420Y-12411698D02*
X9101134Y-12525984D01*
X9101134Y-12525984D02*
X9224944Y-12525984D01*
X9301134Y-12325984D02*
X9301134Y-12364079D01*
X9377325Y-12325984D02*
X9377325Y-12364079D01*
X9672563Y-12602174D02*
X9663039Y-12592650D01*
X9663039Y-12592650D02*
X9643991Y-12564079D01*
X9643991Y-12564079D02*
X9634468Y-12545031D01*
X9634468Y-12545031D02*
X9624944Y-12516460D01*
X9624944Y-12516460D02*
X9615420Y-12468841D01*
X9615420Y-12468841D02*
X9615420Y-12430746D01*
X9615420Y-12430746D02*
X9624944Y-12383127D01*
X9624944Y-12383127D02*
X9634468Y-12354555D01*
X9634468Y-12354555D02*
X9643991Y-12335508D01*
X9643991Y-12335508D02*
X9663039Y-12306936D01*
X9663039Y-12306936D02*
X9672563Y-12297412D01*
X9834468Y-12392650D02*
X9834468Y-12525984D01*
X9786849Y-12316460D02*
X9739230Y-12459317D01*
X9739230Y-12459317D02*
X9863039Y-12459317D01*
X10091611Y-12525984D02*
X10091611Y-12325984D01*
X10177325Y-12525984D02*
X10177325Y-12421222D01*
X10177325Y-12421222D02*
X10167801Y-12402174D01*
X10167801Y-12402174D02*
X10148753Y-12392650D01*
X10148753Y-12392650D02*
X10120182Y-12392650D01*
X10120182Y-12392650D02*
X10101134Y-12402174D01*
X10101134Y-12402174D02*
X10091611Y-12411698D01*
X10301134Y-12525984D02*
X10282087Y-12516460D01*
X10282087Y-12516460D02*
X10272563Y-12506936D01*
X10272563Y-12506936D02*
X10263039Y-12487888D01*
X10263039Y-12487888D02*
X10263039Y-12430746D01*
X10263039Y-12430746D02*
X10272563Y-12411698D01*
X10272563Y-12411698D02*
X10282087Y-12402174D01*
X10282087Y-12402174D02*
X10301134Y-12392650D01*
X10301134Y-12392650D02*
X10329706Y-12392650D01*
X10329706Y-12392650D02*
X10348753Y-12402174D01*
X10348753Y-12402174D02*
X10358277Y-12411698D01*
X10358277Y-12411698D02*
X10367801Y-12430746D01*
X10367801Y-12430746D02*
X10367801Y-12487888D01*
X10367801Y-12487888D02*
X10358277Y-12506936D01*
X10358277Y-12506936D02*
X10348753Y-12516460D01*
X10348753Y-12516460D02*
X10329706Y-12525984D01*
X10329706Y-12525984D02*
X10301134Y-12525984D01*
X10482087Y-12525984D02*
X10463039Y-12516460D01*
X10463039Y-12516460D02*
X10453515Y-12497412D01*
X10453515Y-12497412D02*
X10453515Y-12325984D01*
X10634468Y-12516460D02*
X10615420Y-12525984D01*
X10615420Y-12525984D02*
X10577325Y-12525984D01*
X10577325Y-12525984D02*
X10558277Y-12516460D01*
X10558277Y-12516460D02*
X10548753Y-12497412D01*
X10548753Y-12497412D02*
X10548753Y-12421222D01*
X10548753Y-12421222D02*
X10558277Y-12402174D01*
X10558277Y-12402174D02*
X10577325Y-12392650D01*
X10577325Y-12392650D02*
X10615420Y-12392650D01*
X10615420Y-12392650D02*
X10634468Y-12402174D01*
X10634468Y-12402174D02*
X10643992Y-12421222D01*
X10643992Y-12421222D02*
X10643992Y-12440269D01*
X10643992Y-12440269D02*
X10548753Y-12459317D01*
X10720182Y-12516460D02*
X10739230Y-12525984D01*
X10739230Y-12525984D02*
X10777325Y-12525984D01*
X10777325Y-12525984D02*
X10796373Y-12516460D01*
X10796373Y-12516460D02*
X10805896Y-12497412D01*
X10805896Y-12497412D02*
X10805896Y-12487888D01*
X10805896Y-12487888D02*
X10796373Y-12468841D01*
X10796373Y-12468841D02*
X10777325Y-12459317D01*
X10777325Y-12459317D02*
X10748753Y-12459317D01*
X10748753Y-12459317D02*
X10729706Y-12449793D01*
X10729706Y-12449793D02*
X10720182Y-12430746D01*
X10720182Y-12430746D02*
X10720182Y-12421222D01*
X10720182Y-12421222D02*
X10729706Y-12402174D01*
X10729706Y-12402174D02*
X10748753Y-12392650D01*
X10748753Y-12392650D02*
X10777325Y-12392650D01*
X10777325Y-12392650D02*
X10796373Y-12402174D01*
X10872563Y-12602174D02*
X10882087Y-12592650D01*
X10882087Y-12592650D02*
X10901134Y-12564079D01*
X10901134Y-12564079D02*
X10910658Y-12545031D01*
X10910658Y-12545031D02*
X10920182Y-12516460D01*
X10920182Y-12516460D02*
X10929706Y-12468841D01*
X10929706Y-12468841D02*
X10929706Y-12430746D01*
X10929706Y-12430746D02*
X10920182Y-12383127D01*
X10920182Y-12383127D02*
X10910658Y-12354555D01*
X10910658Y-12354555D02*
X10901134Y-12335508D01*
X10901134Y-12335508D02*
X10882087Y-12306936D01*
X10882087Y-12306936D02*
X10872563Y-12297412D01*
D14*
X6044160Y-12751840D02*
X6097500Y-12698500D01*
X6044160Y-12645160D01*
X5990820Y-12698500D01*
X6044160Y-12751840D01*
D11*
X6463039Y-12789984D02*
X6348753Y-12789984D01*
X6405896Y-12789984D02*
X6405896Y-12589984D01*
X6405896Y-12589984D02*
X6386848Y-12618555D01*
X6386848Y-12618555D02*
X6367801Y-12637603D01*
X6367801Y-12637603D02*
X6348753Y-12647127D01*
X6548753Y-12770936D02*
X6558277Y-12780460D01*
X6558277Y-12780460D02*
X6548753Y-12789984D01*
X6548753Y-12789984D02*
X6539229Y-12780460D01*
X6539229Y-12780460D02*
X6548753Y-12770936D01*
X6548753Y-12770936D02*
X6548753Y-12789984D01*
X6682086Y-12589984D02*
X6701134Y-12589984D01*
X6701134Y-12589984D02*
X6720182Y-12599508D01*
X6720182Y-12599508D02*
X6729705Y-12609031D01*
X6729705Y-12609031D02*
X6739229Y-12628079D01*
X6739229Y-12628079D02*
X6748753Y-12666174D01*
X6748753Y-12666174D02*
X6748753Y-12713793D01*
X6748753Y-12713793D02*
X6739229Y-12751888D01*
X6739229Y-12751888D02*
X6729705Y-12770936D01*
X6729705Y-12770936D02*
X6720182Y-12780460D01*
X6720182Y-12780460D02*
X6701134Y-12789984D01*
X6701134Y-12789984D02*
X6682086Y-12789984D01*
X6682086Y-12789984D02*
X6663039Y-12780460D01*
X6663039Y-12780460D02*
X6653515Y-12770936D01*
X6653515Y-12770936D02*
X6643991Y-12751888D01*
X6643991Y-12751888D02*
X6634467Y-12713793D01*
X6634467Y-12713793D02*
X6634467Y-12666174D01*
X6634467Y-12666174D02*
X6643991Y-12628079D01*
X6643991Y-12628079D02*
X6653515Y-12609031D01*
X6653515Y-12609031D02*
X6663039Y-12599508D01*
X6663039Y-12599508D02*
X6682086Y-12589984D01*
X6920182Y-12589984D02*
X6882086Y-12589984D01*
X6882086Y-12589984D02*
X6863039Y-12599508D01*
X6863039Y-12599508D02*
X6853515Y-12609031D01*
X6853515Y-12609031D02*
X6834467Y-12637603D01*
X6834467Y-12637603D02*
X6824943Y-12675698D01*
X6824943Y-12675698D02*
X6824943Y-12751888D01*
X6824943Y-12751888D02*
X6834467Y-12770936D01*
X6834467Y-12770936D02*
X6843991Y-12780460D01*
X6843991Y-12780460D02*
X6863039Y-12789984D01*
X6863039Y-12789984D02*
X6901134Y-12789984D01*
X6901134Y-12789984D02*
X6920182Y-12780460D01*
X6920182Y-12780460D02*
X6929705Y-12770936D01*
X6929705Y-12770936D02*
X6939229Y-12751888D01*
X6939229Y-12751888D02*
X6939229Y-12704269D01*
X6939229Y-12704269D02*
X6929705Y-12685222D01*
X6929705Y-12685222D02*
X6920182Y-12675698D01*
X6920182Y-12675698D02*
X6901134Y-12666174D01*
X6901134Y-12666174D02*
X6863039Y-12666174D01*
X6863039Y-12666174D02*
X6843991Y-12675698D01*
X6843991Y-12675698D02*
X6834467Y-12685222D01*
X6834467Y-12685222D02*
X6824943Y-12704269D01*
X7005896Y-12589984D02*
X7139229Y-12589984D01*
X7139229Y-12589984D02*
X7053515Y-12789984D01*
X7215420Y-12789984D02*
X7215420Y-12656650D01*
X7215420Y-12675698D02*
X7224943Y-12666174D01*
X7224943Y-12666174D02*
X7243991Y-12656650D01*
X7243991Y-12656650D02*
X7272563Y-12656650D01*
X7272563Y-12656650D02*
X7291610Y-12666174D01*
X7291610Y-12666174D02*
X7301134Y-12685222D01*
X7301134Y-12685222D02*
X7301134Y-12789984D01*
X7301134Y-12685222D02*
X7310658Y-12666174D01*
X7310658Y-12666174D02*
X7329705Y-12656650D01*
X7329705Y-12656650D02*
X7358277Y-12656650D01*
X7358277Y-12656650D02*
X7377324Y-12666174D01*
X7377324Y-12666174D02*
X7386848Y-12685222D01*
X7386848Y-12685222D02*
X7386848Y-12789984D01*
X7482086Y-12789984D02*
X7482086Y-12656650D01*
X7482086Y-12675698D02*
X7491610Y-12666174D01*
X7491610Y-12666174D02*
X7510658Y-12656650D01*
X7510658Y-12656650D02*
X7539229Y-12656650D01*
X7539229Y-12656650D02*
X7558277Y-12666174D01*
X7558277Y-12666174D02*
X7567801Y-12685222D01*
X7567801Y-12685222D02*
X7567801Y-12789984D01*
X7567801Y-12685222D02*
X7577324Y-12666174D01*
X7577324Y-12666174D02*
X7596372Y-12656650D01*
X7596372Y-12656650D02*
X7624943Y-12656650D01*
X7624943Y-12656650D02*
X7643991Y-12666174D01*
X7643991Y-12666174D02*
X7653515Y-12685222D01*
X7653515Y-12685222D02*
X7653515Y-12789984D01*
X8043991Y-12580460D02*
X7872563Y-12837603D01*
X8301134Y-12589984D02*
X8320182Y-12589984D01*
X8320182Y-12589984D02*
X8339229Y-12599508D01*
X8339229Y-12599508D02*
X8348753Y-12609031D01*
X8348753Y-12609031D02*
X8358277Y-12628079D01*
X8358277Y-12628079D02*
X8367801Y-12666174D01*
X8367801Y-12666174D02*
X8367801Y-12713793D01*
X8367801Y-12713793D02*
X8358277Y-12751888D01*
X8358277Y-12751888D02*
X8348753Y-12770936D01*
X8348753Y-12770936D02*
X8339229Y-12780460D01*
X8339229Y-12780460D02*
X8320182Y-12789984D01*
X8320182Y-12789984D02*
X8301134Y-12789984D01*
X8301134Y-12789984D02*
X8282086Y-12780460D01*
X8282086Y-12780460D02*
X8272563Y-12770936D01*
X8272563Y-12770936D02*
X8263039Y-12751888D01*
X8263039Y-12751888D02*
X8253515Y-12713793D01*
X8253515Y-12713793D02*
X8253515Y-12666174D01*
X8253515Y-12666174D02*
X8263039Y-12628079D01*
X8263039Y-12628079D02*
X8272563Y-12609031D01*
X8272563Y-12609031D02*
X8282086Y-12599508D01*
X8282086Y-12599508D02*
X8301134Y-12589984D01*
X8453515Y-12770936D02*
X8463039Y-12780460D01*
X8463039Y-12780460D02*
X8453515Y-12789984D01*
X8453515Y-12789984D02*
X8443991Y-12780460D01*
X8443991Y-12780460D02*
X8453515Y-12770936D01*
X8453515Y-12770936D02*
X8453515Y-12789984D01*
X8586848Y-12589984D02*
X8605896Y-12589984D01*
X8605896Y-12589984D02*
X8624944Y-12599508D01*
X8624944Y-12599508D02*
X8634468Y-12609031D01*
X8634468Y-12609031D02*
X8643991Y-12628079D01*
X8643991Y-12628079D02*
X8653515Y-12666174D01*
X8653515Y-12666174D02*
X8653515Y-12713793D01*
X8653515Y-12713793D02*
X8643991Y-12751888D01*
X8643991Y-12751888D02*
X8634468Y-12770936D01*
X8634468Y-12770936D02*
X8624944Y-12780460D01*
X8624944Y-12780460D02*
X8605896Y-12789984D01*
X8605896Y-12789984D02*
X8586848Y-12789984D01*
X8586848Y-12789984D02*
X8567801Y-12780460D01*
X8567801Y-12780460D02*
X8558277Y-12770936D01*
X8558277Y-12770936D02*
X8548753Y-12751888D01*
X8548753Y-12751888D02*
X8539229Y-12713793D01*
X8539229Y-12713793D02*
X8539229Y-12666174D01*
X8539229Y-12666174D02*
X8548753Y-12628079D01*
X8548753Y-12628079D02*
X8558277Y-12609031D01*
X8558277Y-12609031D02*
X8567801Y-12599508D01*
X8567801Y-12599508D02*
X8586848Y-12589984D01*
X8824944Y-12656650D02*
X8824944Y-12789984D01*
X8777325Y-12580460D02*
X8729706Y-12723317D01*
X8729706Y-12723317D02*
X8853515Y-12723317D01*
X8920182Y-12609031D02*
X8929706Y-12599508D01*
X8929706Y-12599508D02*
X8948753Y-12589984D01*
X8948753Y-12589984D02*
X8996372Y-12589984D01*
X8996372Y-12589984D02*
X9015420Y-12599508D01*
X9015420Y-12599508D02*
X9024944Y-12609031D01*
X9024944Y-12609031D02*
X9034468Y-12628079D01*
X9034468Y-12628079D02*
X9034468Y-12647127D01*
X9034468Y-12647127D02*
X9024944Y-12675698D01*
X9024944Y-12675698D02*
X8910658Y-12789984D01*
X8910658Y-12789984D02*
X9034468Y-12789984D01*
X9158277Y-12589984D02*
X9177325Y-12589984D01*
X9177325Y-12589984D02*
X9196372Y-12599508D01*
X9196372Y-12599508D02*
X9205896Y-12609031D01*
X9205896Y-12609031D02*
X9215420Y-12628079D01*
X9215420Y-12628079D02*
X9224944Y-12666174D01*
X9224944Y-12666174D02*
X9224944Y-12713793D01*
X9224944Y-12713793D02*
X9215420Y-12751888D01*
X9215420Y-12751888D02*
X9205896Y-12770936D01*
X9205896Y-12770936D02*
X9196372Y-12780460D01*
X9196372Y-12780460D02*
X9177325Y-12789984D01*
X9177325Y-12789984D02*
X9158277Y-12789984D01*
X9158277Y-12789984D02*
X9139229Y-12780460D01*
X9139229Y-12780460D02*
X9129706Y-12770936D01*
X9129706Y-12770936D02*
X9120182Y-12751888D01*
X9120182Y-12751888D02*
X9110658Y-12713793D01*
X9110658Y-12713793D02*
X9110658Y-12666174D01*
X9110658Y-12666174D02*
X9120182Y-12628079D01*
X9120182Y-12628079D02*
X9129706Y-12609031D01*
X9129706Y-12609031D02*
X9139229Y-12599508D01*
X9139229Y-12599508D02*
X9158277Y-12589984D01*
X9301134Y-12589984D02*
X9301134Y-12628079D01*
X9377325Y-12589984D02*
X9377325Y-12628079D01*
X9672563Y-12866174D02*
X9663039Y-12856650D01*
X9663039Y-12856650D02*
X9643991Y-12828079D01*
X9643991Y-12828079D02*
X9634468Y-12809031D01*
X9634468Y-12809031D02*
X9624944Y-12780460D01*
X9624944Y-12780460D02*
X9615420Y-12732841D01*
X9615420Y-12732841D02*
X9615420Y-12694746D01*
X9615420Y-12694746D02*
X9624944Y-12647127D01*
X9624944Y-12647127D02*
X9634468Y-12618555D01*
X9634468Y-12618555D02*
X9643991Y-12599508D01*
X9643991Y-12599508D02*
X9663039Y-12570936D01*
X9663039Y-12570936D02*
X9672563Y-12561412D01*
X9834468Y-12589984D02*
X9796372Y-12589984D01*
X9796372Y-12589984D02*
X9777325Y-12599508D01*
X9777325Y-12599508D02*
X9767801Y-12609031D01*
X9767801Y-12609031D02*
X9748753Y-12637603D01*
X9748753Y-12637603D02*
X9739230Y-12675698D01*
X9739230Y-12675698D02*
X9739230Y-12751888D01*
X9739230Y-12751888D02*
X9748753Y-12770936D01*
X9748753Y-12770936D02*
X9758277Y-12780460D01*
X9758277Y-12780460D02*
X9777325Y-12789984D01*
X9777325Y-12789984D02*
X9815420Y-12789984D01*
X9815420Y-12789984D02*
X9834468Y-12780460D01*
X9834468Y-12780460D02*
X9843991Y-12770936D01*
X9843991Y-12770936D02*
X9853515Y-12751888D01*
X9853515Y-12751888D02*
X9853515Y-12704269D01*
X9853515Y-12704269D02*
X9843991Y-12685222D01*
X9843991Y-12685222D02*
X9834468Y-12675698D01*
X9834468Y-12675698D02*
X9815420Y-12666174D01*
X9815420Y-12666174D02*
X9777325Y-12666174D01*
X9777325Y-12666174D02*
X9758277Y-12675698D01*
X9758277Y-12675698D02*
X9748753Y-12685222D01*
X9748753Y-12685222D02*
X9739230Y-12704269D01*
X10091611Y-12789984D02*
X10091611Y-12589984D01*
X10177325Y-12789984D02*
X10177325Y-12685222D01*
X10177325Y-12685222D02*
X10167801Y-12666174D01*
X10167801Y-12666174D02*
X10148753Y-12656650D01*
X10148753Y-12656650D02*
X10120182Y-12656650D01*
X10120182Y-12656650D02*
X10101134Y-12666174D01*
X10101134Y-12666174D02*
X10091611Y-12675698D01*
X10301134Y-12789984D02*
X10282087Y-12780460D01*
X10282087Y-12780460D02*
X10272563Y-12770936D01*
X10272563Y-12770936D02*
X10263039Y-12751888D01*
X10263039Y-12751888D02*
X10263039Y-12694746D01*
X10263039Y-12694746D02*
X10272563Y-12675698D01*
X10272563Y-12675698D02*
X10282087Y-12666174D01*
X10282087Y-12666174D02*
X10301134Y-12656650D01*
X10301134Y-12656650D02*
X10329706Y-12656650D01*
X10329706Y-12656650D02*
X10348753Y-12666174D01*
X10348753Y-12666174D02*
X10358277Y-12675698D01*
X10358277Y-12675698D02*
X10367801Y-12694746D01*
X10367801Y-12694746D02*
X10367801Y-12751888D01*
X10367801Y-12751888D02*
X10358277Y-12770936D01*
X10358277Y-12770936D02*
X10348753Y-12780460D01*
X10348753Y-12780460D02*
X10329706Y-12789984D01*
X10329706Y-12789984D02*
X10301134Y-12789984D01*
X10482087Y-12789984D02*
X10463039Y-12780460D01*
X10463039Y-12780460D02*
X10453515Y-12761412D01*
X10453515Y-12761412D02*
X10453515Y-12589984D01*
X10634468Y-12780460D02*
X10615420Y-12789984D01*
X10615420Y-12789984D02*
X10577325Y-12789984D01*
X10577325Y-12789984D02*
X10558277Y-12780460D01*
X10558277Y-12780460D02*
X10548753Y-12761412D01*
X10548753Y-12761412D02*
X10548753Y-12685222D01*
X10548753Y-12685222D02*
X10558277Y-12666174D01*
X10558277Y-12666174D02*
X10577325Y-12656650D01*
X10577325Y-12656650D02*
X10615420Y-12656650D01*
X10615420Y-12656650D02*
X10634468Y-12666174D01*
X10634468Y-12666174D02*
X10643992Y-12685222D01*
X10643992Y-12685222D02*
X10643992Y-12704269D01*
X10643992Y-12704269D02*
X10548753Y-12723317D01*
X10720182Y-12780460D02*
X10739230Y-12789984D01*
X10739230Y-12789984D02*
X10777325Y-12789984D01*
X10777325Y-12789984D02*
X10796373Y-12780460D01*
X10796373Y-12780460D02*
X10805896Y-12761412D01*
X10805896Y-12761412D02*
X10805896Y-12751888D01*
X10805896Y-12751888D02*
X10796373Y-12732841D01*
X10796373Y-12732841D02*
X10777325Y-12723317D01*
X10777325Y-12723317D02*
X10748753Y-12723317D01*
X10748753Y-12723317D02*
X10729706Y-12713793D01*
X10729706Y-12713793D02*
X10720182Y-12694746D01*
X10720182Y-12694746D02*
X10720182Y-12685222D01*
X10720182Y-12685222D02*
X10729706Y-12666174D01*
X10729706Y-12666174D02*
X10748753Y-12656650D01*
X10748753Y-12656650D02*
X10777325Y-12656650D01*
X10777325Y-12656650D02*
X10796373Y-12666174D01*
X10872563Y-12866174D02*
X10882087Y-12856650D01*
X10882087Y-12856650D02*
X10901134Y-12828079D01*
X10901134Y-12828079D02*
X10910658Y-12809031D01*
X10910658Y-12809031D02*
X10920182Y-12780460D01*
X10920182Y-12780460D02*
X10929706Y-12732841D01*
X10929706Y-12732841D02*
X10929706Y-12694746D01*
X10929706Y-12694746D02*
X10920182Y-12647127D01*
X10920182Y-12647127D02*
X10910658Y-12618555D01*
X10910658Y-12618555D02*
X10901134Y-12599508D01*
X10901134Y-12599508D02*
X10882087Y-12570936D01*
X10882087Y-12570936D02*
X10872563Y-12561412D01*
X5897500Y-12862500D02*
X6097500Y-13062500D01*
X6097500Y-12862500D02*
X5897500Y-13062500D01*
X6097500Y-12962500D02*
G75*
G02*
X5897500Y-12962500I-100000J0D01*
G01*
X5897500Y-12962500D02*
G75*
G02*
X6097500Y-12962500I100000J0D01*
G01*
X6348753Y-12873031D02*
X6358277Y-12863508D01*
X6358277Y-12863508D02*
X6377324Y-12853984D01*
X6377324Y-12853984D02*
X6424943Y-12853984D01*
X6424943Y-12853984D02*
X6443991Y-12863508D01*
X6443991Y-12863508D02*
X6453515Y-12873031D01*
X6453515Y-12873031D02*
X6463039Y-12892079D01*
X6463039Y-12892079D02*
X6463039Y-12911127D01*
X6463039Y-12911127D02*
X6453515Y-12939698D01*
X6453515Y-12939698D02*
X6339229Y-13053984D01*
X6339229Y-13053984D02*
X6463039Y-13053984D01*
X6548753Y-13034936D02*
X6558277Y-13044460D01*
X6558277Y-13044460D02*
X6548753Y-13053984D01*
X6548753Y-13053984D02*
X6539229Y-13044460D01*
X6539229Y-13044460D02*
X6548753Y-13034936D01*
X6548753Y-13034936D02*
X6548753Y-13053984D01*
X6682086Y-12853984D02*
X6701134Y-12853984D01*
X6701134Y-12853984D02*
X6720182Y-12863508D01*
X6720182Y-12863508D02*
X6729705Y-12873031D01*
X6729705Y-12873031D02*
X6739229Y-12892079D01*
X6739229Y-12892079D02*
X6748753Y-12930174D01*
X6748753Y-12930174D02*
X6748753Y-12977793D01*
X6748753Y-12977793D02*
X6739229Y-13015888D01*
X6739229Y-13015888D02*
X6729705Y-13034936D01*
X6729705Y-13034936D02*
X6720182Y-13044460D01*
X6720182Y-13044460D02*
X6701134Y-13053984D01*
X6701134Y-13053984D02*
X6682086Y-13053984D01*
X6682086Y-13053984D02*
X6663039Y-13044460D01*
X6663039Y-13044460D02*
X6653515Y-13034936D01*
X6653515Y-13034936D02*
X6643991Y-13015888D01*
X6643991Y-13015888D02*
X6634467Y-12977793D01*
X6634467Y-12977793D02*
X6634467Y-12930174D01*
X6634467Y-12930174D02*
X6643991Y-12892079D01*
X6643991Y-12892079D02*
X6653515Y-12873031D01*
X6653515Y-12873031D02*
X6663039Y-12863508D01*
X6663039Y-12863508D02*
X6682086Y-12853984D01*
X6872562Y-12853984D02*
X6891610Y-12853984D01*
X6891610Y-12853984D02*
X6910658Y-12863508D01*
X6910658Y-12863508D02*
X6920182Y-12873031D01*
X6920182Y-12873031D02*
X6929705Y-12892079D01*
X6929705Y-12892079D02*
X6939229Y-12930174D01*
X6939229Y-12930174D02*
X6939229Y-12977793D01*
X6939229Y-12977793D02*
X6929705Y-13015888D01*
X6929705Y-13015888D02*
X6920182Y-13034936D01*
X6920182Y-13034936D02*
X6910658Y-13044460D01*
X6910658Y-13044460D02*
X6891610Y-13053984D01*
X6891610Y-13053984D02*
X6872562Y-13053984D01*
X6872562Y-13053984D02*
X6853515Y-13044460D01*
X6853515Y-13044460D02*
X6843991Y-13034936D01*
X6843991Y-13034936D02*
X6834467Y-13015888D01*
X6834467Y-13015888D02*
X6824943Y-12977793D01*
X6824943Y-12977793D02*
X6824943Y-12930174D01*
X6824943Y-12930174D02*
X6834467Y-12892079D01*
X6834467Y-12892079D02*
X6843991Y-12873031D01*
X6843991Y-12873031D02*
X6853515Y-12863508D01*
X6853515Y-12863508D02*
X6872562Y-12853984D01*
X7063039Y-12853984D02*
X7082086Y-12853984D01*
X7082086Y-12853984D02*
X7101134Y-12863508D01*
X7101134Y-12863508D02*
X7110658Y-12873031D01*
X7110658Y-12873031D02*
X7120182Y-12892079D01*
X7120182Y-12892079D02*
X7129705Y-12930174D01*
X7129705Y-12930174D02*
X7129705Y-12977793D01*
X7129705Y-12977793D02*
X7120182Y-13015888D01*
X7120182Y-13015888D02*
X7110658Y-13034936D01*
X7110658Y-13034936D02*
X7101134Y-13044460D01*
X7101134Y-13044460D02*
X7082086Y-13053984D01*
X7082086Y-13053984D02*
X7063039Y-13053984D01*
X7063039Y-13053984D02*
X7043991Y-13044460D01*
X7043991Y-13044460D02*
X7034467Y-13034936D01*
X7034467Y-13034936D02*
X7024943Y-13015888D01*
X7024943Y-13015888D02*
X7015420Y-12977793D01*
X7015420Y-12977793D02*
X7015420Y-12930174D01*
X7015420Y-12930174D02*
X7024943Y-12892079D01*
X7024943Y-12892079D02*
X7034467Y-12873031D01*
X7034467Y-12873031D02*
X7043991Y-12863508D01*
X7043991Y-12863508D02*
X7063039Y-12853984D01*
X7215420Y-13053984D02*
X7215420Y-12920650D01*
X7215420Y-12939698D02*
X7224943Y-12930174D01*
X7224943Y-12930174D02*
X7243991Y-12920650D01*
X7243991Y-12920650D02*
X7272563Y-12920650D01*
X7272563Y-12920650D02*
X7291610Y-12930174D01*
X7291610Y-12930174D02*
X7301134Y-12949222D01*
X7301134Y-12949222D02*
X7301134Y-13053984D01*
X7301134Y-12949222D02*
X7310658Y-12930174D01*
X7310658Y-12930174D02*
X7329705Y-12920650D01*
X7329705Y-12920650D02*
X7358277Y-12920650D01*
X7358277Y-12920650D02*
X7377324Y-12930174D01*
X7377324Y-12930174D02*
X7386848Y-12949222D01*
X7386848Y-12949222D02*
X7386848Y-13053984D01*
X7482086Y-13053984D02*
X7482086Y-12920650D01*
X7482086Y-12939698D02*
X7491610Y-12930174D01*
X7491610Y-12930174D02*
X7510658Y-12920650D01*
X7510658Y-12920650D02*
X7539229Y-12920650D01*
X7539229Y-12920650D02*
X7558277Y-12930174D01*
X7558277Y-12930174D02*
X7567801Y-12949222D01*
X7567801Y-12949222D02*
X7567801Y-13053984D01*
X7567801Y-12949222D02*
X7577324Y-12930174D01*
X7577324Y-12930174D02*
X7596372Y-12920650D01*
X7596372Y-12920650D02*
X7624943Y-12920650D01*
X7624943Y-12920650D02*
X7643991Y-12930174D01*
X7643991Y-12930174D02*
X7653515Y-12949222D01*
X7653515Y-12949222D02*
X7653515Y-13053984D01*
X8043991Y-12844460D02*
X7872563Y-13101603D01*
X8301134Y-12853984D02*
X8320182Y-12853984D01*
X8320182Y-12853984D02*
X8339229Y-12863508D01*
X8339229Y-12863508D02*
X8348753Y-12873031D01*
X8348753Y-12873031D02*
X8358277Y-12892079D01*
X8358277Y-12892079D02*
X8367801Y-12930174D01*
X8367801Y-12930174D02*
X8367801Y-12977793D01*
X8367801Y-12977793D02*
X8358277Y-13015888D01*
X8358277Y-13015888D02*
X8348753Y-13034936D01*
X8348753Y-13034936D02*
X8339229Y-13044460D01*
X8339229Y-13044460D02*
X8320182Y-13053984D01*
X8320182Y-13053984D02*
X8301134Y-13053984D01*
X8301134Y-13053984D02*
X8282086Y-13044460D01*
X8282086Y-13044460D02*
X8272563Y-13034936D01*
X8272563Y-13034936D02*
X8263039Y-13015888D01*
X8263039Y-13015888D02*
X8253515Y-12977793D01*
X8253515Y-12977793D02*
X8253515Y-12930174D01*
X8253515Y-12930174D02*
X8263039Y-12892079D01*
X8263039Y-12892079D02*
X8272563Y-12873031D01*
X8272563Y-12873031D02*
X8282086Y-12863508D01*
X8282086Y-12863508D02*
X8301134Y-12853984D01*
X8453515Y-13034936D02*
X8463039Y-13044460D01*
X8463039Y-13044460D02*
X8453515Y-13053984D01*
X8453515Y-13053984D02*
X8443991Y-13044460D01*
X8443991Y-13044460D02*
X8453515Y-13034936D01*
X8453515Y-13034936D02*
X8453515Y-13053984D01*
X8586848Y-12853984D02*
X8605896Y-12853984D01*
X8605896Y-12853984D02*
X8624944Y-12863508D01*
X8624944Y-12863508D02*
X8634468Y-12873031D01*
X8634468Y-12873031D02*
X8643991Y-12892079D01*
X8643991Y-12892079D02*
X8653515Y-12930174D01*
X8653515Y-12930174D02*
X8653515Y-12977793D01*
X8653515Y-12977793D02*
X8643991Y-13015888D01*
X8643991Y-13015888D02*
X8634468Y-13034936D01*
X8634468Y-13034936D02*
X8624944Y-13044460D01*
X8624944Y-13044460D02*
X8605896Y-13053984D01*
X8605896Y-13053984D02*
X8586848Y-13053984D01*
X8586848Y-13053984D02*
X8567801Y-13044460D01*
X8567801Y-13044460D02*
X8558277Y-13034936D01*
X8558277Y-13034936D02*
X8548753Y-13015888D01*
X8548753Y-13015888D02*
X8539229Y-12977793D01*
X8539229Y-12977793D02*
X8539229Y-12930174D01*
X8539229Y-12930174D02*
X8548753Y-12892079D01*
X8548753Y-12892079D02*
X8558277Y-12873031D01*
X8558277Y-12873031D02*
X8567801Y-12863508D01*
X8567801Y-12863508D02*
X8586848Y-12853984D01*
X8720182Y-12853984D02*
X8853515Y-12853984D01*
X8853515Y-12853984D02*
X8767801Y-13053984D01*
X8958277Y-12939698D02*
X8939229Y-12930174D01*
X8939229Y-12930174D02*
X8929706Y-12920650D01*
X8929706Y-12920650D02*
X8920182Y-12901603D01*
X8920182Y-12901603D02*
X8920182Y-12892079D01*
X8920182Y-12892079D02*
X8929706Y-12873031D01*
X8929706Y-12873031D02*
X8939229Y-12863508D01*
X8939229Y-12863508D02*
X8958277Y-12853984D01*
X8958277Y-12853984D02*
X8996372Y-12853984D01*
X8996372Y-12853984D02*
X9015420Y-12863508D01*
X9015420Y-12863508D02*
X9024944Y-12873031D01*
X9024944Y-12873031D02*
X9034468Y-12892079D01*
X9034468Y-12892079D02*
X9034468Y-12901603D01*
X9034468Y-12901603D02*
X9024944Y-12920650D01*
X9024944Y-12920650D02*
X9015420Y-12930174D01*
X9015420Y-12930174D02*
X8996372Y-12939698D01*
X8996372Y-12939698D02*
X8958277Y-12939698D01*
X8958277Y-12939698D02*
X8939229Y-12949222D01*
X8939229Y-12949222D02*
X8929706Y-12958746D01*
X8929706Y-12958746D02*
X8920182Y-12977793D01*
X8920182Y-12977793D02*
X8920182Y-13015888D01*
X8920182Y-13015888D02*
X8929706Y-13034936D01*
X8929706Y-13034936D02*
X8939229Y-13044460D01*
X8939229Y-13044460D02*
X8958277Y-13053984D01*
X8958277Y-13053984D02*
X8996372Y-13053984D01*
X8996372Y-13053984D02*
X9015420Y-13044460D01*
X9015420Y-13044460D02*
X9024944Y-13034936D01*
X9024944Y-13034936D02*
X9034468Y-13015888D01*
X9034468Y-13015888D02*
X9034468Y-12977793D01*
X9034468Y-12977793D02*
X9024944Y-12958746D01*
X9024944Y-12958746D02*
X9015420Y-12949222D01*
X9015420Y-12949222D02*
X8996372Y-12939698D01*
X9101134Y-12853984D02*
X9234468Y-12853984D01*
X9234468Y-12853984D02*
X9148753Y-13053984D01*
X9301134Y-12853984D02*
X9301134Y-12892079D01*
X9377325Y-12853984D02*
X9377325Y-12892079D01*
X9672563Y-13130174D02*
X9663039Y-13120650D01*
X9663039Y-13120650D02*
X9643991Y-13092079D01*
X9643991Y-13092079D02*
X9634468Y-13073031D01*
X9634468Y-13073031D02*
X9624944Y-13044460D01*
X9624944Y-13044460D02*
X9615420Y-12996841D01*
X9615420Y-12996841D02*
X9615420Y-12958746D01*
X9615420Y-12958746D02*
X9624944Y-12911127D01*
X9624944Y-12911127D02*
X9634468Y-12882555D01*
X9634468Y-12882555D02*
X9643991Y-12863508D01*
X9643991Y-12863508D02*
X9663039Y-12834936D01*
X9663039Y-12834936D02*
X9672563Y-12825412D01*
X9758277Y-13053984D02*
X9796372Y-13053984D01*
X9796372Y-13053984D02*
X9815420Y-13044460D01*
X9815420Y-13044460D02*
X9824944Y-13034936D01*
X9824944Y-13034936D02*
X9843991Y-13006365D01*
X9843991Y-13006365D02*
X9853515Y-12968269D01*
X9853515Y-12968269D02*
X9853515Y-12892079D01*
X9853515Y-12892079D02*
X9843991Y-12873031D01*
X9843991Y-12873031D02*
X9834468Y-12863508D01*
X9834468Y-12863508D02*
X9815420Y-12853984D01*
X9815420Y-12853984D02*
X9777325Y-12853984D01*
X9777325Y-12853984D02*
X9758277Y-12863508D01*
X9758277Y-12863508D02*
X9748753Y-12873031D01*
X9748753Y-12873031D02*
X9739230Y-12892079D01*
X9739230Y-12892079D02*
X9739230Y-12939698D01*
X9739230Y-12939698D02*
X9748753Y-12958746D01*
X9748753Y-12958746D02*
X9758277Y-12968269D01*
X9758277Y-12968269D02*
X9777325Y-12977793D01*
X9777325Y-12977793D02*
X9815420Y-12977793D01*
X9815420Y-12977793D02*
X9834468Y-12968269D01*
X9834468Y-12968269D02*
X9843991Y-12958746D01*
X9843991Y-12958746D02*
X9853515Y-12939698D01*
X10091611Y-13053984D02*
X10091611Y-12853984D01*
X10177325Y-13053984D02*
X10177325Y-12949222D01*
X10177325Y-12949222D02*
X10167801Y-12930174D01*
X10167801Y-12930174D02*
X10148753Y-12920650D01*
X10148753Y-12920650D02*
X10120182Y-12920650D01*
X10120182Y-12920650D02*
X10101134Y-12930174D01*
X10101134Y-12930174D02*
X10091611Y-12939698D01*
X10301134Y-13053984D02*
X10282087Y-13044460D01*
X10282087Y-13044460D02*
X10272563Y-13034936D01*
X10272563Y-13034936D02*
X10263039Y-13015888D01*
X10263039Y-13015888D02*
X10263039Y-12958746D01*
X10263039Y-12958746D02*
X10272563Y-12939698D01*
X10272563Y-12939698D02*
X10282087Y-12930174D01*
X10282087Y-12930174D02*
X10301134Y-12920650D01*
X10301134Y-12920650D02*
X10329706Y-12920650D01*
X10329706Y-12920650D02*
X10348753Y-12930174D01*
X10348753Y-12930174D02*
X10358277Y-12939698D01*
X10358277Y-12939698D02*
X10367801Y-12958746D01*
X10367801Y-12958746D02*
X10367801Y-13015888D01*
X10367801Y-13015888D02*
X10358277Y-13034936D01*
X10358277Y-13034936D02*
X10348753Y-13044460D01*
X10348753Y-13044460D02*
X10329706Y-13053984D01*
X10329706Y-13053984D02*
X10301134Y-13053984D01*
X10482087Y-13053984D02*
X10463039Y-13044460D01*
X10463039Y-13044460D02*
X10453515Y-13025412D01*
X10453515Y-13025412D02*
X10453515Y-12853984D01*
X10634468Y-13044460D02*
X10615420Y-13053984D01*
X10615420Y-13053984D02*
X10577325Y-13053984D01*
X10577325Y-13053984D02*
X10558277Y-13044460D01*
X10558277Y-13044460D02*
X10548753Y-13025412D01*
X10548753Y-13025412D02*
X10548753Y-12949222D01*
X10548753Y-12949222D02*
X10558277Y-12930174D01*
X10558277Y-12930174D02*
X10577325Y-12920650D01*
X10577325Y-12920650D02*
X10615420Y-12920650D01*
X10615420Y-12920650D02*
X10634468Y-12930174D01*
X10634468Y-12930174D02*
X10643992Y-12949222D01*
X10643992Y-12949222D02*
X10643992Y-12968269D01*
X10643992Y-12968269D02*
X10548753Y-12987317D01*
X10720182Y-13044460D02*
X10739230Y-13053984D01*
X10739230Y-13053984D02*
X10777325Y-13053984D01*
X10777325Y-13053984D02*
X10796373Y-13044460D01*
X10796373Y-13044460D02*
X10805896Y-13025412D01*
X10805896Y-13025412D02*
X10805896Y-13015888D01*
X10805896Y-13015888D02*
X10796373Y-12996841D01*
X10796373Y-12996841D02*
X10777325Y-12987317D01*
X10777325Y-12987317D02*
X10748753Y-12987317D01*
X10748753Y-12987317D02*
X10729706Y-12977793D01*
X10729706Y-12977793D02*
X10720182Y-12958746D01*
X10720182Y-12958746D02*
X10720182Y-12949222D01*
X10720182Y-12949222D02*
X10729706Y-12930174D01*
X10729706Y-12930174D02*
X10748753Y-12920650D01*
X10748753Y-12920650D02*
X10777325Y-12920650D01*
X10777325Y-12920650D02*
X10796373Y-12930174D01*
X10872563Y-13130174D02*
X10882087Y-13120650D01*
X10882087Y-13120650D02*
X10901134Y-13092079D01*
X10901134Y-13092079D02*
X10910658Y-13073031D01*
X10910658Y-13073031D02*
X10920182Y-13044460D01*
X10920182Y-13044460D02*
X10929706Y-12996841D01*
X10929706Y-12996841D02*
X10929706Y-12958746D01*
X10929706Y-12958746D02*
X10920182Y-12911127D01*
X10920182Y-12911127D02*
X10910658Y-12882555D01*
X10910658Y-12882555D02*
X10901134Y-12863508D01*
X10901134Y-12863508D02*
X10882087Y-12834936D01*
X10882087Y-12834936D02*
X10872563Y-12825412D01*
M02*
