M48
; DRILL file {KiCad 9.0.7} date 2026-04-01T09:11:17-0500
; FORMAT={-:-/ absolute / metric / decimal}
; #@! TF.CreationDate,2026-04-01T09:11:17-05:00
; #@! TF.GenerationSoftware,Kicad,Pcbnew,9.0.7
; #@! TF.FileFunction,Plated,1,4,PTH
FMAT,2
METRIC
; #@! TA.AperFunction,Plated,PTH,ComponentDrill
T1C0.200
; #@! TA.AperFunction,Plated,PTH,ViaDrill
T2C0.300
; #@! TA.AperFunction,Plated,PTH,ComponentDrill
T3C0.500
; #@! TA.AperFunction,Plated,PTH,ComponentDrill
T4C1.020
; #@! TA.AperFunction,Plated,PTH,ComponentDrill
T5C1.067
; #@! TA.AperFunction,Plated,PTH,ComponentDrill
T6C2.000
%
G90
G05
T1
X75.445Y-100.475
X75.445Y-101.775
X75.445Y-103.075
X77.355Y-100.475
X77.355Y-101.775
X77.355Y-103.075
X101.09Y-100.7
X101.09Y-102.0
X101.09Y-103.3
X103.0Y-100.7
X103.0Y-102.0
X103.0Y-103.3
T2
X63.0Y-66.0
X63.701Y-80.701
X64.0Y-41.0
X64.624Y-73.0
X65.0Y-39.0
X65.0Y-40.0
X66.0Y-41.0
X66.0Y-70.0
X66.0Y-82.0
X66.0Y-85.0
X67.0Y-72.0
X67.0Y-96.0
X68.0Y-86.0
X69.0Y-66.0
X69.0Y-105.0
X70.0Y-47.0
X71.0Y-47.0
X71.0Y-82.0
X71.199Y-101.801
X71.275Y-105.0
X71.876Y-39.014
X72.0Y-47.0
X72.0Y-73.0
X72.0Y-101.0
X73.0Y-65.0
X73.0Y-77.0
X73.108Y-80.992
X75.0Y-39.0
X75.0Y-72.0
X75.0Y-80.0
X75.0Y-97.0
X76.0Y-94.0
X76.068Y-63.834
X78.0Y-98.0
X78.175Y-79.834
X79.0Y-75.0
X79.0Y-99.0
X80.0Y-84.0
X80.0Y-105.0
X80.0Y-106.0
X81.0Y-78.0
X81.0Y-94.0
X81.0Y-102.0
X82.0Y-73.0
X82.0Y-83.0
X82.0Y-85.0
X82.0Y-87.0
X82.087Y-107.087
X82.725Y-56.725
X83.0Y-65.0
X83.0Y-67.0
X83.0Y-91.0
X84.0Y-95.0
X84.0Y-102.0
X85.0Y-76.0
X85.0Y-78.0
X85.0Y-87.0
X85.725Y-84.0
X85.949Y-89.051
X86.0Y-72.0
X86.0Y-102.0
X86.0Y-108.0
X87.0Y-66.0
X87.0Y-96.0
X88.0Y-73.0
X88.0Y-78.0
X88.0Y-87.0
X88.0Y-91.0
X88.0Y-109.0
X89.0Y-81.912
X90.0Y-39.0
X90.0Y-64.0
X90.0Y-67.0
X90.0Y-74.0
X90.0Y-103.0
X90.912Y-90.087
X91.0Y-81.0
X91.0Y-87.0
X91.0Y-92.0
X91.0Y-106.0
X91.0Y-108.0
X91.985Y-75.44
X92.0Y-98.0
X92.0Y-106.0
X92.07Y-71.246
X92.152Y-96.016
X92.761Y-85.838
X92.859Y-91.376
X93.0Y-60.0
X93.0Y-71.0
X93.0Y-78.0
X93.389Y-89.627
X94.0Y-55.0
X94.0Y-62.0
X94.0Y-75.0
X94.0Y-82.998
X94.0Y-95.0
X94.0Y-102.0
X95.0Y-53.0
X95.932Y-77.362
X96.0Y-68.0
X96.0Y-82.0
X96.0Y-89.0
X96.0Y-105.0
X96.015Y-83.183
X96.335Y-71.99
X96.379Y-76.555
X96.534Y-77.982
X96.987Y-92.59
X97.0Y-43.0
X97.0Y-60.0
X97.0Y-80.0
X97.0Y-85.0
X97.0Y-100.0
X97.173Y-97.62
X98.0Y-66.0
X98.0Y-68.0
X98.0Y-89.0
X98.428Y-97.69
X99.0Y-50.0
X99.395Y-85.794
X99.399Y-74.0
X100.0Y-75.0
X100.0Y-83.0
X100.0Y-85.0
X101.0Y-52.0
X101.0Y-82.0
X101.0Y-87.0
X101.0Y-88.0
X101.0Y-89.0
X101.0Y-93.0
X101.0Y-97.0
X102.0Y-55.0
X102.0Y-56.0
X102.0Y-95.0
X102.143Y-97.962
X103.0Y-54.0
X103.0Y-64.0
X103.0Y-74.0
X103.635Y-57.365
X104.862Y-54.0
X105.0Y-60.0
X105.0Y-64.0
X105.0Y-79.0
X105.0Y-86.0
X105.0Y-91.0
X105.905Y-97.86
X105.912Y-85.088
X106.0Y-62.0
X106.0Y-87.0
X106.0Y-88.0
X106.0Y-90.0
X106.0Y-94.0
X106.0Y-97.0
X106.0Y-107.0
X107.0Y-54.0
X107.0Y-93.0
X107.687Y-91.723
X108.0Y-73.0
X108.0Y-87.0
X108.0Y-89.0
X108.0Y-100.0
X108.151Y-80.083
X109.0Y-57.0
X109.0Y-105.0
X111.0Y-51.0
X112.0Y-69.0
X112.0Y-72.0
X112.0Y-81.0
X112.0Y-102.0
X112.0Y-107.0
X112.112Y-57.059
X114.0Y-70.0
X114.0Y-71.0
X114.0Y-74.0
X115.0Y-59.0
X115.0Y-73.0
X116.0Y-42.0
X116.0Y-59.0
X116.0Y-63.0
X116.0Y-66.0
X116.0Y-92.0
X116.19Y-61.19
X117.0Y-99.0
X117.252Y-66.533
X118.0Y-69.0
X119.0Y-68.0
X119.0Y-76.0
X120.0Y-52.0
X120.0Y-56.0
X121.0Y-64.0
X121.0Y-81.0
X122.0Y-54.54
X122.825Y-56.825
X123.0Y-48.0
X123.0Y-59.0
X125.0Y-56.0
T3
X70.0Y-45.0
X71.0Y-45.0
X72.0Y-45.0
X73.0Y-45.0
X74.0Y-45.0
X75.0Y-45.0
X76.0Y-45.0
X77.0Y-45.0
X88.0Y-89.0
X90.0Y-73.0
X90.412Y-76.799
X95.0Y-70.0
X95.0Y-77.0
X95.0Y-78.0
X95.0Y-79.0
X95.0Y-80.0
X95.0Y-81.0
X95.0Y-82.0
X95.0Y-83.0
X95.0Y-84.0
X95.0Y-85.0
X95.0Y-86.0
X95.0Y-87.0
X95.0Y-88.0
X95.0Y-89.0
X95.0Y-90.0
X95.0Y-91.0
X95.0Y-92.0
X95.0Y-93.0
X95.0Y-94.0
X95.0Y-95.0
X95.0Y-96.0
X109.0Y-43.0
X110.24Y-77.0
X110.24Y-78.0
X110.24Y-79.0
X110.24Y-80.0
X110.24Y-81.0
X110.24Y-82.0
X110.24Y-83.0
X110.24Y-84.0
X110.24Y-85.0
X110.24Y-86.0
X110.24Y-87.0
X110.24Y-88.0
X110.24Y-89.0
X110.24Y-90.0
X110.24Y-91.0
X110.24Y-92.0
X110.24Y-93.0
X110.24Y-94.0
X110.24Y-95.0
X110.24Y-96.0
X111.0Y-104.0
X116.0Y-89.0
X124.0Y-84.0
X129.0Y-91.0
T4
X64.68Y-93.0
X64.68Y-96.0
X64.68Y-99.0
X64.68Y-102.0
T5
X65.027Y-54.66
X65.027Y-57.66
X65.027Y-60.66
X128.973Y-96.34
X128.973Y-99.34
X128.973Y-102.34
T6
X63.675Y-69.0
X68.05Y-69.05
X74.125Y-69.0
X78.5Y-69.05
X85.825Y-69.125
X90.2Y-69.175
X90.675Y-47.625
X90.75Y-41.5
X90.8Y-35.925
M30
