%TF.GenerationSoftware,KiCad,Pcbnew,9.0.7*%
%TF.CreationDate,2026-03-31T08:13:10-05:00*%
%TF.ProjectId,Sensor Cell with Comms,53656e73-6f72-4204-9365-6c6c20776974,rev?*%
%TF.SameCoordinates,Original*%
%TF.FileFunction,Copper,L1,Top*%
%TF.FilePolarity,Positive*%
%FSLAX46Y46*%
G04 Gerber Fmt 4.6, Leading zero omitted, Abs format (unit mm)*
G04 Created by KiCad (PCBNEW 9.0.7) date 2026-03-31 08:13:10*
%MOMM*%
%LPD*%
G01*
G04 APERTURE LIST*
G04 Aperture macros list*
%AMRoundRect*
0 Rectangle with rounded corners*
0 $1 Rounding radius*
0 $2 $3 $4 $5 $6 $7 $8 $9 X,Y pos of 4 corners*
0 Add a 4 corners polygon primitive as box body*
4,1,4,$2,$3,$4,$5,$6,$7,$8,$9,$2,$3,0*
0 Add four circle primitives for the rounded corners*
1,1,$1+$1,$2,$3*
1,1,$1+$1,$4,$5*
1,1,$1+$1,$6,$7*
1,1,$1+$1,$8,$9*
0 Add four rect primitives between the rounded corners*
20,1,$1+$1,$2,$3,$4,$5,0*
20,1,$1+$1,$4,$5,$6,$7,0*
20,1,$1+$1,$6,$7,$8,$9,0*
20,1,$1+$1,$8,$9,$2,$3,0*%
G04 Aperture macros list end*
%ADD10C,0.100000*%
%ADD11C,0.150000*%
%ADD12C,0.300000*%
%ADD13C,0.400000*%
%TA.AperFunction,SMDPad,CuDef*%
%ADD14RoundRect,0.237500X-0.300000X-0.237500X0.300000X-0.237500X0.300000X0.237500X-0.300000X0.237500X0*%
%TD*%
%TA.AperFunction,SMDPad,CuDef*%
%ADD15RoundRect,0.237500X-0.250000X-0.237500X0.250000X-0.237500X0.250000X0.237500X-0.250000X0.237500X0*%
%TD*%
%TA.AperFunction,ComponentPad*%
%ADD16R,0.850000X0.850000*%
%TD*%
%TA.AperFunction,SMDPad,CuDef*%
%ADD17RoundRect,0.237500X0.300000X0.237500X-0.300000X0.237500X-0.300000X-0.237500X0.300000X-0.237500X0*%
%TD*%
%TA.AperFunction,SMDPad,CuDef*%
%ADD18RoundRect,0.237500X0.250000X0.237500X-0.250000X0.237500X-0.250000X-0.237500X0.250000X-0.237500X0*%
%TD*%
%TA.AperFunction,SMDPad,CuDef*%
%ADD19RoundRect,0.237500X-0.237500X0.300000X-0.237500X-0.300000X0.237500X-0.300000X0.237500X0.300000X0*%
%TD*%
%TA.AperFunction,SMDPad,CuDef*%
%ADD20RoundRect,0.237500X0.237500X-0.250000X0.237500X0.250000X-0.237500X0.250000X-0.237500X-0.250000X0*%
%TD*%
%TA.AperFunction,ComponentPad*%
%ADD21C,1.574800*%
%TD*%
%TA.AperFunction,SMDPad,CuDef*%
%ADD22RoundRect,0.237500X0.237500X-0.300000X0.237500X0.300000X-0.237500X0.300000X-0.237500X-0.300000X0*%
%TD*%
%TA.AperFunction,SMDPad,CuDef*%
%ADD23RoundRect,0.250000X-0.450000X0.400000X-0.450000X-0.400000X0.450000X-0.400000X0.450000X0.400000X0*%
%TD*%
%TA.AperFunction,SMDPad,CuDef*%
%ADD24RoundRect,0.150000X-0.725000X-0.150000X0.725000X-0.150000X0.725000X0.150000X-0.725000X0.150000X0*%
%TD*%
%TA.AperFunction,SMDPad,CuDef*%
%ADD25RoundRect,0.200000X-0.200000X0.250000X-0.200000X-0.250000X0.200000X-0.250000X0.200000X0.250000X0*%
%TD*%
%TA.AperFunction,SMDPad,CuDef*%
%ADD26RoundRect,0.150000X0.150000X-0.512500X0.150000X0.512500X-0.150000X0.512500X-0.150000X-0.512500X0*%
%TD*%
%TA.AperFunction,SMDPad,CuDef*%
%ADD27RoundRect,0.237500X-0.237500X0.250000X-0.237500X-0.250000X0.237500X-0.250000X0.237500X0.250000X0*%
%TD*%
%TA.AperFunction,SMDPad,CuDef*%
%ADD28RoundRect,0.250000X0.475000X-0.337500X0.475000X0.337500X-0.475000X0.337500X-0.475000X-0.337500X0*%
%TD*%
%TA.AperFunction,SMDPad,CuDef*%
%ADD29RoundRect,0.250000X0.450000X-0.400000X0.450000X0.400000X-0.450000X0.400000X-0.450000X-0.400000X0*%
%TD*%
%TA.AperFunction,ComponentPad*%
%ADD30C,0.850000*%
%TD*%
%TA.AperFunction,SMDPad,CuDef*%
%ADD31RoundRect,0.150000X-0.825000X-0.150000X0.825000X-0.150000X0.825000X0.150000X-0.825000X0.150000X0*%
%TD*%
%TA.AperFunction,ComponentPad*%
%ADD32C,3.000000*%
%TD*%
%TA.AperFunction,SMDPad,CuDef*%
%ADD33RoundRect,0.150000X-0.650000X-0.150000X0.650000X-0.150000X0.650000X0.150000X-0.650000X0.150000X0*%
%TD*%
%TA.AperFunction,HeatsinkPad*%
%ADD34C,0.500000*%
%TD*%
%TA.AperFunction,HeatsinkPad*%
%ADD35R,2.410000X3.100000*%
%TD*%
%TA.AperFunction,ComponentPad*%
%ADD36RoundRect,0.250001X-0.759999X0.499999X-0.759999X-0.499999X0.759999X-0.499999X0.759999X0.499999X0*%
%TD*%
%TA.AperFunction,ComponentPad*%
%ADD37O,2.020000X1.500000*%
%TD*%
%TA.AperFunction,ViaPad*%
%ADD38C,0.600000*%
%TD*%
%TA.AperFunction,Conductor*%
%ADD39C,0.200000*%
%TD*%
%TA.AperFunction,Conductor*%
%ADD40C,0.400000*%
%TD*%
%TA.AperFunction,Conductor*%
%ADD41C,0.500000*%
%TD*%
%TA.AperFunction,Conductor*%
%ADD42C,0.800000*%
%TD*%
%TA.AperFunction,Profile*%
%ADD43C,0.050000*%
%TD*%
G04 APERTURE END LIST*
D10*
D11*
X177002200Y-166007200D02*
X285002200Y-166007200D01*
X285002200Y-198007200D01*
X177002200Y-198007200D01*
X177002200Y-166007200D01*
D10*
D11*
X10000000Y-10000000D02*
X287002200Y-10000000D01*
X287002200Y-200007200D01*
X10000000Y-200007200D01*
X10000000Y-10000000D01*
D10*
D11*
X12000000Y-12000000D02*
X285002200Y-12000000D01*
X285002200Y-198007200D01*
X12000000Y-198007200D01*
X12000000Y-12000000D01*
D10*
D11*
X60000000Y-12000000D02*
X60000000Y-10000000D01*
D10*
D11*
X110000000Y-12000000D02*
X110000000Y-10000000D01*
D10*
D11*
X160000000Y-12000000D02*
X160000000Y-10000000D01*
D10*
D11*
X210000000Y-12000000D02*
X210000000Y-10000000D01*
D10*
D11*
X260000000Y-12000000D02*
X260000000Y-10000000D01*
D10*
D11*
X36089160Y-11593604D02*
X35346303Y-11593604D01*
X35717731Y-11593604D02*
X35717731Y-10293604D01*
X35717731Y-10293604D02*
X35593922Y-10479319D01*
X35593922Y-10479319D02*
X35470112Y-10603128D01*
X35470112Y-10603128D02*
X35346303Y-10665033D01*
D10*
D11*
X85346303Y-10417414D02*
X85408207Y-10355509D01*
X85408207Y-10355509D02*
X85532017Y-10293604D01*
X85532017Y-10293604D02*
X85841541Y-10293604D01*
X85841541Y-10293604D02*
X85965350Y-10355509D01*
X85965350Y-10355509D02*
X86027255Y-10417414D01*
X86027255Y-10417414D02*
X86089160Y-10541223D01*
X86089160Y-10541223D02*
X86089160Y-10665033D01*
X86089160Y-10665033D02*
X86027255Y-10850747D01*
X86027255Y-10850747D02*
X85284398Y-11593604D01*
X85284398Y-11593604D02*
X86089160Y-11593604D01*
D10*
D11*
X135284398Y-10293604D02*
X136089160Y-10293604D01*
X136089160Y-10293604D02*
X135655826Y-10788842D01*
X135655826Y-10788842D02*
X135841541Y-10788842D01*
X135841541Y-10788842D02*
X135965350Y-10850747D01*
X135965350Y-10850747D02*
X136027255Y-10912652D01*
X136027255Y-10912652D02*
X136089160Y-11036461D01*
X136089160Y-11036461D02*
X136089160Y-11345985D01*
X136089160Y-11345985D02*
X136027255Y-11469795D01*
X136027255Y-11469795D02*
X135965350Y-11531700D01*
X135965350Y-11531700D02*
X135841541Y-11593604D01*
X135841541Y-11593604D02*
X135470112Y-11593604D01*
X135470112Y-11593604D02*
X135346303Y-11531700D01*
X135346303Y-11531700D02*
X135284398Y-11469795D01*
D10*
D11*
X185965350Y-10726938D02*
X185965350Y-11593604D01*
X185655826Y-10231700D02*
X185346303Y-11160271D01*
X185346303Y-11160271D02*
X186151064Y-11160271D01*
D10*
D11*
X236027255Y-10293604D02*
X235408207Y-10293604D01*
X235408207Y-10293604D02*
X235346303Y-10912652D01*
X235346303Y-10912652D02*
X235408207Y-10850747D01*
X235408207Y-10850747D02*
X235532017Y-10788842D01*
X235532017Y-10788842D02*
X235841541Y-10788842D01*
X235841541Y-10788842D02*
X235965350Y-10850747D01*
X235965350Y-10850747D02*
X236027255Y-10912652D01*
X236027255Y-10912652D02*
X236089160Y-11036461D01*
X236089160Y-11036461D02*
X236089160Y-11345985D01*
X236089160Y-11345985D02*
X236027255Y-11469795D01*
X236027255Y-11469795D02*
X235965350Y-11531700D01*
X235965350Y-11531700D02*
X235841541Y-11593604D01*
X235841541Y-11593604D02*
X235532017Y-11593604D01*
X235532017Y-11593604D02*
X235408207Y-11531700D01*
X235408207Y-11531700D02*
X235346303Y-11469795D01*
D10*
D11*
X285965350Y-10293604D02*
X285717731Y-10293604D01*
X285717731Y-10293604D02*
X285593922Y-10355509D01*
X285593922Y-10355509D02*
X285532017Y-10417414D01*
X285532017Y-10417414D02*
X285408207Y-10603128D01*
X285408207Y-10603128D02*
X285346303Y-10850747D01*
X285346303Y-10850747D02*
X285346303Y-11345985D01*
X285346303Y-11345985D02*
X285408207Y-11469795D01*
X285408207Y-11469795D02*
X285470112Y-11531700D01*
X285470112Y-11531700D02*
X285593922Y-11593604D01*
X285593922Y-11593604D02*
X285841541Y-11593604D01*
X285841541Y-11593604D02*
X285965350Y-11531700D01*
X285965350Y-11531700D02*
X286027255Y-11469795D01*
X286027255Y-11469795D02*
X286089160Y-11345985D01*
X286089160Y-11345985D02*
X286089160Y-11036461D01*
X286089160Y-11036461D02*
X286027255Y-10912652D01*
X286027255Y-10912652D02*
X285965350Y-10850747D01*
X285965350Y-10850747D02*
X285841541Y-10788842D01*
X285841541Y-10788842D02*
X285593922Y-10788842D01*
X285593922Y-10788842D02*
X285470112Y-10850747D01*
X285470112Y-10850747D02*
X285408207Y-10912652D01*
X285408207Y-10912652D02*
X285346303Y-11036461D01*
D10*
D11*
X60000000Y-198007200D02*
X60000000Y-200007200D01*
D10*
D11*
X110000000Y-198007200D02*
X110000000Y-200007200D01*
D10*
D11*
X160000000Y-198007200D02*
X160000000Y-200007200D01*
D10*
D11*
X210000000Y-198007200D02*
X210000000Y-200007200D01*
D10*
D11*
X260000000Y-198007200D02*
X260000000Y-200007200D01*
D10*
D11*
X36089160Y-199600804D02*
X35346303Y-199600804D01*
X35717731Y-199600804D02*
X35717731Y-198300804D01*
X35717731Y-198300804D02*
X35593922Y-198486519D01*
X35593922Y-198486519D02*
X35470112Y-198610328D01*
X35470112Y-198610328D02*
X35346303Y-198672233D01*
D10*
D11*
X85346303Y-198424614D02*
X85408207Y-198362709D01*
X85408207Y-198362709D02*
X85532017Y-198300804D01*
X85532017Y-198300804D02*
X85841541Y-198300804D01*
X85841541Y-198300804D02*
X85965350Y-198362709D01*
X85965350Y-198362709D02*
X86027255Y-198424614D01*
X86027255Y-198424614D02*
X86089160Y-198548423D01*
X86089160Y-198548423D02*
X86089160Y-198672233D01*
X86089160Y-198672233D02*
X86027255Y-198857947D01*
X86027255Y-198857947D02*
X85284398Y-199600804D01*
X85284398Y-199600804D02*
X86089160Y-199600804D01*
D10*
D11*
X135284398Y-198300804D02*
X136089160Y-198300804D01*
X136089160Y-198300804D02*
X135655826Y-198796042D01*
X135655826Y-198796042D02*
X135841541Y-198796042D01*
X135841541Y-198796042D02*
X135965350Y-198857947D01*
X135965350Y-198857947D02*
X136027255Y-198919852D01*
X136027255Y-198919852D02*
X136089160Y-199043661D01*
X136089160Y-199043661D02*
X136089160Y-199353185D01*
X136089160Y-199353185D02*
X136027255Y-199476995D01*
X136027255Y-199476995D02*
X135965350Y-199538900D01*
X135965350Y-199538900D02*
X135841541Y-199600804D01*
X135841541Y-199600804D02*
X135470112Y-199600804D01*
X135470112Y-199600804D02*
X135346303Y-199538900D01*
X135346303Y-199538900D02*
X135284398Y-199476995D01*
D10*
D11*
X185965350Y-198734138D02*
X185965350Y-199600804D01*
X185655826Y-198238900D02*
X185346303Y-199167471D01*
X185346303Y-199167471D02*
X186151064Y-199167471D01*
D10*
D11*
X236027255Y-198300804D02*
X235408207Y-198300804D01*
X235408207Y-198300804D02*
X235346303Y-198919852D01*
X235346303Y-198919852D02*
X235408207Y-198857947D01*
X235408207Y-198857947D02*
X235532017Y-198796042D01*
X235532017Y-198796042D02*
X235841541Y-198796042D01*
X235841541Y-198796042D02*
X235965350Y-198857947D01*
X235965350Y-198857947D02*
X236027255Y-198919852D01*
X236027255Y-198919852D02*
X236089160Y-199043661D01*
X236089160Y-199043661D02*
X236089160Y-199353185D01*
X236089160Y-199353185D02*
X236027255Y-199476995D01*
X236027255Y-199476995D02*
X235965350Y-199538900D01*
X235965350Y-199538900D02*
X235841541Y-199600804D01*
X235841541Y-199600804D02*
X235532017Y-199600804D01*
X235532017Y-199600804D02*
X235408207Y-199538900D01*
X235408207Y-199538900D02*
X235346303Y-199476995D01*
D10*
D11*
X285965350Y-198300804D02*
X285717731Y-198300804D01*
X285717731Y-198300804D02*
X285593922Y-198362709D01*
X285593922Y-198362709D02*
X285532017Y-198424614D01*
X285532017Y-198424614D02*
X285408207Y-198610328D01*
X285408207Y-198610328D02*
X285346303Y-198857947D01*
X285346303Y-198857947D02*
X285346303Y-199353185D01*
X285346303Y-199353185D02*
X285408207Y-199476995D01*
X285408207Y-199476995D02*
X285470112Y-199538900D01*
X285470112Y-199538900D02*
X285593922Y-199600804D01*
X285593922Y-199600804D02*
X285841541Y-199600804D01*
X285841541Y-199600804D02*
X285965350Y-199538900D01*
X285965350Y-199538900D02*
X286027255Y-199476995D01*
X286027255Y-199476995D02*
X286089160Y-199353185D01*
X286089160Y-199353185D02*
X286089160Y-199043661D01*
X286089160Y-199043661D02*
X286027255Y-198919852D01*
X286027255Y-198919852D02*
X285965350Y-198857947D01*
X285965350Y-198857947D02*
X285841541Y-198796042D01*
X285841541Y-198796042D02*
X285593922Y-198796042D01*
X285593922Y-198796042D02*
X285470112Y-198857947D01*
X285470112Y-198857947D02*
X285408207Y-198919852D01*
X285408207Y-198919852D02*
X285346303Y-199043661D01*
D10*
D11*
X10000000Y-60000000D02*
X12000000Y-60000000D01*
D10*
D11*
X10000000Y-110000000D02*
X12000000Y-110000000D01*
D10*
D11*
X10000000Y-160000000D02*
X12000000Y-160000000D01*
D10*
D11*
X10690476Y-35222176D02*
X11309523Y-35222176D01*
X10566666Y-35593604D02*
X10999999Y-34293604D01*
X10999999Y-34293604D02*
X11433333Y-35593604D01*
D10*
D11*
X11092857Y-84912652D02*
X11278571Y-84974557D01*
X11278571Y-84974557D02*
X11340476Y-85036461D01*
X11340476Y-85036461D02*
X11402380Y-85160271D01*
X11402380Y-85160271D02*
X11402380Y-85345985D01*
X11402380Y-85345985D02*
X11340476Y-85469795D01*
X11340476Y-85469795D02*
X11278571Y-85531700D01*
X11278571Y-85531700D02*
X11154761Y-85593604D01*
X11154761Y-85593604D02*
X10659523Y-85593604D01*
X10659523Y-85593604D02*
X10659523Y-84293604D01*
X10659523Y-84293604D02*
X11092857Y-84293604D01*
X11092857Y-84293604D02*
X11216666Y-84355509D01*
X11216666Y-84355509D02*
X11278571Y-84417414D01*
X11278571Y-84417414D02*
X11340476Y-84541223D01*
X11340476Y-84541223D02*
X11340476Y-84665033D01*
X11340476Y-84665033D02*
X11278571Y-84788842D01*
X11278571Y-84788842D02*
X11216666Y-84850747D01*
X11216666Y-84850747D02*
X11092857Y-84912652D01*
X11092857Y-84912652D02*
X10659523Y-84912652D01*
D10*
D11*
X11402380Y-135469795D02*
X11340476Y-135531700D01*
X11340476Y-135531700D02*
X11154761Y-135593604D01*
X11154761Y-135593604D02*
X11030952Y-135593604D01*
X11030952Y-135593604D02*
X10845238Y-135531700D01*
X10845238Y-135531700D02*
X10721428Y-135407890D01*
X10721428Y-135407890D02*
X10659523Y-135284080D01*
X10659523Y-135284080D02*
X10597619Y-135036461D01*
X10597619Y-135036461D02*
X10597619Y-134850747D01*
X10597619Y-134850747D02*
X10659523Y-134603128D01*
X10659523Y-134603128D02*
X10721428Y-134479319D01*
X10721428Y-134479319D02*
X10845238Y-134355509D01*
X10845238Y-134355509D02*
X11030952Y-134293604D01*
X11030952Y-134293604D02*
X11154761Y-134293604D01*
X11154761Y-134293604D02*
X11340476Y-134355509D01*
X11340476Y-134355509D02*
X11402380Y-134417414D01*
D10*
D11*
X10659523Y-185593604D02*
X10659523Y-184293604D01*
X10659523Y-184293604D02*
X10969047Y-184293604D01*
X10969047Y-184293604D02*
X11154761Y-184355509D01*
X11154761Y-184355509D02*
X11278571Y-184479319D01*
X11278571Y-184479319D02*
X11340476Y-184603128D01*
X11340476Y-184603128D02*
X11402380Y-184850747D01*
X11402380Y-184850747D02*
X11402380Y-185036461D01*
X11402380Y-185036461D02*
X11340476Y-185284080D01*
X11340476Y-185284080D02*
X11278571Y-185407890D01*
X11278571Y-185407890D02*
X11154761Y-185531700D01*
X11154761Y-185531700D02*
X10969047Y-185593604D01*
X10969047Y-185593604D02*
X10659523Y-185593604D01*
D10*
D11*
X287002200Y-60000000D02*
X285002200Y-60000000D01*
D10*
D11*
X287002200Y-110000000D02*
X285002200Y-110000000D01*
D10*
D11*
X287002200Y-160000000D02*
X285002200Y-160000000D01*
D10*
D11*
X285692676Y-35222176D02*
X286311723Y-35222176D01*
X285568866Y-35593604D02*
X286002199Y-34293604D01*
X286002199Y-34293604D02*
X286435533Y-35593604D01*
D10*
D11*
X286095057Y-84912652D02*
X286280771Y-84974557D01*
X286280771Y-84974557D02*
X286342676Y-85036461D01*
X286342676Y-85036461D02*
X286404580Y-85160271D01*
X286404580Y-85160271D02*
X286404580Y-85345985D01*
X286404580Y-85345985D02*
X286342676Y-85469795D01*
X286342676Y-85469795D02*
X286280771Y-85531700D01*
X286280771Y-85531700D02*
X286156961Y-85593604D01*
X286156961Y-85593604D02*
X285661723Y-85593604D01*
X285661723Y-85593604D02*
X285661723Y-84293604D01*
X285661723Y-84293604D02*
X286095057Y-84293604D01*
X286095057Y-84293604D02*
X286218866Y-84355509D01*
X286218866Y-84355509D02*
X286280771Y-84417414D01*
X286280771Y-84417414D02*
X286342676Y-84541223D01*
X286342676Y-84541223D02*
X286342676Y-84665033D01*
X286342676Y-84665033D02*
X286280771Y-84788842D01*
X286280771Y-84788842D02*
X286218866Y-84850747D01*
X286218866Y-84850747D02*
X286095057Y-84912652D01*
X286095057Y-84912652D02*
X285661723Y-84912652D01*
D10*
D11*
X286404580Y-135469795D02*
X286342676Y-135531700D01*
X286342676Y-135531700D02*
X286156961Y-135593604D01*
X286156961Y-135593604D02*
X286033152Y-135593604D01*
X286033152Y-135593604D02*
X285847438Y-135531700D01*
X285847438Y-135531700D02*
X285723628Y-135407890D01*
X285723628Y-135407890D02*
X285661723Y-135284080D01*
X285661723Y-135284080D02*
X285599819Y-135036461D01*
X285599819Y-135036461D02*
X285599819Y-134850747D01*
X285599819Y-134850747D02*
X285661723Y-134603128D01*
X285661723Y-134603128D02*
X285723628Y-134479319D01*
X285723628Y-134479319D02*
X285847438Y-134355509D01*
X285847438Y-134355509D02*
X286033152Y-134293604D01*
X286033152Y-134293604D02*
X286156961Y-134293604D01*
X286156961Y-134293604D02*
X286342676Y-134355509D01*
X286342676Y-134355509D02*
X286404580Y-134417414D01*
D10*
D11*
X285661723Y-185593604D02*
X285661723Y-184293604D01*
X285661723Y-184293604D02*
X285971247Y-184293604D01*
X285971247Y-184293604D02*
X286156961Y-184355509D01*
X286156961Y-184355509D02*
X286280771Y-184479319D01*
X286280771Y-184479319D02*
X286342676Y-184603128D01*
X286342676Y-184603128D02*
X286404580Y-184850747D01*
X286404580Y-184850747D02*
X286404580Y-185036461D01*
X286404580Y-185036461D02*
X286342676Y-185284080D01*
X286342676Y-185284080D02*
X286280771Y-185407890D01*
X286280771Y-185407890D02*
X286156961Y-185531700D01*
X286156961Y-185531700D02*
X285971247Y-185593604D01*
X285971247Y-185593604D02*
X285661723Y-185593604D01*
D10*
D11*
X200458026Y-193793328D02*
X200458026Y-192293328D01*
X200458026Y-192293328D02*
X200815169Y-192293328D01*
X200815169Y-192293328D02*
X201029455Y-192364757D01*
X201029455Y-192364757D02*
X201172312Y-192507614D01*
X201172312Y-192507614D02*
X201243741Y-192650471D01*
X201243741Y-192650471D02*
X201315169Y-192936185D01*
X201315169Y-192936185D02*
X201315169Y-193150471D01*
X201315169Y-193150471D02*
X201243741Y-193436185D01*
X201243741Y-193436185D02*
X201172312Y-193579042D01*
X201172312Y-193579042D02*
X201029455Y-193721900D01*
X201029455Y-193721900D02*
X200815169Y-193793328D01*
X200815169Y-193793328D02*
X200458026Y-193793328D01*
X202600884Y-193793328D02*
X202600884Y-193007614D01*
X202600884Y-193007614D02*
X202529455Y-192864757D01*
X202529455Y-192864757D02*
X202386598Y-192793328D01*
X202386598Y-192793328D02*
X202100884Y-192793328D01*
X202100884Y-192793328D02*
X201958026Y-192864757D01*
X202600884Y-193721900D02*
X202458026Y-193793328D01*
X202458026Y-193793328D02*
X202100884Y-193793328D01*
X202100884Y-193793328D02*
X201958026Y-193721900D01*
X201958026Y-193721900D02*
X201886598Y-193579042D01*
X201886598Y-193579042D02*
X201886598Y-193436185D01*
X201886598Y-193436185D02*
X201958026Y-193293328D01*
X201958026Y-193293328D02*
X202100884Y-193221900D01*
X202100884Y-193221900D02*
X202458026Y-193221900D01*
X202458026Y-193221900D02*
X202600884Y-193150471D01*
X203100884Y-192793328D02*
X203672312Y-192793328D01*
X203315169Y-192293328D02*
X203315169Y-193579042D01*
X203315169Y-193579042D02*
X203386598Y-193721900D01*
X203386598Y-193721900D02*
X203529455Y-193793328D01*
X203529455Y-193793328D02*
X203672312Y-193793328D01*
X204743741Y-193721900D02*
X204600884Y-193793328D01*
X204600884Y-193793328D02*
X204315170Y-193793328D01*
X204315170Y-193793328D02*
X204172312Y-193721900D01*
X204172312Y-193721900D02*
X204100884Y-193579042D01*
X204100884Y-193579042D02*
X204100884Y-193007614D01*
X204100884Y-193007614D02*
X204172312Y-192864757D01*
X204172312Y-192864757D02*
X204315170Y-192793328D01*
X204315170Y-192793328D02*
X204600884Y-192793328D01*
X204600884Y-192793328D02*
X204743741Y-192864757D01*
X204743741Y-192864757D02*
X204815170Y-193007614D01*
X204815170Y-193007614D02*
X204815170Y-193150471D01*
X204815170Y-193150471D02*
X204100884Y-193293328D01*
X205458026Y-193650471D02*
X205529455Y-193721900D01*
X205529455Y-193721900D02*
X205458026Y-193793328D01*
X205458026Y-193793328D02*
X205386598Y-193721900D01*
X205386598Y-193721900D02*
X205458026Y-193650471D01*
X205458026Y-193650471D02*
X205458026Y-193793328D01*
X205458026Y-192864757D02*
X205529455Y-192936185D01*
X205529455Y-192936185D02*
X205458026Y-193007614D01*
X205458026Y-193007614D02*
X205386598Y-192936185D01*
X205386598Y-192936185D02*
X205458026Y-192864757D01*
X205458026Y-192864757D02*
X205458026Y-193007614D01*
D10*
D11*
X177002200Y-194507200D02*
X285002200Y-194507200D01*
D10*
D11*
X178458026Y-196593328D02*
X178458026Y-195093328D01*
X179315169Y-196593328D02*
X178672312Y-195736185D01*
X179315169Y-195093328D02*
X178458026Y-195950471D01*
X179958026Y-196593328D02*
X179958026Y-195593328D01*
X179958026Y-195093328D02*
X179886598Y-195164757D01*
X179886598Y-195164757D02*
X179958026Y-195236185D01*
X179958026Y-195236185D02*
X180029455Y-195164757D01*
X180029455Y-195164757D02*
X179958026Y-195093328D01*
X179958026Y-195093328D02*
X179958026Y-195236185D01*
X181529455Y-196450471D02*
X181458027Y-196521900D01*
X181458027Y-196521900D02*
X181243741Y-196593328D01*
X181243741Y-196593328D02*
X181100884Y-196593328D01*
X181100884Y-196593328D02*
X180886598Y-196521900D01*
X180886598Y-196521900D02*
X180743741Y-196379042D01*
X180743741Y-196379042D02*
X180672312Y-196236185D01*
X180672312Y-196236185D02*
X180600884Y-195950471D01*
X180600884Y-195950471D02*
X180600884Y-195736185D01*
X180600884Y-195736185D02*
X180672312Y-195450471D01*
X180672312Y-195450471D02*
X180743741Y-195307614D01*
X180743741Y-195307614D02*
X180886598Y-195164757D01*
X180886598Y-195164757D02*
X181100884Y-195093328D01*
X181100884Y-195093328D02*
X181243741Y-195093328D01*
X181243741Y-195093328D02*
X181458027Y-195164757D01*
X181458027Y-195164757D02*
X181529455Y-195236185D01*
X182815170Y-196593328D02*
X182815170Y-195807614D01*
X182815170Y-195807614D02*
X182743741Y-195664757D01*
X182743741Y-195664757D02*
X182600884Y-195593328D01*
X182600884Y-195593328D02*
X182315170Y-195593328D01*
X182315170Y-195593328D02*
X182172312Y-195664757D01*
X182815170Y-196521900D02*
X182672312Y-196593328D01*
X182672312Y-196593328D02*
X182315170Y-196593328D01*
X182315170Y-196593328D02*
X182172312Y-196521900D01*
X182172312Y-196521900D02*
X182100884Y-196379042D01*
X182100884Y-196379042D02*
X182100884Y-196236185D01*
X182100884Y-196236185D02*
X182172312Y-196093328D01*
X182172312Y-196093328D02*
X182315170Y-196021900D01*
X182315170Y-196021900D02*
X182672312Y-196021900D01*
X182672312Y-196021900D02*
X182815170Y-195950471D01*
X184172313Y-196593328D02*
X184172313Y-195093328D01*
X184172313Y-196521900D02*
X184029455Y-196593328D01*
X184029455Y-196593328D02*
X183743741Y-196593328D01*
X183743741Y-196593328D02*
X183600884Y-196521900D01*
X183600884Y-196521900D02*
X183529455Y-196450471D01*
X183529455Y-196450471D02*
X183458027Y-196307614D01*
X183458027Y-196307614D02*
X183458027Y-195879042D01*
X183458027Y-195879042D02*
X183529455Y-195736185D01*
X183529455Y-195736185D02*
X183600884Y-195664757D01*
X183600884Y-195664757D02*
X183743741Y-195593328D01*
X183743741Y-195593328D02*
X184029455Y-195593328D01*
X184029455Y-195593328D02*
X184172313Y-195664757D01*
X186029455Y-195807614D02*
X186529455Y-195807614D01*
X186743741Y-196593328D02*
X186029455Y-196593328D01*
X186029455Y-196593328D02*
X186029455Y-195093328D01*
X186029455Y-195093328D02*
X186743741Y-195093328D01*
X187386598Y-196450471D02*
X187458027Y-196521900D01*
X187458027Y-196521900D02*
X187386598Y-196593328D01*
X187386598Y-196593328D02*
X187315170Y-196521900D01*
X187315170Y-196521900D02*
X187386598Y-196450471D01*
X187386598Y-196450471D02*
X187386598Y-196593328D01*
X188100884Y-196593328D02*
X188100884Y-195093328D01*
X188100884Y-195093328D02*
X188458027Y-195093328D01*
X188458027Y-195093328D02*
X188672313Y-195164757D01*
X188672313Y-195164757D02*
X188815170Y-195307614D01*
X188815170Y-195307614D02*
X188886599Y-195450471D01*
X188886599Y-195450471D02*
X188958027Y-195736185D01*
X188958027Y-195736185D02*
X188958027Y-195950471D01*
X188958027Y-195950471D02*
X188886599Y-196236185D01*
X188886599Y-196236185D02*
X188815170Y-196379042D01*
X188815170Y-196379042D02*
X188672313Y-196521900D01*
X188672313Y-196521900D02*
X188458027Y-196593328D01*
X188458027Y-196593328D02*
X188100884Y-196593328D01*
X189600884Y-196450471D02*
X189672313Y-196521900D01*
X189672313Y-196521900D02*
X189600884Y-196593328D01*
X189600884Y-196593328D02*
X189529456Y-196521900D01*
X189529456Y-196521900D02*
X189600884Y-196450471D01*
X189600884Y-196450471D02*
X189600884Y-196593328D01*
X190243742Y-196164757D02*
X190958028Y-196164757D01*
X190100885Y-196593328D02*
X190600885Y-195093328D01*
X190600885Y-195093328D02*
X191100885Y-196593328D01*
X191600884Y-196450471D02*
X191672313Y-196521900D01*
X191672313Y-196521900D02*
X191600884Y-196593328D01*
X191600884Y-196593328D02*
X191529456Y-196521900D01*
X191529456Y-196521900D02*
X191600884Y-196450471D01*
X191600884Y-196450471D02*
X191600884Y-196593328D01*
X193529456Y-196593328D02*
X193815170Y-196593328D01*
X193815170Y-196593328D02*
X193958027Y-196521900D01*
X193958027Y-196521900D02*
X194029456Y-196450471D01*
X194029456Y-196450471D02*
X194172313Y-196236185D01*
X194172313Y-196236185D02*
X194243742Y-195950471D01*
X194243742Y-195950471D02*
X194243742Y-195379042D01*
X194243742Y-195379042D02*
X194172313Y-195236185D01*
X194172313Y-195236185D02*
X194100885Y-195164757D01*
X194100885Y-195164757D02*
X193958027Y-195093328D01*
X193958027Y-195093328D02*
X193672313Y-195093328D01*
X193672313Y-195093328D02*
X193529456Y-195164757D01*
X193529456Y-195164757D02*
X193458027Y-195236185D01*
X193458027Y-195236185D02*
X193386599Y-195379042D01*
X193386599Y-195379042D02*
X193386599Y-195736185D01*
X193386599Y-195736185D02*
X193458027Y-195879042D01*
X193458027Y-195879042D02*
X193529456Y-195950471D01*
X193529456Y-195950471D02*
X193672313Y-196021900D01*
X193672313Y-196021900D02*
X193958027Y-196021900D01*
X193958027Y-196021900D02*
X194100885Y-195950471D01*
X194100885Y-195950471D02*
X194172313Y-195879042D01*
X194172313Y-195879042D02*
X194243742Y-195736185D01*
X194886598Y-196450471D02*
X194958027Y-196521900D01*
X194958027Y-196521900D02*
X194886598Y-196593328D01*
X194886598Y-196593328D02*
X194815170Y-196521900D01*
X194815170Y-196521900D02*
X194886598Y-196450471D01*
X194886598Y-196450471D02*
X194886598Y-196593328D01*
X195886599Y-195093328D02*
X196029456Y-195093328D01*
X196029456Y-195093328D02*
X196172313Y-195164757D01*
X196172313Y-195164757D02*
X196243742Y-195236185D01*
X196243742Y-195236185D02*
X196315170Y-195379042D01*
X196315170Y-195379042D02*
X196386599Y-195664757D01*
X196386599Y-195664757D02*
X196386599Y-196021900D01*
X196386599Y-196021900D02*
X196315170Y-196307614D01*
X196315170Y-196307614D02*
X196243742Y-196450471D01*
X196243742Y-196450471D02*
X196172313Y-196521900D01*
X196172313Y-196521900D02*
X196029456Y-196593328D01*
X196029456Y-196593328D02*
X195886599Y-196593328D01*
X195886599Y-196593328D02*
X195743742Y-196521900D01*
X195743742Y-196521900D02*
X195672313Y-196450471D01*
X195672313Y-196450471D02*
X195600884Y-196307614D01*
X195600884Y-196307614D02*
X195529456Y-196021900D01*
X195529456Y-196021900D02*
X195529456Y-195664757D01*
X195529456Y-195664757D02*
X195600884Y-195379042D01*
X195600884Y-195379042D02*
X195672313Y-195236185D01*
X195672313Y-195236185D02*
X195743742Y-195164757D01*
X195743742Y-195164757D02*
X195886599Y-195093328D01*
X197029455Y-196450471D02*
X197100884Y-196521900D01*
X197100884Y-196521900D02*
X197029455Y-196593328D01*
X197029455Y-196593328D02*
X196958027Y-196521900D01*
X196958027Y-196521900D02*
X197029455Y-196450471D01*
X197029455Y-196450471D02*
X197029455Y-196593328D01*
X197600884Y-195093328D02*
X198600884Y-195093328D01*
X198600884Y-195093328D02*
X197958027Y-196593328D01*
D10*
D11*
X177002200Y-191507200D02*
X285002200Y-191507200D01*
D10*
D12*
X264413853Y-193785528D02*
X263913853Y-193071242D01*
X263556710Y-193785528D02*
X263556710Y-192285528D01*
X263556710Y-192285528D02*
X264128139Y-192285528D01*
X264128139Y-192285528D02*
X264270996Y-192356957D01*
X264270996Y-192356957D02*
X264342425Y-192428385D01*
X264342425Y-192428385D02*
X264413853Y-192571242D01*
X264413853Y-192571242D02*
X264413853Y-192785528D01*
X264413853Y-192785528D02*
X264342425Y-192928385D01*
X264342425Y-192928385D02*
X264270996Y-192999814D01*
X264270996Y-192999814D02*
X264128139Y-193071242D01*
X264128139Y-193071242D02*
X263556710Y-193071242D01*
X265628139Y-193714100D02*
X265485282Y-193785528D01*
X265485282Y-193785528D02*
X265199568Y-193785528D01*
X265199568Y-193785528D02*
X265056710Y-193714100D01*
X265056710Y-193714100D02*
X264985282Y-193571242D01*
X264985282Y-193571242D02*
X264985282Y-192999814D01*
X264985282Y-192999814D02*
X265056710Y-192856957D01*
X265056710Y-192856957D02*
X265199568Y-192785528D01*
X265199568Y-192785528D02*
X265485282Y-192785528D01*
X265485282Y-192785528D02*
X265628139Y-192856957D01*
X265628139Y-192856957D02*
X265699568Y-192999814D01*
X265699568Y-192999814D02*
X265699568Y-193142671D01*
X265699568Y-193142671D02*
X264985282Y-193285528D01*
X266199567Y-192785528D02*
X266556710Y-193785528D01*
X266556710Y-193785528D02*
X266913853Y-192785528D01*
X267485281Y-193642671D02*
X267556710Y-193714100D01*
X267556710Y-193714100D02*
X267485281Y-193785528D01*
X267485281Y-193785528D02*
X267413853Y-193714100D01*
X267413853Y-193714100D02*
X267485281Y-193642671D01*
X267485281Y-193642671D02*
X267485281Y-193785528D01*
X267485281Y-192856957D02*
X267556710Y-192928385D01*
X267556710Y-192928385D02*
X267485281Y-192999814D01*
X267485281Y-192999814D02*
X267413853Y-192928385D01*
X267413853Y-192928385D02*
X267485281Y-192856957D01*
X267485281Y-192856957D02*
X267485281Y-192999814D01*
D10*
D11*
X178386598Y-193721900D02*
X178600884Y-193793328D01*
X178600884Y-193793328D02*
X178958026Y-193793328D01*
X178958026Y-193793328D02*
X179100884Y-193721900D01*
X179100884Y-193721900D02*
X179172312Y-193650471D01*
X179172312Y-193650471D02*
X179243741Y-193507614D01*
X179243741Y-193507614D02*
X179243741Y-193364757D01*
X179243741Y-193364757D02*
X179172312Y-193221900D01*
X179172312Y-193221900D02*
X179100884Y-193150471D01*
X179100884Y-193150471D02*
X178958026Y-193079042D01*
X178958026Y-193079042D02*
X178672312Y-193007614D01*
X178672312Y-193007614D02*
X178529455Y-192936185D01*
X178529455Y-192936185D02*
X178458026Y-192864757D01*
X178458026Y-192864757D02*
X178386598Y-192721900D01*
X178386598Y-192721900D02*
X178386598Y-192579042D01*
X178386598Y-192579042D02*
X178458026Y-192436185D01*
X178458026Y-192436185D02*
X178529455Y-192364757D01*
X178529455Y-192364757D02*
X178672312Y-192293328D01*
X178672312Y-192293328D02*
X179029455Y-192293328D01*
X179029455Y-192293328D02*
X179243741Y-192364757D01*
X179886597Y-193793328D02*
X179886597Y-192793328D01*
X179886597Y-192293328D02*
X179815169Y-192364757D01*
X179815169Y-192364757D02*
X179886597Y-192436185D01*
X179886597Y-192436185D02*
X179958026Y-192364757D01*
X179958026Y-192364757D02*
X179886597Y-192293328D01*
X179886597Y-192293328D02*
X179886597Y-192436185D01*
X180458026Y-192793328D02*
X181243741Y-192793328D01*
X181243741Y-192793328D02*
X180458026Y-193793328D01*
X180458026Y-193793328D02*
X181243741Y-193793328D01*
X182386598Y-193721900D02*
X182243741Y-193793328D01*
X182243741Y-193793328D02*
X181958027Y-193793328D01*
X181958027Y-193793328D02*
X181815169Y-193721900D01*
X181815169Y-193721900D02*
X181743741Y-193579042D01*
X181743741Y-193579042D02*
X181743741Y-193007614D01*
X181743741Y-193007614D02*
X181815169Y-192864757D01*
X181815169Y-192864757D02*
X181958027Y-192793328D01*
X181958027Y-192793328D02*
X182243741Y-192793328D01*
X182243741Y-192793328D02*
X182386598Y-192864757D01*
X182386598Y-192864757D02*
X182458027Y-193007614D01*
X182458027Y-193007614D02*
X182458027Y-193150471D01*
X182458027Y-193150471D02*
X181743741Y-193293328D01*
X183100883Y-193650471D02*
X183172312Y-193721900D01*
X183172312Y-193721900D02*
X183100883Y-193793328D01*
X183100883Y-193793328D02*
X183029455Y-193721900D01*
X183029455Y-193721900D02*
X183100883Y-193650471D01*
X183100883Y-193650471D02*
X183100883Y-193793328D01*
X183100883Y-192864757D02*
X183172312Y-192936185D01*
X183172312Y-192936185D02*
X183100883Y-193007614D01*
X183100883Y-193007614D02*
X183029455Y-192936185D01*
X183029455Y-192936185D02*
X183100883Y-192864757D01*
X183100883Y-192864757D02*
X183100883Y-193007614D01*
X184886598Y-193364757D02*
X185600884Y-193364757D01*
X184743741Y-193793328D02*
X185243741Y-192293328D01*
X185243741Y-192293328D02*
X185743741Y-193793328D01*
X186886598Y-192793328D02*
X186886598Y-193793328D01*
X186529455Y-192221900D02*
X186172312Y-193293328D01*
X186172312Y-193293328D02*
X187100883Y-193293328D01*
D10*
D11*
X263458026Y-196593328D02*
X263458026Y-195093328D01*
X264815170Y-196593328D02*
X264815170Y-195093328D01*
X264815170Y-196521900D02*
X264672312Y-196593328D01*
X264672312Y-196593328D02*
X264386598Y-196593328D01*
X264386598Y-196593328D02*
X264243741Y-196521900D01*
X264243741Y-196521900D02*
X264172312Y-196450471D01*
X264172312Y-196450471D02*
X264100884Y-196307614D01*
X264100884Y-196307614D02*
X264100884Y-195879042D01*
X264100884Y-195879042D02*
X264172312Y-195736185D01*
X264172312Y-195736185D02*
X264243741Y-195664757D01*
X264243741Y-195664757D02*
X264386598Y-195593328D01*
X264386598Y-195593328D02*
X264672312Y-195593328D01*
X264672312Y-195593328D02*
X264815170Y-195664757D01*
X265529455Y-196450471D02*
X265600884Y-196521900D01*
X265600884Y-196521900D02*
X265529455Y-196593328D01*
X265529455Y-196593328D02*
X265458027Y-196521900D01*
X265458027Y-196521900D02*
X265529455Y-196450471D01*
X265529455Y-196450471D02*
X265529455Y-196593328D01*
X265529455Y-195664757D02*
X265600884Y-195736185D01*
X265600884Y-195736185D02*
X265529455Y-195807614D01*
X265529455Y-195807614D02*
X265458027Y-195736185D01*
X265458027Y-195736185D02*
X265529455Y-195664757D01*
X265529455Y-195664757D02*
X265529455Y-195807614D01*
X268172313Y-196593328D02*
X267315170Y-196593328D01*
X267743741Y-196593328D02*
X267743741Y-195093328D01*
X267743741Y-195093328D02*
X267600884Y-195307614D01*
X267600884Y-195307614D02*
X267458027Y-195450471D01*
X267458027Y-195450471D02*
X267315170Y-195521900D01*
X269886598Y-195021900D02*
X268600884Y-196950471D01*
X271172313Y-196593328D02*
X270315170Y-196593328D01*
X270743741Y-196593328D02*
X270743741Y-195093328D01*
X270743741Y-195093328D02*
X270600884Y-195307614D01*
X270600884Y-195307614D02*
X270458027Y-195450471D01*
X270458027Y-195450471D02*
X270315170Y-195521900D01*
X272600884Y-196593328D02*
X271743741Y-196593328D01*
X272172312Y-196593328D02*
X272172312Y-195093328D01*
X272172312Y-195093328D02*
X272029455Y-195307614D01*
X272029455Y-195307614D02*
X271886598Y-195450471D01*
X271886598Y-195450471D02*
X271743741Y-195521900D01*
D10*
D11*
X177002200Y-187507200D02*
X285002200Y-187507200D01*
D10*
D13*
X178693928Y-188211638D02*
X179836785Y-188211638D01*
X179015357Y-190211638D02*
X179265357Y-188211638D01*
X180253452Y-190211638D02*
X180420119Y-188878304D01*
X180503452Y-188211638D02*
X180396309Y-188306876D01*
X180396309Y-188306876D02*
X180479643Y-188402114D01*
X180479643Y-188402114D02*
X180586786Y-188306876D01*
X180586786Y-188306876D02*
X180503452Y-188211638D01*
X180503452Y-188211638D02*
X180479643Y-188402114D01*
X181086786Y-188878304D02*
X181848690Y-188878304D01*
X181455833Y-188211638D02*
X181241548Y-189925923D01*
X181241548Y-189925923D02*
X181312976Y-190116400D01*
X181312976Y-190116400D02*
X181491548Y-190211638D01*
X181491548Y-190211638D02*
X181682024Y-190211638D01*
X182634405Y-190211638D02*
X182455833Y-190116400D01*
X182455833Y-190116400D02*
X182384405Y-189925923D01*
X182384405Y-189925923D02*
X182598690Y-188211638D01*
X184170119Y-190116400D02*
X183967738Y-190211638D01*
X183967738Y-190211638D02*
X183586785Y-190211638D01*
X183586785Y-190211638D02*
X183408214Y-190116400D01*
X183408214Y-190116400D02*
X183336785Y-189925923D01*
X183336785Y-189925923D02*
X183432024Y-189164019D01*
X183432024Y-189164019D02*
X183551071Y-188973542D01*
X183551071Y-188973542D02*
X183753452Y-188878304D01*
X183753452Y-188878304D02*
X184134404Y-188878304D01*
X184134404Y-188878304D02*
X184312976Y-188973542D01*
X184312976Y-188973542D02*
X184384404Y-189164019D01*
X184384404Y-189164019D02*
X184360595Y-189354495D01*
X184360595Y-189354495D02*
X183384404Y-189544971D01*
X185134405Y-190021161D02*
X185217738Y-190116400D01*
X185217738Y-190116400D02*
X185110595Y-190211638D01*
X185110595Y-190211638D02*
X185027262Y-190116400D01*
X185027262Y-190116400D02*
X185134405Y-190021161D01*
X185134405Y-190021161D02*
X185110595Y-190211638D01*
X185265357Y-188973542D02*
X185348690Y-189068780D01*
X185348690Y-189068780D02*
X185241548Y-189164019D01*
X185241548Y-189164019D02*
X185158214Y-189068780D01*
X185158214Y-189068780D02*
X185265357Y-188973542D01*
X185265357Y-188973542D02*
X185241548Y-189164019D01*
D10*
D11*
X178958026Y-185607614D02*
X178458026Y-185607614D01*
X178458026Y-186393328D02*
X178458026Y-184893328D01*
X178458026Y-184893328D02*
X179172312Y-184893328D01*
X179743740Y-186393328D02*
X179743740Y-185393328D01*
X179743740Y-184893328D02*
X179672312Y-184964757D01*
X179672312Y-184964757D02*
X179743740Y-185036185D01*
X179743740Y-185036185D02*
X179815169Y-184964757D01*
X179815169Y-184964757D02*
X179743740Y-184893328D01*
X179743740Y-184893328D02*
X179743740Y-185036185D01*
X180672312Y-186393328D02*
X180529455Y-186321900D01*
X180529455Y-186321900D02*
X180458026Y-186179042D01*
X180458026Y-186179042D02*
X180458026Y-184893328D01*
X181815169Y-186321900D02*
X181672312Y-186393328D01*
X181672312Y-186393328D02*
X181386598Y-186393328D01*
X181386598Y-186393328D02*
X181243740Y-186321900D01*
X181243740Y-186321900D02*
X181172312Y-186179042D01*
X181172312Y-186179042D02*
X181172312Y-185607614D01*
X181172312Y-185607614D02*
X181243740Y-185464757D01*
X181243740Y-185464757D02*
X181386598Y-185393328D01*
X181386598Y-185393328D02*
X181672312Y-185393328D01*
X181672312Y-185393328D02*
X181815169Y-185464757D01*
X181815169Y-185464757D02*
X181886598Y-185607614D01*
X181886598Y-185607614D02*
X181886598Y-185750471D01*
X181886598Y-185750471D02*
X181172312Y-185893328D01*
X182529454Y-186250471D02*
X182600883Y-186321900D01*
X182600883Y-186321900D02*
X182529454Y-186393328D01*
X182529454Y-186393328D02*
X182458026Y-186321900D01*
X182458026Y-186321900D02*
X182529454Y-186250471D01*
X182529454Y-186250471D02*
X182529454Y-186393328D01*
X182529454Y-185464757D02*
X182600883Y-185536185D01*
X182600883Y-185536185D02*
X182529454Y-185607614D01*
X182529454Y-185607614D02*
X182458026Y-185536185D01*
X182458026Y-185536185D02*
X182529454Y-185464757D01*
X182529454Y-185464757D02*
X182529454Y-185607614D01*
X184315169Y-186321900D02*
X184529455Y-186393328D01*
X184529455Y-186393328D02*
X184886597Y-186393328D01*
X184886597Y-186393328D02*
X185029455Y-186321900D01*
X185029455Y-186321900D02*
X185100883Y-186250471D01*
X185100883Y-186250471D02*
X185172312Y-186107614D01*
X185172312Y-186107614D02*
X185172312Y-185964757D01*
X185172312Y-185964757D02*
X185100883Y-185821900D01*
X185100883Y-185821900D02*
X185029455Y-185750471D01*
X185029455Y-185750471D02*
X184886597Y-185679042D01*
X184886597Y-185679042D02*
X184600883Y-185607614D01*
X184600883Y-185607614D02*
X184458026Y-185536185D01*
X184458026Y-185536185D02*
X184386597Y-185464757D01*
X184386597Y-185464757D02*
X184315169Y-185321900D01*
X184315169Y-185321900D02*
X184315169Y-185179042D01*
X184315169Y-185179042D02*
X184386597Y-185036185D01*
X184386597Y-185036185D02*
X184458026Y-184964757D01*
X184458026Y-184964757D02*
X184600883Y-184893328D01*
X184600883Y-184893328D02*
X184958026Y-184893328D01*
X184958026Y-184893328D02*
X185172312Y-184964757D01*
X186386597Y-186321900D02*
X186243740Y-186393328D01*
X186243740Y-186393328D02*
X185958026Y-186393328D01*
X185958026Y-186393328D02*
X185815168Y-186321900D01*
X185815168Y-186321900D02*
X185743740Y-186179042D01*
X185743740Y-186179042D02*
X185743740Y-185607614D01*
X185743740Y-185607614D02*
X185815168Y-185464757D01*
X185815168Y-185464757D02*
X185958026Y-185393328D01*
X185958026Y-185393328D02*
X186243740Y-185393328D01*
X186243740Y-185393328D02*
X186386597Y-185464757D01*
X186386597Y-185464757D02*
X186458026Y-185607614D01*
X186458026Y-185607614D02*
X186458026Y-185750471D01*
X186458026Y-185750471D02*
X185743740Y-185893328D01*
X187100882Y-185393328D02*
X187100882Y-186393328D01*
X187100882Y-185536185D02*
X187172311Y-185464757D01*
X187172311Y-185464757D02*
X187315168Y-185393328D01*
X187315168Y-185393328D02*
X187529454Y-185393328D01*
X187529454Y-185393328D02*
X187672311Y-185464757D01*
X187672311Y-185464757D02*
X187743740Y-185607614D01*
X187743740Y-185607614D02*
X187743740Y-186393328D01*
X188386597Y-186321900D02*
X188529454Y-186393328D01*
X188529454Y-186393328D02*
X188815168Y-186393328D01*
X188815168Y-186393328D02*
X188958025Y-186321900D01*
X188958025Y-186321900D02*
X189029454Y-186179042D01*
X189029454Y-186179042D02*
X189029454Y-186107614D01*
X189029454Y-186107614D02*
X188958025Y-185964757D01*
X188958025Y-185964757D02*
X188815168Y-185893328D01*
X188815168Y-185893328D02*
X188600883Y-185893328D01*
X188600883Y-185893328D02*
X188458025Y-185821900D01*
X188458025Y-185821900D02*
X188386597Y-185679042D01*
X188386597Y-185679042D02*
X188386597Y-185607614D01*
X188386597Y-185607614D02*
X188458025Y-185464757D01*
X188458025Y-185464757D02*
X188600883Y-185393328D01*
X188600883Y-185393328D02*
X188815168Y-185393328D01*
X188815168Y-185393328D02*
X188958025Y-185464757D01*
X189886597Y-186393328D02*
X189743740Y-186321900D01*
X189743740Y-186321900D02*
X189672311Y-186250471D01*
X189672311Y-186250471D02*
X189600883Y-186107614D01*
X189600883Y-186107614D02*
X189600883Y-185679042D01*
X189600883Y-185679042D02*
X189672311Y-185536185D01*
X189672311Y-185536185D02*
X189743740Y-185464757D01*
X189743740Y-185464757D02*
X189886597Y-185393328D01*
X189886597Y-185393328D02*
X190100883Y-185393328D01*
X190100883Y-185393328D02*
X190243740Y-185464757D01*
X190243740Y-185464757D02*
X190315169Y-185536185D01*
X190315169Y-185536185D02*
X190386597Y-185679042D01*
X190386597Y-185679042D02*
X190386597Y-186107614D01*
X190386597Y-186107614D02*
X190315169Y-186250471D01*
X190315169Y-186250471D02*
X190243740Y-186321900D01*
X190243740Y-186321900D02*
X190100883Y-186393328D01*
X190100883Y-186393328D02*
X189886597Y-186393328D01*
X191029454Y-186393328D02*
X191029454Y-185393328D01*
X191029454Y-185679042D02*
X191100883Y-185536185D01*
X191100883Y-185536185D02*
X191172312Y-185464757D01*
X191172312Y-185464757D02*
X191315169Y-185393328D01*
X191315169Y-185393328D02*
X191458026Y-185393328D01*
X193958025Y-186250471D02*
X193886597Y-186321900D01*
X193886597Y-186321900D02*
X193672311Y-186393328D01*
X193672311Y-186393328D02*
X193529454Y-186393328D01*
X193529454Y-186393328D02*
X193315168Y-186321900D01*
X193315168Y-186321900D02*
X193172311Y-186179042D01*
X193172311Y-186179042D02*
X193100882Y-186036185D01*
X193100882Y-186036185D02*
X193029454Y-185750471D01*
X193029454Y-185750471D02*
X193029454Y-185536185D01*
X193029454Y-185536185D02*
X193100882Y-185250471D01*
X193100882Y-185250471D02*
X193172311Y-185107614D01*
X193172311Y-185107614D02*
X193315168Y-184964757D01*
X193315168Y-184964757D02*
X193529454Y-184893328D01*
X193529454Y-184893328D02*
X193672311Y-184893328D01*
X193672311Y-184893328D02*
X193886597Y-184964757D01*
X193886597Y-184964757D02*
X193958025Y-185036185D01*
X195172311Y-186321900D02*
X195029454Y-186393328D01*
X195029454Y-186393328D02*
X194743740Y-186393328D01*
X194743740Y-186393328D02*
X194600882Y-186321900D01*
X194600882Y-186321900D02*
X194529454Y-186179042D01*
X194529454Y-186179042D02*
X194529454Y-185607614D01*
X194529454Y-185607614D02*
X194600882Y-185464757D01*
X194600882Y-185464757D02*
X194743740Y-185393328D01*
X194743740Y-185393328D02*
X195029454Y-185393328D01*
X195029454Y-185393328D02*
X195172311Y-185464757D01*
X195172311Y-185464757D02*
X195243740Y-185607614D01*
X195243740Y-185607614D02*
X195243740Y-185750471D01*
X195243740Y-185750471D02*
X194529454Y-185893328D01*
X196100882Y-186393328D02*
X195958025Y-186321900D01*
X195958025Y-186321900D02*
X195886596Y-186179042D01*
X195886596Y-186179042D02*
X195886596Y-184893328D01*
X196886596Y-186393328D02*
X196743739Y-186321900D01*
X196743739Y-186321900D02*
X196672310Y-186179042D01*
X196672310Y-186179042D02*
X196672310Y-184893328D01*
X198458024Y-185393328D02*
X198743739Y-186393328D01*
X198743739Y-186393328D02*
X199029453Y-185679042D01*
X199029453Y-185679042D02*
X199315167Y-186393328D01*
X199315167Y-186393328D02*
X199600881Y-185393328D01*
X200172310Y-186393328D02*
X200172310Y-185393328D01*
X200172310Y-184893328D02*
X200100882Y-184964757D01*
X200100882Y-184964757D02*
X200172310Y-185036185D01*
X200172310Y-185036185D02*
X200243739Y-184964757D01*
X200243739Y-184964757D02*
X200172310Y-184893328D01*
X200172310Y-184893328D02*
X200172310Y-185036185D01*
X200672311Y-185393328D02*
X201243739Y-185393328D01*
X200886596Y-184893328D02*
X200886596Y-186179042D01*
X200886596Y-186179042D02*
X200958025Y-186321900D01*
X200958025Y-186321900D02*
X201100882Y-186393328D01*
X201100882Y-186393328D02*
X201243739Y-186393328D01*
X201743739Y-186393328D02*
X201743739Y-184893328D01*
X202386597Y-186393328D02*
X202386597Y-185607614D01*
X202386597Y-185607614D02*
X202315168Y-185464757D01*
X202315168Y-185464757D02*
X202172311Y-185393328D01*
X202172311Y-185393328D02*
X201958025Y-185393328D01*
X201958025Y-185393328D02*
X201815168Y-185464757D01*
X201815168Y-185464757D02*
X201743739Y-185536185D01*
X205100882Y-186250471D02*
X205029454Y-186321900D01*
X205029454Y-186321900D02*
X204815168Y-186393328D01*
X204815168Y-186393328D02*
X204672311Y-186393328D01*
X204672311Y-186393328D02*
X204458025Y-186321900D01*
X204458025Y-186321900D02*
X204315168Y-186179042D01*
X204315168Y-186179042D02*
X204243739Y-186036185D01*
X204243739Y-186036185D02*
X204172311Y-185750471D01*
X204172311Y-185750471D02*
X204172311Y-185536185D01*
X204172311Y-185536185D02*
X204243739Y-185250471D01*
X204243739Y-185250471D02*
X204315168Y-185107614D01*
X204315168Y-185107614D02*
X204458025Y-184964757D01*
X204458025Y-184964757D02*
X204672311Y-184893328D01*
X204672311Y-184893328D02*
X204815168Y-184893328D01*
X204815168Y-184893328D02*
X205029454Y-184964757D01*
X205029454Y-184964757D02*
X205100882Y-185036185D01*
X205958025Y-186393328D02*
X205815168Y-186321900D01*
X205815168Y-186321900D02*
X205743739Y-186250471D01*
X205743739Y-186250471D02*
X205672311Y-186107614D01*
X205672311Y-186107614D02*
X205672311Y-185679042D01*
X205672311Y-185679042D02*
X205743739Y-185536185D01*
X205743739Y-185536185D02*
X205815168Y-185464757D01*
X205815168Y-185464757D02*
X205958025Y-185393328D01*
X205958025Y-185393328D02*
X206172311Y-185393328D01*
X206172311Y-185393328D02*
X206315168Y-185464757D01*
X206315168Y-185464757D02*
X206386597Y-185536185D01*
X206386597Y-185536185D02*
X206458025Y-185679042D01*
X206458025Y-185679042D02*
X206458025Y-186107614D01*
X206458025Y-186107614D02*
X206386597Y-186250471D01*
X206386597Y-186250471D02*
X206315168Y-186321900D01*
X206315168Y-186321900D02*
X206172311Y-186393328D01*
X206172311Y-186393328D02*
X205958025Y-186393328D01*
X207100882Y-186393328D02*
X207100882Y-185393328D01*
X207100882Y-185536185D02*
X207172311Y-185464757D01*
X207172311Y-185464757D02*
X207315168Y-185393328D01*
X207315168Y-185393328D02*
X207529454Y-185393328D01*
X207529454Y-185393328D02*
X207672311Y-185464757D01*
X207672311Y-185464757D02*
X207743740Y-185607614D01*
X207743740Y-185607614D02*
X207743740Y-186393328D01*
X207743740Y-185607614D02*
X207815168Y-185464757D01*
X207815168Y-185464757D02*
X207958025Y-185393328D01*
X207958025Y-185393328D02*
X208172311Y-185393328D01*
X208172311Y-185393328D02*
X208315168Y-185464757D01*
X208315168Y-185464757D02*
X208386597Y-185607614D01*
X208386597Y-185607614D02*
X208386597Y-186393328D01*
X209100882Y-186393328D02*
X209100882Y-185393328D01*
X209100882Y-185536185D02*
X209172311Y-185464757D01*
X209172311Y-185464757D02*
X209315168Y-185393328D01*
X209315168Y-185393328D02*
X209529454Y-185393328D01*
X209529454Y-185393328D02*
X209672311Y-185464757D01*
X209672311Y-185464757D02*
X209743740Y-185607614D01*
X209743740Y-185607614D02*
X209743740Y-186393328D01*
X209743740Y-185607614D02*
X209815168Y-185464757D01*
X209815168Y-185464757D02*
X209958025Y-185393328D01*
X209958025Y-185393328D02*
X210172311Y-185393328D01*
X210172311Y-185393328D02*
X210315168Y-185464757D01*
X210315168Y-185464757D02*
X210386597Y-185607614D01*
X210386597Y-185607614D02*
X210386597Y-186393328D01*
X211029454Y-186321900D02*
X211172311Y-186393328D01*
X211172311Y-186393328D02*
X211458025Y-186393328D01*
X211458025Y-186393328D02*
X211600882Y-186321900D01*
X211600882Y-186321900D02*
X211672311Y-186179042D01*
X211672311Y-186179042D02*
X211672311Y-186107614D01*
X211672311Y-186107614D02*
X211600882Y-185964757D01*
X211600882Y-185964757D02*
X211458025Y-185893328D01*
X211458025Y-185893328D02*
X211243740Y-185893328D01*
X211243740Y-185893328D02*
X211100882Y-185821900D01*
X211100882Y-185821900D02*
X211029454Y-185679042D01*
X211029454Y-185679042D02*
X211029454Y-185607614D01*
X211029454Y-185607614D02*
X211100882Y-185464757D01*
X211100882Y-185464757D02*
X211243740Y-185393328D01*
X211243740Y-185393328D02*
X211458025Y-185393328D01*
X211458025Y-185393328D02*
X211600882Y-185464757D01*
X212315168Y-186250471D02*
X212386597Y-186321900D01*
X212386597Y-186321900D02*
X212315168Y-186393328D01*
X212315168Y-186393328D02*
X212243740Y-186321900D01*
X212243740Y-186321900D02*
X212315168Y-186250471D01*
X212315168Y-186250471D02*
X212315168Y-186393328D01*
X213029454Y-186393328D02*
X213029454Y-184893328D01*
X213172312Y-185821900D02*
X213600883Y-186393328D01*
X213600883Y-185393328D02*
X213029454Y-185964757D01*
X214243740Y-186393328D02*
X214243740Y-185393328D01*
X214243740Y-184893328D02*
X214172312Y-184964757D01*
X214172312Y-184964757D02*
X214243740Y-185036185D01*
X214243740Y-185036185D02*
X214315169Y-184964757D01*
X214315169Y-184964757D02*
X214243740Y-184893328D01*
X214243740Y-184893328D02*
X214243740Y-185036185D01*
X215600884Y-186321900D02*
X215458026Y-186393328D01*
X215458026Y-186393328D02*
X215172312Y-186393328D01*
X215172312Y-186393328D02*
X215029455Y-186321900D01*
X215029455Y-186321900D02*
X214958026Y-186250471D01*
X214958026Y-186250471D02*
X214886598Y-186107614D01*
X214886598Y-186107614D02*
X214886598Y-185679042D01*
X214886598Y-185679042D02*
X214958026Y-185536185D01*
X214958026Y-185536185D02*
X215029455Y-185464757D01*
X215029455Y-185464757D02*
X215172312Y-185393328D01*
X215172312Y-185393328D02*
X215458026Y-185393328D01*
X215458026Y-185393328D02*
X215600884Y-185464757D01*
X216886598Y-186393328D02*
X216886598Y-185607614D01*
X216886598Y-185607614D02*
X216815169Y-185464757D01*
X216815169Y-185464757D02*
X216672312Y-185393328D01*
X216672312Y-185393328D02*
X216386598Y-185393328D01*
X216386598Y-185393328D02*
X216243740Y-185464757D01*
X216886598Y-186321900D02*
X216743740Y-186393328D01*
X216743740Y-186393328D02*
X216386598Y-186393328D01*
X216386598Y-186393328D02*
X216243740Y-186321900D01*
X216243740Y-186321900D02*
X216172312Y-186179042D01*
X216172312Y-186179042D02*
X216172312Y-186036185D01*
X216172312Y-186036185D02*
X216243740Y-185893328D01*
X216243740Y-185893328D02*
X216386598Y-185821900D01*
X216386598Y-185821900D02*
X216743740Y-185821900D01*
X216743740Y-185821900D02*
X216886598Y-185750471D01*
X218243741Y-186393328D02*
X218243741Y-184893328D01*
X218243741Y-186321900D02*
X218100883Y-186393328D01*
X218100883Y-186393328D02*
X217815169Y-186393328D01*
X217815169Y-186393328D02*
X217672312Y-186321900D01*
X217672312Y-186321900D02*
X217600883Y-186250471D01*
X217600883Y-186250471D02*
X217529455Y-186107614D01*
X217529455Y-186107614D02*
X217529455Y-185679042D01*
X217529455Y-185679042D02*
X217600883Y-185536185D01*
X217600883Y-185536185D02*
X217672312Y-185464757D01*
X217672312Y-185464757D02*
X217815169Y-185393328D01*
X217815169Y-185393328D02*
X218100883Y-185393328D01*
X218100883Y-185393328D02*
X218243741Y-185464757D01*
X218600884Y-186536185D02*
X219743741Y-186536185D01*
X220100883Y-185393328D02*
X220100883Y-186893328D01*
X220100883Y-185464757D02*
X220243741Y-185393328D01*
X220243741Y-185393328D02*
X220529455Y-185393328D01*
X220529455Y-185393328D02*
X220672312Y-185464757D01*
X220672312Y-185464757D02*
X220743741Y-185536185D01*
X220743741Y-185536185D02*
X220815169Y-185679042D01*
X220815169Y-185679042D02*
X220815169Y-186107614D01*
X220815169Y-186107614D02*
X220743741Y-186250471D01*
X220743741Y-186250471D02*
X220672312Y-186321900D01*
X220672312Y-186321900D02*
X220529455Y-186393328D01*
X220529455Y-186393328D02*
X220243741Y-186393328D01*
X220243741Y-186393328D02*
X220100883Y-186321900D01*
X222100884Y-186321900D02*
X221958026Y-186393328D01*
X221958026Y-186393328D02*
X221672312Y-186393328D01*
X221672312Y-186393328D02*
X221529455Y-186321900D01*
X221529455Y-186321900D02*
X221458026Y-186250471D01*
X221458026Y-186250471D02*
X221386598Y-186107614D01*
X221386598Y-186107614D02*
X221386598Y-185679042D01*
X221386598Y-185679042D02*
X221458026Y-185536185D01*
X221458026Y-185536185D02*
X221529455Y-185464757D01*
X221529455Y-185464757D02*
X221672312Y-185393328D01*
X221672312Y-185393328D02*
X221958026Y-185393328D01*
X221958026Y-185393328D02*
X222100884Y-185464757D01*
X222743740Y-186393328D02*
X222743740Y-184893328D01*
X222743740Y-185464757D02*
X222886598Y-185393328D01*
X222886598Y-185393328D02*
X223172312Y-185393328D01*
X223172312Y-185393328D02*
X223315169Y-185464757D01*
X223315169Y-185464757D02*
X223386598Y-185536185D01*
X223386598Y-185536185D02*
X223458026Y-185679042D01*
X223458026Y-185679042D02*
X223458026Y-186107614D01*
X223458026Y-186107614D02*
X223386598Y-186250471D01*
X223386598Y-186250471D02*
X223315169Y-186321900D01*
X223315169Y-186321900D02*
X223172312Y-186393328D01*
X223172312Y-186393328D02*
X222886598Y-186393328D01*
X222886598Y-186393328D02*
X222743740Y-186321900D01*
D10*
D11*
X177002200Y-181507200D02*
X285002200Y-181507200D01*
D10*
D11*
X178386598Y-183621900D02*
X178600884Y-183693328D01*
X178600884Y-183693328D02*
X178958026Y-183693328D01*
X178958026Y-183693328D02*
X179100884Y-183621900D01*
X179100884Y-183621900D02*
X179172312Y-183550471D01*
X179172312Y-183550471D02*
X179243741Y-183407614D01*
X179243741Y-183407614D02*
X179243741Y-183264757D01*
X179243741Y-183264757D02*
X179172312Y-183121900D01*
X179172312Y-183121900D02*
X179100884Y-183050471D01*
X179100884Y-183050471D02*
X178958026Y-182979042D01*
X178958026Y-182979042D02*
X178672312Y-182907614D01*
X178672312Y-182907614D02*
X178529455Y-182836185D01*
X178529455Y-182836185D02*
X178458026Y-182764757D01*
X178458026Y-182764757D02*
X178386598Y-182621900D01*
X178386598Y-182621900D02*
X178386598Y-182479042D01*
X178386598Y-182479042D02*
X178458026Y-182336185D01*
X178458026Y-182336185D02*
X178529455Y-182264757D01*
X178529455Y-182264757D02*
X178672312Y-182193328D01*
X178672312Y-182193328D02*
X179029455Y-182193328D01*
X179029455Y-182193328D02*
X179243741Y-182264757D01*
X179886597Y-183693328D02*
X179886597Y-182193328D01*
X180529455Y-183693328D02*
X180529455Y-182907614D01*
X180529455Y-182907614D02*
X180458026Y-182764757D01*
X180458026Y-182764757D02*
X180315169Y-182693328D01*
X180315169Y-182693328D02*
X180100883Y-182693328D01*
X180100883Y-182693328D02*
X179958026Y-182764757D01*
X179958026Y-182764757D02*
X179886597Y-182836185D01*
X181815169Y-183621900D02*
X181672312Y-183693328D01*
X181672312Y-183693328D02*
X181386598Y-183693328D01*
X181386598Y-183693328D02*
X181243740Y-183621900D01*
X181243740Y-183621900D02*
X181172312Y-183479042D01*
X181172312Y-183479042D02*
X181172312Y-182907614D01*
X181172312Y-182907614D02*
X181243740Y-182764757D01*
X181243740Y-182764757D02*
X181386598Y-182693328D01*
X181386598Y-182693328D02*
X181672312Y-182693328D01*
X181672312Y-182693328D02*
X181815169Y-182764757D01*
X181815169Y-182764757D02*
X181886598Y-182907614D01*
X181886598Y-182907614D02*
X181886598Y-183050471D01*
X181886598Y-183050471D02*
X181172312Y-183193328D01*
X183100883Y-183621900D02*
X182958026Y-183693328D01*
X182958026Y-183693328D02*
X182672312Y-183693328D01*
X182672312Y-183693328D02*
X182529454Y-183621900D01*
X182529454Y-183621900D02*
X182458026Y-183479042D01*
X182458026Y-183479042D02*
X182458026Y-182907614D01*
X182458026Y-182907614D02*
X182529454Y-182764757D01*
X182529454Y-182764757D02*
X182672312Y-182693328D01*
X182672312Y-182693328D02*
X182958026Y-182693328D01*
X182958026Y-182693328D02*
X183100883Y-182764757D01*
X183100883Y-182764757D02*
X183172312Y-182907614D01*
X183172312Y-182907614D02*
X183172312Y-183050471D01*
X183172312Y-183050471D02*
X182458026Y-183193328D01*
X183600883Y-182693328D02*
X184172311Y-182693328D01*
X183815168Y-182193328D02*
X183815168Y-183479042D01*
X183815168Y-183479042D02*
X183886597Y-183621900D01*
X183886597Y-183621900D02*
X184029454Y-183693328D01*
X184029454Y-183693328D02*
X184172311Y-183693328D01*
X184672311Y-183550471D02*
X184743740Y-183621900D01*
X184743740Y-183621900D02*
X184672311Y-183693328D01*
X184672311Y-183693328D02*
X184600883Y-183621900D01*
X184600883Y-183621900D02*
X184672311Y-183550471D01*
X184672311Y-183550471D02*
X184672311Y-183693328D01*
X184672311Y-182764757D02*
X184743740Y-182836185D01*
X184743740Y-182836185D02*
X184672311Y-182907614D01*
X184672311Y-182907614D02*
X184600883Y-182836185D01*
X184600883Y-182836185D02*
X184672311Y-182764757D01*
X184672311Y-182764757D02*
X184672311Y-182907614D01*
D10*
D11*
X197002200Y-191507200D02*
X197002200Y-194507200D01*
D10*
D11*
X261002200Y-191507200D02*
X261002200Y-198007200D01*
D14*
%TO.P,C22,1*%
%TO.N,GND*%
X87275000Y-100000000D03*
%TO.P,C22,2*%
%TO.N,Net-(JP1-A)*%
X89000000Y-100000000D03*
%TD*%
D15*
%TO.P,R14,1*%
%TO.N,/OSC_EN*%
X95175000Y-45000000D03*
%TO.P,R14,2*%
%TO.N,+3V3_rail*%
X97000000Y-45000000D03*
%TD*%
D16*
%TO.P,TP7,1,1*%
%TO.N,/Serial_Wire_Output*%
X124000000Y-84000000D03*
%TD*%
D17*
%TO.P,C21,1*%
%TO.N,GND*%
X73000000Y-107000000D03*
%TO.P,C21,2*%
%TO.N,+5V0DC*%
X71275000Y-107000000D03*
%TD*%
D15*
%TO.P,R18,1*%
%TO.N,/MCU_MISO*%
X120000000Y-50000000D03*
%TO.P,R18,2*%
%TO.N,+3V3_rail*%
X121825000Y-50000000D03*
%TD*%
D18*
%TO.P,R10,1*%
%TO.N,/CAN Related/MCP_RX*%
X106912500Y-50000000D03*
%TO.P,R10,2*%
%TO.N,Net-(U7-RXD)*%
X105087500Y-50000000D03*
%TD*%
D19*
%TO.P,C23,1*%
%TO.N,GND*%
X119000000Y-71000000D03*
%TO.P,C23,2*%
%TO.N,+5V0DC*%
X119000000Y-72725000D03*
%TD*%
D20*
%TO.P,R23,1*%
%TO.N,GND*%
X106825000Y-105825000D03*
%TO.P,R23,2*%
%TO.N,Net-(U9-ISET)*%
X106825000Y-104000000D03*
%TD*%
D15*
%TO.P,R30,1*%
%TO.N,/5V0_~{PG}*%
X82087500Y-108000000D03*
%TO.P,R30,2*%
%TO.N,+3V3DC*%
X83912500Y-108000000D03*
%TD*%
D21*
%TO.P,J2,1,Pin_1*%
%TO.N,/CANH_out*%
X65027001Y-54660401D03*
%TO.P,J2,2,Pin_2*%
%TO.N,GND*%
X65027001Y-57660400D03*
%TO.P,J2,3,Pin_3*%
%TO.N,/CANL_out*%
X65027001Y-60660399D03*
%TD*%
D18*
%TO.P,R28,1*%
%TO.N,/3V3_~{PG}*%
X106912500Y-96000000D03*
%TO.P,R28,2*%
%TO.N,+3V3DC*%
X105087500Y-96000000D03*
%TD*%
D15*
%TO.P,R21,1*%
%TO.N,/CAN_ALRT1*%
X125000000Y-54000000D03*
%TO.P,R21,2*%
%TO.N,+3V3_rail*%
X126825000Y-54000000D03*
%TD*%
D14*
%TO.P,C7,1*%
%TO.N,GND*%
X95000000Y-66000000D03*
%TO.P,C7,2*%
%TO.N,+3V3_rail*%
X96725000Y-66000000D03*
%TD*%
D22*
%TO.P,C20,1*%
%TO.N,GND*%
X94000000Y-107000000D03*
%TO.P,C20,2*%
%TO.N,+3V3DC*%
X94000000Y-105275000D03*
%TD*%
D23*
%TO.P,D6,1,A1*%
%TO.N,+1V8DC*%
X81000000Y-88100000D03*
%TO.P,D6,2,A2*%
%TO.N,GND*%
X81000000Y-91000000D03*
%TD*%
D22*
%TO.P,C2,1*%
%TO.N,GND*%
X123000000Y-61725000D03*
%TO.P,C2,2*%
%TO.N,+3V3_rail*%
X123000000Y-60000000D03*
%TD*%
D24*
%TO.P,U5,1,SDA*%
%TO.N,/SDA*%
X63000000Y-38190000D03*
%TO.P,U5,2,SCL*%
%TO.N,/SCL*%
X63000000Y-39460000D03*
%TO.P,U5,3,ALERT*%
%TO.N,/TEMP2_ALERT*%
X63000000Y-40730000D03*
%TO.P,U5,4,GND*%
%TO.N,GND*%
X63000000Y-42000000D03*
%TO.P,U5,5,A2*%
X68150000Y-42000000D03*
%TO.P,U5,6,A1*%
%TO.N,+3V3_rail*%
X68150000Y-40730000D03*
%TO.P,U5,7,A0*%
%TO.N,GND*%
X68150000Y-39460000D03*
%TO.P,U5,8,V+*%
%TO.N,+3V3_rail*%
X68150000Y-38190000D03*
%TD*%
D23*
%TO.P,D3,1,A1*%
%TO.N,/+5V0_rail*%
X117000000Y-94000000D03*
%TO.P,D3,2,A2*%
%TO.N,GND*%
X117000000Y-96900000D03*
%TD*%
D16*
%TO.P,TP6,1,1*%
%TO.N,/Onboard_LED*%
X90000000Y-73000000D03*
%TD*%
D18*
%TO.P,R11,1*%
%TO.N,+3V3_rail*%
X97000000Y-63000000D03*
%TO.P,R11,2*%
%TO.N,/CAN_FLT*%
X95175000Y-63000000D03*
%TD*%
D21*
%TO.P,J3,1,Pin_1*%
%TO.N,/+1V8_rail*%
X128973000Y-102339599D03*
%TO.P,J3,2,Pin_2*%
%TO.N,GND*%
X128973000Y-99339600D03*
%TO.P,J3,3,Pin_3*%
%TO.N,/+5V0_rail*%
X128973000Y-96339601D03*
%TD*%
D18*
%TO.P,R6,1*%
%TO.N,/SCL*%
X103825000Y-79000000D03*
%TO.P,R6,2*%
%TO.N,+3V3_rail*%
X102000000Y-79000000D03*
%TD*%
D16*
%TO.P,TP4,1,1*%
%TO.N,/+5V0_rail*%
X129000000Y-91000000D03*
%TD*%
D14*
%TO.P,C26,1*%
%TO.N,GND*%
X85275000Y-65000000D03*
%TO.P,C26,2*%
%TO.N,/+1V8_rail*%
X87000000Y-65000000D03*
%TD*%
D22*
%TO.P,C16,1*%
%TO.N,GND*%
X80137500Y-81862500D03*
%TO.P,C16,2*%
%TO.N,/+1V8_railMonitor*%
X80137500Y-80137500D03*
%TD*%
D16*
%TO.P,TP5,1,1*%
%TO.N,Net-(R31-Pad1)*%
X88000000Y-89000000D03*
%TD*%
D15*
%TO.P,R22,1*%
%TO.N,/CAN_ALRT0*%
X121000000Y-56000000D03*
%TO.P,R22,2*%
%TO.N,+3V3_rail*%
X122825000Y-56000000D03*
%TD*%
%TO.P,R20,1*%
%TO.N,/CAN_ALRT2*%
X111087500Y-43000000D03*
%TO.P,R20,2*%
%TO.N,+3V3_rail*%
X112912500Y-43000000D03*
%TD*%
%TO.P,R8,1*%
%TO.N,/SDA*%
X113000000Y-81000000D03*
%TO.P,R8,2*%
%TO.N,+3V3_rail*%
X114825000Y-81000000D03*
%TD*%
D22*
%TO.P,C4,1*%
%TO.N,GND*%
X71000000Y-39862500D03*
%TO.P,C4,2*%
%TO.N,+3V3_rail*%
X71000000Y-38137500D03*
%TD*%
D25*
%TO.P,Y1,1,OE*%
%TO.N,/OSC_EN*%
X95800000Y-49500000D03*
%TO.P,Y1,2,GND*%
%TO.N,GND*%
X95800000Y-51000000D03*
%TO.P,Y1,3,OUT*%
%TO.N,Net-(Y1-OUT)*%
X97000000Y-51000000D03*
%TO.P,Y1,4,Vdd*%
%TO.N,+3V3_rail*%
X97000000Y-49500000D03*
%TD*%
D22*
%TO.P,C8,1*%
%TO.N,GND*%
X99000000Y-47725000D03*
%TO.P,C8,2*%
%TO.N,+3V3_rail*%
X99000000Y-46000000D03*
%TD*%
D17*
%TO.P,C15,1*%
%TO.N,GND*%
X83725000Y-105000000D03*
%TO.P,C15,2*%
%TO.N,Net-(U11-CT)*%
X82000000Y-105000000D03*
%TD*%
D15*
%TO.P,R19,1*%
%TO.N,Net-(Y1-OUT)*%
X104087500Y-53000000D03*
%TO.P,R19,2*%
%TO.N,Net-(U8-OSC2)*%
X105912500Y-53000000D03*
%TD*%
D24*
%TO.P,U3,1,SDA*%
%TO.N,/SDA*%
X113850000Y-61190000D03*
%TO.P,U3,2,SCL*%
%TO.N,/SCL*%
X113850000Y-62460000D03*
%TO.P,U3,3,ALERT*%
%TO.N,/TEMP0_ALERT*%
X113850000Y-63730000D03*
%TO.P,U3,4,GND*%
%TO.N,GND*%
X113850000Y-65000000D03*
%TO.P,U3,5,A2*%
X119000000Y-65000000D03*
%TO.P,U3,6,A1*%
X119000000Y-63730000D03*
%TO.P,U3,7,A0*%
X119000000Y-62460000D03*
%TO.P,U3,8,V+*%
%TO.N,+3V3_rail*%
X119000000Y-61190000D03*
%TD*%
D15*
%TO.P,R9,1*%
%TO.N,Net-(U7-TXD)*%
X105175000Y-48000000D03*
%TO.P,R9,2*%
%TO.N,/CAN Related/MCP_TX*%
X107000000Y-48000000D03*
%TD*%
D16*
%TO.P,TP9,1,1*%
%TO.N,Net-(U1-PA8)*%
X116000000Y-89000000D03*
%TD*%
D17*
%TO.P,C13,1*%
%TO.N,GND*%
X85725000Y-85000000D03*
%TO.P,C13,2*%
%TO.N,+1V8DC*%
X84000000Y-85000000D03*
%TD*%
D26*
%TO.P,U10,1,ON*%
%TO.N,/1V8_ON*%
X83100000Y-82275000D03*
%TO.P,U10,2,VIN*%
%TO.N,+1V8DC*%
X84050000Y-82275000D03*
%TO.P,U10,3,GND*%
%TO.N,GND*%
X85000000Y-82275000D03*
%TO.P,U10,4,ILIM*%
%TO.N,Net-(U10-ILIM)*%
X85000000Y-80000000D03*
%TO.P,U10,5,VOUT*%
%TO.N,/+1V8_railMonitor*%
X84050000Y-80000000D03*
%TO.P,U10,6,~{FLT}*%
%TO.N,/1V8_~{FLT}*%
X83100000Y-80000000D03*
%TD*%
D27*
%TO.P,R24,1*%
%TO.N,GND*%
X79000000Y-94175000D03*
%TO.P,R24,2*%
%TO.N,Net-(U11-ISET)*%
X79000000Y-96000000D03*
%TD*%
D16*
%TO.P,TP2,1,1*%
%TO.N,Net-(U8-CLKO{slash}SOF)*%
X109000000Y-43000000D03*
%TD*%
D27*
%TO.P,R27,1*%
%TO.N,/3V3_~{FLT}*%
X95000000Y-98087500D03*
%TO.P,R27,2*%
%TO.N,+3V3DC*%
X95000000Y-99912500D03*
%TD*%
D28*
%TO.P,C17,1*%
%TO.N,/MCU_RST*%
X91000000Y-87000000D03*
%TO.P,C17,2*%
%TO.N,GND*%
X91000000Y-84925000D03*
%TD*%
D15*
%TO.P,R5,1*%
%TO.N,/TEMP0_ALERT*%
X115175000Y-68000000D03*
%TO.P,R5,2*%
%TO.N,+3V3_rail*%
X117000000Y-68000000D03*
%TD*%
D23*
%TO.P,D5,1,A1*%
%TO.N,+3V3DC*%
X84000000Y-97000000D03*
%TO.P,D5,2,A2*%
%TO.N,GND*%
X84000000Y-99900000D03*
%TD*%
D29*
%TO.P,D4,1,A1*%
%TO.N,/+1V8_rail*%
X117000000Y-104000000D03*
%TO.P,D4,2,A2*%
%TO.N,GND*%
X117000000Y-101100000D03*
%TD*%
D18*
%TO.P,R3,1*%
%TO.N,/TEMP1_ALERT*%
X80000000Y-85000000D03*
%TO.P,R3,2*%
%TO.N,+3V3_rail*%
X78175000Y-85000000D03*
%TD*%
D15*
%TO.P,R4,1*%
%TO.N,/TEMP2_ALERT*%
X98000000Y-79000000D03*
%TO.P,R4,2*%
%TO.N,+3V3_rail*%
X99825000Y-79000000D03*
%TD*%
D19*
%TO.P,C12,1*%
%TO.N,GND*%
X116000000Y-44275000D03*
%TO.P,C12,2*%
%TO.N,+3V3_rail*%
X116000000Y-46000000D03*
%TD*%
D14*
%TO.P,C24,1*%
%TO.N,GND*%
X75750000Y-41000000D03*
%TO.P,C24,2*%
%TO.N,+3V3_rail*%
X77475000Y-41000000D03*
%TD*%
D15*
%TO.P,R17,1*%
%TO.N,/MCU_GPIO_~{CS}*%
X120000000Y-46000000D03*
%TO.P,R17,2*%
%TO.N,+3V3_rail*%
X121825000Y-46000000D03*
%TD*%
D16*
%TO.P,U1,1,VBAT*%
%TO.N,Net-(U1-VBAT)*%
X95000000Y-77000000D03*
D30*
%TO.P,U1,2,PC13*%
%TO.N,/Onboard_LED*%
X95000000Y-78000000D03*
%TO.P,U1,3,PC14*%
%TO.N,/TEMP2_ALERT*%
X95000000Y-79000000D03*
%TO.P,U1,4,PC15*%
%TO.N,/CAN_FLT*%
X95000000Y-80000000D03*
%TO.P,U1,7,NRST*%
%TO.N,/MCU_RST*%
X95000000Y-93000000D03*
%TO.P,U1,10,PA0*%
%TO.N,/WAKE*%
X95000000Y-81000000D03*
%TO.P,U1,11,PA1*%
%TO.N,/3V3_~{FLT}*%
X95000000Y-82000000D03*
%TO.P,U1,12,PA2*%
%TO.N,/1V8_~{FLT}*%
X95000000Y-83000000D03*
%TO.P,U1,13,PA3*%
%TO.N,/INA3221_CRIT*%
X95000000Y-84000000D03*
%TO.P,U1,14,PA4*%
%TO.N,/MCU_GPIO_~{CS}*%
X95000000Y-85000000D03*
%TO.P,U1,15,PA5*%
%TO.N,Net-(U1-PA5)*%
X95000000Y-86000000D03*
%TO.P,U1,16,PA6*%
%TO.N,/MCU_MISO*%
X95000000Y-87000000D03*
%TO.P,U1,17,PA7*%
%TO.N,Net-(U1-PA7)*%
X95000000Y-88000000D03*
%TO.P,U1,18,PB0*%
%TO.N,/5V0_~{FLT}*%
X95000000Y-89000000D03*
%TO.P,U1,19,PB1*%
%TO.N,/3V3_~{PG}*%
X95000000Y-90000000D03*
%TO.P,U1,21,PB10*%
%TO.N,/5V0_~{EN}*%
X95000000Y-91000000D03*
%TO.P,U1,22,PB11*%
%TO.N,/OSC_EN*%
X95000000Y-92000000D03*
%TO.P,U1,23,VSS*%
%TO.N,GND*%
X95000000Y-95000000D03*
X95000000Y-96000000D03*
X110240000Y-78000000D03*
%TO.P,U1,24,VDD*%
%TO.N,Net-(JP1-A)*%
X95000000Y-94000000D03*
X110240000Y-77000000D03*
%TO.P,U1,25,PB12*%
%TO.N,/TEMP0_ALERT*%
X110240000Y-96000000D03*
%TO.P,U1,26,PB13*%
%TO.N,/TEMP1_ALERT*%
X110240000Y-95000000D03*
%TO.P,U1,27,PB14*%
%TO.N,/1V8_ON*%
X110240000Y-94000000D03*
%TO.P,U1,28,PB15*%
%TO.N,/3V3_~{EN}*%
X110240000Y-93000000D03*
%TO.P,U1,29,PA8*%
%TO.N,Net-(U1-PA8)*%
X110240000Y-92000000D03*
%TO.P,U1,30,PA9*%
%TO.N,/INA3221_VALID*%
X110240000Y-91000000D03*
%TO.P,U1,31,PA10*%
%TO.N,/INA3221_WARN*%
X110240000Y-90000000D03*
%TO.P,U1,32,PA11*%
%TO.N,/USB-*%
X110240000Y-89000000D03*
%TO.P,U1,33,PA12*%
%TO.N,/USB+*%
X110240000Y-88000000D03*
%TO.P,U1,38,PA15*%
%TO.N,/WP*%
X110240000Y-87000000D03*
%TO.P,U1,39,PB3*%
%TO.N,Net-(JP3-B)*%
X110240000Y-86000000D03*
%TO.P,U1,40,PB4*%
%TO.N,/5V0_~{PG}*%
X110240000Y-85000000D03*
%TO.P,U1,41,PB5*%
%TO.N,/CAN_ALRT0*%
X110240000Y-84000000D03*
%TO.P,U1,42,PB6*%
%TO.N,/CAN_ALRT1*%
X110240000Y-83000000D03*
%TO.P,U1,43,PB7*%
%TO.N,/CAN_ALRT2*%
X110240000Y-82000000D03*
%TO.P,U1,45,PB8*%
%TO.N,/SCL*%
X110240000Y-81000000D03*
%TO.P,U1,46,PB9*%
%TO.N,/SDA*%
X110240000Y-80000000D03*
%TO.P,U1,99,5VIN*%
%TO.N,Net-(JP2-A)*%
X110240000Y-79000000D03*
%TD*%
D20*
%TO.P,R25,1*%
%TO.N,GND*%
X89000000Y-81912500D03*
%TO.P,R25,2*%
%TO.N,Net-(U10-ILIM)*%
X89000000Y-80087500D03*
%TD*%
D31*
%TO.P,U2,1,A0*%
%TO.N,+3V3_rail*%
X66000000Y-74460000D03*
%TO.P,U2,2,A1*%
X66000000Y-75730000D03*
%TO.P,U2,3,A2*%
%TO.N,GND*%
X66000000Y-77000000D03*
%TO.P,U2,4,VSS*%
X66000000Y-78270000D03*
%TO.P,U2,5,SDA*%
%TO.N,/SDA*%
X70950000Y-78270000D03*
%TO.P,U2,6,SCL*%
%TO.N,/SCL*%
X70950000Y-77000000D03*
%TO.P,U2,7,WP*%
%TO.N,/WP*%
X70950000Y-75730000D03*
%TO.P,U2,8,VDD*%
%TO.N,+3V3_rail*%
X70950000Y-74460000D03*
%TD*%
D18*
%TO.P,R13,1*%
%TO.N,GND*%
X97825000Y-54000000D03*
%TO.P,R13,2*%
%TO.N,Net-(U7-S)*%
X96000000Y-54000000D03*
%TD*%
D32*
%TO.P,U6,1,IN-3*%
%TO.N,/+1V8_rail*%
X85825000Y-69125000D03*
%TO.P,U6,2,IN+3*%
%TO.N,/+1V8_railMonitor*%
X90200000Y-69175000D03*
%TO.P,U6,3,GND*%
%TO.N,GND*%
X90750000Y-41500000D03*
D30*
X76000000Y-45000000D03*
D32*
X90675000Y-47625000D03*
D16*
%TO.P,U6,4,VS*%
%TO.N,+3V3_rail*%
X77000000Y-45000000D03*
D30*
%TO.P,U6,6,SCL*%
%TO.N,/SCL*%
X75000000Y-45000000D03*
%TO.P,U6,7,SDA*%
%TO.N,/SDA*%
X74000000Y-45000000D03*
%TO.P,U6,8,WARNING*%
%TO.N,/INA3221_WARN*%
X71000000Y-45000000D03*
%TO.P,U6,9,CRITICAL*%
%TO.N,/INA3221_CRIT*%
X72000000Y-45000000D03*
%TO.P,U6,10,PV*%
%TO.N,/INA3221_VALID*%
X73000000Y-45000000D03*
D32*
%TO.P,U6,11,IN-1*%
%TO.N,/+5V0_rail*%
X63675000Y-69000000D03*
%TO.P,U6,12,IN+1*%
%TO.N,/+5V0_railMonitor*%
X68050000Y-69050000D03*
D30*
%TO.P,U6,13,TC*%
%TO.N,unconnected-(U6-TC-Pad13)*%
X70000000Y-45000000D03*
D32*
%TO.P,U6,14,IN-2*%
%TO.N,+3V3_rail*%
X74125000Y-69000000D03*
%TO.P,U6,15,IN+2*%
%TO.N,/+3V3_railMonitor*%
X78500000Y-69050000D03*
%TO.P,U6,16,VPU*%
%TO.N,+3V3_rail*%
X90800000Y-35925000D03*
%TD*%
D22*
%TO.P,C5,1*%
%TO.N,GND*%
X92000000Y-65725000D03*
%TO.P,C5,2*%
%TO.N,/CAN_FLT*%
X92000000Y-64000000D03*
%TD*%
D33*
%TO.P,U9,1,~{FLT}*%
%TO.N,/3V3_~{FLT}*%
X99395000Y-100095000D03*
%TO.P,U9,2,~{EN}*%
%TO.N,/3V3_~{EN}*%
X99395000Y-101365000D03*
%TO.P,U9,3,VIN*%
%TO.N,+3V3DC*%
X99395000Y-102635000D03*
%TO.P,U9,4,GND*%
%TO.N,GND*%
X99395000Y-103905000D03*
%TO.P,U9,5,ISET*%
%TO.N,Net-(U9-ISET)*%
X104695000Y-103905000D03*
%TO.P,U9,6,CT*%
%TO.N,Net-(U9-CT)*%
X104695000Y-102635000D03*
%TO.P,U9,7,VOUT*%
%TO.N,/+3V3_railMonitor*%
X104695000Y-101365000D03*
%TO.P,U9,8,~{PG}*%
%TO.N,/3V3_~{PG}*%
X104695000Y-100095000D03*
D34*
%TO.P,U9,9,EP*%
%TO.N,GND*%
X101090000Y-100700000D03*
X101090000Y-102000000D03*
X101090000Y-103300000D03*
D35*
X102045000Y-102000000D03*
D34*
X103000000Y-100700000D03*
X103000000Y-102000000D03*
X103000000Y-103300000D03*
%TD*%
D19*
%TO.P,C18,1*%
%TO.N,GND*%
X111000000Y-98275000D03*
%TO.P,C18,2*%
%TO.N,/+3V3_railMonitor*%
X111000000Y-100000000D03*
%TD*%
D20*
%TO.P,R7,1*%
%TO.N,/WP*%
X76000000Y-75000000D03*
%TO.P,R7,2*%
%TO.N,+3V3_rail*%
X76000000Y-73175000D03*
%TD*%
D23*
%TO.P,D7,1,A1*%
%TO.N,+5V0DC*%
X88000000Y-103100000D03*
%TO.P,D7,2,A2*%
%TO.N,GND*%
X88000000Y-106000000D03*
%TD*%
D31*
%TO.P,U8,1,TXCAN*%
%TO.N,/CAN Related/MCP_TX*%
X109000000Y-48190000D03*
%TO.P,U8,2,RXCAN*%
%TO.N,/CAN Related/MCP_RX*%
X109000000Y-49460000D03*
%TO.P,U8,3,CLKO/SOF*%
%TO.N,Net-(U8-CLKO{slash}SOF)*%
X109000000Y-50730000D03*
%TO.P,U8,4,~{INT}*%
%TO.N,/CAN_ALRT2*%
X109000000Y-52000000D03*
%TO.P,U8,5,OSC2*%
%TO.N,Net-(U8-OSC2)*%
X109000000Y-53270000D03*
%TO.P,U8,6,OSC1*%
%TO.N,unconnected-(U8-OSC1-Pad6)*%
X109000000Y-54540000D03*
%TO.P,U8,7,VSS*%
%TO.N,GND*%
X109000000Y-55810000D03*
%TO.P,U8,8,~{INT1}/GPIO1*%
%TO.N,/CAN_ALRT0*%
X113950000Y-55810000D03*
%TO.P,U8,9,~{INT0}/GPIO0/XSTBY*%
%TO.N,/CAN_ALRT1*%
X113950000Y-54540000D03*
%TO.P,U8,10,SCK*%
%TO.N,/MCU_SCLK*%
X113950000Y-53270000D03*
%TO.P,U8,11,SDI*%
%TO.N,/MCU_MOSI*%
X113950000Y-52000000D03*
%TO.P,U8,12,SDO*%
%TO.N,/MCU_MISO*%
X113950000Y-50730000D03*
%TO.P,U8,13,~{CS}*%
%TO.N,/MCU_GPIO_~{CS}*%
X113950000Y-49460000D03*
%TO.P,U8,14,VDD*%
%TO.N,+3V3_rail*%
X113950000Y-48190000D03*
%TD*%
D14*
%TO.P,C1,1*%
%TO.N,GND*%
X67137500Y-82000000D03*
%TO.P,C1,2*%
%TO.N,+3V3_rail*%
X68862500Y-82000000D03*
%TD*%
D27*
%TO.P,R12,1*%
%TO.N,Net-(U7-TXD)*%
X103000000Y-60175000D03*
%TO.P,R12,2*%
%TO.N,+3V3_rail*%
X103000000Y-62000000D03*
%TD*%
D16*
%TO.P,TP1,1,1*%
%TO.N,Net-(U1-VBAT)*%
X95000000Y-70000000D03*
%TD*%
D15*
%TO.P,R31,1*%
%TO.N,Net-(R31-Pad1)*%
X89087500Y-91000000D03*
%TO.P,R31,2*%
%TO.N,/MCU_RST*%
X90912500Y-91000000D03*
%TD*%
D14*
%TO.P,C3,1*%
%TO.N,GND*%
X84275000Y-77000000D03*
%TO.P,C3,2*%
%TO.N,+3V3_rail*%
X86000000Y-77000000D03*
%TD*%
D18*
%TO.P,R26,1*%
%TO.N,/1V8_~{FLT}*%
X83000000Y-75000000D03*
%TO.P,R26,2*%
%TO.N,+3V3DC*%
X81175000Y-75000000D03*
%TD*%
D14*
%TO.P,C14,1*%
%TO.N,GND*%
X102137500Y-107000000D03*
%TO.P,C14,2*%
%TO.N,Net-(U9-CT)*%
X103862500Y-107000000D03*
%TD*%
D36*
%TO.P,J1,1,Pin_1*%
%TO.N,+1V8DC*%
X64680000Y-93000000D03*
D37*
%TO.P,J1,2,Pin_2*%
%TO.N,+3V3DC*%
X64680000Y-96000000D03*
%TO.P,J1,3,Pin_3*%
%TO.N,+5V0DC*%
X64680000Y-99000000D03*
%TO.P,J1,4,Pin_4*%
%TO.N,GND*%
X64680000Y-102000000D03*
%TD*%
D18*
%TO.P,R29,1*%
%TO.N,/5V0_~{FLT}*%
X68825000Y-107000000D03*
%TO.P,R29,2*%
%TO.N,+3V3DC*%
X67000000Y-107000000D03*
%TD*%
D16*
%TO.P,TP3,1,1*%
%TO.N,/+1V8_rail*%
X111000000Y-104000000D03*
%TD*%
D14*
%TO.P,C19,1*%
%TO.N,GND*%
X77000000Y-106000000D03*
%TO.P,C19,2*%
%TO.N,/+5V0_railMonitor*%
X78725000Y-106000000D03*
%TD*%
D17*
%TO.P,C27,1*%
%TO.N,GND*%
X66725000Y-66000000D03*
%TO.P,C27,2*%
%TO.N,/+5V0_rail*%
X65000000Y-66000000D03*
%TD*%
D16*
%TO.P,TP8,1,1*%
%TO.N,/WAKE*%
X90412141Y-76798540D03*
%TD*%
D18*
%TO.P,R2,1*%
%TO.N,/MCU_MOSI*%
X103825000Y-93000000D03*
%TO.P,R2,2*%
%TO.N,Net-(U1-PA7)*%
X102000000Y-93000000D03*
%TD*%
D14*
%TO.P,C25,1*%
%TO.N,GND*%
X75000000Y-65000000D03*
%TO.P,C25,2*%
%TO.N,+3V3_rail*%
X76725000Y-65000000D03*
%TD*%
D18*
%TO.P,R1,1*%
%TO.N,/MCU_SCLK*%
X104000000Y-89000000D03*
%TO.P,R1,2*%
%TO.N,Net-(U1-PA5)*%
X102175000Y-89000000D03*
%TD*%
D22*
%TO.P,C6,1*%
%TO.N,GND*%
X100000000Y-63725000D03*
%TO.P,C6,2*%
%TO.N,+3V3_rail*%
X100000000Y-62000000D03*
%TD*%
D34*
%TO.P,U11,9,EP*%
%TO.N,GND*%
X75445000Y-100475000D03*
X75445000Y-101775000D03*
X75445000Y-103075000D03*
D35*
X76400000Y-101775000D03*
D34*
X77355000Y-100475000D03*
X77355000Y-101775000D03*
X77355000Y-103075000D03*
%TD*%
D38*
%TO.N,+3V3_rail*%
X75000000Y-80000000D03*
X85000000Y-76000000D03*
X97000000Y-43000000D03*
X114000000Y-71000000D03*
X122825000Y-56825000D03*
X88000000Y-78000000D03*
X123000000Y-48000000D03*
X72000000Y-73000000D03*
X115000000Y-73000000D03*
X118000000Y-69000000D03*
X97000000Y-60000000D03*
X108000000Y-73000000D03*
X125000000Y-56000000D03*
X75000000Y-72000000D03*
X71876000Y-39013500D03*
X106000000Y-62000000D03*
X115000000Y-59000000D03*
X78175000Y-79833636D03*
X98000000Y-66000000D03*
X123000000Y-59000000D03*
%TO.N,GND*%
X75000000Y-39000000D03*
X80000000Y-84000000D03*
X95000000Y-53000000D03*
X117000000Y-99000000D03*
X114000000Y-70000000D03*
X66000000Y-41000000D03*
X85000000Y-78000000D03*
X82725000Y-56725000D03*
X96000000Y-105000000D03*
X85725000Y-84000000D03*
X103000000Y-64000000D03*
X99000000Y-50000000D03*
X75000000Y-97000000D03*
X88000000Y-109000000D03*
X106000000Y-107000000D03*
X84000000Y-102000000D03*
X81000000Y-94000000D03*
X121000000Y-64000000D03*
X96000000Y-68000000D03*
X69000000Y-66000000D03*
X83000000Y-65000000D03*
X119000000Y-68000000D03*
X73000000Y-65000000D03*
X66000000Y-82000000D03*
X89000000Y-81912500D03*
X103635000Y-57365000D03*
X116000000Y-42000000D03*
%TO.N,/CAN_FLT*%
X97000000Y-80000000D03*
X94000000Y-62000000D03*
X96533593Y-77981909D03*
%TO.N,+1V8DC*%
X82000000Y-87000000D03*
%TO.N,Net-(U11-CT)*%
X81000000Y-102000000D03*
%TO.N,/+1V8_railMonitor*%
X81000000Y-78000000D03*
X82000000Y-73000000D03*
%TO.N,/MCU_RST*%
X91000000Y-87000000D03*
X92859381Y-91376299D03*
X91000000Y-92000000D03*
X90912500Y-90087500D03*
%TO.N,/+3V3_railMonitor*%
X100000000Y-83000000D03*
X101000000Y-87000000D03*
X94000000Y-75000000D03*
X106000000Y-88000000D03*
X83000000Y-67000000D03*
X96378877Y-76555071D03*
X103000000Y-54000000D03*
X96335469Y-71990037D03*
X90000000Y-64000000D03*
%TO.N,/+5V0_railMonitor*%
X66000000Y-70000000D03*
X78000000Y-98000000D03*
X64624000Y-73000000D03*
X80000000Y-106000000D03*
%TO.N,+3V3DC*%
X76000000Y-94000000D03*
X68000000Y-86000000D03*
X101000000Y-97000000D03*
X84000000Y-95000000D03*
X94000000Y-102000000D03*
X67000000Y-96000000D03*
X71000000Y-82000000D03*
X79000000Y-75000000D03*
%TO.N,+5V0DC*%
X91000000Y-108000000D03*
X91000000Y-106000000D03*
X71275000Y-105000000D03*
X121000000Y-81000000D03*
X116000000Y-92000000D03*
X71199000Y-101801000D03*
X119000000Y-76000000D03*
X86000000Y-102000000D03*
X90000000Y-103000000D03*
X72000000Y-101000000D03*
%TO.N,Net-(JP1-A)*%
X97000000Y-85000000D03*
X96986691Y-92589626D03*
X92000000Y-98000000D03*
X105000000Y-86000000D03*
%TO.N,/+1V8_rail*%
X87000000Y-66000000D03*
X105904699Y-97859775D03*
X92070492Y-71246320D03*
X105912086Y-85087914D03*
%TO.N,/+5V0_rail*%
X83000000Y-91000000D03*
X63701000Y-80701000D03*
X92152346Y-96016245D03*
X108000000Y-100000000D03*
X102000000Y-95000000D03*
X106000000Y-94000000D03*
%TO.N,Net-(JP3-B)*%
X108000000Y-87000000D03*
%TO.N,/INA3221_CRIT*%
X101000000Y-82000000D03*
X71000000Y-47000000D03*
%TO.N,Net-(U1-PA5)*%
X101000000Y-89000000D03*
%TO.N,Net-(U1-PA7)*%
X101000000Y-93000000D03*
%TO.N,/TEMP1_ALERT*%
X87000000Y-96000000D03*
X85000000Y-87000000D03*
X92000000Y-106000000D03*
X82000000Y-85000000D03*
X112000000Y-102000000D03*
%TO.N,/TEMP2_ALERT*%
X64000000Y-41000000D03*
X116000000Y-59000000D03*
X100000000Y-75000000D03*
X90000000Y-39000000D03*
%TO.N,/SCL*%
X103000000Y-74000000D03*
X67000000Y-72000000D03*
X116000000Y-63000000D03*
X73108162Y-80992380D03*
X73000000Y-77000000D03*
X65000000Y-40000000D03*
X105000000Y-79000000D03*
X98000000Y-68000000D03*
X76068326Y-63833613D03*
%TO.N,/WP*%
X93000000Y-71000000D03*
%TO.N,/SDA*%
X65000000Y-39000000D03*
X109000000Y-105000000D03*
X97172917Y-97620038D03*
X102143214Y-97961618D03*
X112000000Y-107000000D03*
X106000000Y-97000000D03*
X112000000Y-81000000D03*
X88000000Y-87000000D03*
X66000000Y-85000000D03*
X85949000Y-89051000D03*
X96000000Y-89000000D03*
X94000000Y-95000000D03*
X116190000Y-61190000D03*
%TO.N,Net-(U7-TXD)*%
X102000000Y-55000000D03*
X101000000Y-52000000D03*
%TO.N,Net-(U7-RXD)*%
X104862430Y-53999962D03*
%TO.N,Net-(U7-S)*%
X94000000Y-55000000D03*
%TO.N,/OSC_EN*%
X91000000Y-81000000D03*
X86000000Y-72000000D03*
%TO.N,/MCU_GPIO_~{CS}*%
X96014532Y-83183205D03*
X105000000Y-60000000D03*
X107000000Y-54000000D03*
X105000000Y-64000000D03*
X99399000Y-74000000D03*
%TO.N,/MCU_MISO*%
X120000000Y-52000000D03*
X88000000Y-73000000D03*
X90000000Y-67000000D03*
X93000000Y-60000000D03*
X93389213Y-89626606D03*
%TO.N,/CAN_ALRT2*%
X112112426Y-57059423D03*
X102000000Y-56000000D03*
X109000000Y-57000000D03*
X111000000Y-51000000D03*
%TO.N,/CAN_ALRT1*%
X122000000Y-54540000D03*
%TO.N,/CAN_ALRT0*%
X108150536Y-80082794D03*
X112000000Y-72000000D03*
X120000000Y-56000000D03*
X117252134Y-66532948D03*
X116000000Y-66000000D03*
X112000000Y-69000000D03*
%TO.N,Net-(U11-ISET)*%
X79000000Y-99000000D03*
%TO.N,/1V8_~{FLT}*%
X94000000Y-82998000D03*
X92761399Y-85838070D03*
%TO.N,/3V3_~{FLT}*%
X99395000Y-85793960D03*
X96000000Y-82000000D03*
%TO.N,/5V0_~{FLT}*%
X69000000Y-105000000D03*
%TO.N,/5V0_~{PG}*%
X82087500Y-107087500D03*
X106000000Y-87000000D03*
X80000000Y-105000000D03*
%TO.N,Net-(R31-Pad1)*%
X88000000Y-91000000D03*
%TO.N,/Onboard_LED*%
X90000000Y-74000000D03*
X91984843Y-75439703D03*
%TO.N,/INA3221_WARN*%
X70000000Y-47000000D03*
X86000000Y-108000000D03*
X63000000Y-66000000D03*
%TO.N,/3V3_~{EN}*%
X98000000Y-89000000D03*
X107000000Y-93000000D03*
X108000000Y-89000000D03*
X97000000Y-100000000D03*
X105000000Y-91000000D03*
X98428060Y-97689769D03*
%TO.N,/INA3221_VALID*%
X114000000Y-74000000D03*
X72000000Y-47000000D03*
%TO.N,/1V8_ON*%
X107686595Y-91722808D03*
X106000000Y-90000000D03*
X82000000Y-83000000D03*
X101000000Y-88000000D03*
X95931816Y-77362318D03*
X93000000Y-78000000D03*
X100000000Y-85000000D03*
%TD*%
D39*
%TO.N,/1V8_~{FLT}*%
X95000000Y-83000000D02*
X94000000Y-82998000D01*
%TO.N,/Onboard_LED*%
X90000000Y-73000000D02*
X90000000Y-74000000D01*
D40*
%TO.N,+3V3_rail*%
X98000000Y-62000000D02*
X97000000Y-63000000D01*
X66000000Y-74460000D02*
X66000000Y-73000000D01*
X123000000Y-60000000D02*
X123000000Y-59000000D01*
X66000000Y-75730000D02*
X66651612Y-75730000D01*
X100000000Y-62000000D02*
X103000000Y-62000000D01*
X117000000Y-68000000D02*
X118000000Y-69000000D01*
X78175000Y-84175000D02*
X75000000Y-81000000D01*
X76000000Y-73175000D02*
X76000000Y-73000000D01*
X122000000Y-60000000D02*
X120810000Y-61190000D01*
X121825000Y-48000000D02*
X123000000Y-48000000D01*
X96725000Y-66000000D02*
X96725000Y-63275000D01*
X120825000Y-45000000D02*
X117000000Y-45000000D01*
X71876000Y-40433556D02*
X71279557Y-41029999D01*
X66000000Y-74460000D02*
X66000000Y-75730000D01*
X97000000Y-46000000D02*
X97000000Y-45000000D01*
X71876000Y-39013500D02*
X71876000Y-40433556D01*
X102000000Y-79000000D02*
X99825000Y-79000000D01*
X78175000Y-85000000D02*
X78175000Y-84175000D01*
X117000000Y-61000000D02*
X115000000Y-59000000D01*
X97000000Y-49500000D02*
X97000000Y-46000000D01*
X124825000Y-56000000D02*
X126825000Y-54000000D01*
X85725000Y-41000000D02*
X90800000Y-35925000D01*
X98000000Y-66000000D02*
X96725000Y-66000000D01*
X121825000Y-48000000D02*
X121825000Y-50000000D01*
X77475000Y-41000000D02*
X77475000Y-44525000D01*
X71279557Y-41029999D02*
X68449999Y-41029999D01*
X76725000Y-66400000D02*
X74125000Y-69000000D01*
X114825000Y-81000000D02*
X114825000Y-73175000D01*
X70950000Y-74460000D02*
X72000000Y-73410000D01*
X118000000Y-66000000D02*
X117000000Y-65000000D01*
X66651612Y-75730000D02*
X68862500Y-77940888D01*
X121825000Y-46000000D02*
X121825000Y-48000000D01*
X126825000Y-51825000D02*
X123000000Y-48000000D01*
X120810000Y-61190000D02*
X119000000Y-61190000D01*
X77475000Y-41000000D02*
X85725000Y-41000000D01*
X99000000Y-46000000D02*
X97000000Y-46000000D01*
X70950000Y-74460000D02*
X67460000Y-74460000D01*
X117000000Y-65000000D02*
X117000000Y-62801612D01*
X97000000Y-45000000D02*
X97000000Y-43000000D01*
X71000000Y-38137500D02*
X68202500Y-38137500D01*
X117000000Y-45000000D02*
X116000000Y-46000000D01*
X115000000Y-73000000D02*
X115000000Y-72000000D01*
X86000000Y-77000000D02*
X85000000Y-76000000D01*
X114825000Y-73175000D02*
X115000000Y-73000000D01*
X117000000Y-68000000D02*
X118000000Y-67000000D01*
X123000000Y-60000000D02*
X122000000Y-60000000D01*
X75000000Y-81000000D02*
X75000000Y-80000000D01*
X72000000Y-73410000D02*
X72000000Y-73000000D01*
X77475000Y-44525000D02*
X77000000Y-45000000D01*
X116000000Y-46140000D02*
X113950000Y-48190000D01*
X118000000Y-67000000D02*
X118000000Y-66000000D01*
X122825000Y-56000000D02*
X122825000Y-56825000D01*
X102000000Y-79000000D02*
X108000000Y-73000000D01*
X100000000Y-62000000D02*
X98000000Y-62000000D01*
X86000000Y-77000000D02*
X87000000Y-77000000D01*
X68862500Y-77940888D02*
X68862500Y-82000000D01*
X76725000Y-65000000D02*
X76725000Y-66400000D01*
X126825000Y-54000000D02*
X126825000Y-51825000D01*
X121825000Y-46000000D02*
X120825000Y-45000000D01*
X115000000Y-72000000D02*
X114000000Y-71000000D01*
X67460000Y-74460000D02*
X66000000Y-73000000D01*
X117000000Y-62801612D02*
X117000000Y-61000000D01*
X112912500Y-47152500D02*
X113950000Y-48190000D01*
X96725000Y-63275000D02*
X97000000Y-63000000D01*
X118611612Y-61190000D02*
X119000000Y-61190000D01*
X112912500Y-43000000D02*
X112912500Y-47152500D01*
X116000000Y-46000000D02*
X116000000Y-46140000D01*
X76000000Y-73000000D02*
X75000000Y-72000000D01*
X103000000Y-62000000D02*
X106000000Y-62000000D01*
X122825000Y-56000000D02*
X124825000Y-56000000D01*
X117000000Y-62801612D02*
X118611612Y-61190000D01*
X68449999Y-41029999D02*
X68150000Y-40730000D01*
X87000000Y-77000000D02*
X88000000Y-78000000D01*
X71000000Y-38137500D02*
X71876000Y-39013500D01*
X68202500Y-38137500D02*
X68150000Y-38190000D01*
X78175000Y-85000000D02*
X78175000Y-79833636D01*
X97000000Y-63000000D02*
X97000000Y-60000000D01*
D41*
%TO.N,GND*%
X117000000Y-96900000D02*
X117000000Y-99000000D01*
D40*
X106825000Y-105825000D02*
X106000000Y-106650000D01*
D41*
X85725000Y-84000000D02*
X85725000Y-83000000D01*
X89000000Y-81912500D02*
X85362500Y-81912500D01*
D40*
X67137500Y-82000000D02*
X66000000Y-82000000D01*
D41*
X117000000Y-101100000D02*
X117000000Y-99000000D01*
D40*
X75000000Y-65000000D02*
X73000000Y-65000000D01*
X97095000Y-103905000D02*
X96000000Y-105000000D01*
X95000000Y-66000000D02*
X92275000Y-66000000D01*
X95000000Y-66000000D02*
X95000000Y-67000000D01*
X109000000Y-55810000D02*
X105190000Y-55810000D01*
X119000000Y-65000000D02*
X119000000Y-63730000D01*
X77000000Y-106000000D02*
X77000000Y-105000000D01*
X68150000Y-39460000D02*
X67540000Y-39460000D01*
X100000000Y-63725000D02*
X102725000Y-63725000D01*
X116275000Y-98275000D02*
X117000000Y-99000000D01*
D41*
X84000000Y-102000000D02*
X84000000Y-104725000D01*
D40*
X73000000Y-107000000D02*
X76000000Y-107000000D01*
X77000000Y-105000000D02*
X76400000Y-104400000D01*
X92275000Y-66000000D02*
X92000000Y-65725000D01*
X102137500Y-102092500D02*
X102045000Y-102000000D01*
X120730000Y-63730000D02*
X121000000Y-64000000D01*
X66000000Y-41000000D02*
X66000000Y-42000000D01*
X105190000Y-55810000D02*
X103635000Y-57365000D01*
X80825000Y-94175000D02*
X81000000Y-94000000D01*
X85275000Y-65000000D02*
X83000000Y-65000000D01*
X119000000Y-63730000D02*
X120730000Y-63730000D01*
D41*
X84000000Y-104725000D02*
X83725000Y-105000000D01*
D40*
X123000000Y-62000000D02*
X121000000Y-64000000D01*
X76000000Y-41250000D02*
X76000000Y-45000000D01*
D41*
X85362500Y-81912500D02*
X85000000Y-82275000D01*
D40*
X97600000Y-54000000D02*
X95800000Y-52200000D01*
X87275000Y-100000000D02*
X84100000Y-100000000D01*
X66000000Y-42000000D02*
X63000000Y-42000000D01*
D41*
X119000000Y-68000000D02*
X119000000Y-71000000D01*
D40*
X99395000Y-103905000D02*
X97095000Y-103905000D01*
X68150000Y-42000000D02*
X66000000Y-42000000D01*
X95000000Y-67000000D02*
X96000000Y-68000000D01*
X75750000Y-41000000D02*
X75750000Y-39750000D01*
X123000000Y-61725000D02*
X123000000Y-62000000D01*
D41*
X88000000Y-106000000D02*
X88000000Y-109000000D01*
D40*
X113850000Y-65000000D02*
X113850000Y-69850000D01*
X67540000Y-39460000D02*
X66000000Y-41000000D01*
D41*
X80137500Y-83862500D02*
X80000000Y-84000000D01*
D40*
X84100000Y-100000000D02*
X84000000Y-99900000D01*
X99000000Y-47725000D02*
X99000000Y-50000000D01*
X75750000Y-41000000D02*
X76000000Y-41250000D01*
X67137500Y-79407500D02*
X67137500Y-82000000D01*
X95800000Y-51000000D02*
X95800000Y-52200000D01*
D41*
X80137500Y-81862500D02*
X80137500Y-83862500D01*
D40*
X95800000Y-52200000D02*
X95000000Y-53000000D01*
D41*
X84000000Y-99900000D02*
X84000000Y-102000000D01*
D40*
X84275000Y-77275000D02*
X85000000Y-78000000D01*
X113850000Y-69850000D02*
X114000000Y-70000000D01*
X94000000Y-107000000D02*
X96000000Y-105000000D01*
X68552500Y-39862500D02*
X68150000Y-39460000D01*
X66000000Y-78270000D02*
X67137500Y-79407500D01*
X102137500Y-107000000D02*
X102137500Y-102092500D01*
X66725000Y-66000000D02*
X69000000Y-66000000D01*
X91000000Y-84925000D02*
X91000000Y-83912500D01*
X97825000Y-54000000D02*
X97600000Y-54000000D01*
D41*
X81000000Y-91000000D02*
X81000000Y-94000000D01*
D40*
X66000000Y-77000000D02*
X66000000Y-78270000D01*
X106000000Y-106650000D02*
X106000000Y-107000000D01*
D41*
X85725000Y-83000000D02*
X85000000Y-82275000D01*
D40*
X76000000Y-107000000D02*
X77000000Y-106000000D01*
X79000000Y-94175000D02*
X80825000Y-94175000D01*
D41*
X85725000Y-85000000D02*
X85725000Y-84000000D01*
D40*
X71000000Y-39862500D02*
X68552500Y-39862500D01*
X76400000Y-104400000D02*
X76400000Y-101775000D01*
X119000000Y-62460000D02*
X119000000Y-63730000D01*
X91000000Y-83912500D02*
X89000000Y-81912500D01*
X111000000Y-98275000D02*
X116275000Y-98275000D01*
X75750000Y-39750000D02*
X75000000Y-39000000D01*
X102725000Y-63725000D02*
X103000000Y-64000000D01*
X116000000Y-44275000D02*
X116000000Y-42000000D01*
X84275000Y-77000000D02*
X84275000Y-77275000D01*
D39*
%TO.N,/CAN_FLT*%
X95892100Y-68873000D02*
X97000000Y-69980900D01*
X96533593Y-77981909D02*
X96981909Y-77981909D01*
X91224000Y-66458900D02*
X93638100Y-68873000D01*
X94000000Y-62000000D02*
X92000000Y-64000000D01*
X95175000Y-63000000D02*
X95000000Y-63000000D01*
X97000000Y-69980900D02*
X97000000Y-78000000D01*
X95000000Y-63000000D02*
X94000000Y-62000000D01*
X91224000Y-64776000D02*
X91224000Y-66458900D01*
X93638100Y-68873000D02*
X95892100Y-68873000D01*
X97000000Y-80000000D02*
X95000000Y-80000000D01*
X94000000Y-62000000D02*
X91224000Y-64776000D01*
X96981909Y-77981909D02*
X97000000Y-78000000D01*
D42*
%TO.N,+1V8DC*%
X84000000Y-85000000D02*
X84000000Y-85100000D01*
X84000000Y-85100000D02*
X81000000Y-88100000D01*
D40*
X84050000Y-84950000D02*
X84000000Y-85000000D01*
X84050000Y-82275000D02*
X84050000Y-84950000D01*
D39*
%TO.N,Net-(U9-CT)*%
X103594000Y-102936001D02*
X103594000Y-106731500D01*
X104695000Y-102635000D02*
X103895001Y-102635000D01*
X103895001Y-102635000D02*
X103594000Y-102936001D01*
X103594000Y-106731500D02*
X103862500Y-107000000D01*
%TO.N,Net-(U11-CT)*%
X82000000Y-103000000D02*
X81000000Y-102000000D01*
X82000000Y-105000000D02*
X82000000Y-103000000D01*
D40*
%TO.N,/+1V8_railMonitor*%
X80137500Y-78862500D02*
X81000000Y-78000000D01*
X80137500Y-80137500D02*
X80137500Y-78862500D01*
X81063500Y-81063500D02*
X83648999Y-81063500D01*
X83648999Y-81063500D02*
X84050000Y-80662499D01*
X90200000Y-69175000D02*
X86375000Y-73000000D01*
X86375000Y-73000000D02*
X82000000Y-73000000D01*
X84050000Y-80662499D02*
X84050000Y-80000000D01*
X80137500Y-80137500D02*
X81063500Y-81063500D01*
D39*
%TO.N,/MCU_RST*%
X90912500Y-91000000D02*
X90912500Y-90087500D01*
X91000000Y-92000000D02*
X90912500Y-91912500D01*
X93997004Y-93050494D02*
X93997004Y-92513922D01*
X90912500Y-91912500D02*
X90912500Y-91000000D01*
X94000000Y-93000000D02*
X95000000Y-93000000D01*
X93997004Y-92513922D02*
X92859381Y-91376299D01*
D40*
%TO.N,/+3V3_railMonitor*%
X107929999Y-94929999D02*
X107929999Y-98929999D01*
X80950000Y-69050000D02*
X83000000Y-67000000D01*
X101000000Y-84000000D02*
X100000000Y-83000000D01*
X109635000Y-101365000D02*
X111000000Y-100000000D01*
X104695000Y-101365000D02*
X109635000Y-101365000D01*
X107000000Y-94000000D02*
X107929999Y-94929999D01*
X107929999Y-98929999D02*
X105494999Y-101365000D01*
X106000000Y-88000000D02*
X108499000Y-90499000D01*
X101000000Y-87000000D02*
X101000000Y-84000000D01*
X90000000Y-64000000D02*
X100000000Y-54000000D01*
X105494999Y-101365000D02*
X104695000Y-101365000D01*
X100000000Y-54000000D02*
X103000000Y-54000000D01*
X108499000Y-90499000D02*
X108499000Y-94000000D01*
X78500000Y-69050000D02*
X80950000Y-69050000D01*
X96227000Y-76403194D02*
X96227000Y-72000000D01*
X96378877Y-76555071D02*
X96227000Y-76403194D01*
X108499000Y-94000000D02*
X107000000Y-94000000D01*
%TO.N,/+5V0_railMonitor*%
X68050000Y-69050000D02*
X67100000Y-70000000D01*
X67100000Y-70000000D02*
X66000000Y-70000000D01*
X64624000Y-84624000D02*
X64624000Y-73000000D01*
X78000000Y-98000000D02*
X64624000Y-84624000D01*
X78725000Y-106000000D02*
X80000000Y-106000000D01*
%TO.N,+3V3DC*%
X83912500Y-108000000D02*
X87590080Y-104322420D01*
X96640000Y-102635000D02*
X99395000Y-102635000D01*
X67000000Y-107000000D02*
X67000000Y-96000000D01*
X94635000Y-102635000D02*
X99395000Y-102635000D01*
X105087500Y-96000000D02*
X102000000Y-96000000D01*
X94000000Y-105275000D02*
X96640000Y-102635000D01*
X84000000Y-95000000D02*
X84000000Y-97000000D01*
X71000000Y-83000000D02*
X71000000Y-82000000D01*
X95000000Y-99912500D02*
X95000000Y-101000000D01*
X83036500Y-108876000D02*
X83912500Y-108000000D01*
X95000000Y-101000000D02*
X94000000Y-102000000D01*
X81175000Y-75000000D02*
X79000000Y-75000000D01*
X68000000Y-86000000D02*
X71000000Y-83000000D01*
X87590080Y-104322420D02*
X91677580Y-104322420D01*
X102000000Y-96000000D02*
X101000000Y-97000000D01*
X68876000Y-108876000D02*
X83036500Y-108876000D01*
X91677580Y-104322420D02*
X94000000Y-102000000D01*
X67000000Y-107000000D02*
X68876000Y-108876000D01*
X94000000Y-102000000D02*
X94635000Y-102635000D01*
%TO.N,+5V0DC*%
X87100000Y-103100000D02*
X86000000Y-102000000D01*
X121000000Y-87000000D02*
X116000000Y-92000000D01*
X121000000Y-81000000D02*
X121000000Y-87000000D01*
X91000000Y-106000000D02*
X91000000Y-108000000D01*
X88000000Y-103100000D02*
X87100000Y-103100000D01*
X71275000Y-107000000D02*
X71275000Y-105000000D01*
X119000000Y-72725000D02*
X119000000Y-76000000D01*
X88000000Y-103100000D02*
X89900000Y-103100000D01*
X71275000Y-105000000D02*
X71275000Y-101725000D01*
X71275000Y-101725000D02*
X72000000Y-101000000D01*
X89900000Y-103100000D02*
X90000000Y-103000000D01*
D39*
%TO.N,Net-(JP1-A)*%
X96986691Y-92589626D02*
X97000000Y-85000000D01*
X105000000Y-82213280D02*
X110213280Y-77000000D01*
X110213280Y-77000000D02*
X110240000Y-77000000D01*
X90000000Y-100000000D02*
X89000000Y-100000000D01*
X92000000Y-98000000D02*
X90000000Y-100000000D01*
X105000000Y-86000000D02*
X105000000Y-82213280D01*
D40*
%TO.N,/+1V8_rail*%
X101000000Y-99000000D02*
X101000000Y-98000000D01*
X100299000Y-95709636D02*
X100299000Y-97290364D01*
X105912086Y-86079278D02*
X105000000Y-86991364D01*
X104299000Y-90709636D02*
X104299000Y-91290364D01*
X104299000Y-91290364D02*
X104751058Y-91742422D01*
X104751058Y-91742422D02*
X104751058Y-94399000D01*
X104000000Y-97501000D02*
X105501000Y-97501000D01*
D42*
X117000000Y-104000000D02*
X111000000Y-104000000D01*
D40*
X101000000Y-98000000D02*
X101004318Y-97995682D01*
X105501000Y-97501000D02*
X106000000Y-98000000D01*
X105000000Y-90008636D02*
X104299000Y-90709636D01*
D42*
X117000000Y-104000000D02*
X127312599Y-104000000D01*
D40*
X103000000Y-94399000D02*
X102900000Y-94299000D01*
X104751058Y-94399000D02*
X103000000Y-94399000D01*
X104000000Y-99000000D02*
X101000000Y-99000000D01*
X87000000Y-65000000D02*
X87000000Y-66000000D01*
D42*
X127312599Y-104000000D02*
X128973000Y-102339599D01*
D40*
X100299000Y-97290364D02*
X101004318Y-97995682D01*
X104000000Y-99000000D02*
X104000000Y-97501000D01*
X105000000Y-86991364D02*
X105000000Y-90008636D01*
X101709636Y-94299000D02*
X100299000Y-95709636D01*
X102900000Y-94299000D02*
X101709636Y-94299000D01*
X105912086Y-85087914D02*
X105912086Y-86079278D01*
%TO.N,/+5V0_rail*%
X65000000Y-67675000D02*
X63675000Y-69000000D01*
D42*
X128973000Y-91027000D02*
X129000000Y-91000000D01*
D40*
X83000000Y-93000000D02*
X83000000Y-91000000D01*
X88000000Y-96000000D02*
X92152346Y-96016245D01*
X65000000Y-66000000D02*
X65000000Y-67675000D01*
X108000000Y-100000000D02*
X108000000Y-99827944D01*
D42*
X128973000Y-96339601D02*
X128973000Y-91027000D01*
D40*
X102000000Y-95000000D02*
X105000000Y-95000000D01*
D42*
X117000000Y-94000000D02*
X126633399Y-94000000D01*
D40*
X86701000Y-96701000D02*
X83000000Y-93000000D01*
X87299000Y-96701000D02*
X86701000Y-96701000D01*
X105000000Y-95000000D02*
X106000000Y-94000000D01*
X108000000Y-99827944D02*
X113827944Y-94000000D01*
X88000000Y-96000000D02*
X87299000Y-96701000D01*
D42*
X126633399Y-94000000D02*
X128973000Y-96339601D01*
D40*
X113827944Y-94000000D02*
X117000000Y-94000000D01*
D39*
%TO.N,Net-(JP3-B)*%
X110240000Y-86000000D02*
X109000000Y-86000000D01*
X109000000Y-86000000D02*
X108000000Y-87000000D01*
%TO.N,/INA3221_CRIT*%
X72000000Y-45000000D02*
X72000000Y-46000000D01*
X101000000Y-82000000D02*
X100000000Y-82000000D01*
X100000000Y-82000000D02*
X98000000Y-84000000D01*
X98000000Y-84000000D02*
X95000000Y-84000000D01*
X72000000Y-46000000D02*
X71000000Y-47000000D01*
%TO.N,Net-(U1-PA5)*%
X102175000Y-89000000D02*
X101000000Y-89000000D01*
%TO.N,/MCU_SCLK*%
X111611787Y-54166842D02*
X111000000Y-72000000D01*
X111000000Y-72000000D02*
X111000000Y-75213280D01*
X104000000Y-82213280D02*
X104000000Y-89000000D01*
X109106640Y-77539540D02*
X104432900Y-82213280D01*
X104432900Y-82213280D02*
X104000000Y-82213280D01*
X113603032Y-53270000D02*
X111611787Y-54166842D01*
X109106640Y-77106640D02*
X109106640Y-77539540D01*
X113950000Y-53270000D02*
X113603032Y-53270000D01*
X111000000Y-75213280D02*
X109106640Y-77106640D01*
%TO.N,Net-(U1-PA7)*%
X102000000Y-93000000D02*
X101000000Y-93000000D01*
%TO.N,/MCU_MOSI*%
X103000000Y-82646180D02*
X103000000Y-92175000D01*
X103000000Y-92175000D02*
X103825000Y-93000000D01*
X112975001Y-52000000D02*
X111092606Y-53666203D01*
X113950000Y-52000000D02*
X112975001Y-52000000D01*
X111092606Y-53666203D02*
X110276000Y-75370180D01*
X110276000Y-75370180D02*
X103000000Y-82646180D01*
%TO.N,/TEMP1_ALERT*%
X94694366Y-109000000D02*
X92000000Y-106305634D01*
X87000000Y-89000000D02*
X87000000Y-90000000D01*
X92000000Y-106305634D02*
X92000000Y-106000000D01*
X85000000Y-87000000D02*
X87000000Y-89000000D01*
X85000000Y-91000000D02*
X85000000Y-94000000D01*
X108000000Y-109000000D02*
X94694366Y-109000000D01*
X108000000Y-105149000D02*
X108000000Y-109000000D01*
X112000000Y-102000000D02*
X111149000Y-102000000D01*
X111149000Y-102000000D02*
X108000000Y-105149000D01*
X85000000Y-94000000D02*
X87000000Y-96000000D01*
X86000000Y-91000000D02*
X85000000Y-91000000D01*
X87000000Y-90000000D02*
X86000000Y-91000000D01*
X80000000Y-85000000D02*
X82000000Y-85000000D01*
%TO.N,/TEMP2_ALERT*%
X128000000Y-48000000D02*
X128000000Y-58000000D01*
X98000000Y-79000000D02*
X97000000Y-79000000D01*
X117000000Y-58000000D02*
X128000000Y-58000000D01*
X63000000Y-40730000D02*
X63730000Y-40730000D01*
X119000000Y-39000000D02*
X128000000Y-48000000D01*
X116000000Y-59000000D02*
X117000000Y-58000000D01*
X97000000Y-79000000D02*
X95000000Y-79000000D01*
X63730000Y-40730000D02*
X64000000Y-41000000D01*
X100000000Y-76000000D02*
X97000000Y-79000000D01*
X100000000Y-75000000D02*
X100000000Y-76000000D01*
X90000000Y-39000000D02*
X119000000Y-39000000D01*
%TO.N,/TEMP0_ALERT*%
X115175000Y-64180001D02*
X115175000Y-68000000D01*
X110452000Y-96000000D02*
X110240000Y-96000000D01*
X113850000Y-63730000D02*
X114724999Y-63730000D01*
X116726000Y-89726000D02*
X110452000Y-96000000D01*
X116726000Y-69551000D02*
X116726000Y-89726000D01*
X115175000Y-68000000D02*
X116726000Y-69551000D01*
X114724999Y-63730000D02*
X115175000Y-64180001D01*
%TO.N,/SCL*%
X64460000Y-39460000D02*
X65000000Y-40000000D01*
X73000000Y-80884218D02*
X73108162Y-80992380D01*
X73000000Y-77000000D02*
X73000000Y-80884218D01*
X103825000Y-79000000D02*
X105000000Y-79000000D01*
X64416479Y-71975000D02*
X66975000Y-71975000D01*
X66975000Y-71975000D02*
X67000000Y-72000000D01*
X63000000Y-39460000D02*
X64460000Y-39460000D01*
X115460000Y-62460000D02*
X116000000Y-63000000D01*
X64472021Y-63833613D02*
X64305634Y-64000000D01*
X103000000Y-73000000D02*
X98000000Y-68000000D01*
X65399000Y-69751057D02*
X65399000Y-70992479D01*
X76068326Y-63833613D02*
X64472021Y-63833613D01*
X75000000Y-45601040D02*
X75000000Y-45000000D01*
X103000000Y-74000000D02*
X103000000Y-73000000D01*
X65838500Y-65532866D02*
X65838500Y-69311557D01*
X70950000Y-77000000D02*
X73000000Y-77000000D01*
X61874000Y-51126000D02*
X65000000Y-48000000D01*
X113850000Y-62460000D02*
X115460000Y-62460000D01*
X61874000Y-64000000D02*
X64305634Y-64000000D01*
X65000000Y-48000000D02*
X72601040Y-48000000D01*
X65399000Y-70992479D02*
X64416479Y-71975000D01*
X65838500Y-69311557D02*
X65399000Y-69751057D01*
X64305634Y-64000000D02*
X65838500Y-65532866D01*
X61874000Y-64000000D02*
X61874000Y-51126000D01*
X72601040Y-48000000D02*
X75000000Y-45601040D01*
%TO.N,/WP*%
X93000000Y-71000000D02*
X93000000Y-72000000D01*
X76000000Y-75000000D02*
X75270000Y-75730000D01*
X75270000Y-75730000D02*
X70950000Y-75730000D01*
X93000000Y-72000000D02*
X88083520Y-72000000D01*
X86482520Y-73601000D02*
X80601000Y-73601000D01*
X76000000Y-75000000D02*
X78000000Y-73000000D01*
X88083520Y-72000000D02*
X86482520Y-73601000D01*
X78000000Y-73000000D02*
X80000000Y-73000000D01*
X80601000Y-73601000D02*
X80000000Y-73000000D01*
%TO.N,/SDA*%
X88000000Y-87000000D02*
X88888500Y-87888500D01*
X103104832Y-97000000D02*
X106000000Y-97000000D01*
X63000000Y-38190000D02*
X64190000Y-38190000D01*
X90513500Y-87888500D02*
X91513500Y-88888500D01*
X67168134Y-85000000D02*
X70000000Y-82168134D01*
X66000000Y-85000000D02*
X67168134Y-85000000D01*
X70950000Y-79686160D02*
X80314840Y-89051000D01*
X80314840Y-89051000D02*
X85949000Y-89051000D01*
X96000000Y-89000000D02*
X96127000Y-89127000D01*
X112000000Y-107000000D02*
X110000000Y-105000000D01*
X91513500Y-88888500D02*
X91513500Y-89838557D01*
X70950000Y-78270000D02*
X70950000Y-79686160D01*
X70950000Y-79686160D02*
X70000000Y-80636160D01*
X92000000Y-90325057D02*
X92000000Y-93000000D01*
X96127000Y-89127000D02*
X96127000Y-97127000D01*
X96127000Y-97127000D02*
X97120619Y-97620038D01*
X94000000Y-95000000D02*
X92000000Y-93000000D01*
X113850000Y-61190000D02*
X116190000Y-61190000D01*
X113000000Y-81000000D02*
X112000000Y-81000000D01*
X102143214Y-97961618D02*
X103104832Y-97000000D01*
X70000000Y-80636160D02*
X70000000Y-82168134D01*
X64190000Y-38190000D02*
X65000000Y-39000000D01*
X91513500Y-89838557D02*
X92000000Y-90325057D01*
X88888500Y-87888500D02*
X90513500Y-87888500D01*
X110000000Y-105000000D02*
X109000000Y-105000000D01*
%TO.N,/CAN Related/MCP_TX*%
X109000000Y-48190000D02*
X107190000Y-48190000D01*
X107190000Y-48190000D02*
X107000000Y-48000000D01*
%TO.N,Net-(U7-TXD)*%
X103000000Y-60175000D02*
X103000000Y-56000000D01*
X103000000Y-56000000D02*
X102000000Y-55000000D01*
X101175000Y-52000000D02*
X101000000Y-52000000D01*
X105175000Y-48000000D02*
X101175000Y-52000000D01*
%TO.N,Net-(U7-RXD)*%
X104862430Y-53999962D02*
X105000000Y-50087500D01*
X105000000Y-50087500D02*
X105087500Y-50000000D01*
%TO.N,/CAN Related/MCP_RX*%
X107452500Y-49460000D02*
X106912500Y-50000000D01*
X109000000Y-49460000D02*
X107452500Y-49460000D01*
%TO.N,Net-(U7-S)*%
X96000000Y-54000000D02*
X95000000Y-54000000D01*
X95000000Y-54000000D02*
X94000000Y-55000000D01*
%TO.N,/OSC_EN*%
X91000000Y-81000000D02*
X92026000Y-82026000D01*
X88399000Y-69601000D02*
X86000000Y-72000000D01*
X88399000Y-54601000D02*
X88399000Y-69601000D01*
X95800000Y-49500000D02*
X93500000Y-49500000D01*
X92026000Y-82026000D02*
X92026000Y-89627040D01*
X92026000Y-89627040D02*
X94398960Y-92000000D01*
X94398960Y-92000000D02*
X95000000Y-92000000D01*
X95175000Y-48875000D02*
X95800000Y-49500000D01*
X95175000Y-45000000D02*
X95175000Y-48875000D01*
X88399000Y-54601000D02*
X93500000Y-49500000D01*
%TO.N,/MCU_GPIO_~{CS}*%
X107061000Y-53939000D02*
X107000000Y-54000000D01*
X99000000Y-78569366D02*
X99000000Y-79399000D01*
X99000000Y-79399000D02*
X98000000Y-80399000D01*
X99849943Y-74000000D02*
X100601000Y-74751057D01*
X106601000Y-61601000D02*
X106601000Y-62399000D01*
X98000000Y-80399000D02*
X97751057Y-80399000D01*
X106601000Y-62399000D02*
X105000000Y-64000000D01*
X113540000Y-49460000D02*
X112674000Y-50326000D01*
X112674000Y-51326000D02*
X110061000Y-53939000D01*
X98000000Y-82000000D02*
X97000000Y-83000000D01*
X100601000Y-74751057D02*
X100601000Y-76968366D01*
X97000000Y-83000000D02*
X96000000Y-83000000D01*
X116540000Y-49460000D02*
X113950000Y-49460000D01*
X97751057Y-80399000D02*
X97399000Y-80751057D01*
X99399000Y-74000000D02*
X99849943Y-74000000D01*
X113950000Y-49460000D02*
X113540000Y-49460000D01*
X110061000Y-53939000D02*
X107061000Y-53939000D01*
X100601000Y-76968366D02*
X99000000Y-78569366D01*
X97399000Y-80751057D02*
X97399000Y-81399000D01*
X120000000Y-46000000D02*
X116540000Y-49460000D01*
X105000000Y-60000000D02*
X106601000Y-61601000D01*
X97399000Y-81399000D02*
X98000000Y-82000000D01*
X112674000Y-50326000D02*
X112674000Y-51326000D01*
%TO.N,/MCU_MISO*%
X93389213Y-89626606D02*
X93389213Y-81787859D01*
X120000000Y-50000000D02*
X120000000Y-52000000D01*
X87399000Y-75851000D02*
X87399000Y-73601000D01*
X89399000Y-66399000D02*
X89399000Y-63601000D01*
X93389213Y-81787859D02*
X93097183Y-81495829D01*
X120000000Y-50000000D02*
X119270000Y-50730000D01*
X119270000Y-50730000D02*
X113950000Y-50730000D01*
X87399000Y-73601000D02*
X88000000Y-73000000D01*
X90000000Y-67000000D02*
X89399000Y-66399000D01*
X93097183Y-81495829D02*
X87399000Y-75851000D01*
X89399000Y-63601000D02*
X93000000Y-60000000D01*
%TO.N,Net-(U8-OSC2)*%
X105912500Y-53000000D02*
X108730000Y-53000000D01*
X108730000Y-53000000D02*
X109000000Y-53270000D01*
%TO.N,Net-(Y1-OUT)*%
X104087500Y-53000000D02*
X99000000Y-53000000D01*
X99000000Y-53000000D02*
X97000000Y-51000000D01*
%TO.N,/CAN_ALRT2*%
X102000000Y-56000000D02*
X102000000Y-60430634D01*
X103776000Y-60654634D02*
X103776000Y-60224000D01*
X113000000Y-75000000D02*
X113000000Y-68000000D01*
X112000000Y-67000000D02*
X112000000Y-57000000D01*
X102532866Y-60963500D02*
X103467134Y-60963500D01*
X102000000Y-60430634D02*
X102532866Y-60963500D01*
X113000000Y-68000000D02*
X112000000Y-67000000D01*
X111087500Y-50912500D02*
X111087500Y-43000000D01*
X111399000Y-76601000D02*
X113000000Y-75000000D01*
X103467134Y-60963500D02*
X103776000Y-60654634D01*
X109000000Y-52000000D02*
X110000000Y-52000000D01*
X110240000Y-82000000D02*
X110647943Y-82000000D01*
X107000000Y-57000000D02*
X109000000Y-57000000D01*
X111399000Y-81248943D02*
X111399000Y-76601000D01*
X103776000Y-60224000D02*
X107000000Y-57000000D01*
X110000000Y-52000000D02*
X111000000Y-51000000D01*
X111000000Y-51000000D02*
X111087500Y-50912500D01*
X110647943Y-82000000D02*
X111399000Y-81248943D01*
%TO.N,/CAN_ALRT1*%
X124000000Y-54000000D02*
X123460000Y-54540000D01*
X125000000Y-54000000D02*
X124000000Y-54000000D01*
X123460000Y-54540000D02*
X122000000Y-54540000D01*
X122000000Y-54540000D02*
X113950000Y-54540000D01*
%TO.N,/CAN_ALRT0*%
X112000000Y-72000000D02*
X112000000Y-69000000D01*
X120000000Y-56000000D02*
X114140000Y-56000000D01*
X116000000Y-66000000D02*
X117000000Y-66000000D01*
X117000000Y-66340325D02*
X117379660Y-66719985D01*
X117000000Y-66000000D02*
X117000000Y-66340325D01*
X108000000Y-82361040D02*
X108000000Y-80000000D01*
X121000000Y-56000000D02*
X120000000Y-56000000D01*
X109638960Y-84000000D02*
X108000000Y-82361040D01*
X114140000Y-56000000D02*
X113950000Y-55810000D01*
X110240000Y-84000000D02*
X109638960Y-84000000D01*
%TO.N,Net-(U9-ISET)*%
X104695000Y-103905000D02*
X106730000Y-103905000D01*
X106730000Y-103905000D02*
X106825000Y-104000000D01*
%TO.N,Net-(U11-ISET)*%
X79000000Y-96000000D02*
X79000000Y-99000000D01*
%TO.N,Net-(U10-ILIM)*%
X85000000Y-80000000D02*
X86000000Y-80000000D01*
X86087500Y-80087500D02*
X89000000Y-80087500D01*
X86000000Y-80000000D02*
X86087500Y-80087500D01*
%TO.N,/1V8_~{FLT}*%
X86398960Y-75000000D02*
X83000000Y-75000000D01*
X86398960Y-75000000D02*
X86398960Y-75418060D01*
X86398960Y-75418060D02*
X92599000Y-81618100D01*
X83100000Y-75100000D02*
X83000000Y-75000000D01*
X83100000Y-80000000D02*
X83100000Y-75100000D01*
X92599000Y-81618100D02*
X92599000Y-86000000D01*
%TO.N,/3V3_~{FLT}*%
X95000000Y-98087500D02*
X96512632Y-98087500D01*
X98520132Y-100095000D02*
X99395000Y-100095000D01*
X96512632Y-98087500D02*
X98520132Y-100095000D01*
X96000000Y-82000000D02*
X95000000Y-82000000D01*
X99395000Y-100095000D02*
X99395000Y-85793960D01*
%TO.N,/3V3_~{PG}*%
X106912500Y-97877500D02*
X106912500Y-96000000D01*
X95467134Y-97299000D02*
X95726000Y-97040134D01*
X94532866Y-98876000D02*
X94224000Y-98567134D01*
X104354032Y-99754032D02*
X100496000Y-99754032D01*
X94532866Y-97299000D02*
X95467134Y-97299000D01*
X100496000Y-99754032D02*
X100496000Y-100435968D01*
X100235968Y-100696000D02*
X98554032Y-100696000D01*
X95726000Y-97040134D02*
X95726000Y-90124960D01*
X95726000Y-90124960D02*
X95601040Y-90000000D01*
X100496000Y-100435968D02*
X100235968Y-100696000D01*
X94224000Y-98567134D02*
X94224000Y-97607866D01*
X96734032Y-98876000D02*
X94532866Y-98876000D01*
X104695000Y-100095000D02*
X106912500Y-97877500D01*
X95601040Y-90000000D02*
X95000000Y-90000000D01*
X98554032Y-100696000D02*
X96734032Y-98876000D01*
X104695000Y-100095000D02*
X104354032Y-99754032D01*
X94224000Y-97607866D02*
X94532866Y-97299000D01*
%TO.N,/5V0_~{FLT}*%
X68825000Y-105175000D02*
X69000000Y-105000000D01*
X68825000Y-107000000D02*
X68825000Y-105175000D01*
%TO.N,/5V0_~{PG}*%
X82087500Y-107087500D02*
X80000000Y-105000000D01*
X108000000Y-85000000D02*
X110240000Y-85000000D01*
X106000000Y-87000000D02*
X108000000Y-85000000D01*
X82087500Y-108000000D02*
X82087500Y-107087500D01*
%TO.N,Net-(R31-Pad1)*%
X89087500Y-91000000D02*
X88000000Y-91000000D01*
%TO.N,Net-(U1-VBAT)*%
X95000000Y-77000000D02*
X95000000Y-70000000D01*
%TO.N,Net-(U8-CLKO{slash}SOF)*%
X109974999Y-50730000D02*
X109000000Y-50730000D01*
X110276000Y-50428999D02*
X109974999Y-50730000D01*
X110276000Y-44276000D02*
X110276000Y-50428999D01*
X109000000Y-43000000D02*
X110276000Y-44276000D01*
%TO.N,/Onboard_LED*%
X94000000Y-78000000D02*
X92000000Y-76000000D01*
X94000000Y-78000000D02*
X95000000Y-78000000D01*
X92000000Y-75454860D02*
X91984843Y-75439703D01*
X92000000Y-76000000D02*
X92000000Y-75454860D01*
%TO.N,/WAKE*%
X94375000Y-81000000D02*
X95000000Y-81000000D01*
X91000000Y-77000000D02*
X91000000Y-77625000D01*
X91000000Y-77625000D02*
X94375000Y-81000000D01*
X91000000Y-77000000D02*
X90613601Y-77000000D01*
X90613601Y-77000000D02*
X90412141Y-76798540D01*
%TO.N,Net-(U1-PA8)*%
X113000000Y-92000000D02*
X116000000Y-89000000D01*
X110240000Y-92000000D02*
X113000000Y-92000000D01*
%TO.N,/INA3221_WARN*%
X61874000Y-67126000D02*
X61874000Y-68254001D01*
X84601000Y-109399000D02*
X86000000Y-108000000D01*
X71000000Y-46000000D02*
X70000000Y-47000000D01*
X61601000Y-109399000D02*
X84601000Y-109399000D01*
X63000000Y-66000000D02*
X61874000Y-67126000D01*
X61874000Y-68254001D02*
X61601000Y-68527001D01*
X61601000Y-68527001D02*
X61601000Y-109399000D01*
X71000000Y-45000000D02*
X71000000Y-46000000D01*
%TO.N,/3V3_~{EN}*%
X99395000Y-101365000D02*
X98365000Y-101365000D01*
X98428060Y-97689769D02*
X98000000Y-89000000D01*
X98365000Y-101365000D02*
X97000000Y-100000000D01*
X109000000Y-90000000D02*
X109000000Y-92361040D01*
X109000000Y-92361040D02*
X109638960Y-93000000D01*
X108000000Y-89000000D02*
X109000000Y-90000000D01*
X109638960Y-93000000D02*
X110240000Y-93000000D01*
X105000000Y-91000000D02*
X107000000Y-93000000D01*
%TO.N,/INA3221_VALID*%
X110841040Y-91000000D02*
X114000000Y-87841040D01*
X110240000Y-91000000D02*
X110841040Y-91000000D01*
X114000000Y-87841040D02*
X114000000Y-74000000D01*
X73000000Y-46000000D02*
X72000000Y-47000000D01*
X73000000Y-45000000D02*
X73000000Y-46000000D01*
%TO.N,/1V8_ON*%
X100399000Y-85399000D02*
X100399000Y-87399000D01*
X95931816Y-77362318D02*
X95931816Y-77205816D01*
X107686595Y-91686595D02*
X106000000Y-90000000D01*
X100399000Y-85399000D02*
X100000000Y-85000000D01*
X90559190Y-75500000D02*
X94274000Y-71785189D01*
X93000000Y-78000000D02*
X90500000Y-75500000D01*
X107686595Y-91722808D02*
X107686595Y-91686595D01*
X94274000Y-69274000D02*
X95726000Y-69274000D01*
X100399000Y-87399000D02*
X101000000Y-88000000D01*
X95726000Y-69274000D02*
X95726000Y-77000000D01*
X95931816Y-77205816D02*
X95726000Y-77000000D01*
X83100000Y-82275000D02*
X82375000Y-83000000D01*
X94274000Y-71785189D02*
X94274000Y-69274000D01*
X82375000Y-83000000D02*
X82000000Y-83000000D01*
X90559190Y-75500000D02*
X90500000Y-75500000D01*
%TD*%
D43*
X61000000Y-33000000D02*
X131000000Y-33000000D01*
X131000000Y-110000000D01*
X61000000Y-110000000D01*
X61000000Y-33000000D01*
M02*
