%TF.GenerationSoftware,KiCad,Pcbnew,9.0.7*%
%TF.CreationDate,2026-03-31T08:13:11-05:00*%
%TF.ProjectId,Sensor Cell with Comms,53656e73-6f72-4204-9365-6c6c20776974,rev?*%
%TF.SameCoordinates,Original*%
%TF.FileFunction,Legend,Top*%
%TF.FilePolarity,Positive*%
%FSLAX46Y46*%
G04 Gerber Fmt 4.6, Leading zero omitted, Abs format (unit mm)*
G04 Created by KiCad (PCBNEW 9.0.7) date 2026-03-31 08:13:11*
%MOMM*%
%LPD*%
G01*
G04 APERTURE LIST*
%ADD10C,0.100000*%
%ADD11C,0.150000*%
%ADD12C,0.300000*%
%ADD13C,0.400000*%
%ADD14C,0.120000*%
%ADD15C,0.152400*%
%ADD16C,0.508000*%
%TA.AperFunction,Profile*%
%ADD17C,0.050000*%
%TD*%
G04 APERTURE END LIST*
D10*
D11*
X177002200Y-166007200D02*
X285002200Y-166007200D01*
X285002200Y-198007200D01*
X177002200Y-198007200D01*
X177002200Y-166007200D01*
D10*
D11*
X10000000Y-10000000D02*
X287002200Y-10000000D01*
X287002200Y-200007200D01*
X10000000Y-200007200D01*
X10000000Y-10000000D01*
D10*
D11*
X12000000Y-12000000D02*
X285002200Y-12000000D01*
X285002200Y-198007200D01*
X12000000Y-198007200D01*
X12000000Y-12000000D01*
D10*
D11*
X60000000Y-12000000D02*
X60000000Y-10000000D01*
D10*
D11*
X110000000Y-12000000D02*
X110000000Y-10000000D01*
D10*
D11*
X160000000Y-12000000D02*
X160000000Y-10000000D01*
D10*
D11*
X210000000Y-12000000D02*
X210000000Y-10000000D01*
D10*
D11*
X260000000Y-12000000D02*
X260000000Y-10000000D01*
D10*
D11*
X36089160Y-11593604D02*
X35346303Y-11593604D01*
X35717731Y-11593604D02*
X35717731Y-10293604D01*
X35717731Y-10293604D02*
X35593922Y-10479319D01*
X35593922Y-10479319D02*
X35470112Y-10603128D01*
X35470112Y-10603128D02*
X35346303Y-10665033D01*
D10*
D11*
X85346303Y-10417414D02*
X85408207Y-10355509D01*
X85408207Y-10355509D02*
X85532017Y-10293604D01*
X85532017Y-10293604D02*
X85841541Y-10293604D01*
X85841541Y-10293604D02*
X85965350Y-10355509D01*
X85965350Y-10355509D02*
X86027255Y-10417414D01*
X86027255Y-10417414D02*
X86089160Y-10541223D01*
X86089160Y-10541223D02*
X86089160Y-10665033D01*
X86089160Y-10665033D02*
X86027255Y-10850747D01*
X86027255Y-10850747D02*
X85284398Y-11593604D01*
X85284398Y-11593604D02*
X86089160Y-11593604D01*
D10*
D11*
X135284398Y-10293604D02*
X136089160Y-10293604D01*
X136089160Y-10293604D02*
X135655826Y-10788842D01*
X135655826Y-10788842D02*
X135841541Y-10788842D01*
X135841541Y-10788842D02*
X135965350Y-10850747D01*
X135965350Y-10850747D02*
X136027255Y-10912652D01*
X136027255Y-10912652D02*
X136089160Y-11036461D01*
X136089160Y-11036461D02*
X136089160Y-11345985D01*
X136089160Y-11345985D02*
X136027255Y-11469795D01*
X136027255Y-11469795D02*
X135965350Y-11531700D01*
X135965350Y-11531700D02*
X135841541Y-11593604D01*
X135841541Y-11593604D02*
X135470112Y-11593604D01*
X135470112Y-11593604D02*
X135346303Y-11531700D01*
X135346303Y-11531700D02*
X135284398Y-11469795D01*
D10*
D11*
X185965350Y-10726938D02*
X185965350Y-11593604D01*
X185655826Y-10231700D02*
X185346303Y-11160271D01*
X185346303Y-11160271D02*
X186151064Y-11160271D01*
D10*
D11*
X236027255Y-10293604D02*
X235408207Y-10293604D01*
X235408207Y-10293604D02*
X235346303Y-10912652D01*
X235346303Y-10912652D02*
X235408207Y-10850747D01*
X235408207Y-10850747D02*
X235532017Y-10788842D01*
X235532017Y-10788842D02*
X235841541Y-10788842D01*
X235841541Y-10788842D02*
X235965350Y-10850747D01*
X235965350Y-10850747D02*
X236027255Y-10912652D01*
X236027255Y-10912652D02*
X236089160Y-11036461D01*
X236089160Y-11036461D02*
X236089160Y-11345985D01*
X236089160Y-11345985D02*
X236027255Y-11469795D01*
X236027255Y-11469795D02*
X235965350Y-11531700D01*
X235965350Y-11531700D02*
X235841541Y-11593604D01*
X235841541Y-11593604D02*
X235532017Y-11593604D01*
X235532017Y-11593604D02*
X235408207Y-11531700D01*
X235408207Y-11531700D02*
X235346303Y-11469795D01*
D10*
D11*
X285965350Y-10293604D02*
X285717731Y-10293604D01*
X285717731Y-10293604D02*
X285593922Y-10355509D01*
X285593922Y-10355509D02*
X285532017Y-10417414D01*
X285532017Y-10417414D02*
X285408207Y-10603128D01*
X285408207Y-10603128D02*
X285346303Y-10850747D01*
X285346303Y-10850747D02*
X285346303Y-11345985D01*
X285346303Y-11345985D02*
X285408207Y-11469795D01*
X285408207Y-11469795D02*
X285470112Y-11531700D01*
X285470112Y-11531700D02*
X285593922Y-11593604D01*
X285593922Y-11593604D02*
X285841541Y-11593604D01*
X285841541Y-11593604D02*
X285965350Y-11531700D01*
X285965350Y-11531700D02*
X286027255Y-11469795D01*
X286027255Y-11469795D02*
X286089160Y-11345985D01*
X286089160Y-11345985D02*
X286089160Y-11036461D01*
X286089160Y-11036461D02*
X286027255Y-10912652D01*
X286027255Y-10912652D02*
X285965350Y-10850747D01*
X285965350Y-10850747D02*
X285841541Y-10788842D01*
X285841541Y-10788842D02*
X285593922Y-10788842D01*
X285593922Y-10788842D02*
X285470112Y-10850747D01*
X285470112Y-10850747D02*
X285408207Y-10912652D01*
X285408207Y-10912652D02*
X285346303Y-11036461D01*
D10*
D11*
X60000000Y-198007200D02*
X60000000Y-200007200D01*
D10*
D11*
X110000000Y-198007200D02*
X110000000Y-200007200D01*
D10*
D11*
X160000000Y-198007200D02*
X160000000Y-200007200D01*
D10*
D11*
X210000000Y-198007200D02*
X210000000Y-200007200D01*
D10*
D11*
X260000000Y-198007200D02*
X260000000Y-200007200D01*
D10*
D11*
X36089160Y-199600804D02*
X35346303Y-199600804D01*
X35717731Y-199600804D02*
X35717731Y-198300804D01*
X35717731Y-198300804D02*
X35593922Y-198486519D01*
X35593922Y-198486519D02*
X35470112Y-198610328D01*
X35470112Y-198610328D02*
X35346303Y-198672233D01*
D10*
D11*
X85346303Y-198424614D02*
X85408207Y-198362709D01*
X85408207Y-198362709D02*
X85532017Y-198300804D01*
X85532017Y-198300804D02*
X85841541Y-198300804D01*
X85841541Y-198300804D02*
X85965350Y-198362709D01*
X85965350Y-198362709D02*
X86027255Y-198424614D01*
X86027255Y-198424614D02*
X86089160Y-198548423D01*
X86089160Y-198548423D02*
X86089160Y-198672233D01*
X86089160Y-198672233D02*
X86027255Y-198857947D01*
X86027255Y-198857947D02*
X85284398Y-199600804D01*
X85284398Y-199600804D02*
X86089160Y-199600804D01*
D10*
D11*
X135284398Y-198300804D02*
X136089160Y-198300804D01*
X136089160Y-198300804D02*
X135655826Y-198796042D01*
X135655826Y-198796042D02*
X135841541Y-198796042D01*
X135841541Y-198796042D02*
X135965350Y-198857947D01*
X135965350Y-198857947D02*
X136027255Y-198919852D01*
X136027255Y-198919852D02*
X136089160Y-199043661D01*
X136089160Y-199043661D02*
X136089160Y-199353185D01*
X136089160Y-199353185D02*
X136027255Y-199476995D01*
X136027255Y-199476995D02*
X135965350Y-199538900D01*
X135965350Y-199538900D02*
X135841541Y-199600804D01*
X135841541Y-199600804D02*
X135470112Y-199600804D01*
X135470112Y-199600804D02*
X135346303Y-199538900D01*
X135346303Y-199538900D02*
X135284398Y-199476995D01*
D10*
D11*
X185965350Y-198734138D02*
X185965350Y-199600804D01*
X185655826Y-198238900D02*
X185346303Y-199167471D01*
X185346303Y-199167471D02*
X186151064Y-199167471D01*
D10*
D11*
X236027255Y-198300804D02*
X235408207Y-198300804D01*
X235408207Y-198300804D02*
X235346303Y-198919852D01*
X235346303Y-198919852D02*
X235408207Y-198857947D01*
X235408207Y-198857947D02*
X235532017Y-198796042D01*
X235532017Y-198796042D02*
X235841541Y-198796042D01*
X235841541Y-198796042D02*
X235965350Y-198857947D01*
X235965350Y-198857947D02*
X236027255Y-198919852D01*
X236027255Y-198919852D02*
X236089160Y-199043661D01*
X236089160Y-199043661D02*
X236089160Y-199353185D01*
X236089160Y-199353185D02*
X236027255Y-199476995D01*
X236027255Y-199476995D02*
X235965350Y-199538900D01*
X235965350Y-199538900D02*
X235841541Y-199600804D01*
X235841541Y-199600804D02*
X235532017Y-199600804D01*
X235532017Y-199600804D02*
X235408207Y-199538900D01*
X235408207Y-199538900D02*
X235346303Y-199476995D01*
D10*
D11*
X285965350Y-198300804D02*
X285717731Y-198300804D01*
X285717731Y-198300804D02*
X285593922Y-198362709D01*
X285593922Y-198362709D02*
X285532017Y-198424614D01*
X285532017Y-198424614D02*
X285408207Y-198610328D01*
X285408207Y-198610328D02*
X285346303Y-198857947D01*
X285346303Y-198857947D02*
X285346303Y-199353185D01*
X285346303Y-199353185D02*
X285408207Y-199476995D01*
X285408207Y-199476995D02*
X285470112Y-199538900D01*
X285470112Y-199538900D02*
X285593922Y-199600804D01*
X285593922Y-199600804D02*
X285841541Y-199600804D01*
X285841541Y-199600804D02*
X285965350Y-199538900D01*
X285965350Y-199538900D02*
X286027255Y-199476995D01*
X286027255Y-199476995D02*
X286089160Y-199353185D01*
X286089160Y-199353185D02*
X286089160Y-199043661D01*
X286089160Y-199043661D02*
X286027255Y-198919852D01*
X286027255Y-198919852D02*
X285965350Y-198857947D01*
X285965350Y-198857947D02*
X285841541Y-198796042D01*
X285841541Y-198796042D02*
X285593922Y-198796042D01*
X285593922Y-198796042D02*
X285470112Y-198857947D01*
X285470112Y-198857947D02*
X285408207Y-198919852D01*
X285408207Y-198919852D02*
X285346303Y-199043661D01*
D10*
D11*
X10000000Y-60000000D02*
X12000000Y-60000000D01*
D10*
D11*
X10000000Y-110000000D02*
X12000000Y-110000000D01*
D10*
D11*
X10000000Y-160000000D02*
X12000000Y-160000000D01*
D10*
D11*
X10690476Y-35222176D02*
X11309523Y-35222176D01*
X10566666Y-35593604D02*
X10999999Y-34293604D01*
X10999999Y-34293604D02*
X11433333Y-35593604D01*
D10*
D11*
X11092857Y-84912652D02*
X11278571Y-84974557D01*
X11278571Y-84974557D02*
X11340476Y-85036461D01*
X11340476Y-85036461D02*
X11402380Y-85160271D01*
X11402380Y-85160271D02*
X11402380Y-85345985D01*
X11402380Y-85345985D02*
X11340476Y-85469795D01*
X11340476Y-85469795D02*
X11278571Y-85531700D01*
X11278571Y-85531700D02*
X11154761Y-85593604D01*
X11154761Y-85593604D02*
X10659523Y-85593604D01*
X10659523Y-85593604D02*
X10659523Y-84293604D01*
X10659523Y-84293604D02*
X11092857Y-84293604D01*
X11092857Y-84293604D02*
X11216666Y-84355509D01*
X11216666Y-84355509D02*
X11278571Y-84417414D01*
X11278571Y-84417414D02*
X11340476Y-84541223D01*
X11340476Y-84541223D02*
X11340476Y-84665033D01*
X11340476Y-84665033D02*
X11278571Y-84788842D01*
X11278571Y-84788842D02*
X11216666Y-84850747D01*
X11216666Y-84850747D02*
X11092857Y-84912652D01*
X11092857Y-84912652D02*
X10659523Y-84912652D01*
D10*
D11*
X11402380Y-135469795D02*
X11340476Y-135531700D01*
X11340476Y-135531700D02*
X11154761Y-135593604D01*
X11154761Y-135593604D02*
X11030952Y-135593604D01*
X11030952Y-135593604D02*
X10845238Y-135531700D01*
X10845238Y-135531700D02*
X10721428Y-135407890D01*
X10721428Y-135407890D02*
X10659523Y-135284080D01*
X10659523Y-135284080D02*
X10597619Y-135036461D01*
X10597619Y-135036461D02*
X10597619Y-134850747D01*
X10597619Y-134850747D02*
X10659523Y-134603128D01*
X10659523Y-134603128D02*
X10721428Y-134479319D01*
X10721428Y-134479319D02*
X10845238Y-134355509D01*
X10845238Y-134355509D02*
X11030952Y-134293604D01*
X11030952Y-134293604D02*
X11154761Y-134293604D01*
X11154761Y-134293604D02*
X11340476Y-134355509D01*
X11340476Y-134355509D02*
X11402380Y-134417414D01*
D10*
D11*
X10659523Y-185593604D02*
X10659523Y-184293604D01*
X10659523Y-184293604D02*
X10969047Y-184293604D01*
X10969047Y-184293604D02*
X11154761Y-184355509D01*
X11154761Y-184355509D02*
X11278571Y-184479319D01*
X11278571Y-184479319D02*
X11340476Y-184603128D01*
X11340476Y-184603128D02*
X11402380Y-184850747D01*
X11402380Y-184850747D02*
X11402380Y-185036461D01*
X11402380Y-185036461D02*
X11340476Y-185284080D01*
X11340476Y-185284080D02*
X11278571Y-185407890D01*
X11278571Y-185407890D02*
X11154761Y-185531700D01*
X11154761Y-185531700D02*
X10969047Y-185593604D01*
X10969047Y-185593604D02*
X10659523Y-185593604D01*
D10*
D11*
X287002200Y-60000000D02*
X285002200Y-60000000D01*
D10*
D11*
X287002200Y-110000000D02*
X285002200Y-110000000D01*
D10*
D11*
X287002200Y-160000000D02*
X285002200Y-160000000D01*
D10*
D11*
X285692676Y-35222176D02*
X286311723Y-35222176D01*
X285568866Y-35593604D02*
X286002199Y-34293604D01*
X286002199Y-34293604D02*
X286435533Y-35593604D01*
D10*
D11*
X286095057Y-84912652D02*
X286280771Y-84974557D01*
X286280771Y-84974557D02*
X286342676Y-85036461D01*
X286342676Y-85036461D02*
X286404580Y-85160271D01*
X286404580Y-85160271D02*
X286404580Y-85345985D01*
X286404580Y-85345985D02*
X286342676Y-85469795D01*
X286342676Y-85469795D02*
X286280771Y-85531700D01*
X286280771Y-85531700D02*
X286156961Y-85593604D01*
X286156961Y-85593604D02*
X285661723Y-85593604D01*
X285661723Y-85593604D02*
X285661723Y-84293604D01*
X285661723Y-84293604D02*
X286095057Y-84293604D01*
X286095057Y-84293604D02*
X286218866Y-84355509D01*
X286218866Y-84355509D02*
X286280771Y-84417414D01*
X286280771Y-84417414D02*
X286342676Y-84541223D01*
X286342676Y-84541223D02*
X286342676Y-84665033D01*
X286342676Y-84665033D02*
X286280771Y-84788842D01*
X286280771Y-84788842D02*
X286218866Y-84850747D01*
X286218866Y-84850747D02*
X286095057Y-84912652D01*
X286095057Y-84912652D02*
X285661723Y-84912652D01*
D10*
D11*
X286404580Y-135469795D02*
X286342676Y-135531700D01*
X286342676Y-135531700D02*
X286156961Y-135593604D01*
X286156961Y-135593604D02*
X286033152Y-135593604D01*
X286033152Y-135593604D02*
X285847438Y-135531700D01*
X285847438Y-135531700D02*
X285723628Y-135407890D01*
X285723628Y-135407890D02*
X285661723Y-135284080D01*
X285661723Y-135284080D02*
X285599819Y-135036461D01*
X285599819Y-135036461D02*
X285599819Y-134850747D01*
X285599819Y-134850747D02*
X285661723Y-134603128D01*
X285661723Y-134603128D02*
X285723628Y-134479319D01*
X285723628Y-134479319D02*
X285847438Y-134355509D01*
X285847438Y-134355509D02*
X286033152Y-134293604D01*
X286033152Y-134293604D02*
X286156961Y-134293604D01*
X286156961Y-134293604D02*
X286342676Y-134355509D01*
X286342676Y-134355509D02*
X286404580Y-134417414D01*
D10*
D11*
X285661723Y-185593604D02*
X285661723Y-184293604D01*
X285661723Y-184293604D02*
X285971247Y-184293604D01*
X285971247Y-184293604D02*
X286156961Y-184355509D01*
X286156961Y-184355509D02*
X286280771Y-184479319D01*
X286280771Y-184479319D02*
X286342676Y-184603128D01*
X286342676Y-184603128D02*
X286404580Y-184850747D01*
X286404580Y-184850747D02*
X286404580Y-185036461D01*
X286404580Y-185036461D02*
X286342676Y-185284080D01*
X286342676Y-185284080D02*
X286280771Y-185407890D01*
X286280771Y-185407890D02*
X286156961Y-185531700D01*
X286156961Y-185531700D02*
X285971247Y-185593604D01*
X285971247Y-185593604D02*
X285661723Y-185593604D01*
D10*
D11*
X200458026Y-193793328D02*
X200458026Y-192293328D01*
X200458026Y-192293328D02*
X200815169Y-192293328D01*
X200815169Y-192293328D02*
X201029455Y-192364757D01*
X201029455Y-192364757D02*
X201172312Y-192507614D01*
X201172312Y-192507614D02*
X201243741Y-192650471D01*
X201243741Y-192650471D02*
X201315169Y-192936185D01*
X201315169Y-192936185D02*
X201315169Y-193150471D01*
X201315169Y-193150471D02*
X201243741Y-193436185D01*
X201243741Y-193436185D02*
X201172312Y-193579042D01*
X201172312Y-193579042D02*
X201029455Y-193721900D01*
X201029455Y-193721900D02*
X200815169Y-193793328D01*
X200815169Y-193793328D02*
X200458026Y-193793328D01*
X202600884Y-193793328D02*
X202600884Y-193007614D01*
X202600884Y-193007614D02*
X202529455Y-192864757D01*
X202529455Y-192864757D02*
X202386598Y-192793328D01*
X202386598Y-192793328D02*
X202100884Y-192793328D01*
X202100884Y-192793328D02*
X201958026Y-192864757D01*
X202600884Y-193721900D02*
X202458026Y-193793328D01*
X202458026Y-193793328D02*
X202100884Y-193793328D01*
X202100884Y-193793328D02*
X201958026Y-193721900D01*
X201958026Y-193721900D02*
X201886598Y-193579042D01*
X201886598Y-193579042D02*
X201886598Y-193436185D01*
X201886598Y-193436185D02*
X201958026Y-193293328D01*
X201958026Y-193293328D02*
X202100884Y-193221900D01*
X202100884Y-193221900D02*
X202458026Y-193221900D01*
X202458026Y-193221900D02*
X202600884Y-193150471D01*
X203100884Y-192793328D02*
X203672312Y-192793328D01*
X203315169Y-192293328D02*
X203315169Y-193579042D01*
X203315169Y-193579042D02*
X203386598Y-193721900D01*
X203386598Y-193721900D02*
X203529455Y-193793328D01*
X203529455Y-193793328D02*
X203672312Y-193793328D01*
X204743741Y-193721900D02*
X204600884Y-193793328D01*
X204600884Y-193793328D02*
X204315170Y-193793328D01*
X204315170Y-193793328D02*
X204172312Y-193721900D01*
X204172312Y-193721900D02*
X204100884Y-193579042D01*
X204100884Y-193579042D02*
X204100884Y-193007614D01*
X204100884Y-193007614D02*
X204172312Y-192864757D01*
X204172312Y-192864757D02*
X204315170Y-192793328D01*
X204315170Y-192793328D02*
X204600884Y-192793328D01*
X204600884Y-192793328D02*
X204743741Y-192864757D01*
X204743741Y-192864757D02*
X204815170Y-193007614D01*
X204815170Y-193007614D02*
X204815170Y-193150471D01*
X204815170Y-193150471D02*
X204100884Y-193293328D01*
X205458026Y-193650471D02*
X205529455Y-193721900D01*
X205529455Y-193721900D02*
X205458026Y-193793328D01*
X205458026Y-193793328D02*
X205386598Y-193721900D01*
X205386598Y-193721900D02*
X205458026Y-193650471D01*
X205458026Y-193650471D02*
X205458026Y-193793328D01*
X205458026Y-192864757D02*
X205529455Y-192936185D01*
X205529455Y-192936185D02*
X205458026Y-193007614D01*
X205458026Y-193007614D02*
X205386598Y-192936185D01*
X205386598Y-192936185D02*
X205458026Y-192864757D01*
X205458026Y-192864757D02*
X205458026Y-193007614D01*
D10*
D11*
X177002200Y-194507200D02*
X285002200Y-194507200D01*
D10*
D11*
X178458026Y-196593328D02*
X178458026Y-195093328D01*
X179315169Y-196593328D02*
X178672312Y-195736185D01*
X179315169Y-195093328D02*
X178458026Y-195950471D01*
X179958026Y-196593328D02*
X179958026Y-195593328D01*
X179958026Y-195093328D02*
X179886598Y-195164757D01*
X179886598Y-195164757D02*
X179958026Y-195236185D01*
X179958026Y-195236185D02*
X180029455Y-195164757D01*
X180029455Y-195164757D02*
X179958026Y-195093328D01*
X179958026Y-195093328D02*
X179958026Y-195236185D01*
X181529455Y-196450471D02*
X181458027Y-196521900D01*
X181458027Y-196521900D02*
X181243741Y-196593328D01*
X181243741Y-196593328D02*
X181100884Y-196593328D01*
X181100884Y-196593328D02*
X180886598Y-196521900D01*
X180886598Y-196521900D02*
X180743741Y-196379042D01*
X180743741Y-196379042D02*
X180672312Y-196236185D01*
X180672312Y-196236185D02*
X180600884Y-195950471D01*
X180600884Y-195950471D02*
X180600884Y-195736185D01*
X180600884Y-195736185D02*
X180672312Y-195450471D01*
X180672312Y-195450471D02*
X180743741Y-195307614D01*
X180743741Y-195307614D02*
X180886598Y-195164757D01*
X180886598Y-195164757D02*
X181100884Y-195093328D01*
X181100884Y-195093328D02*
X181243741Y-195093328D01*
X181243741Y-195093328D02*
X181458027Y-195164757D01*
X181458027Y-195164757D02*
X181529455Y-195236185D01*
X182815170Y-196593328D02*
X182815170Y-195807614D01*
X182815170Y-195807614D02*
X182743741Y-195664757D01*
X182743741Y-195664757D02*
X182600884Y-195593328D01*
X182600884Y-195593328D02*
X182315170Y-195593328D01*
X182315170Y-195593328D02*
X182172312Y-195664757D01*
X182815170Y-196521900D02*
X182672312Y-196593328D01*
X182672312Y-196593328D02*
X182315170Y-196593328D01*
X182315170Y-196593328D02*
X182172312Y-196521900D01*
X182172312Y-196521900D02*
X182100884Y-196379042D01*
X182100884Y-196379042D02*
X182100884Y-196236185D01*
X182100884Y-196236185D02*
X182172312Y-196093328D01*
X182172312Y-196093328D02*
X182315170Y-196021900D01*
X182315170Y-196021900D02*
X182672312Y-196021900D01*
X182672312Y-196021900D02*
X182815170Y-195950471D01*
X184172313Y-196593328D02*
X184172313Y-195093328D01*
X184172313Y-196521900D02*
X184029455Y-196593328D01*
X184029455Y-196593328D02*
X183743741Y-196593328D01*
X183743741Y-196593328D02*
X183600884Y-196521900D01*
X183600884Y-196521900D02*
X183529455Y-196450471D01*
X183529455Y-196450471D02*
X183458027Y-196307614D01*
X183458027Y-196307614D02*
X183458027Y-195879042D01*
X183458027Y-195879042D02*
X183529455Y-195736185D01*
X183529455Y-195736185D02*
X183600884Y-195664757D01*
X183600884Y-195664757D02*
X183743741Y-195593328D01*
X183743741Y-195593328D02*
X184029455Y-195593328D01*
X184029455Y-195593328D02*
X184172313Y-195664757D01*
X186029455Y-195807614D02*
X186529455Y-195807614D01*
X186743741Y-196593328D02*
X186029455Y-196593328D01*
X186029455Y-196593328D02*
X186029455Y-195093328D01*
X186029455Y-195093328D02*
X186743741Y-195093328D01*
X187386598Y-196450471D02*
X187458027Y-196521900D01*
X187458027Y-196521900D02*
X187386598Y-196593328D01*
X187386598Y-196593328D02*
X187315170Y-196521900D01*
X187315170Y-196521900D02*
X187386598Y-196450471D01*
X187386598Y-196450471D02*
X187386598Y-196593328D01*
X188100884Y-196593328D02*
X188100884Y-195093328D01*
X188100884Y-195093328D02*
X188458027Y-195093328D01*
X188458027Y-195093328D02*
X188672313Y-195164757D01*
X188672313Y-195164757D02*
X188815170Y-195307614D01*
X188815170Y-195307614D02*
X188886599Y-195450471D01*
X188886599Y-195450471D02*
X188958027Y-195736185D01*
X188958027Y-195736185D02*
X188958027Y-195950471D01*
X188958027Y-195950471D02*
X188886599Y-196236185D01*
X188886599Y-196236185D02*
X188815170Y-196379042D01*
X188815170Y-196379042D02*
X188672313Y-196521900D01*
X188672313Y-196521900D02*
X188458027Y-196593328D01*
X188458027Y-196593328D02*
X188100884Y-196593328D01*
X189600884Y-196450471D02*
X189672313Y-196521900D01*
X189672313Y-196521900D02*
X189600884Y-196593328D01*
X189600884Y-196593328D02*
X189529456Y-196521900D01*
X189529456Y-196521900D02*
X189600884Y-196450471D01*
X189600884Y-196450471D02*
X189600884Y-196593328D01*
X190243742Y-196164757D02*
X190958028Y-196164757D01*
X190100885Y-196593328D02*
X190600885Y-195093328D01*
X190600885Y-195093328D02*
X191100885Y-196593328D01*
X191600884Y-196450471D02*
X191672313Y-196521900D01*
X191672313Y-196521900D02*
X191600884Y-196593328D01*
X191600884Y-196593328D02*
X191529456Y-196521900D01*
X191529456Y-196521900D02*
X191600884Y-196450471D01*
X191600884Y-196450471D02*
X191600884Y-196593328D01*
X193529456Y-196593328D02*
X193815170Y-196593328D01*
X193815170Y-196593328D02*
X193958027Y-196521900D01*
X193958027Y-196521900D02*
X194029456Y-196450471D01*
X194029456Y-196450471D02*
X194172313Y-196236185D01*
X194172313Y-196236185D02*
X194243742Y-195950471D01*
X194243742Y-195950471D02*
X194243742Y-195379042D01*
X194243742Y-195379042D02*
X194172313Y-195236185D01*
X194172313Y-195236185D02*
X194100885Y-195164757D01*
X194100885Y-195164757D02*
X193958027Y-195093328D01*
X193958027Y-195093328D02*
X193672313Y-195093328D01*
X193672313Y-195093328D02*
X193529456Y-195164757D01*
X193529456Y-195164757D02*
X193458027Y-195236185D01*
X193458027Y-195236185D02*
X193386599Y-195379042D01*
X193386599Y-195379042D02*
X193386599Y-195736185D01*
X193386599Y-195736185D02*
X193458027Y-195879042D01*
X193458027Y-195879042D02*
X193529456Y-195950471D01*
X193529456Y-195950471D02*
X193672313Y-196021900D01*
X193672313Y-196021900D02*
X193958027Y-196021900D01*
X193958027Y-196021900D02*
X194100885Y-195950471D01*
X194100885Y-195950471D02*
X194172313Y-195879042D01*
X194172313Y-195879042D02*
X194243742Y-195736185D01*
X194886598Y-196450471D02*
X194958027Y-196521900D01*
X194958027Y-196521900D02*
X194886598Y-196593328D01*
X194886598Y-196593328D02*
X194815170Y-196521900D01*
X194815170Y-196521900D02*
X194886598Y-196450471D01*
X194886598Y-196450471D02*
X194886598Y-196593328D01*
X195886599Y-195093328D02*
X196029456Y-195093328D01*
X196029456Y-195093328D02*
X196172313Y-195164757D01*
X196172313Y-195164757D02*
X196243742Y-195236185D01*
X196243742Y-195236185D02*
X196315170Y-195379042D01*
X196315170Y-195379042D02*
X196386599Y-195664757D01*
X196386599Y-195664757D02*
X196386599Y-196021900D01*
X196386599Y-196021900D02*
X196315170Y-196307614D01*
X196315170Y-196307614D02*
X196243742Y-196450471D01*
X196243742Y-196450471D02*
X196172313Y-196521900D01*
X196172313Y-196521900D02*
X196029456Y-196593328D01*
X196029456Y-196593328D02*
X195886599Y-196593328D01*
X195886599Y-196593328D02*
X195743742Y-196521900D01*
X195743742Y-196521900D02*
X195672313Y-196450471D01*
X195672313Y-196450471D02*
X195600884Y-196307614D01*
X195600884Y-196307614D02*
X195529456Y-196021900D01*
X195529456Y-196021900D02*
X195529456Y-195664757D01*
X195529456Y-195664757D02*
X195600884Y-195379042D01*
X195600884Y-195379042D02*
X195672313Y-195236185D01*
X195672313Y-195236185D02*
X195743742Y-195164757D01*
X195743742Y-195164757D02*
X195886599Y-195093328D01*
X197029455Y-196450471D02*
X197100884Y-196521900D01*
X197100884Y-196521900D02*
X197029455Y-196593328D01*
X197029455Y-196593328D02*
X196958027Y-196521900D01*
X196958027Y-196521900D02*
X197029455Y-196450471D01*
X197029455Y-196450471D02*
X197029455Y-196593328D01*
X197600884Y-195093328D02*
X198600884Y-195093328D01*
X198600884Y-195093328D02*
X197958027Y-196593328D01*
D10*
D11*
X177002200Y-191507200D02*
X285002200Y-191507200D01*
D10*
D12*
X264413853Y-193785528D02*
X263913853Y-193071242D01*
X263556710Y-193785528D02*
X263556710Y-192285528D01*
X263556710Y-192285528D02*
X264128139Y-192285528D01*
X264128139Y-192285528D02*
X264270996Y-192356957D01*
X264270996Y-192356957D02*
X264342425Y-192428385D01*
X264342425Y-192428385D02*
X264413853Y-192571242D01*
X264413853Y-192571242D02*
X264413853Y-192785528D01*
X264413853Y-192785528D02*
X264342425Y-192928385D01*
X264342425Y-192928385D02*
X264270996Y-192999814D01*
X264270996Y-192999814D02*
X264128139Y-193071242D01*
X264128139Y-193071242D02*
X263556710Y-193071242D01*
X265628139Y-193714100D02*
X265485282Y-193785528D01*
X265485282Y-193785528D02*
X265199568Y-193785528D01*
X265199568Y-193785528D02*
X265056710Y-193714100D01*
X265056710Y-193714100D02*
X264985282Y-193571242D01*
X264985282Y-193571242D02*
X264985282Y-192999814D01*
X264985282Y-192999814D02*
X265056710Y-192856957D01*
X265056710Y-192856957D02*
X265199568Y-192785528D01*
X265199568Y-192785528D02*
X265485282Y-192785528D01*
X265485282Y-192785528D02*
X265628139Y-192856957D01*
X265628139Y-192856957D02*
X265699568Y-192999814D01*
X265699568Y-192999814D02*
X265699568Y-193142671D01*
X265699568Y-193142671D02*
X264985282Y-193285528D01*
X266199567Y-192785528D02*
X266556710Y-193785528D01*
X266556710Y-193785528D02*
X266913853Y-192785528D01*
X267485281Y-193642671D02*
X267556710Y-193714100D01*
X267556710Y-193714100D02*
X267485281Y-193785528D01*
X267485281Y-193785528D02*
X267413853Y-193714100D01*
X267413853Y-193714100D02*
X267485281Y-193642671D01*
X267485281Y-193642671D02*
X267485281Y-193785528D01*
X267485281Y-192856957D02*
X267556710Y-192928385D01*
X267556710Y-192928385D02*
X267485281Y-192999814D01*
X267485281Y-192999814D02*
X267413853Y-192928385D01*
X267413853Y-192928385D02*
X267485281Y-192856957D01*
X267485281Y-192856957D02*
X267485281Y-192999814D01*
D10*
D11*
X178386598Y-193721900D02*
X178600884Y-193793328D01*
X178600884Y-193793328D02*
X178958026Y-193793328D01*
X178958026Y-193793328D02*
X179100884Y-193721900D01*
X179100884Y-193721900D02*
X179172312Y-193650471D01*
X179172312Y-193650471D02*
X179243741Y-193507614D01*
X179243741Y-193507614D02*
X179243741Y-193364757D01*
X179243741Y-193364757D02*
X179172312Y-193221900D01*
X179172312Y-193221900D02*
X179100884Y-193150471D01*
X179100884Y-193150471D02*
X178958026Y-193079042D01*
X178958026Y-193079042D02*
X178672312Y-193007614D01*
X178672312Y-193007614D02*
X178529455Y-192936185D01*
X178529455Y-192936185D02*
X178458026Y-192864757D01*
X178458026Y-192864757D02*
X178386598Y-192721900D01*
X178386598Y-192721900D02*
X178386598Y-192579042D01*
X178386598Y-192579042D02*
X178458026Y-192436185D01*
X178458026Y-192436185D02*
X178529455Y-192364757D01*
X178529455Y-192364757D02*
X178672312Y-192293328D01*
X178672312Y-192293328D02*
X179029455Y-192293328D01*
X179029455Y-192293328D02*
X179243741Y-192364757D01*
X179886597Y-193793328D02*
X179886597Y-192793328D01*
X179886597Y-192293328D02*
X179815169Y-192364757D01*
X179815169Y-192364757D02*
X179886597Y-192436185D01*
X179886597Y-192436185D02*
X179958026Y-192364757D01*
X179958026Y-192364757D02*
X179886597Y-192293328D01*
X179886597Y-192293328D02*
X179886597Y-192436185D01*
X180458026Y-192793328D02*
X181243741Y-192793328D01*
X181243741Y-192793328D02*
X180458026Y-193793328D01*
X180458026Y-193793328D02*
X181243741Y-193793328D01*
X182386598Y-193721900D02*
X182243741Y-193793328D01*
X182243741Y-193793328D02*
X181958027Y-193793328D01*
X181958027Y-193793328D02*
X181815169Y-193721900D01*
X181815169Y-193721900D02*
X181743741Y-193579042D01*
X181743741Y-193579042D02*
X181743741Y-193007614D01*
X181743741Y-193007614D02*
X181815169Y-192864757D01*
X181815169Y-192864757D02*
X181958027Y-192793328D01*
X181958027Y-192793328D02*
X182243741Y-192793328D01*
X182243741Y-192793328D02*
X182386598Y-192864757D01*
X182386598Y-192864757D02*
X182458027Y-193007614D01*
X182458027Y-193007614D02*
X182458027Y-193150471D01*
X182458027Y-193150471D02*
X181743741Y-193293328D01*
X183100883Y-193650471D02*
X183172312Y-193721900D01*
X183172312Y-193721900D02*
X183100883Y-193793328D01*
X183100883Y-193793328D02*
X183029455Y-193721900D01*
X183029455Y-193721900D02*
X183100883Y-193650471D01*
X183100883Y-193650471D02*
X183100883Y-193793328D01*
X183100883Y-192864757D02*
X183172312Y-192936185D01*
X183172312Y-192936185D02*
X183100883Y-193007614D01*
X183100883Y-193007614D02*
X183029455Y-192936185D01*
X183029455Y-192936185D02*
X183100883Y-192864757D01*
X183100883Y-192864757D02*
X183100883Y-193007614D01*
X184886598Y-193364757D02*
X185600884Y-193364757D01*
X184743741Y-193793328D02*
X185243741Y-192293328D01*
X185243741Y-192293328D02*
X185743741Y-193793328D01*
X186886598Y-192793328D02*
X186886598Y-193793328D01*
X186529455Y-192221900D02*
X186172312Y-193293328D01*
X186172312Y-193293328D02*
X187100883Y-193293328D01*
D10*
D11*
X263458026Y-196593328D02*
X263458026Y-195093328D01*
X264815170Y-196593328D02*
X264815170Y-195093328D01*
X264815170Y-196521900D02*
X264672312Y-196593328D01*
X264672312Y-196593328D02*
X264386598Y-196593328D01*
X264386598Y-196593328D02*
X264243741Y-196521900D01*
X264243741Y-196521900D02*
X264172312Y-196450471D01*
X264172312Y-196450471D02*
X264100884Y-196307614D01*
X264100884Y-196307614D02*
X264100884Y-195879042D01*
X264100884Y-195879042D02*
X264172312Y-195736185D01*
X264172312Y-195736185D02*
X264243741Y-195664757D01*
X264243741Y-195664757D02*
X264386598Y-195593328D01*
X264386598Y-195593328D02*
X264672312Y-195593328D01*
X264672312Y-195593328D02*
X264815170Y-195664757D01*
X265529455Y-196450471D02*
X265600884Y-196521900D01*
X265600884Y-196521900D02*
X265529455Y-196593328D01*
X265529455Y-196593328D02*
X265458027Y-196521900D01*
X265458027Y-196521900D02*
X265529455Y-196450471D01*
X265529455Y-196450471D02*
X265529455Y-196593328D01*
X265529455Y-195664757D02*
X265600884Y-195736185D01*
X265600884Y-195736185D02*
X265529455Y-195807614D01*
X265529455Y-195807614D02*
X265458027Y-195736185D01*
X265458027Y-195736185D02*
X265529455Y-195664757D01*
X265529455Y-195664757D02*
X265529455Y-195807614D01*
X267243741Y-195093328D02*
X268243741Y-195093328D01*
X268243741Y-195093328D02*
X267600884Y-196593328D01*
X269886598Y-195021900D02*
X268600884Y-196950471D01*
X271172313Y-196593328D02*
X270315170Y-196593328D01*
X270743741Y-196593328D02*
X270743741Y-195093328D01*
X270743741Y-195093328D02*
X270600884Y-195307614D01*
X270600884Y-195307614D02*
X270458027Y-195450471D01*
X270458027Y-195450471D02*
X270315170Y-195521900D01*
X272600884Y-196593328D02*
X271743741Y-196593328D01*
X272172312Y-196593328D02*
X272172312Y-195093328D01*
X272172312Y-195093328D02*
X272029455Y-195307614D01*
X272029455Y-195307614D02*
X271886598Y-195450471D01*
X271886598Y-195450471D02*
X271743741Y-195521900D01*
D10*
D11*
X177002200Y-187507200D02*
X285002200Y-187507200D01*
D10*
D13*
X178693928Y-188211638D02*
X179836785Y-188211638D01*
X179015357Y-190211638D02*
X179265357Y-188211638D01*
X180253452Y-190211638D02*
X180420119Y-188878304D01*
X180503452Y-188211638D02*
X180396309Y-188306876D01*
X180396309Y-188306876D02*
X180479643Y-188402114D01*
X180479643Y-188402114D02*
X180586786Y-188306876D01*
X180586786Y-188306876D02*
X180503452Y-188211638D01*
X180503452Y-188211638D02*
X180479643Y-188402114D01*
X181086786Y-188878304D02*
X181848690Y-188878304D01*
X181455833Y-188211638D02*
X181241548Y-189925923D01*
X181241548Y-189925923D02*
X181312976Y-190116400D01*
X181312976Y-190116400D02*
X181491548Y-190211638D01*
X181491548Y-190211638D02*
X181682024Y-190211638D01*
X182634405Y-190211638D02*
X182455833Y-190116400D01*
X182455833Y-190116400D02*
X182384405Y-189925923D01*
X182384405Y-189925923D02*
X182598690Y-188211638D01*
X184170119Y-190116400D02*
X183967738Y-190211638D01*
X183967738Y-190211638D02*
X183586785Y-190211638D01*
X183586785Y-190211638D02*
X183408214Y-190116400D01*
X183408214Y-190116400D02*
X183336785Y-189925923D01*
X183336785Y-189925923D02*
X183432024Y-189164019D01*
X183432024Y-189164019D02*
X183551071Y-188973542D01*
X183551071Y-188973542D02*
X183753452Y-188878304D01*
X183753452Y-188878304D02*
X184134404Y-188878304D01*
X184134404Y-188878304D02*
X184312976Y-188973542D01*
X184312976Y-188973542D02*
X184384404Y-189164019D01*
X184384404Y-189164019D02*
X184360595Y-189354495D01*
X184360595Y-189354495D02*
X183384404Y-189544971D01*
X185134405Y-190021161D02*
X185217738Y-190116400D01*
X185217738Y-190116400D02*
X185110595Y-190211638D01*
X185110595Y-190211638D02*
X185027262Y-190116400D01*
X185027262Y-190116400D02*
X185134405Y-190021161D01*
X185134405Y-190021161D02*
X185110595Y-190211638D01*
X185265357Y-188973542D02*
X185348690Y-189068780D01*
X185348690Y-189068780D02*
X185241548Y-189164019D01*
X185241548Y-189164019D02*
X185158214Y-189068780D01*
X185158214Y-189068780D02*
X185265357Y-188973542D01*
X185265357Y-188973542D02*
X185241548Y-189164019D01*
D10*
D11*
X178958026Y-185607614D02*
X178458026Y-185607614D01*
X178458026Y-186393328D02*
X178458026Y-184893328D01*
X178458026Y-184893328D02*
X179172312Y-184893328D01*
X179743740Y-186393328D02*
X179743740Y-185393328D01*
X179743740Y-184893328D02*
X179672312Y-184964757D01*
X179672312Y-184964757D02*
X179743740Y-185036185D01*
X179743740Y-185036185D02*
X179815169Y-184964757D01*
X179815169Y-184964757D02*
X179743740Y-184893328D01*
X179743740Y-184893328D02*
X179743740Y-185036185D01*
X180672312Y-186393328D02*
X180529455Y-186321900D01*
X180529455Y-186321900D02*
X180458026Y-186179042D01*
X180458026Y-186179042D02*
X180458026Y-184893328D01*
X181815169Y-186321900D02*
X181672312Y-186393328D01*
X181672312Y-186393328D02*
X181386598Y-186393328D01*
X181386598Y-186393328D02*
X181243740Y-186321900D01*
X181243740Y-186321900D02*
X181172312Y-186179042D01*
X181172312Y-186179042D02*
X181172312Y-185607614D01*
X181172312Y-185607614D02*
X181243740Y-185464757D01*
X181243740Y-185464757D02*
X181386598Y-185393328D01*
X181386598Y-185393328D02*
X181672312Y-185393328D01*
X181672312Y-185393328D02*
X181815169Y-185464757D01*
X181815169Y-185464757D02*
X181886598Y-185607614D01*
X181886598Y-185607614D02*
X181886598Y-185750471D01*
X181886598Y-185750471D02*
X181172312Y-185893328D01*
X182529454Y-186250471D02*
X182600883Y-186321900D01*
X182600883Y-186321900D02*
X182529454Y-186393328D01*
X182529454Y-186393328D02*
X182458026Y-186321900D01*
X182458026Y-186321900D02*
X182529454Y-186250471D01*
X182529454Y-186250471D02*
X182529454Y-186393328D01*
X182529454Y-185464757D02*
X182600883Y-185536185D01*
X182600883Y-185536185D02*
X182529454Y-185607614D01*
X182529454Y-185607614D02*
X182458026Y-185536185D01*
X182458026Y-185536185D02*
X182529454Y-185464757D01*
X182529454Y-185464757D02*
X182529454Y-185607614D01*
X184315169Y-186321900D02*
X184529455Y-186393328D01*
X184529455Y-186393328D02*
X184886597Y-186393328D01*
X184886597Y-186393328D02*
X185029455Y-186321900D01*
X185029455Y-186321900D02*
X185100883Y-186250471D01*
X185100883Y-186250471D02*
X185172312Y-186107614D01*
X185172312Y-186107614D02*
X185172312Y-185964757D01*
X185172312Y-185964757D02*
X185100883Y-185821900D01*
X185100883Y-185821900D02*
X185029455Y-185750471D01*
X185029455Y-185750471D02*
X184886597Y-185679042D01*
X184886597Y-185679042D02*
X184600883Y-185607614D01*
X184600883Y-185607614D02*
X184458026Y-185536185D01*
X184458026Y-185536185D02*
X184386597Y-185464757D01*
X184386597Y-185464757D02*
X184315169Y-185321900D01*
X184315169Y-185321900D02*
X184315169Y-185179042D01*
X184315169Y-185179042D02*
X184386597Y-185036185D01*
X184386597Y-185036185D02*
X184458026Y-184964757D01*
X184458026Y-184964757D02*
X184600883Y-184893328D01*
X184600883Y-184893328D02*
X184958026Y-184893328D01*
X184958026Y-184893328D02*
X185172312Y-184964757D01*
X186386597Y-186321900D02*
X186243740Y-186393328D01*
X186243740Y-186393328D02*
X185958026Y-186393328D01*
X185958026Y-186393328D02*
X185815168Y-186321900D01*
X185815168Y-186321900D02*
X185743740Y-186179042D01*
X185743740Y-186179042D02*
X185743740Y-185607614D01*
X185743740Y-185607614D02*
X185815168Y-185464757D01*
X185815168Y-185464757D02*
X185958026Y-185393328D01*
X185958026Y-185393328D02*
X186243740Y-185393328D01*
X186243740Y-185393328D02*
X186386597Y-185464757D01*
X186386597Y-185464757D02*
X186458026Y-185607614D01*
X186458026Y-185607614D02*
X186458026Y-185750471D01*
X186458026Y-185750471D02*
X185743740Y-185893328D01*
X187100882Y-185393328D02*
X187100882Y-186393328D01*
X187100882Y-185536185D02*
X187172311Y-185464757D01*
X187172311Y-185464757D02*
X187315168Y-185393328D01*
X187315168Y-185393328D02*
X187529454Y-185393328D01*
X187529454Y-185393328D02*
X187672311Y-185464757D01*
X187672311Y-185464757D02*
X187743740Y-185607614D01*
X187743740Y-185607614D02*
X187743740Y-186393328D01*
X188386597Y-186321900D02*
X188529454Y-186393328D01*
X188529454Y-186393328D02*
X188815168Y-186393328D01*
X188815168Y-186393328D02*
X188958025Y-186321900D01*
X188958025Y-186321900D02*
X189029454Y-186179042D01*
X189029454Y-186179042D02*
X189029454Y-186107614D01*
X189029454Y-186107614D02*
X188958025Y-185964757D01*
X188958025Y-185964757D02*
X188815168Y-185893328D01*
X188815168Y-185893328D02*
X188600883Y-185893328D01*
X188600883Y-185893328D02*
X188458025Y-185821900D01*
X188458025Y-185821900D02*
X188386597Y-185679042D01*
X188386597Y-185679042D02*
X188386597Y-185607614D01*
X188386597Y-185607614D02*
X188458025Y-185464757D01*
X188458025Y-185464757D02*
X188600883Y-185393328D01*
X188600883Y-185393328D02*
X188815168Y-185393328D01*
X188815168Y-185393328D02*
X188958025Y-185464757D01*
X189886597Y-186393328D02*
X189743740Y-186321900D01*
X189743740Y-186321900D02*
X189672311Y-186250471D01*
X189672311Y-186250471D02*
X189600883Y-186107614D01*
X189600883Y-186107614D02*
X189600883Y-185679042D01*
X189600883Y-185679042D02*
X189672311Y-185536185D01*
X189672311Y-185536185D02*
X189743740Y-185464757D01*
X189743740Y-185464757D02*
X189886597Y-185393328D01*
X189886597Y-185393328D02*
X190100883Y-185393328D01*
X190100883Y-185393328D02*
X190243740Y-185464757D01*
X190243740Y-185464757D02*
X190315169Y-185536185D01*
X190315169Y-185536185D02*
X190386597Y-185679042D01*
X190386597Y-185679042D02*
X190386597Y-186107614D01*
X190386597Y-186107614D02*
X190315169Y-186250471D01*
X190315169Y-186250471D02*
X190243740Y-186321900D01*
X190243740Y-186321900D02*
X190100883Y-186393328D01*
X190100883Y-186393328D02*
X189886597Y-186393328D01*
X191029454Y-186393328D02*
X191029454Y-185393328D01*
X191029454Y-185679042D02*
X191100883Y-185536185D01*
X191100883Y-185536185D02*
X191172312Y-185464757D01*
X191172312Y-185464757D02*
X191315169Y-185393328D01*
X191315169Y-185393328D02*
X191458026Y-185393328D01*
X193958025Y-186250471D02*
X193886597Y-186321900D01*
X193886597Y-186321900D02*
X193672311Y-186393328D01*
X193672311Y-186393328D02*
X193529454Y-186393328D01*
X193529454Y-186393328D02*
X193315168Y-186321900D01*
X193315168Y-186321900D02*
X193172311Y-186179042D01*
X193172311Y-186179042D02*
X193100882Y-186036185D01*
X193100882Y-186036185D02*
X193029454Y-185750471D01*
X193029454Y-185750471D02*
X193029454Y-185536185D01*
X193029454Y-185536185D02*
X193100882Y-185250471D01*
X193100882Y-185250471D02*
X193172311Y-185107614D01*
X193172311Y-185107614D02*
X193315168Y-184964757D01*
X193315168Y-184964757D02*
X193529454Y-184893328D01*
X193529454Y-184893328D02*
X193672311Y-184893328D01*
X193672311Y-184893328D02*
X193886597Y-184964757D01*
X193886597Y-184964757D02*
X193958025Y-185036185D01*
X195172311Y-186321900D02*
X195029454Y-186393328D01*
X195029454Y-186393328D02*
X194743740Y-186393328D01*
X194743740Y-186393328D02*
X194600882Y-186321900D01*
X194600882Y-186321900D02*
X194529454Y-186179042D01*
X194529454Y-186179042D02*
X194529454Y-185607614D01*
X194529454Y-185607614D02*
X194600882Y-185464757D01*
X194600882Y-185464757D02*
X194743740Y-185393328D01*
X194743740Y-185393328D02*
X195029454Y-185393328D01*
X195029454Y-185393328D02*
X195172311Y-185464757D01*
X195172311Y-185464757D02*
X195243740Y-185607614D01*
X195243740Y-185607614D02*
X195243740Y-185750471D01*
X195243740Y-185750471D02*
X194529454Y-185893328D01*
X196100882Y-186393328D02*
X195958025Y-186321900D01*
X195958025Y-186321900D02*
X195886596Y-186179042D01*
X195886596Y-186179042D02*
X195886596Y-184893328D01*
X196886596Y-186393328D02*
X196743739Y-186321900D01*
X196743739Y-186321900D02*
X196672310Y-186179042D01*
X196672310Y-186179042D02*
X196672310Y-184893328D01*
X198458024Y-185393328D02*
X198743739Y-186393328D01*
X198743739Y-186393328D02*
X199029453Y-185679042D01*
X199029453Y-185679042D02*
X199315167Y-186393328D01*
X199315167Y-186393328D02*
X199600881Y-185393328D01*
X200172310Y-186393328D02*
X200172310Y-185393328D01*
X200172310Y-184893328D02*
X200100882Y-184964757D01*
X200100882Y-184964757D02*
X200172310Y-185036185D01*
X200172310Y-185036185D02*
X200243739Y-184964757D01*
X200243739Y-184964757D02*
X200172310Y-184893328D01*
X200172310Y-184893328D02*
X200172310Y-185036185D01*
X200672311Y-185393328D02*
X201243739Y-185393328D01*
X200886596Y-184893328D02*
X200886596Y-186179042D01*
X200886596Y-186179042D02*
X200958025Y-186321900D01*
X200958025Y-186321900D02*
X201100882Y-186393328D01*
X201100882Y-186393328D02*
X201243739Y-186393328D01*
X201743739Y-186393328D02*
X201743739Y-184893328D01*
X202386597Y-186393328D02*
X202386597Y-185607614D01*
X202386597Y-185607614D02*
X202315168Y-185464757D01*
X202315168Y-185464757D02*
X202172311Y-185393328D01*
X202172311Y-185393328D02*
X201958025Y-185393328D01*
X201958025Y-185393328D02*
X201815168Y-185464757D01*
X201815168Y-185464757D02*
X201743739Y-185536185D01*
X205100882Y-186250471D02*
X205029454Y-186321900D01*
X205029454Y-186321900D02*
X204815168Y-186393328D01*
X204815168Y-186393328D02*
X204672311Y-186393328D01*
X204672311Y-186393328D02*
X204458025Y-186321900D01*
X204458025Y-186321900D02*
X204315168Y-186179042D01*
X204315168Y-186179042D02*
X204243739Y-186036185D01*
X204243739Y-186036185D02*
X204172311Y-185750471D01*
X204172311Y-185750471D02*
X204172311Y-185536185D01*
X204172311Y-185536185D02*
X204243739Y-185250471D01*
X204243739Y-185250471D02*
X204315168Y-185107614D01*
X204315168Y-185107614D02*
X204458025Y-184964757D01*
X204458025Y-184964757D02*
X204672311Y-184893328D01*
X204672311Y-184893328D02*
X204815168Y-184893328D01*
X204815168Y-184893328D02*
X205029454Y-184964757D01*
X205029454Y-184964757D02*
X205100882Y-185036185D01*
X205958025Y-186393328D02*
X205815168Y-186321900D01*
X205815168Y-186321900D02*
X205743739Y-186250471D01*
X205743739Y-186250471D02*
X205672311Y-186107614D01*
X205672311Y-186107614D02*
X205672311Y-185679042D01*
X205672311Y-185679042D02*
X205743739Y-185536185D01*
X205743739Y-185536185D02*
X205815168Y-185464757D01*
X205815168Y-185464757D02*
X205958025Y-185393328D01*
X205958025Y-185393328D02*
X206172311Y-185393328D01*
X206172311Y-185393328D02*
X206315168Y-185464757D01*
X206315168Y-185464757D02*
X206386597Y-185536185D01*
X206386597Y-185536185D02*
X206458025Y-185679042D01*
X206458025Y-185679042D02*
X206458025Y-186107614D01*
X206458025Y-186107614D02*
X206386597Y-186250471D01*
X206386597Y-186250471D02*
X206315168Y-186321900D01*
X206315168Y-186321900D02*
X206172311Y-186393328D01*
X206172311Y-186393328D02*
X205958025Y-186393328D01*
X207100882Y-186393328D02*
X207100882Y-185393328D01*
X207100882Y-185536185D02*
X207172311Y-185464757D01*
X207172311Y-185464757D02*
X207315168Y-185393328D01*
X207315168Y-185393328D02*
X207529454Y-185393328D01*
X207529454Y-185393328D02*
X207672311Y-185464757D01*
X207672311Y-185464757D02*
X207743740Y-185607614D01*
X207743740Y-185607614D02*
X207743740Y-186393328D01*
X207743740Y-185607614D02*
X207815168Y-185464757D01*
X207815168Y-185464757D02*
X207958025Y-185393328D01*
X207958025Y-185393328D02*
X208172311Y-185393328D01*
X208172311Y-185393328D02*
X208315168Y-185464757D01*
X208315168Y-185464757D02*
X208386597Y-185607614D01*
X208386597Y-185607614D02*
X208386597Y-186393328D01*
X209100882Y-186393328D02*
X209100882Y-185393328D01*
X209100882Y-185536185D02*
X209172311Y-185464757D01*
X209172311Y-185464757D02*
X209315168Y-185393328D01*
X209315168Y-185393328D02*
X209529454Y-185393328D01*
X209529454Y-185393328D02*
X209672311Y-185464757D01*
X209672311Y-185464757D02*
X209743740Y-185607614D01*
X209743740Y-185607614D02*
X209743740Y-186393328D01*
X209743740Y-185607614D02*
X209815168Y-185464757D01*
X209815168Y-185464757D02*
X209958025Y-185393328D01*
X209958025Y-185393328D02*
X210172311Y-185393328D01*
X210172311Y-185393328D02*
X210315168Y-185464757D01*
X210315168Y-185464757D02*
X210386597Y-185607614D01*
X210386597Y-185607614D02*
X210386597Y-186393328D01*
X211029454Y-186321900D02*
X211172311Y-186393328D01*
X211172311Y-186393328D02*
X211458025Y-186393328D01*
X211458025Y-186393328D02*
X211600882Y-186321900D01*
X211600882Y-186321900D02*
X211672311Y-186179042D01*
X211672311Y-186179042D02*
X211672311Y-186107614D01*
X211672311Y-186107614D02*
X211600882Y-185964757D01*
X211600882Y-185964757D02*
X211458025Y-185893328D01*
X211458025Y-185893328D02*
X211243740Y-185893328D01*
X211243740Y-185893328D02*
X211100882Y-185821900D01*
X211100882Y-185821900D02*
X211029454Y-185679042D01*
X211029454Y-185679042D02*
X211029454Y-185607614D01*
X211029454Y-185607614D02*
X211100882Y-185464757D01*
X211100882Y-185464757D02*
X211243740Y-185393328D01*
X211243740Y-185393328D02*
X211458025Y-185393328D01*
X211458025Y-185393328D02*
X211600882Y-185464757D01*
X212315168Y-186250471D02*
X212386597Y-186321900D01*
X212386597Y-186321900D02*
X212315168Y-186393328D01*
X212315168Y-186393328D02*
X212243740Y-186321900D01*
X212243740Y-186321900D02*
X212315168Y-186250471D01*
X212315168Y-186250471D02*
X212315168Y-186393328D01*
X213029454Y-186393328D02*
X213029454Y-184893328D01*
X213172312Y-185821900D02*
X213600883Y-186393328D01*
X213600883Y-185393328D02*
X213029454Y-185964757D01*
X214243740Y-186393328D02*
X214243740Y-185393328D01*
X214243740Y-184893328D02*
X214172312Y-184964757D01*
X214172312Y-184964757D02*
X214243740Y-185036185D01*
X214243740Y-185036185D02*
X214315169Y-184964757D01*
X214315169Y-184964757D02*
X214243740Y-184893328D01*
X214243740Y-184893328D02*
X214243740Y-185036185D01*
X215600884Y-186321900D02*
X215458026Y-186393328D01*
X215458026Y-186393328D02*
X215172312Y-186393328D01*
X215172312Y-186393328D02*
X215029455Y-186321900D01*
X215029455Y-186321900D02*
X214958026Y-186250471D01*
X214958026Y-186250471D02*
X214886598Y-186107614D01*
X214886598Y-186107614D02*
X214886598Y-185679042D01*
X214886598Y-185679042D02*
X214958026Y-185536185D01*
X214958026Y-185536185D02*
X215029455Y-185464757D01*
X215029455Y-185464757D02*
X215172312Y-185393328D01*
X215172312Y-185393328D02*
X215458026Y-185393328D01*
X215458026Y-185393328D02*
X215600884Y-185464757D01*
X216886598Y-186393328D02*
X216886598Y-185607614D01*
X216886598Y-185607614D02*
X216815169Y-185464757D01*
X216815169Y-185464757D02*
X216672312Y-185393328D01*
X216672312Y-185393328D02*
X216386598Y-185393328D01*
X216386598Y-185393328D02*
X216243740Y-185464757D01*
X216886598Y-186321900D02*
X216743740Y-186393328D01*
X216743740Y-186393328D02*
X216386598Y-186393328D01*
X216386598Y-186393328D02*
X216243740Y-186321900D01*
X216243740Y-186321900D02*
X216172312Y-186179042D01*
X216172312Y-186179042D02*
X216172312Y-186036185D01*
X216172312Y-186036185D02*
X216243740Y-185893328D01*
X216243740Y-185893328D02*
X216386598Y-185821900D01*
X216386598Y-185821900D02*
X216743740Y-185821900D01*
X216743740Y-185821900D02*
X216886598Y-185750471D01*
X218243741Y-186393328D02*
X218243741Y-184893328D01*
X218243741Y-186321900D02*
X218100883Y-186393328D01*
X218100883Y-186393328D02*
X217815169Y-186393328D01*
X217815169Y-186393328D02*
X217672312Y-186321900D01*
X217672312Y-186321900D02*
X217600883Y-186250471D01*
X217600883Y-186250471D02*
X217529455Y-186107614D01*
X217529455Y-186107614D02*
X217529455Y-185679042D01*
X217529455Y-185679042D02*
X217600883Y-185536185D01*
X217600883Y-185536185D02*
X217672312Y-185464757D01*
X217672312Y-185464757D02*
X217815169Y-185393328D01*
X217815169Y-185393328D02*
X218100883Y-185393328D01*
X218100883Y-185393328D02*
X218243741Y-185464757D01*
X218600884Y-186536185D02*
X219743741Y-186536185D01*
X220100883Y-185393328D02*
X220100883Y-186893328D01*
X220100883Y-185464757D02*
X220243741Y-185393328D01*
X220243741Y-185393328D02*
X220529455Y-185393328D01*
X220529455Y-185393328D02*
X220672312Y-185464757D01*
X220672312Y-185464757D02*
X220743741Y-185536185D01*
X220743741Y-185536185D02*
X220815169Y-185679042D01*
X220815169Y-185679042D02*
X220815169Y-186107614D01*
X220815169Y-186107614D02*
X220743741Y-186250471D01*
X220743741Y-186250471D02*
X220672312Y-186321900D01*
X220672312Y-186321900D02*
X220529455Y-186393328D01*
X220529455Y-186393328D02*
X220243741Y-186393328D01*
X220243741Y-186393328D02*
X220100883Y-186321900D01*
X222100884Y-186321900D02*
X221958026Y-186393328D01*
X221958026Y-186393328D02*
X221672312Y-186393328D01*
X221672312Y-186393328D02*
X221529455Y-186321900D01*
X221529455Y-186321900D02*
X221458026Y-186250471D01*
X221458026Y-186250471D02*
X221386598Y-186107614D01*
X221386598Y-186107614D02*
X221386598Y-185679042D01*
X221386598Y-185679042D02*
X221458026Y-185536185D01*
X221458026Y-185536185D02*
X221529455Y-185464757D01*
X221529455Y-185464757D02*
X221672312Y-185393328D01*
X221672312Y-185393328D02*
X221958026Y-185393328D01*
X221958026Y-185393328D02*
X222100884Y-185464757D01*
X222743740Y-186393328D02*
X222743740Y-184893328D01*
X222743740Y-185464757D02*
X222886598Y-185393328D01*
X222886598Y-185393328D02*
X223172312Y-185393328D01*
X223172312Y-185393328D02*
X223315169Y-185464757D01*
X223315169Y-185464757D02*
X223386598Y-185536185D01*
X223386598Y-185536185D02*
X223458026Y-185679042D01*
X223458026Y-185679042D02*
X223458026Y-186107614D01*
X223458026Y-186107614D02*
X223386598Y-186250471D01*
X223386598Y-186250471D02*
X223315169Y-186321900D01*
X223315169Y-186321900D02*
X223172312Y-186393328D01*
X223172312Y-186393328D02*
X222886598Y-186393328D01*
X222886598Y-186393328D02*
X222743740Y-186321900D01*
D10*
D11*
X177002200Y-181507200D02*
X285002200Y-181507200D01*
D10*
D11*
X178386598Y-183621900D02*
X178600884Y-183693328D01*
X178600884Y-183693328D02*
X178958026Y-183693328D01*
X178958026Y-183693328D02*
X179100884Y-183621900D01*
X179100884Y-183621900D02*
X179172312Y-183550471D01*
X179172312Y-183550471D02*
X179243741Y-183407614D01*
X179243741Y-183407614D02*
X179243741Y-183264757D01*
X179243741Y-183264757D02*
X179172312Y-183121900D01*
X179172312Y-183121900D02*
X179100884Y-183050471D01*
X179100884Y-183050471D02*
X178958026Y-182979042D01*
X178958026Y-182979042D02*
X178672312Y-182907614D01*
X178672312Y-182907614D02*
X178529455Y-182836185D01*
X178529455Y-182836185D02*
X178458026Y-182764757D01*
X178458026Y-182764757D02*
X178386598Y-182621900D01*
X178386598Y-182621900D02*
X178386598Y-182479042D01*
X178386598Y-182479042D02*
X178458026Y-182336185D01*
X178458026Y-182336185D02*
X178529455Y-182264757D01*
X178529455Y-182264757D02*
X178672312Y-182193328D01*
X178672312Y-182193328D02*
X179029455Y-182193328D01*
X179029455Y-182193328D02*
X179243741Y-182264757D01*
X179886597Y-183693328D02*
X179886597Y-182193328D01*
X180529455Y-183693328D02*
X180529455Y-182907614D01*
X180529455Y-182907614D02*
X180458026Y-182764757D01*
X180458026Y-182764757D02*
X180315169Y-182693328D01*
X180315169Y-182693328D02*
X180100883Y-182693328D01*
X180100883Y-182693328D02*
X179958026Y-182764757D01*
X179958026Y-182764757D02*
X179886597Y-182836185D01*
X181815169Y-183621900D02*
X181672312Y-183693328D01*
X181672312Y-183693328D02*
X181386598Y-183693328D01*
X181386598Y-183693328D02*
X181243740Y-183621900D01*
X181243740Y-183621900D02*
X181172312Y-183479042D01*
X181172312Y-183479042D02*
X181172312Y-182907614D01*
X181172312Y-182907614D02*
X181243740Y-182764757D01*
X181243740Y-182764757D02*
X181386598Y-182693328D01*
X181386598Y-182693328D02*
X181672312Y-182693328D01*
X181672312Y-182693328D02*
X181815169Y-182764757D01*
X181815169Y-182764757D02*
X181886598Y-182907614D01*
X181886598Y-182907614D02*
X181886598Y-183050471D01*
X181886598Y-183050471D02*
X181172312Y-183193328D01*
X183100883Y-183621900D02*
X182958026Y-183693328D01*
X182958026Y-183693328D02*
X182672312Y-183693328D01*
X182672312Y-183693328D02*
X182529454Y-183621900D01*
X182529454Y-183621900D02*
X182458026Y-183479042D01*
X182458026Y-183479042D02*
X182458026Y-182907614D01*
X182458026Y-182907614D02*
X182529454Y-182764757D01*
X182529454Y-182764757D02*
X182672312Y-182693328D01*
X182672312Y-182693328D02*
X182958026Y-182693328D01*
X182958026Y-182693328D02*
X183100883Y-182764757D01*
X183100883Y-182764757D02*
X183172312Y-182907614D01*
X183172312Y-182907614D02*
X183172312Y-183050471D01*
X183172312Y-183050471D02*
X182458026Y-183193328D01*
X183600883Y-182693328D02*
X184172311Y-182693328D01*
X183815168Y-182193328D02*
X183815168Y-183479042D01*
X183815168Y-183479042D02*
X183886597Y-183621900D01*
X183886597Y-183621900D02*
X184029454Y-183693328D01*
X184029454Y-183693328D02*
X184172311Y-183693328D01*
X184672311Y-183550471D02*
X184743740Y-183621900D01*
X184743740Y-183621900D02*
X184672311Y-183693328D01*
X184672311Y-183693328D02*
X184600883Y-183621900D01*
X184600883Y-183621900D02*
X184672311Y-183550471D01*
X184672311Y-183550471D02*
X184672311Y-183693328D01*
X184672311Y-182764757D02*
X184743740Y-182836185D01*
X184743740Y-182836185D02*
X184672311Y-182907614D01*
X184672311Y-182907614D02*
X184600883Y-182836185D01*
X184600883Y-182836185D02*
X184672311Y-182764757D01*
X184672311Y-182764757D02*
X184672311Y-182907614D01*
D10*
D11*
X197002200Y-191507200D02*
X197002200Y-194507200D01*
D10*
D11*
X261002200Y-191507200D02*
X261002200Y-198007200D01*
X87494642Y-98929580D02*
X87447023Y-98977200D01*
X87447023Y-98977200D02*
X87304166Y-99024819D01*
X87304166Y-99024819D02*
X87208928Y-99024819D01*
X87208928Y-99024819D02*
X87066071Y-98977200D01*
X87066071Y-98977200D02*
X86970833Y-98881961D01*
X86970833Y-98881961D02*
X86923214Y-98786723D01*
X86923214Y-98786723D02*
X86875595Y-98596247D01*
X86875595Y-98596247D02*
X86875595Y-98453390D01*
X86875595Y-98453390D02*
X86923214Y-98262914D01*
X86923214Y-98262914D02*
X86970833Y-98167676D01*
X86970833Y-98167676D02*
X87066071Y-98072438D01*
X87066071Y-98072438D02*
X87208928Y-98024819D01*
X87208928Y-98024819D02*
X87304166Y-98024819D01*
X87304166Y-98024819D02*
X87447023Y-98072438D01*
X87447023Y-98072438D02*
X87494642Y-98120057D01*
X87875595Y-98120057D02*
X87923214Y-98072438D01*
X87923214Y-98072438D02*
X88018452Y-98024819D01*
X88018452Y-98024819D02*
X88256547Y-98024819D01*
X88256547Y-98024819D02*
X88351785Y-98072438D01*
X88351785Y-98072438D02*
X88399404Y-98120057D01*
X88399404Y-98120057D02*
X88447023Y-98215295D01*
X88447023Y-98215295D02*
X88447023Y-98310533D01*
X88447023Y-98310533D02*
X88399404Y-98453390D01*
X88399404Y-98453390D02*
X87827976Y-99024819D01*
X87827976Y-99024819D02*
X88447023Y-99024819D01*
X88827976Y-98120057D02*
X88875595Y-98072438D01*
X88875595Y-98072438D02*
X88970833Y-98024819D01*
X88970833Y-98024819D02*
X89208928Y-98024819D01*
X89208928Y-98024819D02*
X89304166Y-98072438D01*
X89304166Y-98072438D02*
X89351785Y-98120057D01*
X89351785Y-98120057D02*
X89399404Y-98215295D01*
X89399404Y-98215295D02*
X89399404Y-98310533D01*
X89399404Y-98310533D02*
X89351785Y-98453390D01*
X89351785Y-98453390D02*
X88780357Y-99024819D01*
X88780357Y-99024819D02*
X89399404Y-99024819D01*
X95444642Y-44024819D02*
X95111309Y-43548628D01*
X94873214Y-44024819D02*
X94873214Y-43024819D01*
X94873214Y-43024819D02*
X95254166Y-43024819D01*
X95254166Y-43024819D02*
X95349404Y-43072438D01*
X95349404Y-43072438D02*
X95397023Y-43120057D01*
X95397023Y-43120057D02*
X95444642Y-43215295D01*
X95444642Y-43215295D02*
X95444642Y-43358152D01*
X95444642Y-43358152D02*
X95397023Y-43453390D01*
X95397023Y-43453390D02*
X95349404Y-43501009D01*
X95349404Y-43501009D02*
X95254166Y-43548628D01*
X95254166Y-43548628D02*
X94873214Y-43548628D01*
X96397023Y-44024819D02*
X95825595Y-44024819D01*
X96111309Y-44024819D02*
X96111309Y-43024819D01*
X96111309Y-43024819D02*
X96016071Y-43167676D01*
X96016071Y-43167676D02*
X95920833Y-43262914D01*
X95920833Y-43262914D02*
X95825595Y-43310533D01*
X97254166Y-43358152D02*
X97254166Y-44024819D01*
X97016071Y-42977200D02*
X96777976Y-43691485D01*
X96777976Y-43691485D02*
X97397023Y-43691485D01*
X122738095Y-81844819D02*
X123309523Y-81844819D01*
X123023809Y-82844819D02*
X123023809Y-81844819D01*
X123642857Y-82844819D02*
X123642857Y-81844819D01*
X123642857Y-81844819D02*
X124023809Y-81844819D01*
X124023809Y-81844819D02*
X124119047Y-81892438D01*
X124119047Y-81892438D02*
X124166666Y-81940057D01*
X124166666Y-81940057D02*
X124214285Y-82035295D01*
X124214285Y-82035295D02*
X124214285Y-82178152D01*
X124214285Y-82178152D02*
X124166666Y-82273390D01*
X124166666Y-82273390D02*
X124119047Y-82321009D01*
X124119047Y-82321009D02*
X124023809Y-82368628D01*
X124023809Y-82368628D02*
X123642857Y-82368628D01*
X124547619Y-81844819D02*
X125214285Y-81844819D01*
X125214285Y-81844819D02*
X124785714Y-82844819D01*
X71494642Y-108789580D02*
X71447023Y-108837200D01*
X71447023Y-108837200D02*
X71304166Y-108884819D01*
X71304166Y-108884819D02*
X71208928Y-108884819D01*
X71208928Y-108884819D02*
X71066071Y-108837200D01*
X71066071Y-108837200D02*
X70970833Y-108741961D01*
X70970833Y-108741961D02*
X70923214Y-108646723D01*
X70923214Y-108646723D02*
X70875595Y-108456247D01*
X70875595Y-108456247D02*
X70875595Y-108313390D01*
X70875595Y-108313390D02*
X70923214Y-108122914D01*
X70923214Y-108122914D02*
X70970833Y-108027676D01*
X70970833Y-108027676D02*
X71066071Y-107932438D01*
X71066071Y-107932438D02*
X71208928Y-107884819D01*
X71208928Y-107884819D02*
X71304166Y-107884819D01*
X71304166Y-107884819D02*
X71447023Y-107932438D01*
X71447023Y-107932438D02*
X71494642Y-107980057D01*
X71875595Y-107980057D02*
X71923214Y-107932438D01*
X71923214Y-107932438D02*
X72018452Y-107884819D01*
X72018452Y-107884819D02*
X72256547Y-107884819D01*
X72256547Y-107884819D02*
X72351785Y-107932438D01*
X72351785Y-107932438D02*
X72399404Y-107980057D01*
X72399404Y-107980057D02*
X72447023Y-108075295D01*
X72447023Y-108075295D02*
X72447023Y-108170533D01*
X72447023Y-108170533D02*
X72399404Y-108313390D01*
X72399404Y-108313390D02*
X71827976Y-108884819D01*
X71827976Y-108884819D02*
X72447023Y-108884819D01*
X73399404Y-108884819D02*
X72827976Y-108884819D01*
X73113690Y-108884819D02*
X73113690Y-107884819D01*
X73113690Y-107884819D02*
X73018452Y-108027676D01*
X73018452Y-108027676D02*
X72923214Y-108122914D01*
X72923214Y-108122914D02*
X72827976Y-108170533D01*
X120269642Y-49024819D02*
X119936309Y-48548628D01*
X119698214Y-49024819D02*
X119698214Y-48024819D01*
X119698214Y-48024819D02*
X120079166Y-48024819D01*
X120079166Y-48024819D02*
X120174404Y-48072438D01*
X120174404Y-48072438D02*
X120222023Y-48120057D01*
X120222023Y-48120057D02*
X120269642Y-48215295D01*
X120269642Y-48215295D02*
X120269642Y-48358152D01*
X120269642Y-48358152D02*
X120222023Y-48453390D01*
X120222023Y-48453390D02*
X120174404Y-48501009D01*
X120174404Y-48501009D02*
X120079166Y-48548628D01*
X120079166Y-48548628D02*
X119698214Y-48548628D01*
X121222023Y-49024819D02*
X120650595Y-49024819D01*
X120936309Y-49024819D02*
X120936309Y-48024819D01*
X120936309Y-48024819D02*
X120841071Y-48167676D01*
X120841071Y-48167676D02*
X120745833Y-48262914D01*
X120745833Y-48262914D02*
X120650595Y-48310533D01*
X121793452Y-48453390D02*
X121698214Y-48405771D01*
X121698214Y-48405771D02*
X121650595Y-48358152D01*
X121650595Y-48358152D02*
X121602976Y-48262914D01*
X121602976Y-48262914D02*
X121602976Y-48215295D01*
X121602976Y-48215295D02*
X121650595Y-48120057D01*
X121650595Y-48120057D02*
X121698214Y-48072438D01*
X121698214Y-48072438D02*
X121793452Y-48024819D01*
X121793452Y-48024819D02*
X121983928Y-48024819D01*
X121983928Y-48024819D02*
X122079166Y-48072438D01*
X122079166Y-48072438D02*
X122126785Y-48120057D01*
X122126785Y-48120057D02*
X122174404Y-48215295D01*
X122174404Y-48215295D02*
X122174404Y-48262914D01*
X122174404Y-48262914D02*
X122126785Y-48358152D01*
X122126785Y-48358152D02*
X122079166Y-48405771D01*
X122079166Y-48405771D02*
X121983928Y-48453390D01*
X121983928Y-48453390D02*
X121793452Y-48453390D01*
X121793452Y-48453390D02*
X121698214Y-48501009D01*
X121698214Y-48501009D02*
X121650595Y-48548628D01*
X121650595Y-48548628D02*
X121602976Y-48643866D01*
X121602976Y-48643866D02*
X121602976Y-48834342D01*
X121602976Y-48834342D02*
X121650595Y-48929580D01*
X121650595Y-48929580D02*
X121698214Y-48977200D01*
X121698214Y-48977200D02*
X121793452Y-49024819D01*
X121793452Y-49024819D02*
X121983928Y-49024819D01*
X121983928Y-49024819D02*
X122079166Y-48977200D01*
X122079166Y-48977200D02*
X122126785Y-48929580D01*
X122126785Y-48929580D02*
X122174404Y-48834342D01*
X122174404Y-48834342D02*
X122174404Y-48643866D01*
X122174404Y-48643866D02*
X122126785Y-48548628D01*
X122126785Y-48548628D02*
X122079166Y-48501009D01*
X122079166Y-48501009D02*
X121983928Y-48453390D01*
X105357142Y-51884819D02*
X105023809Y-51408628D01*
X104785714Y-51884819D02*
X104785714Y-50884819D01*
X104785714Y-50884819D02*
X105166666Y-50884819D01*
X105166666Y-50884819D02*
X105261904Y-50932438D01*
X105261904Y-50932438D02*
X105309523Y-50980057D01*
X105309523Y-50980057D02*
X105357142Y-51075295D01*
X105357142Y-51075295D02*
X105357142Y-51218152D01*
X105357142Y-51218152D02*
X105309523Y-51313390D01*
X105309523Y-51313390D02*
X105261904Y-51361009D01*
X105261904Y-51361009D02*
X105166666Y-51408628D01*
X105166666Y-51408628D02*
X104785714Y-51408628D01*
X106309523Y-51884819D02*
X105738095Y-51884819D01*
X106023809Y-51884819D02*
X106023809Y-50884819D01*
X106023809Y-50884819D02*
X105928571Y-51027676D01*
X105928571Y-51027676D02*
X105833333Y-51122914D01*
X105833333Y-51122914D02*
X105738095Y-51170533D01*
X106928571Y-50884819D02*
X107023809Y-50884819D01*
X107023809Y-50884819D02*
X107119047Y-50932438D01*
X107119047Y-50932438D02*
X107166666Y-50980057D01*
X107166666Y-50980057D02*
X107214285Y-51075295D01*
X107214285Y-51075295D02*
X107261904Y-51265771D01*
X107261904Y-51265771D02*
X107261904Y-51503866D01*
X107261904Y-51503866D02*
X107214285Y-51694342D01*
X107214285Y-51694342D02*
X107166666Y-51789580D01*
X107166666Y-51789580D02*
X107119047Y-51837200D01*
X107119047Y-51837200D02*
X107023809Y-51884819D01*
X107023809Y-51884819D02*
X106928571Y-51884819D01*
X106928571Y-51884819D02*
X106833333Y-51837200D01*
X106833333Y-51837200D02*
X106785714Y-51789580D01*
X106785714Y-51789580D02*
X106738095Y-51694342D01*
X106738095Y-51694342D02*
X106690476Y-51503866D01*
X106690476Y-51503866D02*
X106690476Y-51265771D01*
X106690476Y-51265771D02*
X106738095Y-51075295D01*
X106738095Y-51075295D02*
X106785714Y-50980057D01*
X106785714Y-50980057D02*
X106833333Y-50932438D01*
X106833333Y-50932438D02*
X106928571Y-50884819D01*
X120789580Y-72505357D02*
X120837200Y-72552976D01*
X120837200Y-72552976D02*
X120884819Y-72695833D01*
X120884819Y-72695833D02*
X120884819Y-72791071D01*
X120884819Y-72791071D02*
X120837200Y-72933928D01*
X120837200Y-72933928D02*
X120741961Y-73029166D01*
X120741961Y-73029166D02*
X120646723Y-73076785D01*
X120646723Y-73076785D02*
X120456247Y-73124404D01*
X120456247Y-73124404D02*
X120313390Y-73124404D01*
X120313390Y-73124404D02*
X120122914Y-73076785D01*
X120122914Y-73076785D02*
X120027676Y-73029166D01*
X120027676Y-73029166D02*
X119932438Y-72933928D01*
X119932438Y-72933928D02*
X119884819Y-72791071D01*
X119884819Y-72791071D02*
X119884819Y-72695833D01*
X119884819Y-72695833D02*
X119932438Y-72552976D01*
X119932438Y-72552976D02*
X119980057Y-72505357D01*
X119980057Y-72124404D02*
X119932438Y-72076785D01*
X119932438Y-72076785D02*
X119884819Y-71981547D01*
X119884819Y-71981547D02*
X119884819Y-71743452D01*
X119884819Y-71743452D02*
X119932438Y-71648214D01*
X119932438Y-71648214D02*
X119980057Y-71600595D01*
X119980057Y-71600595D02*
X120075295Y-71552976D01*
X120075295Y-71552976D02*
X120170533Y-71552976D01*
X120170533Y-71552976D02*
X120313390Y-71600595D01*
X120313390Y-71600595D02*
X120884819Y-72172023D01*
X120884819Y-72172023D02*
X120884819Y-71552976D01*
X119884819Y-71219642D02*
X119884819Y-70600595D01*
X119884819Y-70600595D02*
X120265771Y-70933928D01*
X120265771Y-70933928D02*
X120265771Y-70791071D01*
X120265771Y-70791071D02*
X120313390Y-70695833D01*
X120313390Y-70695833D02*
X120361009Y-70648214D01*
X120361009Y-70648214D02*
X120456247Y-70600595D01*
X120456247Y-70600595D02*
X120694342Y-70600595D01*
X120694342Y-70600595D02*
X120789580Y-70648214D01*
X120789580Y-70648214D02*
X120837200Y-70695833D01*
X120837200Y-70695833D02*
X120884819Y-70791071D01*
X120884819Y-70791071D02*
X120884819Y-71076785D01*
X120884819Y-71076785D02*
X120837200Y-71172023D01*
X120837200Y-71172023D02*
X120789580Y-71219642D01*
X105849819Y-105555357D02*
X105373628Y-105888690D01*
X105849819Y-106126785D02*
X104849819Y-106126785D01*
X104849819Y-106126785D02*
X104849819Y-105745833D01*
X104849819Y-105745833D02*
X104897438Y-105650595D01*
X104897438Y-105650595D02*
X104945057Y-105602976D01*
X104945057Y-105602976D02*
X105040295Y-105555357D01*
X105040295Y-105555357D02*
X105183152Y-105555357D01*
X105183152Y-105555357D02*
X105278390Y-105602976D01*
X105278390Y-105602976D02*
X105326009Y-105650595D01*
X105326009Y-105650595D02*
X105373628Y-105745833D01*
X105373628Y-105745833D02*
X105373628Y-106126785D01*
X104945057Y-105174404D02*
X104897438Y-105126785D01*
X104897438Y-105126785D02*
X104849819Y-105031547D01*
X104849819Y-105031547D02*
X104849819Y-104793452D01*
X104849819Y-104793452D02*
X104897438Y-104698214D01*
X104897438Y-104698214D02*
X104945057Y-104650595D01*
X104945057Y-104650595D02*
X105040295Y-104602976D01*
X105040295Y-104602976D02*
X105135533Y-104602976D01*
X105135533Y-104602976D02*
X105278390Y-104650595D01*
X105278390Y-104650595D02*
X105849819Y-105222023D01*
X105849819Y-105222023D02*
X105849819Y-104602976D01*
X104849819Y-104269642D02*
X104849819Y-103650595D01*
X104849819Y-103650595D02*
X105230771Y-103983928D01*
X105230771Y-103983928D02*
X105230771Y-103841071D01*
X105230771Y-103841071D02*
X105278390Y-103745833D01*
X105278390Y-103745833D02*
X105326009Y-103698214D01*
X105326009Y-103698214D02*
X105421247Y-103650595D01*
X105421247Y-103650595D02*
X105659342Y-103650595D01*
X105659342Y-103650595D02*
X105754580Y-103698214D01*
X105754580Y-103698214D02*
X105802200Y-103745833D01*
X105802200Y-103745833D02*
X105849819Y-103841071D01*
X105849819Y-103841071D02*
X105849819Y-104126785D01*
X105849819Y-104126785D02*
X105802200Y-104222023D01*
X105802200Y-104222023D02*
X105754580Y-104269642D01*
X78357142Y-109454819D02*
X78023809Y-108978628D01*
X77785714Y-109454819D02*
X77785714Y-108454819D01*
X77785714Y-108454819D02*
X78166666Y-108454819D01*
X78166666Y-108454819D02*
X78261904Y-108502438D01*
X78261904Y-108502438D02*
X78309523Y-108550057D01*
X78309523Y-108550057D02*
X78357142Y-108645295D01*
X78357142Y-108645295D02*
X78357142Y-108788152D01*
X78357142Y-108788152D02*
X78309523Y-108883390D01*
X78309523Y-108883390D02*
X78261904Y-108931009D01*
X78261904Y-108931009D02*
X78166666Y-108978628D01*
X78166666Y-108978628D02*
X77785714Y-108978628D01*
X78690476Y-108454819D02*
X79309523Y-108454819D01*
X79309523Y-108454819D02*
X78976190Y-108835771D01*
X78976190Y-108835771D02*
X79119047Y-108835771D01*
X79119047Y-108835771D02*
X79214285Y-108883390D01*
X79214285Y-108883390D02*
X79261904Y-108931009D01*
X79261904Y-108931009D02*
X79309523Y-109026247D01*
X79309523Y-109026247D02*
X79309523Y-109264342D01*
X79309523Y-109264342D02*
X79261904Y-109359580D01*
X79261904Y-109359580D02*
X79214285Y-109407200D01*
X79214285Y-109407200D02*
X79119047Y-109454819D01*
X79119047Y-109454819D02*
X78833333Y-109454819D01*
X78833333Y-109454819D02*
X78738095Y-109407200D01*
X78738095Y-109407200D02*
X78690476Y-109359580D01*
X79928571Y-108454819D02*
X80023809Y-108454819D01*
X80023809Y-108454819D02*
X80119047Y-108502438D01*
X80119047Y-108502438D02*
X80166666Y-108550057D01*
X80166666Y-108550057D02*
X80214285Y-108645295D01*
X80214285Y-108645295D02*
X80261904Y-108835771D01*
X80261904Y-108835771D02*
X80261904Y-109073866D01*
X80261904Y-109073866D02*
X80214285Y-109264342D01*
X80214285Y-109264342D02*
X80166666Y-109359580D01*
X80166666Y-109359580D02*
X80119047Y-109407200D01*
X80119047Y-109407200D02*
X80023809Y-109454819D01*
X80023809Y-109454819D02*
X79928571Y-109454819D01*
X79928571Y-109454819D02*
X79833333Y-109407200D01*
X79833333Y-109407200D02*
X79785714Y-109359580D01*
X79785714Y-109359580D02*
X79738095Y-109264342D01*
X79738095Y-109264342D02*
X79690476Y-109073866D01*
X79690476Y-109073866D02*
X79690476Y-108835771D01*
X79690476Y-108835771D02*
X79738095Y-108645295D01*
X79738095Y-108645295D02*
X79785714Y-108550057D01*
X79785714Y-108550057D02*
X79833333Y-108502438D01*
X79833333Y-108502438D02*
X79928571Y-108454819D01*
X64481820Y-57993733D02*
X65196105Y-57993733D01*
X65196105Y-57993733D02*
X65338962Y-58041352D01*
X65338962Y-58041352D02*
X65434201Y-58136590D01*
X65434201Y-58136590D02*
X65481820Y-58279447D01*
X65481820Y-58279447D02*
X65481820Y-58374685D01*
X64577058Y-57565161D02*
X64529439Y-57517542D01*
X64529439Y-57517542D02*
X64481820Y-57422304D01*
X64481820Y-57422304D02*
X64481820Y-57184209D01*
X64481820Y-57184209D02*
X64529439Y-57088971D01*
X64529439Y-57088971D02*
X64577058Y-57041352D01*
X64577058Y-57041352D02*
X64672296Y-56993733D01*
X64672296Y-56993733D02*
X64767534Y-56993733D01*
X64767534Y-56993733D02*
X64910391Y-57041352D01*
X64910391Y-57041352D02*
X65481820Y-57612780D01*
X65481820Y-57612780D02*
X65481820Y-56993733D01*
X105357142Y-97884819D02*
X105023809Y-97408628D01*
X104785714Y-97884819D02*
X104785714Y-96884819D01*
X104785714Y-96884819D02*
X105166666Y-96884819D01*
X105166666Y-96884819D02*
X105261904Y-96932438D01*
X105261904Y-96932438D02*
X105309523Y-96980057D01*
X105309523Y-96980057D02*
X105357142Y-97075295D01*
X105357142Y-97075295D02*
X105357142Y-97218152D01*
X105357142Y-97218152D02*
X105309523Y-97313390D01*
X105309523Y-97313390D02*
X105261904Y-97361009D01*
X105261904Y-97361009D02*
X105166666Y-97408628D01*
X105166666Y-97408628D02*
X104785714Y-97408628D01*
X105738095Y-96980057D02*
X105785714Y-96932438D01*
X105785714Y-96932438D02*
X105880952Y-96884819D01*
X105880952Y-96884819D02*
X106119047Y-96884819D01*
X106119047Y-96884819D02*
X106214285Y-96932438D01*
X106214285Y-96932438D02*
X106261904Y-96980057D01*
X106261904Y-96980057D02*
X106309523Y-97075295D01*
X106309523Y-97075295D02*
X106309523Y-97170533D01*
X106309523Y-97170533D02*
X106261904Y-97313390D01*
X106261904Y-97313390D02*
X105690476Y-97884819D01*
X105690476Y-97884819D02*
X106309523Y-97884819D01*
X106880952Y-97313390D02*
X106785714Y-97265771D01*
X106785714Y-97265771D02*
X106738095Y-97218152D01*
X106738095Y-97218152D02*
X106690476Y-97122914D01*
X106690476Y-97122914D02*
X106690476Y-97075295D01*
X106690476Y-97075295D02*
X106738095Y-96980057D01*
X106738095Y-96980057D02*
X106785714Y-96932438D01*
X106785714Y-96932438D02*
X106880952Y-96884819D01*
X106880952Y-96884819D02*
X107071428Y-96884819D01*
X107071428Y-96884819D02*
X107166666Y-96932438D01*
X107166666Y-96932438D02*
X107214285Y-96980057D01*
X107214285Y-96980057D02*
X107261904Y-97075295D01*
X107261904Y-97075295D02*
X107261904Y-97122914D01*
X107261904Y-97122914D02*
X107214285Y-97218152D01*
X107214285Y-97218152D02*
X107166666Y-97265771D01*
X107166666Y-97265771D02*
X107071428Y-97313390D01*
X107071428Y-97313390D02*
X106880952Y-97313390D01*
X106880952Y-97313390D02*
X106785714Y-97361009D01*
X106785714Y-97361009D02*
X106738095Y-97408628D01*
X106738095Y-97408628D02*
X106690476Y-97503866D01*
X106690476Y-97503866D02*
X106690476Y-97694342D01*
X106690476Y-97694342D02*
X106738095Y-97789580D01*
X106738095Y-97789580D02*
X106785714Y-97837200D01*
X106785714Y-97837200D02*
X106880952Y-97884819D01*
X106880952Y-97884819D02*
X107071428Y-97884819D01*
X107071428Y-97884819D02*
X107166666Y-97837200D01*
X107166666Y-97837200D02*
X107214285Y-97789580D01*
X107214285Y-97789580D02*
X107261904Y-97694342D01*
X107261904Y-97694342D02*
X107261904Y-97503866D01*
X107261904Y-97503866D02*
X107214285Y-97408628D01*
X107214285Y-97408628D02*
X107166666Y-97361009D01*
X107166666Y-97361009D02*
X107071428Y-97313390D01*
X125269642Y-53024819D02*
X124936309Y-52548628D01*
X124698214Y-53024819D02*
X124698214Y-52024819D01*
X124698214Y-52024819D02*
X125079166Y-52024819D01*
X125079166Y-52024819D02*
X125174404Y-52072438D01*
X125174404Y-52072438D02*
X125222023Y-52120057D01*
X125222023Y-52120057D02*
X125269642Y-52215295D01*
X125269642Y-52215295D02*
X125269642Y-52358152D01*
X125269642Y-52358152D02*
X125222023Y-52453390D01*
X125222023Y-52453390D02*
X125174404Y-52501009D01*
X125174404Y-52501009D02*
X125079166Y-52548628D01*
X125079166Y-52548628D02*
X124698214Y-52548628D01*
X125650595Y-52120057D02*
X125698214Y-52072438D01*
X125698214Y-52072438D02*
X125793452Y-52024819D01*
X125793452Y-52024819D02*
X126031547Y-52024819D01*
X126031547Y-52024819D02*
X126126785Y-52072438D01*
X126126785Y-52072438D02*
X126174404Y-52120057D01*
X126174404Y-52120057D02*
X126222023Y-52215295D01*
X126222023Y-52215295D02*
X126222023Y-52310533D01*
X126222023Y-52310533D02*
X126174404Y-52453390D01*
X126174404Y-52453390D02*
X125602976Y-53024819D01*
X125602976Y-53024819D02*
X126222023Y-53024819D01*
X127174404Y-53024819D02*
X126602976Y-53024819D01*
X126888690Y-53024819D02*
X126888690Y-52024819D01*
X126888690Y-52024819D02*
X126793452Y-52167676D01*
X126793452Y-52167676D02*
X126698214Y-52262914D01*
X126698214Y-52262914D02*
X126602976Y-52310533D01*
X95695833Y-64929580D02*
X95648214Y-64977200D01*
X95648214Y-64977200D02*
X95505357Y-65024819D01*
X95505357Y-65024819D02*
X95410119Y-65024819D01*
X95410119Y-65024819D02*
X95267262Y-64977200D01*
X95267262Y-64977200D02*
X95172024Y-64881961D01*
X95172024Y-64881961D02*
X95124405Y-64786723D01*
X95124405Y-64786723D02*
X95076786Y-64596247D01*
X95076786Y-64596247D02*
X95076786Y-64453390D01*
X95076786Y-64453390D02*
X95124405Y-64262914D01*
X95124405Y-64262914D02*
X95172024Y-64167676D01*
X95172024Y-64167676D02*
X95267262Y-64072438D01*
X95267262Y-64072438D02*
X95410119Y-64024819D01*
X95410119Y-64024819D02*
X95505357Y-64024819D01*
X95505357Y-64024819D02*
X95648214Y-64072438D01*
X95648214Y-64072438D02*
X95695833Y-64120057D01*
X96029167Y-64024819D02*
X96695833Y-64024819D01*
X96695833Y-64024819D02*
X96267262Y-65024819D01*
X92929580Y-106780357D02*
X92977200Y-106827976D01*
X92977200Y-106827976D02*
X93024819Y-106970833D01*
X93024819Y-106970833D02*
X93024819Y-107066071D01*
X93024819Y-107066071D02*
X92977200Y-107208928D01*
X92977200Y-107208928D02*
X92881961Y-107304166D01*
X92881961Y-107304166D02*
X92786723Y-107351785D01*
X92786723Y-107351785D02*
X92596247Y-107399404D01*
X92596247Y-107399404D02*
X92453390Y-107399404D01*
X92453390Y-107399404D02*
X92262914Y-107351785D01*
X92262914Y-107351785D02*
X92167676Y-107304166D01*
X92167676Y-107304166D02*
X92072438Y-107208928D01*
X92072438Y-107208928D02*
X92024819Y-107066071D01*
X92024819Y-107066071D02*
X92024819Y-106970833D01*
X92024819Y-106970833D02*
X92072438Y-106827976D01*
X92072438Y-106827976D02*
X92120057Y-106780357D01*
X92120057Y-106399404D02*
X92072438Y-106351785D01*
X92072438Y-106351785D02*
X92024819Y-106256547D01*
X92024819Y-106256547D02*
X92024819Y-106018452D01*
X92024819Y-106018452D02*
X92072438Y-105923214D01*
X92072438Y-105923214D02*
X92120057Y-105875595D01*
X92120057Y-105875595D02*
X92215295Y-105827976D01*
X92215295Y-105827976D02*
X92310533Y-105827976D01*
X92310533Y-105827976D02*
X92453390Y-105875595D01*
X92453390Y-105875595D02*
X93024819Y-106447023D01*
X93024819Y-106447023D02*
X93024819Y-105827976D01*
X92024819Y-105208928D02*
X92024819Y-105113690D01*
X92024819Y-105113690D02*
X92072438Y-105018452D01*
X92072438Y-105018452D02*
X92120057Y-104970833D01*
X92120057Y-104970833D02*
X92215295Y-104923214D01*
X92215295Y-104923214D02*
X92405771Y-104875595D01*
X92405771Y-104875595D02*
X92643866Y-104875595D01*
X92643866Y-104875595D02*
X92834342Y-104923214D01*
X92834342Y-104923214D02*
X92929580Y-104970833D01*
X92929580Y-104970833D02*
X92977200Y-105018452D01*
X92977200Y-105018452D02*
X93024819Y-105113690D01*
X93024819Y-105113690D02*
X93024819Y-105208928D01*
X93024819Y-105208928D02*
X92977200Y-105304166D01*
X92977200Y-105304166D02*
X92929580Y-105351785D01*
X92929580Y-105351785D02*
X92834342Y-105399404D01*
X92834342Y-105399404D02*
X92643866Y-105447023D01*
X92643866Y-105447023D02*
X92405771Y-105447023D01*
X92405771Y-105447023D02*
X92215295Y-105399404D01*
X92215295Y-105399404D02*
X92120057Y-105351785D01*
X92120057Y-105351785D02*
X92072438Y-105304166D01*
X92072438Y-105304166D02*
X92024819Y-105208928D01*
X83454819Y-90288094D02*
X82454819Y-90288094D01*
X82454819Y-90288094D02*
X82454819Y-90049999D01*
X82454819Y-90049999D02*
X82502438Y-89907142D01*
X82502438Y-89907142D02*
X82597676Y-89811904D01*
X82597676Y-89811904D02*
X82692914Y-89764285D01*
X82692914Y-89764285D02*
X82883390Y-89716666D01*
X82883390Y-89716666D02*
X83026247Y-89716666D01*
X83026247Y-89716666D02*
X83216723Y-89764285D01*
X83216723Y-89764285D02*
X83311961Y-89811904D01*
X83311961Y-89811904D02*
X83407200Y-89907142D01*
X83407200Y-89907142D02*
X83454819Y-90049999D01*
X83454819Y-90049999D02*
X83454819Y-90288094D01*
X82454819Y-88859523D02*
X82454819Y-89049999D01*
X82454819Y-89049999D02*
X82502438Y-89145237D01*
X82502438Y-89145237D02*
X82550057Y-89192856D01*
X82550057Y-89192856D02*
X82692914Y-89288094D01*
X82692914Y-89288094D02*
X82883390Y-89335713D01*
X82883390Y-89335713D02*
X83264342Y-89335713D01*
X83264342Y-89335713D02*
X83359580Y-89288094D01*
X83359580Y-89288094D02*
X83407200Y-89240475D01*
X83407200Y-89240475D02*
X83454819Y-89145237D01*
X83454819Y-89145237D02*
X83454819Y-88954761D01*
X83454819Y-88954761D02*
X83407200Y-88859523D01*
X83407200Y-88859523D02*
X83359580Y-88811904D01*
X83359580Y-88811904D02*
X83264342Y-88764285D01*
X83264342Y-88764285D02*
X83026247Y-88764285D01*
X83026247Y-88764285D02*
X82931009Y-88811904D01*
X82931009Y-88811904D02*
X82883390Y-88859523D01*
X82883390Y-88859523D02*
X82835771Y-88954761D01*
X82835771Y-88954761D02*
X82835771Y-89145237D01*
X82835771Y-89145237D02*
X82883390Y-89240475D01*
X82883390Y-89240475D02*
X82931009Y-89288094D01*
X82931009Y-89288094D02*
X83026247Y-89335713D01*
X121929580Y-61029166D02*
X121977200Y-61076785D01*
X121977200Y-61076785D02*
X122024819Y-61219642D01*
X122024819Y-61219642D02*
X122024819Y-61314880D01*
X122024819Y-61314880D02*
X121977200Y-61457737D01*
X121977200Y-61457737D02*
X121881961Y-61552975D01*
X121881961Y-61552975D02*
X121786723Y-61600594D01*
X121786723Y-61600594D02*
X121596247Y-61648213D01*
X121596247Y-61648213D02*
X121453390Y-61648213D01*
X121453390Y-61648213D02*
X121262914Y-61600594D01*
X121262914Y-61600594D02*
X121167676Y-61552975D01*
X121167676Y-61552975D02*
X121072438Y-61457737D01*
X121072438Y-61457737D02*
X121024819Y-61314880D01*
X121024819Y-61314880D02*
X121024819Y-61219642D01*
X121024819Y-61219642D02*
X121072438Y-61076785D01*
X121072438Y-61076785D02*
X121120057Y-61029166D01*
X121120057Y-60648213D02*
X121072438Y-60600594D01*
X121072438Y-60600594D02*
X121024819Y-60505356D01*
X121024819Y-60505356D02*
X121024819Y-60267261D01*
X121024819Y-60267261D02*
X121072438Y-60172023D01*
X121072438Y-60172023D02*
X121120057Y-60124404D01*
X121120057Y-60124404D02*
X121215295Y-60076785D01*
X121215295Y-60076785D02*
X121310533Y-60076785D01*
X121310533Y-60076785D02*
X121453390Y-60124404D01*
X121453390Y-60124404D02*
X122024819Y-60695832D01*
X122024819Y-60695832D02*
X122024819Y-60076785D01*
X64813095Y-36149819D02*
X64813095Y-36959342D01*
X64813095Y-36959342D02*
X64860714Y-37054580D01*
X64860714Y-37054580D02*
X64908333Y-37102200D01*
X64908333Y-37102200D02*
X65003571Y-37149819D01*
X65003571Y-37149819D02*
X65194047Y-37149819D01*
X65194047Y-37149819D02*
X65289285Y-37102200D01*
X65289285Y-37102200D02*
X65336904Y-37054580D01*
X65336904Y-37054580D02*
X65384523Y-36959342D01*
X65384523Y-36959342D02*
X65384523Y-36149819D01*
X66336904Y-36149819D02*
X65860714Y-36149819D01*
X65860714Y-36149819D02*
X65813095Y-36626009D01*
X65813095Y-36626009D02*
X65860714Y-36578390D01*
X65860714Y-36578390D02*
X65955952Y-36530771D01*
X65955952Y-36530771D02*
X66194047Y-36530771D01*
X66194047Y-36530771D02*
X66289285Y-36578390D01*
X66289285Y-36578390D02*
X66336904Y-36626009D01*
X66336904Y-36626009D02*
X66384523Y-36721247D01*
X66384523Y-36721247D02*
X66384523Y-36959342D01*
X66384523Y-36959342D02*
X66336904Y-37054580D01*
X66336904Y-37054580D02*
X66289285Y-37102200D01*
X66289285Y-37102200D02*
X66194047Y-37149819D01*
X66194047Y-37149819D02*
X65955952Y-37149819D01*
X65955952Y-37149819D02*
X65860714Y-37102200D01*
X65860714Y-37102200D02*
X65813095Y-37054580D01*
X119454819Y-96188094D02*
X118454819Y-96188094D01*
X118454819Y-96188094D02*
X118454819Y-95949999D01*
X118454819Y-95949999D02*
X118502438Y-95807142D01*
X118502438Y-95807142D02*
X118597676Y-95711904D01*
X118597676Y-95711904D02*
X118692914Y-95664285D01*
X118692914Y-95664285D02*
X118883390Y-95616666D01*
X118883390Y-95616666D02*
X119026247Y-95616666D01*
X119026247Y-95616666D02*
X119216723Y-95664285D01*
X119216723Y-95664285D02*
X119311961Y-95711904D01*
X119311961Y-95711904D02*
X119407200Y-95807142D01*
X119407200Y-95807142D02*
X119454819Y-95949999D01*
X119454819Y-95949999D02*
X119454819Y-96188094D01*
X118454819Y-95283332D02*
X118454819Y-94664285D01*
X118454819Y-94664285D02*
X118835771Y-94997618D01*
X118835771Y-94997618D02*
X118835771Y-94854761D01*
X118835771Y-94854761D02*
X118883390Y-94759523D01*
X118883390Y-94759523D02*
X118931009Y-94711904D01*
X118931009Y-94711904D02*
X119026247Y-94664285D01*
X119026247Y-94664285D02*
X119264342Y-94664285D01*
X119264342Y-94664285D02*
X119359580Y-94711904D01*
X119359580Y-94711904D02*
X119407200Y-94759523D01*
X119407200Y-94759523D02*
X119454819Y-94854761D01*
X119454819Y-94854761D02*
X119454819Y-95140475D01*
X119454819Y-95140475D02*
X119407200Y-95235713D01*
X119407200Y-95235713D02*
X119359580Y-95283332D01*
X88738095Y-70844819D02*
X89309523Y-70844819D01*
X89023809Y-71844819D02*
X89023809Y-70844819D01*
X89642857Y-71844819D02*
X89642857Y-70844819D01*
X89642857Y-70844819D02*
X90023809Y-70844819D01*
X90023809Y-70844819D02*
X90119047Y-70892438D01*
X90119047Y-70892438D02*
X90166666Y-70940057D01*
X90166666Y-70940057D02*
X90214285Y-71035295D01*
X90214285Y-71035295D02*
X90214285Y-71178152D01*
X90214285Y-71178152D02*
X90166666Y-71273390D01*
X90166666Y-71273390D02*
X90119047Y-71321009D01*
X90119047Y-71321009D02*
X90023809Y-71368628D01*
X90023809Y-71368628D02*
X89642857Y-71368628D01*
X91071428Y-70844819D02*
X90880952Y-70844819D01*
X90880952Y-70844819D02*
X90785714Y-70892438D01*
X90785714Y-70892438D02*
X90738095Y-70940057D01*
X90738095Y-70940057D02*
X90642857Y-71082914D01*
X90642857Y-71082914D02*
X90595238Y-71273390D01*
X90595238Y-71273390D02*
X90595238Y-71654342D01*
X90595238Y-71654342D02*
X90642857Y-71749580D01*
X90642857Y-71749580D02*
X90690476Y-71797200D01*
X90690476Y-71797200D02*
X90785714Y-71844819D01*
X90785714Y-71844819D02*
X90976190Y-71844819D01*
X90976190Y-71844819D02*
X91071428Y-71797200D01*
X91071428Y-71797200D02*
X91119047Y-71749580D01*
X91119047Y-71749580D02*
X91166666Y-71654342D01*
X91166666Y-71654342D02*
X91166666Y-71416247D01*
X91166666Y-71416247D02*
X91119047Y-71321009D01*
X91119047Y-71321009D02*
X91071428Y-71273390D01*
X91071428Y-71273390D02*
X90976190Y-71225771D01*
X90976190Y-71225771D02*
X90785714Y-71225771D01*
X90785714Y-71225771D02*
X90690476Y-71273390D01*
X90690476Y-71273390D02*
X90642857Y-71321009D01*
X90642857Y-71321009D02*
X90595238Y-71416247D01*
X95444642Y-64884819D02*
X95111309Y-64408628D01*
X94873214Y-64884819D02*
X94873214Y-63884819D01*
X94873214Y-63884819D02*
X95254166Y-63884819D01*
X95254166Y-63884819D02*
X95349404Y-63932438D01*
X95349404Y-63932438D02*
X95397023Y-63980057D01*
X95397023Y-63980057D02*
X95444642Y-64075295D01*
X95444642Y-64075295D02*
X95444642Y-64218152D01*
X95444642Y-64218152D02*
X95397023Y-64313390D01*
X95397023Y-64313390D02*
X95349404Y-64361009D01*
X95349404Y-64361009D02*
X95254166Y-64408628D01*
X95254166Y-64408628D02*
X94873214Y-64408628D01*
X96397023Y-64884819D02*
X95825595Y-64884819D01*
X96111309Y-64884819D02*
X96111309Y-63884819D01*
X96111309Y-63884819D02*
X96016071Y-64027676D01*
X96016071Y-64027676D02*
X95920833Y-64122914D01*
X95920833Y-64122914D02*
X95825595Y-64170533D01*
X97349404Y-64884819D02*
X96777976Y-64884819D01*
X97063690Y-64884819D02*
X97063690Y-63884819D01*
X97063690Y-63884819D02*
X96968452Y-64027676D01*
X96968452Y-64027676D02*
X96873214Y-64122914D01*
X96873214Y-64122914D02*
X96777976Y-64170533D01*
X124085680Y-86486266D02*
X123371395Y-86486266D01*
X123371395Y-86486266D02*
X123228538Y-86438647D01*
X123228538Y-86438647D02*
X123133300Y-86343409D01*
X123133300Y-86343409D02*
X123085680Y-86200552D01*
X123085680Y-86200552D02*
X123085680Y-86105314D01*
X124085680Y-86867219D02*
X124085680Y-87486266D01*
X124085680Y-87486266D02*
X123704728Y-87152933D01*
X123704728Y-87152933D02*
X123704728Y-87295790D01*
X123704728Y-87295790D02*
X123657109Y-87391028D01*
X123657109Y-87391028D02*
X123609490Y-87438647D01*
X123609490Y-87438647D02*
X123514252Y-87486266D01*
X123514252Y-87486266D02*
X123276157Y-87486266D01*
X123276157Y-87486266D02*
X123180919Y-87438647D01*
X123180919Y-87438647D02*
X123133300Y-87391028D01*
X123133300Y-87391028D02*
X123085680Y-87295790D01*
X123085680Y-87295790D02*
X123085680Y-87010076D01*
X123085680Y-87010076D02*
X123133300Y-86914838D01*
X123133300Y-86914838D02*
X123180919Y-86867219D01*
X102745833Y-80884819D02*
X102412500Y-80408628D01*
X102174405Y-80884819D02*
X102174405Y-79884819D01*
X102174405Y-79884819D02*
X102555357Y-79884819D01*
X102555357Y-79884819D02*
X102650595Y-79932438D01*
X102650595Y-79932438D02*
X102698214Y-79980057D01*
X102698214Y-79980057D02*
X102745833Y-80075295D01*
X102745833Y-80075295D02*
X102745833Y-80218152D01*
X102745833Y-80218152D02*
X102698214Y-80313390D01*
X102698214Y-80313390D02*
X102650595Y-80361009D01*
X102650595Y-80361009D02*
X102555357Y-80408628D01*
X102555357Y-80408628D02*
X102174405Y-80408628D01*
X103602976Y-79884819D02*
X103412500Y-79884819D01*
X103412500Y-79884819D02*
X103317262Y-79932438D01*
X103317262Y-79932438D02*
X103269643Y-79980057D01*
X103269643Y-79980057D02*
X103174405Y-80122914D01*
X103174405Y-80122914D02*
X103126786Y-80313390D01*
X103126786Y-80313390D02*
X103126786Y-80694342D01*
X103126786Y-80694342D02*
X103174405Y-80789580D01*
X103174405Y-80789580D02*
X103222024Y-80837200D01*
X103222024Y-80837200D02*
X103317262Y-80884819D01*
X103317262Y-80884819D02*
X103507738Y-80884819D01*
X103507738Y-80884819D02*
X103602976Y-80837200D01*
X103602976Y-80837200D02*
X103650595Y-80789580D01*
X103650595Y-80789580D02*
X103698214Y-80694342D01*
X103698214Y-80694342D02*
X103698214Y-80456247D01*
X103698214Y-80456247D02*
X103650595Y-80361009D01*
X103650595Y-80361009D02*
X103602976Y-80313390D01*
X103602976Y-80313390D02*
X103507738Y-80265771D01*
X103507738Y-80265771D02*
X103317262Y-80265771D01*
X103317262Y-80265771D02*
X103222024Y-80313390D01*
X103222024Y-80313390D02*
X103174405Y-80361009D01*
X103174405Y-80361009D02*
X103126786Y-80456247D01*
X127738095Y-88844819D02*
X128309523Y-88844819D01*
X128023809Y-89844819D02*
X128023809Y-88844819D01*
X128642857Y-89844819D02*
X128642857Y-88844819D01*
X128642857Y-88844819D02*
X129023809Y-88844819D01*
X129023809Y-88844819D02*
X129119047Y-88892438D01*
X129119047Y-88892438D02*
X129166666Y-88940057D01*
X129166666Y-88940057D02*
X129214285Y-89035295D01*
X129214285Y-89035295D02*
X129214285Y-89178152D01*
X129214285Y-89178152D02*
X129166666Y-89273390D01*
X129166666Y-89273390D02*
X129119047Y-89321009D01*
X129119047Y-89321009D02*
X129023809Y-89368628D01*
X129023809Y-89368628D02*
X128642857Y-89368628D01*
X130071428Y-89178152D02*
X130071428Y-89844819D01*
X129833333Y-88797200D02*
X129595238Y-89511485D01*
X129595238Y-89511485D02*
X130214285Y-89511485D01*
X85494642Y-63929580D02*
X85447023Y-63977200D01*
X85447023Y-63977200D02*
X85304166Y-64024819D01*
X85304166Y-64024819D02*
X85208928Y-64024819D01*
X85208928Y-64024819D02*
X85066071Y-63977200D01*
X85066071Y-63977200D02*
X84970833Y-63881961D01*
X84970833Y-63881961D02*
X84923214Y-63786723D01*
X84923214Y-63786723D02*
X84875595Y-63596247D01*
X84875595Y-63596247D02*
X84875595Y-63453390D01*
X84875595Y-63453390D02*
X84923214Y-63262914D01*
X84923214Y-63262914D02*
X84970833Y-63167676D01*
X84970833Y-63167676D02*
X85066071Y-63072438D01*
X85066071Y-63072438D02*
X85208928Y-63024819D01*
X85208928Y-63024819D02*
X85304166Y-63024819D01*
X85304166Y-63024819D02*
X85447023Y-63072438D01*
X85447023Y-63072438D02*
X85494642Y-63120057D01*
X85875595Y-63120057D02*
X85923214Y-63072438D01*
X85923214Y-63072438D02*
X86018452Y-63024819D01*
X86018452Y-63024819D02*
X86256547Y-63024819D01*
X86256547Y-63024819D02*
X86351785Y-63072438D01*
X86351785Y-63072438D02*
X86399404Y-63120057D01*
X86399404Y-63120057D02*
X86447023Y-63215295D01*
X86447023Y-63215295D02*
X86447023Y-63310533D01*
X86447023Y-63310533D02*
X86399404Y-63453390D01*
X86399404Y-63453390D02*
X85827976Y-64024819D01*
X85827976Y-64024819D02*
X86447023Y-64024819D01*
X87304166Y-63024819D02*
X87113690Y-63024819D01*
X87113690Y-63024819D02*
X87018452Y-63072438D01*
X87018452Y-63072438D02*
X86970833Y-63120057D01*
X86970833Y-63120057D02*
X86875595Y-63262914D01*
X86875595Y-63262914D02*
X86827976Y-63453390D01*
X86827976Y-63453390D02*
X86827976Y-63834342D01*
X86827976Y-63834342D02*
X86875595Y-63929580D01*
X86875595Y-63929580D02*
X86923214Y-63977200D01*
X86923214Y-63977200D02*
X87018452Y-64024819D01*
X87018452Y-64024819D02*
X87208928Y-64024819D01*
X87208928Y-64024819D02*
X87304166Y-63977200D01*
X87304166Y-63977200D02*
X87351785Y-63929580D01*
X87351785Y-63929580D02*
X87399404Y-63834342D01*
X87399404Y-63834342D02*
X87399404Y-63596247D01*
X87399404Y-63596247D02*
X87351785Y-63501009D01*
X87351785Y-63501009D02*
X87304166Y-63453390D01*
X87304166Y-63453390D02*
X87208928Y-63405771D01*
X87208928Y-63405771D02*
X87018452Y-63405771D01*
X87018452Y-63405771D02*
X86923214Y-63453390D01*
X86923214Y-63453390D02*
X86875595Y-63501009D01*
X86875595Y-63501009D02*
X86827976Y-63596247D01*
X79067080Y-81642857D02*
X79114700Y-81690476D01*
X79114700Y-81690476D02*
X79162319Y-81833333D01*
X79162319Y-81833333D02*
X79162319Y-81928571D01*
X79162319Y-81928571D02*
X79114700Y-82071428D01*
X79114700Y-82071428D02*
X79019461Y-82166666D01*
X79019461Y-82166666D02*
X78924223Y-82214285D01*
X78924223Y-82214285D02*
X78733747Y-82261904D01*
X78733747Y-82261904D02*
X78590890Y-82261904D01*
X78590890Y-82261904D02*
X78400414Y-82214285D01*
X78400414Y-82214285D02*
X78305176Y-82166666D01*
X78305176Y-82166666D02*
X78209938Y-82071428D01*
X78209938Y-82071428D02*
X78162319Y-81928571D01*
X78162319Y-81928571D02*
X78162319Y-81833333D01*
X78162319Y-81833333D02*
X78209938Y-81690476D01*
X78209938Y-81690476D02*
X78257557Y-81642857D01*
X79162319Y-80690476D02*
X79162319Y-81261904D01*
X79162319Y-80976190D02*
X78162319Y-80976190D01*
X78162319Y-80976190D02*
X78305176Y-81071428D01*
X78305176Y-81071428D02*
X78400414Y-81166666D01*
X78400414Y-81166666D02*
X78448033Y-81261904D01*
X78162319Y-79833333D02*
X78162319Y-80023809D01*
X78162319Y-80023809D02*
X78209938Y-80119047D01*
X78209938Y-80119047D02*
X78257557Y-80166666D01*
X78257557Y-80166666D02*
X78400414Y-80261904D01*
X78400414Y-80261904D02*
X78590890Y-80309523D01*
X78590890Y-80309523D02*
X78971842Y-80309523D01*
X78971842Y-80309523D02*
X79067080Y-80261904D01*
X79067080Y-80261904D02*
X79114700Y-80214285D01*
X79114700Y-80214285D02*
X79162319Y-80119047D01*
X79162319Y-80119047D02*
X79162319Y-79928571D01*
X79162319Y-79928571D02*
X79114700Y-79833333D01*
X79114700Y-79833333D02*
X79067080Y-79785714D01*
X79067080Y-79785714D02*
X78971842Y-79738095D01*
X78971842Y-79738095D02*
X78733747Y-79738095D01*
X78733747Y-79738095D02*
X78638509Y-79785714D01*
X78638509Y-79785714D02*
X78590890Y-79833333D01*
X78590890Y-79833333D02*
X78543271Y-79928571D01*
X78543271Y-79928571D02*
X78543271Y-80119047D01*
X78543271Y-80119047D02*
X78590890Y-80214285D01*
X78590890Y-80214285D02*
X78638509Y-80261904D01*
X78638509Y-80261904D02*
X78733747Y-80309523D01*
X86738095Y-86844819D02*
X87309523Y-86844819D01*
X87023809Y-87844819D02*
X87023809Y-86844819D01*
X87642857Y-87844819D02*
X87642857Y-86844819D01*
X87642857Y-86844819D02*
X88023809Y-86844819D01*
X88023809Y-86844819D02*
X88119047Y-86892438D01*
X88119047Y-86892438D02*
X88166666Y-86940057D01*
X88166666Y-86940057D02*
X88214285Y-87035295D01*
X88214285Y-87035295D02*
X88214285Y-87178152D01*
X88214285Y-87178152D02*
X88166666Y-87273390D01*
X88166666Y-87273390D02*
X88119047Y-87321009D01*
X88119047Y-87321009D02*
X88023809Y-87368628D01*
X88023809Y-87368628D02*
X87642857Y-87368628D01*
X89119047Y-86844819D02*
X88642857Y-86844819D01*
X88642857Y-86844819D02*
X88595238Y-87321009D01*
X88595238Y-87321009D02*
X88642857Y-87273390D01*
X88642857Y-87273390D02*
X88738095Y-87225771D01*
X88738095Y-87225771D02*
X88976190Y-87225771D01*
X88976190Y-87225771D02*
X89071428Y-87273390D01*
X89071428Y-87273390D02*
X89119047Y-87321009D01*
X89119047Y-87321009D02*
X89166666Y-87416247D01*
X89166666Y-87416247D02*
X89166666Y-87654342D01*
X89166666Y-87654342D02*
X89119047Y-87749580D01*
X89119047Y-87749580D02*
X89071428Y-87797200D01*
X89071428Y-87797200D02*
X88976190Y-87844819D01*
X88976190Y-87844819D02*
X88738095Y-87844819D01*
X88738095Y-87844819D02*
X88642857Y-87797200D01*
X88642857Y-87797200D02*
X88595238Y-87749580D01*
X121269642Y-55024819D02*
X120936309Y-54548628D01*
X120698214Y-55024819D02*
X120698214Y-54024819D01*
X120698214Y-54024819D02*
X121079166Y-54024819D01*
X121079166Y-54024819D02*
X121174404Y-54072438D01*
X121174404Y-54072438D02*
X121222023Y-54120057D01*
X121222023Y-54120057D02*
X121269642Y-54215295D01*
X121269642Y-54215295D02*
X121269642Y-54358152D01*
X121269642Y-54358152D02*
X121222023Y-54453390D01*
X121222023Y-54453390D02*
X121174404Y-54501009D01*
X121174404Y-54501009D02*
X121079166Y-54548628D01*
X121079166Y-54548628D02*
X120698214Y-54548628D01*
X121650595Y-54120057D02*
X121698214Y-54072438D01*
X121698214Y-54072438D02*
X121793452Y-54024819D01*
X121793452Y-54024819D02*
X122031547Y-54024819D01*
X122031547Y-54024819D02*
X122126785Y-54072438D01*
X122126785Y-54072438D02*
X122174404Y-54120057D01*
X122174404Y-54120057D02*
X122222023Y-54215295D01*
X122222023Y-54215295D02*
X122222023Y-54310533D01*
X122222023Y-54310533D02*
X122174404Y-54453390D01*
X122174404Y-54453390D02*
X121602976Y-55024819D01*
X121602976Y-55024819D02*
X122222023Y-55024819D01*
X122602976Y-54120057D02*
X122650595Y-54072438D01*
X122650595Y-54072438D02*
X122745833Y-54024819D01*
X122745833Y-54024819D02*
X122983928Y-54024819D01*
X122983928Y-54024819D02*
X123079166Y-54072438D01*
X123079166Y-54072438D02*
X123126785Y-54120057D01*
X123126785Y-54120057D02*
X123174404Y-54215295D01*
X123174404Y-54215295D02*
X123174404Y-54310533D01*
X123174404Y-54310533D02*
X123126785Y-54453390D01*
X123126785Y-54453390D02*
X122555357Y-55024819D01*
X122555357Y-55024819D02*
X123174404Y-55024819D01*
X111357142Y-42024819D02*
X111023809Y-41548628D01*
X110785714Y-42024819D02*
X110785714Y-41024819D01*
X110785714Y-41024819D02*
X111166666Y-41024819D01*
X111166666Y-41024819D02*
X111261904Y-41072438D01*
X111261904Y-41072438D02*
X111309523Y-41120057D01*
X111309523Y-41120057D02*
X111357142Y-41215295D01*
X111357142Y-41215295D02*
X111357142Y-41358152D01*
X111357142Y-41358152D02*
X111309523Y-41453390D01*
X111309523Y-41453390D02*
X111261904Y-41501009D01*
X111261904Y-41501009D02*
X111166666Y-41548628D01*
X111166666Y-41548628D02*
X110785714Y-41548628D01*
X111738095Y-41120057D02*
X111785714Y-41072438D01*
X111785714Y-41072438D02*
X111880952Y-41024819D01*
X111880952Y-41024819D02*
X112119047Y-41024819D01*
X112119047Y-41024819D02*
X112214285Y-41072438D01*
X112214285Y-41072438D02*
X112261904Y-41120057D01*
X112261904Y-41120057D02*
X112309523Y-41215295D01*
X112309523Y-41215295D02*
X112309523Y-41310533D01*
X112309523Y-41310533D02*
X112261904Y-41453390D01*
X112261904Y-41453390D02*
X111690476Y-42024819D01*
X111690476Y-42024819D02*
X112309523Y-42024819D01*
X112928571Y-41024819D02*
X113023809Y-41024819D01*
X113023809Y-41024819D02*
X113119047Y-41072438D01*
X113119047Y-41072438D02*
X113166666Y-41120057D01*
X113166666Y-41120057D02*
X113214285Y-41215295D01*
X113214285Y-41215295D02*
X113261904Y-41405771D01*
X113261904Y-41405771D02*
X113261904Y-41643866D01*
X113261904Y-41643866D02*
X113214285Y-41834342D01*
X113214285Y-41834342D02*
X113166666Y-41929580D01*
X113166666Y-41929580D02*
X113119047Y-41977200D01*
X113119047Y-41977200D02*
X113023809Y-42024819D01*
X113023809Y-42024819D02*
X112928571Y-42024819D01*
X112928571Y-42024819D02*
X112833333Y-41977200D01*
X112833333Y-41977200D02*
X112785714Y-41929580D01*
X112785714Y-41929580D02*
X112738095Y-41834342D01*
X112738095Y-41834342D02*
X112690476Y-41643866D01*
X112690476Y-41643866D02*
X112690476Y-41405771D01*
X112690476Y-41405771D02*
X112738095Y-41215295D01*
X112738095Y-41215295D02*
X112785714Y-41120057D01*
X112785714Y-41120057D02*
X112833333Y-41072438D01*
X112833333Y-41072438D02*
X112928571Y-41024819D01*
X113745833Y-80024819D02*
X113412500Y-79548628D01*
X113174405Y-80024819D02*
X113174405Y-79024819D01*
X113174405Y-79024819D02*
X113555357Y-79024819D01*
X113555357Y-79024819D02*
X113650595Y-79072438D01*
X113650595Y-79072438D02*
X113698214Y-79120057D01*
X113698214Y-79120057D02*
X113745833Y-79215295D01*
X113745833Y-79215295D02*
X113745833Y-79358152D01*
X113745833Y-79358152D02*
X113698214Y-79453390D01*
X113698214Y-79453390D02*
X113650595Y-79501009D01*
X113650595Y-79501009D02*
X113555357Y-79548628D01*
X113555357Y-79548628D02*
X113174405Y-79548628D01*
X114317262Y-79453390D02*
X114222024Y-79405771D01*
X114222024Y-79405771D02*
X114174405Y-79358152D01*
X114174405Y-79358152D02*
X114126786Y-79262914D01*
X114126786Y-79262914D02*
X114126786Y-79215295D01*
X114126786Y-79215295D02*
X114174405Y-79120057D01*
X114174405Y-79120057D02*
X114222024Y-79072438D01*
X114222024Y-79072438D02*
X114317262Y-79024819D01*
X114317262Y-79024819D02*
X114507738Y-79024819D01*
X114507738Y-79024819D02*
X114602976Y-79072438D01*
X114602976Y-79072438D02*
X114650595Y-79120057D01*
X114650595Y-79120057D02*
X114698214Y-79215295D01*
X114698214Y-79215295D02*
X114698214Y-79262914D01*
X114698214Y-79262914D02*
X114650595Y-79358152D01*
X114650595Y-79358152D02*
X114602976Y-79405771D01*
X114602976Y-79405771D02*
X114507738Y-79453390D01*
X114507738Y-79453390D02*
X114317262Y-79453390D01*
X114317262Y-79453390D02*
X114222024Y-79501009D01*
X114222024Y-79501009D02*
X114174405Y-79548628D01*
X114174405Y-79548628D02*
X114126786Y-79643866D01*
X114126786Y-79643866D02*
X114126786Y-79834342D01*
X114126786Y-79834342D02*
X114174405Y-79929580D01*
X114174405Y-79929580D02*
X114222024Y-79977200D01*
X114222024Y-79977200D02*
X114317262Y-80024819D01*
X114317262Y-80024819D02*
X114507738Y-80024819D01*
X114507738Y-80024819D02*
X114602976Y-79977200D01*
X114602976Y-79977200D02*
X114650595Y-79929580D01*
X114650595Y-79929580D02*
X114698214Y-79834342D01*
X114698214Y-79834342D02*
X114698214Y-79643866D01*
X114698214Y-79643866D02*
X114650595Y-79548628D01*
X114650595Y-79548628D02*
X114602976Y-79501009D01*
X114602976Y-79501009D02*
X114507738Y-79453390D01*
X69929580Y-39166666D02*
X69977200Y-39214285D01*
X69977200Y-39214285D02*
X70024819Y-39357142D01*
X70024819Y-39357142D02*
X70024819Y-39452380D01*
X70024819Y-39452380D02*
X69977200Y-39595237D01*
X69977200Y-39595237D02*
X69881961Y-39690475D01*
X69881961Y-39690475D02*
X69786723Y-39738094D01*
X69786723Y-39738094D02*
X69596247Y-39785713D01*
X69596247Y-39785713D02*
X69453390Y-39785713D01*
X69453390Y-39785713D02*
X69262914Y-39738094D01*
X69262914Y-39738094D02*
X69167676Y-39690475D01*
X69167676Y-39690475D02*
X69072438Y-39595237D01*
X69072438Y-39595237D02*
X69024819Y-39452380D01*
X69024819Y-39452380D02*
X69024819Y-39357142D01*
X69024819Y-39357142D02*
X69072438Y-39214285D01*
X69072438Y-39214285D02*
X69120057Y-39166666D01*
X69358152Y-38309523D02*
X70024819Y-38309523D01*
X68977200Y-38547618D02*
X69691485Y-38785713D01*
X69691485Y-38785713D02*
X69691485Y-38166666D01*
X98378628Y-50726190D02*
X98854819Y-50726190D01*
X97854819Y-51059523D02*
X98378628Y-50726190D01*
X98378628Y-50726190D02*
X97854819Y-50392857D01*
X98854819Y-49535714D02*
X98854819Y-50107142D01*
X98854819Y-49821428D02*
X97854819Y-49821428D01*
X97854819Y-49821428D02*
X97997676Y-49916666D01*
X97997676Y-49916666D02*
X98092914Y-50011904D01*
X98092914Y-50011904D02*
X98140533Y-50107142D01*
X97929580Y-47029166D02*
X97977200Y-47076785D01*
X97977200Y-47076785D02*
X98024819Y-47219642D01*
X98024819Y-47219642D02*
X98024819Y-47314880D01*
X98024819Y-47314880D02*
X97977200Y-47457737D01*
X97977200Y-47457737D02*
X97881961Y-47552975D01*
X97881961Y-47552975D02*
X97786723Y-47600594D01*
X97786723Y-47600594D02*
X97596247Y-47648213D01*
X97596247Y-47648213D02*
X97453390Y-47648213D01*
X97453390Y-47648213D02*
X97262914Y-47600594D01*
X97262914Y-47600594D02*
X97167676Y-47552975D01*
X97167676Y-47552975D02*
X97072438Y-47457737D01*
X97072438Y-47457737D02*
X97024819Y-47314880D01*
X97024819Y-47314880D02*
X97024819Y-47219642D01*
X97024819Y-47219642D02*
X97072438Y-47076785D01*
X97072438Y-47076785D02*
X97120057Y-47029166D01*
X97453390Y-46457737D02*
X97405771Y-46552975D01*
X97405771Y-46552975D02*
X97358152Y-46600594D01*
X97358152Y-46600594D02*
X97262914Y-46648213D01*
X97262914Y-46648213D02*
X97215295Y-46648213D01*
X97215295Y-46648213D02*
X97120057Y-46600594D01*
X97120057Y-46600594D02*
X97072438Y-46552975D01*
X97072438Y-46552975D02*
X97024819Y-46457737D01*
X97024819Y-46457737D02*
X97024819Y-46267261D01*
X97024819Y-46267261D02*
X97072438Y-46172023D01*
X97072438Y-46172023D02*
X97120057Y-46124404D01*
X97120057Y-46124404D02*
X97215295Y-46076785D01*
X97215295Y-46076785D02*
X97262914Y-46076785D01*
X97262914Y-46076785D02*
X97358152Y-46124404D01*
X97358152Y-46124404D02*
X97405771Y-46172023D01*
X97405771Y-46172023D02*
X97453390Y-46267261D01*
X97453390Y-46267261D02*
X97453390Y-46457737D01*
X97453390Y-46457737D02*
X97501009Y-46552975D01*
X97501009Y-46552975D02*
X97548628Y-46600594D01*
X97548628Y-46600594D02*
X97643866Y-46648213D01*
X97643866Y-46648213D02*
X97834342Y-46648213D01*
X97834342Y-46648213D02*
X97929580Y-46600594D01*
X97929580Y-46600594D02*
X97977200Y-46552975D01*
X97977200Y-46552975D02*
X98024819Y-46457737D01*
X98024819Y-46457737D02*
X98024819Y-46267261D01*
X98024819Y-46267261D02*
X97977200Y-46172023D01*
X97977200Y-46172023D02*
X97929580Y-46124404D01*
X97929580Y-46124404D02*
X97834342Y-46076785D01*
X97834342Y-46076785D02*
X97643866Y-46076785D01*
X97643866Y-46076785D02*
X97548628Y-46124404D01*
X97548628Y-46124404D02*
X97501009Y-46172023D01*
X97501009Y-46172023D02*
X97453390Y-46267261D01*
X82219642Y-106789580D02*
X82172023Y-106837200D01*
X82172023Y-106837200D02*
X82029166Y-106884819D01*
X82029166Y-106884819D02*
X81933928Y-106884819D01*
X81933928Y-106884819D02*
X81791071Y-106837200D01*
X81791071Y-106837200D02*
X81695833Y-106741961D01*
X81695833Y-106741961D02*
X81648214Y-106646723D01*
X81648214Y-106646723D02*
X81600595Y-106456247D01*
X81600595Y-106456247D02*
X81600595Y-106313390D01*
X81600595Y-106313390D02*
X81648214Y-106122914D01*
X81648214Y-106122914D02*
X81695833Y-106027676D01*
X81695833Y-106027676D02*
X81791071Y-105932438D01*
X81791071Y-105932438D02*
X81933928Y-105884819D01*
X81933928Y-105884819D02*
X82029166Y-105884819D01*
X82029166Y-105884819D02*
X82172023Y-105932438D01*
X82172023Y-105932438D02*
X82219642Y-105980057D01*
X83172023Y-106884819D02*
X82600595Y-106884819D01*
X82886309Y-106884819D02*
X82886309Y-105884819D01*
X82886309Y-105884819D02*
X82791071Y-106027676D01*
X82791071Y-106027676D02*
X82695833Y-106122914D01*
X82695833Y-106122914D02*
X82600595Y-106170533D01*
X84076785Y-105884819D02*
X83600595Y-105884819D01*
X83600595Y-105884819D02*
X83552976Y-106361009D01*
X83552976Y-106361009D02*
X83600595Y-106313390D01*
X83600595Y-106313390D02*
X83695833Y-106265771D01*
X83695833Y-106265771D02*
X83933928Y-106265771D01*
X83933928Y-106265771D02*
X84029166Y-106313390D01*
X84029166Y-106313390D02*
X84076785Y-106361009D01*
X84076785Y-106361009D02*
X84124404Y-106456247D01*
X84124404Y-106456247D02*
X84124404Y-106694342D01*
X84124404Y-106694342D02*
X84076785Y-106789580D01*
X84076785Y-106789580D02*
X84029166Y-106837200D01*
X84029166Y-106837200D02*
X83933928Y-106884819D01*
X83933928Y-106884819D02*
X83695833Y-106884819D01*
X83695833Y-106884819D02*
X83600595Y-106837200D01*
X83600595Y-106837200D02*
X83552976Y-106789580D01*
X104357142Y-52024819D02*
X104023809Y-51548628D01*
X103785714Y-52024819D02*
X103785714Y-51024819D01*
X103785714Y-51024819D02*
X104166666Y-51024819D01*
X104166666Y-51024819D02*
X104261904Y-51072438D01*
X104261904Y-51072438D02*
X104309523Y-51120057D01*
X104309523Y-51120057D02*
X104357142Y-51215295D01*
X104357142Y-51215295D02*
X104357142Y-51358152D01*
X104357142Y-51358152D02*
X104309523Y-51453390D01*
X104309523Y-51453390D02*
X104261904Y-51501009D01*
X104261904Y-51501009D02*
X104166666Y-51548628D01*
X104166666Y-51548628D02*
X103785714Y-51548628D01*
X105309523Y-52024819D02*
X104738095Y-52024819D01*
X105023809Y-52024819D02*
X105023809Y-51024819D01*
X105023809Y-51024819D02*
X104928571Y-51167676D01*
X104928571Y-51167676D02*
X104833333Y-51262914D01*
X104833333Y-51262914D02*
X104738095Y-51310533D01*
X105785714Y-52024819D02*
X105976190Y-52024819D01*
X105976190Y-52024819D02*
X106071428Y-51977200D01*
X106071428Y-51977200D02*
X106119047Y-51929580D01*
X106119047Y-51929580D02*
X106214285Y-51786723D01*
X106214285Y-51786723D02*
X106261904Y-51596247D01*
X106261904Y-51596247D02*
X106261904Y-51215295D01*
X106261904Y-51215295D02*
X106214285Y-51120057D01*
X106214285Y-51120057D02*
X106166666Y-51072438D01*
X106166666Y-51072438D02*
X106071428Y-51024819D01*
X106071428Y-51024819D02*
X105880952Y-51024819D01*
X105880952Y-51024819D02*
X105785714Y-51072438D01*
X105785714Y-51072438D02*
X105738095Y-51120057D01*
X105738095Y-51120057D02*
X105690476Y-51215295D01*
X105690476Y-51215295D02*
X105690476Y-51453390D01*
X105690476Y-51453390D02*
X105738095Y-51548628D01*
X105738095Y-51548628D02*
X105785714Y-51596247D01*
X105785714Y-51596247D02*
X105880952Y-51643866D01*
X105880952Y-51643866D02*
X106071428Y-51643866D01*
X106071428Y-51643866D02*
X106166666Y-51596247D01*
X106166666Y-51596247D02*
X106214285Y-51548628D01*
X106214285Y-51548628D02*
X106261904Y-51453390D01*
X115663095Y-59149819D02*
X115663095Y-59959342D01*
X115663095Y-59959342D02*
X115710714Y-60054580D01*
X115710714Y-60054580D02*
X115758333Y-60102200D01*
X115758333Y-60102200D02*
X115853571Y-60149819D01*
X115853571Y-60149819D02*
X116044047Y-60149819D01*
X116044047Y-60149819D02*
X116139285Y-60102200D01*
X116139285Y-60102200D02*
X116186904Y-60054580D01*
X116186904Y-60054580D02*
X116234523Y-59959342D01*
X116234523Y-59959342D02*
X116234523Y-59149819D01*
X116615476Y-59149819D02*
X117234523Y-59149819D01*
X117234523Y-59149819D02*
X116901190Y-59530771D01*
X116901190Y-59530771D02*
X117044047Y-59530771D01*
X117044047Y-59530771D02*
X117139285Y-59578390D01*
X117139285Y-59578390D02*
X117186904Y-59626009D01*
X117186904Y-59626009D02*
X117234523Y-59721247D01*
X117234523Y-59721247D02*
X117234523Y-59959342D01*
X117234523Y-59959342D02*
X117186904Y-60054580D01*
X117186904Y-60054580D02*
X117139285Y-60102200D01*
X117139285Y-60102200D02*
X117044047Y-60149819D01*
X117044047Y-60149819D02*
X116758333Y-60149819D01*
X116758333Y-60149819D02*
X116663095Y-60102200D01*
X116663095Y-60102200D02*
X116615476Y-60054580D01*
X105920833Y-47024819D02*
X105587500Y-46548628D01*
X105349405Y-47024819D02*
X105349405Y-46024819D01*
X105349405Y-46024819D02*
X105730357Y-46024819D01*
X105730357Y-46024819D02*
X105825595Y-46072438D01*
X105825595Y-46072438D02*
X105873214Y-46120057D01*
X105873214Y-46120057D02*
X105920833Y-46215295D01*
X105920833Y-46215295D02*
X105920833Y-46358152D01*
X105920833Y-46358152D02*
X105873214Y-46453390D01*
X105873214Y-46453390D02*
X105825595Y-46501009D01*
X105825595Y-46501009D02*
X105730357Y-46548628D01*
X105730357Y-46548628D02*
X105349405Y-46548628D01*
X106397024Y-47024819D02*
X106587500Y-47024819D01*
X106587500Y-47024819D02*
X106682738Y-46977200D01*
X106682738Y-46977200D02*
X106730357Y-46929580D01*
X106730357Y-46929580D02*
X106825595Y-46786723D01*
X106825595Y-46786723D02*
X106873214Y-46596247D01*
X106873214Y-46596247D02*
X106873214Y-46215295D01*
X106873214Y-46215295D02*
X106825595Y-46120057D01*
X106825595Y-46120057D02*
X106777976Y-46072438D01*
X106777976Y-46072438D02*
X106682738Y-46024819D01*
X106682738Y-46024819D02*
X106492262Y-46024819D01*
X106492262Y-46024819D02*
X106397024Y-46072438D01*
X106397024Y-46072438D02*
X106349405Y-46120057D01*
X106349405Y-46120057D02*
X106301786Y-46215295D01*
X106301786Y-46215295D02*
X106301786Y-46453390D01*
X106301786Y-46453390D02*
X106349405Y-46548628D01*
X106349405Y-46548628D02*
X106397024Y-46596247D01*
X106397024Y-46596247D02*
X106492262Y-46643866D01*
X106492262Y-46643866D02*
X106682738Y-46643866D01*
X106682738Y-46643866D02*
X106777976Y-46596247D01*
X106777976Y-46596247D02*
X106825595Y-46548628D01*
X106825595Y-46548628D02*
X106873214Y-46453390D01*
X114738095Y-86844819D02*
X115309523Y-86844819D01*
X115023809Y-87844819D02*
X115023809Y-86844819D01*
X115642857Y-87844819D02*
X115642857Y-86844819D01*
X115642857Y-86844819D02*
X116023809Y-86844819D01*
X116023809Y-86844819D02*
X116119047Y-86892438D01*
X116119047Y-86892438D02*
X116166666Y-86940057D01*
X116166666Y-86940057D02*
X116214285Y-87035295D01*
X116214285Y-87035295D02*
X116214285Y-87178152D01*
X116214285Y-87178152D02*
X116166666Y-87273390D01*
X116166666Y-87273390D02*
X116119047Y-87321009D01*
X116119047Y-87321009D02*
X116023809Y-87368628D01*
X116023809Y-87368628D02*
X115642857Y-87368628D01*
X116690476Y-87844819D02*
X116880952Y-87844819D01*
X116880952Y-87844819D02*
X116976190Y-87797200D01*
X116976190Y-87797200D02*
X117023809Y-87749580D01*
X117023809Y-87749580D02*
X117119047Y-87606723D01*
X117119047Y-87606723D02*
X117166666Y-87416247D01*
X117166666Y-87416247D02*
X117166666Y-87035295D01*
X117166666Y-87035295D02*
X117119047Y-86940057D01*
X117119047Y-86940057D02*
X117071428Y-86892438D01*
X117071428Y-86892438D02*
X116976190Y-86844819D01*
X116976190Y-86844819D02*
X116785714Y-86844819D01*
X116785714Y-86844819D02*
X116690476Y-86892438D01*
X116690476Y-86892438D02*
X116642857Y-86940057D01*
X116642857Y-86940057D02*
X116595238Y-87035295D01*
X116595238Y-87035295D02*
X116595238Y-87273390D01*
X116595238Y-87273390D02*
X116642857Y-87368628D01*
X116642857Y-87368628D02*
X116690476Y-87416247D01*
X116690476Y-87416247D02*
X116785714Y-87463866D01*
X116785714Y-87463866D02*
X116976190Y-87463866D01*
X116976190Y-87463866D02*
X117071428Y-87416247D01*
X117071428Y-87416247D02*
X117119047Y-87368628D01*
X117119047Y-87368628D02*
X117166666Y-87273390D01*
X84219642Y-86789580D02*
X84172023Y-86837200D01*
X84172023Y-86837200D02*
X84029166Y-86884819D01*
X84029166Y-86884819D02*
X83933928Y-86884819D01*
X83933928Y-86884819D02*
X83791071Y-86837200D01*
X83791071Y-86837200D02*
X83695833Y-86741961D01*
X83695833Y-86741961D02*
X83648214Y-86646723D01*
X83648214Y-86646723D02*
X83600595Y-86456247D01*
X83600595Y-86456247D02*
X83600595Y-86313390D01*
X83600595Y-86313390D02*
X83648214Y-86122914D01*
X83648214Y-86122914D02*
X83695833Y-86027676D01*
X83695833Y-86027676D02*
X83791071Y-85932438D01*
X83791071Y-85932438D02*
X83933928Y-85884819D01*
X83933928Y-85884819D02*
X84029166Y-85884819D01*
X84029166Y-85884819D02*
X84172023Y-85932438D01*
X84172023Y-85932438D02*
X84219642Y-85980057D01*
X85172023Y-86884819D02*
X84600595Y-86884819D01*
X84886309Y-86884819D02*
X84886309Y-85884819D01*
X84886309Y-85884819D02*
X84791071Y-86027676D01*
X84791071Y-86027676D02*
X84695833Y-86122914D01*
X84695833Y-86122914D02*
X84600595Y-86170533D01*
X85505357Y-85884819D02*
X86124404Y-85884819D01*
X86124404Y-85884819D02*
X85791071Y-86265771D01*
X85791071Y-86265771D02*
X85933928Y-86265771D01*
X85933928Y-86265771D02*
X86029166Y-86313390D01*
X86029166Y-86313390D02*
X86076785Y-86361009D01*
X86076785Y-86361009D02*
X86124404Y-86456247D01*
X86124404Y-86456247D02*
X86124404Y-86694342D01*
X86124404Y-86694342D02*
X86076785Y-86789580D01*
X86076785Y-86789580D02*
X86029166Y-86837200D01*
X86029166Y-86837200D02*
X85933928Y-86884819D01*
X85933928Y-86884819D02*
X85648214Y-86884819D01*
X85648214Y-86884819D02*
X85552976Y-86837200D01*
X85552976Y-86837200D02*
X85505357Y-86789580D01*
X78554819Y-82513094D02*
X79364342Y-82513094D01*
X79364342Y-82513094D02*
X79459580Y-82465475D01*
X79459580Y-82465475D02*
X79507200Y-82417856D01*
X79507200Y-82417856D02*
X79554819Y-82322618D01*
X79554819Y-82322618D02*
X79554819Y-82132142D01*
X79554819Y-82132142D02*
X79507200Y-82036904D01*
X79507200Y-82036904D02*
X79459580Y-81989285D01*
X79459580Y-81989285D02*
X79364342Y-81941666D01*
X79364342Y-81941666D02*
X78554819Y-81941666D01*
X79554819Y-80941666D02*
X79554819Y-81513094D01*
X79554819Y-81227380D02*
X78554819Y-81227380D01*
X78554819Y-81227380D02*
X78697676Y-81322618D01*
X78697676Y-81322618D02*
X78792914Y-81417856D01*
X78792914Y-81417856D02*
X78840533Y-81513094D01*
X78554819Y-80322618D02*
X78554819Y-80227380D01*
X78554819Y-80227380D02*
X78602438Y-80132142D01*
X78602438Y-80132142D02*
X78650057Y-80084523D01*
X78650057Y-80084523D02*
X78745295Y-80036904D01*
X78745295Y-80036904D02*
X78935771Y-79989285D01*
X78935771Y-79989285D02*
X79173866Y-79989285D01*
X79173866Y-79989285D02*
X79364342Y-80036904D01*
X79364342Y-80036904D02*
X79459580Y-80084523D01*
X79459580Y-80084523D02*
X79507200Y-80132142D01*
X79507200Y-80132142D02*
X79554819Y-80227380D01*
X79554819Y-80227380D02*
X79554819Y-80322618D01*
X79554819Y-80322618D02*
X79507200Y-80417856D01*
X79507200Y-80417856D02*
X79459580Y-80465475D01*
X79459580Y-80465475D02*
X79364342Y-80513094D01*
X79364342Y-80513094D02*
X79173866Y-80560713D01*
X79173866Y-80560713D02*
X78935771Y-80560713D01*
X78935771Y-80560713D02*
X78745295Y-80513094D01*
X78745295Y-80513094D02*
X78650057Y-80465475D01*
X78650057Y-80465475D02*
X78602438Y-80417856D01*
X78602438Y-80417856D02*
X78554819Y-80322618D01*
X80884819Y-95730357D02*
X80408628Y-96063690D01*
X80884819Y-96301785D02*
X79884819Y-96301785D01*
X79884819Y-96301785D02*
X79884819Y-95920833D01*
X79884819Y-95920833D02*
X79932438Y-95825595D01*
X79932438Y-95825595D02*
X79980057Y-95777976D01*
X79980057Y-95777976D02*
X80075295Y-95730357D01*
X80075295Y-95730357D02*
X80218152Y-95730357D01*
X80218152Y-95730357D02*
X80313390Y-95777976D01*
X80313390Y-95777976D02*
X80361009Y-95825595D01*
X80361009Y-95825595D02*
X80408628Y-95920833D01*
X80408628Y-95920833D02*
X80408628Y-96301785D01*
X79980057Y-95349404D02*
X79932438Y-95301785D01*
X79932438Y-95301785D02*
X79884819Y-95206547D01*
X79884819Y-95206547D02*
X79884819Y-94968452D01*
X79884819Y-94968452D02*
X79932438Y-94873214D01*
X79932438Y-94873214D02*
X79980057Y-94825595D01*
X79980057Y-94825595D02*
X80075295Y-94777976D01*
X80075295Y-94777976D02*
X80170533Y-94777976D01*
X80170533Y-94777976D02*
X80313390Y-94825595D01*
X80313390Y-94825595D02*
X80884819Y-95397023D01*
X80884819Y-95397023D02*
X80884819Y-94777976D01*
X80218152Y-93920833D02*
X80884819Y-93920833D01*
X79837200Y-94158928D02*
X80551485Y-94397023D01*
X80551485Y-94397023D02*
X80551485Y-93777976D01*
X107738095Y-40844819D02*
X108309523Y-40844819D01*
X108023809Y-41844819D02*
X108023809Y-40844819D01*
X108642857Y-41844819D02*
X108642857Y-40844819D01*
X108642857Y-40844819D02*
X109023809Y-40844819D01*
X109023809Y-40844819D02*
X109119047Y-40892438D01*
X109119047Y-40892438D02*
X109166666Y-40940057D01*
X109166666Y-40940057D02*
X109214285Y-41035295D01*
X109214285Y-41035295D02*
X109214285Y-41178152D01*
X109214285Y-41178152D02*
X109166666Y-41273390D01*
X109166666Y-41273390D02*
X109119047Y-41321009D01*
X109119047Y-41321009D02*
X109023809Y-41368628D01*
X109023809Y-41368628D02*
X108642857Y-41368628D01*
X109595238Y-40940057D02*
X109642857Y-40892438D01*
X109642857Y-40892438D02*
X109738095Y-40844819D01*
X109738095Y-40844819D02*
X109976190Y-40844819D01*
X109976190Y-40844819D02*
X110071428Y-40892438D01*
X110071428Y-40892438D02*
X110119047Y-40940057D01*
X110119047Y-40940057D02*
X110166666Y-41035295D01*
X110166666Y-41035295D02*
X110166666Y-41130533D01*
X110166666Y-41130533D02*
X110119047Y-41273390D01*
X110119047Y-41273390D02*
X109547619Y-41844819D01*
X109547619Y-41844819D02*
X110166666Y-41844819D01*
X96884819Y-99642857D02*
X96408628Y-99976190D01*
X96884819Y-100214285D02*
X95884819Y-100214285D01*
X95884819Y-100214285D02*
X95884819Y-99833333D01*
X95884819Y-99833333D02*
X95932438Y-99738095D01*
X95932438Y-99738095D02*
X95980057Y-99690476D01*
X95980057Y-99690476D02*
X96075295Y-99642857D01*
X96075295Y-99642857D02*
X96218152Y-99642857D01*
X96218152Y-99642857D02*
X96313390Y-99690476D01*
X96313390Y-99690476D02*
X96361009Y-99738095D01*
X96361009Y-99738095D02*
X96408628Y-99833333D01*
X96408628Y-99833333D02*
X96408628Y-100214285D01*
X95980057Y-99261904D02*
X95932438Y-99214285D01*
X95932438Y-99214285D02*
X95884819Y-99119047D01*
X95884819Y-99119047D02*
X95884819Y-98880952D01*
X95884819Y-98880952D02*
X95932438Y-98785714D01*
X95932438Y-98785714D02*
X95980057Y-98738095D01*
X95980057Y-98738095D02*
X96075295Y-98690476D01*
X96075295Y-98690476D02*
X96170533Y-98690476D01*
X96170533Y-98690476D02*
X96313390Y-98738095D01*
X96313390Y-98738095D02*
X96884819Y-99309523D01*
X96884819Y-99309523D02*
X96884819Y-98690476D01*
X95884819Y-98357142D02*
X95884819Y-97690476D01*
X95884819Y-97690476D02*
X96884819Y-98119047D01*
X89679580Y-86605357D02*
X89727200Y-86652976D01*
X89727200Y-86652976D02*
X89774819Y-86795833D01*
X89774819Y-86795833D02*
X89774819Y-86891071D01*
X89774819Y-86891071D02*
X89727200Y-87033928D01*
X89727200Y-87033928D02*
X89631961Y-87129166D01*
X89631961Y-87129166D02*
X89536723Y-87176785D01*
X89536723Y-87176785D02*
X89346247Y-87224404D01*
X89346247Y-87224404D02*
X89203390Y-87224404D01*
X89203390Y-87224404D02*
X89012914Y-87176785D01*
X89012914Y-87176785D02*
X88917676Y-87129166D01*
X88917676Y-87129166D02*
X88822438Y-87033928D01*
X88822438Y-87033928D02*
X88774819Y-86891071D01*
X88774819Y-86891071D02*
X88774819Y-86795833D01*
X88774819Y-86795833D02*
X88822438Y-86652976D01*
X88822438Y-86652976D02*
X88870057Y-86605357D01*
X89774819Y-85652976D02*
X89774819Y-86224404D01*
X89774819Y-85938690D02*
X88774819Y-85938690D01*
X88774819Y-85938690D02*
X88917676Y-86033928D01*
X88917676Y-86033928D02*
X89012914Y-86129166D01*
X89012914Y-86129166D02*
X89060533Y-86224404D01*
X88774819Y-85319642D02*
X88774819Y-84652976D01*
X88774819Y-84652976D02*
X89774819Y-85081547D01*
X115920833Y-67024819D02*
X115587500Y-66548628D01*
X115349405Y-67024819D02*
X115349405Y-66024819D01*
X115349405Y-66024819D02*
X115730357Y-66024819D01*
X115730357Y-66024819D02*
X115825595Y-66072438D01*
X115825595Y-66072438D02*
X115873214Y-66120057D01*
X115873214Y-66120057D02*
X115920833Y-66215295D01*
X115920833Y-66215295D02*
X115920833Y-66358152D01*
X115920833Y-66358152D02*
X115873214Y-66453390D01*
X115873214Y-66453390D02*
X115825595Y-66501009D01*
X115825595Y-66501009D02*
X115730357Y-66548628D01*
X115730357Y-66548628D02*
X115349405Y-66548628D01*
X116825595Y-66024819D02*
X116349405Y-66024819D01*
X116349405Y-66024819D02*
X116301786Y-66501009D01*
X116301786Y-66501009D02*
X116349405Y-66453390D01*
X116349405Y-66453390D02*
X116444643Y-66405771D01*
X116444643Y-66405771D02*
X116682738Y-66405771D01*
X116682738Y-66405771D02*
X116777976Y-66453390D01*
X116777976Y-66453390D02*
X116825595Y-66501009D01*
X116825595Y-66501009D02*
X116873214Y-66596247D01*
X116873214Y-66596247D02*
X116873214Y-66834342D01*
X116873214Y-66834342D02*
X116825595Y-66929580D01*
X116825595Y-66929580D02*
X116777976Y-66977200D01*
X116777976Y-66977200D02*
X116682738Y-67024819D01*
X116682738Y-67024819D02*
X116444643Y-67024819D01*
X116444643Y-67024819D02*
X116349405Y-66977200D01*
X116349405Y-66977200D02*
X116301786Y-66929580D01*
X86454819Y-99188094D02*
X85454819Y-99188094D01*
X85454819Y-99188094D02*
X85454819Y-98949999D01*
X85454819Y-98949999D02*
X85502438Y-98807142D01*
X85502438Y-98807142D02*
X85597676Y-98711904D01*
X85597676Y-98711904D02*
X85692914Y-98664285D01*
X85692914Y-98664285D02*
X85883390Y-98616666D01*
X85883390Y-98616666D02*
X86026247Y-98616666D01*
X86026247Y-98616666D02*
X86216723Y-98664285D01*
X86216723Y-98664285D02*
X86311961Y-98711904D01*
X86311961Y-98711904D02*
X86407200Y-98807142D01*
X86407200Y-98807142D02*
X86454819Y-98949999D01*
X86454819Y-98949999D02*
X86454819Y-99188094D01*
X85454819Y-97711904D02*
X85454819Y-98188094D01*
X85454819Y-98188094D02*
X85931009Y-98235713D01*
X85931009Y-98235713D02*
X85883390Y-98188094D01*
X85883390Y-98188094D02*
X85835771Y-98092856D01*
X85835771Y-98092856D02*
X85835771Y-97854761D01*
X85835771Y-97854761D02*
X85883390Y-97759523D01*
X85883390Y-97759523D02*
X85931009Y-97711904D01*
X85931009Y-97711904D02*
X86026247Y-97664285D01*
X86026247Y-97664285D02*
X86264342Y-97664285D01*
X86264342Y-97664285D02*
X86359580Y-97711904D01*
X86359580Y-97711904D02*
X86407200Y-97759523D01*
X86407200Y-97759523D02*
X86454819Y-97854761D01*
X86454819Y-97854761D02*
X86454819Y-98092856D01*
X86454819Y-98092856D02*
X86407200Y-98188094D01*
X86407200Y-98188094D02*
X86359580Y-98235713D01*
X115454819Y-103288094D02*
X114454819Y-103288094D01*
X114454819Y-103288094D02*
X114454819Y-103049999D01*
X114454819Y-103049999D02*
X114502438Y-102907142D01*
X114502438Y-102907142D02*
X114597676Y-102811904D01*
X114597676Y-102811904D02*
X114692914Y-102764285D01*
X114692914Y-102764285D02*
X114883390Y-102716666D01*
X114883390Y-102716666D02*
X115026247Y-102716666D01*
X115026247Y-102716666D02*
X115216723Y-102764285D01*
X115216723Y-102764285D02*
X115311961Y-102811904D01*
X115311961Y-102811904D02*
X115407200Y-102907142D01*
X115407200Y-102907142D02*
X115454819Y-103049999D01*
X115454819Y-103049999D02*
X115454819Y-103288094D01*
X114788152Y-101859523D02*
X115454819Y-101859523D01*
X114407200Y-102097618D02*
X115121485Y-102335713D01*
X115121485Y-102335713D02*
X115121485Y-101716666D01*
X78920833Y-86884819D02*
X78587500Y-86408628D01*
X78349405Y-86884819D02*
X78349405Y-85884819D01*
X78349405Y-85884819D02*
X78730357Y-85884819D01*
X78730357Y-85884819D02*
X78825595Y-85932438D01*
X78825595Y-85932438D02*
X78873214Y-85980057D01*
X78873214Y-85980057D02*
X78920833Y-86075295D01*
X78920833Y-86075295D02*
X78920833Y-86218152D01*
X78920833Y-86218152D02*
X78873214Y-86313390D01*
X78873214Y-86313390D02*
X78825595Y-86361009D01*
X78825595Y-86361009D02*
X78730357Y-86408628D01*
X78730357Y-86408628D02*
X78349405Y-86408628D01*
X79254167Y-85884819D02*
X79873214Y-85884819D01*
X79873214Y-85884819D02*
X79539881Y-86265771D01*
X79539881Y-86265771D02*
X79682738Y-86265771D01*
X79682738Y-86265771D02*
X79777976Y-86313390D01*
X79777976Y-86313390D02*
X79825595Y-86361009D01*
X79825595Y-86361009D02*
X79873214Y-86456247D01*
X79873214Y-86456247D02*
X79873214Y-86694342D01*
X79873214Y-86694342D02*
X79825595Y-86789580D01*
X79825595Y-86789580D02*
X79777976Y-86837200D01*
X79777976Y-86837200D02*
X79682738Y-86884819D01*
X79682738Y-86884819D02*
X79397024Y-86884819D01*
X79397024Y-86884819D02*
X79301786Y-86837200D01*
X79301786Y-86837200D02*
X79254167Y-86789580D01*
X98745833Y-78024819D02*
X98412500Y-77548628D01*
X98174405Y-78024819D02*
X98174405Y-77024819D01*
X98174405Y-77024819D02*
X98555357Y-77024819D01*
X98555357Y-77024819D02*
X98650595Y-77072438D01*
X98650595Y-77072438D02*
X98698214Y-77120057D01*
X98698214Y-77120057D02*
X98745833Y-77215295D01*
X98745833Y-77215295D02*
X98745833Y-77358152D01*
X98745833Y-77358152D02*
X98698214Y-77453390D01*
X98698214Y-77453390D02*
X98650595Y-77501009D01*
X98650595Y-77501009D02*
X98555357Y-77548628D01*
X98555357Y-77548628D02*
X98174405Y-77548628D01*
X99602976Y-77358152D02*
X99602976Y-78024819D01*
X99364881Y-76977200D02*
X99126786Y-77691485D01*
X99126786Y-77691485D02*
X99745833Y-77691485D01*
X117789580Y-45780357D02*
X117837200Y-45827976D01*
X117837200Y-45827976D02*
X117884819Y-45970833D01*
X117884819Y-45970833D02*
X117884819Y-46066071D01*
X117884819Y-46066071D02*
X117837200Y-46208928D01*
X117837200Y-46208928D02*
X117741961Y-46304166D01*
X117741961Y-46304166D02*
X117646723Y-46351785D01*
X117646723Y-46351785D02*
X117456247Y-46399404D01*
X117456247Y-46399404D02*
X117313390Y-46399404D01*
X117313390Y-46399404D02*
X117122914Y-46351785D01*
X117122914Y-46351785D02*
X117027676Y-46304166D01*
X117027676Y-46304166D02*
X116932438Y-46208928D01*
X116932438Y-46208928D02*
X116884819Y-46066071D01*
X116884819Y-46066071D02*
X116884819Y-45970833D01*
X116884819Y-45970833D02*
X116932438Y-45827976D01*
X116932438Y-45827976D02*
X116980057Y-45780357D01*
X117884819Y-44827976D02*
X117884819Y-45399404D01*
X117884819Y-45113690D02*
X116884819Y-45113690D01*
X116884819Y-45113690D02*
X117027676Y-45208928D01*
X117027676Y-45208928D02*
X117122914Y-45304166D01*
X117122914Y-45304166D02*
X117170533Y-45399404D01*
X116980057Y-44447023D02*
X116932438Y-44399404D01*
X116932438Y-44399404D02*
X116884819Y-44304166D01*
X116884819Y-44304166D02*
X116884819Y-44066071D01*
X116884819Y-44066071D02*
X116932438Y-43970833D01*
X116932438Y-43970833D02*
X116980057Y-43923214D01*
X116980057Y-43923214D02*
X117075295Y-43875595D01*
X117075295Y-43875595D02*
X117170533Y-43875595D01*
X117170533Y-43875595D02*
X117313390Y-43923214D01*
X117313390Y-43923214D02*
X117884819Y-44494642D01*
X117884819Y-44494642D02*
X117884819Y-43875595D01*
X75969642Y-39929580D02*
X75922023Y-39977200D01*
X75922023Y-39977200D02*
X75779166Y-40024819D01*
X75779166Y-40024819D02*
X75683928Y-40024819D01*
X75683928Y-40024819D02*
X75541071Y-39977200D01*
X75541071Y-39977200D02*
X75445833Y-39881961D01*
X75445833Y-39881961D02*
X75398214Y-39786723D01*
X75398214Y-39786723D02*
X75350595Y-39596247D01*
X75350595Y-39596247D02*
X75350595Y-39453390D01*
X75350595Y-39453390D02*
X75398214Y-39262914D01*
X75398214Y-39262914D02*
X75445833Y-39167676D01*
X75445833Y-39167676D02*
X75541071Y-39072438D01*
X75541071Y-39072438D02*
X75683928Y-39024819D01*
X75683928Y-39024819D02*
X75779166Y-39024819D01*
X75779166Y-39024819D02*
X75922023Y-39072438D01*
X75922023Y-39072438D02*
X75969642Y-39120057D01*
X76350595Y-39120057D02*
X76398214Y-39072438D01*
X76398214Y-39072438D02*
X76493452Y-39024819D01*
X76493452Y-39024819D02*
X76731547Y-39024819D01*
X76731547Y-39024819D02*
X76826785Y-39072438D01*
X76826785Y-39072438D02*
X76874404Y-39120057D01*
X76874404Y-39120057D02*
X76922023Y-39215295D01*
X76922023Y-39215295D02*
X76922023Y-39310533D01*
X76922023Y-39310533D02*
X76874404Y-39453390D01*
X76874404Y-39453390D02*
X76302976Y-40024819D01*
X76302976Y-40024819D02*
X76922023Y-40024819D01*
X77779166Y-39358152D02*
X77779166Y-40024819D01*
X77541071Y-38977200D02*
X77302976Y-39691485D01*
X77302976Y-39691485D02*
X77922023Y-39691485D01*
X120269642Y-45024819D02*
X119936309Y-44548628D01*
X119698214Y-45024819D02*
X119698214Y-44024819D01*
X119698214Y-44024819D02*
X120079166Y-44024819D01*
X120079166Y-44024819D02*
X120174404Y-44072438D01*
X120174404Y-44072438D02*
X120222023Y-44120057D01*
X120222023Y-44120057D02*
X120269642Y-44215295D01*
X120269642Y-44215295D02*
X120269642Y-44358152D01*
X120269642Y-44358152D02*
X120222023Y-44453390D01*
X120222023Y-44453390D02*
X120174404Y-44501009D01*
X120174404Y-44501009D02*
X120079166Y-44548628D01*
X120079166Y-44548628D02*
X119698214Y-44548628D01*
X121222023Y-45024819D02*
X120650595Y-45024819D01*
X120936309Y-45024819D02*
X120936309Y-44024819D01*
X120936309Y-44024819D02*
X120841071Y-44167676D01*
X120841071Y-44167676D02*
X120745833Y-44262914D01*
X120745833Y-44262914D02*
X120650595Y-44310533D01*
X121555357Y-44024819D02*
X122222023Y-44024819D01*
X122222023Y-44024819D02*
X121793452Y-45024819D01*
X116970595Y-39964819D02*
X116970595Y-40774342D01*
X116970595Y-40774342D02*
X117018214Y-40869580D01*
X117018214Y-40869580D02*
X117065833Y-40917200D01*
X117065833Y-40917200D02*
X117161071Y-40964819D01*
X117161071Y-40964819D02*
X117351547Y-40964819D01*
X117351547Y-40964819D02*
X117446785Y-40917200D01*
X117446785Y-40917200D02*
X117494404Y-40869580D01*
X117494404Y-40869580D02*
X117542023Y-40774342D01*
X117542023Y-40774342D02*
X117542023Y-39964819D01*
X118542023Y-40964819D02*
X117970595Y-40964819D01*
X118256309Y-40964819D02*
X118256309Y-39964819D01*
X118256309Y-39964819D02*
X118161071Y-40107676D01*
X118161071Y-40107676D02*
X118065833Y-40202914D01*
X118065833Y-40202914D02*
X117970595Y-40250533D01*
X88024819Y-81642857D02*
X87548628Y-81976190D01*
X88024819Y-82214285D02*
X87024819Y-82214285D01*
X87024819Y-82214285D02*
X87024819Y-81833333D01*
X87024819Y-81833333D02*
X87072438Y-81738095D01*
X87072438Y-81738095D02*
X87120057Y-81690476D01*
X87120057Y-81690476D02*
X87215295Y-81642857D01*
X87215295Y-81642857D02*
X87358152Y-81642857D01*
X87358152Y-81642857D02*
X87453390Y-81690476D01*
X87453390Y-81690476D02*
X87501009Y-81738095D01*
X87501009Y-81738095D02*
X87548628Y-81833333D01*
X87548628Y-81833333D02*
X87548628Y-82214285D01*
X87120057Y-81261904D02*
X87072438Y-81214285D01*
X87072438Y-81214285D02*
X87024819Y-81119047D01*
X87024819Y-81119047D02*
X87024819Y-80880952D01*
X87024819Y-80880952D02*
X87072438Y-80785714D01*
X87072438Y-80785714D02*
X87120057Y-80738095D01*
X87120057Y-80738095D02*
X87215295Y-80690476D01*
X87215295Y-80690476D02*
X87310533Y-80690476D01*
X87310533Y-80690476D02*
X87453390Y-80738095D01*
X87453390Y-80738095D02*
X88024819Y-81309523D01*
X88024819Y-81309523D02*
X88024819Y-80690476D01*
X87024819Y-79785714D02*
X87024819Y-80261904D01*
X87024819Y-80261904D02*
X87501009Y-80309523D01*
X87501009Y-80309523D02*
X87453390Y-80261904D01*
X87453390Y-80261904D02*
X87405771Y-80166666D01*
X87405771Y-80166666D02*
X87405771Y-79928571D01*
X87405771Y-79928571D02*
X87453390Y-79833333D01*
X87453390Y-79833333D02*
X87501009Y-79785714D01*
X87501009Y-79785714D02*
X87596247Y-79738095D01*
X87596247Y-79738095D02*
X87834342Y-79738095D01*
X87834342Y-79738095D02*
X87929580Y-79785714D01*
X87929580Y-79785714D02*
X87977200Y-79833333D01*
X87977200Y-79833333D02*
X88024819Y-79928571D01*
X88024819Y-79928571D02*
X88024819Y-80166666D01*
X88024819Y-80166666D02*
X87977200Y-80261904D01*
X87977200Y-80261904D02*
X87929580Y-80309523D01*
X67713095Y-72419819D02*
X67713095Y-73229342D01*
X67713095Y-73229342D02*
X67760714Y-73324580D01*
X67760714Y-73324580D02*
X67808333Y-73372200D01*
X67808333Y-73372200D02*
X67903571Y-73419819D01*
X67903571Y-73419819D02*
X68094047Y-73419819D01*
X68094047Y-73419819D02*
X68189285Y-73372200D01*
X68189285Y-73372200D02*
X68236904Y-73324580D01*
X68236904Y-73324580D02*
X68284523Y-73229342D01*
X68284523Y-73229342D02*
X68284523Y-72419819D01*
X68713095Y-72515057D02*
X68760714Y-72467438D01*
X68760714Y-72467438D02*
X68855952Y-72419819D01*
X68855952Y-72419819D02*
X69094047Y-72419819D01*
X69094047Y-72419819D02*
X69189285Y-72467438D01*
X69189285Y-72467438D02*
X69236904Y-72515057D01*
X69236904Y-72515057D02*
X69284523Y-72610295D01*
X69284523Y-72610295D02*
X69284523Y-72705533D01*
X69284523Y-72705533D02*
X69236904Y-72848390D01*
X69236904Y-72848390D02*
X68665476Y-73419819D01*
X68665476Y-73419819D02*
X69284523Y-73419819D01*
X96269642Y-55884819D02*
X95936309Y-55408628D01*
X95698214Y-55884819D02*
X95698214Y-54884819D01*
X95698214Y-54884819D02*
X96079166Y-54884819D01*
X96079166Y-54884819D02*
X96174404Y-54932438D01*
X96174404Y-54932438D02*
X96222023Y-54980057D01*
X96222023Y-54980057D02*
X96269642Y-55075295D01*
X96269642Y-55075295D02*
X96269642Y-55218152D01*
X96269642Y-55218152D02*
X96222023Y-55313390D01*
X96222023Y-55313390D02*
X96174404Y-55361009D01*
X96174404Y-55361009D02*
X96079166Y-55408628D01*
X96079166Y-55408628D02*
X95698214Y-55408628D01*
X97222023Y-55884819D02*
X96650595Y-55884819D01*
X96936309Y-55884819D02*
X96936309Y-54884819D01*
X96936309Y-54884819D02*
X96841071Y-55027676D01*
X96841071Y-55027676D02*
X96745833Y-55122914D01*
X96745833Y-55122914D02*
X96650595Y-55170533D01*
X97555357Y-54884819D02*
X98174404Y-54884819D01*
X98174404Y-54884819D02*
X97841071Y-55265771D01*
X97841071Y-55265771D02*
X97983928Y-55265771D01*
X97983928Y-55265771D02*
X98079166Y-55313390D01*
X98079166Y-55313390D02*
X98126785Y-55361009D01*
X98126785Y-55361009D02*
X98174404Y-55456247D01*
X98174404Y-55456247D02*
X98174404Y-55694342D01*
X98174404Y-55694342D02*
X98126785Y-55789580D01*
X98126785Y-55789580D02*
X98079166Y-55837200D01*
X98079166Y-55837200D02*
X97983928Y-55884819D01*
X97983928Y-55884819D02*
X97698214Y-55884819D01*
X97698214Y-55884819D02*
X97602976Y-55837200D01*
X97602976Y-55837200D02*
X97555357Y-55789580D01*
X78064819Y-45761904D02*
X78874342Y-45761904D01*
X78874342Y-45761904D02*
X78969580Y-45714285D01*
X78969580Y-45714285D02*
X79017200Y-45666666D01*
X79017200Y-45666666D02*
X79064819Y-45571428D01*
X79064819Y-45571428D02*
X79064819Y-45380952D01*
X79064819Y-45380952D02*
X79017200Y-45285714D01*
X79017200Y-45285714D02*
X78969580Y-45238095D01*
X78969580Y-45238095D02*
X78874342Y-45190476D01*
X78874342Y-45190476D02*
X78064819Y-45190476D01*
X78064819Y-44285714D02*
X78064819Y-44476190D01*
X78064819Y-44476190D02*
X78112438Y-44571428D01*
X78112438Y-44571428D02*
X78160057Y-44619047D01*
X78160057Y-44619047D02*
X78302914Y-44714285D01*
X78302914Y-44714285D02*
X78493390Y-44761904D01*
X78493390Y-44761904D02*
X78874342Y-44761904D01*
X78874342Y-44761904D02*
X78969580Y-44714285D01*
X78969580Y-44714285D02*
X79017200Y-44666666D01*
X79017200Y-44666666D02*
X79064819Y-44571428D01*
X79064819Y-44571428D02*
X79064819Y-44380952D01*
X79064819Y-44380952D02*
X79017200Y-44285714D01*
X79017200Y-44285714D02*
X78969580Y-44238095D01*
X78969580Y-44238095D02*
X78874342Y-44190476D01*
X78874342Y-44190476D02*
X78636247Y-44190476D01*
X78636247Y-44190476D02*
X78541009Y-44238095D01*
X78541009Y-44238095D02*
X78493390Y-44285714D01*
X78493390Y-44285714D02*
X78445771Y-44380952D01*
X78445771Y-44380952D02*
X78445771Y-44571428D01*
X78445771Y-44571428D02*
X78493390Y-44666666D01*
X78493390Y-44666666D02*
X78541009Y-44714285D01*
X78541009Y-44714285D02*
X78636247Y-44761904D01*
X90929580Y-65029166D02*
X90977200Y-65076785D01*
X90977200Y-65076785D02*
X91024819Y-65219642D01*
X91024819Y-65219642D02*
X91024819Y-65314880D01*
X91024819Y-65314880D02*
X90977200Y-65457737D01*
X90977200Y-65457737D02*
X90881961Y-65552975D01*
X90881961Y-65552975D02*
X90786723Y-65600594D01*
X90786723Y-65600594D02*
X90596247Y-65648213D01*
X90596247Y-65648213D02*
X90453390Y-65648213D01*
X90453390Y-65648213D02*
X90262914Y-65600594D01*
X90262914Y-65600594D02*
X90167676Y-65552975D01*
X90167676Y-65552975D02*
X90072438Y-65457737D01*
X90072438Y-65457737D02*
X90024819Y-65314880D01*
X90024819Y-65314880D02*
X90024819Y-65219642D01*
X90024819Y-65219642D02*
X90072438Y-65076785D01*
X90072438Y-65076785D02*
X90120057Y-65029166D01*
X90024819Y-64124404D02*
X90024819Y-64600594D01*
X90024819Y-64600594D02*
X90501009Y-64648213D01*
X90501009Y-64648213D02*
X90453390Y-64600594D01*
X90453390Y-64600594D02*
X90405771Y-64505356D01*
X90405771Y-64505356D02*
X90405771Y-64267261D01*
X90405771Y-64267261D02*
X90453390Y-64172023D01*
X90453390Y-64172023D02*
X90501009Y-64124404D01*
X90501009Y-64124404D02*
X90596247Y-64076785D01*
X90596247Y-64076785D02*
X90834342Y-64076785D01*
X90834342Y-64076785D02*
X90929580Y-64124404D01*
X90929580Y-64124404D02*
X90977200Y-64172023D01*
X90977200Y-64172023D02*
X91024819Y-64267261D01*
X91024819Y-64267261D02*
X91024819Y-64505356D01*
X91024819Y-64505356D02*
X90977200Y-64600594D01*
X90977200Y-64600594D02*
X90929580Y-64648213D01*
X101238095Y-97454819D02*
X101238095Y-98264342D01*
X101238095Y-98264342D02*
X101285714Y-98359580D01*
X101285714Y-98359580D02*
X101333333Y-98407200D01*
X101333333Y-98407200D02*
X101428571Y-98454819D01*
X101428571Y-98454819D02*
X101619047Y-98454819D01*
X101619047Y-98454819D02*
X101714285Y-98407200D01*
X101714285Y-98407200D02*
X101761904Y-98359580D01*
X101761904Y-98359580D02*
X101809523Y-98264342D01*
X101809523Y-98264342D02*
X101809523Y-97454819D01*
X102333333Y-98454819D02*
X102523809Y-98454819D01*
X102523809Y-98454819D02*
X102619047Y-98407200D01*
X102619047Y-98407200D02*
X102666666Y-98359580D01*
X102666666Y-98359580D02*
X102761904Y-98216723D01*
X102761904Y-98216723D02*
X102809523Y-98026247D01*
X102809523Y-98026247D02*
X102809523Y-97645295D01*
X102809523Y-97645295D02*
X102761904Y-97550057D01*
X102761904Y-97550057D02*
X102714285Y-97502438D01*
X102714285Y-97502438D02*
X102619047Y-97454819D01*
X102619047Y-97454819D02*
X102428571Y-97454819D01*
X102428571Y-97454819D02*
X102333333Y-97502438D01*
X102333333Y-97502438D02*
X102285714Y-97550057D01*
X102285714Y-97550057D02*
X102238095Y-97645295D01*
X102238095Y-97645295D02*
X102238095Y-97883390D01*
X102238095Y-97883390D02*
X102285714Y-97978628D01*
X102285714Y-97978628D02*
X102333333Y-98026247D01*
X102333333Y-98026247D02*
X102428571Y-98073866D01*
X102428571Y-98073866D02*
X102619047Y-98073866D01*
X102619047Y-98073866D02*
X102714285Y-98026247D01*
X102714285Y-98026247D02*
X102761904Y-97978628D01*
X102761904Y-97978628D02*
X102809523Y-97883390D01*
X112789580Y-99780357D02*
X112837200Y-99827976D01*
X112837200Y-99827976D02*
X112884819Y-99970833D01*
X112884819Y-99970833D02*
X112884819Y-100066071D01*
X112884819Y-100066071D02*
X112837200Y-100208928D01*
X112837200Y-100208928D02*
X112741961Y-100304166D01*
X112741961Y-100304166D02*
X112646723Y-100351785D01*
X112646723Y-100351785D02*
X112456247Y-100399404D01*
X112456247Y-100399404D02*
X112313390Y-100399404D01*
X112313390Y-100399404D02*
X112122914Y-100351785D01*
X112122914Y-100351785D02*
X112027676Y-100304166D01*
X112027676Y-100304166D02*
X111932438Y-100208928D01*
X111932438Y-100208928D02*
X111884819Y-100066071D01*
X111884819Y-100066071D02*
X111884819Y-99970833D01*
X111884819Y-99970833D02*
X111932438Y-99827976D01*
X111932438Y-99827976D02*
X111980057Y-99780357D01*
X112884819Y-98827976D02*
X112884819Y-99399404D01*
X112884819Y-99113690D02*
X111884819Y-99113690D01*
X111884819Y-99113690D02*
X112027676Y-99208928D01*
X112027676Y-99208928D02*
X112122914Y-99304166D01*
X112122914Y-99304166D02*
X112170533Y-99399404D01*
X112313390Y-98256547D02*
X112265771Y-98351785D01*
X112265771Y-98351785D02*
X112218152Y-98399404D01*
X112218152Y-98399404D02*
X112122914Y-98447023D01*
X112122914Y-98447023D02*
X112075295Y-98447023D01*
X112075295Y-98447023D02*
X111980057Y-98399404D01*
X111980057Y-98399404D02*
X111932438Y-98351785D01*
X111932438Y-98351785D02*
X111884819Y-98256547D01*
X111884819Y-98256547D02*
X111884819Y-98066071D01*
X111884819Y-98066071D02*
X111932438Y-97970833D01*
X111932438Y-97970833D02*
X111980057Y-97923214D01*
X111980057Y-97923214D02*
X112075295Y-97875595D01*
X112075295Y-97875595D02*
X112122914Y-97875595D01*
X112122914Y-97875595D02*
X112218152Y-97923214D01*
X112218152Y-97923214D02*
X112265771Y-97970833D01*
X112265771Y-97970833D02*
X112313390Y-98066071D01*
X112313390Y-98066071D02*
X112313390Y-98256547D01*
X112313390Y-98256547D02*
X112361009Y-98351785D01*
X112361009Y-98351785D02*
X112408628Y-98399404D01*
X112408628Y-98399404D02*
X112503866Y-98447023D01*
X112503866Y-98447023D02*
X112694342Y-98447023D01*
X112694342Y-98447023D02*
X112789580Y-98399404D01*
X112789580Y-98399404D02*
X112837200Y-98351785D01*
X112837200Y-98351785D02*
X112884819Y-98256547D01*
X112884819Y-98256547D02*
X112884819Y-98066071D01*
X112884819Y-98066071D02*
X112837200Y-97970833D01*
X112837200Y-97970833D02*
X112789580Y-97923214D01*
X112789580Y-97923214D02*
X112694342Y-97875595D01*
X112694342Y-97875595D02*
X112503866Y-97875595D01*
X112503866Y-97875595D02*
X112408628Y-97923214D01*
X112408628Y-97923214D02*
X112361009Y-97970833D01*
X112361009Y-97970833D02*
X112313390Y-98066071D01*
X75024819Y-74254166D02*
X74548628Y-74587499D01*
X75024819Y-74825594D02*
X74024819Y-74825594D01*
X74024819Y-74825594D02*
X74024819Y-74444642D01*
X74024819Y-74444642D02*
X74072438Y-74349404D01*
X74072438Y-74349404D02*
X74120057Y-74301785D01*
X74120057Y-74301785D02*
X74215295Y-74254166D01*
X74215295Y-74254166D02*
X74358152Y-74254166D01*
X74358152Y-74254166D02*
X74453390Y-74301785D01*
X74453390Y-74301785D02*
X74501009Y-74349404D01*
X74501009Y-74349404D02*
X74548628Y-74444642D01*
X74548628Y-74444642D02*
X74548628Y-74825594D01*
X74024819Y-73920832D02*
X74024819Y-73254166D01*
X74024819Y-73254166D02*
X75024819Y-73682737D01*
X90454819Y-105288094D02*
X89454819Y-105288094D01*
X89454819Y-105288094D02*
X89454819Y-105049999D01*
X89454819Y-105049999D02*
X89502438Y-104907142D01*
X89502438Y-104907142D02*
X89597676Y-104811904D01*
X89597676Y-104811904D02*
X89692914Y-104764285D01*
X89692914Y-104764285D02*
X89883390Y-104716666D01*
X89883390Y-104716666D02*
X90026247Y-104716666D01*
X90026247Y-104716666D02*
X90216723Y-104764285D01*
X90216723Y-104764285D02*
X90311961Y-104811904D01*
X90311961Y-104811904D02*
X90407200Y-104907142D01*
X90407200Y-104907142D02*
X90454819Y-105049999D01*
X90454819Y-105049999D02*
X90454819Y-105288094D01*
X89454819Y-104383332D02*
X89454819Y-103716666D01*
X89454819Y-103716666D02*
X90454819Y-104145237D01*
X110713095Y-46174819D02*
X110713095Y-46984342D01*
X110713095Y-46984342D02*
X110760714Y-47079580D01*
X110760714Y-47079580D02*
X110808333Y-47127200D01*
X110808333Y-47127200D02*
X110903571Y-47174819D01*
X110903571Y-47174819D02*
X111094047Y-47174819D01*
X111094047Y-47174819D02*
X111189285Y-47127200D01*
X111189285Y-47127200D02*
X111236904Y-47079580D01*
X111236904Y-47079580D02*
X111284523Y-46984342D01*
X111284523Y-46984342D02*
X111284523Y-46174819D01*
X111903571Y-46603390D02*
X111808333Y-46555771D01*
X111808333Y-46555771D02*
X111760714Y-46508152D01*
X111760714Y-46508152D02*
X111713095Y-46412914D01*
X111713095Y-46412914D02*
X111713095Y-46365295D01*
X111713095Y-46365295D02*
X111760714Y-46270057D01*
X111760714Y-46270057D02*
X111808333Y-46222438D01*
X111808333Y-46222438D02*
X111903571Y-46174819D01*
X111903571Y-46174819D02*
X112094047Y-46174819D01*
X112094047Y-46174819D02*
X112189285Y-46222438D01*
X112189285Y-46222438D02*
X112236904Y-46270057D01*
X112236904Y-46270057D02*
X112284523Y-46365295D01*
X112284523Y-46365295D02*
X112284523Y-46412914D01*
X112284523Y-46412914D02*
X112236904Y-46508152D01*
X112236904Y-46508152D02*
X112189285Y-46555771D01*
X112189285Y-46555771D02*
X112094047Y-46603390D01*
X112094047Y-46603390D02*
X111903571Y-46603390D01*
X111903571Y-46603390D02*
X111808333Y-46651009D01*
X111808333Y-46651009D02*
X111760714Y-46698628D01*
X111760714Y-46698628D02*
X111713095Y-46793866D01*
X111713095Y-46793866D02*
X111713095Y-46984342D01*
X111713095Y-46984342D02*
X111760714Y-47079580D01*
X111760714Y-47079580D02*
X111808333Y-47127200D01*
X111808333Y-47127200D02*
X111903571Y-47174819D01*
X111903571Y-47174819D02*
X112094047Y-47174819D01*
X112094047Y-47174819D02*
X112189285Y-47127200D01*
X112189285Y-47127200D02*
X112236904Y-47079580D01*
X112236904Y-47079580D02*
X112284523Y-46984342D01*
X112284523Y-46984342D02*
X112284523Y-46793866D01*
X112284523Y-46793866D02*
X112236904Y-46698628D01*
X112236904Y-46698628D02*
X112189285Y-46651009D01*
X112189285Y-46651009D02*
X112094047Y-46603390D01*
X67833333Y-80929580D02*
X67785714Y-80977200D01*
X67785714Y-80977200D02*
X67642857Y-81024819D01*
X67642857Y-81024819D02*
X67547619Y-81024819D01*
X67547619Y-81024819D02*
X67404762Y-80977200D01*
X67404762Y-80977200D02*
X67309524Y-80881961D01*
X67309524Y-80881961D02*
X67261905Y-80786723D01*
X67261905Y-80786723D02*
X67214286Y-80596247D01*
X67214286Y-80596247D02*
X67214286Y-80453390D01*
X67214286Y-80453390D02*
X67261905Y-80262914D01*
X67261905Y-80262914D02*
X67309524Y-80167676D01*
X67309524Y-80167676D02*
X67404762Y-80072438D01*
X67404762Y-80072438D02*
X67547619Y-80024819D01*
X67547619Y-80024819D02*
X67642857Y-80024819D01*
X67642857Y-80024819D02*
X67785714Y-80072438D01*
X67785714Y-80072438D02*
X67833333Y-80120057D01*
X68785714Y-81024819D02*
X68214286Y-81024819D01*
X68500000Y-81024819D02*
X68500000Y-80024819D01*
X68500000Y-80024819D02*
X68404762Y-80167676D01*
X68404762Y-80167676D02*
X68309524Y-80262914D01*
X68309524Y-80262914D02*
X68214286Y-80310533D01*
X104884819Y-61730357D02*
X104408628Y-62063690D01*
X104884819Y-62301785D02*
X103884819Y-62301785D01*
X103884819Y-62301785D02*
X103884819Y-61920833D01*
X103884819Y-61920833D02*
X103932438Y-61825595D01*
X103932438Y-61825595D02*
X103980057Y-61777976D01*
X103980057Y-61777976D02*
X104075295Y-61730357D01*
X104075295Y-61730357D02*
X104218152Y-61730357D01*
X104218152Y-61730357D02*
X104313390Y-61777976D01*
X104313390Y-61777976D02*
X104361009Y-61825595D01*
X104361009Y-61825595D02*
X104408628Y-61920833D01*
X104408628Y-61920833D02*
X104408628Y-62301785D01*
X104884819Y-60777976D02*
X104884819Y-61349404D01*
X104884819Y-61063690D02*
X103884819Y-61063690D01*
X103884819Y-61063690D02*
X104027676Y-61158928D01*
X104027676Y-61158928D02*
X104122914Y-61254166D01*
X104122914Y-61254166D02*
X104170533Y-61349404D01*
X103980057Y-60397023D02*
X103932438Y-60349404D01*
X103932438Y-60349404D02*
X103884819Y-60254166D01*
X103884819Y-60254166D02*
X103884819Y-60016071D01*
X103884819Y-60016071D02*
X103932438Y-59920833D01*
X103932438Y-59920833D02*
X103980057Y-59873214D01*
X103980057Y-59873214D02*
X104075295Y-59825595D01*
X104075295Y-59825595D02*
X104170533Y-59825595D01*
X104170533Y-59825595D02*
X104313390Y-59873214D01*
X104313390Y-59873214D02*
X104884819Y-60444642D01*
X104884819Y-60444642D02*
X104884819Y-59825595D01*
X93738095Y-71064819D02*
X94309523Y-71064819D01*
X94023809Y-72064819D02*
X94023809Y-71064819D01*
X94642857Y-72064819D02*
X94642857Y-71064819D01*
X94642857Y-71064819D02*
X95023809Y-71064819D01*
X95023809Y-71064819D02*
X95119047Y-71112438D01*
X95119047Y-71112438D02*
X95166666Y-71160057D01*
X95166666Y-71160057D02*
X95214285Y-71255295D01*
X95214285Y-71255295D02*
X95214285Y-71398152D01*
X95214285Y-71398152D02*
X95166666Y-71493390D01*
X95166666Y-71493390D02*
X95119047Y-71541009D01*
X95119047Y-71541009D02*
X95023809Y-71588628D01*
X95023809Y-71588628D02*
X94642857Y-71588628D01*
X96166666Y-72064819D02*
X95595238Y-72064819D01*
X95880952Y-72064819D02*
X95880952Y-71064819D01*
X95880952Y-71064819D02*
X95785714Y-71207676D01*
X95785714Y-71207676D02*
X95690476Y-71302914D01*
X95690476Y-71302914D02*
X95595238Y-71350533D01*
X89357142Y-90024819D02*
X89023809Y-89548628D01*
X88785714Y-90024819D02*
X88785714Y-89024819D01*
X88785714Y-89024819D02*
X89166666Y-89024819D01*
X89166666Y-89024819D02*
X89261904Y-89072438D01*
X89261904Y-89072438D02*
X89309523Y-89120057D01*
X89309523Y-89120057D02*
X89357142Y-89215295D01*
X89357142Y-89215295D02*
X89357142Y-89358152D01*
X89357142Y-89358152D02*
X89309523Y-89453390D01*
X89309523Y-89453390D02*
X89261904Y-89501009D01*
X89261904Y-89501009D02*
X89166666Y-89548628D01*
X89166666Y-89548628D02*
X88785714Y-89548628D01*
X89690476Y-89024819D02*
X90309523Y-89024819D01*
X90309523Y-89024819D02*
X89976190Y-89405771D01*
X89976190Y-89405771D02*
X90119047Y-89405771D01*
X90119047Y-89405771D02*
X90214285Y-89453390D01*
X90214285Y-89453390D02*
X90261904Y-89501009D01*
X90261904Y-89501009D02*
X90309523Y-89596247D01*
X90309523Y-89596247D02*
X90309523Y-89834342D01*
X90309523Y-89834342D02*
X90261904Y-89929580D01*
X90261904Y-89929580D02*
X90214285Y-89977200D01*
X90214285Y-89977200D02*
X90119047Y-90024819D01*
X90119047Y-90024819D02*
X89833333Y-90024819D01*
X89833333Y-90024819D02*
X89738095Y-89977200D01*
X89738095Y-89977200D02*
X89690476Y-89929580D01*
X91261904Y-90024819D02*
X90690476Y-90024819D01*
X90976190Y-90024819D02*
X90976190Y-89024819D01*
X90976190Y-89024819D02*
X90880952Y-89167676D01*
X90880952Y-89167676D02*
X90785714Y-89262914D01*
X90785714Y-89262914D02*
X90690476Y-89310533D01*
X84970833Y-75929580D02*
X84923214Y-75977200D01*
X84923214Y-75977200D02*
X84780357Y-76024819D01*
X84780357Y-76024819D02*
X84685119Y-76024819D01*
X84685119Y-76024819D02*
X84542262Y-75977200D01*
X84542262Y-75977200D02*
X84447024Y-75881961D01*
X84447024Y-75881961D02*
X84399405Y-75786723D01*
X84399405Y-75786723D02*
X84351786Y-75596247D01*
X84351786Y-75596247D02*
X84351786Y-75453390D01*
X84351786Y-75453390D02*
X84399405Y-75262914D01*
X84399405Y-75262914D02*
X84447024Y-75167676D01*
X84447024Y-75167676D02*
X84542262Y-75072438D01*
X84542262Y-75072438D02*
X84685119Y-75024819D01*
X84685119Y-75024819D02*
X84780357Y-75024819D01*
X84780357Y-75024819D02*
X84923214Y-75072438D01*
X84923214Y-75072438D02*
X84970833Y-75120057D01*
X85304167Y-75024819D02*
X85923214Y-75024819D01*
X85923214Y-75024819D02*
X85589881Y-75405771D01*
X85589881Y-75405771D02*
X85732738Y-75405771D01*
X85732738Y-75405771D02*
X85827976Y-75453390D01*
X85827976Y-75453390D02*
X85875595Y-75501009D01*
X85875595Y-75501009D02*
X85923214Y-75596247D01*
X85923214Y-75596247D02*
X85923214Y-75834342D01*
X85923214Y-75834342D02*
X85875595Y-75929580D01*
X85875595Y-75929580D02*
X85827976Y-75977200D01*
X85827976Y-75977200D02*
X85732738Y-76024819D01*
X85732738Y-76024819D02*
X85447024Y-76024819D01*
X85447024Y-76024819D02*
X85351786Y-75977200D01*
X85351786Y-75977200D02*
X85304167Y-75929580D01*
X81444642Y-76884819D02*
X81111309Y-76408628D01*
X80873214Y-76884819D02*
X80873214Y-75884819D01*
X80873214Y-75884819D02*
X81254166Y-75884819D01*
X81254166Y-75884819D02*
X81349404Y-75932438D01*
X81349404Y-75932438D02*
X81397023Y-75980057D01*
X81397023Y-75980057D02*
X81444642Y-76075295D01*
X81444642Y-76075295D02*
X81444642Y-76218152D01*
X81444642Y-76218152D02*
X81397023Y-76313390D01*
X81397023Y-76313390D02*
X81349404Y-76361009D01*
X81349404Y-76361009D02*
X81254166Y-76408628D01*
X81254166Y-76408628D02*
X80873214Y-76408628D01*
X81825595Y-75980057D02*
X81873214Y-75932438D01*
X81873214Y-75932438D02*
X81968452Y-75884819D01*
X81968452Y-75884819D02*
X82206547Y-75884819D01*
X82206547Y-75884819D02*
X82301785Y-75932438D01*
X82301785Y-75932438D02*
X82349404Y-75980057D01*
X82349404Y-75980057D02*
X82397023Y-76075295D01*
X82397023Y-76075295D02*
X82397023Y-76170533D01*
X82397023Y-76170533D02*
X82349404Y-76313390D01*
X82349404Y-76313390D02*
X81777976Y-76884819D01*
X81777976Y-76884819D02*
X82397023Y-76884819D01*
X83254166Y-75884819D02*
X83063690Y-75884819D01*
X83063690Y-75884819D02*
X82968452Y-75932438D01*
X82968452Y-75932438D02*
X82920833Y-75980057D01*
X82920833Y-75980057D02*
X82825595Y-76122914D01*
X82825595Y-76122914D02*
X82777976Y-76313390D01*
X82777976Y-76313390D02*
X82777976Y-76694342D01*
X82777976Y-76694342D02*
X82825595Y-76789580D01*
X82825595Y-76789580D02*
X82873214Y-76837200D01*
X82873214Y-76837200D02*
X82968452Y-76884819D01*
X82968452Y-76884819D02*
X83158928Y-76884819D01*
X83158928Y-76884819D02*
X83254166Y-76837200D01*
X83254166Y-76837200D02*
X83301785Y-76789580D01*
X83301785Y-76789580D02*
X83349404Y-76694342D01*
X83349404Y-76694342D02*
X83349404Y-76456247D01*
X83349404Y-76456247D02*
X83301785Y-76361009D01*
X83301785Y-76361009D02*
X83254166Y-76313390D01*
X83254166Y-76313390D02*
X83158928Y-76265771D01*
X83158928Y-76265771D02*
X82968452Y-76265771D01*
X82968452Y-76265771D02*
X82873214Y-76313390D01*
X82873214Y-76313390D02*
X82825595Y-76361009D01*
X82825595Y-76361009D02*
X82777976Y-76456247D01*
X102357142Y-105929580D02*
X102309523Y-105977200D01*
X102309523Y-105977200D02*
X102166666Y-106024819D01*
X102166666Y-106024819D02*
X102071428Y-106024819D01*
X102071428Y-106024819D02*
X101928571Y-105977200D01*
X101928571Y-105977200D02*
X101833333Y-105881961D01*
X101833333Y-105881961D02*
X101785714Y-105786723D01*
X101785714Y-105786723D02*
X101738095Y-105596247D01*
X101738095Y-105596247D02*
X101738095Y-105453390D01*
X101738095Y-105453390D02*
X101785714Y-105262914D01*
X101785714Y-105262914D02*
X101833333Y-105167676D01*
X101833333Y-105167676D02*
X101928571Y-105072438D01*
X101928571Y-105072438D02*
X102071428Y-105024819D01*
X102071428Y-105024819D02*
X102166666Y-105024819D01*
X102166666Y-105024819D02*
X102309523Y-105072438D01*
X102309523Y-105072438D02*
X102357142Y-105120057D01*
X103309523Y-106024819D02*
X102738095Y-106024819D01*
X103023809Y-106024819D02*
X103023809Y-105024819D01*
X103023809Y-105024819D02*
X102928571Y-105167676D01*
X102928571Y-105167676D02*
X102833333Y-105262914D01*
X102833333Y-105262914D02*
X102738095Y-105310533D01*
X104166666Y-105358152D02*
X104166666Y-106024819D01*
X103928571Y-104977200D02*
X103690476Y-105691485D01*
X103690476Y-105691485D02*
X104309523Y-105691485D01*
X74254819Y-97833333D02*
X74969104Y-97833333D01*
X74969104Y-97833333D02*
X75111961Y-97880952D01*
X75111961Y-97880952D02*
X75207200Y-97976190D01*
X75207200Y-97976190D02*
X75254819Y-98119047D01*
X75254819Y-98119047D02*
X75254819Y-98214285D01*
X75254819Y-96833333D02*
X75254819Y-97404761D01*
X75254819Y-97119047D02*
X74254819Y-97119047D01*
X74254819Y-97119047D02*
X74397676Y-97214285D01*
X74397676Y-97214285D02*
X74492914Y-97309523D01*
X74492914Y-97309523D02*
X74540533Y-97404761D01*
X67269642Y-108884819D02*
X66936309Y-108408628D01*
X66698214Y-108884819D02*
X66698214Y-107884819D01*
X66698214Y-107884819D02*
X67079166Y-107884819D01*
X67079166Y-107884819D02*
X67174404Y-107932438D01*
X67174404Y-107932438D02*
X67222023Y-107980057D01*
X67222023Y-107980057D02*
X67269642Y-108075295D01*
X67269642Y-108075295D02*
X67269642Y-108218152D01*
X67269642Y-108218152D02*
X67222023Y-108313390D01*
X67222023Y-108313390D02*
X67174404Y-108361009D01*
X67174404Y-108361009D02*
X67079166Y-108408628D01*
X67079166Y-108408628D02*
X66698214Y-108408628D01*
X67650595Y-107980057D02*
X67698214Y-107932438D01*
X67698214Y-107932438D02*
X67793452Y-107884819D01*
X67793452Y-107884819D02*
X68031547Y-107884819D01*
X68031547Y-107884819D02*
X68126785Y-107932438D01*
X68126785Y-107932438D02*
X68174404Y-107980057D01*
X68174404Y-107980057D02*
X68222023Y-108075295D01*
X68222023Y-108075295D02*
X68222023Y-108170533D01*
X68222023Y-108170533D02*
X68174404Y-108313390D01*
X68174404Y-108313390D02*
X67602976Y-108884819D01*
X67602976Y-108884819D02*
X68222023Y-108884819D01*
X68698214Y-108884819D02*
X68888690Y-108884819D01*
X68888690Y-108884819D02*
X68983928Y-108837200D01*
X68983928Y-108837200D02*
X69031547Y-108789580D01*
X69031547Y-108789580D02*
X69126785Y-108646723D01*
X69126785Y-108646723D02*
X69174404Y-108456247D01*
X69174404Y-108456247D02*
X69174404Y-108075295D01*
X69174404Y-108075295D02*
X69126785Y-107980057D01*
X69126785Y-107980057D02*
X69079166Y-107932438D01*
X69079166Y-107932438D02*
X68983928Y-107884819D01*
X68983928Y-107884819D02*
X68793452Y-107884819D01*
X68793452Y-107884819D02*
X68698214Y-107932438D01*
X68698214Y-107932438D02*
X68650595Y-107980057D01*
X68650595Y-107980057D02*
X68602976Y-108075295D01*
X68602976Y-108075295D02*
X68602976Y-108313390D01*
X68602976Y-108313390D02*
X68650595Y-108408628D01*
X68650595Y-108408628D02*
X68698214Y-108456247D01*
X68698214Y-108456247D02*
X68793452Y-108503866D01*
X68793452Y-108503866D02*
X68983928Y-108503866D01*
X68983928Y-108503866D02*
X69079166Y-108456247D01*
X69079166Y-108456247D02*
X69126785Y-108408628D01*
X69126785Y-108408628D02*
X69174404Y-108313390D01*
X109738095Y-101844819D02*
X110309523Y-101844819D01*
X110023809Y-102844819D02*
X110023809Y-101844819D01*
X110642857Y-102844819D02*
X110642857Y-101844819D01*
X110642857Y-101844819D02*
X111023809Y-101844819D01*
X111023809Y-101844819D02*
X111119047Y-101892438D01*
X111119047Y-101892438D02*
X111166666Y-101940057D01*
X111166666Y-101940057D02*
X111214285Y-102035295D01*
X111214285Y-102035295D02*
X111214285Y-102178152D01*
X111214285Y-102178152D02*
X111166666Y-102273390D01*
X111166666Y-102273390D02*
X111119047Y-102321009D01*
X111119047Y-102321009D02*
X111023809Y-102368628D01*
X111023809Y-102368628D02*
X110642857Y-102368628D01*
X111547619Y-101844819D02*
X112166666Y-101844819D01*
X112166666Y-101844819D02*
X111833333Y-102225771D01*
X111833333Y-102225771D02*
X111976190Y-102225771D01*
X111976190Y-102225771D02*
X112071428Y-102273390D01*
X112071428Y-102273390D02*
X112119047Y-102321009D01*
X112119047Y-102321009D02*
X112166666Y-102416247D01*
X112166666Y-102416247D02*
X112166666Y-102654342D01*
X112166666Y-102654342D02*
X112119047Y-102749580D01*
X112119047Y-102749580D02*
X112071428Y-102797200D01*
X112071428Y-102797200D02*
X111976190Y-102844819D01*
X111976190Y-102844819D02*
X111690476Y-102844819D01*
X111690476Y-102844819D02*
X111595238Y-102797200D01*
X111595238Y-102797200D02*
X111547619Y-102749580D01*
X77219642Y-104929580D02*
X77172023Y-104977200D01*
X77172023Y-104977200D02*
X77029166Y-105024819D01*
X77029166Y-105024819D02*
X76933928Y-105024819D01*
X76933928Y-105024819D02*
X76791071Y-104977200D01*
X76791071Y-104977200D02*
X76695833Y-104881961D01*
X76695833Y-104881961D02*
X76648214Y-104786723D01*
X76648214Y-104786723D02*
X76600595Y-104596247D01*
X76600595Y-104596247D02*
X76600595Y-104453390D01*
X76600595Y-104453390D02*
X76648214Y-104262914D01*
X76648214Y-104262914D02*
X76695833Y-104167676D01*
X76695833Y-104167676D02*
X76791071Y-104072438D01*
X76791071Y-104072438D02*
X76933928Y-104024819D01*
X76933928Y-104024819D02*
X77029166Y-104024819D01*
X77029166Y-104024819D02*
X77172023Y-104072438D01*
X77172023Y-104072438D02*
X77219642Y-104120057D01*
X78172023Y-105024819D02*
X77600595Y-105024819D01*
X77886309Y-105024819D02*
X77886309Y-104024819D01*
X77886309Y-104024819D02*
X77791071Y-104167676D01*
X77791071Y-104167676D02*
X77695833Y-104262914D01*
X77695833Y-104262914D02*
X77600595Y-104310533D01*
X78648214Y-105024819D02*
X78838690Y-105024819D01*
X78838690Y-105024819D02*
X78933928Y-104977200D01*
X78933928Y-104977200D02*
X78981547Y-104929580D01*
X78981547Y-104929580D02*
X79076785Y-104786723D01*
X79076785Y-104786723D02*
X79124404Y-104596247D01*
X79124404Y-104596247D02*
X79124404Y-104215295D01*
X79124404Y-104215295D02*
X79076785Y-104120057D01*
X79076785Y-104120057D02*
X79029166Y-104072438D01*
X79029166Y-104072438D02*
X78933928Y-104024819D01*
X78933928Y-104024819D02*
X78743452Y-104024819D01*
X78743452Y-104024819D02*
X78648214Y-104072438D01*
X78648214Y-104072438D02*
X78600595Y-104120057D01*
X78600595Y-104120057D02*
X78552976Y-104215295D01*
X78552976Y-104215295D02*
X78552976Y-104453390D01*
X78552976Y-104453390D02*
X78600595Y-104548628D01*
X78600595Y-104548628D02*
X78648214Y-104596247D01*
X78648214Y-104596247D02*
X78743452Y-104643866D01*
X78743452Y-104643866D02*
X78933928Y-104643866D01*
X78933928Y-104643866D02*
X79029166Y-104596247D01*
X79029166Y-104596247D02*
X79076785Y-104548628D01*
X79076785Y-104548628D02*
X79124404Y-104453390D01*
X65219642Y-67789580D02*
X65172023Y-67837200D01*
X65172023Y-67837200D02*
X65029166Y-67884819D01*
X65029166Y-67884819D02*
X64933928Y-67884819D01*
X64933928Y-67884819D02*
X64791071Y-67837200D01*
X64791071Y-67837200D02*
X64695833Y-67741961D01*
X64695833Y-67741961D02*
X64648214Y-67646723D01*
X64648214Y-67646723D02*
X64600595Y-67456247D01*
X64600595Y-67456247D02*
X64600595Y-67313390D01*
X64600595Y-67313390D02*
X64648214Y-67122914D01*
X64648214Y-67122914D02*
X64695833Y-67027676D01*
X64695833Y-67027676D02*
X64791071Y-66932438D01*
X64791071Y-66932438D02*
X64933928Y-66884819D01*
X64933928Y-66884819D02*
X65029166Y-66884819D01*
X65029166Y-66884819D02*
X65172023Y-66932438D01*
X65172023Y-66932438D02*
X65219642Y-66980057D01*
X65600595Y-66980057D02*
X65648214Y-66932438D01*
X65648214Y-66932438D02*
X65743452Y-66884819D01*
X65743452Y-66884819D02*
X65981547Y-66884819D01*
X65981547Y-66884819D02*
X66076785Y-66932438D01*
X66076785Y-66932438D02*
X66124404Y-66980057D01*
X66124404Y-66980057D02*
X66172023Y-67075295D01*
X66172023Y-67075295D02*
X66172023Y-67170533D01*
X66172023Y-67170533D02*
X66124404Y-67313390D01*
X66124404Y-67313390D02*
X65552976Y-67884819D01*
X65552976Y-67884819D02*
X66172023Y-67884819D01*
X66505357Y-66884819D02*
X67172023Y-66884819D01*
X67172023Y-66884819D02*
X66743452Y-67884819D01*
X89150236Y-74643359D02*
X89721664Y-74643359D01*
X89435950Y-75643359D02*
X89435950Y-74643359D01*
X90054998Y-75643359D02*
X90054998Y-74643359D01*
X90054998Y-74643359D02*
X90435950Y-74643359D01*
X90435950Y-74643359D02*
X90531188Y-74690978D01*
X90531188Y-74690978D02*
X90578807Y-74738597D01*
X90578807Y-74738597D02*
X90626426Y-74833835D01*
X90626426Y-74833835D02*
X90626426Y-74976692D01*
X90626426Y-74976692D02*
X90578807Y-75071930D01*
X90578807Y-75071930D02*
X90531188Y-75119549D01*
X90531188Y-75119549D02*
X90435950Y-75167168D01*
X90435950Y-75167168D02*
X90054998Y-75167168D01*
X91197855Y-75071930D02*
X91102617Y-75024311D01*
X91102617Y-75024311D02*
X91054998Y-74976692D01*
X91054998Y-74976692D02*
X91007379Y-74881454D01*
X91007379Y-74881454D02*
X91007379Y-74833835D01*
X91007379Y-74833835D02*
X91054998Y-74738597D01*
X91054998Y-74738597D02*
X91102617Y-74690978D01*
X91102617Y-74690978D02*
X91197855Y-74643359D01*
X91197855Y-74643359D02*
X91388331Y-74643359D01*
X91388331Y-74643359D02*
X91483569Y-74690978D01*
X91483569Y-74690978D02*
X91531188Y-74738597D01*
X91531188Y-74738597D02*
X91578807Y-74833835D01*
X91578807Y-74833835D02*
X91578807Y-74881454D01*
X91578807Y-74881454D02*
X91531188Y-74976692D01*
X91531188Y-74976692D02*
X91483569Y-75024311D01*
X91483569Y-75024311D02*
X91388331Y-75071930D01*
X91388331Y-75071930D02*
X91197855Y-75071930D01*
X91197855Y-75071930D02*
X91102617Y-75119549D01*
X91102617Y-75119549D02*
X91054998Y-75167168D01*
X91054998Y-75167168D02*
X91007379Y-75262406D01*
X91007379Y-75262406D02*
X91007379Y-75452882D01*
X91007379Y-75452882D02*
X91054998Y-75548120D01*
X91054998Y-75548120D02*
X91102617Y-75595740D01*
X91102617Y-75595740D02*
X91197855Y-75643359D01*
X91197855Y-75643359D02*
X91388331Y-75643359D01*
X91388331Y-75643359D02*
X91483569Y-75595740D01*
X91483569Y-75595740D02*
X91531188Y-75548120D01*
X91531188Y-75548120D02*
X91578807Y-75452882D01*
X91578807Y-75452882D02*
X91578807Y-75262406D01*
X91578807Y-75262406D02*
X91531188Y-75167168D01*
X91531188Y-75167168D02*
X91483569Y-75119549D01*
X91483569Y-75119549D02*
X91388331Y-75071930D01*
X102745833Y-94884819D02*
X102412500Y-94408628D01*
X102174405Y-94884819D02*
X102174405Y-93884819D01*
X102174405Y-93884819D02*
X102555357Y-93884819D01*
X102555357Y-93884819D02*
X102650595Y-93932438D01*
X102650595Y-93932438D02*
X102698214Y-93980057D01*
X102698214Y-93980057D02*
X102745833Y-94075295D01*
X102745833Y-94075295D02*
X102745833Y-94218152D01*
X102745833Y-94218152D02*
X102698214Y-94313390D01*
X102698214Y-94313390D02*
X102650595Y-94361009D01*
X102650595Y-94361009D02*
X102555357Y-94408628D01*
X102555357Y-94408628D02*
X102174405Y-94408628D01*
X103126786Y-93980057D02*
X103174405Y-93932438D01*
X103174405Y-93932438D02*
X103269643Y-93884819D01*
X103269643Y-93884819D02*
X103507738Y-93884819D01*
X103507738Y-93884819D02*
X103602976Y-93932438D01*
X103602976Y-93932438D02*
X103650595Y-93980057D01*
X103650595Y-93980057D02*
X103698214Y-94075295D01*
X103698214Y-94075295D02*
X103698214Y-94170533D01*
X103698214Y-94170533D02*
X103650595Y-94313390D01*
X103650595Y-94313390D02*
X103079167Y-94884819D01*
X103079167Y-94884819D02*
X103698214Y-94884819D01*
X75219642Y-63929580D02*
X75172023Y-63977200D01*
X75172023Y-63977200D02*
X75029166Y-64024819D01*
X75029166Y-64024819D02*
X74933928Y-64024819D01*
X74933928Y-64024819D02*
X74791071Y-63977200D01*
X74791071Y-63977200D02*
X74695833Y-63881961D01*
X74695833Y-63881961D02*
X74648214Y-63786723D01*
X74648214Y-63786723D02*
X74600595Y-63596247D01*
X74600595Y-63596247D02*
X74600595Y-63453390D01*
X74600595Y-63453390D02*
X74648214Y-63262914D01*
X74648214Y-63262914D02*
X74695833Y-63167676D01*
X74695833Y-63167676D02*
X74791071Y-63072438D01*
X74791071Y-63072438D02*
X74933928Y-63024819D01*
X74933928Y-63024819D02*
X75029166Y-63024819D01*
X75029166Y-63024819D02*
X75172023Y-63072438D01*
X75172023Y-63072438D02*
X75219642Y-63120057D01*
X75600595Y-63120057D02*
X75648214Y-63072438D01*
X75648214Y-63072438D02*
X75743452Y-63024819D01*
X75743452Y-63024819D02*
X75981547Y-63024819D01*
X75981547Y-63024819D02*
X76076785Y-63072438D01*
X76076785Y-63072438D02*
X76124404Y-63120057D01*
X76124404Y-63120057D02*
X76172023Y-63215295D01*
X76172023Y-63215295D02*
X76172023Y-63310533D01*
X76172023Y-63310533D02*
X76124404Y-63453390D01*
X76124404Y-63453390D02*
X75552976Y-64024819D01*
X75552976Y-64024819D02*
X76172023Y-64024819D01*
X77076785Y-63024819D02*
X76600595Y-63024819D01*
X76600595Y-63024819D02*
X76552976Y-63501009D01*
X76552976Y-63501009D02*
X76600595Y-63453390D01*
X76600595Y-63453390D02*
X76695833Y-63405771D01*
X76695833Y-63405771D02*
X76933928Y-63405771D01*
X76933928Y-63405771D02*
X77029166Y-63453390D01*
X77029166Y-63453390D02*
X77076785Y-63501009D01*
X77076785Y-63501009D02*
X77124404Y-63596247D01*
X77124404Y-63596247D02*
X77124404Y-63834342D01*
X77124404Y-63834342D02*
X77076785Y-63929580D01*
X77076785Y-63929580D02*
X77029166Y-63977200D01*
X77029166Y-63977200D02*
X76933928Y-64024819D01*
X76933928Y-64024819D02*
X76695833Y-64024819D01*
X76695833Y-64024819D02*
X76600595Y-63977200D01*
X76600595Y-63977200D02*
X76552976Y-63929580D01*
X102920833Y-90884819D02*
X102587500Y-90408628D01*
X102349405Y-90884819D02*
X102349405Y-89884819D01*
X102349405Y-89884819D02*
X102730357Y-89884819D01*
X102730357Y-89884819D02*
X102825595Y-89932438D01*
X102825595Y-89932438D02*
X102873214Y-89980057D01*
X102873214Y-89980057D02*
X102920833Y-90075295D01*
X102920833Y-90075295D02*
X102920833Y-90218152D01*
X102920833Y-90218152D02*
X102873214Y-90313390D01*
X102873214Y-90313390D02*
X102825595Y-90361009D01*
X102825595Y-90361009D02*
X102730357Y-90408628D01*
X102730357Y-90408628D02*
X102349405Y-90408628D01*
X103873214Y-90884819D02*
X103301786Y-90884819D01*
X103587500Y-90884819D02*
X103587500Y-89884819D01*
X103587500Y-89884819D02*
X103492262Y-90027676D01*
X103492262Y-90027676D02*
X103397024Y-90122914D01*
X103397024Y-90122914D02*
X103301786Y-90170533D01*
X98929580Y-63029166D02*
X98977200Y-63076785D01*
X98977200Y-63076785D02*
X99024819Y-63219642D01*
X99024819Y-63219642D02*
X99024819Y-63314880D01*
X99024819Y-63314880D02*
X98977200Y-63457737D01*
X98977200Y-63457737D02*
X98881961Y-63552975D01*
X98881961Y-63552975D02*
X98786723Y-63600594D01*
X98786723Y-63600594D02*
X98596247Y-63648213D01*
X98596247Y-63648213D02*
X98453390Y-63648213D01*
X98453390Y-63648213D02*
X98262914Y-63600594D01*
X98262914Y-63600594D02*
X98167676Y-63552975D01*
X98167676Y-63552975D02*
X98072438Y-63457737D01*
X98072438Y-63457737D02*
X98024819Y-63314880D01*
X98024819Y-63314880D02*
X98024819Y-63219642D01*
X98024819Y-63219642D02*
X98072438Y-63076785D01*
X98072438Y-63076785D02*
X98120057Y-63029166D01*
X98024819Y-62172023D02*
X98024819Y-62362499D01*
X98024819Y-62362499D02*
X98072438Y-62457737D01*
X98072438Y-62457737D02*
X98120057Y-62505356D01*
X98120057Y-62505356D02*
X98262914Y-62600594D01*
X98262914Y-62600594D02*
X98453390Y-62648213D01*
X98453390Y-62648213D02*
X98834342Y-62648213D01*
X98834342Y-62648213D02*
X98929580Y-62600594D01*
X98929580Y-62600594D02*
X98977200Y-62552975D01*
X98977200Y-62552975D02*
X99024819Y-62457737D01*
X99024819Y-62457737D02*
X99024819Y-62267261D01*
X99024819Y-62267261D02*
X98977200Y-62172023D01*
X98977200Y-62172023D02*
X98929580Y-62124404D01*
X98929580Y-62124404D02*
X98834342Y-62076785D01*
X98834342Y-62076785D02*
X98596247Y-62076785D01*
X98596247Y-62076785D02*
X98501009Y-62124404D01*
X98501009Y-62124404D02*
X98453390Y-62172023D01*
X98453390Y-62172023D02*
X98405771Y-62267261D01*
X98405771Y-62267261D02*
X98405771Y-62457737D01*
X98405771Y-62457737D02*
X98453390Y-62552975D01*
X98453390Y-62552975D02*
X98501009Y-62600594D01*
X98501009Y-62600594D02*
X98596247Y-62648213D01*
D14*
%TO.C,C22*%
X87991233Y-99490000D02*
X88283767Y-99490000D01*
X87991233Y-100510000D02*
X88283767Y-100510000D01*
%TO.C,R14*%
X95832776Y-44477500D02*
X96342224Y-44477500D01*
X95832776Y-45522500D02*
X96342224Y-45522500D01*
%TO.C,TP7*%
X123255000Y-83265000D02*
X124000000Y-83265000D01*
X123255000Y-84000000D02*
X123255000Y-83265000D01*
X123255000Y-84735000D02*
X123255000Y-84610000D01*
X123255000Y-84735000D02*
X123314435Y-84735000D01*
X123255000Y-84735000D02*
X124745000Y-84735000D01*
X124685565Y-84735000D02*
X124745000Y-84735000D01*
X124745000Y-84735000D02*
X124745000Y-84610000D01*
%TO.C,C21*%
X72283767Y-106490000D02*
X71991233Y-106490000D01*
X72283767Y-107510000D02*
X71991233Y-107510000D01*
%TO.C,R18*%
X120657776Y-49477500D02*
X121167224Y-49477500D01*
X120657776Y-50522500D02*
X121167224Y-50522500D01*
%TO.C,R10*%
X106254724Y-49477500D02*
X105745276Y-49477500D01*
X106254724Y-50522500D02*
X105745276Y-50522500D01*
%TO.C,C23*%
X118490000Y-71716233D02*
X118490000Y-72008767D01*
X119510000Y-71716233D02*
X119510000Y-72008767D01*
%TO.C,R23*%
X106302500Y-105167224D02*
X106302500Y-104657776D01*
X107347500Y-105167224D02*
X107347500Y-104657776D01*
%TO.C,R30*%
X82745276Y-107477500D02*
X83254724Y-107477500D01*
X82745276Y-108522500D02*
X83254724Y-108522500D01*
D15*
%TO.C,J2*%
X63920001Y-51208800D02*
X63920001Y-54489332D01*
X63920001Y-54831470D02*
X63920001Y-57489331D01*
X63920001Y-57831469D02*
X63920001Y-60489330D01*
X63920001Y-60831468D02*
X63920001Y-64112000D01*
X63920001Y-64112000D02*
X74080000Y-64112000D01*
X74080000Y-51208800D02*
X63920001Y-51208800D01*
X74080000Y-64112000D02*
X74080000Y-51208800D01*
D16*
X65408001Y-50319800D02*
G75*
G02*
X64646001Y-50319800I-381000J0D01*
G01*
X64646001Y-50319800D02*
G75*
G02*
X65408001Y-50319800I381000J0D01*
G01*
D14*
%TO.C,R28*%
X106254724Y-95477500D02*
X105745276Y-95477500D01*
X106254724Y-96522500D02*
X105745276Y-96522500D01*
%TO.C,R21*%
X125657776Y-53477500D02*
X126167224Y-53477500D01*
X125657776Y-54522500D02*
X126167224Y-54522500D01*
%TO.C,C7*%
X95716233Y-65490000D02*
X96008767Y-65490000D01*
X95716233Y-66510000D02*
X96008767Y-66510000D01*
%TO.C,C20*%
X93490000Y-106283767D02*
X93490000Y-105991233D01*
X94510000Y-106283767D02*
X94510000Y-105991233D01*
%TO.C,D6*%
X79990000Y-87190000D02*
X79990000Y-90950000D01*
X82010000Y-87190000D02*
X79990000Y-87190000D01*
X82010000Y-87190000D02*
X82010000Y-90950000D01*
%TO.C,C2*%
X122490000Y-61008767D02*
X122490000Y-60716233D01*
X123510000Y-61008767D02*
X123510000Y-60716233D01*
%TO.C,U5*%
X63515000Y-37535000D02*
X67635000Y-37535000D01*
X63515000Y-37630000D02*
X63515000Y-37535000D01*
X63515000Y-42655000D02*
X63515000Y-42560000D01*
X67635000Y-37535000D02*
X67635000Y-37630000D01*
X67635000Y-42560000D02*
X67635000Y-42655000D01*
X67635000Y-42655000D02*
X63515000Y-42655000D01*
X62975000Y-37625000D02*
X62735000Y-37295000D01*
X63215000Y-37295000D01*
X62975000Y-37625000D01*
G36*
X62975000Y-37625000D02*
G01*
X62735000Y-37295000D01*
X63215000Y-37295000D01*
X62975000Y-37625000D01*
G37*
%TO.C,D3*%
X115990000Y-93090000D02*
X115990000Y-96850000D01*
X118010000Y-93090000D02*
X115990000Y-93090000D01*
X118010000Y-93090000D02*
X118010000Y-96850000D01*
%TO.C,TP6*%
X89255000Y-72265000D02*
X90000000Y-72265000D01*
X89255000Y-73000000D02*
X89255000Y-72265000D01*
X89255000Y-73735000D02*
X89255000Y-73610000D01*
X89255000Y-73735000D02*
X89314435Y-73735000D01*
X89255000Y-73735000D02*
X90745000Y-73735000D01*
X90685565Y-73735000D02*
X90745000Y-73735000D01*
X90745000Y-73735000D02*
X90745000Y-73610000D01*
%TO.C,R11*%
X96342224Y-62477500D02*
X95832776Y-62477500D01*
X96342224Y-63522500D02*
X95832776Y-63522500D01*
D15*
%TO.C,J3*%
X119920001Y-92888000D02*
X119920001Y-105791200D01*
X119920001Y-105791200D02*
X130080000Y-105791200D01*
X130080000Y-92888000D02*
X119920001Y-92888000D01*
X130080000Y-96168532D02*
X130080000Y-92888000D01*
X130080000Y-99168531D02*
X130080000Y-96510670D01*
X130080000Y-102168530D02*
X130080000Y-99510669D01*
X130080000Y-105791200D02*
X130080000Y-102510668D01*
D16*
X129354000Y-106680200D02*
G75*
G02*
X128592000Y-106680200I-381000J0D01*
G01*
X128592000Y-106680200D02*
G75*
G02*
X129354000Y-106680200I381000J0D01*
G01*
D14*
%TO.C,R6*%
X103167224Y-78477500D02*
X102657776Y-78477500D01*
X103167224Y-79522500D02*
X102657776Y-79522500D01*
%TO.C,TP4*%
X128255000Y-90265000D02*
X129000000Y-90265000D01*
X128255000Y-91000000D02*
X128255000Y-90265000D01*
X128255000Y-91735000D02*
X128255000Y-91610000D01*
X128255000Y-91735000D02*
X128314435Y-91735000D01*
X128255000Y-91735000D02*
X129745000Y-91735000D01*
X129685565Y-91735000D02*
X129745000Y-91735000D01*
X129745000Y-91735000D02*
X129745000Y-91610000D01*
%TO.C,C26*%
X85991233Y-64490000D02*
X86283767Y-64490000D01*
X85991233Y-65510000D02*
X86283767Y-65510000D01*
%TO.C,C16*%
X79627500Y-81146267D02*
X79627500Y-80853733D01*
X80647500Y-81146267D02*
X80647500Y-80853733D01*
%TO.C,TP5*%
X87255000Y-88265000D02*
X88000000Y-88265000D01*
X87255000Y-89000000D02*
X87255000Y-88265000D01*
X87255000Y-89735000D02*
X87255000Y-89610000D01*
X87255000Y-89735000D02*
X87314435Y-89735000D01*
X87255000Y-89735000D02*
X88745000Y-89735000D01*
X88685565Y-89735000D02*
X88745000Y-89735000D01*
X88745000Y-89735000D02*
X88745000Y-89610000D01*
%TO.C,R22*%
X121657776Y-55477500D02*
X122167224Y-55477500D01*
X121657776Y-56522500D02*
X122167224Y-56522500D01*
%TO.C,R20*%
X111745276Y-42477500D02*
X112254724Y-42477500D01*
X111745276Y-43522500D02*
X112254724Y-43522500D01*
%TO.C,R8*%
X113657776Y-80477500D02*
X114167224Y-80477500D01*
X113657776Y-81522500D02*
X114167224Y-81522500D01*
%TO.C,C4*%
X70490000Y-39146267D02*
X70490000Y-38853733D01*
X71510000Y-39146267D02*
X71510000Y-38853733D01*
%TO.C,Y1*%
X95140000Y-48790000D02*
X95140000Y-51710000D01*
X97660000Y-48790000D02*
X95140000Y-48790000D01*
%TO.C,C8*%
X98490000Y-47008767D02*
X98490000Y-46716233D01*
X99510000Y-47008767D02*
X99510000Y-46716233D01*
%TO.C,C15*%
X83008767Y-104490000D02*
X82716233Y-104490000D01*
X83008767Y-105510000D02*
X82716233Y-105510000D01*
%TO.C,R19*%
X104745276Y-52477500D02*
X105254724Y-52477500D01*
X104745276Y-53522500D02*
X105254724Y-53522500D01*
%TO.C,U3*%
X114365000Y-60535000D02*
X118485000Y-60535000D01*
X114365000Y-60630000D02*
X114365000Y-60535000D01*
X114365000Y-65655000D02*
X114365000Y-65560000D01*
X118485000Y-60535000D02*
X118485000Y-60630000D01*
X118485000Y-65560000D02*
X118485000Y-65655000D01*
X118485000Y-65655000D02*
X114365000Y-65655000D01*
X113825000Y-60625000D02*
X113585000Y-60295000D01*
X114065000Y-60295000D01*
X113825000Y-60625000D01*
G36*
X113825000Y-60625000D02*
G01*
X113585000Y-60295000D01*
X114065000Y-60295000D01*
X113825000Y-60625000D01*
G37*
%TO.C,R9*%
X105832776Y-47477500D02*
X106342224Y-47477500D01*
X105832776Y-48522500D02*
X106342224Y-48522500D01*
%TO.C,TP9*%
X115255000Y-88265000D02*
X116000000Y-88265000D01*
X115255000Y-89000000D02*
X115255000Y-88265000D01*
X115255000Y-89735000D02*
X115255000Y-89610000D01*
X115255000Y-89735000D02*
X115314435Y-89735000D01*
X115255000Y-89735000D02*
X116745000Y-89735000D01*
X116685565Y-89735000D02*
X116745000Y-89735000D01*
X116745000Y-89735000D02*
X116745000Y-89610000D01*
%TO.C,C13*%
X85008767Y-84490000D02*
X84716233Y-84490000D01*
X85008767Y-85510000D02*
X84716233Y-85510000D01*
%TO.C,U10*%
X82490000Y-80227500D02*
X82540000Y-80227500D01*
X82490000Y-82047500D02*
X82490000Y-80227500D01*
X82540000Y-82047500D02*
X82490000Y-82047500D01*
X85560000Y-80227500D02*
X85610000Y-80227500D01*
X85610000Y-80227500D02*
X85610000Y-82047500D01*
X85610000Y-82047500D02*
X85560000Y-82047500D01*
X82540000Y-82587500D02*
X82210000Y-82827500D01*
X82210000Y-82347500D01*
X82540000Y-82587500D01*
G36*
X82540000Y-82587500D02*
G01*
X82210000Y-82827500D01*
X82210000Y-82347500D01*
X82540000Y-82587500D01*
G37*
%TO.C,R24*%
X78477500Y-94832776D02*
X78477500Y-95342224D01*
X79522500Y-94832776D02*
X79522500Y-95342224D01*
%TO.C,TP2*%
X108255000Y-42265000D02*
X109000000Y-42265000D01*
X108255000Y-43000000D02*
X108255000Y-42265000D01*
X108255000Y-43735000D02*
X108255000Y-43610000D01*
X108255000Y-43735000D02*
X108314435Y-43735000D01*
X108255000Y-43735000D02*
X109745000Y-43735000D01*
X109685565Y-43735000D02*
X109745000Y-43735000D01*
X109745000Y-43735000D02*
X109745000Y-43610000D01*
%TO.C,R27*%
X94477500Y-98745276D02*
X94477500Y-99254724D01*
X95522500Y-98745276D02*
X95522500Y-99254724D01*
%TO.C,C17*%
X90265000Y-86223752D02*
X90265000Y-85701248D01*
X91735000Y-86223752D02*
X91735000Y-85701248D01*
%TO.C,R5*%
X115832776Y-67477500D02*
X116342224Y-67477500D01*
X115832776Y-68522500D02*
X116342224Y-68522500D01*
%TO.C,D5*%
X82990000Y-96090000D02*
X82990000Y-99850000D01*
X85010000Y-96090000D02*
X82990000Y-96090000D01*
X85010000Y-96090000D02*
X85010000Y-99850000D01*
%TO.C,D4*%
X115990000Y-104910000D02*
X115990000Y-101150000D01*
X115990000Y-104910000D02*
X118010000Y-104910000D01*
X118010000Y-104910000D02*
X118010000Y-101150000D01*
%TO.C,R3*%
X79342224Y-84477500D02*
X78832776Y-84477500D01*
X79342224Y-85522500D02*
X78832776Y-85522500D01*
%TO.C,R4*%
X98657776Y-78477500D02*
X99167224Y-78477500D01*
X98657776Y-79522500D02*
X99167224Y-79522500D01*
%TO.C,C12*%
X115490000Y-44991233D02*
X115490000Y-45283767D01*
X116510000Y-44991233D02*
X116510000Y-45283767D01*
%TO.C,C24*%
X76466233Y-40490000D02*
X76758767Y-40490000D01*
X76466233Y-41510000D02*
X76758767Y-41510000D01*
%TO.C,R17*%
X120657776Y-45477500D02*
X121167224Y-45477500D01*
X120657776Y-46522500D02*
X121167224Y-46522500D01*
%TO.C,U1*%
X94255000Y-76265000D02*
X95000000Y-76265000D01*
X94255000Y-77000000D02*
X94255000Y-76265000D01*
X94255000Y-77735000D02*
X94255000Y-96610000D01*
X94255000Y-77735000D02*
X94314435Y-77735000D01*
X94255000Y-96610000D02*
X94589970Y-96610000D01*
X95410030Y-96610000D02*
X95745000Y-96610000D01*
X95685565Y-77735000D02*
X95745000Y-77735000D01*
X95745000Y-77735000D02*
X95745000Y-96610000D01*
X109495000Y-76265000D02*
X110240000Y-76265000D01*
X109495000Y-77000000D02*
X109495000Y-76265000D01*
X109495000Y-77735000D02*
X109495000Y-96610000D01*
X109495000Y-77735000D02*
X109554435Y-77735000D01*
X109495000Y-96610000D02*
X109829970Y-96610000D01*
X110650030Y-96610000D02*
X110985000Y-96610000D01*
X110925565Y-77735000D02*
X110985000Y-77735000D01*
X110985000Y-77735000D02*
X110985000Y-96610000D01*
%TO.C,R25*%
X88477500Y-81254724D02*
X88477500Y-80745276D01*
X89522500Y-81254724D02*
X89522500Y-80745276D01*
%TO.C,U2*%
X66415000Y-73805000D02*
X70535000Y-73805000D01*
X66415000Y-73900000D02*
X66415000Y-73805000D01*
X66415000Y-78925000D02*
X66415000Y-78830000D01*
X70535000Y-73805000D02*
X70535000Y-73900000D01*
X70535000Y-78830000D02*
X70535000Y-78925000D01*
X70535000Y-78925000D02*
X66415000Y-78925000D01*
X65875000Y-73895000D02*
X65635000Y-73565000D01*
X66115000Y-73565000D01*
X65875000Y-73895000D01*
G36*
X65875000Y-73895000D02*
G01*
X65635000Y-73565000D01*
X66115000Y-73565000D01*
X65875000Y-73895000D01*
G37*
%TO.C,R13*%
X97167224Y-53477500D02*
X96657776Y-53477500D01*
X97167224Y-54522500D02*
X96657776Y-54522500D01*
%TO.C,U6*%
X69390000Y-44255000D02*
X69390000Y-44589970D01*
X69390000Y-45410030D02*
X69390000Y-45745000D01*
X76265000Y-44255000D02*
X69390000Y-44255000D01*
X76265000Y-44255000D02*
X76265000Y-44314435D01*
X76265000Y-45685565D02*
X76265000Y-45745000D01*
X76265000Y-45745000D02*
X69390000Y-45745000D01*
X77000000Y-44255000D02*
X77735000Y-44255000D01*
X77735000Y-44255000D02*
X77735000Y-45000000D01*
X65375000Y-69000000D02*
G75*
G02*
X61975000Y-69000000I-1700000J0D01*
G01*
X61975000Y-69000000D02*
G75*
G02*
X65375000Y-69000000I1700000J0D01*
G01*
X69750000Y-69050000D02*
G75*
G02*
X66350000Y-69050000I-1700000J0D01*
G01*
X66350000Y-69050000D02*
G75*
G02*
X69750000Y-69050000I1700000J0D01*
G01*
X75825000Y-69000000D02*
G75*
G02*
X72425000Y-69000000I-1700000J0D01*
G01*
X72425000Y-69000000D02*
G75*
G02*
X75825000Y-69000000I1700000J0D01*
G01*
X80200000Y-69050000D02*
G75*
G02*
X76800000Y-69050000I-1700000J0D01*
G01*
X76800000Y-69050000D02*
G75*
G02*
X80200000Y-69050000I1700000J0D01*
G01*
X87525000Y-69125000D02*
G75*
G02*
X84125000Y-69125000I-1700000J0D01*
G01*
X84125000Y-69125000D02*
G75*
G02*
X87525000Y-69125000I1700000J0D01*
G01*
X91900000Y-69175000D02*
G75*
G02*
X88500000Y-69175000I-1700000J0D01*
G01*
X88500000Y-69175000D02*
G75*
G02*
X91900000Y-69175000I1700000J0D01*
G01*
X92375000Y-47625000D02*
G75*
G02*
X88975000Y-47625000I-1700000J0D01*
G01*
X88975000Y-47625000D02*
G75*
G02*
X92375000Y-47625000I1700000J0D01*
G01*
X92450000Y-41500000D02*
G75*
G02*
X89050000Y-41500000I-1700000J0D01*
G01*
X89050000Y-41500000D02*
G75*
G02*
X92450000Y-41500000I1700000J0D01*
G01*
X92500000Y-35925000D02*
G75*
G02*
X89100000Y-35925000I-1700000J0D01*
G01*
X89100000Y-35925000D02*
G75*
G02*
X92500000Y-35925000I1700000J0D01*
G01*
%TO.C,C5*%
X91490000Y-65008767D02*
X91490000Y-64716233D01*
X92510000Y-65008767D02*
X92510000Y-64716233D01*
%TO.C,U9*%
X99985000Y-99440000D02*
X104105000Y-99440000D01*
X99985000Y-99535000D02*
X99985000Y-99440000D01*
X99985000Y-104560000D02*
X99985000Y-104465000D01*
X104105000Y-99440000D02*
X104105000Y-99535000D01*
X104105000Y-104465000D02*
X104105000Y-104560000D01*
X104105000Y-104560000D02*
X99985000Y-104560000D01*
X99385000Y-99530000D02*
X99145000Y-99200000D01*
X99625000Y-99200000D01*
X99385000Y-99530000D01*
G36*
X99385000Y-99530000D02*
G01*
X99145000Y-99200000D01*
X99625000Y-99200000D01*
X99385000Y-99530000D01*
G37*
%TO.C,C18*%
X110490000Y-98991233D02*
X110490000Y-99283767D01*
X111510000Y-98991233D02*
X111510000Y-99283767D01*
%TO.C,R7*%
X75477500Y-74342224D02*
X75477500Y-73832776D01*
X76522500Y-74342224D02*
X76522500Y-73832776D01*
%TO.C,D7*%
X86990000Y-102190000D02*
X86990000Y-105950000D01*
X89010000Y-102190000D02*
X86990000Y-102190000D01*
X89010000Y-102190000D02*
X89010000Y-105950000D01*
%TO.C,U8*%
X109415000Y-47565000D02*
X113535000Y-47565000D01*
X109415000Y-47630000D02*
X109415000Y-47565000D01*
X109415000Y-56435000D02*
X109415000Y-56370000D01*
X113535000Y-47565000D02*
X113535000Y-47630000D01*
X113535000Y-56370000D02*
X113535000Y-56435000D01*
X113535000Y-56435000D02*
X109415000Y-56435000D01*
X108875000Y-47630000D02*
X108635000Y-47300000D01*
X109115000Y-47300000D01*
X108875000Y-47630000D01*
G36*
X108875000Y-47630000D02*
G01*
X108635000Y-47300000D01*
X109115000Y-47300000D01*
X108875000Y-47630000D01*
G37*
%TO.C,C1*%
X67853733Y-81490000D02*
X68146267Y-81490000D01*
X67853733Y-82510000D02*
X68146267Y-82510000D01*
%TO.C,R12*%
X102477500Y-60832776D02*
X102477500Y-61342224D01*
X103522500Y-60832776D02*
X103522500Y-61342224D01*
%TO.C,TP1*%
X94255000Y-69265000D02*
X94255000Y-69390000D01*
X94314435Y-69265000D02*
X94255000Y-69265000D01*
X95745000Y-69265000D02*
X94255000Y-69265000D01*
X95745000Y-69265000D02*
X95685565Y-69265000D01*
X95745000Y-69265000D02*
X95745000Y-69390000D01*
X95745000Y-70000000D02*
X95745000Y-70735000D01*
X95745000Y-70735000D02*
X95000000Y-70735000D01*
%TO.C,R31*%
X89745276Y-90477500D02*
X90254724Y-90477500D01*
X89745276Y-91522500D02*
X90254724Y-91522500D01*
%TO.C,C3*%
X84991233Y-76490000D02*
X85283767Y-76490000D01*
X84991233Y-77510000D02*
X85283767Y-77510000D01*
%TO.C,R26*%
X82342224Y-74477500D02*
X81832776Y-74477500D01*
X82342224Y-75522500D02*
X81832776Y-75522500D01*
%TO.C,C14*%
X102853733Y-106490000D02*
X103146267Y-106490000D01*
X102853733Y-107510000D02*
X103146267Y-107510000D01*
%TO.C,J1*%
X63590000Y-89565000D02*
X63590000Y-91990000D01*
X63590000Y-89565000D02*
X72710000Y-89565000D01*
X63590000Y-94010000D02*
X63590000Y-95348233D01*
X63590000Y-96651767D02*
X63590000Y-98348233D01*
X63590000Y-99651767D02*
X63590000Y-101348233D01*
X63590000Y-105435000D02*
X63590000Y-102651767D01*
X72710000Y-89565000D02*
X73710000Y-90565000D01*
X72710000Y-105435000D02*
X63590000Y-105435000D01*
X73710000Y-90565000D02*
X73710000Y-104435000D01*
X73710000Y-104435000D02*
X72710000Y-105435000D01*
%TO.C,R29*%
X68167224Y-106477500D02*
X67657776Y-106477500D01*
X68167224Y-107522500D02*
X67657776Y-107522500D01*
%TO.C,TP3*%
X110255000Y-103265000D02*
X111000000Y-103265000D01*
X110255000Y-104000000D02*
X110255000Y-103265000D01*
X110255000Y-104735000D02*
X110255000Y-104610000D01*
X110255000Y-104735000D02*
X110314435Y-104735000D01*
X110255000Y-104735000D02*
X111745000Y-104735000D01*
X111685565Y-104735000D02*
X111745000Y-104735000D01*
X111745000Y-104735000D02*
X111745000Y-104610000D01*
%TO.C,C19*%
X77716233Y-105490000D02*
X78008767Y-105490000D01*
X77716233Y-106510000D02*
X78008767Y-106510000D01*
%TO.C,C27*%
X66008767Y-65490000D02*
X65716233Y-65490000D01*
X66008767Y-66510000D02*
X65716233Y-66510000D01*
%TO.C,TP8*%
X89667141Y-76063540D02*
X90412141Y-76063540D01*
X89667141Y-76798540D02*
X89667141Y-76063540D01*
X89667141Y-77533540D02*
X89667141Y-77408540D01*
X89667141Y-77533540D02*
X89726576Y-77533540D01*
X89667141Y-77533540D02*
X91157141Y-77533540D01*
X91097706Y-77533540D02*
X91157141Y-77533540D01*
X91157141Y-77533540D02*
X91157141Y-77408540D01*
%TO.C,R2*%
X103167224Y-92477500D02*
X102657776Y-92477500D01*
X103167224Y-93522500D02*
X102657776Y-93522500D01*
%TO.C,C25*%
X75716233Y-64490000D02*
X76008767Y-64490000D01*
X75716233Y-65510000D02*
X76008767Y-65510000D01*
%TO.C,R1*%
X103342224Y-88477500D02*
X102832776Y-88477500D01*
X103342224Y-89522500D02*
X102832776Y-89522500D01*
%TO.C,C6*%
X99490000Y-63008767D02*
X99490000Y-62716233D01*
X100510000Y-63008767D02*
X100510000Y-62716233D01*
%TD*%
D17*
X61000000Y-33000000D02*
X131000000Y-33000000D01*
X131000000Y-110000000D01*
X61000000Y-110000000D01*
X61000000Y-33000000D01*
M02*
