%TF.GenerationSoftware,KiCad,Pcbnew,9.0.7*%
%TF.CreationDate,2026-03-31T08:13:11-05:00*%
%TF.ProjectId,Sensor Cell with Comms,53656e73-6f72-4204-9365-6c6c20776974,rev?*%
%TF.SameCoordinates,Original*%
%TF.FileFunction,Legend,Bot*%
%TF.FilePolarity,Positive*%
%FSLAX46Y46*%
G04 Gerber Fmt 4.6, Leading zero omitted, Abs format (unit mm)*
G04 Created by KiCad (PCBNEW 9.0.7) date 2026-03-31 08:13:11*
%MOMM*%
%LPD*%
G01*
G04 APERTURE LIST*
%ADD10C,0.100000*%
%ADD11C,0.150000*%
%ADD12C,0.300000*%
%ADD13C,0.400000*%
%ADD14C,0.508000*%
%ADD15C,0.120000*%
%TA.AperFunction,Profile*%
%ADD16C,0.050000*%
%TD*%
G04 APERTURE END LIST*
D10*
D11*
X177002200Y-166007200D02*
X285002200Y-166007200D01*
X285002200Y-198007200D01*
X177002200Y-198007200D01*
X177002200Y-166007200D01*
D10*
D11*
X10000000Y-10000000D02*
X287002200Y-10000000D01*
X287002200Y-200007200D01*
X10000000Y-200007200D01*
X10000000Y-10000000D01*
D10*
D11*
X12000000Y-12000000D02*
X285002200Y-12000000D01*
X285002200Y-198007200D01*
X12000000Y-198007200D01*
X12000000Y-12000000D01*
D10*
D11*
X60000000Y-12000000D02*
X60000000Y-10000000D01*
D10*
D11*
X110000000Y-12000000D02*
X110000000Y-10000000D01*
D10*
D11*
X160000000Y-12000000D02*
X160000000Y-10000000D01*
D10*
D11*
X210000000Y-12000000D02*
X210000000Y-10000000D01*
D10*
D11*
X260000000Y-12000000D02*
X260000000Y-10000000D01*
D10*
D11*
X36089160Y-11593604D02*
X35346303Y-11593604D01*
X35717731Y-11593604D02*
X35717731Y-10293604D01*
X35717731Y-10293604D02*
X35593922Y-10479319D01*
X35593922Y-10479319D02*
X35470112Y-10603128D01*
X35470112Y-10603128D02*
X35346303Y-10665033D01*
D10*
D11*
X85346303Y-10417414D02*
X85408207Y-10355509D01*
X85408207Y-10355509D02*
X85532017Y-10293604D01*
X85532017Y-10293604D02*
X85841541Y-10293604D01*
X85841541Y-10293604D02*
X85965350Y-10355509D01*
X85965350Y-10355509D02*
X86027255Y-10417414D01*
X86027255Y-10417414D02*
X86089160Y-10541223D01*
X86089160Y-10541223D02*
X86089160Y-10665033D01*
X86089160Y-10665033D02*
X86027255Y-10850747D01*
X86027255Y-10850747D02*
X85284398Y-11593604D01*
X85284398Y-11593604D02*
X86089160Y-11593604D01*
D10*
D11*
X135284398Y-10293604D02*
X136089160Y-10293604D01*
X136089160Y-10293604D02*
X135655826Y-10788842D01*
X135655826Y-10788842D02*
X135841541Y-10788842D01*
X135841541Y-10788842D02*
X135965350Y-10850747D01*
X135965350Y-10850747D02*
X136027255Y-10912652D01*
X136027255Y-10912652D02*
X136089160Y-11036461D01*
X136089160Y-11036461D02*
X136089160Y-11345985D01*
X136089160Y-11345985D02*
X136027255Y-11469795D01*
X136027255Y-11469795D02*
X135965350Y-11531700D01*
X135965350Y-11531700D02*
X135841541Y-11593604D01*
X135841541Y-11593604D02*
X135470112Y-11593604D01*
X135470112Y-11593604D02*
X135346303Y-11531700D01*
X135346303Y-11531700D02*
X135284398Y-11469795D01*
D10*
D11*
X185965350Y-10726938D02*
X185965350Y-11593604D01*
X185655826Y-10231700D02*
X185346303Y-11160271D01*
X185346303Y-11160271D02*
X186151064Y-11160271D01*
D10*
D11*
X236027255Y-10293604D02*
X235408207Y-10293604D01*
X235408207Y-10293604D02*
X235346303Y-10912652D01*
X235346303Y-10912652D02*
X235408207Y-10850747D01*
X235408207Y-10850747D02*
X235532017Y-10788842D01*
X235532017Y-10788842D02*
X235841541Y-10788842D01*
X235841541Y-10788842D02*
X235965350Y-10850747D01*
X235965350Y-10850747D02*
X236027255Y-10912652D01*
X236027255Y-10912652D02*
X236089160Y-11036461D01*
X236089160Y-11036461D02*
X236089160Y-11345985D01*
X236089160Y-11345985D02*
X236027255Y-11469795D01*
X236027255Y-11469795D02*
X235965350Y-11531700D01*
X235965350Y-11531700D02*
X235841541Y-11593604D01*
X235841541Y-11593604D02*
X235532017Y-11593604D01*
X235532017Y-11593604D02*
X235408207Y-11531700D01*
X235408207Y-11531700D02*
X235346303Y-11469795D01*
D10*
D11*
X285965350Y-10293604D02*
X285717731Y-10293604D01*
X285717731Y-10293604D02*
X285593922Y-10355509D01*
X285593922Y-10355509D02*
X285532017Y-10417414D01*
X285532017Y-10417414D02*
X285408207Y-10603128D01*
X285408207Y-10603128D02*
X285346303Y-10850747D01*
X285346303Y-10850747D02*
X285346303Y-11345985D01*
X285346303Y-11345985D02*
X285408207Y-11469795D01*
X285408207Y-11469795D02*
X285470112Y-11531700D01*
X285470112Y-11531700D02*
X285593922Y-11593604D01*
X285593922Y-11593604D02*
X285841541Y-11593604D01*
X285841541Y-11593604D02*
X285965350Y-11531700D01*
X285965350Y-11531700D02*
X286027255Y-11469795D01*
X286027255Y-11469795D02*
X286089160Y-11345985D01*
X286089160Y-11345985D02*
X286089160Y-11036461D01*
X286089160Y-11036461D02*
X286027255Y-10912652D01*
X286027255Y-10912652D02*
X285965350Y-10850747D01*
X285965350Y-10850747D02*
X285841541Y-10788842D01*
X285841541Y-10788842D02*
X285593922Y-10788842D01*
X285593922Y-10788842D02*
X285470112Y-10850747D01*
X285470112Y-10850747D02*
X285408207Y-10912652D01*
X285408207Y-10912652D02*
X285346303Y-11036461D01*
D10*
D11*
X60000000Y-198007200D02*
X60000000Y-200007200D01*
D10*
D11*
X110000000Y-198007200D02*
X110000000Y-200007200D01*
D10*
D11*
X160000000Y-198007200D02*
X160000000Y-200007200D01*
D10*
D11*
X210000000Y-198007200D02*
X210000000Y-200007200D01*
D10*
D11*
X260000000Y-198007200D02*
X260000000Y-200007200D01*
D10*
D11*
X36089160Y-199600804D02*
X35346303Y-199600804D01*
X35717731Y-199600804D02*
X35717731Y-198300804D01*
X35717731Y-198300804D02*
X35593922Y-198486519D01*
X35593922Y-198486519D02*
X35470112Y-198610328D01*
X35470112Y-198610328D02*
X35346303Y-198672233D01*
D10*
D11*
X85346303Y-198424614D02*
X85408207Y-198362709D01*
X85408207Y-198362709D02*
X85532017Y-198300804D01*
X85532017Y-198300804D02*
X85841541Y-198300804D01*
X85841541Y-198300804D02*
X85965350Y-198362709D01*
X85965350Y-198362709D02*
X86027255Y-198424614D01*
X86027255Y-198424614D02*
X86089160Y-198548423D01*
X86089160Y-198548423D02*
X86089160Y-198672233D01*
X86089160Y-198672233D02*
X86027255Y-198857947D01*
X86027255Y-198857947D02*
X85284398Y-199600804D01*
X85284398Y-199600804D02*
X86089160Y-199600804D01*
D10*
D11*
X135284398Y-198300804D02*
X136089160Y-198300804D01*
X136089160Y-198300804D02*
X135655826Y-198796042D01*
X135655826Y-198796042D02*
X135841541Y-198796042D01*
X135841541Y-198796042D02*
X135965350Y-198857947D01*
X135965350Y-198857947D02*
X136027255Y-198919852D01*
X136027255Y-198919852D02*
X136089160Y-199043661D01*
X136089160Y-199043661D02*
X136089160Y-199353185D01*
X136089160Y-199353185D02*
X136027255Y-199476995D01*
X136027255Y-199476995D02*
X135965350Y-199538900D01*
X135965350Y-199538900D02*
X135841541Y-199600804D01*
X135841541Y-199600804D02*
X135470112Y-199600804D01*
X135470112Y-199600804D02*
X135346303Y-199538900D01*
X135346303Y-199538900D02*
X135284398Y-199476995D01*
D10*
D11*
X185965350Y-198734138D02*
X185965350Y-199600804D01*
X185655826Y-198238900D02*
X185346303Y-199167471D01*
X185346303Y-199167471D02*
X186151064Y-199167471D01*
D10*
D11*
X236027255Y-198300804D02*
X235408207Y-198300804D01*
X235408207Y-198300804D02*
X235346303Y-198919852D01*
X235346303Y-198919852D02*
X235408207Y-198857947D01*
X235408207Y-198857947D02*
X235532017Y-198796042D01*
X235532017Y-198796042D02*
X235841541Y-198796042D01*
X235841541Y-198796042D02*
X235965350Y-198857947D01*
X235965350Y-198857947D02*
X236027255Y-198919852D01*
X236027255Y-198919852D02*
X236089160Y-199043661D01*
X236089160Y-199043661D02*
X236089160Y-199353185D01*
X236089160Y-199353185D02*
X236027255Y-199476995D01*
X236027255Y-199476995D02*
X235965350Y-199538900D01*
X235965350Y-199538900D02*
X235841541Y-199600804D01*
X235841541Y-199600804D02*
X235532017Y-199600804D01*
X235532017Y-199600804D02*
X235408207Y-199538900D01*
X235408207Y-199538900D02*
X235346303Y-199476995D01*
D10*
D11*
X285965350Y-198300804D02*
X285717731Y-198300804D01*
X285717731Y-198300804D02*
X285593922Y-198362709D01*
X285593922Y-198362709D02*
X285532017Y-198424614D01*
X285532017Y-198424614D02*
X285408207Y-198610328D01*
X285408207Y-198610328D02*
X285346303Y-198857947D01*
X285346303Y-198857947D02*
X285346303Y-199353185D01*
X285346303Y-199353185D02*
X285408207Y-199476995D01*
X285408207Y-199476995D02*
X285470112Y-199538900D01*
X285470112Y-199538900D02*
X285593922Y-199600804D01*
X285593922Y-199600804D02*
X285841541Y-199600804D01*
X285841541Y-199600804D02*
X285965350Y-199538900D01*
X285965350Y-199538900D02*
X286027255Y-199476995D01*
X286027255Y-199476995D02*
X286089160Y-199353185D01*
X286089160Y-199353185D02*
X286089160Y-199043661D01*
X286089160Y-199043661D02*
X286027255Y-198919852D01*
X286027255Y-198919852D02*
X285965350Y-198857947D01*
X285965350Y-198857947D02*
X285841541Y-198796042D01*
X285841541Y-198796042D02*
X285593922Y-198796042D01*
X285593922Y-198796042D02*
X285470112Y-198857947D01*
X285470112Y-198857947D02*
X285408207Y-198919852D01*
X285408207Y-198919852D02*
X285346303Y-199043661D01*
D10*
D11*
X10000000Y-60000000D02*
X12000000Y-60000000D01*
D10*
D11*
X10000000Y-110000000D02*
X12000000Y-110000000D01*
D10*
D11*
X10000000Y-160000000D02*
X12000000Y-160000000D01*
D10*
D11*
X10690476Y-35222176D02*
X11309523Y-35222176D01*
X10566666Y-35593604D02*
X10999999Y-34293604D01*
X10999999Y-34293604D02*
X11433333Y-35593604D01*
D10*
D11*
X11092857Y-84912652D02*
X11278571Y-84974557D01*
X11278571Y-84974557D02*
X11340476Y-85036461D01*
X11340476Y-85036461D02*
X11402380Y-85160271D01*
X11402380Y-85160271D02*
X11402380Y-85345985D01*
X11402380Y-85345985D02*
X11340476Y-85469795D01*
X11340476Y-85469795D02*
X11278571Y-85531700D01*
X11278571Y-85531700D02*
X11154761Y-85593604D01*
X11154761Y-85593604D02*
X10659523Y-85593604D01*
X10659523Y-85593604D02*
X10659523Y-84293604D01*
X10659523Y-84293604D02*
X11092857Y-84293604D01*
X11092857Y-84293604D02*
X11216666Y-84355509D01*
X11216666Y-84355509D02*
X11278571Y-84417414D01*
X11278571Y-84417414D02*
X11340476Y-84541223D01*
X11340476Y-84541223D02*
X11340476Y-84665033D01*
X11340476Y-84665033D02*
X11278571Y-84788842D01*
X11278571Y-84788842D02*
X11216666Y-84850747D01*
X11216666Y-84850747D02*
X11092857Y-84912652D01*
X11092857Y-84912652D02*
X10659523Y-84912652D01*
D10*
D11*
X11402380Y-135469795D02*
X11340476Y-135531700D01*
X11340476Y-135531700D02*
X11154761Y-135593604D01*
X11154761Y-135593604D02*
X11030952Y-135593604D01*
X11030952Y-135593604D02*
X10845238Y-135531700D01*
X10845238Y-135531700D02*
X10721428Y-135407890D01*
X10721428Y-135407890D02*
X10659523Y-135284080D01*
X10659523Y-135284080D02*
X10597619Y-135036461D01*
X10597619Y-135036461D02*
X10597619Y-134850747D01*
X10597619Y-134850747D02*
X10659523Y-134603128D01*
X10659523Y-134603128D02*
X10721428Y-134479319D01*
X10721428Y-134479319D02*
X10845238Y-134355509D01*
X10845238Y-134355509D02*
X11030952Y-134293604D01*
X11030952Y-134293604D02*
X11154761Y-134293604D01*
X11154761Y-134293604D02*
X11340476Y-134355509D01*
X11340476Y-134355509D02*
X11402380Y-134417414D01*
D10*
D11*
X10659523Y-185593604D02*
X10659523Y-184293604D01*
X10659523Y-184293604D02*
X10969047Y-184293604D01*
X10969047Y-184293604D02*
X11154761Y-184355509D01*
X11154761Y-184355509D02*
X11278571Y-184479319D01*
X11278571Y-184479319D02*
X11340476Y-184603128D01*
X11340476Y-184603128D02*
X11402380Y-184850747D01*
X11402380Y-184850747D02*
X11402380Y-185036461D01*
X11402380Y-185036461D02*
X11340476Y-185284080D01*
X11340476Y-185284080D02*
X11278571Y-185407890D01*
X11278571Y-185407890D02*
X11154761Y-185531700D01*
X11154761Y-185531700D02*
X10969047Y-185593604D01*
X10969047Y-185593604D02*
X10659523Y-185593604D01*
D10*
D11*
X287002200Y-60000000D02*
X285002200Y-60000000D01*
D10*
D11*
X287002200Y-110000000D02*
X285002200Y-110000000D01*
D10*
D11*
X287002200Y-160000000D02*
X285002200Y-160000000D01*
D10*
D11*
X285692676Y-35222176D02*
X286311723Y-35222176D01*
X285568866Y-35593604D02*
X286002199Y-34293604D01*
X286002199Y-34293604D02*
X286435533Y-35593604D01*
D10*
D11*
X286095057Y-84912652D02*
X286280771Y-84974557D01*
X286280771Y-84974557D02*
X286342676Y-85036461D01*
X286342676Y-85036461D02*
X286404580Y-85160271D01*
X286404580Y-85160271D02*
X286404580Y-85345985D01*
X286404580Y-85345985D02*
X286342676Y-85469795D01*
X286342676Y-85469795D02*
X286280771Y-85531700D01*
X286280771Y-85531700D02*
X286156961Y-85593604D01*
X286156961Y-85593604D02*
X285661723Y-85593604D01*
X285661723Y-85593604D02*
X285661723Y-84293604D01*
X285661723Y-84293604D02*
X286095057Y-84293604D01*
X286095057Y-84293604D02*
X286218866Y-84355509D01*
X286218866Y-84355509D02*
X286280771Y-84417414D01*
X286280771Y-84417414D02*
X286342676Y-84541223D01*
X286342676Y-84541223D02*
X286342676Y-84665033D01*
X286342676Y-84665033D02*
X286280771Y-84788842D01*
X286280771Y-84788842D02*
X286218866Y-84850747D01*
X286218866Y-84850747D02*
X286095057Y-84912652D01*
X286095057Y-84912652D02*
X285661723Y-84912652D01*
D10*
D11*
X286404580Y-135469795D02*
X286342676Y-135531700D01*
X286342676Y-135531700D02*
X286156961Y-135593604D01*
X286156961Y-135593604D02*
X286033152Y-135593604D01*
X286033152Y-135593604D02*
X285847438Y-135531700D01*
X285847438Y-135531700D02*
X285723628Y-135407890D01*
X285723628Y-135407890D02*
X285661723Y-135284080D01*
X285661723Y-135284080D02*
X285599819Y-135036461D01*
X285599819Y-135036461D02*
X285599819Y-134850747D01*
X285599819Y-134850747D02*
X285661723Y-134603128D01*
X285661723Y-134603128D02*
X285723628Y-134479319D01*
X285723628Y-134479319D02*
X285847438Y-134355509D01*
X285847438Y-134355509D02*
X286033152Y-134293604D01*
X286033152Y-134293604D02*
X286156961Y-134293604D01*
X286156961Y-134293604D02*
X286342676Y-134355509D01*
X286342676Y-134355509D02*
X286404580Y-134417414D01*
D10*
D11*
X285661723Y-185593604D02*
X285661723Y-184293604D01*
X285661723Y-184293604D02*
X285971247Y-184293604D01*
X285971247Y-184293604D02*
X286156961Y-184355509D01*
X286156961Y-184355509D02*
X286280771Y-184479319D01*
X286280771Y-184479319D02*
X286342676Y-184603128D01*
X286342676Y-184603128D02*
X286404580Y-184850747D01*
X286404580Y-184850747D02*
X286404580Y-185036461D01*
X286404580Y-185036461D02*
X286342676Y-185284080D01*
X286342676Y-185284080D02*
X286280771Y-185407890D01*
X286280771Y-185407890D02*
X286156961Y-185531700D01*
X286156961Y-185531700D02*
X285971247Y-185593604D01*
X285971247Y-185593604D02*
X285661723Y-185593604D01*
D10*
D11*
X200458026Y-193793328D02*
X200458026Y-192293328D01*
X200458026Y-192293328D02*
X200815169Y-192293328D01*
X200815169Y-192293328D02*
X201029455Y-192364757D01*
X201029455Y-192364757D02*
X201172312Y-192507614D01*
X201172312Y-192507614D02*
X201243741Y-192650471D01*
X201243741Y-192650471D02*
X201315169Y-192936185D01*
X201315169Y-192936185D02*
X201315169Y-193150471D01*
X201315169Y-193150471D02*
X201243741Y-193436185D01*
X201243741Y-193436185D02*
X201172312Y-193579042D01*
X201172312Y-193579042D02*
X201029455Y-193721900D01*
X201029455Y-193721900D02*
X200815169Y-193793328D01*
X200815169Y-193793328D02*
X200458026Y-193793328D01*
X202600884Y-193793328D02*
X202600884Y-193007614D01*
X202600884Y-193007614D02*
X202529455Y-192864757D01*
X202529455Y-192864757D02*
X202386598Y-192793328D01*
X202386598Y-192793328D02*
X202100884Y-192793328D01*
X202100884Y-192793328D02*
X201958026Y-192864757D01*
X202600884Y-193721900D02*
X202458026Y-193793328D01*
X202458026Y-193793328D02*
X202100884Y-193793328D01*
X202100884Y-193793328D02*
X201958026Y-193721900D01*
X201958026Y-193721900D02*
X201886598Y-193579042D01*
X201886598Y-193579042D02*
X201886598Y-193436185D01*
X201886598Y-193436185D02*
X201958026Y-193293328D01*
X201958026Y-193293328D02*
X202100884Y-193221900D01*
X202100884Y-193221900D02*
X202458026Y-193221900D01*
X202458026Y-193221900D02*
X202600884Y-193150471D01*
X203100884Y-192793328D02*
X203672312Y-192793328D01*
X203315169Y-192293328D02*
X203315169Y-193579042D01*
X203315169Y-193579042D02*
X203386598Y-193721900D01*
X203386598Y-193721900D02*
X203529455Y-193793328D01*
X203529455Y-193793328D02*
X203672312Y-193793328D01*
X204743741Y-193721900D02*
X204600884Y-193793328D01*
X204600884Y-193793328D02*
X204315170Y-193793328D01*
X204315170Y-193793328D02*
X204172312Y-193721900D01*
X204172312Y-193721900D02*
X204100884Y-193579042D01*
X204100884Y-193579042D02*
X204100884Y-193007614D01*
X204100884Y-193007614D02*
X204172312Y-192864757D01*
X204172312Y-192864757D02*
X204315170Y-192793328D01*
X204315170Y-192793328D02*
X204600884Y-192793328D01*
X204600884Y-192793328D02*
X204743741Y-192864757D01*
X204743741Y-192864757D02*
X204815170Y-193007614D01*
X204815170Y-193007614D02*
X204815170Y-193150471D01*
X204815170Y-193150471D02*
X204100884Y-193293328D01*
X205458026Y-193650471D02*
X205529455Y-193721900D01*
X205529455Y-193721900D02*
X205458026Y-193793328D01*
X205458026Y-193793328D02*
X205386598Y-193721900D01*
X205386598Y-193721900D02*
X205458026Y-193650471D01*
X205458026Y-193650471D02*
X205458026Y-193793328D01*
X205458026Y-192864757D02*
X205529455Y-192936185D01*
X205529455Y-192936185D02*
X205458026Y-193007614D01*
X205458026Y-193007614D02*
X205386598Y-192936185D01*
X205386598Y-192936185D02*
X205458026Y-192864757D01*
X205458026Y-192864757D02*
X205458026Y-193007614D01*
D10*
D11*
X177002200Y-194507200D02*
X285002200Y-194507200D01*
D10*
D11*
X178458026Y-196593328D02*
X178458026Y-195093328D01*
X179315169Y-196593328D02*
X178672312Y-195736185D01*
X179315169Y-195093328D02*
X178458026Y-195950471D01*
X179958026Y-196593328D02*
X179958026Y-195593328D01*
X179958026Y-195093328D02*
X179886598Y-195164757D01*
X179886598Y-195164757D02*
X179958026Y-195236185D01*
X179958026Y-195236185D02*
X180029455Y-195164757D01*
X180029455Y-195164757D02*
X179958026Y-195093328D01*
X179958026Y-195093328D02*
X179958026Y-195236185D01*
X181529455Y-196450471D02*
X181458027Y-196521900D01*
X181458027Y-196521900D02*
X181243741Y-196593328D01*
X181243741Y-196593328D02*
X181100884Y-196593328D01*
X181100884Y-196593328D02*
X180886598Y-196521900D01*
X180886598Y-196521900D02*
X180743741Y-196379042D01*
X180743741Y-196379042D02*
X180672312Y-196236185D01*
X180672312Y-196236185D02*
X180600884Y-195950471D01*
X180600884Y-195950471D02*
X180600884Y-195736185D01*
X180600884Y-195736185D02*
X180672312Y-195450471D01*
X180672312Y-195450471D02*
X180743741Y-195307614D01*
X180743741Y-195307614D02*
X180886598Y-195164757D01*
X180886598Y-195164757D02*
X181100884Y-195093328D01*
X181100884Y-195093328D02*
X181243741Y-195093328D01*
X181243741Y-195093328D02*
X181458027Y-195164757D01*
X181458027Y-195164757D02*
X181529455Y-195236185D01*
X182815170Y-196593328D02*
X182815170Y-195807614D01*
X182815170Y-195807614D02*
X182743741Y-195664757D01*
X182743741Y-195664757D02*
X182600884Y-195593328D01*
X182600884Y-195593328D02*
X182315170Y-195593328D01*
X182315170Y-195593328D02*
X182172312Y-195664757D01*
X182815170Y-196521900D02*
X182672312Y-196593328D01*
X182672312Y-196593328D02*
X182315170Y-196593328D01*
X182315170Y-196593328D02*
X182172312Y-196521900D01*
X182172312Y-196521900D02*
X182100884Y-196379042D01*
X182100884Y-196379042D02*
X182100884Y-196236185D01*
X182100884Y-196236185D02*
X182172312Y-196093328D01*
X182172312Y-196093328D02*
X182315170Y-196021900D01*
X182315170Y-196021900D02*
X182672312Y-196021900D01*
X182672312Y-196021900D02*
X182815170Y-195950471D01*
X184172313Y-196593328D02*
X184172313Y-195093328D01*
X184172313Y-196521900D02*
X184029455Y-196593328D01*
X184029455Y-196593328D02*
X183743741Y-196593328D01*
X183743741Y-196593328D02*
X183600884Y-196521900D01*
X183600884Y-196521900D02*
X183529455Y-196450471D01*
X183529455Y-196450471D02*
X183458027Y-196307614D01*
X183458027Y-196307614D02*
X183458027Y-195879042D01*
X183458027Y-195879042D02*
X183529455Y-195736185D01*
X183529455Y-195736185D02*
X183600884Y-195664757D01*
X183600884Y-195664757D02*
X183743741Y-195593328D01*
X183743741Y-195593328D02*
X184029455Y-195593328D01*
X184029455Y-195593328D02*
X184172313Y-195664757D01*
X186029455Y-195807614D02*
X186529455Y-195807614D01*
X186743741Y-196593328D02*
X186029455Y-196593328D01*
X186029455Y-196593328D02*
X186029455Y-195093328D01*
X186029455Y-195093328D02*
X186743741Y-195093328D01*
X187386598Y-196450471D02*
X187458027Y-196521900D01*
X187458027Y-196521900D02*
X187386598Y-196593328D01*
X187386598Y-196593328D02*
X187315170Y-196521900D01*
X187315170Y-196521900D02*
X187386598Y-196450471D01*
X187386598Y-196450471D02*
X187386598Y-196593328D01*
X188100884Y-196593328D02*
X188100884Y-195093328D01*
X188100884Y-195093328D02*
X188458027Y-195093328D01*
X188458027Y-195093328D02*
X188672313Y-195164757D01*
X188672313Y-195164757D02*
X188815170Y-195307614D01*
X188815170Y-195307614D02*
X188886599Y-195450471D01*
X188886599Y-195450471D02*
X188958027Y-195736185D01*
X188958027Y-195736185D02*
X188958027Y-195950471D01*
X188958027Y-195950471D02*
X188886599Y-196236185D01*
X188886599Y-196236185D02*
X188815170Y-196379042D01*
X188815170Y-196379042D02*
X188672313Y-196521900D01*
X188672313Y-196521900D02*
X188458027Y-196593328D01*
X188458027Y-196593328D02*
X188100884Y-196593328D01*
X189600884Y-196450471D02*
X189672313Y-196521900D01*
X189672313Y-196521900D02*
X189600884Y-196593328D01*
X189600884Y-196593328D02*
X189529456Y-196521900D01*
X189529456Y-196521900D02*
X189600884Y-196450471D01*
X189600884Y-196450471D02*
X189600884Y-196593328D01*
X190243742Y-196164757D02*
X190958028Y-196164757D01*
X190100885Y-196593328D02*
X190600885Y-195093328D01*
X190600885Y-195093328D02*
X191100885Y-196593328D01*
X191600884Y-196450471D02*
X191672313Y-196521900D01*
X191672313Y-196521900D02*
X191600884Y-196593328D01*
X191600884Y-196593328D02*
X191529456Y-196521900D01*
X191529456Y-196521900D02*
X191600884Y-196450471D01*
X191600884Y-196450471D02*
X191600884Y-196593328D01*
X193529456Y-196593328D02*
X193815170Y-196593328D01*
X193815170Y-196593328D02*
X193958027Y-196521900D01*
X193958027Y-196521900D02*
X194029456Y-196450471D01*
X194029456Y-196450471D02*
X194172313Y-196236185D01*
X194172313Y-196236185D02*
X194243742Y-195950471D01*
X194243742Y-195950471D02*
X194243742Y-195379042D01*
X194243742Y-195379042D02*
X194172313Y-195236185D01*
X194172313Y-195236185D02*
X194100885Y-195164757D01*
X194100885Y-195164757D02*
X193958027Y-195093328D01*
X193958027Y-195093328D02*
X193672313Y-195093328D01*
X193672313Y-195093328D02*
X193529456Y-195164757D01*
X193529456Y-195164757D02*
X193458027Y-195236185D01*
X193458027Y-195236185D02*
X193386599Y-195379042D01*
X193386599Y-195379042D02*
X193386599Y-195736185D01*
X193386599Y-195736185D02*
X193458027Y-195879042D01*
X193458027Y-195879042D02*
X193529456Y-195950471D01*
X193529456Y-195950471D02*
X193672313Y-196021900D01*
X193672313Y-196021900D02*
X193958027Y-196021900D01*
X193958027Y-196021900D02*
X194100885Y-195950471D01*
X194100885Y-195950471D02*
X194172313Y-195879042D01*
X194172313Y-195879042D02*
X194243742Y-195736185D01*
X194886598Y-196450471D02*
X194958027Y-196521900D01*
X194958027Y-196521900D02*
X194886598Y-196593328D01*
X194886598Y-196593328D02*
X194815170Y-196521900D01*
X194815170Y-196521900D02*
X194886598Y-196450471D01*
X194886598Y-196450471D02*
X194886598Y-196593328D01*
X195886599Y-195093328D02*
X196029456Y-195093328D01*
X196029456Y-195093328D02*
X196172313Y-195164757D01*
X196172313Y-195164757D02*
X196243742Y-195236185D01*
X196243742Y-195236185D02*
X196315170Y-195379042D01*
X196315170Y-195379042D02*
X196386599Y-195664757D01*
X196386599Y-195664757D02*
X196386599Y-196021900D01*
X196386599Y-196021900D02*
X196315170Y-196307614D01*
X196315170Y-196307614D02*
X196243742Y-196450471D01*
X196243742Y-196450471D02*
X196172313Y-196521900D01*
X196172313Y-196521900D02*
X196029456Y-196593328D01*
X196029456Y-196593328D02*
X195886599Y-196593328D01*
X195886599Y-196593328D02*
X195743742Y-196521900D01*
X195743742Y-196521900D02*
X195672313Y-196450471D01*
X195672313Y-196450471D02*
X195600884Y-196307614D01*
X195600884Y-196307614D02*
X195529456Y-196021900D01*
X195529456Y-196021900D02*
X195529456Y-195664757D01*
X195529456Y-195664757D02*
X195600884Y-195379042D01*
X195600884Y-195379042D02*
X195672313Y-195236185D01*
X195672313Y-195236185D02*
X195743742Y-195164757D01*
X195743742Y-195164757D02*
X195886599Y-195093328D01*
X197029455Y-196450471D02*
X197100884Y-196521900D01*
X197100884Y-196521900D02*
X197029455Y-196593328D01*
X197029455Y-196593328D02*
X196958027Y-196521900D01*
X196958027Y-196521900D02*
X197029455Y-196450471D01*
X197029455Y-196450471D02*
X197029455Y-196593328D01*
X197600884Y-195093328D02*
X198600884Y-195093328D01*
X198600884Y-195093328D02*
X197958027Y-196593328D01*
D10*
D11*
X177002200Y-191507200D02*
X285002200Y-191507200D01*
D10*
D12*
X264413853Y-193785528D02*
X263913853Y-193071242D01*
X263556710Y-193785528D02*
X263556710Y-192285528D01*
X263556710Y-192285528D02*
X264128139Y-192285528D01*
X264128139Y-192285528D02*
X264270996Y-192356957D01*
X264270996Y-192356957D02*
X264342425Y-192428385D01*
X264342425Y-192428385D02*
X264413853Y-192571242D01*
X264413853Y-192571242D02*
X264413853Y-192785528D01*
X264413853Y-192785528D02*
X264342425Y-192928385D01*
X264342425Y-192928385D02*
X264270996Y-192999814D01*
X264270996Y-192999814D02*
X264128139Y-193071242D01*
X264128139Y-193071242D02*
X263556710Y-193071242D01*
X265628139Y-193714100D02*
X265485282Y-193785528D01*
X265485282Y-193785528D02*
X265199568Y-193785528D01*
X265199568Y-193785528D02*
X265056710Y-193714100D01*
X265056710Y-193714100D02*
X264985282Y-193571242D01*
X264985282Y-193571242D02*
X264985282Y-192999814D01*
X264985282Y-192999814D02*
X265056710Y-192856957D01*
X265056710Y-192856957D02*
X265199568Y-192785528D01*
X265199568Y-192785528D02*
X265485282Y-192785528D01*
X265485282Y-192785528D02*
X265628139Y-192856957D01*
X265628139Y-192856957D02*
X265699568Y-192999814D01*
X265699568Y-192999814D02*
X265699568Y-193142671D01*
X265699568Y-193142671D02*
X264985282Y-193285528D01*
X266199567Y-192785528D02*
X266556710Y-193785528D01*
X266556710Y-193785528D02*
X266913853Y-192785528D01*
X267485281Y-193642671D02*
X267556710Y-193714100D01*
X267556710Y-193714100D02*
X267485281Y-193785528D01*
X267485281Y-193785528D02*
X267413853Y-193714100D01*
X267413853Y-193714100D02*
X267485281Y-193642671D01*
X267485281Y-193642671D02*
X267485281Y-193785528D01*
X267485281Y-192856957D02*
X267556710Y-192928385D01*
X267556710Y-192928385D02*
X267485281Y-192999814D01*
X267485281Y-192999814D02*
X267413853Y-192928385D01*
X267413853Y-192928385D02*
X267485281Y-192856957D01*
X267485281Y-192856957D02*
X267485281Y-192999814D01*
D10*
D11*
X178386598Y-193721900D02*
X178600884Y-193793328D01*
X178600884Y-193793328D02*
X178958026Y-193793328D01*
X178958026Y-193793328D02*
X179100884Y-193721900D01*
X179100884Y-193721900D02*
X179172312Y-193650471D01*
X179172312Y-193650471D02*
X179243741Y-193507614D01*
X179243741Y-193507614D02*
X179243741Y-193364757D01*
X179243741Y-193364757D02*
X179172312Y-193221900D01*
X179172312Y-193221900D02*
X179100884Y-193150471D01*
X179100884Y-193150471D02*
X178958026Y-193079042D01*
X178958026Y-193079042D02*
X178672312Y-193007614D01*
X178672312Y-193007614D02*
X178529455Y-192936185D01*
X178529455Y-192936185D02*
X178458026Y-192864757D01*
X178458026Y-192864757D02*
X178386598Y-192721900D01*
X178386598Y-192721900D02*
X178386598Y-192579042D01*
X178386598Y-192579042D02*
X178458026Y-192436185D01*
X178458026Y-192436185D02*
X178529455Y-192364757D01*
X178529455Y-192364757D02*
X178672312Y-192293328D01*
X178672312Y-192293328D02*
X179029455Y-192293328D01*
X179029455Y-192293328D02*
X179243741Y-192364757D01*
X179886597Y-193793328D02*
X179886597Y-192793328D01*
X179886597Y-192293328D02*
X179815169Y-192364757D01*
X179815169Y-192364757D02*
X179886597Y-192436185D01*
X179886597Y-192436185D02*
X179958026Y-192364757D01*
X179958026Y-192364757D02*
X179886597Y-192293328D01*
X179886597Y-192293328D02*
X179886597Y-192436185D01*
X180458026Y-192793328D02*
X181243741Y-192793328D01*
X181243741Y-192793328D02*
X180458026Y-193793328D01*
X180458026Y-193793328D02*
X181243741Y-193793328D01*
X182386598Y-193721900D02*
X182243741Y-193793328D01*
X182243741Y-193793328D02*
X181958027Y-193793328D01*
X181958027Y-193793328D02*
X181815169Y-193721900D01*
X181815169Y-193721900D02*
X181743741Y-193579042D01*
X181743741Y-193579042D02*
X181743741Y-193007614D01*
X181743741Y-193007614D02*
X181815169Y-192864757D01*
X181815169Y-192864757D02*
X181958027Y-192793328D01*
X181958027Y-192793328D02*
X182243741Y-192793328D01*
X182243741Y-192793328D02*
X182386598Y-192864757D01*
X182386598Y-192864757D02*
X182458027Y-193007614D01*
X182458027Y-193007614D02*
X182458027Y-193150471D01*
X182458027Y-193150471D02*
X181743741Y-193293328D01*
X183100883Y-193650471D02*
X183172312Y-193721900D01*
X183172312Y-193721900D02*
X183100883Y-193793328D01*
X183100883Y-193793328D02*
X183029455Y-193721900D01*
X183029455Y-193721900D02*
X183100883Y-193650471D01*
X183100883Y-193650471D02*
X183100883Y-193793328D01*
X183100883Y-192864757D02*
X183172312Y-192936185D01*
X183172312Y-192936185D02*
X183100883Y-193007614D01*
X183100883Y-193007614D02*
X183029455Y-192936185D01*
X183029455Y-192936185D02*
X183100883Y-192864757D01*
X183100883Y-192864757D02*
X183100883Y-193007614D01*
X184886598Y-193364757D02*
X185600884Y-193364757D01*
X184743741Y-193793328D02*
X185243741Y-192293328D01*
X185243741Y-192293328D02*
X185743741Y-193793328D01*
X186886598Y-192793328D02*
X186886598Y-193793328D01*
X186529455Y-192221900D02*
X186172312Y-193293328D01*
X186172312Y-193293328D02*
X187100883Y-193293328D01*
D10*
D11*
X263458026Y-196593328D02*
X263458026Y-195093328D01*
X264815170Y-196593328D02*
X264815170Y-195093328D01*
X264815170Y-196521900D02*
X264672312Y-196593328D01*
X264672312Y-196593328D02*
X264386598Y-196593328D01*
X264386598Y-196593328D02*
X264243741Y-196521900D01*
X264243741Y-196521900D02*
X264172312Y-196450471D01*
X264172312Y-196450471D02*
X264100884Y-196307614D01*
X264100884Y-196307614D02*
X264100884Y-195879042D01*
X264100884Y-195879042D02*
X264172312Y-195736185D01*
X264172312Y-195736185D02*
X264243741Y-195664757D01*
X264243741Y-195664757D02*
X264386598Y-195593328D01*
X264386598Y-195593328D02*
X264672312Y-195593328D01*
X264672312Y-195593328D02*
X264815170Y-195664757D01*
X265529455Y-196450471D02*
X265600884Y-196521900D01*
X265600884Y-196521900D02*
X265529455Y-196593328D01*
X265529455Y-196593328D02*
X265458027Y-196521900D01*
X265458027Y-196521900D02*
X265529455Y-196450471D01*
X265529455Y-196450471D02*
X265529455Y-196593328D01*
X265529455Y-195664757D02*
X265600884Y-195736185D01*
X265600884Y-195736185D02*
X265529455Y-195807614D01*
X265529455Y-195807614D02*
X265458027Y-195736185D01*
X265458027Y-195736185D02*
X265529455Y-195664757D01*
X265529455Y-195664757D02*
X265529455Y-195807614D01*
X267600884Y-195736185D02*
X267458027Y-195664757D01*
X267458027Y-195664757D02*
X267386598Y-195593328D01*
X267386598Y-195593328D02*
X267315170Y-195450471D01*
X267315170Y-195450471D02*
X267315170Y-195379042D01*
X267315170Y-195379042D02*
X267386598Y-195236185D01*
X267386598Y-195236185D02*
X267458027Y-195164757D01*
X267458027Y-195164757D02*
X267600884Y-195093328D01*
X267600884Y-195093328D02*
X267886598Y-195093328D01*
X267886598Y-195093328D02*
X268029456Y-195164757D01*
X268029456Y-195164757D02*
X268100884Y-195236185D01*
X268100884Y-195236185D02*
X268172313Y-195379042D01*
X268172313Y-195379042D02*
X268172313Y-195450471D01*
X268172313Y-195450471D02*
X268100884Y-195593328D01*
X268100884Y-195593328D02*
X268029456Y-195664757D01*
X268029456Y-195664757D02*
X267886598Y-195736185D01*
X267886598Y-195736185D02*
X267600884Y-195736185D01*
X267600884Y-195736185D02*
X267458027Y-195807614D01*
X267458027Y-195807614D02*
X267386598Y-195879042D01*
X267386598Y-195879042D02*
X267315170Y-196021900D01*
X267315170Y-196021900D02*
X267315170Y-196307614D01*
X267315170Y-196307614D02*
X267386598Y-196450471D01*
X267386598Y-196450471D02*
X267458027Y-196521900D01*
X267458027Y-196521900D02*
X267600884Y-196593328D01*
X267600884Y-196593328D02*
X267886598Y-196593328D01*
X267886598Y-196593328D02*
X268029456Y-196521900D01*
X268029456Y-196521900D02*
X268100884Y-196450471D01*
X268100884Y-196450471D02*
X268172313Y-196307614D01*
X268172313Y-196307614D02*
X268172313Y-196021900D01*
X268172313Y-196021900D02*
X268100884Y-195879042D01*
X268100884Y-195879042D02*
X268029456Y-195807614D01*
X268029456Y-195807614D02*
X267886598Y-195736185D01*
X269886598Y-195021900D02*
X268600884Y-196950471D01*
X271172313Y-196593328D02*
X270315170Y-196593328D01*
X270743741Y-196593328D02*
X270743741Y-195093328D01*
X270743741Y-195093328D02*
X270600884Y-195307614D01*
X270600884Y-195307614D02*
X270458027Y-195450471D01*
X270458027Y-195450471D02*
X270315170Y-195521900D01*
X272600884Y-196593328D02*
X271743741Y-196593328D01*
X272172312Y-196593328D02*
X272172312Y-195093328D01*
X272172312Y-195093328D02*
X272029455Y-195307614D01*
X272029455Y-195307614D02*
X271886598Y-195450471D01*
X271886598Y-195450471D02*
X271743741Y-195521900D01*
D10*
D11*
X177002200Y-187507200D02*
X285002200Y-187507200D01*
D10*
D13*
X178693928Y-188211638D02*
X179836785Y-188211638D01*
X179015357Y-190211638D02*
X179265357Y-188211638D01*
X180253452Y-190211638D02*
X180420119Y-188878304D01*
X180503452Y-188211638D02*
X180396309Y-188306876D01*
X180396309Y-188306876D02*
X180479643Y-188402114D01*
X180479643Y-188402114D02*
X180586786Y-188306876D01*
X180586786Y-188306876D02*
X180503452Y-188211638D01*
X180503452Y-188211638D02*
X180479643Y-188402114D01*
X181086786Y-188878304D02*
X181848690Y-188878304D01*
X181455833Y-188211638D02*
X181241548Y-189925923D01*
X181241548Y-189925923D02*
X181312976Y-190116400D01*
X181312976Y-190116400D02*
X181491548Y-190211638D01*
X181491548Y-190211638D02*
X181682024Y-190211638D01*
X182634405Y-190211638D02*
X182455833Y-190116400D01*
X182455833Y-190116400D02*
X182384405Y-189925923D01*
X182384405Y-189925923D02*
X182598690Y-188211638D01*
X184170119Y-190116400D02*
X183967738Y-190211638D01*
X183967738Y-190211638D02*
X183586785Y-190211638D01*
X183586785Y-190211638D02*
X183408214Y-190116400D01*
X183408214Y-190116400D02*
X183336785Y-189925923D01*
X183336785Y-189925923D02*
X183432024Y-189164019D01*
X183432024Y-189164019D02*
X183551071Y-188973542D01*
X183551071Y-188973542D02*
X183753452Y-188878304D01*
X183753452Y-188878304D02*
X184134404Y-188878304D01*
X184134404Y-188878304D02*
X184312976Y-188973542D01*
X184312976Y-188973542D02*
X184384404Y-189164019D01*
X184384404Y-189164019D02*
X184360595Y-189354495D01*
X184360595Y-189354495D02*
X183384404Y-189544971D01*
X185134405Y-190021161D02*
X185217738Y-190116400D01*
X185217738Y-190116400D02*
X185110595Y-190211638D01*
X185110595Y-190211638D02*
X185027262Y-190116400D01*
X185027262Y-190116400D02*
X185134405Y-190021161D01*
X185134405Y-190021161D02*
X185110595Y-190211638D01*
X185265357Y-188973542D02*
X185348690Y-189068780D01*
X185348690Y-189068780D02*
X185241548Y-189164019D01*
X185241548Y-189164019D02*
X185158214Y-189068780D01*
X185158214Y-189068780D02*
X185265357Y-188973542D01*
X185265357Y-188973542D02*
X185241548Y-189164019D01*
D10*
D11*
X178958026Y-185607614D02*
X178458026Y-185607614D01*
X178458026Y-186393328D02*
X178458026Y-184893328D01*
X178458026Y-184893328D02*
X179172312Y-184893328D01*
X179743740Y-186393328D02*
X179743740Y-185393328D01*
X179743740Y-184893328D02*
X179672312Y-184964757D01*
X179672312Y-184964757D02*
X179743740Y-185036185D01*
X179743740Y-185036185D02*
X179815169Y-184964757D01*
X179815169Y-184964757D02*
X179743740Y-184893328D01*
X179743740Y-184893328D02*
X179743740Y-185036185D01*
X180672312Y-186393328D02*
X180529455Y-186321900D01*
X180529455Y-186321900D02*
X180458026Y-186179042D01*
X180458026Y-186179042D02*
X180458026Y-184893328D01*
X181815169Y-186321900D02*
X181672312Y-186393328D01*
X181672312Y-186393328D02*
X181386598Y-186393328D01*
X181386598Y-186393328D02*
X181243740Y-186321900D01*
X181243740Y-186321900D02*
X181172312Y-186179042D01*
X181172312Y-186179042D02*
X181172312Y-185607614D01*
X181172312Y-185607614D02*
X181243740Y-185464757D01*
X181243740Y-185464757D02*
X181386598Y-185393328D01*
X181386598Y-185393328D02*
X181672312Y-185393328D01*
X181672312Y-185393328D02*
X181815169Y-185464757D01*
X181815169Y-185464757D02*
X181886598Y-185607614D01*
X181886598Y-185607614D02*
X181886598Y-185750471D01*
X181886598Y-185750471D02*
X181172312Y-185893328D01*
X182529454Y-186250471D02*
X182600883Y-186321900D01*
X182600883Y-186321900D02*
X182529454Y-186393328D01*
X182529454Y-186393328D02*
X182458026Y-186321900D01*
X182458026Y-186321900D02*
X182529454Y-186250471D01*
X182529454Y-186250471D02*
X182529454Y-186393328D01*
X182529454Y-185464757D02*
X182600883Y-185536185D01*
X182600883Y-185536185D02*
X182529454Y-185607614D01*
X182529454Y-185607614D02*
X182458026Y-185536185D01*
X182458026Y-185536185D02*
X182529454Y-185464757D01*
X182529454Y-185464757D02*
X182529454Y-185607614D01*
X184315169Y-186321900D02*
X184529455Y-186393328D01*
X184529455Y-186393328D02*
X184886597Y-186393328D01*
X184886597Y-186393328D02*
X185029455Y-186321900D01*
X185029455Y-186321900D02*
X185100883Y-186250471D01*
X185100883Y-186250471D02*
X185172312Y-186107614D01*
X185172312Y-186107614D02*
X185172312Y-185964757D01*
X185172312Y-185964757D02*
X185100883Y-185821900D01*
X185100883Y-185821900D02*
X185029455Y-185750471D01*
X185029455Y-185750471D02*
X184886597Y-185679042D01*
X184886597Y-185679042D02*
X184600883Y-185607614D01*
X184600883Y-185607614D02*
X184458026Y-185536185D01*
X184458026Y-185536185D02*
X184386597Y-185464757D01*
X184386597Y-185464757D02*
X184315169Y-185321900D01*
X184315169Y-185321900D02*
X184315169Y-185179042D01*
X184315169Y-185179042D02*
X184386597Y-185036185D01*
X184386597Y-185036185D02*
X184458026Y-184964757D01*
X184458026Y-184964757D02*
X184600883Y-184893328D01*
X184600883Y-184893328D02*
X184958026Y-184893328D01*
X184958026Y-184893328D02*
X185172312Y-184964757D01*
X186386597Y-186321900D02*
X186243740Y-186393328D01*
X186243740Y-186393328D02*
X185958026Y-186393328D01*
X185958026Y-186393328D02*
X185815168Y-186321900D01*
X185815168Y-186321900D02*
X185743740Y-186179042D01*
X185743740Y-186179042D02*
X185743740Y-185607614D01*
X185743740Y-185607614D02*
X185815168Y-185464757D01*
X185815168Y-185464757D02*
X185958026Y-185393328D01*
X185958026Y-185393328D02*
X186243740Y-185393328D01*
X186243740Y-185393328D02*
X186386597Y-185464757D01*
X186386597Y-185464757D02*
X186458026Y-185607614D01*
X186458026Y-185607614D02*
X186458026Y-185750471D01*
X186458026Y-185750471D02*
X185743740Y-185893328D01*
X187100882Y-185393328D02*
X187100882Y-186393328D01*
X187100882Y-185536185D02*
X187172311Y-185464757D01*
X187172311Y-185464757D02*
X187315168Y-185393328D01*
X187315168Y-185393328D02*
X187529454Y-185393328D01*
X187529454Y-185393328D02*
X187672311Y-185464757D01*
X187672311Y-185464757D02*
X187743740Y-185607614D01*
X187743740Y-185607614D02*
X187743740Y-186393328D01*
X188386597Y-186321900D02*
X188529454Y-186393328D01*
X188529454Y-186393328D02*
X188815168Y-186393328D01*
X188815168Y-186393328D02*
X188958025Y-186321900D01*
X188958025Y-186321900D02*
X189029454Y-186179042D01*
X189029454Y-186179042D02*
X189029454Y-186107614D01*
X189029454Y-186107614D02*
X188958025Y-185964757D01*
X188958025Y-185964757D02*
X188815168Y-185893328D01*
X188815168Y-185893328D02*
X188600883Y-185893328D01*
X188600883Y-185893328D02*
X188458025Y-185821900D01*
X188458025Y-185821900D02*
X188386597Y-185679042D01*
X188386597Y-185679042D02*
X188386597Y-185607614D01*
X188386597Y-185607614D02*
X188458025Y-185464757D01*
X188458025Y-185464757D02*
X188600883Y-185393328D01*
X188600883Y-185393328D02*
X188815168Y-185393328D01*
X188815168Y-185393328D02*
X188958025Y-185464757D01*
X189886597Y-186393328D02*
X189743740Y-186321900D01*
X189743740Y-186321900D02*
X189672311Y-186250471D01*
X189672311Y-186250471D02*
X189600883Y-186107614D01*
X189600883Y-186107614D02*
X189600883Y-185679042D01*
X189600883Y-185679042D02*
X189672311Y-185536185D01*
X189672311Y-185536185D02*
X189743740Y-185464757D01*
X189743740Y-185464757D02*
X189886597Y-185393328D01*
X189886597Y-185393328D02*
X190100883Y-185393328D01*
X190100883Y-185393328D02*
X190243740Y-185464757D01*
X190243740Y-185464757D02*
X190315169Y-185536185D01*
X190315169Y-185536185D02*
X190386597Y-185679042D01*
X190386597Y-185679042D02*
X190386597Y-186107614D01*
X190386597Y-186107614D02*
X190315169Y-186250471D01*
X190315169Y-186250471D02*
X190243740Y-186321900D01*
X190243740Y-186321900D02*
X190100883Y-186393328D01*
X190100883Y-186393328D02*
X189886597Y-186393328D01*
X191029454Y-186393328D02*
X191029454Y-185393328D01*
X191029454Y-185679042D02*
X191100883Y-185536185D01*
X191100883Y-185536185D02*
X191172312Y-185464757D01*
X191172312Y-185464757D02*
X191315169Y-185393328D01*
X191315169Y-185393328D02*
X191458026Y-185393328D01*
X193958025Y-186250471D02*
X193886597Y-186321900D01*
X193886597Y-186321900D02*
X193672311Y-186393328D01*
X193672311Y-186393328D02*
X193529454Y-186393328D01*
X193529454Y-186393328D02*
X193315168Y-186321900D01*
X193315168Y-186321900D02*
X193172311Y-186179042D01*
X193172311Y-186179042D02*
X193100882Y-186036185D01*
X193100882Y-186036185D02*
X193029454Y-185750471D01*
X193029454Y-185750471D02*
X193029454Y-185536185D01*
X193029454Y-185536185D02*
X193100882Y-185250471D01*
X193100882Y-185250471D02*
X193172311Y-185107614D01*
X193172311Y-185107614D02*
X193315168Y-184964757D01*
X193315168Y-184964757D02*
X193529454Y-184893328D01*
X193529454Y-184893328D02*
X193672311Y-184893328D01*
X193672311Y-184893328D02*
X193886597Y-184964757D01*
X193886597Y-184964757D02*
X193958025Y-185036185D01*
X195172311Y-186321900D02*
X195029454Y-186393328D01*
X195029454Y-186393328D02*
X194743740Y-186393328D01*
X194743740Y-186393328D02*
X194600882Y-186321900D01*
X194600882Y-186321900D02*
X194529454Y-186179042D01*
X194529454Y-186179042D02*
X194529454Y-185607614D01*
X194529454Y-185607614D02*
X194600882Y-185464757D01*
X194600882Y-185464757D02*
X194743740Y-185393328D01*
X194743740Y-185393328D02*
X195029454Y-185393328D01*
X195029454Y-185393328D02*
X195172311Y-185464757D01*
X195172311Y-185464757D02*
X195243740Y-185607614D01*
X195243740Y-185607614D02*
X195243740Y-185750471D01*
X195243740Y-185750471D02*
X194529454Y-185893328D01*
X196100882Y-186393328D02*
X195958025Y-186321900D01*
X195958025Y-186321900D02*
X195886596Y-186179042D01*
X195886596Y-186179042D02*
X195886596Y-184893328D01*
X196886596Y-186393328D02*
X196743739Y-186321900D01*
X196743739Y-186321900D02*
X196672310Y-186179042D01*
X196672310Y-186179042D02*
X196672310Y-184893328D01*
X198458024Y-185393328D02*
X198743739Y-186393328D01*
X198743739Y-186393328D02*
X199029453Y-185679042D01*
X199029453Y-185679042D02*
X199315167Y-186393328D01*
X199315167Y-186393328D02*
X199600881Y-185393328D01*
X200172310Y-186393328D02*
X200172310Y-185393328D01*
X200172310Y-184893328D02*
X200100882Y-184964757D01*
X200100882Y-184964757D02*
X200172310Y-185036185D01*
X200172310Y-185036185D02*
X200243739Y-184964757D01*
X200243739Y-184964757D02*
X200172310Y-184893328D01*
X200172310Y-184893328D02*
X200172310Y-185036185D01*
X200672311Y-185393328D02*
X201243739Y-185393328D01*
X200886596Y-184893328D02*
X200886596Y-186179042D01*
X200886596Y-186179042D02*
X200958025Y-186321900D01*
X200958025Y-186321900D02*
X201100882Y-186393328D01*
X201100882Y-186393328D02*
X201243739Y-186393328D01*
X201743739Y-186393328D02*
X201743739Y-184893328D01*
X202386597Y-186393328D02*
X202386597Y-185607614D01*
X202386597Y-185607614D02*
X202315168Y-185464757D01*
X202315168Y-185464757D02*
X202172311Y-185393328D01*
X202172311Y-185393328D02*
X201958025Y-185393328D01*
X201958025Y-185393328D02*
X201815168Y-185464757D01*
X201815168Y-185464757D02*
X201743739Y-185536185D01*
X205100882Y-186250471D02*
X205029454Y-186321900D01*
X205029454Y-186321900D02*
X204815168Y-186393328D01*
X204815168Y-186393328D02*
X204672311Y-186393328D01*
X204672311Y-186393328D02*
X204458025Y-186321900D01*
X204458025Y-186321900D02*
X204315168Y-186179042D01*
X204315168Y-186179042D02*
X204243739Y-186036185D01*
X204243739Y-186036185D02*
X204172311Y-185750471D01*
X204172311Y-185750471D02*
X204172311Y-185536185D01*
X204172311Y-185536185D02*
X204243739Y-185250471D01*
X204243739Y-185250471D02*
X204315168Y-185107614D01*
X204315168Y-185107614D02*
X204458025Y-184964757D01*
X204458025Y-184964757D02*
X204672311Y-184893328D01*
X204672311Y-184893328D02*
X204815168Y-184893328D01*
X204815168Y-184893328D02*
X205029454Y-184964757D01*
X205029454Y-184964757D02*
X205100882Y-185036185D01*
X205958025Y-186393328D02*
X205815168Y-186321900D01*
X205815168Y-186321900D02*
X205743739Y-186250471D01*
X205743739Y-186250471D02*
X205672311Y-186107614D01*
X205672311Y-186107614D02*
X205672311Y-185679042D01*
X205672311Y-185679042D02*
X205743739Y-185536185D01*
X205743739Y-185536185D02*
X205815168Y-185464757D01*
X205815168Y-185464757D02*
X205958025Y-185393328D01*
X205958025Y-185393328D02*
X206172311Y-185393328D01*
X206172311Y-185393328D02*
X206315168Y-185464757D01*
X206315168Y-185464757D02*
X206386597Y-185536185D01*
X206386597Y-185536185D02*
X206458025Y-185679042D01*
X206458025Y-185679042D02*
X206458025Y-186107614D01*
X206458025Y-186107614D02*
X206386597Y-186250471D01*
X206386597Y-186250471D02*
X206315168Y-186321900D01*
X206315168Y-186321900D02*
X206172311Y-186393328D01*
X206172311Y-186393328D02*
X205958025Y-186393328D01*
X207100882Y-186393328D02*
X207100882Y-185393328D01*
X207100882Y-185536185D02*
X207172311Y-185464757D01*
X207172311Y-185464757D02*
X207315168Y-185393328D01*
X207315168Y-185393328D02*
X207529454Y-185393328D01*
X207529454Y-185393328D02*
X207672311Y-185464757D01*
X207672311Y-185464757D02*
X207743740Y-185607614D01*
X207743740Y-185607614D02*
X207743740Y-186393328D01*
X207743740Y-185607614D02*
X207815168Y-185464757D01*
X207815168Y-185464757D02*
X207958025Y-185393328D01*
X207958025Y-185393328D02*
X208172311Y-185393328D01*
X208172311Y-185393328D02*
X208315168Y-185464757D01*
X208315168Y-185464757D02*
X208386597Y-185607614D01*
X208386597Y-185607614D02*
X208386597Y-186393328D01*
X209100882Y-186393328D02*
X209100882Y-185393328D01*
X209100882Y-185536185D02*
X209172311Y-185464757D01*
X209172311Y-185464757D02*
X209315168Y-185393328D01*
X209315168Y-185393328D02*
X209529454Y-185393328D01*
X209529454Y-185393328D02*
X209672311Y-185464757D01*
X209672311Y-185464757D02*
X209743740Y-185607614D01*
X209743740Y-185607614D02*
X209743740Y-186393328D01*
X209743740Y-185607614D02*
X209815168Y-185464757D01*
X209815168Y-185464757D02*
X209958025Y-185393328D01*
X209958025Y-185393328D02*
X210172311Y-185393328D01*
X210172311Y-185393328D02*
X210315168Y-185464757D01*
X210315168Y-185464757D02*
X210386597Y-185607614D01*
X210386597Y-185607614D02*
X210386597Y-186393328D01*
X211029454Y-186321900D02*
X211172311Y-186393328D01*
X211172311Y-186393328D02*
X211458025Y-186393328D01*
X211458025Y-186393328D02*
X211600882Y-186321900D01*
X211600882Y-186321900D02*
X211672311Y-186179042D01*
X211672311Y-186179042D02*
X211672311Y-186107614D01*
X211672311Y-186107614D02*
X211600882Y-185964757D01*
X211600882Y-185964757D02*
X211458025Y-185893328D01*
X211458025Y-185893328D02*
X211243740Y-185893328D01*
X211243740Y-185893328D02*
X211100882Y-185821900D01*
X211100882Y-185821900D02*
X211029454Y-185679042D01*
X211029454Y-185679042D02*
X211029454Y-185607614D01*
X211029454Y-185607614D02*
X211100882Y-185464757D01*
X211100882Y-185464757D02*
X211243740Y-185393328D01*
X211243740Y-185393328D02*
X211458025Y-185393328D01*
X211458025Y-185393328D02*
X211600882Y-185464757D01*
X212315168Y-186250471D02*
X212386597Y-186321900D01*
X212386597Y-186321900D02*
X212315168Y-186393328D01*
X212315168Y-186393328D02*
X212243740Y-186321900D01*
X212243740Y-186321900D02*
X212315168Y-186250471D01*
X212315168Y-186250471D02*
X212315168Y-186393328D01*
X213029454Y-186393328D02*
X213029454Y-184893328D01*
X213172312Y-185821900D02*
X213600883Y-186393328D01*
X213600883Y-185393328D02*
X213029454Y-185964757D01*
X214243740Y-186393328D02*
X214243740Y-185393328D01*
X214243740Y-184893328D02*
X214172312Y-184964757D01*
X214172312Y-184964757D02*
X214243740Y-185036185D01*
X214243740Y-185036185D02*
X214315169Y-184964757D01*
X214315169Y-184964757D02*
X214243740Y-184893328D01*
X214243740Y-184893328D02*
X214243740Y-185036185D01*
X215600884Y-186321900D02*
X215458026Y-186393328D01*
X215458026Y-186393328D02*
X215172312Y-186393328D01*
X215172312Y-186393328D02*
X215029455Y-186321900D01*
X215029455Y-186321900D02*
X214958026Y-186250471D01*
X214958026Y-186250471D02*
X214886598Y-186107614D01*
X214886598Y-186107614D02*
X214886598Y-185679042D01*
X214886598Y-185679042D02*
X214958026Y-185536185D01*
X214958026Y-185536185D02*
X215029455Y-185464757D01*
X215029455Y-185464757D02*
X215172312Y-185393328D01*
X215172312Y-185393328D02*
X215458026Y-185393328D01*
X215458026Y-185393328D02*
X215600884Y-185464757D01*
X216886598Y-186393328D02*
X216886598Y-185607614D01*
X216886598Y-185607614D02*
X216815169Y-185464757D01*
X216815169Y-185464757D02*
X216672312Y-185393328D01*
X216672312Y-185393328D02*
X216386598Y-185393328D01*
X216386598Y-185393328D02*
X216243740Y-185464757D01*
X216886598Y-186321900D02*
X216743740Y-186393328D01*
X216743740Y-186393328D02*
X216386598Y-186393328D01*
X216386598Y-186393328D02*
X216243740Y-186321900D01*
X216243740Y-186321900D02*
X216172312Y-186179042D01*
X216172312Y-186179042D02*
X216172312Y-186036185D01*
X216172312Y-186036185D02*
X216243740Y-185893328D01*
X216243740Y-185893328D02*
X216386598Y-185821900D01*
X216386598Y-185821900D02*
X216743740Y-185821900D01*
X216743740Y-185821900D02*
X216886598Y-185750471D01*
X218243741Y-186393328D02*
X218243741Y-184893328D01*
X218243741Y-186321900D02*
X218100883Y-186393328D01*
X218100883Y-186393328D02*
X217815169Y-186393328D01*
X217815169Y-186393328D02*
X217672312Y-186321900D01*
X217672312Y-186321900D02*
X217600883Y-186250471D01*
X217600883Y-186250471D02*
X217529455Y-186107614D01*
X217529455Y-186107614D02*
X217529455Y-185679042D01*
X217529455Y-185679042D02*
X217600883Y-185536185D01*
X217600883Y-185536185D02*
X217672312Y-185464757D01*
X217672312Y-185464757D02*
X217815169Y-185393328D01*
X217815169Y-185393328D02*
X218100883Y-185393328D01*
X218100883Y-185393328D02*
X218243741Y-185464757D01*
X218600884Y-186536185D02*
X219743741Y-186536185D01*
X220100883Y-185393328D02*
X220100883Y-186893328D01*
X220100883Y-185464757D02*
X220243741Y-185393328D01*
X220243741Y-185393328D02*
X220529455Y-185393328D01*
X220529455Y-185393328D02*
X220672312Y-185464757D01*
X220672312Y-185464757D02*
X220743741Y-185536185D01*
X220743741Y-185536185D02*
X220815169Y-185679042D01*
X220815169Y-185679042D02*
X220815169Y-186107614D01*
X220815169Y-186107614D02*
X220743741Y-186250471D01*
X220743741Y-186250471D02*
X220672312Y-186321900D01*
X220672312Y-186321900D02*
X220529455Y-186393328D01*
X220529455Y-186393328D02*
X220243741Y-186393328D01*
X220243741Y-186393328D02*
X220100883Y-186321900D01*
X222100884Y-186321900D02*
X221958026Y-186393328D01*
X221958026Y-186393328D02*
X221672312Y-186393328D01*
X221672312Y-186393328D02*
X221529455Y-186321900D01*
X221529455Y-186321900D02*
X221458026Y-186250471D01*
X221458026Y-186250471D02*
X221386598Y-186107614D01*
X221386598Y-186107614D02*
X221386598Y-185679042D01*
X221386598Y-185679042D02*
X221458026Y-185536185D01*
X221458026Y-185536185D02*
X221529455Y-185464757D01*
X221529455Y-185464757D02*
X221672312Y-185393328D01*
X221672312Y-185393328D02*
X221958026Y-185393328D01*
X221958026Y-185393328D02*
X222100884Y-185464757D01*
X222743740Y-186393328D02*
X222743740Y-184893328D01*
X222743740Y-185464757D02*
X222886598Y-185393328D01*
X222886598Y-185393328D02*
X223172312Y-185393328D01*
X223172312Y-185393328D02*
X223315169Y-185464757D01*
X223315169Y-185464757D02*
X223386598Y-185536185D01*
X223386598Y-185536185D02*
X223458026Y-185679042D01*
X223458026Y-185679042D02*
X223458026Y-186107614D01*
X223458026Y-186107614D02*
X223386598Y-186250471D01*
X223386598Y-186250471D02*
X223315169Y-186321900D01*
X223315169Y-186321900D02*
X223172312Y-186393328D01*
X223172312Y-186393328D02*
X222886598Y-186393328D01*
X222886598Y-186393328D02*
X222743740Y-186321900D01*
D10*
D11*
X177002200Y-181507200D02*
X285002200Y-181507200D01*
D10*
D11*
X178386598Y-183621900D02*
X178600884Y-183693328D01*
X178600884Y-183693328D02*
X178958026Y-183693328D01*
X178958026Y-183693328D02*
X179100884Y-183621900D01*
X179100884Y-183621900D02*
X179172312Y-183550471D01*
X179172312Y-183550471D02*
X179243741Y-183407614D01*
X179243741Y-183407614D02*
X179243741Y-183264757D01*
X179243741Y-183264757D02*
X179172312Y-183121900D01*
X179172312Y-183121900D02*
X179100884Y-183050471D01*
X179100884Y-183050471D02*
X178958026Y-182979042D01*
X178958026Y-182979042D02*
X178672312Y-182907614D01*
X178672312Y-182907614D02*
X178529455Y-182836185D01*
X178529455Y-182836185D02*
X178458026Y-182764757D01*
X178458026Y-182764757D02*
X178386598Y-182621900D01*
X178386598Y-182621900D02*
X178386598Y-182479042D01*
X178386598Y-182479042D02*
X178458026Y-182336185D01*
X178458026Y-182336185D02*
X178529455Y-182264757D01*
X178529455Y-182264757D02*
X178672312Y-182193328D01*
X178672312Y-182193328D02*
X179029455Y-182193328D01*
X179029455Y-182193328D02*
X179243741Y-182264757D01*
X179886597Y-183693328D02*
X179886597Y-182193328D01*
X180529455Y-183693328D02*
X180529455Y-182907614D01*
X180529455Y-182907614D02*
X180458026Y-182764757D01*
X180458026Y-182764757D02*
X180315169Y-182693328D01*
X180315169Y-182693328D02*
X180100883Y-182693328D01*
X180100883Y-182693328D02*
X179958026Y-182764757D01*
X179958026Y-182764757D02*
X179886597Y-182836185D01*
X181815169Y-183621900D02*
X181672312Y-183693328D01*
X181672312Y-183693328D02*
X181386598Y-183693328D01*
X181386598Y-183693328D02*
X181243740Y-183621900D01*
X181243740Y-183621900D02*
X181172312Y-183479042D01*
X181172312Y-183479042D02*
X181172312Y-182907614D01*
X181172312Y-182907614D02*
X181243740Y-182764757D01*
X181243740Y-182764757D02*
X181386598Y-182693328D01*
X181386598Y-182693328D02*
X181672312Y-182693328D01*
X181672312Y-182693328D02*
X181815169Y-182764757D01*
X181815169Y-182764757D02*
X181886598Y-182907614D01*
X181886598Y-182907614D02*
X181886598Y-183050471D01*
X181886598Y-183050471D02*
X181172312Y-183193328D01*
X183100883Y-183621900D02*
X182958026Y-183693328D01*
X182958026Y-183693328D02*
X182672312Y-183693328D01*
X182672312Y-183693328D02*
X182529454Y-183621900D01*
X182529454Y-183621900D02*
X182458026Y-183479042D01*
X182458026Y-183479042D02*
X182458026Y-182907614D01*
X182458026Y-182907614D02*
X182529454Y-182764757D01*
X182529454Y-182764757D02*
X182672312Y-182693328D01*
X182672312Y-182693328D02*
X182958026Y-182693328D01*
X182958026Y-182693328D02*
X183100883Y-182764757D01*
X183100883Y-182764757D02*
X183172312Y-182907614D01*
X183172312Y-182907614D02*
X183172312Y-183050471D01*
X183172312Y-183050471D02*
X182458026Y-183193328D01*
X183600883Y-182693328D02*
X184172311Y-182693328D01*
X183815168Y-182193328D02*
X183815168Y-183479042D01*
X183815168Y-183479042D02*
X183886597Y-183621900D01*
X183886597Y-183621900D02*
X184029454Y-183693328D01*
X184029454Y-183693328D02*
X184172311Y-183693328D01*
X184672311Y-183550471D02*
X184743740Y-183621900D01*
X184743740Y-183621900D02*
X184672311Y-183693328D01*
X184672311Y-183693328D02*
X184600883Y-183621900D01*
X184600883Y-183621900D02*
X184672311Y-183550471D01*
X184672311Y-183550471D02*
X184672311Y-183693328D01*
X184672311Y-182764757D02*
X184743740Y-182836185D01*
X184743740Y-182836185D02*
X184672311Y-182907614D01*
X184672311Y-182907614D02*
X184600883Y-182836185D01*
X184600883Y-182836185D02*
X184672311Y-182764757D01*
X184672311Y-182764757D02*
X184672311Y-182907614D01*
D10*
D11*
X197002200Y-191507200D02*
X197002200Y-194507200D01*
D10*
D11*
X261002200Y-191507200D02*
X261002200Y-198007200D01*
X87525594Y-54829819D02*
X87525594Y-53829819D01*
X87525594Y-53829819D02*
X87287499Y-53829819D01*
X87287499Y-53829819D02*
X87144642Y-53877438D01*
X87144642Y-53877438D02*
X87049404Y-53972676D01*
X87049404Y-53972676D02*
X87001785Y-54067914D01*
X87001785Y-54067914D02*
X86954166Y-54258390D01*
X86954166Y-54258390D02*
X86954166Y-54401247D01*
X86954166Y-54401247D02*
X87001785Y-54591723D01*
X87001785Y-54591723D02*
X87049404Y-54686961D01*
X87049404Y-54686961D02*
X87144642Y-54782200D01*
X87144642Y-54782200D02*
X87287499Y-54829819D01*
X87287499Y-54829819D02*
X87525594Y-54829819D01*
X86382737Y-54258390D02*
X86477975Y-54210771D01*
X86477975Y-54210771D02*
X86525594Y-54163152D01*
X86525594Y-54163152D02*
X86573213Y-54067914D01*
X86573213Y-54067914D02*
X86573213Y-54020295D01*
X86573213Y-54020295D02*
X86525594Y-53925057D01*
X86525594Y-53925057D02*
X86477975Y-53877438D01*
X86477975Y-53877438D02*
X86382737Y-53829819D01*
X86382737Y-53829819D02*
X86192261Y-53829819D01*
X86192261Y-53829819D02*
X86097023Y-53877438D01*
X86097023Y-53877438D02*
X86049404Y-53925057D01*
X86049404Y-53925057D02*
X86001785Y-54020295D01*
X86001785Y-54020295D02*
X86001785Y-54067914D01*
X86001785Y-54067914D02*
X86049404Y-54163152D01*
X86049404Y-54163152D02*
X86097023Y-54210771D01*
X86097023Y-54210771D02*
X86192261Y-54258390D01*
X86192261Y-54258390D02*
X86382737Y-54258390D01*
X86382737Y-54258390D02*
X86477975Y-54306009D01*
X86477975Y-54306009D02*
X86525594Y-54353628D01*
X86525594Y-54353628D02*
X86573213Y-54448866D01*
X86573213Y-54448866D02*
X86573213Y-54639342D01*
X86573213Y-54639342D02*
X86525594Y-54734580D01*
X86525594Y-54734580D02*
X86477975Y-54782200D01*
X86477975Y-54782200D02*
X86382737Y-54829819D01*
X86382737Y-54829819D02*
X86192261Y-54829819D01*
X86192261Y-54829819D02*
X86097023Y-54782200D01*
X86097023Y-54782200D02*
X86049404Y-54734580D01*
X86049404Y-54734580D02*
X86001785Y-54639342D01*
X86001785Y-54639342D02*
X86001785Y-54448866D01*
X86001785Y-54448866D02*
X86049404Y-54353628D01*
X86049404Y-54353628D02*
X86097023Y-54306009D01*
X86097023Y-54306009D02*
X86192261Y-54258390D01*
X90489819Y-81188095D02*
X91299342Y-81188095D01*
X91299342Y-81188095D02*
X91394580Y-81235714D01*
X91394580Y-81235714D02*
X91442200Y-81283333D01*
X91442200Y-81283333D02*
X91489819Y-81378571D01*
X91489819Y-81378571D02*
X91489819Y-81569047D01*
X91489819Y-81569047D02*
X91442200Y-81664285D01*
X91442200Y-81664285D02*
X91394580Y-81711904D01*
X91394580Y-81711904D02*
X91299342Y-81759523D01*
X91299342Y-81759523D02*
X90489819Y-81759523D01*
X90823152Y-82664285D02*
X91489819Y-82664285D01*
X90442200Y-82426190D02*
X91156485Y-82188095D01*
X91156485Y-82188095D02*
X91156485Y-82807142D01*
X119558333Y-81229819D02*
X119558333Y-81944104D01*
X119558333Y-81944104D02*
X119605952Y-82086961D01*
X119605952Y-82086961D02*
X119701190Y-82182200D01*
X119701190Y-82182200D02*
X119844047Y-82229819D01*
X119844047Y-82229819D02*
X119939285Y-82229819D01*
X119082142Y-82229819D02*
X119082142Y-81229819D01*
X119082142Y-81229819D02*
X118701190Y-81229819D01*
X118701190Y-81229819D02*
X118605952Y-81277438D01*
X118605952Y-81277438D02*
X118558333Y-81325057D01*
X118558333Y-81325057D02*
X118510714Y-81420295D01*
X118510714Y-81420295D02*
X118510714Y-81563152D01*
X118510714Y-81563152D02*
X118558333Y-81658390D01*
X118558333Y-81658390D02*
X118605952Y-81706009D01*
X118605952Y-81706009D02*
X118701190Y-81753628D01*
X118701190Y-81753628D02*
X119082142Y-81753628D01*
X118177380Y-81229819D02*
X117558333Y-81229819D01*
X117558333Y-81229819D02*
X117891666Y-81610771D01*
X117891666Y-81610771D02*
X117748809Y-81610771D01*
X117748809Y-81610771D02*
X117653571Y-81658390D01*
X117653571Y-81658390D02*
X117605952Y-81706009D01*
X117605952Y-81706009D02*
X117558333Y-81801247D01*
X117558333Y-81801247D02*
X117558333Y-82039342D01*
X117558333Y-82039342D02*
X117605952Y-82134580D01*
X117605952Y-82134580D02*
X117653571Y-82182200D01*
X117653571Y-82182200D02*
X117748809Y-82229819D01*
X117748809Y-82229819D02*
X118034523Y-82229819D01*
X118034523Y-82229819D02*
X118129761Y-82182200D01*
X118129761Y-82182200D02*
X118177380Y-82134580D01*
X119108333Y-79254819D02*
X119108333Y-79969104D01*
X119108333Y-79969104D02*
X119155952Y-80111961D01*
X119155952Y-80111961D02*
X119251190Y-80207200D01*
X119251190Y-80207200D02*
X119394047Y-80254819D01*
X119394047Y-80254819D02*
X119489285Y-80254819D01*
X118632142Y-80254819D02*
X118632142Y-79254819D01*
X118632142Y-79254819D02*
X118251190Y-79254819D01*
X118251190Y-79254819D02*
X118155952Y-79302438D01*
X118155952Y-79302438D02*
X118108333Y-79350057D01*
X118108333Y-79350057D02*
X118060714Y-79445295D01*
X118060714Y-79445295D02*
X118060714Y-79588152D01*
X118060714Y-79588152D02*
X118108333Y-79683390D01*
X118108333Y-79683390D02*
X118155952Y-79731009D01*
X118155952Y-79731009D02*
X118251190Y-79778628D01*
X118251190Y-79778628D02*
X118632142Y-79778628D01*
X117679761Y-79350057D02*
X117632142Y-79302438D01*
X117632142Y-79302438D02*
X117536904Y-79254819D01*
X117536904Y-79254819D02*
X117298809Y-79254819D01*
X117298809Y-79254819D02*
X117203571Y-79302438D01*
X117203571Y-79302438D02*
X117155952Y-79350057D01*
X117155952Y-79350057D02*
X117108333Y-79445295D01*
X117108333Y-79445295D02*
X117108333Y-79540533D01*
X117108333Y-79540533D02*
X117155952Y-79683390D01*
X117155952Y-79683390D02*
X117727380Y-80254819D01*
X117727380Y-80254819D02*
X117108333Y-80254819D01*
X97761904Y-54054819D02*
X97761904Y-54864342D01*
X97761904Y-54864342D02*
X97714285Y-54959580D01*
X97714285Y-54959580D02*
X97666666Y-55007200D01*
X97666666Y-55007200D02*
X97571428Y-55054819D01*
X97571428Y-55054819D02*
X97380952Y-55054819D01*
X97380952Y-55054819D02*
X97285714Y-55007200D01*
X97285714Y-55007200D02*
X97238095Y-54959580D01*
X97238095Y-54959580D02*
X97190476Y-54864342D01*
X97190476Y-54864342D02*
X97190476Y-54054819D01*
X96809523Y-54054819D02*
X96142857Y-54054819D01*
X96142857Y-54054819D02*
X96571428Y-55054819D01*
X90833333Y-92654819D02*
X90833333Y-93369104D01*
X90833333Y-93369104D02*
X90880952Y-93511961D01*
X90880952Y-93511961D02*
X90976190Y-93607200D01*
X90976190Y-93607200D02*
X91119047Y-93654819D01*
X91119047Y-93654819D02*
X91214285Y-93654819D01*
X90357142Y-93654819D02*
X90357142Y-92654819D01*
X90357142Y-92654819D02*
X89976190Y-92654819D01*
X89976190Y-92654819D02*
X89880952Y-92702438D01*
X89880952Y-92702438D02*
X89833333Y-92750057D01*
X89833333Y-92750057D02*
X89785714Y-92845295D01*
X89785714Y-92845295D02*
X89785714Y-92988152D01*
X89785714Y-92988152D02*
X89833333Y-93083390D01*
X89833333Y-93083390D02*
X89880952Y-93131009D01*
X89880952Y-93131009D02*
X89976190Y-93178628D01*
X89976190Y-93178628D02*
X90357142Y-93178628D01*
X88833333Y-93654819D02*
X89404761Y-93654819D01*
X89119047Y-93654819D02*
X89119047Y-92654819D01*
X89119047Y-92654819D02*
X89214285Y-92797676D01*
X89214285Y-92797676D02*
X89309523Y-92892914D01*
X89309523Y-92892914D02*
X89404761Y-92940533D01*
X104108333Y-82654819D02*
X104108333Y-83369104D01*
X104108333Y-83369104D02*
X104155952Y-83511961D01*
X104155952Y-83511961D02*
X104251190Y-83607200D01*
X104251190Y-83607200D02*
X104394047Y-83654819D01*
X104394047Y-83654819D02*
X104489285Y-83654819D01*
X103632142Y-83654819D02*
X103632142Y-82654819D01*
X103632142Y-82654819D02*
X103251190Y-82654819D01*
X103251190Y-82654819D02*
X103155952Y-82702438D01*
X103155952Y-82702438D02*
X103108333Y-82750057D01*
X103108333Y-82750057D02*
X103060714Y-82845295D01*
X103060714Y-82845295D02*
X103060714Y-82988152D01*
X103060714Y-82988152D02*
X103108333Y-83083390D01*
X103108333Y-83083390D02*
X103155952Y-83131009D01*
X103155952Y-83131009D02*
X103251190Y-83178628D01*
X103251190Y-83178628D02*
X103632142Y-83178628D01*
X102203571Y-82988152D02*
X102203571Y-83654819D01*
X102441666Y-82607200D02*
X102679761Y-83321485D01*
X102679761Y-83321485D02*
X102060714Y-83321485D01*
X77638094Y-104629819D02*
X77638094Y-105439342D01*
X77638094Y-105439342D02*
X77590475Y-105534580D01*
X77590475Y-105534580D02*
X77542856Y-105582200D01*
X77542856Y-105582200D02*
X77447618Y-105629819D01*
X77447618Y-105629819D02*
X77257142Y-105629819D01*
X77257142Y-105629819D02*
X77161904Y-105582200D01*
X77161904Y-105582200D02*
X77114285Y-105534580D01*
X77114285Y-105534580D02*
X77066666Y-105439342D01*
X77066666Y-105439342D02*
X77066666Y-104629819D01*
X76066666Y-105629819D02*
X76638094Y-105629819D01*
X76352380Y-105629819D02*
X76352380Y-104629819D01*
X76352380Y-104629819D02*
X76447618Y-104772676D01*
X76447618Y-104772676D02*
X76542856Y-104867914D01*
X76542856Y-104867914D02*
X76638094Y-104915533D01*
X75114285Y-105629819D02*
X75685713Y-105629819D01*
X75399999Y-105629819D02*
X75399999Y-104629819D01*
X75399999Y-104629819D02*
X75495237Y-104772676D01*
X75495237Y-104772676D02*
X75590475Y-104867914D01*
X75590475Y-104867914D02*
X75685713Y-104915533D01*
X76749819Y-51994642D02*
X76273628Y-51661309D01*
X76749819Y-51423214D02*
X75749819Y-51423214D01*
X75749819Y-51423214D02*
X75749819Y-51804166D01*
X75749819Y-51804166D02*
X75797438Y-51899404D01*
X75797438Y-51899404D02*
X75845057Y-51947023D01*
X75845057Y-51947023D02*
X75940295Y-51994642D01*
X75940295Y-51994642D02*
X76083152Y-51994642D01*
X76083152Y-51994642D02*
X76178390Y-51947023D01*
X76178390Y-51947023D02*
X76226009Y-51899404D01*
X76226009Y-51899404D02*
X76273628Y-51804166D01*
X76273628Y-51804166D02*
X76273628Y-51423214D01*
X76749819Y-52947023D02*
X76749819Y-52375595D01*
X76749819Y-52661309D02*
X75749819Y-52661309D01*
X75749819Y-52661309D02*
X75892676Y-52566071D01*
X75892676Y-52566071D02*
X75987914Y-52470833D01*
X75987914Y-52470833D02*
X76035533Y-52375595D01*
X75749819Y-53851785D02*
X75749819Y-53375595D01*
X75749819Y-53375595D02*
X76226009Y-53327976D01*
X76226009Y-53327976D02*
X76178390Y-53375595D01*
X76178390Y-53375595D02*
X76130771Y-53470833D01*
X76130771Y-53470833D02*
X76130771Y-53708928D01*
X76130771Y-53708928D02*
X76178390Y-53804166D01*
X76178390Y-53804166D02*
X76226009Y-53851785D01*
X76226009Y-53851785D02*
X76321247Y-53899404D01*
X76321247Y-53899404D02*
X76559342Y-53899404D01*
X76559342Y-53899404D02*
X76654580Y-53851785D01*
X76654580Y-53851785D02*
X76702200Y-53804166D01*
X76702200Y-53804166D02*
X76749819Y-53708928D01*
X76749819Y-53708928D02*
X76749819Y-53470833D01*
X76749819Y-53470833D02*
X76702200Y-53375595D01*
X76702200Y-53375595D02*
X76654580Y-53327976D01*
X84514580Y-52219642D02*
X84562200Y-52172023D01*
X84562200Y-52172023D02*
X84609819Y-52029166D01*
X84609819Y-52029166D02*
X84609819Y-51933928D01*
X84609819Y-51933928D02*
X84562200Y-51791071D01*
X84562200Y-51791071D02*
X84466961Y-51695833D01*
X84466961Y-51695833D02*
X84371723Y-51648214D01*
X84371723Y-51648214D02*
X84181247Y-51600595D01*
X84181247Y-51600595D02*
X84038390Y-51600595D01*
X84038390Y-51600595D02*
X83847914Y-51648214D01*
X83847914Y-51648214D02*
X83752676Y-51695833D01*
X83752676Y-51695833D02*
X83657438Y-51791071D01*
X83657438Y-51791071D02*
X83609819Y-51933928D01*
X83609819Y-51933928D02*
X83609819Y-52029166D01*
X83609819Y-52029166D02*
X83657438Y-52172023D01*
X83657438Y-52172023D02*
X83705057Y-52219642D01*
X84609819Y-53172023D02*
X84609819Y-52600595D01*
X84609819Y-52886309D02*
X83609819Y-52886309D01*
X83609819Y-52886309D02*
X83752676Y-52791071D01*
X83752676Y-52791071D02*
X83847914Y-52695833D01*
X83847914Y-52695833D02*
X83895533Y-52600595D01*
X83609819Y-53791071D02*
X83609819Y-53886309D01*
X83609819Y-53886309D02*
X83657438Y-53981547D01*
X83657438Y-53981547D02*
X83705057Y-54029166D01*
X83705057Y-54029166D02*
X83800295Y-54076785D01*
X83800295Y-54076785D02*
X83990771Y-54124404D01*
X83990771Y-54124404D02*
X84228866Y-54124404D01*
X84228866Y-54124404D02*
X84419342Y-54076785D01*
X84419342Y-54076785D02*
X84514580Y-54029166D01*
X84514580Y-54029166D02*
X84562200Y-53981547D01*
X84562200Y-53981547D02*
X84609819Y-53886309D01*
X84609819Y-53886309D02*
X84609819Y-53791071D01*
X84609819Y-53791071D02*
X84562200Y-53695833D01*
X84562200Y-53695833D02*
X84514580Y-53648214D01*
X84514580Y-53648214D02*
X84419342Y-53600595D01*
X84419342Y-53600595D02*
X84228866Y-53552976D01*
X84228866Y-53552976D02*
X83990771Y-53552976D01*
X83990771Y-53552976D02*
X83800295Y-53600595D01*
X83800295Y-53600595D02*
X83705057Y-53648214D01*
X83705057Y-53648214D02*
X83657438Y-53695833D01*
X83657438Y-53695833D02*
X83609819Y-53791071D01*
X84514580Y-61082142D02*
X84562200Y-61034523D01*
X84562200Y-61034523D02*
X84609819Y-60891666D01*
X84609819Y-60891666D02*
X84609819Y-60796428D01*
X84609819Y-60796428D02*
X84562200Y-60653571D01*
X84562200Y-60653571D02*
X84466961Y-60558333D01*
X84466961Y-60558333D02*
X84371723Y-60510714D01*
X84371723Y-60510714D02*
X84181247Y-60463095D01*
X84181247Y-60463095D02*
X84038390Y-60463095D01*
X84038390Y-60463095D02*
X83847914Y-60510714D01*
X83847914Y-60510714D02*
X83752676Y-60558333D01*
X83752676Y-60558333D02*
X83657438Y-60653571D01*
X83657438Y-60653571D02*
X83609819Y-60796428D01*
X83609819Y-60796428D02*
X83609819Y-60891666D01*
X83609819Y-60891666D02*
X83657438Y-61034523D01*
X83657438Y-61034523D02*
X83705057Y-61082142D01*
X84609819Y-62034523D02*
X84609819Y-61463095D01*
X84609819Y-61748809D02*
X83609819Y-61748809D01*
X83609819Y-61748809D02*
X83752676Y-61653571D01*
X83752676Y-61653571D02*
X83847914Y-61558333D01*
X83847914Y-61558333D02*
X83895533Y-61463095D01*
X84609819Y-62986904D02*
X84609819Y-62415476D01*
X84609819Y-62701190D02*
X83609819Y-62701190D01*
X83609819Y-62701190D02*
X83752676Y-62605952D01*
X83752676Y-62605952D02*
X83847914Y-62510714D01*
X83847914Y-62510714D02*
X83895533Y-62415476D01*
X76749819Y-61169642D02*
X76273628Y-60836309D01*
X76749819Y-60598214D02*
X75749819Y-60598214D01*
X75749819Y-60598214D02*
X75749819Y-60979166D01*
X75749819Y-60979166D02*
X75797438Y-61074404D01*
X75797438Y-61074404D02*
X75845057Y-61122023D01*
X75845057Y-61122023D02*
X75940295Y-61169642D01*
X75940295Y-61169642D02*
X76083152Y-61169642D01*
X76083152Y-61169642D02*
X76178390Y-61122023D01*
X76178390Y-61122023D02*
X76226009Y-61074404D01*
X76226009Y-61074404D02*
X76273628Y-60979166D01*
X76273628Y-60979166D02*
X76273628Y-60598214D01*
X76749819Y-62122023D02*
X76749819Y-61550595D01*
X76749819Y-61836309D02*
X75749819Y-61836309D01*
X75749819Y-61836309D02*
X75892676Y-61741071D01*
X75892676Y-61741071D02*
X75987914Y-61645833D01*
X75987914Y-61645833D02*
X76035533Y-61550595D01*
X75749819Y-62979166D02*
X75749819Y-62788690D01*
X75749819Y-62788690D02*
X75797438Y-62693452D01*
X75797438Y-62693452D02*
X75845057Y-62645833D01*
X75845057Y-62645833D02*
X75987914Y-62550595D01*
X75987914Y-62550595D02*
X76178390Y-62502976D01*
X76178390Y-62502976D02*
X76559342Y-62502976D01*
X76559342Y-62502976D02*
X76654580Y-62550595D01*
X76654580Y-62550595D02*
X76702200Y-62598214D01*
X76702200Y-62598214D02*
X76749819Y-62693452D01*
X76749819Y-62693452D02*
X76749819Y-62883928D01*
X76749819Y-62883928D02*
X76702200Y-62979166D01*
X76702200Y-62979166D02*
X76654580Y-63026785D01*
X76654580Y-63026785D02*
X76559342Y-63074404D01*
X76559342Y-63074404D02*
X76321247Y-63074404D01*
X76321247Y-63074404D02*
X76226009Y-63026785D01*
X76226009Y-63026785D02*
X76178390Y-62979166D01*
X76178390Y-62979166D02*
X76130771Y-62883928D01*
X76130771Y-62883928D02*
X76130771Y-62693452D01*
X76130771Y-62693452D02*
X76178390Y-62598214D01*
X76178390Y-62598214D02*
X76226009Y-62550595D01*
X76226009Y-62550595D02*
X76321247Y-62502976D01*
X78891666Y-58514580D02*
X78939285Y-58562200D01*
X78939285Y-58562200D02*
X79082142Y-58609819D01*
X79082142Y-58609819D02*
X79177380Y-58609819D01*
X79177380Y-58609819D02*
X79320237Y-58562200D01*
X79320237Y-58562200D02*
X79415475Y-58466961D01*
X79415475Y-58466961D02*
X79463094Y-58371723D01*
X79463094Y-58371723D02*
X79510713Y-58181247D01*
X79510713Y-58181247D02*
X79510713Y-58038390D01*
X79510713Y-58038390D02*
X79463094Y-57847914D01*
X79463094Y-57847914D02*
X79415475Y-57752676D01*
X79415475Y-57752676D02*
X79320237Y-57657438D01*
X79320237Y-57657438D02*
X79177380Y-57609819D01*
X79177380Y-57609819D02*
X79082142Y-57609819D01*
X79082142Y-57609819D02*
X78939285Y-57657438D01*
X78939285Y-57657438D02*
X78891666Y-57705057D01*
X78415475Y-58609819D02*
X78224999Y-58609819D01*
X78224999Y-58609819D02*
X78129761Y-58562200D01*
X78129761Y-58562200D02*
X78082142Y-58514580D01*
X78082142Y-58514580D02*
X77986904Y-58371723D01*
X77986904Y-58371723D02*
X77939285Y-58181247D01*
X77939285Y-58181247D02*
X77939285Y-57800295D01*
X77939285Y-57800295D02*
X77986904Y-57705057D01*
X77986904Y-57705057D02*
X78034523Y-57657438D01*
X78034523Y-57657438D02*
X78129761Y-57609819D01*
X78129761Y-57609819D02*
X78320237Y-57609819D01*
X78320237Y-57609819D02*
X78415475Y-57657438D01*
X78415475Y-57657438D02*
X78463094Y-57705057D01*
X78463094Y-57705057D02*
X78510713Y-57800295D01*
X78510713Y-57800295D02*
X78510713Y-58038390D01*
X78510713Y-58038390D02*
X78463094Y-58133628D01*
X78463094Y-58133628D02*
X78415475Y-58181247D01*
X78415475Y-58181247D02*
X78320237Y-58228866D01*
X78320237Y-58228866D02*
X78129761Y-58228866D01*
X78129761Y-58228866D02*
X78034523Y-58181247D01*
X78034523Y-58181247D02*
X77986904Y-58133628D01*
X77986904Y-58133628D02*
X77939285Y-58038390D01*
D14*
%TO.C,J2*%
X65408001Y-50319800D02*
G75*
G02*
X64646001Y-50319800I-381000J0D01*
G01*
X64646001Y-50319800D02*
G75*
G02*
X65408001Y-50319800I381000J0D01*
G01*
%TO.C,J3*%
X129354000Y-106680200D02*
G75*
G02*
X128592000Y-106680200I-381000J0D01*
G01*
X128592000Y-106680200D02*
G75*
G02*
X129354000Y-106680200I381000J0D01*
G01*
D15*
%TO.C,D8*%
X86027500Y-55215000D02*
X86027500Y-56215000D01*
X86027500Y-57335000D02*
X86027500Y-58335000D01*
X86027500Y-58335000D02*
X87547500Y-58335000D01*
X87547500Y-55215000D02*
X86027500Y-55215000D01*
X87547500Y-55265000D02*
X87547500Y-55215000D01*
X87547500Y-57165000D02*
X87547500Y-56385000D01*
X87547500Y-58335000D02*
X87547500Y-58285000D01*
X88327500Y-56725000D02*
X87847500Y-56725000D01*
X88087500Y-56395000D01*
X88327500Y-56725000D01*
G36*
X88327500Y-56725000D02*
G01*
X87847500Y-56725000D01*
X88087500Y-56395000D01*
X88327500Y-56725000D01*
G37*
%TO.C,U4*%
X85075000Y-79890000D02*
X85075000Y-84010000D01*
X85075000Y-84010000D02*
X85170000Y-84010000D01*
X85170000Y-79890000D02*
X85075000Y-79890000D01*
X90100000Y-84010000D02*
X90195000Y-84010000D01*
X90195000Y-79890000D02*
X90100000Y-79890000D01*
X90195000Y-84010000D02*
X90195000Y-79890000D01*
X90435000Y-84790000D02*
X90105000Y-84550000D01*
X90435000Y-84310000D01*
X90435000Y-84790000D01*
G36*
X90435000Y-84790000D02*
G01*
X90105000Y-84550000D01*
X90435000Y-84310000D01*
X90435000Y-84790000D01*
G37*
%TO.C,JP3*%
X117325000Y-82575000D02*
X117325000Y-84575000D01*
X117325000Y-84575000D02*
X120125000Y-84575000D01*
X120125000Y-82575000D02*
X117325000Y-82575000D01*
X120125000Y-84575000D02*
X120125000Y-82575000D01*
%TO.C,JP2*%
X116875000Y-77000000D02*
X116875000Y-79000000D01*
X116875000Y-79000000D02*
X119675000Y-79000000D01*
X119675000Y-77000000D02*
X116875000Y-77000000D01*
X119675000Y-79000000D02*
X119675000Y-77000000D01*
%TO.C,U7*%
X94940000Y-55440000D02*
X94940000Y-55535000D01*
X94940000Y-60465000D02*
X94940000Y-60560000D01*
X94940000Y-60560000D02*
X99060000Y-60560000D01*
X99060000Y-55440000D02*
X94940000Y-55440000D01*
X99060000Y-55535000D02*
X99060000Y-55440000D01*
X99060000Y-60560000D02*
X99060000Y-60465000D01*
X99600000Y-55530000D02*
X99360000Y-55200000D01*
X99840000Y-55200000D01*
X99600000Y-55530000D01*
G36*
X99600000Y-55530000D02*
G01*
X99360000Y-55200000D01*
X99840000Y-55200000D01*
X99600000Y-55530000D01*
G37*
%TO.C,JP1*%
X88600000Y-94000000D02*
X88600000Y-96000000D01*
X88600000Y-96000000D02*
X91400000Y-96000000D01*
X91400000Y-94000000D02*
X88600000Y-94000000D01*
X91400000Y-96000000D02*
X91400000Y-94000000D01*
%TO.C,JP4*%
X101875000Y-84000000D02*
X101875000Y-86000000D01*
X101875000Y-86000000D02*
X104675000Y-86000000D01*
X104675000Y-84000000D02*
X101875000Y-84000000D01*
X104675000Y-86000000D02*
X104675000Y-84000000D01*
%TO.C,U11*%
X74340000Y-99215000D02*
X74340000Y-99310000D01*
X74340000Y-104240000D02*
X74340000Y-104335000D01*
X74340000Y-104335000D02*
X78460000Y-104335000D01*
X78460000Y-99215000D02*
X74340000Y-99215000D01*
X78460000Y-99310000D02*
X78460000Y-99215000D01*
X78460000Y-104335000D02*
X78460000Y-104240000D01*
X73980000Y-104575000D02*
X73500000Y-104575000D01*
X73740000Y-104245000D01*
X73980000Y-104575000D01*
G36*
X73980000Y-104575000D02*
G01*
X73500000Y-104575000D01*
X73740000Y-104245000D01*
X73980000Y-104575000D01*
G37*
%TO.C,R15*%
X77202500Y-52382776D02*
X77202500Y-52892224D01*
X78247500Y-52382776D02*
X78247500Y-52892224D01*
%TO.C,C10*%
X82215000Y-53008767D02*
X82215000Y-52716233D01*
X83235000Y-53008767D02*
X83235000Y-52716233D01*
%TO.C,C11*%
X82215000Y-61871267D02*
X82215000Y-61578733D01*
X83235000Y-61871267D02*
X83235000Y-61578733D01*
%TO.C,R16*%
X77202500Y-61557776D02*
X77202500Y-62067224D01*
X78247500Y-61557776D02*
X78247500Y-62067224D01*
%TO.C,C9*%
X78578733Y-56215000D02*
X78871267Y-56215000D01*
X78578733Y-57235000D02*
X78871267Y-57235000D01*
%TD*%
D16*
X61000000Y-33000000D02*
X131000000Y-33000000D01*
X131000000Y-110000000D01*
X61000000Y-110000000D01*
X61000000Y-33000000D01*
M02*
