%TF.GenerationSoftware,KiCad,Pcbnew,9.0.7*%
%TF.CreationDate,2026-03-31T08:13:10-05:00*%
%TF.ProjectId,Sensor Cell with Comms,53656e73-6f72-4204-9365-6c6c20776974,rev?*%
%TF.SameCoordinates,Original*%
%TF.FileFunction,Copper,L4,Bot*%
%TF.FilePolarity,Positive*%
%FSLAX46Y46*%
G04 Gerber Fmt 4.6, Leading zero omitted, Abs format (unit mm)*
G04 Created by KiCad (PCBNEW 9.0.7) date 2026-03-31 08:13:10*
%MOMM*%
%LPD*%
G01*
G04 APERTURE LIST*
G04 Aperture macros list*
%AMRoundRect*
0 Rectangle with rounded corners*
0 $1 Rounding radius*
0 $2 $3 $4 $5 $6 $7 $8 $9 X,Y pos of 4 corners*
0 Add a 4 corners polygon primitive as box body*
4,1,4,$2,$3,$4,$5,$6,$7,$8,$9,$2,$3,0*
0 Add four circle primitives for the rounded corners*
1,1,$1+$1,$2,$3*
1,1,$1+$1,$4,$5*
1,1,$1+$1,$6,$7*
1,1,$1+$1,$8,$9*
0 Add four rect primitives between the rounded corners*
20,1,$1+$1,$2,$3,$4,$5,0*
20,1,$1+$1,$4,$5,$6,$7,0*
20,1,$1+$1,$6,$7,$8,$9,0*
20,1,$1+$1,$8,$9,$2,$3,0*%
%AMFreePoly0*
4,1,6,1.000000,0.000000,0.500000,-0.750000,-0.500000,-0.750000,-0.500000,0.750000,0.500000,0.750000,1.000000,0.000000,1.000000,0.000000,$1*%
%AMFreePoly1*
4,1,6,0.500000,-0.750000,-0.650000,-0.750000,-0.150000,0.000000,-0.650000,0.750000,0.500000,0.750000,0.500000,-0.750000,0.500000,-0.750000,$1*%
G04 Aperture macros list end*
%ADD10C,0.100000*%
%ADD11C,0.150000*%
%ADD12C,0.300000*%
%ADD13C,0.400000*%
%TA.AperFunction,ComponentPad*%
%ADD14R,0.850000X0.850000*%
%TD*%
%TA.AperFunction,ComponentPad*%
%ADD15C,1.574800*%
%TD*%
%TA.AperFunction,ComponentPad*%
%ADD16C,0.850000*%
%TD*%
%TA.AperFunction,ComponentPad*%
%ADD17C,3.000000*%
%TD*%
%TA.AperFunction,HeatsinkPad*%
%ADD18C,0.500000*%
%TD*%
%TA.AperFunction,HeatsinkPad*%
%ADD19R,2.410000X3.100000*%
%TD*%
%TA.AperFunction,ComponentPad*%
%ADD20RoundRect,0.250001X-0.759999X0.499999X-0.759999X-0.499999X0.759999X-0.499999X0.759999X0.499999X0*%
%TD*%
%TA.AperFunction,ComponentPad*%
%ADD21O,2.020000X1.500000*%
%TD*%
%TA.AperFunction,SMDPad,CuDef*%
%ADD22RoundRect,0.150000X0.587500X0.150000X-0.587500X0.150000X-0.587500X-0.150000X0.587500X-0.150000X0*%
%TD*%
%TA.AperFunction,SMDPad,CuDef*%
%ADD23RoundRect,0.150000X0.150000X-0.725000X0.150000X0.725000X-0.150000X0.725000X-0.150000X-0.725000X0*%
%TD*%
%TA.AperFunction,SMDPad,CuDef*%
%ADD24FreePoly0,180.000000*%
%TD*%
%TA.AperFunction,SMDPad,CuDef*%
%ADD25FreePoly1,180.000000*%
%TD*%
%TA.AperFunction,SMDPad,CuDef*%
%ADD26FreePoly0,0.000000*%
%TD*%
%TA.AperFunction,SMDPad,CuDef*%
%ADD27FreePoly1,0.000000*%
%TD*%
%TA.AperFunction,SMDPad,CuDef*%
%ADD28RoundRect,0.150000X0.825000X0.150000X-0.825000X0.150000X-0.825000X-0.150000X0.825000X-0.150000X0*%
%TD*%
%TA.AperFunction,SMDPad,CuDef*%
%ADD29RoundRect,0.150000X-0.650000X-0.150000X0.650000X-0.150000X0.650000X0.150000X-0.650000X0.150000X0*%
%TD*%
%TA.AperFunction,SMDPad,CuDef*%
%ADD30RoundRect,0.237500X-0.237500X0.250000X-0.237500X-0.250000X0.237500X-0.250000X0.237500X0.250000X0*%
%TD*%
%TA.AperFunction,SMDPad,CuDef*%
%ADD31RoundRect,0.237500X0.237500X-0.300000X0.237500X0.300000X-0.237500X0.300000X-0.237500X-0.300000X0*%
%TD*%
%TA.AperFunction,SMDPad,CuDef*%
%ADD32RoundRect,0.237500X-0.300000X-0.237500X0.300000X-0.237500X0.300000X0.237500X-0.300000X0.237500X0*%
%TD*%
%TA.AperFunction,ViaPad*%
%ADD33C,0.600000*%
%TD*%
%TA.AperFunction,Conductor*%
%ADD34C,0.200000*%
%TD*%
%TA.AperFunction,Conductor*%
%ADD35C,0.400000*%
%TD*%
%TA.AperFunction,Conductor*%
%ADD36C,0.500000*%
%TD*%
%TA.AperFunction,Conductor*%
%ADD37C,0.250000*%
%TD*%
%TA.AperFunction,Profile*%
%ADD38C,0.050000*%
%TD*%
G04 APERTURE END LIST*
D10*
D11*
X177002200Y-166007200D02*
X285002200Y-166007200D01*
X285002200Y-198007200D01*
X177002200Y-198007200D01*
X177002200Y-166007200D01*
D10*
D11*
X10000000Y-10000000D02*
X287002200Y-10000000D01*
X287002200Y-200007200D01*
X10000000Y-200007200D01*
X10000000Y-10000000D01*
D10*
D11*
X12000000Y-12000000D02*
X285002200Y-12000000D01*
X285002200Y-198007200D01*
X12000000Y-198007200D01*
X12000000Y-12000000D01*
D10*
D11*
X60000000Y-12000000D02*
X60000000Y-10000000D01*
D10*
D11*
X110000000Y-12000000D02*
X110000000Y-10000000D01*
D10*
D11*
X160000000Y-12000000D02*
X160000000Y-10000000D01*
D10*
D11*
X210000000Y-12000000D02*
X210000000Y-10000000D01*
D10*
D11*
X260000000Y-12000000D02*
X260000000Y-10000000D01*
D10*
D11*
X36089160Y-11593604D02*
X35346303Y-11593604D01*
X35717731Y-11593604D02*
X35717731Y-10293604D01*
X35717731Y-10293604D02*
X35593922Y-10479319D01*
X35593922Y-10479319D02*
X35470112Y-10603128D01*
X35470112Y-10603128D02*
X35346303Y-10665033D01*
D10*
D11*
X85346303Y-10417414D02*
X85408207Y-10355509D01*
X85408207Y-10355509D02*
X85532017Y-10293604D01*
X85532017Y-10293604D02*
X85841541Y-10293604D01*
X85841541Y-10293604D02*
X85965350Y-10355509D01*
X85965350Y-10355509D02*
X86027255Y-10417414D01*
X86027255Y-10417414D02*
X86089160Y-10541223D01*
X86089160Y-10541223D02*
X86089160Y-10665033D01*
X86089160Y-10665033D02*
X86027255Y-10850747D01*
X86027255Y-10850747D02*
X85284398Y-11593604D01*
X85284398Y-11593604D02*
X86089160Y-11593604D01*
D10*
D11*
X135284398Y-10293604D02*
X136089160Y-10293604D01*
X136089160Y-10293604D02*
X135655826Y-10788842D01*
X135655826Y-10788842D02*
X135841541Y-10788842D01*
X135841541Y-10788842D02*
X135965350Y-10850747D01*
X135965350Y-10850747D02*
X136027255Y-10912652D01*
X136027255Y-10912652D02*
X136089160Y-11036461D01*
X136089160Y-11036461D02*
X136089160Y-11345985D01*
X136089160Y-11345985D02*
X136027255Y-11469795D01*
X136027255Y-11469795D02*
X135965350Y-11531700D01*
X135965350Y-11531700D02*
X135841541Y-11593604D01*
X135841541Y-11593604D02*
X135470112Y-11593604D01*
X135470112Y-11593604D02*
X135346303Y-11531700D01*
X135346303Y-11531700D02*
X135284398Y-11469795D01*
D10*
D11*
X185965350Y-10726938D02*
X185965350Y-11593604D01*
X185655826Y-10231700D02*
X185346303Y-11160271D01*
X185346303Y-11160271D02*
X186151064Y-11160271D01*
D10*
D11*
X236027255Y-10293604D02*
X235408207Y-10293604D01*
X235408207Y-10293604D02*
X235346303Y-10912652D01*
X235346303Y-10912652D02*
X235408207Y-10850747D01*
X235408207Y-10850747D02*
X235532017Y-10788842D01*
X235532017Y-10788842D02*
X235841541Y-10788842D01*
X235841541Y-10788842D02*
X235965350Y-10850747D01*
X235965350Y-10850747D02*
X236027255Y-10912652D01*
X236027255Y-10912652D02*
X236089160Y-11036461D01*
X236089160Y-11036461D02*
X236089160Y-11345985D01*
X236089160Y-11345985D02*
X236027255Y-11469795D01*
X236027255Y-11469795D02*
X235965350Y-11531700D01*
X235965350Y-11531700D02*
X235841541Y-11593604D01*
X235841541Y-11593604D02*
X235532017Y-11593604D01*
X235532017Y-11593604D02*
X235408207Y-11531700D01*
X235408207Y-11531700D02*
X235346303Y-11469795D01*
D10*
D11*
X285965350Y-10293604D02*
X285717731Y-10293604D01*
X285717731Y-10293604D02*
X285593922Y-10355509D01*
X285593922Y-10355509D02*
X285532017Y-10417414D01*
X285532017Y-10417414D02*
X285408207Y-10603128D01*
X285408207Y-10603128D02*
X285346303Y-10850747D01*
X285346303Y-10850747D02*
X285346303Y-11345985D01*
X285346303Y-11345985D02*
X285408207Y-11469795D01*
X285408207Y-11469795D02*
X285470112Y-11531700D01*
X285470112Y-11531700D02*
X285593922Y-11593604D01*
X285593922Y-11593604D02*
X285841541Y-11593604D01*
X285841541Y-11593604D02*
X285965350Y-11531700D01*
X285965350Y-11531700D02*
X286027255Y-11469795D01*
X286027255Y-11469795D02*
X286089160Y-11345985D01*
X286089160Y-11345985D02*
X286089160Y-11036461D01*
X286089160Y-11036461D02*
X286027255Y-10912652D01*
X286027255Y-10912652D02*
X285965350Y-10850747D01*
X285965350Y-10850747D02*
X285841541Y-10788842D01*
X285841541Y-10788842D02*
X285593922Y-10788842D01*
X285593922Y-10788842D02*
X285470112Y-10850747D01*
X285470112Y-10850747D02*
X285408207Y-10912652D01*
X285408207Y-10912652D02*
X285346303Y-11036461D01*
D10*
D11*
X60000000Y-198007200D02*
X60000000Y-200007200D01*
D10*
D11*
X110000000Y-198007200D02*
X110000000Y-200007200D01*
D10*
D11*
X160000000Y-198007200D02*
X160000000Y-200007200D01*
D10*
D11*
X210000000Y-198007200D02*
X210000000Y-200007200D01*
D10*
D11*
X260000000Y-198007200D02*
X260000000Y-200007200D01*
D10*
D11*
X36089160Y-199600804D02*
X35346303Y-199600804D01*
X35717731Y-199600804D02*
X35717731Y-198300804D01*
X35717731Y-198300804D02*
X35593922Y-198486519D01*
X35593922Y-198486519D02*
X35470112Y-198610328D01*
X35470112Y-198610328D02*
X35346303Y-198672233D01*
D10*
D11*
X85346303Y-198424614D02*
X85408207Y-198362709D01*
X85408207Y-198362709D02*
X85532017Y-198300804D01*
X85532017Y-198300804D02*
X85841541Y-198300804D01*
X85841541Y-198300804D02*
X85965350Y-198362709D01*
X85965350Y-198362709D02*
X86027255Y-198424614D01*
X86027255Y-198424614D02*
X86089160Y-198548423D01*
X86089160Y-198548423D02*
X86089160Y-198672233D01*
X86089160Y-198672233D02*
X86027255Y-198857947D01*
X86027255Y-198857947D02*
X85284398Y-199600804D01*
X85284398Y-199600804D02*
X86089160Y-199600804D01*
D10*
D11*
X135284398Y-198300804D02*
X136089160Y-198300804D01*
X136089160Y-198300804D02*
X135655826Y-198796042D01*
X135655826Y-198796042D02*
X135841541Y-198796042D01*
X135841541Y-198796042D02*
X135965350Y-198857947D01*
X135965350Y-198857947D02*
X136027255Y-198919852D01*
X136027255Y-198919852D02*
X136089160Y-199043661D01*
X136089160Y-199043661D02*
X136089160Y-199353185D01*
X136089160Y-199353185D02*
X136027255Y-199476995D01*
X136027255Y-199476995D02*
X135965350Y-199538900D01*
X135965350Y-199538900D02*
X135841541Y-199600804D01*
X135841541Y-199600804D02*
X135470112Y-199600804D01*
X135470112Y-199600804D02*
X135346303Y-199538900D01*
X135346303Y-199538900D02*
X135284398Y-199476995D01*
D10*
D11*
X185965350Y-198734138D02*
X185965350Y-199600804D01*
X185655826Y-198238900D02*
X185346303Y-199167471D01*
X185346303Y-199167471D02*
X186151064Y-199167471D01*
D10*
D11*
X236027255Y-198300804D02*
X235408207Y-198300804D01*
X235408207Y-198300804D02*
X235346303Y-198919852D01*
X235346303Y-198919852D02*
X235408207Y-198857947D01*
X235408207Y-198857947D02*
X235532017Y-198796042D01*
X235532017Y-198796042D02*
X235841541Y-198796042D01*
X235841541Y-198796042D02*
X235965350Y-198857947D01*
X235965350Y-198857947D02*
X236027255Y-198919852D01*
X236027255Y-198919852D02*
X236089160Y-199043661D01*
X236089160Y-199043661D02*
X236089160Y-199353185D01*
X236089160Y-199353185D02*
X236027255Y-199476995D01*
X236027255Y-199476995D02*
X235965350Y-199538900D01*
X235965350Y-199538900D02*
X235841541Y-199600804D01*
X235841541Y-199600804D02*
X235532017Y-199600804D01*
X235532017Y-199600804D02*
X235408207Y-199538900D01*
X235408207Y-199538900D02*
X235346303Y-199476995D01*
D10*
D11*
X285965350Y-198300804D02*
X285717731Y-198300804D01*
X285717731Y-198300804D02*
X285593922Y-198362709D01*
X285593922Y-198362709D02*
X285532017Y-198424614D01*
X285532017Y-198424614D02*
X285408207Y-198610328D01*
X285408207Y-198610328D02*
X285346303Y-198857947D01*
X285346303Y-198857947D02*
X285346303Y-199353185D01*
X285346303Y-199353185D02*
X285408207Y-199476995D01*
X285408207Y-199476995D02*
X285470112Y-199538900D01*
X285470112Y-199538900D02*
X285593922Y-199600804D01*
X285593922Y-199600804D02*
X285841541Y-199600804D01*
X285841541Y-199600804D02*
X285965350Y-199538900D01*
X285965350Y-199538900D02*
X286027255Y-199476995D01*
X286027255Y-199476995D02*
X286089160Y-199353185D01*
X286089160Y-199353185D02*
X286089160Y-199043661D01*
X286089160Y-199043661D02*
X286027255Y-198919852D01*
X286027255Y-198919852D02*
X285965350Y-198857947D01*
X285965350Y-198857947D02*
X285841541Y-198796042D01*
X285841541Y-198796042D02*
X285593922Y-198796042D01*
X285593922Y-198796042D02*
X285470112Y-198857947D01*
X285470112Y-198857947D02*
X285408207Y-198919852D01*
X285408207Y-198919852D02*
X285346303Y-199043661D01*
D10*
D11*
X10000000Y-60000000D02*
X12000000Y-60000000D01*
D10*
D11*
X10000000Y-110000000D02*
X12000000Y-110000000D01*
D10*
D11*
X10000000Y-160000000D02*
X12000000Y-160000000D01*
D10*
D11*
X10690476Y-35222176D02*
X11309523Y-35222176D01*
X10566666Y-35593604D02*
X10999999Y-34293604D01*
X10999999Y-34293604D02*
X11433333Y-35593604D01*
D10*
D11*
X11092857Y-84912652D02*
X11278571Y-84974557D01*
X11278571Y-84974557D02*
X11340476Y-85036461D01*
X11340476Y-85036461D02*
X11402380Y-85160271D01*
X11402380Y-85160271D02*
X11402380Y-85345985D01*
X11402380Y-85345985D02*
X11340476Y-85469795D01*
X11340476Y-85469795D02*
X11278571Y-85531700D01*
X11278571Y-85531700D02*
X11154761Y-85593604D01*
X11154761Y-85593604D02*
X10659523Y-85593604D01*
X10659523Y-85593604D02*
X10659523Y-84293604D01*
X10659523Y-84293604D02*
X11092857Y-84293604D01*
X11092857Y-84293604D02*
X11216666Y-84355509D01*
X11216666Y-84355509D02*
X11278571Y-84417414D01*
X11278571Y-84417414D02*
X11340476Y-84541223D01*
X11340476Y-84541223D02*
X11340476Y-84665033D01*
X11340476Y-84665033D02*
X11278571Y-84788842D01*
X11278571Y-84788842D02*
X11216666Y-84850747D01*
X11216666Y-84850747D02*
X11092857Y-84912652D01*
X11092857Y-84912652D02*
X10659523Y-84912652D01*
D10*
D11*
X11402380Y-135469795D02*
X11340476Y-135531700D01*
X11340476Y-135531700D02*
X11154761Y-135593604D01*
X11154761Y-135593604D02*
X11030952Y-135593604D01*
X11030952Y-135593604D02*
X10845238Y-135531700D01*
X10845238Y-135531700D02*
X10721428Y-135407890D01*
X10721428Y-135407890D02*
X10659523Y-135284080D01*
X10659523Y-135284080D02*
X10597619Y-135036461D01*
X10597619Y-135036461D02*
X10597619Y-134850747D01*
X10597619Y-134850747D02*
X10659523Y-134603128D01*
X10659523Y-134603128D02*
X10721428Y-134479319D01*
X10721428Y-134479319D02*
X10845238Y-134355509D01*
X10845238Y-134355509D02*
X11030952Y-134293604D01*
X11030952Y-134293604D02*
X11154761Y-134293604D01*
X11154761Y-134293604D02*
X11340476Y-134355509D01*
X11340476Y-134355509D02*
X11402380Y-134417414D01*
D10*
D11*
X10659523Y-185593604D02*
X10659523Y-184293604D01*
X10659523Y-184293604D02*
X10969047Y-184293604D01*
X10969047Y-184293604D02*
X11154761Y-184355509D01*
X11154761Y-184355509D02*
X11278571Y-184479319D01*
X11278571Y-184479319D02*
X11340476Y-184603128D01*
X11340476Y-184603128D02*
X11402380Y-184850747D01*
X11402380Y-184850747D02*
X11402380Y-185036461D01*
X11402380Y-185036461D02*
X11340476Y-185284080D01*
X11340476Y-185284080D02*
X11278571Y-185407890D01*
X11278571Y-185407890D02*
X11154761Y-185531700D01*
X11154761Y-185531700D02*
X10969047Y-185593604D01*
X10969047Y-185593604D02*
X10659523Y-185593604D01*
D10*
D11*
X287002200Y-60000000D02*
X285002200Y-60000000D01*
D10*
D11*
X287002200Y-110000000D02*
X285002200Y-110000000D01*
D10*
D11*
X287002200Y-160000000D02*
X285002200Y-160000000D01*
D10*
D11*
X285692676Y-35222176D02*
X286311723Y-35222176D01*
X285568866Y-35593604D02*
X286002199Y-34293604D01*
X286002199Y-34293604D02*
X286435533Y-35593604D01*
D10*
D11*
X286095057Y-84912652D02*
X286280771Y-84974557D01*
X286280771Y-84974557D02*
X286342676Y-85036461D01*
X286342676Y-85036461D02*
X286404580Y-85160271D01*
X286404580Y-85160271D02*
X286404580Y-85345985D01*
X286404580Y-85345985D02*
X286342676Y-85469795D01*
X286342676Y-85469795D02*
X286280771Y-85531700D01*
X286280771Y-85531700D02*
X286156961Y-85593604D01*
X286156961Y-85593604D02*
X285661723Y-85593604D01*
X285661723Y-85593604D02*
X285661723Y-84293604D01*
X285661723Y-84293604D02*
X286095057Y-84293604D01*
X286095057Y-84293604D02*
X286218866Y-84355509D01*
X286218866Y-84355509D02*
X286280771Y-84417414D01*
X286280771Y-84417414D02*
X286342676Y-84541223D01*
X286342676Y-84541223D02*
X286342676Y-84665033D01*
X286342676Y-84665033D02*
X286280771Y-84788842D01*
X286280771Y-84788842D02*
X286218866Y-84850747D01*
X286218866Y-84850747D02*
X286095057Y-84912652D01*
X286095057Y-84912652D02*
X285661723Y-84912652D01*
D10*
D11*
X286404580Y-135469795D02*
X286342676Y-135531700D01*
X286342676Y-135531700D02*
X286156961Y-135593604D01*
X286156961Y-135593604D02*
X286033152Y-135593604D01*
X286033152Y-135593604D02*
X285847438Y-135531700D01*
X285847438Y-135531700D02*
X285723628Y-135407890D01*
X285723628Y-135407890D02*
X285661723Y-135284080D01*
X285661723Y-135284080D02*
X285599819Y-135036461D01*
X285599819Y-135036461D02*
X285599819Y-134850747D01*
X285599819Y-134850747D02*
X285661723Y-134603128D01*
X285661723Y-134603128D02*
X285723628Y-134479319D01*
X285723628Y-134479319D02*
X285847438Y-134355509D01*
X285847438Y-134355509D02*
X286033152Y-134293604D01*
X286033152Y-134293604D02*
X286156961Y-134293604D01*
X286156961Y-134293604D02*
X286342676Y-134355509D01*
X286342676Y-134355509D02*
X286404580Y-134417414D01*
D10*
D11*
X285661723Y-185593604D02*
X285661723Y-184293604D01*
X285661723Y-184293604D02*
X285971247Y-184293604D01*
X285971247Y-184293604D02*
X286156961Y-184355509D01*
X286156961Y-184355509D02*
X286280771Y-184479319D01*
X286280771Y-184479319D02*
X286342676Y-184603128D01*
X286342676Y-184603128D02*
X286404580Y-184850747D01*
X286404580Y-184850747D02*
X286404580Y-185036461D01*
X286404580Y-185036461D02*
X286342676Y-185284080D01*
X286342676Y-185284080D02*
X286280771Y-185407890D01*
X286280771Y-185407890D02*
X286156961Y-185531700D01*
X286156961Y-185531700D02*
X285971247Y-185593604D01*
X285971247Y-185593604D02*
X285661723Y-185593604D01*
D10*
D11*
X200458026Y-193793328D02*
X200458026Y-192293328D01*
X200458026Y-192293328D02*
X200815169Y-192293328D01*
X200815169Y-192293328D02*
X201029455Y-192364757D01*
X201029455Y-192364757D02*
X201172312Y-192507614D01*
X201172312Y-192507614D02*
X201243741Y-192650471D01*
X201243741Y-192650471D02*
X201315169Y-192936185D01*
X201315169Y-192936185D02*
X201315169Y-193150471D01*
X201315169Y-193150471D02*
X201243741Y-193436185D01*
X201243741Y-193436185D02*
X201172312Y-193579042D01*
X201172312Y-193579042D02*
X201029455Y-193721900D01*
X201029455Y-193721900D02*
X200815169Y-193793328D01*
X200815169Y-193793328D02*
X200458026Y-193793328D01*
X202600884Y-193793328D02*
X202600884Y-193007614D01*
X202600884Y-193007614D02*
X202529455Y-192864757D01*
X202529455Y-192864757D02*
X202386598Y-192793328D01*
X202386598Y-192793328D02*
X202100884Y-192793328D01*
X202100884Y-192793328D02*
X201958026Y-192864757D01*
X202600884Y-193721900D02*
X202458026Y-193793328D01*
X202458026Y-193793328D02*
X202100884Y-193793328D01*
X202100884Y-193793328D02*
X201958026Y-193721900D01*
X201958026Y-193721900D02*
X201886598Y-193579042D01*
X201886598Y-193579042D02*
X201886598Y-193436185D01*
X201886598Y-193436185D02*
X201958026Y-193293328D01*
X201958026Y-193293328D02*
X202100884Y-193221900D01*
X202100884Y-193221900D02*
X202458026Y-193221900D01*
X202458026Y-193221900D02*
X202600884Y-193150471D01*
X203100884Y-192793328D02*
X203672312Y-192793328D01*
X203315169Y-192293328D02*
X203315169Y-193579042D01*
X203315169Y-193579042D02*
X203386598Y-193721900D01*
X203386598Y-193721900D02*
X203529455Y-193793328D01*
X203529455Y-193793328D02*
X203672312Y-193793328D01*
X204743741Y-193721900D02*
X204600884Y-193793328D01*
X204600884Y-193793328D02*
X204315170Y-193793328D01*
X204315170Y-193793328D02*
X204172312Y-193721900D01*
X204172312Y-193721900D02*
X204100884Y-193579042D01*
X204100884Y-193579042D02*
X204100884Y-193007614D01*
X204100884Y-193007614D02*
X204172312Y-192864757D01*
X204172312Y-192864757D02*
X204315170Y-192793328D01*
X204315170Y-192793328D02*
X204600884Y-192793328D01*
X204600884Y-192793328D02*
X204743741Y-192864757D01*
X204743741Y-192864757D02*
X204815170Y-193007614D01*
X204815170Y-193007614D02*
X204815170Y-193150471D01*
X204815170Y-193150471D02*
X204100884Y-193293328D01*
X205458026Y-193650471D02*
X205529455Y-193721900D01*
X205529455Y-193721900D02*
X205458026Y-193793328D01*
X205458026Y-193793328D02*
X205386598Y-193721900D01*
X205386598Y-193721900D02*
X205458026Y-193650471D01*
X205458026Y-193650471D02*
X205458026Y-193793328D01*
X205458026Y-192864757D02*
X205529455Y-192936185D01*
X205529455Y-192936185D02*
X205458026Y-193007614D01*
X205458026Y-193007614D02*
X205386598Y-192936185D01*
X205386598Y-192936185D02*
X205458026Y-192864757D01*
X205458026Y-192864757D02*
X205458026Y-193007614D01*
D10*
D11*
X177002200Y-194507200D02*
X285002200Y-194507200D01*
D10*
D11*
X178458026Y-196593328D02*
X178458026Y-195093328D01*
X179315169Y-196593328D02*
X178672312Y-195736185D01*
X179315169Y-195093328D02*
X178458026Y-195950471D01*
X179958026Y-196593328D02*
X179958026Y-195593328D01*
X179958026Y-195093328D02*
X179886598Y-195164757D01*
X179886598Y-195164757D02*
X179958026Y-195236185D01*
X179958026Y-195236185D02*
X180029455Y-195164757D01*
X180029455Y-195164757D02*
X179958026Y-195093328D01*
X179958026Y-195093328D02*
X179958026Y-195236185D01*
X181529455Y-196450471D02*
X181458027Y-196521900D01*
X181458027Y-196521900D02*
X181243741Y-196593328D01*
X181243741Y-196593328D02*
X181100884Y-196593328D01*
X181100884Y-196593328D02*
X180886598Y-196521900D01*
X180886598Y-196521900D02*
X180743741Y-196379042D01*
X180743741Y-196379042D02*
X180672312Y-196236185D01*
X180672312Y-196236185D02*
X180600884Y-195950471D01*
X180600884Y-195950471D02*
X180600884Y-195736185D01*
X180600884Y-195736185D02*
X180672312Y-195450471D01*
X180672312Y-195450471D02*
X180743741Y-195307614D01*
X180743741Y-195307614D02*
X180886598Y-195164757D01*
X180886598Y-195164757D02*
X181100884Y-195093328D01*
X181100884Y-195093328D02*
X181243741Y-195093328D01*
X181243741Y-195093328D02*
X181458027Y-195164757D01*
X181458027Y-195164757D02*
X181529455Y-195236185D01*
X182815170Y-196593328D02*
X182815170Y-195807614D01*
X182815170Y-195807614D02*
X182743741Y-195664757D01*
X182743741Y-195664757D02*
X182600884Y-195593328D01*
X182600884Y-195593328D02*
X182315170Y-195593328D01*
X182315170Y-195593328D02*
X182172312Y-195664757D01*
X182815170Y-196521900D02*
X182672312Y-196593328D01*
X182672312Y-196593328D02*
X182315170Y-196593328D01*
X182315170Y-196593328D02*
X182172312Y-196521900D01*
X182172312Y-196521900D02*
X182100884Y-196379042D01*
X182100884Y-196379042D02*
X182100884Y-196236185D01*
X182100884Y-196236185D02*
X182172312Y-196093328D01*
X182172312Y-196093328D02*
X182315170Y-196021900D01*
X182315170Y-196021900D02*
X182672312Y-196021900D01*
X182672312Y-196021900D02*
X182815170Y-195950471D01*
X184172313Y-196593328D02*
X184172313Y-195093328D01*
X184172313Y-196521900D02*
X184029455Y-196593328D01*
X184029455Y-196593328D02*
X183743741Y-196593328D01*
X183743741Y-196593328D02*
X183600884Y-196521900D01*
X183600884Y-196521900D02*
X183529455Y-196450471D01*
X183529455Y-196450471D02*
X183458027Y-196307614D01*
X183458027Y-196307614D02*
X183458027Y-195879042D01*
X183458027Y-195879042D02*
X183529455Y-195736185D01*
X183529455Y-195736185D02*
X183600884Y-195664757D01*
X183600884Y-195664757D02*
X183743741Y-195593328D01*
X183743741Y-195593328D02*
X184029455Y-195593328D01*
X184029455Y-195593328D02*
X184172313Y-195664757D01*
X186029455Y-195807614D02*
X186529455Y-195807614D01*
X186743741Y-196593328D02*
X186029455Y-196593328D01*
X186029455Y-196593328D02*
X186029455Y-195093328D01*
X186029455Y-195093328D02*
X186743741Y-195093328D01*
X187386598Y-196450471D02*
X187458027Y-196521900D01*
X187458027Y-196521900D02*
X187386598Y-196593328D01*
X187386598Y-196593328D02*
X187315170Y-196521900D01*
X187315170Y-196521900D02*
X187386598Y-196450471D01*
X187386598Y-196450471D02*
X187386598Y-196593328D01*
X188100884Y-196593328D02*
X188100884Y-195093328D01*
X188100884Y-195093328D02*
X188458027Y-195093328D01*
X188458027Y-195093328D02*
X188672313Y-195164757D01*
X188672313Y-195164757D02*
X188815170Y-195307614D01*
X188815170Y-195307614D02*
X188886599Y-195450471D01*
X188886599Y-195450471D02*
X188958027Y-195736185D01*
X188958027Y-195736185D02*
X188958027Y-195950471D01*
X188958027Y-195950471D02*
X188886599Y-196236185D01*
X188886599Y-196236185D02*
X188815170Y-196379042D01*
X188815170Y-196379042D02*
X188672313Y-196521900D01*
X188672313Y-196521900D02*
X188458027Y-196593328D01*
X188458027Y-196593328D02*
X188100884Y-196593328D01*
X189600884Y-196450471D02*
X189672313Y-196521900D01*
X189672313Y-196521900D02*
X189600884Y-196593328D01*
X189600884Y-196593328D02*
X189529456Y-196521900D01*
X189529456Y-196521900D02*
X189600884Y-196450471D01*
X189600884Y-196450471D02*
X189600884Y-196593328D01*
X190243742Y-196164757D02*
X190958028Y-196164757D01*
X190100885Y-196593328D02*
X190600885Y-195093328D01*
X190600885Y-195093328D02*
X191100885Y-196593328D01*
X191600884Y-196450471D02*
X191672313Y-196521900D01*
X191672313Y-196521900D02*
X191600884Y-196593328D01*
X191600884Y-196593328D02*
X191529456Y-196521900D01*
X191529456Y-196521900D02*
X191600884Y-196450471D01*
X191600884Y-196450471D02*
X191600884Y-196593328D01*
X193529456Y-196593328D02*
X193815170Y-196593328D01*
X193815170Y-196593328D02*
X193958027Y-196521900D01*
X193958027Y-196521900D02*
X194029456Y-196450471D01*
X194029456Y-196450471D02*
X194172313Y-196236185D01*
X194172313Y-196236185D02*
X194243742Y-195950471D01*
X194243742Y-195950471D02*
X194243742Y-195379042D01*
X194243742Y-195379042D02*
X194172313Y-195236185D01*
X194172313Y-195236185D02*
X194100885Y-195164757D01*
X194100885Y-195164757D02*
X193958027Y-195093328D01*
X193958027Y-195093328D02*
X193672313Y-195093328D01*
X193672313Y-195093328D02*
X193529456Y-195164757D01*
X193529456Y-195164757D02*
X193458027Y-195236185D01*
X193458027Y-195236185D02*
X193386599Y-195379042D01*
X193386599Y-195379042D02*
X193386599Y-195736185D01*
X193386599Y-195736185D02*
X193458027Y-195879042D01*
X193458027Y-195879042D02*
X193529456Y-195950471D01*
X193529456Y-195950471D02*
X193672313Y-196021900D01*
X193672313Y-196021900D02*
X193958027Y-196021900D01*
X193958027Y-196021900D02*
X194100885Y-195950471D01*
X194100885Y-195950471D02*
X194172313Y-195879042D01*
X194172313Y-195879042D02*
X194243742Y-195736185D01*
X194886598Y-196450471D02*
X194958027Y-196521900D01*
X194958027Y-196521900D02*
X194886598Y-196593328D01*
X194886598Y-196593328D02*
X194815170Y-196521900D01*
X194815170Y-196521900D02*
X194886598Y-196450471D01*
X194886598Y-196450471D02*
X194886598Y-196593328D01*
X195886599Y-195093328D02*
X196029456Y-195093328D01*
X196029456Y-195093328D02*
X196172313Y-195164757D01*
X196172313Y-195164757D02*
X196243742Y-195236185D01*
X196243742Y-195236185D02*
X196315170Y-195379042D01*
X196315170Y-195379042D02*
X196386599Y-195664757D01*
X196386599Y-195664757D02*
X196386599Y-196021900D01*
X196386599Y-196021900D02*
X196315170Y-196307614D01*
X196315170Y-196307614D02*
X196243742Y-196450471D01*
X196243742Y-196450471D02*
X196172313Y-196521900D01*
X196172313Y-196521900D02*
X196029456Y-196593328D01*
X196029456Y-196593328D02*
X195886599Y-196593328D01*
X195886599Y-196593328D02*
X195743742Y-196521900D01*
X195743742Y-196521900D02*
X195672313Y-196450471D01*
X195672313Y-196450471D02*
X195600884Y-196307614D01*
X195600884Y-196307614D02*
X195529456Y-196021900D01*
X195529456Y-196021900D02*
X195529456Y-195664757D01*
X195529456Y-195664757D02*
X195600884Y-195379042D01*
X195600884Y-195379042D02*
X195672313Y-195236185D01*
X195672313Y-195236185D02*
X195743742Y-195164757D01*
X195743742Y-195164757D02*
X195886599Y-195093328D01*
X197029455Y-196450471D02*
X197100884Y-196521900D01*
X197100884Y-196521900D02*
X197029455Y-196593328D01*
X197029455Y-196593328D02*
X196958027Y-196521900D01*
X196958027Y-196521900D02*
X197029455Y-196450471D01*
X197029455Y-196450471D02*
X197029455Y-196593328D01*
X197600884Y-195093328D02*
X198600884Y-195093328D01*
X198600884Y-195093328D02*
X197958027Y-196593328D01*
D10*
D11*
X177002200Y-191507200D02*
X285002200Y-191507200D01*
D10*
D12*
X264413853Y-193785528D02*
X263913853Y-193071242D01*
X263556710Y-193785528D02*
X263556710Y-192285528D01*
X263556710Y-192285528D02*
X264128139Y-192285528D01*
X264128139Y-192285528D02*
X264270996Y-192356957D01*
X264270996Y-192356957D02*
X264342425Y-192428385D01*
X264342425Y-192428385D02*
X264413853Y-192571242D01*
X264413853Y-192571242D02*
X264413853Y-192785528D01*
X264413853Y-192785528D02*
X264342425Y-192928385D01*
X264342425Y-192928385D02*
X264270996Y-192999814D01*
X264270996Y-192999814D02*
X264128139Y-193071242D01*
X264128139Y-193071242D02*
X263556710Y-193071242D01*
X265628139Y-193714100D02*
X265485282Y-193785528D01*
X265485282Y-193785528D02*
X265199568Y-193785528D01*
X265199568Y-193785528D02*
X265056710Y-193714100D01*
X265056710Y-193714100D02*
X264985282Y-193571242D01*
X264985282Y-193571242D02*
X264985282Y-192999814D01*
X264985282Y-192999814D02*
X265056710Y-192856957D01*
X265056710Y-192856957D02*
X265199568Y-192785528D01*
X265199568Y-192785528D02*
X265485282Y-192785528D01*
X265485282Y-192785528D02*
X265628139Y-192856957D01*
X265628139Y-192856957D02*
X265699568Y-192999814D01*
X265699568Y-192999814D02*
X265699568Y-193142671D01*
X265699568Y-193142671D02*
X264985282Y-193285528D01*
X266199567Y-192785528D02*
X266556710Y-193785528D01*
X266556710Y-193785528D02*
X266913853Y-192785528D01*
X267485281Y-193642671D02*
X267556710Y-193714100D01*
X267556710Y-193714100D02*
X267485281Y-193785528D01*
X267485281Y-193785528D02*
X267413853Y-193714100D01*
X267413853Y-193714100D02*
X267485281Y-193642671D01*
X267485281Y-193642671D02*
X267485281Y-193785528D01*
X267485281Y-192856957D02*
X267556710Y-192928385D01*
X267556710Y-192928385D02*
X267485281Y-192999814D01*
X267485281Y-192999814D02*
X267413853Y-192928385D01*
X267413853Y-192928385D02*
X267485281Y-192856957D01*
X267485281Y-192856957D02*
X267485281Y-192999814D01*
D10*
D11*
X178386598Y-193721900D02*
X178600884Y-193793328D01*
X178600884Y-193793328D02*
X178958026Y-193793328D01*
X178958026Y-193793328D02*
X179100884Y-193721900D01*
X179100884Y-193721900D02*
X179172312Y-193650471D01*
X179172312Y-193650471D02*
X179243741Y-193507614D01*
X179243741Y-193507614D02*
X179243741Y-193364757D01*
X179243741Y-193364757D02*
X179172312Y-193221900D01*
X179172312Y-193221900D02*
X179100884Y-193150471D01*
X179100884Y-193150471D02*
X178958026Y-193079042D01*
X178958026Y-193079042D02*
X178672312Y-193007614D01*
X178672312Y-193007614D02*
X178529455Y-192936185D01*
X178529455Y-192936185D02*
X178458026Y-192864757D01*
X178458026Y-192864757D02*
X178386598Y-192721900D01*
X178386598Y-192721900D02*
X178386598Y-192579042D01*
X178386598Y-192579042D02*
X178458026Y-192436185D01*
X178458026Y-192436185D02*
X178529455Y-192364757D01*
X178529455Y-192364757D02*
X178672312Y-192293328D01*
X178672312Y-192293328D02*
X179029455Y-192293328D01*
X179029455Y-192293328D02*
X179243741Y-192364757D01*
X179886597Y-193793328D02*
X179886597Y-192793328D01*
X179886597Y-192293328D02*
X179815169Y-192364757D01*
X179815169Y-192364757D02*
X179886597Y-192436185D01*
X179886597Y-192436185D02*
X179958026Y-192364757D01*
X179958026Y-192364757D02*
X179886597Y-192293328D01*
X179886597Y-192293328D02*
X179886597Y-192436185D01*
X180458026Y-192793328D02*
X181243741Y-192793328D01*
X181243741Y-192793328D02*
X180458026Y-193793328D01*
X180458026Y-193793328D02*
X181243741Y-193793328D01*
X182386598Y-193721900D02*
X182243741Y-193793328D01*
X182243741Y-193793328D02*
X181958027Y-193793328D01*
X181958027Y-193793328D02*
X181815169Y-193721900D01*
X181815169Y-193721900D02*
X181743741Y-193579042D01*
X181743741Y-193579042D02*
X181743741Y-193007614D01*
X181743741Y-193007614D02*
X181815169Y-192864757D01*
X181815169Y-192864757D02*
X181958027Y-192793328D01*
X181958027Y-192793328D02*
X182243741Y-192793328D01*
X182243741Y-192793328D02*
X182386598Y-192864757D01*
X182386598Y-192864757D02*
X182458027Y-193007614D01*
X182458027Y-193007614D02*
X182458027Y-193150471D01*
X182458027Y-193150471D02*
X181743741Y-193293328D01*
X183100883Y-193650471D02*
X183172312Y-193721900D01*
X183172312Y-193721900D02*
X183100883Y-193793328D01*
X183100883Y-193793328D02*
X183029455Y-193721900D01*
X183029455Y-193721900D02*
X183100883Y-193650471D01*
X183100883Y-193650471D02*
X183100883Y-193793328D01*
X183100883Y-192864757D02*
X183172312Y-192936185D01*
X183172312Y-192936185D02*
X183100883Y-193007614D01*
X183100883Y-193007614D02*
X183029455Y-192936185D01*
X183029455Y-192936185D02*
X183100883Y-192864757D01*
X183100883Y-192864757D02*
X183100883Y-193007614D01*
X184886598Y-193364757D02*
X185600884Y-193364757D01*
X184743741Y-193793328D02*
X185243741Y-192293328D01*
X185243741Y-192293328D02*
X185743741Y-193793328D01*
X186886598Y-192793328D02*
X186886598Y-193793328D01*
X186529455Y-192221900D02*
X186172312Y-193293328D01*
X186172312Y-193293328D02*
X187100883Y-193293328D01*
D10*
D11*
X263458026Y-196593328D02*
X263458026Y-195093328D01*
X264815170Y-196593328D02*
X264815170Y-195093328D01*
X264815170Y-196521900D02*
X264672312Y-196593328D01*
X264672312Y-196593328D02*
X264386598Y-196593328D01*
X264386598Y-196593328D02*
X264243741Y-196521900D01*
X264243741Y-196521900D02*
X264172312Y-196450471D01*
X264172312Y-196450471D02*
X264100884Y-196307614D01*
X264100884Y-196307614D02*
X264100884Y-195879042D01*
X264100884Y-195879042D02*
X264172312Y-195736185D01*
X264172312Y-195736185D02*
X264243741Y-195664757D01*
X264243741Y-195664757D02*
X264386598Y-195593328D01*
X264386598Y-195593328D02*
X264672312Y-195593328D01*
X264672312Y-195593328D02*
X264815170Y-195664757D01*
X265529455Y-196450471D02*
X265600884Y-196521900D01*
X265600884Y-196521900D02*
X265529455Y-196593328D01*
X265529455Y-196593328D02*
X265458027Y-196521900D01*
X265458027Y-196521900D02*
X265529455Y-196450471D01*
X265529455Y-196450471D02*
X265529455Y-196593328D01*
X265529455Y-195664757D02*
X265600884Y-195736185D01*
X265600884Y-195736185D02*
X265529455Y-195807614D01*
X265529455Y-195807614D02*
X265458027Y-195736185D01*
X265458027Y-195736185D02*
X265529455Y-195664757D01*
X265529455Y-195664757D02*
X265529455Y-195807614D01*
X268029456Y-195593328D02*
X268029456Y-196593328D01*
X267672313Y-195021900D02*
X267315170Y-196093328D01*
X267315170Y-196093328D02*
X268243741Y-196093328D01*
X269886598Y-195021900D02*
X268600884Y-196950471D01*
X271172313Y-196593328D02*
X270315170Y-196593328D01*
X270743741Y-196593328D02*
X270743741Y-195093328D01*
X270743741Y-195093328D02*
X270600884Y-195307614D01*
X270600884Y-195307614D02*
X270458027Y-195450471D01*
X270458027Y-195450471D02*
X270315170Y-195521900D01*
X272600884Y-196593328D02*
X271743741Y-196593328D01*
X272172312Y-196593328D02*
X272172312Y-195093328D01*
X272172312Y-195093328D02*
X272029455Y-195307614D01*
X272029455Y-195307614D02*
X271886598Y-195450471D01*
X271886598Y-195450471D02*
X271743741Y-195521900D01*
D10*
D11*
X177002200Y-187507200D02*
X285002200Y-187507200D01*
D10*
D13*
X178693928Y-188211638D02*
X179836785Y-188211638D01*
X179015357Y-190211638D02*
X179265357Y-188211638D01*
X180253452Y-190211638D02*
X180420119Y-188878304D01*
X180503452Y-188211638D02*
X180396309Y-188306876D01*
X180396309Y-188306876D02*
X180479643Y-188402114D01*
X180479643Y-188402114D02*
X180586786Y-188306876D01*
X180586786Y-188306876D02*
X180503452Y-188211638D01*
X180503452Y-188211638D02*
X180479643Y-188402114D01*
X181086786Y-188878304D02*
X181848690Y-188878304D01*
X181455833Y-188211638D02*
X181241548Y-189925923D01*
X181241548Y-189925923D02*
X181312976Y-190116400D01*
X181312976Y-190116400D02*
X181491548Y-190211638D01*
X181491548Y-190211638D02*
X181682024Y-190211638D01*
X182634405Y-190211638D02*
X182455833Y-190116400D01*
X182455833Y-190116400D02*
X182384405Y-189925923D01*
X182384405Y-189925923D02*
X182598690Y-188211638D01*
X184170119Y-190116400D02*
X183967738Y-190211638D01*
X183967738Y-190211638D02*
X183586785Y-190211638D01*
X183586785Y-190211638D02*
X183408214Y-190116400D01*
X183408214Y-190116400D02*
X183336785Y-189925923D01*
X183336785Y-189925923D02*
X183432024Y-189164019D01*
X183432024Y-189164019D02*
X183551071Y-188973542D01*
X183551071Y-188973542D02*
X183753452Y-188878304D01*
X183753452Y-188878304D02*
X184134404Y-188878304D01*
X184134404Y-188878304D02*
X184312976Y-188973542D01*
X184312976Y-188973542D02*
X184384404Y-189164019D01*
X184384404Y-189164019D02*
X184360595Y-189354495D01*
X184360595Y-189354495D02*
X183384404Y-189544971D01*
X185134405Y-190021161D02*
X185217738Y-190116400D01*
X185217738Y-190116400D02*
X185110595Y-190211638D01*
X185110595Y-190211638D02*
X185027262Y-190116400D01*
X185027262Y-190116400D02*
X185134405Y-190021161D01*
X185134405Y-190021161D02*
X185110595Y-190211638D01*
X185265357Y-188973542D02*
X185348690Y-189068780D01*
X185348690Y-189068780D02*
X185241548Y-189164019D01*
X185241548Y-189164019D02*
X185158214Y-189068780D01*
X185158214Y-189068780D02*
X185265357Y-188973542D01*
X185265357Y-188973542D02*
X185241548Y-189164019D01*
D10*
D11*
X178958026Y-185607614D02*
X178458026Y-185607614D01*
X178458026Y-186393328D02*
X178458026Y-184893328D01*
X178458026Y-184893328D02*
X179172312Y-184893328D01*
X179743740Y-186393328D02*
X179743740Y-185393328D01*
X179743740Y-184893328D02*
X179672312Y-184964757D01*
X179672312Y-184964757D02*
X179743740Y-185036185D01*
X179743740Y-185036185D02*
X179815169Y-184964757D01*
X179815169Y-184964757D02*
X179743740Y-184893328D01*
X179743740Y-184893328D02*
X179743740Y-185036185D01*
X180672312Y-186393328D02*
X180529455Y-186321900D01*
X180529455Y-186321900D02*
X180458026Y-186179042D01*
X180458026Y-186179042D02*
X180458026Y-184893328D01*
X181815169Y-186321900D02*
X181672312Y-186393328D01*
X181672312Y-186393328D02*
X181386598Y-186393328D01*
X181386598Y-186393328D02*
X181243740Y-186321900D01*
X181243740Y-186321900D02*
X181172312Y-186179042D01*
X181172312Y-186179042D02*
X181172312Y-185607614D01*
X181172312Y-185607614D02*
X181243740Y-185464757D01*
X181243740Y-185464757D02*
X181386598Y-185393328D01*
X181386598Y-185393328D02*
X181672312Y-185393328D01*
X181672312Y-185393328D02*
X181815169Y-185464757D01*
X181815169Y-185464757D02*
X181886598Y-185607614D01*
X181886598Y-185607614D02*
X181886598Y-185750471D01*
X181886598Y-185750471D02*
X181172312Y-185893328D01*
X182529454Y-186250471D02*
X182600883Y-186321900D01*
X182600883Y-186321900D02*
X182529454Y-186393328D01*
X182529454Y-186393328D02*
X182458026Y-186321900D01*
X182458026Y-186321900D02*
X182529454Y-186250471D01*
X182529454Y-186250471D02*
X182529454Y-186393328D01*
X182529454Y-185464757D02*
X182600883Y-185536185D01*
X182600883Y-185536185D02*
X182529454Y-185607614D01*
X182529454Y-185607614D02*
X182458026Y-185536185D01*
X182458026Y-185536185D02*
X182529454Y-185464757D01*
X182529454Y-185464757D02*
X182529454Y-185607614D01*
X184315169Y-186321900D02*
X184529455Y-186393328D01*
X184529455Y-186393328D02*
X184886597Y-186393328D01*
X184886597Y-186393328D02*
X185029455Y-186321900D01*
X185029455Y-186321900D02*
X185100883Y-186250471D01*
X185100883Y-186250471D02*
X185172312Y-186107614D01*
X185172312Y-186107614D02*
X185172312Y-185964757D01*
X185172312Y-185964757D02*
X185100883Y-185821900D01*
X185100883Y-185821900D02*
X185029455Y-185750471D01*
X185029455Y-185750471D02*
X184886597Y-185679042D01*
X184886597Y-185679042D02*
X184600883Y-185607614D01*
X184600883Y-185607614D02*
X184458026Y-185536185D01*
X184458026Y-185536185D02*
X184386597Y-185464757D01*
X184386597Y-185464757D02*
X184315169Y-185321900D01*
X184315169Y-185321900D02*
X184315169Y-185179042D01*
X184315169Y-185179042D02*
X184386597Y-185036185D01*
X184386597Y-185036185D02*
X184458026Y-184964757D01*
X184458026Y-184964757D02*
X184600883Y-184893328D01*
X184600883Y-184893328D02*
X184958026Y-184893328D01*
X184958026Y-184893328D02*
X185172312Y-184964757D01*
X186386597Y-186321900D02*
X186243740Y-186393328D01*
X186243740Y-186393328D02*
X185958026Y-186393328D01*
X185958026Y-186393328D02*
X185815168Y-186321900D01*
X185815168Y-186321900D02*
X185743740Y-186179042D01*
X185743740Y-186179042D02*
X185743740Y-185607614D01*
X185743740Y-185607614D02*
X185815168Y-185464757D01*
X185815168Y-185464757D02*
X185958026Y-185393328D01*
X185958026Y-185393328D02*
X186243740Y-185393328D01*
X186243740Y-185393328D02*
X186386597Y-185464757D01*
X186386597Y-185464757D02*
X186458026Y-185607614D01*
X186458026Y-185607614D02*
X186458026Y-185750471D01*
X186458026Y-185750471D02*
X185743740Y-185893328D01*
X187100882Y-185393328D02*
X187100882Y-186393328D01*
X187100882Y-185536185D02*
X187172311Y-185464757D01*
X187172311Y-185464757D02*
X187315168Y-185393328D01*
X187315168Y-185393328D02*
X187529454Y-185393328D01*
X187529454Y-185393328D02*
X187672311Y-185464757D01*
X187672311Y-185464757D02*
X187743740Y-185607614D01*
X187743740Y-185607614D02*
X187743740Y-186393328D01*
X188386597Y-186321900D02*
X188529454Y-186393328D01*
X188529454Y-186393328D02*
X188815168Y-186393328D01*
X188815168Y-186393328D02*
X188958025Y-186321900D01*
X188958025Y-186321900D02*
X189029454Y-186179042D01*
X189029454Y-186179042D02*
X189029454Y-186107614D01*
X189029454Y-186107614D02*
X188958025Y-185964757D01*
X188958025Y-185964757D02*
X188815168Y-185893328D01*
X188815168Y-185893328D02*
X188600883Y-185893328D01*
X188600883Y-185893328D02*
X188458025Y-185821900D01*
X188458025Y-185821900D02*
X188386597Y-185679042D01*
X188386597Y-185679042D02*
X188386597Y-185607614D01*
X188386597Y-185607614D02*
X188458025Y-185464757D01*
X188458025Y-185464757D02*
X188600883Y-185393328D01*
X188600883Y-185393328D02*
X188815168Y-185393328D01*
X188815168Y-185393328D02*
X188958025Y-185464757D01*
X189886597Y-186393328D02*
X189743740Y-186321900D01*
X189743740Y-186321900D02*
X189672311Y-186250471D01*
X189672311Y-186250471D02*
X189600883Y-186107614D01*
X189600883Y-186107614D02*
X189600883Y-185679042D01*
X189600883Y-185679042D02*
X189672311Y-185536185D01*
X189672311Y-185536185D02*
X189743740Y-185464757D01*
X189743740Y-185464757D02*
X189886597Y-185393328D01*
X189886597Y-185393328D02*
X190100883Y-185393328D01*
X190100883Y-185393328D02*
X190243740Y-185464757D01*
X190243740Y-185464757D02*
X190315169Y-185536185D01*
X190315169Y-185536185D02*
X190386597Y-185679042D01*
X190386597Y-185679042D02*
X190386597Y-186107614D01*
X190386597Y-186107614D02*
X190315169Y-186250471D01*
X190315169Y-186250471D02*
X190243740Y-186321900D01*
X190243740Y-186321900D02*
X190100883Y-186393328D01*
X190100883Y-186393328D02*
X189886597Y-186393328D01*
X191029454Y-186393328D02*
X191029454Y-185393328D01*
X191029454Y-185679042D02*
X191100883Y-185536185D01*
X191100883Y-185536185D02*
X191172312Y-185464757D01*
X191172312Y-185464757D02*
X191315169Y-185393328D01*
X191315169Y-185393328D02*
X191458026Y-185393328D01*
X193958025Y-186250471D02*
X193886597Y-186321900D01*
X193886597Y-186321900D02*
X193672311Y-186393328D01*
X193672311Y-186393328D02*
X193529454Y-186393328D01*
X193529454Y-186393328D02*
X193315168Y-186321900D01*
X193315168Y-186321900D02*
X193172311Y-186179042D01*
X193172311Y-186179042D02*
X193100882Y-186036185D01*
X193100882Y-186036185D02*
X193029454Y-185750471D01*
X193029454Y-185750471D02*
X193029454Y-185536185D01*
X193029454Y-185536185D02*
X193100882Y-185250471D01*
X193100882Y-185250471D02*
X193172311Y-185107614D01*
X193172311Y-185107614D02*
X193315168Y-184964757D01*
X193315168Y-184964757D02*
X193529454Y-184893328D01*
X193529454Y-184893328D02*
X193672311Y-184893328D01*
X193672311Y-184893328D02*
X193886597Y-184964757D01*
X193886597Y-184964757D02*
X193958025Y-185036185D01*
X195172311Y-186321900D02*
X195029454Y-186393328D01*
X195029454Y-186393328D02*
X194743740Y-186393328D01*
X194743740Y-186393328D02*
X194600882Y-186321900D01*
X194600882Y-186321900D02*
X194529454Y-186179042D01*
X194529454Y-186179042D02*
X194529454Y-185607614D01*
X194529454Y-185607614D02*
X194600882Y-185464757D01*
X194600882Y-185464757D02*
X194743740Y-185393328D01*
X194743740Y-185393328D02*
X195029454Y-185393328D01*
X195029454Y-185393328D02*
X195172311Y-185464757D01*
X195172311Y-185464757D02*
X195243740Y-185607614D01*
X195243740Y-185607614D02*
X195243740Y-185750471D01*
X195243740Y-185750471D02*
X194529454Y-185893328D01*
X196100882Y-186393328D02*
X195958025Y-186321900D01*
X195958025Y-186321900D02*
X195886596Y-186179042D01*
X195886596Y-186179042D02*
X195886596Y-184893328D01*
X196886596Y-186393328D02*
X196743739Y-186321900D01*
X196743739Y-186321900D02*
X196672310Y-186179042D01*
X196672310Y-186179042D02*
X196672310Y-184893328D01*
X198458024Y-185393328D02*
X198743739Y-186393328D01*
X198743739Y-186393328D02*
X199029453Y-185679042D01*
X199029453Y-185679042D02*
X199315167Y-186393328D01*
X199315167Y-186393328D02*
X199600881Y-185393328D01*
X200172310Y-186393328D02*
X200172310Y-185393328D01*
X200172310Y-184893328D02*
X200100882Y-184964757D01*
X200100882Y-184964757D02*
X200172310Y-185036185D01*
X200172310Y-185036185D02*
X200243739Y-184964757D01*
X200243739Y-184964757D02*
X200172310Y-184893328D01*
X200172310Y-184893328D02*
X200172310Y-185036185D01*
X200672311Y-185393328D02*
X201243739Y-185393328D01*
X200886596Y-184893328D02*
X200886596Y-186179042D01*
X200886596Y-186179042D02*
X200958025Y-186321900D01*
X200958025Y-186321900D02*
X201100882Y-186393328D01*
X201100882Y-186393328D02*
X201243739Y-186393328D01*
X201743739Y-186393328D02*
X201743739Y-184893328D01*
X202386597Y-186393328D02*
X202386597Y-185607614D01*
X202386597Y-185607614D02*
X202315168Y-185464757D01*
X202315168Y-185464757D02*
X202172311Y-185393328D01*
X202172311Y-185393328D02*
X201958025Y-185393328D01*
X201958025Y-185393328D02*
X201815168Y-185464757D01*
X201815168Y-185464757D02*
X201743739Y-185536185D01*
X205100882Y-186250471D02*
X205029454Y-186321900D01*
X205029454Y-186321900D02*
X204815168Y-186393328D01*
X204815168Y-186393328D02*
X204672311Y-186393328D01*
X204672311Y-186393328D02*
X204458025Y-186321900D01*
X204458025Y-186321900D02*
X204315168Y-186179042D01*
X204315168Y-186179042D02*
X204243739Y-186036185D01*
X204243739Y-186036185D02*
X204172311Y-185750471D01*
X204172311Y-185750471D02*
X204172311Y-185536185D01*
X204172311Y-185536185D02*
X204243739Y-185250471D01*
X204243739Y-185250471D02*
X204315168Y-185107614D01*
X204315168Y-185107614D02*
X204458025Y-184964757D01*
X204458025Y-184964757D02*
X204672311Y-184893328D01*
X204672311Y-184893328D02*
X204815168Y-184893328D01*
X204815168Y-184893328D02*
X205029454Y-184964757D01*
X205029454Y-184964757D02*
X205100882Y-185036185D01*
X205958025Y-186393328D02*
X205815168Y-186321900D01*
X205815168Y-186321900D02*
X205743739Y-186250471D01*
X205743739Y-186250471D02*
X205672311Y-186107614D01*
X205672311Y-186107614D02*
X205672311Y-185679042D01*
X205672311Y-185679042D02*
X205743739Y-185536185D01*
X205743739Y-185536185D02*
X205815168Y-185464757D01*
X205815168Y-185464757D02*
X205958025Y-185393328D01*
X205958025Y-185393328D02*
X206172311Y-185393328D01*
X206172311Y-185393328D02*
X206315168Y-185464757D01*
X206315168Y-185464757D02*
X206386597Y-185536185D01*
X206386597Y-185536185D02*
X206458025Y-185679042D01*
X206458025Y-185679042D02*
X206458025Y-186107614D01*
X206458025Y-186107614D02*
X206386597Y-186250471D01*
X206386597Y-186250471D02*
X206315168Y-186321900D01*
X206315168Y-186321900D02*
X206172311Y-186393328D01*
X206172311Y-186393328D02*
X205958025Y-186393328D01*
X207100882Y-186393328D02*
X207100882Y-185393328D01*
X207100882Y-185536185D02*
X207172311Y-185464757D01*
X207172311Y-185464757D02*
X207315168Y-185393328D01*
X207315168Y-185393328D02*
X207529454Y-185393328D01*
X207529454Y-185393328D02*
X207672311Y-185464757D01*
X207672311Y-185464757D02*
X207743740Y-185607614D01*
X207743740Y-185607614D02*
X207743740Y-186393328D01*
X207743740Y-185607614D02*
X207815168Y-185464757D01*
X207815168Y-185464757D02*
X207958025Y-185393328D01*
X207958025Y-185393328D02*
X208172311Y-185393328D01*
X208172311Y-185393328D02*
X208315168Y-185464757D01*
X208315168Y-185464757D02*
X208386597Y-185607614D01*
X208386597Y-185607614D02*
X208386597Y-186393328D01*
X209100882Y-186393328D02*
X209100882Y-185393328D01*
X209100882Y-185536185D02*
X209172311Y-185464757D01*
X209172311Y-185464757D02*
X209315168Y-185393328D01*
X209315168Y-185393328D02*
X209529454Y-185393328D01*
X209529454Y-185393328D02*
X209672311Y-185464757D01*
X209672311Y-185464757D02*
X209743740Y-185607614D01*
X209743740Y-185607614D02*
X209743740Y-186393328D01*
X209743740Y-185607614D02*
X209815168Y-185464757D01*
X209815168Y-185464757D02*
X209958025Y-185393328D01*
X209958025Y-185393328D02*
X210172311Y-185393328D01*
X210172311Y-185393328D02*
X210315168Y-185464757D01*
X210315168Y-185464757D02*
X210386597Y-185607614D01*
X210386597Y-185607614D02*
X210386597Y-186393328D01*
X211029454Y-186321900D02*
X211172311Y-186393328D01*
X211172311Y-186393328D02*
X211458025Y-186393328D01*
X211458025Y-186393328D02*
X211600882Y-186321900D01*
X211600882Y-186321900D02*
X211672311Y-186179042D01*
X211672311Y-186179042D02*
X211672311Y-186107614D01*
X211672311Y-186107614D02*
X211600882Y-185964757D01*
X211600882Y-185964757D02*
X211458025Y-185893328D01*
X211458025Y-185893328D02*
X211243740Y-185893328D01*
X211243740Y-185893328D02*
X211100882Y-185821900D01*
X211100882Y-185821900D02*
X211029454Y-185679042D01*
X211029454Y-185679042D02*
X211029454Y-185607614D01*
X211029454Y-185607614D02*
X211100882Y-185464757D01*
X211100882Y-185464757D02*
X211243740Y-185393328D01*
X211243740Y-185393328D02*
X211458025Y-185393328D01*
X211458025Y-185393328D02*
X211600882Y-185464757D01*
X212315168Y-186250471D02*
X212386597Y-186321900D01*
X212386597Y-186321900D02*
X212315168Y-186393328D01*
X212315168Y-186393328D02*
X212243740Y-186321900D01*
X212243740Y-186321900D02*
X212315168Y-186250471D01*
X212315168Y-186250471D02*
X212315168Y-186393328D01*
X213029454Y-186393328D02*
X213029454Y-184893328D01*
X213172312Y-185821900D02*
X213600883Y-186393328D01*
X213600883Y-185393328D02*
X213029454Y-185964757D01*
X214243740Y-186393328D02*
X214243740Y-185393328D01*
X214243740Y-184893328D02*
X214172312Y-184964757D01*
X214172312Y-184964757D02*
X214243740Y-185036185D01*
X214243740Y-185036185D02*
X214315169Y-184964757D01*
X214315169Y-184964757D02*
X214243740Y-184893328D01*
X214243740Y-184893328D02*
X214243740Y-185036185D01*
X215600884Y-186321900D02*
X215458026Y-186393328D01*
X215458026Y-186393328D02*
X215172312Y-186393328D01*
X215172312Y-186393328D02*
X215029455Y-186321900D01*
X215029455Y-186321900D02*
X214958026Y-186250471D01*
X214958026Y-186250471D02*
X214886598Y-186107614D01*
X214886598Y-186107614D02*
X214886598Y-185679042D01*
X214886598Y-185679042D02*
X214958026Y-185536185D01*
X214958026Y-185536185D02*
X215029455Y-185464757D01*
X215029455Y-185464757D02*
X215172312Y-185393328D01*
X215172312Y-185393328D02*
X215458026Y-185393328D01*
X215458026Y-185393328D02*
X215600884Y-185464757D01*
X216886598Y-186393328D02*
X216886598Y-185607614D01*
X216886598Y-185607614D02*
X216815169Y-185464757D01*
X216815169Y-185464757D02*
X216672312Y-185393328D01*
X216672312Y-185393328D02*
X216386598Y-185393328D01*
X216386598Y-185393328D02*
X216243740Y-185464757D01*
X216886598Y-186321900D02*
X216743740Y-186393328D01*
X216743740Y-186393328D02*
X216386598Y-186393328D01*
X216386598Y-186393328D02*
X216243740Y-186321900D01*
X216243740Y-186321900D02*
X216172312Y-186179042D01*
X216172312Y-186179042D02*
X216172312Y-186036185D01*
X216172312Y-186036185D02*
X216243740Y-185893328D01*
X216243740Y-185893328D02*
X216386598Y-185821900D01*
X216386598Y-185821900D02*
X216743740Y-185821900D01*
X216743740Y-185821900D02*
X216886598Y-185750471D01*
X218243741Y-186393328D02*
X218243741Y-184893328D01*
X218243741Y-186321900D02*
X218100883Y-186393328D01*
X218100883Y-186393328D02*
X217815169Y-186393328D01*
X217815169Y-186393328D02*
X217672312Y-186321900D01*
X217672312Y-186321900D02*
X217600883Y-186250471D01*
X217600883Y-186250471D02*
X217529455Y-186107614D01*
X217529455Y-186107614D02*
X217529455Y-185679042D01*
X217529455Y-185679042D02*
X217600883Y-185536185D01*
X217600883Y-185536185D02*
X217672312Y-185464757D01*
X217672312Y-185464757D02*
X217815169Y-185393328D01*
X217815169Y-185393328D02*
X218100883Y-185393328D01*
X218100883Y-185393328D02*
X218243741Y-185464757D01*
X218600884Y-186536185D02*
X219743741Y-186536185D01*
X220100883Y-185393328D02*
X220100883Y-186893328D01*
X220100883Y-185464757D02*
X220243741Y-185393328D01*
X220243741Y-185393328D02*
X220529455Y-185393328D01*
X220529455Y-185393328D02*
X220672312Y-185464757D01*
X220672312Y-185464757D02*
X220743741Y-185536185D01*
X220743741Y-185536185D02*
X220815169Y-185679042D01*
X220815169Y-185679042D02*
X220815169Y-186107614D01*
X220815169Y-186107614D02*
X220743741Y-186250471D01*
X220743741Y-186250471D02*
X220672312Y-186321900D01*
X220672312Y-186321900D02*
X220529455Y-186393328D01*
X220529455Y-186393328D02*
X220243741Y-186393328D01*
X220243741Y-186393328D02*
X220100883Y-186321900D01*
X222100884Y-186321900D02*
X221958026Y-186393328D01*
X221958026Y-186393328D02*
X221672312Y-186393328D01*
X221672312Y-186393328D02*
X221529455Y-186321900D01*
X221529455Y-186321900D02*
X221458026Y-186250471D01*
X221458026Y-186250471D02*
X221386598Y-186107614D01*
X221386598Y-186107614D02*
X221386598Y-185679042D01*
X221386598Y-185679042D02*
X221458026Y-185536185D01*
X221458026Y-185536185D02*
X221529455Y-185464757D01*
X221529455Y-185464757D02*
X221672312Y-185393328D01*
X221672312Y-185393328D02*
X221958026Y-185393328D01*
X221958026Y-185393328D02*
X222100884Y-185464757D01*
X222743740Y-186393328D02*
X222743740Y-184893328D01*
X222743740Y-185464757D02*
X222886598Y-185393328D01*
X222886598Y-185393328D02*
X223172312Y-185393328D01*
X223172312Y-185393328D02*
X223315169Y-185464757D01*
X223315169Y-185464757D02*
X223386598Y-185536185D01*
X223386598Y-185536185D02*
X223458026Y-185679042D01*
X223458026Y-185679042D02*
X223458026Y-186107614D01*
X223458026Y-186107614D02*
X223386598Y-186250471D01*
X223386598Y-186250471D02*
X223315169Y-186321900D01*
X223315169Y-186321900D02*
X223172312Y-186393328D01*
X223172312Y-186393328D02*
X222886598Y-186393328D01*
X222886598Y-186393328D02*
X222743740Y-186321900D01*
D10*
D11*
X177002200Y-181507200D02*
X285002200Y-181507200D01*
D10*
D11*
X178386598Y-183621900D02*
X178600884Y-183693328D01*
X178600884Y-183693328D02*
X178958026Y-183693328D01*
X178958026Y-183693328D02*
X179100884Y-183621900D01*
X179100884Y-183621900D02*
X179172312Y-183550471D01*
X179172312Y-183550471D02*
X179243741Y-183407614D01*
X179243741Y-183407614D02*
X179243741Y-183264757D01*
X179243741Y-183264757D02*
X179172312Y-183121900D01*
X179172312Y-183121900D02*
X179100884Y-183050471D01*
X179100884Y-183050471D02*
X178958026Y-182979042D01*
X178958026Y-182979042D02*
X178672312Y-182907614D01*
X178672312Y-182907614D02*
X178529455Y-182836185D01*
X178529455Y-182836185D02*
X178458026Y-182764757D01*
X178458026Y-182764757D02*
X178386598Y-182621900D01*
X178386598Y-182621900D02*
X178386598Y-182479042D01*
X178386598Y-182479042D02*
X178458026Y-182336185D01*
X178458026Y-182336185D02*
X178529455Y-182264757D01*
X178529455Y-182264757D02*
X178672312Y-182193328D01*
X178672312Y-182193328D02*
X179029455Y-182193328D01*
X179029455Y-182193328D02*
X179243741Y-182264757D01*
X179886597Y-183693328D02*
X179886597Y-182193328D01*
X180529455Y-183693328D02*
X180529455Y-182907614D01*
X180529455Y-182907614D02*
X180458026Y-182764757D01*
X180458026Y-182764757D02*
X180315169Y-182693328D01*
X180315169Y-182693328D02*
X180100883Y-182693328D01*
X180100883Y-182693328D02*
X179958026Y-182764757D01*
X179958026Y-182764757D02*
X179886597Y-182836185D01*
X181815169Y-183621900D02*
X181672312Y-183693328D01*
X181672312Y-183693328D02*
X181386598Y-183693328D01*
X181386598Y-183693328D02*
X181243740Y-183621900D01*
X181243740Y-183621900D02*
X181172312Y-183479042D01*
X181172312Y-183479042D02*
X181172312Y-182907614D01*
X181172312Y-182907614D02*
X181243740Y-182764757D01*
X181243740Y-182764757D02*
X181386598Y-182693328D01*
X181386598Y-182693328D02*
X181672312Y-182693328D01*
X181672312Y-182693328D02*
X181815169Y-182764757D01*
X181815169Y-182764757D02*
X181886598Y-182907614D01*
X181886598Y-182907614D02*
X181886598Y-183050471D01*
X181886598Y-183050471D02*
X181172312Y-183193328D01*
X183100883Y-183621900D02*
X182958026Y-183693328D01*
X182958026Y-183693328D02*
X182672312Y-183693328D01*
X182672312Y-183693328D02*
X182529454Y-183621900D01*
X182529454Y-183621900D02*
X182458026Y-183479042D01*
X182458026Y-183479042D02*
X182458026Y-182907614D01*
X182458026Y-182907614D02*
X182529454Y-182764757D01*
X182529454Y-182764757D02*
X182672312Y-182693328D01*
X182672312Y-182693328D02*
X182958026Y-182693328D01*
X182958026Y-182693328D02*
X183100883Y-182764757D01*
X183100883Y-182764757D02*
X183172312Y-182907614D01*
X183172312Y-182907614D02*
X183172312Y-183050471D01*
X183172312Y-183050471D02*
X182458026Y-183193328D01*
X183600883Y-182693328D02*
X184172311Y-182693328D01*
X183815168Y-182193328D02*
X183815168Y-183479042D01*
X183815168Y-183479042D02*
X183886597Y-183621900D01*
X183886597Y-183621900D02*
X184029454Y-183693328D01*
X184029454Y-183693328D02*
X184172311Y-183693328D01*
X184672311Y-183550471D02*
X184743740Y-183621900D01*
X184743740Y-183621900D02*
X184672311Y-183693328D01*
X184672311Y-183693328D02*
X184600883Y-183621900D01*
X184600883Y-183621900D02*
X184672311Y-183550471D01*
X184672311Y-183550471D02*
X184672311Y-183693328D01*
X184672311Y-182764757D02*
X184743740Y-182836185D01*
X184743740Y-182836185D02*
X184672311Y-182907614D01*
X184672311Y-182907614D02*
X184600883Y-182836185D01*
X184600883Y-182836185D02*
X184672311Y-182764757D01*
X184672311Y-182764757D02*
X184672311Y-182907614D01*
D10*
D11*
X197002200Y-191507200D02*
X197002200Y-194507200D01*
D10*
D11*
X261002200Y-191507200D02*
X261002200Y-198007200D01*
D14*
%TO.P,TP7,1,1*%
%TO.N,/Serial_Wire_Output*%
X124000000Y-84000000D03*
%TD*%
D15*
%TO.P,J2,1,Pin_1*%
%TO.N,/CANH_out*%
X65027001Y-54660401D03*
%TO.P,J2,2,Pin_2*%
%TO.N,GND*%
X65027001Y-57660400D03*
%TO.P,J2,3,Pin_3*%
%TO.N,/CANL_out*%
X65027001Y-60660399D03*
%TD*%
D14*
%TO.P,TP6,1,1*%
%TO.N,/Onboard_LED*%
X90000000Y-73000000D03*
%TD*%
D15*
%TO.P,J3,1,Pin_1*%
%TO.N,/+1V8_rail*%
X128973000Y-102339599D03*
%TO.P,J3,2,Pin_2*%
%TO.N,GND*%
X128973000Y-99339600D03*
%TO.P,J3,3,Pin_3*%
%TO.N,/+5V0_rail*%
X128973000Y-96339601D03*
%TD*%
D14*
%TO.P,TP4,1,1*%
%TO.N,/+5V0_rail*%
X129000000Y-91000000D03*
%TD*%
%TO.P,TP5,1,1*%
%TO.N,Net-(R31-Pad1)*%
X88000000Y-89000000D03*
%TD*%
%TO.P,TP9,1,1*%
%TO.N,Net-(U1-PA8)*%
X116000000Y-89000000D03*
%TD*%
%TO.P,TP2,1,1*%
%TO.N,Net-(U8-CLKO{slash}SOF)*%
X109000000Y-43000000D03*
%TD*%
%TO.P,U1,1,VBAT*%
%TO.N,Net-(U1-VBAT)*%
X95000000Y-77000000D03*
D16*
%TO.P,U1,2,PC13*%
%TO.N,/Onboard_LED*%
X95000000Y-78000000D03*
%TO.P,U1,3,PC14*%
%TO.N,/TEMP2_ALERT*%
X95000000Y-79000000D03*
%TO.P,U1,4,PC15*%
%TO.N,/CAN_FLT*%
X95000000Y-80000000D03*
%TO.P,U1,7,NRST*%
%TO.N,/MCU_RST*%
X95000000Y-93000000D03*
%TO.P,U1,10,PA0*%
%TO.N,/WAKE*%
X95000000Y-81000000D03*
%TO.P,U1,11,PA1*%
%TO.N,/3V3_~{FLT}*%
X95000000Y-82000000D03*
%TO.P,U1,12,PA2*%
%TO.N,/1V8_~{FLT}*%
X95000000Y-83000000D03*
%TO.P,U1,13,PA3*%
%TO.N,/INA3221_CRIT*%
X95000000Y-84000000D03*
%TO.P,U1,14,PA4*%
%TO.N,/MCU_GPIO_~{CS}*%
X95000000Y-85000000D03*
%TO.P,U1,15,PA5*%
%TO.N,Net-(U1-PA5)*%
X95000000Y-86000000D03*
%TO.P,U1,16,PA6*%
%TO.N,/MCU_MISO*%
X95000000Y-87000000D03*
%TO.P,U1,17,PA7*%
%TO.N,Net-(U1-PA7)*%
X95000000Y-88000000D03*
%TO.P,U1,18,PB0*%
%TO.N,/5V0_~{FLT}*%
X95000000Y-89000000D03*
%TO.P,U1,19,PB1*%
%TO.N,/3V3_~{PG}*%
X95000000Y-90000000D03*
%TO.P,U1,21,PB10*%
%TO.N,/5V0_~{EN}*%
X95000000Y-91000000D03*
%TO.P,U1,22,PB11*%
%TO.N,/OSC_EN*%
X95000000Y-92000000D03*
%TO.P,U1,23,VSS*%
%TO.N,GND*%
X95000000Y-95000000D03*
X95000000Y-96000000D03*
X110240000Y-78000000D03*
%TO.P,U1,24,VDD*%
%TO.N,Net-(JP1-A)*%
X95000000Y-94000000D03*
X110240000Y-77000000D03*
%TO.P,U1,25,PB12*%
%TO.N,/TEMP0_ALERT*%
X110240000Y-96000000D03*
%TO.P,U1,26,PB13*%
%TO.N,/TEMP1_ALERT*%
X110240000Y-95000000D03*
%TO.P,U1,27,PB14*%
%TO.N,/1V8_ON*%
X110240000Y-94000000D03*
%TO.P,U1,28,PB15*%
%TO.N,/3V3_~{EN}*%
X110240000Y-93000000D03*
%TO.P,U1,29,PA8*%
%TO.N,Net-(U1-PA8)*%
X110240000Y-92000000D03*
%TO.P,U1,30,PA9*%
%TO.N,/INA3221_VALID*%
X110240000Y-91000000D03*
%TO.P,U1,31,PA10*%
%TO.N,/INA3221_WARN*%
X110240000Y-90000000D03*
%TO.P,U1,32,PA11*%
%TO.N,/USB-*%
X110240000Y-89000000D03*
%TO.P,U1,33,PA12*%
%TO.N,/USB+*%
X110240000Y-88000000D03*
%TO.P,U1,38,PA15*%
%TO.N,/WP*%
X110240000Y-87000000D03*
%TO.P,U1,39,PB3*%
%TO.N,Net-(JP3-B)*%
X110240000Y-86000000D03*
%TO.P,U1,40,PB4*%
%TO.N,/5V0_~{PG}*%
X110240000Y-85000000D03*
%TO.P,U1,41,PB5*%
%TO.N,/CAN_ALRT0*%
X110240000Y-84000000D03*
%TO.P,U1,42,PB6*%
%TO.N,/CAN_ALRT1*%
X110240000Y-83000000D03*
%TO.P,U1,43,PB7*%
%TO.N,/CAN_ALRT2*%
X110240000Y-82000000D03*
%TO.P,U1,45,PB8*%
%TO.N,/SCL*%
X110240000Y-81000000D03*
%TO.P,U1,46,PB9*%
%TO.N,/SDA*%
X110240000Y-80000000D03*
%TO.P,U1,99,5VIN*%
%TO.N,Net-(JP2-A)*%
X110240000Y-79000000D03*
%TD*%
D17*
%TO.P,U6,1,IN-3*%
%TO.N,/+1V8_rail*%
X85825000Y-69125000D03*
%TO.P,U6,2,IN+3*%
%TO.N,/+1V8_railMonitor*%
X90200000Y-69175000D03*
%TO.P,U6,3,GND*%
%TO.N,GND*%
X90750000Y-41500000D03*
D16*
X76000000Y-45000000D03*
D17*
X90675000Y-47625000D03*
D14*
%TO.P,U6,4,VS*%
%TO.N,+3V3_rail*%
X77000000Y-45000000D03*
D16*
%TO.P,U6,6,SCL*%
%TO.N,/SCL*%
X75000000Y-45000000D03*
%TO.P,U6,7,SDA*%
%TO.N,/SDA*%
X74000000Y-45000000D03*
%TO.P,U6,8,WARNING*%
%TO.N,/INA3221_WARN*%
X71000000Y-45000000D03*
%TO.P,U6,9,CRITICAL*%
%TO.N,/INA3221_CRIT*%
X72000000Y-45000000D03*
%TO.P,U6,10,PV*%
%TO.N,/INA3221_VALID*%
X73000000Y-45000000D03*
D17*
%TO.P,U6,11,IN-1*%
%TO.N,/+5V0_rail*%
X63675000Y-69000000D03*
%TO.P,U6,12,IN+1*%
%TO.N,/+5V0_railMonitor*%
X68050000Y-69050000D03*
D16*
%TO.P,U6,13,TC*%
%TO.N,unconnected-(U6-TC-Pad13)*%
X70000000Y-45000000D03*
D17*
%TO.P,U6,14,IN-2*%
%TO.N,+3V3_rail*%
X74125000Y-69000000D03*
%TO.P,U6,15,IN+2*%
%TO.N,/+3V3_railMonitor*%
X78500000Y-69050000D03*
%TO.P,U6,16,VPU*%
%TO.N,+3V3_rail*%
X90800000Y-35925000D03*
%TD*%
D18*
%TO.P,U9,9,EP*%
%TO.N,GND*%
X101090000Y-100700000D03*
X101090000Y-102000000D03*
X101090000Y-103300000D03*
D19*
X102045000Y-102000000D03*
D18*
X103000000Y-100700000D03*
X103000000Y-102000000D03*
X103000000Y-103300000D03*
%TD*%
D14*
%TO.P,TP1,1,1*%
%TO.N,Net-(U1-VBAT)*%
X95000000Y-70000000D03*
%TD*%
D20*
%TO.P,J1,1,Pin_1*%
%TO.N,+1V8DC*%
X64680000Y-93000000D03*
D21*
%TO.P,J1,2,Pin_2*%
%TO.N,+3V3DC*%
X64680000Y-96000000D03*
%TO.P,J1,3,Pin_3*%
%TO.N,+5V0DC*%
X64680000Y-99000000D03*
%TO.P,J1,4,Pin_4*%
%TO.N,GND*%
X64680000Y-102000000D03*
%TD*%
D14*
%TO.P,TP3,1,1*%
%TO.N,/+1V8_rail*%
X111000000Y-104000000D03*
%TD*%
%TO.P,TP8,1,1*%
%TO.N,/WAKE*%
X90412141Y-76798540D03*
%TD*%
D22*
%TO.P,D8,1,K*%
%TO.N,/CANH_out*%
X87725000Y-55825000D03*
%TO.P,D8,2,K*%
%TO.N,/CANL_out*%
X87725000Y-57725000D03*
%TO.P,D8,3,A*%
%TO.N,GND*%
X85850000Y-56775000D03*
%TD*%
D23*
%TO.P,U4,1,SDA*%
%TO.N,/SDA*%
X89540000Y-84525000D03*
%TO.P,U4,2,SCL*%
%TO.N,/SCL*%
X88270000Y-84525000D03*
%TO.P,U4,3,ALERT*%
%TO.N,/TEMP1_ALERT*%
X87000000Y-84525000D03*
%TO.P,U4,4,GND*%
%TO.N,GND*%
X85730000Y-84525000D03*
%TO.P,U4,5,A2*%
X85730000Y-79375000D03*
%TO.P,U4,6,A1*%
X87000000Y-79375000D03*
%TO.P,U4,7,A0*%
%TO.N,+3V3_rail*%
X88270000Y-79375000D03*
%TO.P,U4,8,V+*%
X89540000Y-79375000D03*
%TD*%
D24*
%TO.P,JP3,1,A*%
%TO.N,/Serial_Wire_Output*%
X119450000Y-83575000D03*
D25*
%TO.P,JP3,2,B*%
%TO.N,Net-(JP3-B)*%
X118000000Y-83575000D03*
%TD*%
D26*
%TO.P,JP2,1,A*%
%TO.N,Net-(JP2-A)*%
X117550000Y-78000000D03*
D27*
%TO.P,JP2,2,B*%
%TO.N,+5V0DC*%
X119000000Y-78000000D03*
%TD*%
D28*
%TO.P,U7,1,TXD*%
%TO.N,Net-(U7-TXD)*%
X99475000Y-56095000D03*
%TO.P,U7,2,GND*%
%TO.N,GND*%
X99475000Y-57365000D03*
%TO.P,U7,3,VCC*%
%TO.N,+3V3_rail*%
X99475000Y-58635000D03*
%TO.P,U7,4,RXD*%
%TO.N,Net-(U7-RXD)*%
X99475000Y-59905000D03*
%TO.P,U7,5,FAULT*%
%TO.N,/CAN_FLT*%
X94525000Y-59905000D03*
%TO.P,U7,6,CANL*%
%TO.N,/CANL_out*%
X94525000Y-58635000D03*
%TO.P,U7,7,CANH*%
%TO.N,/CANH_out*%
X94525000Y-57365000D03*
%TO.P,U7,8,S*%
%TO.N,Net-(U7-S)*%
X94525000Y-56095000D03*
%TD*%
D24*
%TO.P,JP1,1,A*%
%TO.N,Net-(JP1-A)*%
X90725000Y-95000000D03*
D25*
%TO.P,JP1,2,B*%
%TO.N,+3V3DC*%
X89275000Y-95000000D03*
%TD*%
D24*
%TO.P,JP4,1,A*%
%TO.N,Net-(JP3-B)*%
X104000000Y-85000000D03*
D25*
%TO.P,JP4,2,B*%
%TO.N,/INA3221_CRIT*%
X102550000Y-85000000D03*
%TD*%
D29*
%TO.P,U11,1,~{FLT}*%
%TO.N,/5V0_~{FLT}*%
X73750000Y-103680000D03*
%TO.P,U11,2,~{EN}*%
%TO.N,/5V0_~{EN}*%
X73750000Y-102410000D03*
%TO.P,U11,3,VIN*%
%TO.N,+5V0DC*%
X73750000Y-101140000D03*
%TO.P,U11,4,GND*%
%TO.N,GND*%
X73750000Y-99870000D03*
%TO.P,U11,5,ISET*%
%TO.N,Net-(U11-ISET)*%
X79050000Y-99870000D03*
%TO.P,U11,6,CT*%
%TO.N,Net-(U11-CT)*%
X79050000Y-101140000D03*
%TO.P,U11,7,VOUT*%
%TO.N,/+5V0_railMonitor*%
X79050000Y-102410000D03*
%TO.P,U11,8,~{PG}*%
%TO.N,/5V0_~{PG}*%
X79050000Y-103680000D03*
D18*
%TO.P,U11,9,EP*%
%TO.N,GND*%
X75445000Y-100475000D03*
X75445000Y-101775000D03*
X75445000Y-103075000D03*
D19*
X76400000Y-101775000D03*
D18*
X77355000Y-100475000D03*
X77355000Y-101775000D03*
X77355000Y-103075000D03*
%TD*%
D30*
%TO.P,R15,1*%
%TO.N,/CANH_out*%
X77725000Y-51725000D03*
%TO.P,R15,2*%
%TO.N,Net-(C9-Pad1)*%
X77725000Y-53550000D03*
%TD*%
D31*
%TO.P,C10,1*%
%TO.N,GND*%
X82725000Y-53725000D03*
%TO.P,C10,2*%
%TO.N,/CANH_out*%
X82725000Y-52000000D03*
%TD*%
%TO.P,C11,1*%
%TO.N,/CANL_out*%
X82725000Y-62587500D03*
%TO.P,C11,2*%
%TO.N,GND*%
X82725000Y-60862500D03*
%TD*%
D30*
%TO.P,R16,1*%
%TO.N,Net-(C9-Pad1)*%
X77725000Y-60900000D03*
%TO.P,R16,2*%
%TO.N,/CANL_out*%
X77725000Y-62725000D03*
%TD*%
D32*
%TO.P,C9,1*%
%TO.N,Net-(C9-Pad1)*%
X77862500Y-56725000D03*
%TO.P,C9,2*%
%TO.N,GND*%
X79587500Y-56725000D03*
%TD*%
D33*
%TO.N,+3V3_rail*%
X75000000Y-80000000D03*
X85000000Y-76000000D03*
X97000000Y-43000000D03*
X114000000Y-71000000D03*
X122825000Y-56825000D03*
X88000000Y-78000000D03*
X123000000Y-48000000D03*
X72000000Y-73000000D03*
X115000000Y-73000000D03*
X118000000Y-69000000D03*
X97000000Y-60000000D03*
X108000000Y-73000000D03*
X125000000Y-56000000D03*
X75000000Y-72000000D03*
X71876000Y-39013500D03*
X106000000Y-62000000D03*
X115000000Y-59000000D03*
X78175000Y-79833636D03*
X98000000Y-66000000D03*
X123000000Y-59000000D03*
%TO.N,GND*%
X75000000Y-39000000D03*
X80000000Y-84000000D03*
X95000000Y-53000000D03*
X117000000Y-99000000D03*
X114000000Y-70000000D03*
X66000000Y-41000000D03*
X85000000Y-78000000D03*
X82725000Y-56725000D03*
X96000000Y-105000000D03*
X85725000Y-84000000D03*
X103000000Y-64000000D03*
X99000000Y-50000000D03*
X75000000Y-97000000D03*
X88000000Y-109000000D03*
X106000000Y-107000000D03*
X84000000Y-102000000D03*
X81000000Y-94000000D03*
X121000000Y-64000000D03*
X96000000Y-68000000D03*
X69000000Y-66000000D03*
X83000000Y-65000000D03*
X119000000Y-68000000D03*
X73000000Y-65000000D03*
X66000000Y-82000000D03*
X89000000Y-81912500D03*
X103635000Y-57365000D03*
X116000000Y-42000000D03*
%TO.N,/CAN_FLT*%
X97000000Y-80000000D03*
X94000000Y-62000000D03*
X96533593Y-77981909D03*
%TO.N,+1V8DC*%
X82000000Y-87000000D03*
%TO.N,Net-(U11-CT)*%
X81000000Y-102000000D03*
%TO.N,/+1V8_railMonitor*%
X81000000Y-78000000D03*
X82000000Y-73000000D03*
%TO.N,/MCU_RST*%
X91000000Y-87000000D03*
X92859381Y-91376299D03*
X91000000Y-92000000D03*
X90912500Y-90087500D03*
%TO.N,/+3V3_railMonitor*%
X100000000Y-83000000D03*
X101000000Y-87000000D03*
X94000000Y-75000000D03*
X106000000Y-88000000D03*
X83000000Y-67000000D03*
X96378877Y-76555071D03*
X103000000Y-54000000D03*
X96335469Y-71990037D03*
X90000000Y-64000000D03*
%TO.N,/+5V0_railMonitor*%
X66000000Y-70000000D03*
X78000000Y-98000000D03*
X64624000Y-73000000D03*
X80000000Y-106000000D03*
%TO.N,+3V3DC*%
X76000000Y-94000000D03*
X68000000Y-86000000D03*
X101000000Y-97000000D03*
X84000000Y-95000000D03*
X94000000Y-102000000D03*
X67000000Y-96000000D03*
X71000000Y-82000000D03*
X79000000Y-75000000D03*
%TO.N,+5V0DC*%
X91000000Y-108000000D03*
X91000000Y-106000000D03*
X71275000Y-105000000D03*
X121000000Y-81000000D03*
X116000000Y-92000000D03*
X71199000Y-101801000D03*
X119000000Y-76000000D03*
X86000000Y-102000000D03*
X90000000Y-103000000D03*
X72000000Y-101000000D03*
%TO.N,Net-(JP1-A)*%
X97000000Y-85000000D03*
X96986691Y-92589626D03*
X92000000Y-98000000D03*
X105000000Y-86000000D03*
%TO.N,/+1V8_rail*%
X87000000Y-66000000D03*
X105904699Y-97859775D03*
X92070492Y-71246320D03*
X105912086Y-85087914D03*
%TO.N,/+5V0_rail*%
X83000000Y-91000000D03*
X63701000Y-80701000D03*
X92152346Y-96016245D03*
X108000000Y-100000000D03*
X102000000Y-95000000D03*
X106000000Y-94000000D03*
%TO.N,Net-(JP3-B)*%
X108000000Y-87000000D03*
%TO.N,/INA3221_CRIT*%
X101000000Y-82000000D03*
X71000000Y-47000000D03*
%TO.N,Net-(U1-PA5)*%
X101000000Y-89000000D03*
%TO.N,Net-(U1-PA7)*%
X101000000Y-93000000D03*
%TO.N,/TEMP1_ALERT*%
X87000000Y-96000000D03*
X85000000Y-87000000D03*
X92000000Y-106000000D03*
X82000000Y-85000000D03*
X112000000Y-102000000D03*
%TO.N,/TEMP2_ALERT*%
X64000000Y-41000000D03*
X116000000Y-59000000D03*
X100000000Y-75000000D03*
X90000000Y-39000000D03*
%TO.N,/SCL*%
X103000000Y-74000000D03*
X67000000Y-72000000D03*
X116000000Y-63000000D03*
X73108162Y-80992380D03*
X73000000Y-77000000D03*
X65000000Y-40000000D03*
X105000000Y-79000000D03*
X98000000Y-68000000D03*
X76068326Y-63833613D03*
%TO.N,/WP*%
X93000000Y-71000000D03*
%TO.N,/SDA*%
X65000000Y-39000000D03*
X109000000Y-105000000D03*
X97172917Y-97620038D03*
X102143214Y-97961618D03*
X112000000Y-107000000D03*
X106000000Y-97000000D03*
X112000000Y-81000000D03*
X88000000Y-87000000D03*
X66000000Y-85000000D03*
X85949000Y-89051000D03*
X96000000Y-89000000D03*
X94000000Y-95000000D03*
X116190000Y-61190000D03*
%TO.N,Net-(U7-TXD)*%
X102000000Y-55000000D03*
X101000000Y-52000000D03*
%TO.N,Net-(U7-RXD)*%
X104862430Y-53999962D03*
%TO.N,Net-(U7-S)*%
X94000000Y-55000000D03*
%TO.N,/OSC_EN*%
X91000000Y-81000000D03*
X86000000Y-72000000D03*
%TO.N,/MCU_GPIO_~{CS}*%
X96014532Y-83183205D03*
X105000000Y-60000000D03*
X107000000Y-54000000D03*
X105000000Y-64000000D03*
X99399000Y-74000000D03*
%TO.N,/MCU_MISO*%
X120000000Y-52000000D03*
X88000000Y-73000000D03*
X90000000Y-67000000D03*
X93000000Y-60000000D03*
X93389213Y-89626606D03*
%TO.N,/CAN_ALRT2*%
X112112426Y-57059423D03*
X102000000Y-56000000D03*
X109000000Y-57000000D03*
X111000000Y-51000000D03*
%TO.N,/CAN_ALRT1*%
X122000000Y-54540000D03*
%TO.N,/CAN_ALRT0*%
X108150536Y-80082794D03*
X112000000Y-72000000D03*
X120000000Y-56000000D03*
X117252134Y-66532948D03*
X116000000Y-66000000D03*
X112000000Y-69000000D03*
%TO.N,Net-(U11-ISET)*%
X79000000Y-99000000D03*
%TO.N,/1V8_~{FLT}*%
X94000000Y-82998000D03*
X92761399Y-85838070D03*
%TO.N,/3V3_~{FLT}*%
X99395000Y-85793960D03*
X96000000Y-82000000D03*
%TO.N,/5V0_~{FLT}*%
X69000000Y-105000000D03*
%TO.N,/5V0_~{PG}*%
X82087500Y-107087500D03*
X106000000Y-87000000D03*
X80000000Y-105000000D03*
%TO.N,Net-(R31-Pad1)*%
X88000000Y-91000000D03*
%TO.N,/Onboard_LED*%
X90000000Y-74000000D03*
X91984843Y-75439703D03*
%TO.N,/INA3221_WARN*%
X70000000Y-47000000D03*
X86000000Y-108000000D03*
X63000000Y-66000000D03*
%TO.N,/3V3_~{EN}*%
X98000000Y-89000000D03*
X107000000Y-93000000D03*
X108000000Y-89000000D03*
X97000000Y-100000000D03*
X105000000Y-91000000D03*
X98428060Y-97689769D03*
%TO.N,/INA3221_VALID*%
X114000000Y-74000000D03*
X72000000Y-47000000D03*
%TO.N,/1V8_ON*%
X107686595Y-91722808D03*
X106000000Y-90000000D03*
X82000000Y-83000000D03*
X101000000Y-88000000D03*
X95931816Y-77362318D03*
X93000000Y-78000000D03*
X100000000Y-85000000D03*
%TD*%
D34*
%TO.N,/1V8_~{FLT}*%
X93002000Y-82998000D02*
X92761399Y-83238601D01*
X94000000Y-82998000D02*
X94396960Y-82998000D01*
X94396960Y-82998000D02*
X93002000Y-82998000D01*
X92761399Y-83238601D02*
X92761399Y-85838070D01*
%TO.N,/Onboard_LED*%
X90000000Y-74000000D02*
X91838663Y-75439703D01*
X91838663Y-75439703D02*
X91984843Y-75439703D01*
D35*
%TO.N,+3V3_rail*%
X110000000Y-71000000D02*
X114000000Y-71000000D01*
X88000000Y-78000000D02*
X88000000Y-79105000D01*
X91000000Y-73000000D02*
X91000000Y-71063420D01*
X93000000Y-38125000D02*
X93000000Y-43000000D01*
X92000000Y-50008636D02*
X92000000Y-51648388D01*
X115000000Y-73000000D02*
X118000000Y-70000000D01*
X90652000Y-78000000D02*
X93000000Y-75652000D01*
X98986612Y-58635000D02*
X92000000Y-51648388D01*
X98365000Y-58635000D02*
X97000000Y-60000000D01*
X88000000Y-78000000D02*
X90652000Y-78000000D01*
X122825000Y-56825000D02*
X122825000Y-58825000D01*
X106000000Y-62000000D02*
X112000000Y-62000000D01*
X118000000Y-70000000D02*
X118000000Y-69000000D01*
X122825000Y-58825000D02*
X123000000Y-59000000D01*
X88000000Y-79105000D02*
X88270000Y-79375000D01*
X108000000Y-73000000D02*
X110000000Y-71000000D01*
X93000000Y-75000000D02*
X91000000Y-73000000D01*
X91000000Y-71063420D02*
X96063420Y-66000000D01*
X99475000Y-58635000D02*
X98986612Y-58635000D01*
X77000000Y-44137500D02*
X77000000Y-45000000D01*
X93000000Y-49008636D02*
X92000000Y-50008636D01*
X93000000Y-43000000D02*
X97000000Y-43000000D01*
X88270000Y-79375000D02*
X89540000Y-79375000D01*
X71876000Y-39013500D02*
X77000000Y-44137500D01*
X93000000Y-43000000D02*
X93000000Y-49008636D01*
X96063420Y-66000000D02*
X98000000Y-66000000D01*
X112000000Y-62000000D02*
X115000000Y-59000000D01*
X93000000Y-75652000D02*
X93000000Y-75000000D01*
X90800000Y-35925000D02*
X93000000Y-38125000D01*
X99475000Y-58635000D02*
X98365000Y-58635000D01*
D36*
%TO.N,GND*%
X79587500Y-56725000D02*
X82725000Y-56725000D01*
D35*
X73750000Y-99870000D02*
X75000000Y-98620000D01*
D36*
X82725000Y-60862500D02*
X82725000Y-56725000D01*
D35*
X75000000Y-98620000D02*
X75000000Y-97000000D01*
X99475000Y-57365000D02*
X103635000Y-57365000D01*
D36*
X82775000Y-56775000D02*
X82725000Y-56725000D01*
D35*
X85730000Y-79375000D02*
X85730000Y-78730000D01*
X85730000Y-78730000D02*
X85000000Y-78000000D01*
X87000000Y-79375000D02*
X85730000Y-79375000D01*
D36*
X82725000Y-53725000D02*
X82725000Y-56725000D01*
X85850000Y-56775000D02*
X82775000Y-56775000D01*
D34*
%TO.N,/CAN_FLT*%
X96533593Y-77981909D02*
X96533593Y-79533593D01*
X94525000Y-61475000D02*
X94000000Y-62000000D01*
X94525000Y-59905000D02*
X94525000Y-61475000D01*
X96533593Y-79533593D02*
X97000000Y-80000000D01*
%TO.N,Net-(C9-Pad1)*%
X77725000Y-53550000D02*
X77725000Y-56587500D01*
X77862500Y-56725000D02*
X77862500Y-60762500D01*
D37*
%TO.N,/CANH_out*%
X90000000Y-52000000D02*
X82725000Y-52000000D01*
X87725000Y-55825000D02*
X89945802Y-55825000D01*
X91000000Y-52000000D02*
X90000000Y-52000000D01*
X93000000Y-56814999D02*
X93000000Y-54000000D01*
X93000000Y-54000000D02*
X91000000Y-52000000D01*
X75725000Y-51725000D02*
X72789599Y-54660401D01*
X72789599Y-54660401D02*
X65027001Y-54660401D01*
X89945802Y-52054198D02*
X90000000Y-52000000D01*
X89945802Y-55825000D02*
X89945802Y-52054198D01*
X77725000Y-51725000D02*
X75725000Y-51725000D01*
X82725000Y-52000000D02*
X78000000Y-52000000D01*
X93550001Y-57365000D02*
X93000000Y-56814999D01*
X94525000Y-57365000D02*
X93550001Y-57365000D01*
%TO.N,/CANL_out*%
X82725000Y-62587500D02*
X77862500Y-62587500D01*
X87725000Y-57725000D02*
X88725000Y-57725000D01*
X93365000Y-58635000D02*
X92000000Y-60000000D01*
X88725000Y-62312500D02*
X89000000Y-62587500D01*
X77725000Y-62725000D02*
X67091602Y-62725000D01*
X77862500Y-62587500D02*
X77725000Y-62725000D01*
X89000000Y-62587500D02*
X82725000Y-62587500D01*
X90412500Y-62587500D02*
X89000000Y-62587500D01*
X92000000Y-61000000D02*
X90412500Y-62587500D01*
X92000000Y-60000000D02*
X92000000Y-61000000D01*
X88725000Y-57725000D02*
X88725000Y-62312500D01*
X94525000Y-58635000D02*
X93365000Y-58635000D01*
X67091602Y-62725000D02*
X65027001Y-60660399D01*
D34*
%TO.N,Net-(U11-CT)*%
X80140000Y-101140000D02*
X81000000Y-102000000D01*
X79050000Y-101140000D02*
X80140000Y-101140000D01*
D35*
%TO.N,/+1V8_railMonitor*%
X82000000Y-77000000D02*
X81000000Y-78000000D01*
X82000000Y-73000000D02*
X82000000Y-77000000D01*
D34*
%TO.N,/MCU_RST*%
X91000000Y-87000000D02*
X91000000Y-90000000D01*
X91000000Y-92000000D02*
X92155906Y-92000000D01*
X92155906Y-92000000D02*
X92919212Y-91236694D01*
D35*
%TO.N,/+3V3_railMonitor*%
X96335469Y-71664531D02*
X96335469Y-71990037D01*
X83000000Y-67000000D02*
X88008636Y-67000000D01*
X90000000Y-65008636D02*
X90000000Y-64000000D01*
X107000000Y-50000000D02*
X118991364Y-50000000D01*
X103000000Y-54000000D02*
X107000000Y-50000000D01*
X120701000Y-52290364D02*
X112991364Y-60000000D01*
X100000000Y-80348000D02*
X100000000Y-83000000D01*
X106000000Y-88000000D02*
X105000000Y-87000000D01*
X105000000Y-87000000D02*
X101000000Y-87000000D01*
X105299000Y-61701000D02*
X105299000Y-62701000D01*
X112991364Y-60000000D02*
X107000000Y-60000000D01*
X118991364Y-50000000D02*
X120701000Y-51709636D01*
X88008636Y-67000000D02*
X90000000Y-65008636D01*
X94652000Y-75000000D02*
X94000000Y-75000000D01*
X105299000Y-62701000D02*
X96335469Y-71664531D01*
X107000000Y-60000000D02*
X105299000Y-61701000D01*
X120701000Y-51709636D02*
X120701000Y-52290364D01*
X100000000Y-80348000D02*
X94652000Y-75000000D01*
%TO.N,/+5V0_railMonitor*%
X81281365Y-102709999D02*
X81701000Y-102290364D01*
X81701000Y-99701000D02*
X80000000Y-98000000D01*
X81701000Y-102290364D02*
X81701000Y-99701000D01*
X81000000Y-105000000D02*
X80000000Y-106000000D01*
X79050000Y-102410000D02*
X79849999Y-102410000D01*
X79349999Y-102709999D02*
X81281365Y-102709999D01*
X66000000Y-71624000D02*
X64624000Y-73000000D01*
X79050000Y-102410000D02*
X79349999Y-102709999D01*
X80000000Y-98000000D02*
X78000000Y-98000000D01*
X79849999Y-102410000D02*
X81000000Y-103560001D01*
X81000000Y-103560001D02*
X81000000Y-105000000D01*
X66000000Y-70000000D02*
X66000000Y-71624000D01*
%TO.N,+3V3DC*%
X71000000Y-82000000D02*
X74299000Y-78701000D01*
X74299000Y-78701000D02*
X75299000Y-78701000D01*
X94000000Y-102000000D02*
X96000000Y-102000000D01*
X89275000Y-97275000D02*
X94000000Y-102000000D01*
X68000000Y-86000000D02*
X76000000Y-94000000D01*
X96000000Y-102000000D02*
X101000000Y-97000000D01*
X89275000Y-95000000D02*
X89275000Y-97275000D01*
X89275000Y-95000000D02*
X84000000Y-95000000D01*
X75299000Y-78701000D02*
X79000000Y-75000000D01*
%TO.N,+5V0DC*%
X74709636Y-96299000D02*
X72000000Y-99008636D01*
X90000000Y-105000000D02*
X91000000Y-106000000D01*
X80299000Y-96299000D02*
X74709636Y-96299000D01*
X119000000Y-78000000D02*
X119000000Y-76000000D01*
X119000000Y-78000000D02*
X119000000Y-79000000D01*
X86000000Y-102000000D02*
X80299000Y-96299000D01*
X116000000Y-100652000D02*
X108652000Y-108000000D01*
X72140000Y-101140000D02*
X73750000Y-101140000D01*
X72000000Y-99008636D02*
X72000000Y-101000000D01*
X116000000Y-92000000D02*
X116000000Y-100652000D01*
X71199000Y-101801000D02*
X72000000Y-101000000D01*
X119000000Y-79000000D02*
X121000000Y-81000000D01*
X72000000Y-101000000D02*
X72140000Y-101140000D01*
X108652000Y-108000000D02*
X91000000Y-108000000D01*
X90000000Y-103000000D02*
X90000000Y-105000000D01*
D34*
%TO.N,Net-(JP1-A)*%
X99146057Y-86394960D02*
X104605040Y-86394960D01*
X91725000Y-94000000D02*
X95000000Y-94000000D01*
X104605040Y-86394960D02*
X105000000Y-86000000D01*
X90725000Y-95000000D02*
X91725000Y-94000000D01*
X95601040Y-94000000D02*
X95000000Y-94000000D01*
X90725000Y-95000000D02*
X90725000Y-96725000D01*
X97000000Y-92601040D02*
X95601040Y-94000000D01*
X97751097Y-85000000D02*
X99146057Y-86394960D01*
X96986691Y-92589626D02*
X97000000Y-92601040D01*
X90725000Y-96725000D02*
X92000000Y-98000000D01*
X97000000Y-85000000D02*
X97751097Y-85000000D01*
D35*
%TO.N,/+1V8_rail*%
X107402460Y-99357536D02*
X107299000Y-99460997D01*
X92070492Y-71246320D02*
X105912086Y-85087914D01*
X107299000Y-99460997D02*
X107299000Y-100299000D01*
X107299000Y-100299000D02*
X111000000Y-104000000D01*
X105904699Y-97859775D02*
X107402460Y-99357536D01*
%TO.N,/+5V0_rail*%
X106000000Y-94000000D02*
X108813000Y-96813000D01*
X100174000Y-96826000D02*
X102000000Y-95000000D01*
X74000000Y-91000000D02*
X83000000Y-91000000D01*
X108813000Y-99187000D02*
X108000000Y-100000000D01*
X93826000Y-96826000D02*
X100174000Y-96826000D01*
X63701000Y-80701000D02*
X74000000Y-91000000D01*
X108813000Y-96813000D02*
X108813000Y-99187000D01*
X92152346Y-96016245D02*
X93826000Y-96826000D01*
D34*
%TO.N,Net-(JP2-A)*%
X116550000Y-79000000D02*
X110240000Y-79000000D01*
X117550000Y-78000000D02*
X116550000Y-79000000D01*
%TO.N,Net-(JP3-B)*%
X104974229Y-85000000D02*
X106974229Y-87000000D01*
X106974229Y-87000000D02*
X108000000Y-87000000D01*
X115575000Y-86000000D02*
X110240000Y-86000000D01*
X104000000Y-85000000D02*
X104974229Y-85000000D01*
X118000000Y-83575000D02*
X115575000Y-86000000D01*
%TO.N,/Serial_Wire_Output*%
X123575000Y-83575000D02*
X124000000Y-84000000D01*
X119450000Y-83575000D02*
X123575000Y-83575000D01*
%TO.N,/INA3221_CRIT*%
X92202183Y-88903387D02*
X92160399Y-86087013D01*
X93792237Y-83999927D02*
X93797960Y-85651452D01*
X80399000Y-78399000D02*
X84513500Y-82513500D01*
X93797960Y-80345004D02*
X93797960Y-77948017D01*
X92751057Y-77399000D02*
X93248943Y-77399000D01*
X76699000Y-71849057D02*
X80399000Y-75549057D01*
X92399000Y-77751057D02*
X92751057Y-77399000D01*
X63938601Y-54061399D02*
X63938601Y-61111230D01*
X76699000Y-66680057D02*
X76699000Y-71849057D01*
X92160399Y-86087013D02*
X92160399Y-83272501D01*
X93248943Y-77399000D02*
X93797960Y-77948017D01*
X93797960Y-85651452D02*
X92659204Y-88884345D01*
X95000000Y-84000000D02*
X94398960Y-84000000D01*
X92659204Y-88884345D02*
X92202183Y-88903387D01*
X92399000Y-80783932D02*
X92399000Y-77751057D01*
X66340871Y-63513500D02*
X73532443Y-63513500D01*
X102550000Y-85000000D02*
X101000000Y-83450000D01*
X94398960Y-84000000D02*
X93792237Y-83999927D01*
X71000000Y-47000000D02*
X63938601Y-54061399D01*
X93410227Y-81410227D02*
X93410227Y-80732737D01*
X80399000Y-75549057D02*
X80399000Y-78399000D01*
X92160399Y-83272501D02*
X93716450Y-81716450D01*
X90669432Y-82513500D02*
X92399000Y-80783932D01*
X63938601Y-61111230D02*
X66340871Y-63513500D01*
X73532443Y-63513500D02*
X76699000Y-66680057D01*
X93410227Y-80732737D02*
X93797960Y-80345004D01*
X93716450Y-81716450D02*
X93410227Y-81410227D01*
X84513500Y-82513500D02*
X90669432Y-82513500D01*
X101000000Y-83450000D02*
X101000000Y-82000000D01*
%TO.N,Net-(U1-PA5)*%
X98000000Y-86000000D02*
X95000000Y-86000000D01*
X101000000Y-89000000D02*
X98000000Y-86000000D01*
%TO.N,Net-(U1-PA7)*%
X96000000Y-88000000D02*
X95000000Y-88000000D01*
X101000000Y-93000000D02*
X96000000Y-88000000D01*
%TO.N,/TEMP1_ALERT*%
X87000000Y-84771968D02*
X86070968Y-85701000D01*
X112000000Y-96000000D02*
X112000000Y-102000000D01*
X86070968Y-85701000D02*
X82701000Y-85701000D01*
X86070968Y-85701000D02*
X85000000Y-86771968D01*
X92000000Y-106000000D02*
X92000000Y-101000000D01*
X92000000Y-101000000D02*
X87000000Y-96000000D01*
X111000000Y-95000000D02*
X112000000Y-96000000D01*
X85000000Y-86771968D02*
X85000000Y-87000000D01*
X87000000Y-84525000D02*
X87000000Y-84771968D01*
X110240000Y-95000000D02*
X111000000Y-95000000D01*
X82701000Y-85701000D02*
X82000000Y-85000000D01*
%TO.N,/TEMP2_ALERT*%
X64000000Y-41000000D02*
X63998000Y-40998000D01*
X65150057Y-38000000D02*
X85000000Y-38000000D01*
X85000000Y-38000000D02*
X86000000Y-39000000D01*
X86000000Y-39000000D02*
X90000000Y-39000000D01*
X63998000Y-39152057D02*
X65150057Y-38000000D01*
X116000000Y-59000000D02*
X100000000Y-75000000D01*
X63998000Y-40998000D02*
X63998000Y-39152057D01*
%TO.N,/SCL*%
X98601000Y-67399000D02*
X98601000Y-65601000D01*
X82618134Y-64000000D02*
X76000000Y-64000000D01*
X105000000Y-74000000D02*
X116000000Y-63000000D01*
X98000000Y-65000000D02*
X94000000Y-65000000D01*
X98601000Y-65601000D02*
X98000000Y-65000000D01*
X80000000Y-88000000D02*
X73000000Y-81000000D01*
X105000000Y-79000000D02*
X107000000Y-81000000D01*
X94020361Y-64893337D02*
X92526024Y-63399000D01*
X67000000Y-72000000D02*
X72000000Y-77000000D01*
X88270000Y-85399999D02*
X85669999Y-88000000D01*
X65000000Y-40000000D02*
X70601040Y-40000000D01*
X85669999Y-88000000D02*
X80000000Y-88000000D01*
X105000000Y-74000000D02*
X103000000Y-74000000D01*
X98000000Y-68000000D02*
X98601000Y-67399000D01*
X107000000Y-81000000D02*
X110240000Y-81000000D01*
X105000000Y-79000000D02*
X105000000Y-74000000D01*
X92526024Y-63399000D02*
X83219134Y-63399000D01*
X83219134Y-63399000D02*
X82618134Y-64000000D01*
X72000000Y-77000000D02*
X73000000Y-77000000D01*
X75000000Y-44398960D02*
X75000000Y-45000000D01*
X88270000Y-84525000D02*
X88270000Y-85399999D01*
X70601040Y-40000000D02*
X75000000Y-44398960D01*
%TO.N,/WP*%
X93638960Y-71000000D02*
X93000000Y-71000000D01*
X109638960Y-87000000D02*
X110240000Y-87000000D01*
X93638960Y-71000000D02*
X109638960Y-87000000D01*
%TO.N,/SDA*%
X67986640Y-44013360D02*
X65986640Y-44013360D01*
X124452000Y-83000000D02*
X124726000Y-83274000D01*
X74000000Y-44398960D02*
X74000000Y-45000000D01*
X91551346Y-96265188D02*
X91551346Y-95448654D01*
X65986640Y-44013360D02*
X61874000Y-48126000D01*
X64399000Y-39601000D02*
X64399000Y-40425720D01*
X116190000Y-61190000D02*
X116601000Y-61601000D01*
X92000000Y-95000000D02*
X94000000Y-95000000D01*
X111000000Y-80000000D02*
X110240000Y-80000000D01*
X109638960Y-80000000D02*
X110240000Y-80000000D01*
X65000000Y-39000000D02*
X64399000Y-39601000D01*
X68247280Y-44274000D02*
X73875040Y-44274000D01*
X124726000Y-94274000D02*
X112000000Y-107000000D01*
X102601000Y-94751057D02*
X102248943Y-94399000D01*
X116601000Y-61601000D02*
X116601000Y-69612280D01*
X102143214Y-97961618D02*
X101882909Y-97701313D01*
X112000000Y-81000000D02*
X111000000Y-80000000D01*
X89540000Y-85460000D02*
X88000000Y-87000000D01*
X61874000Y-48126000D02*
X61874000Y-80000000D01*
X91551346Y-95448654D02*
X92000000Y-95000000D01*
X101882909Y-97701313D02*
X101882909Y-95967034D01*
X88000000Y-87000000D02*
X85949000Y-89051000D01*
X64399000Y-40425720D02*
X67986640Y-44013360D01*
X109514000Y-79875040D02*
X109638960Y-80000000D01*
X92906196Y-97620038D02*
X91551346Y-96265188D01*
X89540000Y-84525000D02*
X89540000Y-85460000D01*
X67986640Y-44013360D02*
X68247280Y-44274000D01*
X97172917Y-97620038D02*
X92906196Y-97620038D01*
X73875040Y-44274000D02*
X74000000Y-44398960D01*
X109514000Y-76699280D02*
X109514000Y-79875040D01*
X116601000Y-69612280D02*
X109514000Y-76699280D01*
X109000000Y-105000000D02*
X104000000Y-100000000D01*
X61874000Y-80000000D02*
X66000000Y-85000000D01*
X96000000Y-89000000D02*
X101399000Y-94399000D01*
X106000000Y-97000000D02*
X105914531Y-97000000D01*
X122120613Y-83000000D02*
X124452000Y-83000000D01*
X120120613Y-81000000D02*
X122120613Y-83000000D01*
X124726000Y-83274000D02*
X124726000Y-94274000D01*
X101882909Y-95967034D02*
X102601000Y-95248943D01*
X102601000Y-95248943D02*
X102601000Y-94751057D01*
X102248943Y-94399000D02*
X101399000Y-94399000D01*
X104000000Y-98914531D02*
X104000000Y-100000000D01*
X112000000Y-81000000D02*
X120120613Y-81000000D01*
X105914531Y-97000000D02*
X104000000Y-98914531D01*
%TO.N,Net-(U7-TXD)*%
X101000000Y-54570000D02*
X101000000Y-52000000D01*
X101000000Y-54570000D02*
X101570000Y-54570000D01*
X101570000Y-54570000D02*
X102000000Y-55000000D01*
X99475000Y-56095000D02*
X101000000Y-54570000D01*
%TO.N,Net-(U7-RXD)*%
X104862430Y-53999962D02*
X105000000Y-56849943D01*
X101944943Y-59905000D02*
X99475000Y-59905000D01*
X105000000Y-56849943D02*
X101944943Y-59905000D01*
%TO.N,Net-(U7-S)*%
X94525000Y-56095000D02*
X94000000Y-55570000D01*
X94000000Y-55570000D02*
X94000000Y-55000000D01*
%TO.N,/OSC_EN*%
X86000000Y-72000000D02*
X84399000Y-73601000D01*
X84399000Y-73601000D02*
X84399000Y-79560968D01*
X85838032Y-81000000D02*
X91000000Y-81000000D01*
X84399000Y-79560968D02*
X85838032Y-81000000D01*
%TO.N,/MCU_GPIO_~{CS}*%
X95601040Y-85000000D02*
X95000000Y-85000000D01*
X96014532Y-84586508D02*
X95601040Y-85000000D01*
X99399000Y-69601000D02*
X99399000Y-74000000D01*
X105000000Y-64000000D02*
X99399000Y-69601000D01*
X107000000Y-54000000D02*
X107000000Y-58000000D01*
X96014532Y-83183205D02*
X96014532Y-84586508D01*
X105000000Y-60000000D02*
X107000000Y-58000000D01*
%TO.N,/MCU_MISO*%
X93751057Y-62601000D02*
X93000000Y-61849943D01*
X106399000Y-53751057D02*
X106399000Y-56018043D01*
X99816043Y-62601000D02*
X93751057Y-62601000D01*
X94247860Y-88752140D02*
X93389213Y-89610787D01*
X99816043Y-62601000D02*
X106399000Y-56018043D01*
X93389213Y-89610787D02*
X93389213Y-89626606D01*
X108150057Y-52000000D02*
X106399000Y-53751057D01*
X93000000Y-61849943D02*
X93000000Y-60000000D01*
X120000000Y-52000000D02*
X108150057Y-52000000D01*
X95000000Y-87000000D02*
X94247860Y-87036818D01*
X88000000Y-73000000D02*
X88000000Y-68828001D01*
X88000000Y-68828001D02*
X89828001Y-67000000D01*
X89828001Y-67000000D02*
X90000000Y-67000000D01*
X94247860Y-87036818D02*
X94247860Y-88752140D01*
%TO.N,/CAN_ALRT2*%
X105998000Y-53584957D02*
X105415043Y-53584957D01*
X104613487Y-53398962D02*
X105229048Y-53398962D01*
X104120743Y-54945614D02*
X104120743Y-53891706D01*
X105229048Y-53398962D02*
X105415043Y-53584957D01*
X111000000Y-51000000D02*
X108582957Y-51000000D01*
X104120743Y-53891706D02*
X104613487Y-53398962D01*
X108582957Y-51000000D02*
X105998000Y-53584957D01*
X112112426Y-57059423D02*
X112053003Y-57000000D01*
X103054386Y-54945614D02*
X102000000Y-56000000D01*
X104120743Y-54945614D02*
X103054386Y-54945614D01*
X112053003Y-57000000D02*
X109000000Y-57000000D01*
%TO.N,/CAN_ALRT1*%
X116438943Y-60589000D02*
X115561057Y-60589000D01*
X122000000Y-55027943D02*
X116438943Y-60589000D01*
X102399000Y-77584280D02*
X107814720Y-83000000D01*
X102399000Y-73751057D02*
X102399000Y-77584280D01*
X107814720Y-83000000D02*
X110240000Y-83000000D01*
X122000000Y-54540000D02*
X122000000Y-55027943D01*
X115561057Y-60589000D02*
X102399000Y-73751057D01*
%TO.N,/CAN_ALRT0*%
X121751057Y-53939000D02*
X120000000Y-55690057D01*
X117252134Y-60342909D02*
X122601000Y-54994043D01*
X122601000Y-54291057D02*
X122248943Y-53939000D01*
X108150536Y-80082794D02*
X108150536Y-76849464D01*
X122248943Y-53939000D02*
X121751057Y-53939000D01*
X112000000Y-73000000D02*
X112000000Y-72000000D01*
X117252134Y-66532948D02*
X117252134Y-60342909D01*
X112000000Y-69000000D02*
X115000000Y-66000000D01*
X115000000Y-66000000D02*
X116000000Y-66000000D01*
X122601000Y-54994043D02*
X122601000Y-54291057D01*
X108150536Y-76849464D02*
X112000000Y-73000000D01*
X120000000Y-55690057D02*
X120000000Y-56000000D01*
%TO.N,Net-(U11-ISET)*%
X79050000Y-99050000D02*
X79000000Y-99000000D01*
X79050000Y-99870000D02*
X79050000Y-99050000D01*
%TO.N,/3V3_~{FLT}*%
X97000000Y-83398960D02*
X99395000Y-85793960D01*
X96000000Y-82000000D02*
X97000000Y-83398960D01*
%TO.N,/5V0_~{FLT}*%
X74502115Y-95798000D02*
X80506521Y-95798000D01*
X70320000Y-103680000D02*
X69000000Y-105000000D01*
X72228057Y-103680000D02*
X70598000Y-102049943D01*
X71499000Y-98801115D02*
X74502115Y-95798000D01*
X95000000Y-89000000D02*
X94973280Y-89000000D01*
X70598000Y-102049943D02*
X70598000Y-101552057D01*
X73750000Y-103680000D02*
X72228057Y-103680000D01*
X71499000Y-100651057D02*
X71499000Y-98801115D01*
X80506521Y-95798000D02*
X83106520Y-93198000D01*
X94000000Y-91406180D02*
X92208180Y-93198000D01*
X94000000Y-89973280D02*
X94000000Y-91406180D01*
X73750000Y-103680000D02*
X70320000Y-103680000D01*
X92208180Y-93198000D02*
X83106520Y-93198000D01*
X70598000Y-101552057D02*
X71499000Y-100651057D01*
X94973280Y-89000000D02*
X94000000Y-89973280D01*
%TO.N,/5V0_~{PG}*%
X102483909Y-96732648D02*
X106000000Y-93000000D01*
X106000000Y-93000000D02*
X106601000Y-92399000D01*
X100182521Y-98817479D02*
X102817479Y-98817479D01*
X91912500Y-107087500D02*
X100182521Y-98817479D01*
X102817479Y-98817479D02*
X103000000Y-98634958D01*
X79050000Y-104050000D02*
X80000000Y-105000000D01*
X106601000Y-92399000D02*
X106601000Y-87601000D01*
X91912500Y-107087500D02*
X82087500Y-107087500D01*
X106601000Y-87601000D02*
X106000000Y-87000000D01*
X103000000Y-98401000D02*
X103599000Y-98401000D01*
X103599000Y-97847739D02*
X102483909Y-96732648D01*
X103000000Y-98634958D02*
X103000000Y-98401000D01*
X103599000Y-98401000D02*
X103599000Y-97847739D01*
X79050000Y-103680000D02*
X79050000Y-104050000D01*
%TO.N,Net-(R31-Pad1)*%
X88000000Y-91000000D02*
X88000000Y-89000000D01*
%TO.N,/INA3221_WARN*%
X70000000Y-47000000D02*
X62275000Y-54725000D01*
X62275000Y-54725000D02*
X62275000Y-65275000D01*
X117601000Y-91601000D02*
X116000000Y-90000000D01*
X90751057Y-108601000D02*
X108759520Y-108601000D01*
X62275000Y-65275000D02*
X63000000Y-66000000D01*
X117601000Y-99759520D02*
X117601000Y-91601000D01*
X86000000Y-108000000D02*
X90150057Y-108000000D01*
X108759520Y-108601000D02*
X117601000Y-99759520D01*
X90150057Y-108000000D02*
X90751057Y-108601000D01*
X116000000Y-90000000D02*
X110240000Y-90000000D01*
%TO.N,/3V3_~{EN}*%
X107002000Y-92998000D02*
X107002000Y-88000000D01*
X107000000Y-93000000D02*
X107002000Y-92998000D01*
X98000000Y-89000000D02*
X100000000Y-91000000D01*
X107002000Y-88002000D02*
X108000000Y-89000000D01*
X107002000Y-88000000D02*
X107002000Y-88002000D01*
X100000000Y-91000000D02*
X105000000Y-91000000D01*
X98000000Y-99000000D02*
X97000000Y-100000000D01*
X98428060Y-97689769D02*
X98000000Y-99000000D01*
%TO.N,/INA3221_VALID*%
X91495999Y-39167998D02*
X88999000Y-36670999D01*
X91495999Y-39699000D02*
X91495999Y-39167998D01*
X90004001Y-39699000D02*
X91495999Y-39699000D01*
X72000000Y-47000000D02*
X82703001Y-47000000D01*
X112124000Y-34124000D02*
X127000000Y-49000000D01*
X88999000Y-36670999D02*
X88999000Y-35179001D01*
X127000000Y-64000000D02*
X117000000Y-74000000D01*
X82703001Y-47000000D02*
X90004001Y-39699000D01*
X88999000Y-35179001D02*
X90054001Y-34124000D01*
X127000000Y-49000000D02*
X127000000Y-64000000D01*
X117000000Y-74000000D02*
X114000000Y-74000000D01*
X90054001Y-34124000D02*
X112124000Y-34124000D01*
%TO.N,/5V0_~{EN}*%
X95000000Y-91000000D02*
X94973280Y-91000000D01*
X83399000Y-95248943D02*
X83399000Y-94751057D01*
X86929288Y-101920655D02*
X86929288Y-98779231D01*
X86929288Y-98779231D02*
X83399000Y-95248943D01*
X84551057Y-93599000D02*
X92374280Y-93599000D01*
X84248943Y-102601000D02*
X86248943Y-102601000D01*
X83399000Y-94751057D02*
X84551057Y-93599000D01*
X74570000Y-102410000D02*
X74894000Y-102734000D01*
X80248943Y-106601000D02*
X84248943Y-102601000D01*
X86248943Y-102601000D02*
X86929288Y-101920655D01*
X73750000Y-102410000D02*
X74570000Y-102410000D01*
X77869000Y-106601000D02*
X80248943Y-106601000D01*
X74894000Y-103626000D02*
X77869000Y-106601000D01*
X94973280Y-91000000D02*
X92374280Y-93599000D01*
X74894000Y-102734000D02*
X74894000Y-103626000D01*
%TO.N,/1V8_ON*%
X90141000Y-83609032D02*
X93000000Y-80750032D01*
X101000000Y-88000000D02*
X104000000Y-88000000D01*
X93000000Y-80750032D02*
X93000000Y-78000000D01*
X109963787Y-94000000D02*
X110240000Y-94000000D01*
X104000000Y-88000000D02*
X106000000Y-90000000D01*
X89531968Y-83000000D02*
X90141000Y-83609032D01*
X95931816Y-77362318D02*
X95931816Y-80931816D01*
X107686595Y-91722808D02*
X109963787Y-94000000D01*
X95931816Y-80931816D02*
X100000000Y-85000000D01*
X82000000Y-83000000D02*
X89531968Y-83000000D01*
%TD*%
D38*
X61000000Y-33000000D02*
X131000000Y-33000000D01*
X131000000Y-110000000D01*
X61000000Y-110000000D01*
X61000000Y-33000000D01*
M02*
