%TF.GenerationSoftware,KiCad,Pcbnew,9.0.7*%
%TF.CreationDate,2026-04-01T09:11:17-05:00*%
%TF.ProjectId,Sensor Cell with Comms,53656e73-6f72-4204-9365-6c6c20776974,rev?*%
%TF.SameCoordinates,Original*%
%TF.FileFunction,Drillmap*%
%TF.FilePolarity,Positive*%
%FSLAX45Y45*%
G04 Gerber Fmt 4.5, Leading zero omitted, Abs format (unit mm)*
G04 Created by KiCad (PCBNEW 9.0.7) date 2026-04-01 09:11:17*
%MOMM*%
%LPD*%
G01*
G04 APERTURE LIST*
%ADD10C,0.050000*%
%ADD11C,0.200000*%
%ADD12C,0.300000*%
%ADD13C,0.304800*%
G04 APERTURE END LIST*
D10*
X6100000Y-3300000D02*
X13100000Y-3300000D01*
X13100000Y-11000000D01*
X6100000Y-11000000D01*
X6100000Y-3300000D01*
D11*
D12*
X6750000Y-9365000D02*
X7050000Y-9665000D01*
X7050000Y-9365000D02*
X6750000Y-9665000D01*
X6750000Y-9835000D02*
X7050000Y-10135000D01*
X7050000Y-9835000D02*
X6750000Y-10135000D01*
D13*
X7087100Y-5766040D02*
G75*
G02*
X6782300Y-5766040I-152400J0D01*
G01*
X6782300Y-5766040D02*
G75*
G02*
X7087100Y-5766040I152400J0D01*
G01*
X12617700Y-9933960D02*
G75*
G02*
X12312900Y-9933960I-152400J0D01*
G01*
X12312900Y-9933960D02*
G75*
G02*
X12617700Y-9933960I152400J0D01*
G01*
D11*
X6358277Y-11313984D02*
X6358277Y-11113984D01*
X6358277Y-11113984D02*
X6405896Y-11113984D01*
X6405896Y-11113984D02*
X6434467Y-11123508D01*
X6434467Y-11123508D02*
X6453515Y-11142555D01*
X6453515Y-11142555D02*
X6463039Y-11161603D01*
X6463039Y-11161603D02*
X6472562Y-11199698D01*
X6472562Y-11199698D02*
X6472562Y-11228269D01*
X6472562Y-11228269D02*
X6463039Y-11266365D01*
X6463039Y-11266365D02*
X6453515Y-11285412D01*
X6453515Y-11285412D02*
X6434467Y-11304460D01*
X6434467Y-11304460D02*
X6405896Y-11313984D01*
X6405896Y-11313984D02*
X6358277Y-11313984D01*
X6558277Y-11313984D02*
X6558277Y-11180650D01*
X6558277Y-11218746D02*
X6567801Y-11199698D01*
X6567801Y-11199698D02*
X6577324Y-11190174D01*
X6577324Y-11190174D02*
X6596372Y-11180650D01*
X6596372Y-11180650D02*
X6615420Y-11180650D01*
X6682086Y-11313984D02*
X6682086Y-11180650D01*
X6682086Y-11113984D02*
X6672562Y-11123508D01*
X6672562Y-11123508D02*
X6682086Y-11133031D01*
X6682086Y-11133031D02*
X6691610Y-11123508D01*
X6691610Y-11123508D02*
X6682086Y-11113984D01*
X6682086Y-11113984D02*
X6682086Y-11133031D01*
X6805896Y-11313984D02*
X6786848Y-11304460D01*
X6786848Y-11304460D02*
X6777324Y-11285412D01*
X6777324Y-11285412D02*
X6777324Y-11113984D01*
X6910658Y-11313984D02*
X6891610Y-11304460D01*
X6891610Y-11304460D02*
X6882086Y-11285412D01*
X6882086Y-11285412D02*
X6882086Y-11113984D01*
X7139229Y-11313984D02*
X7139229Y-11113984D01*
X7139229Y-11113984D02*
X7205896Y-11256841D01*
X7205896Y-11256841D02*
X7272562Y-11113984D01*
X7272562Y-11113984D02*
X7272562Y-11313984D01*
X7453515Y-11313984D02*
X7453515Y-11209222D01*
X7453515Y-11209222D02*
X7443991Y-11190174D01*
X7443991Y-11190174D02*
X7424943Y-11180650D01*
X7424943Y-11180650D02*
X7386848Y-11180650D01*
X7386848Y-11180650D02*
X7367801Y-11190174D01*
X7453515Y-11304460D02*
X7434467Y-11313984D01*
X7434467Y-11313984D02*
X7386848Y-11313984D01*
X7386848Y-11313984D02*
X7367801Y-11304460D01*
X7367801Y-11304460D02*
X7358277Y-11285412D01*
X7358277Y-11285412D02*
X7358277Y-11266365D01*
X7358277Y-11266365D02*
X7367801Y-11247317D01*
X7367801Y-11247317D02*
X7386848Y-11237793D01*
X7386848Y-11237793D02*
X7434467Y-11237793D01*
X7434467Y-11237793D02*
X7453515Y-11228269D01*
X7548753Y-11180650D02*
X7548753Y-11380650D01*
X7548753Y-11190174D02*
X7567801Y-11180650D01*
X7567801Y-11180650D02*
X7605896Y-11180650D01*
X7605896Y-11180650D02*
X7624943Y-11190174D01*
X7624943Y-11190174D02*
X7634467Y-11199698D01*
X7634467Y-11199698D02*
X7643991Y-11218746D01*
X7643991Y-11218746D02*
X7643991Y-11275888D01*
X7643991Y-11275888D02*
X7634467Y-11294936D01*
X7634467Y-11294936D02*
X7624943Y-11304460D01*
X7624943Y-11304460D02*
X7605896Y-11313984D01*
X7605896Y-11313984D02*
X7567801Y-11313984D01*
X7567801Y-11313984D02*
X7548753Y-11304460D01*
X7729705Y-11294936D02*
X7739229Y-11304460D01*
X7739229Y-11304460D02*
X7729705Y-11313984D01*
X7729705Y-11313984D02*
X7720182Y-11304460D01*
X7720182Y-11304460D02*
X7729705Y-11294936D01*
X7729705Y-11294936D02*
X7729705Y-11313984D01*
X7729705Y-11190174D02*
X7739229Y-11199698D01*
X7739229Y-11199698D02*
X7729705Y-11209222D01*
X7729705Y-11209222D02*
X7720182Y-11199698D01*
X7720182Y-11199698D02*
X7729705Y-11190174D01*
X7729705Y-11190174D02*
X7729705Y-11209222D01*
X5897500Y-11542500D02*
X6097500Y-11742500D01*
X6097500Y-11542500D02*
X5897500Y-11742500D01*
X6339229Y-11533984D02*
X6463039Y-11533984D01*
X6463039Y-11533984D02*
X6396372Y-11610174D01*
X6396372Y-11610174D02*
X6424943Y-11610174D01*
X6424943Y-11610174D02*
X6443991Y-11619698D01*
X6443991Y-11619698D02*
X6453515Y-11629222D01*
X6453515Y-11629222D02*
X6463039Y-11648269D01*
X6463039Y-11648269D02*
X6463039Y-11695888D01*
X6463039Y-11695888D02*
X6453515Y-11714936D01*
X6453515Y-11714936D02*
X6443991Y-11724460D01*
X6443991Y-11724460D02*
X6424943Y-11733984D01*
X6424943Y-11733984D02*
X6367801Y-11733984D01*
X6367801Y-11733984D02*
X6348753Y-11724460D01*
X6348753Y-11724460D02*
X6339229Y-11714936D01*
X6548753Y-11714936D02*
X6558277Y-11724460D01*
X6558277Y-11724460D02*
X6548753Y-11733984D01*
X6548753Y-11733984D02*
X6539229Y-11724460D01*
X6539229Y-11724460D02*
X6548753Y-11714936D01*
X6548753Y-11714936D02*
X6548753Y-11733984D01*
X6682086Y-11533984D02*
X6701134Y-11533984D01*
X6701134Y-11533984D02*
X6720182Y-11543508D01*
X6720182Y-11543508D02*
X6729705Y-11553031D01*
X6729705Y-11553031D02*
X6739229Y-11572079D01*
X6739229Y-11572079D02*
X6748753Y-11610174D01*
X6748753Y-11610174D02*
X6748753Y-11657793D01*
X6748753Y-11657793D02*
X6739229Y-11695888D01*
X6739229Y-11695888D02*
X6729705Y-11714936D01*
X6729705Y-11714936D02*
X6720182Y-11724460D01*
X6720182Y-11724460D02*
X6701134Y-11733984D01*
X6701134Y-11733984D02*
X6682086Y-11733984D01*
X6682086Y-11733984D02*
X6663039Y-11724460D01*
X6663039Y-11724460D02*
X6653515Y-11714936D01*
X6653515Y-11714936D02*
X6643991Y-11695888D01*
X6643991Y-11695888D02*
X6634467Y-11657793D01*
X6634467Y-11657793D02*
X6634467Y-11610174D01*
X6634467Y-11610174D02*
X6643991Y-11572079D01*
X6643991Y-11572079D02*
X6653515Y-11553031D01*
X6653515Y-11553031D02*
X6663039Y-11543508D01*
X6663039Y-11543508D02*
X6682086Y-11533984D01*
X6872562Y-11533984D02*
X6891610Y-11533984D01*
X6891610Y-11533984D02*
X6910658Y-11543508D01*
X6910658Y-11543508D02*
X6920182Y-11553031D01*
X6920182Y-11553031D02*
X6929705Y-11572079D01*
X6929705Y-11572079D02*
X6939229Y-11610174D01*
X6939229Y-11610174D02*
X6939229Y-11657793D01*
X6939229Y-11657793D02*
X6929705Y-11695888D01*
X6929705Y-11695888D02*
X6920182Y-11714936D01*
X6920182Y-11714936D02*
X6910658Y-11724460D01*
X6910658Y-11724460D02*
X6891610Y-11733984D01*
X6891610Y-11733984D02*
X6872562Y-11733984D01*
X6872562Y-11733984D02*
X6853515Y-11724460D01*
X6853515Y-11724460D02*
X6843991Y-11714936D01*
X6843991Y-11714936D02*
X6834467Y-11695888D01*
X6834467Y-11695888D02*
X6824943Y-11657793D01*
X6824943Y-11657793D02*
X6824943Y-11610174D01*
X6824943Y-11610174D02*
X6834467Y-11572079D01*
X6834467Y-11572079D02*
X6843991Y-11553031D01*
X6843991Y-11553031D02*
X6853515Y-11543508D01*
X6853515Y-11543508D02*
X6872562Y-11533984D01*
X7063039Y-11533984D02*
X7082086Y-11533984D01*
X7082086Y-11533984D02*
X7101134Y-11543508D01*
X7101134Y-11543508D02*
X7110658Y-11553031D01*
X7110658Y-11553031D02*
X7120182Y-11572079D01*
X7120182Y-11572079D02*
X7129705Y-11610174D01*
X7129705Y-11610174D02*
X7129705Y-11657793D01*
X7129705Y-11657793D02*
X7120182Y-11695888D01*
X7120182Y-11695888D02*
X7110658Y-11714936D01*
X7110658Y-11714936D02*
X7101134Y-11724460D01*
X7101134Y-11724460D02*
X7082086Y-11733984D01*
X7082086Y-11733984D02*
X7063039Y-11733984D01*
X7063039Y-11733984D02*
X7043991Y-11724460D01*
X7043991Y-11724460D02*
X7034467Y-11714936D01*
X7034467Y-11714936D02*
X7024943Y-11695888D01*
X7024943Y-11695888D02*
X7015420Y-11657793D01*
X7015420Y-11657793D02*
X7015420Y-11610174D01*
X7015420Y-11610174D02*
X7024943Y-11572079D01*
X7024943Y-11572079D02*
X7034467Y-11553031D01*
X7034467Y-11553031D02*
X7043991Y-11543508D01*
X7043991Y-11543508D02*
X7063039Y-11533984D01*
X7215420Y-11733984D02*
X7215420Y-11600650D01*
X7215420Y-11619698D02*
X7224943Y-11610174D01*
X7224943Y-11610174D02*
X7243991Y-11600650D01*
X7243991Y-11600650D02*
X7272563Y-11600650D01*
X7272563Y-11600650D02*
X7291610Y-11610174D01*
X7291610Y-11610174D02*
X7301134Y-11629222D01*
X7301134Y-11629222D02*
X7301134Y-11733984D01*
X7301134Y-11629222D02*
X7310658Y-11610174D01*
X7310658Y-11610174D02*
X7329705Y-11600650D01*
X7329705Y-11600650D02*
X7358277Y-11600650D01*
X7358277Y-11600650D02*
X7377324Y-11610174D01*
X7377324Y-11610174D02*
X7386848Y-11629222D01*
X7386848Y-11629222D02*
X7386848Y-11733984D01*
X7482086Y-11733984D02*
X7482086Y-11600650D01*
X7482086Y-11619698D02*
X7491610Y-11610174D01*
X7491610Y-11610174D02*
X7510658Y-11600650D01*
X7510658Y-11600650D02*
X7539229Y-11600650D01*
X7539229Y-11600650D02*
X7558277Y-11610174D01*
X7558277Y-11610174D02*
X7567801Y-11629222D01*
X7567801Y-11629222D02*
X7567801Y-11733984D01*
X7567801Y-11629222D02*
X7577324Y-11610174D01*
X7577324Y-11610174D02*
X7596372Y-11600650D01*
X7596372Y-11600650D02*
X7624943Y-11600650D01*
X7624943Y-11600650D02*
X7643991Y-11610174D01*
X7643991Y-11610174D02*
X7653515Y-11629222D01*
X7653515Y-11629222D02*
X7653515Y-11733984D01*
X8043991Y-11524460D02*
X7872563Y-11781603D01*
X8301134Y-11533984D02*
X8320182Y-11533984D01*
X8320182Y-11533984D02*
X8339229Y-11543508D01*
X8339229Y-11543508D02*
X8348753Y-11553031D01*
X8348753Y-11553031D02*
X8358277Y-11572079D01*
X8358277Y-11572079D02*
X8367801Y-11610174D01*
X8367801Y-11610174D02*
X8367801Y-11657793D01*
X8367801Y-11657793D02*
X8358277Y-11695888D01*
X8358277Y-11695888D02*
X8348753Y-11714936D01*
X8348753Y-11714936D02*
X8339229Y-11724460D01*
X8339229Y-11724460D02*
X8320182Y-11733984D01*
X8320182Y-11733984D02*
X8301134Y-11733984D01*
X8301134Y-11733984D02*
X8282086Y-11724460D01*
X8282086Y-11724460D02*
X8272563Y-11714936D01*
X8272563Y-11714936D02*
X8263039Y-11695888D01*
X8263039Y-11695888D02*
X8253515Y-11657793D01*
X8253515Y-11657793D02*
X8253515Y-11610174D01*
X8253515Y-11610174D02*
X8263039Y-11572079D01*
X8263039Y-11572079D02*
X8272563Y-11553031D01*
X8272563Y-11553031D02*
X8282086Y-11543508D01*
X8282086Y-11543508D02*
X8301134Y-11533984D01*
X8453515Y-11714936D02*
X8463039Y-11724460D01*
X8463039Y-11724460D02*
X8453515Y-11733984D01*
X8453515Y-11733984D02*
X8443991Y-11724460D01*
X8443991Y-11724460D02*
X8453515Y-11714936D01*
X8453515Y-11714936D02*
X8453515Y-11733984D01*
X8653515Y-11733984D02*
X8539229Y-11733984D01*
X8596372Y-11733984D02*
X8596372Y-11533984D01*
X8596372Y-11533984D02*
X8577325Y-11562555D01*
X8577325Y-11562555D02*
X8558277Y-11581603D01*
X8558277Y-11581603D02*
X8539229Y-11591127D01*
X8843991Y-11733984D02*
X8729706Y-11733984D01*
X8786848Y-11733984D02*
X8786848Y-11533984D01*
X8786848Y-11533984D02*
X8767801Y-11562555D01*
X8767801Y-11562555D02*
X8748753Y-11581603D01*
X8748753Y-11581603D02*
X8729706Y-11591127D01*
X8958277Y-11619698D02*
X8939229Y-11610174D01*
X8939229Y-11610174D02*
X8929706Y-11600650D01*
X8929706Y-11600650D02*
X8920182Y-11581603D01*
X8920182Y-11581603D02*
X8920182Y-11572079D01*
X8920182Y-11572079D02*
X8929706Y-11553031D01*
X8929706Y-11553031D02*
X8939229Y-11543508D01*
X8939229Y-11543508D02*
X8958277Y-11533984D01*
X8958277Y-11533984D02*
X8996372Y-11533984D01*
X8996372Y-11533984D02*
X9015420Y-11543508D01*
X9015420Y-11543508D02*
X9024944Y-11553031D01*
X9024944Y-11553031D02*
X9034468Y-11572079D01*
X9034468Y-11572079D02*
X9034468Y-11581603D01*
X9034468Y-11581603D02*
X9024944Y-11600650D01*
X9024944Y-11600650D02*
X9015420Y-11610174D01*
X9015420Y-11610174D02*
X8996372Y-11619698D01*
X8996372Y-11619698D02*
X8958277Y-11619698D01*
X8958277Y-11619698D02*
X8939229Y-11629222D01*
X8939229Y-11629222D02*
X8929706Y-11638746D01*
X8929706Y-11638746D02*
X8920182Y-11657793D01*
X8920182Y-11657793D02*
X8920182Y-11695888D01*
X8920182Y-11695888D02*
X8929706Y-11714936D01*
X8929706Y-11714936D02*
X8939229Y-11724460D01*
X8939229Y-11724460D02*
X8958277Y-11733984D01*
X8958277Y-11733984D02*
X8996372Y-11733984D01*
X8996372Y-11733984D02*
X9015420Y-11724460D01*
X9015420Y-11724460D02*
X9024944Y-11714936D01*
X9024944Y-11714936D02*
X9034468Y-11695888D01*
X9034468Y-11695888D02*
X9034468Y-11657793D01*
X9034468Y-11657793D02*
X9024944Y-11638746D01*
X9024944Y-11638746D02*
X9015420Y-11629222D01*
X9015420Y-11629222D02*
X8996372Y-11619698D01*
X9224944Y-11733984D02*
X9110658Y-11733984D01*
X9167801Y-11733984D02*
X9167801Y-11533984D01*
X9167801Y-11533984D02*
X9148753Y-11562555D01*
X9148753Y-11562555D02*
X9129706Y-11581603D01*
X9129706Y-11581603D02*
X9110658Y-11591127D01*
X9301134Y-11533984D02*
X9301134Y-11572079D01*
X9377325Y-11533984D02*
X9377325Y-11572079D01*
X9672563Y-11810174D02*
X9663039Y-11800650D01*
X9663039Y-11800650D02*
X9643991Y-11772079D01*
X9643991Y-11772079D02*
X9634468Y-11753031D01*
X9634468Y-11753031D02*
X9624944Y-11724460D01*
X9624944Y-11724460D02*
X9615420Y-11676841D01*
X9615420Y-11676841D02*
X9615420Y-11638746D01*
X9615420Y-11638746D02*
X9624944Y-11591127D01*
X9624944Y-11591127D02*
X9634468Y-11562555D01*
X9634468Y-11562555D02*
X9643991Y-11543508D01*
X9643991Y-11543508D02*
X9663039Y-11514936D01*
X9663039Y-11514936D02*
X9672563Y-11505412D01*
X9739230Y-11553031D02*
X9748753Y-11543508D01*
X9748753Y-11543508D02*
X9767801Y-11533984D01*
X9767801Y-11533984D02*
X9815420Y-11533984D01*
X9815420Y-11533984D02*
X9834468Y-11543508D01*
X9834468Y-11543508D02*
X9843991Y-11553031D01*
X9843991Y-11553031D02*
X9853515Y-11572079D01*
X9853515Y-11572079D02*
X9853515Y-11591127D01*
X9853515Y-11591127D02*
X9843991Y-11619698D01*
X9843991Y-11619698D02*
X9729706Y-11733984D01*
X9729706Y-11733984D02*
X9853515Y-11733984D01*
X10091611Y-11733984D02*
X10091611Y-11533984D01*
X10177325Y-11733984D02*
X10177325Y-11629222D01*
X10177325Y-11629222D02*
X10167801Y-11610174D01*
X10167801Y-11610174D02*
X10148753Y-11600650D01*
X10148753Y-11600650D02*
X10120182Y-11600650D01*
X10120182Y-11600650D02*
X10101134Y-11610174D01*
X10101134Y-11610174D02*
X10091611Y-11619698D01*
X10301134Y-11733984D02*
X10282087Y-11724460D01*
X10282087Y-11724460D02*
X10272563Y-11714936D01*
X10272563Y-11714936D02*
X10263039Y-11695888D01*
X10263039Y-11695888D02*
X10263039Y-11638746D01*
X10263039Y-11638746D02*
X10272563Y-11619698D01*
X10272563Y-11619698D02*
X10282087Y-11610174D01*
X10282087Y-11610174D02*
X10301134Y-11600650D01*
X10301134Y-11600650D02*
X10329706Y-11600650D01*
X10329706Y-11600650D02*
X10348753Y-11610174D01*
X10348753Y-11610174D02*
X10358277Y-11619698D01*
X10358277Y-11619698D02*
X10367801Y-11638746D01*
X10367801Y-11638746D02*
X10367801Y-11695888D01*
X10367801Y-11695888D02*
X10358277Y-11714936D01*
X10358277Y-11714936D02*
X10348753Y-11724460D01*
X10348753Y-11724460D02*
X10329706Y-11733984D01*
X10329706Y-11733984D02*
X10301134Y-11733984D01*
X10482087Y-11733984D02*
X10463039Y-11724460D01*
X10463039Y-11724460D02*
X10453515Y-11705412D01*
X10453515Y-11705412D02*
X10453515Y-11533984D01*
X10634468Y-11724460D02*
X10615420Y-11733984D01*
X10615420Y-11733984D02*
X10577325Y-11733984D01*
X10577325Y-11733984D02*
X10558277Y-11724460D01*
X10558277Y-11724460D02*
X10548753Y-11705412D01*
X10548753Y-11705412D02*
X10548753Y-11629222D01*
X10548753Y-11629222D02*
X10558277Y-11610174D01*
X10558277Y-11610174D02*
X10577325Y-11600650D01*
X10577325Y-11600650D02*
X10615420Y-11600650D01*
X10615420Y-11600650D02*
X10634468Y-11610174D01*
X10634468Y-11610174D02*
X10643992Y-11629222D01*
X10643992Y-11629222D02*
X10643992Y-11648269D01*
X10643992Y-11648269D02*
X10548753Y-11667317D01*
X10720182Y-11724460D02*
X10739230Y-11733984D01*
X10739230Y-11733984D02*
X10777325Y-11733984D01*
X10777325Y-11733984D02*
X10796373Y-11724460D01*
X10796373Y-11724460D02*
X10805896Y-11705412D01*
X10805896Y-11705412D02*
X10805896Y-11695888D01*
X10805896Y-11695888D02*
X10796373Y-11676841D01*
X10796373Y-11676841D02*
X10777325Y-11667317D01*
X10777325Y-11667317D02*
X10748753Y-11667317D01*
X10748753Y-11667317D02*
X10729706Y-11657793D01*
X10729706Y-11657793D02*
X10720182Y-11638746D01*
X10720182Y-11638746D02*
X10720182Y-11629222D01*
X10720182Y-11629222D02*
X10729706Y-11610174D01*
X10729706Y-11610174D02*
X10748753Y-11600650D01*
X10748753Y-11600650D02*
X10777325Y-11600650D01*
X10777325Y-11600650D02*
X10796373Y-11610174D01*
X10872563Y-11810174D02*
X10882087Y-11800650D01*
X10882087Y-11800650D02*
X10901134Y-11772079D01*
X10901134Y-11772079D02*
X10910658Y-11753031D01*
X10910658Y-11753031D02*
X10920182Y-11724460D01*
X10920182Y-11724460D02*
X10929706Y-11676841D01*
X10929706Y-11676841D02*
X10929706Y-11638746D01*
X10929706Y-11638746D02*
X10920182Y-11591127D01*
X10920182Y-11591127D02*
X10910658Y-11562555D01*
X10910658Y-11562555D02*
X10901134Y-11543508D01*
X10901134Y-11543508D02*
X10882087Y-11514936D01*
X10882087Y-11514936D02*
X10872563Y-11505412D01*
X11234468Y-11810174D02*
X11224944Y-11800650D01*
X11224944Y-11800650D02*
X11205896Y-11772079D01*
X11205896Y-11772079D02*
X11196372Y-11753031D01*
X11196372Y-11753031D02*
X11186849Y-11724460D01*
X11186849Y-11724460D02*
X11177325Y-11676841D01*
X11177325Y-11676841D02*
X11177325Y-11638746D01*
X11177325Y-11638746D02*
X11186849Y-11591127D01*
X11186849Y-11591127D02*
X11196372Y-11562555D01*
X11196372Y-11562555D02*
X11205896Y-11543508D01*
X11205896Y-11543508D02*
X11224944Y-11514936D01*
X11224944Y-11514936D02*
X11234468Y-11505412D01*
X11310658Y-11600650D02*
X11310658Y-11733984D01*
X11310658Y-11619698D02*
X11320182Y-11610174D01*
X11320182Y-11610174D02*
X11339230Y-11600650D01*
X11339230Y-11600650D02*
X11367801Y-11600650D01*
X11367801Y-11600650D02*
X11386849Y-11610174D01*
X11386849Y-11610174D02*
X11396372Y-11629222D01*
X11396372Y-11629222D02*
X11396372Y-11733984D01*
X11520182Y-11733984D02*
X11501134Y-11724460D01*
X11501134Y-11724460D02*
X11491611Y-11714936D01*
X11491611Y-11714936D02*
X11482087Y-11695888D01*
X11482087Y-11695888D02*
X11482087Y-11638746D01*
X11482087Y-11638746D02*
X11491611Y-11619698D01*
X11491611Y-11619698D02*
X11501134Y-11610174D01*
X11501134Y-11610174D02*
X11520182Y-11600650D01*
X11520182Y-11600650D02*
X11548753Y-11600650D01*
X11548753Y-11600650D02*
X11567801Y-11610174D01*
X11567801Y-11610174D02*
X11577325Y-11619698D01*
X11577325Y-11619698D02*
X11586849Y-11638746D01*
X11586849Y-11638746D02*
X11586849Y-11695888D01*
X11586849Y-11695888D02*
X11577325Y-11714936D01*
X11577325Y-11714936D02*
X11567801Y-11724460D01*
X11567801Y-11724460D02*
X11548753Y-11733984D01*
X11548753Y-11733984D02*
X11520182Y-11733984D01*
X11643992Y-11600650D02*
X11720182Y-11600650D01*
X11672563Y-11533984D02*
X11672563Y-11705412D01*
X11672563Y-11705412D02*
X11682087Y-11724460D01*
X11682087Y-11724460D02*
X11701134Y-11733984D01*
X11701134Y-11733984D02*
X11720182Y-11733984D01*
X11939230Y-11600650D02*
X11939230Y-11800650D01*
X11939230Y-11610174D02*
X11958277Y-11600650D01*
X11958277Y-11600650D02*
X11996373Y-11600650D01*
X11996373Y-11600650D02*
X12015420Y-11610174D01*
X12015420Y-11610174D02*
X12024944Y-11619698D01*
X12024944Y-11619698D02*
X12034468Y-11638746D01*
X12034468Y-11638746D02*
X12034468Y-11695888D01*
X12034468Y-11695888D02*
X12024944Y-11714936D01*
X12024944Y-11714936D02*
X12015420Y-11724460D01*
X12015420Y-11724460D02*
X11996373Y-11733984D01*
X11996373Y-11733984D02*
X11958277Y-11733984D01*
X11958277Y-11733984D02*
X11939230Y-11724460D01*
X12148753Y-11733984D02*
X12129706Y-11724460D01*
X12129706Y-11724460D02*
X12120182Y-11705412D01*
X12120182Y-11705412D02*
X12120182Y-11533984D01*
X12310658Y-11733984D02*
X12310658Y-11629222D01*
X12310658Y-11629222D02*
X12301134Y-11610174D01*
X12301134Y-11610174D02*
X12282087Y-11600650D01*
X12282087Y-11600650D02*
X12243992Y-11600650D01*
X12243992Y-11600650D02*
X12224944Y-11610174D01*
X12310658Y-11724460D02*
X12291611Y-11733984D01*
X12291611Y-11733984D02*
X12243992Y-11733984D01*
X12243992Y-11733984D02*
X12224944Y-11724460D01*
X12224944Y-11724460D02*
X12215420Y-11705412D01*
X12215420Y-11705412D02*
X12215420Y-11686365D01*
X12215420Y-11686365D02*
X12224944Y-11667317D01*
X12224944Y-11667317D02*
X12243992Y-11657793D01*
X12243992Y-11657793D02*
X12291611Y-11657793D01*
X12291611Y-11657793D02*
X12310658Y-11648269D01*
X12377325Y-11600650D02*
X12453515Y-11600650D01*
X12405896Y-11533984D02*
X12405896Y-11705412D01*
X12405896Y-11705412D02*
X12415420Y-11724460D01*
X12415420Y-11724460D02*
X12434468Y-11733984D01*
X12434468Y-11733984D02*
X12453515Y-11733984D01*
X12596373Y-11724460D02*
X12577325Y-11733984D01*
X12577325Y-11733984D02*
X12539230Y-11733984D01*
X12539230Y-11733984D02*
X12520182Y-11724460D01*
X12520182Y-11724460D02*
X12510658Y-11705412D01*
X12510658Y-11705412D02*
X12510658Y-11629222D01*
X12510658Y-11629222D02*
X12520182Y-11610174D01*
X12520182Y-11610174D02*
X12539230Y-11600650D01*
X12539230Y-11600650D02*
X12577325Y-11600650D01*
X12577325Y-11600650D02*
X12596373Y-11610174D01*
X12596373Y-11610174D02*
X12605896Y-11629222D01*
X12605896Y-11629222D02*
X12605896Y-11648269D01*
X12605896Y-11648269D02*
X12510658Y-11667317D01*
X12777325Y-11733984D02*
X12777325Y-11533984D01*
X12777325Y-11724460D02*
X12758277Y-11733984D01*
X12758277Y-11733984D02*
X12720182Y-11733984D01*
X12720182Y-11733984D02*
X12701134Y-11724460D01*
X12701134Y-11724460D02*
X12691611Y-11714936D01*
X12691611Y-11714936D02*
X12682087Y-11695888D01*
X12682087Y-11695888D02*
X12682087Y-11638746D01*
X12682087Y-11638746D02*
X12691611Y-11619698D01*
X12691611Y-11619698D02*
X12701134Y-11610174D01*
X12701134Y-11610174D02*
X12720182Y-11600650D01*
X12720182Y-11600650D02*
X12758277Y-11600650D01*
X12758277Y-11600650D02*
X12777325Y-11610174D01*
X12853515Y-11810174D02*
X12863039Y-11800650D01*
X12863039Y-11800650D02*
X12882087Y-11772079D01*
X12882087Y-11772079D02*
X12891611Y-11753031D01*
X12891611Y-11753031D02*
X12901134Y-11724460D01*
X12901134Y-11724460D02*
X12910658Y-11676841D01*
X12910658Y-11676841D02*
X12910658Y-11638746D01*
X12910658Y-11638746D02*
X12901134Y-11591127D01*
X12901134Y-11591127D02*
X12891611Y-11562555D01*
X12891611Y-11562555D02*
X12882087Y-11543508D01*
X12882087Y-11543508D02*
X12863039Y-11514936D01*
X12863039Y-11514936D02*
X12853515Y-11505412D01*
X6097500Y-11962500D02*
G75*
G02*
X5897500Y-11962500I-100000J0D01*
G01*
X5897500Y-11962500D02*
G75*
G02*
X6097500Y-11962500I100000J0D01*
G01*
X6339229Y-11853984D02*
X6463039Y-11853984D01*
X6463039Y-11853984D02*
X6396372Y-11930174D01*
X6396372Y-11930174D02*
X6424943Y-11930174D01*
X6424943Y-11930174D02*
X6443991Y-11939698D01*
X6443991Y-11939698D02*
X6453515Y-11949222D01*
X6453515Y-11949222D02*
X6463039Y-11968269D01*
X6463039Y-11968269D02*
X6463039Y-12015888D01*
X6463039Y-12015888D02*
X6453515Y-12034936D01*
X6453515Y-12034936D02*
X6443991Y-12044460D01*
X6443991Y-12044460D02*
X6424943Y-12053984D01*
X6424943Y-12053984D02*
X6367801Y-12053984D01*
X6367801Y-12053984D02*
X6348753Y-12044460D01*
X6348753Y-12044460D02*
X6339229Y-12034936D01*
X6548753Y-12034936D02*
X6558277Y-12044460D01*
X6558277Y-12044460D02*
X6548753Y-12053984D01*
X6548753Y-12053984D02*
X6539229Y-12044460D01*
X6539229Y-12044460D02*
X6548753Y-12034936D01*
X6548753Y-12034936D02*
X6548753Y-12053984D01*
X6682086Y-11853984D02*
X6701134Y-11853984D01*
X6701134Y-11853984D02*
X6720182Y-11863508D01*
X6720182Y-11863508D02*
X6729705Y-11873031D01*
X6729705Y-11873031D02*
X6739229Y-11892079D01*
X6739229Y-11892079D02*
X6748753Y-11930174D01*
X6748753Y-11930174D02*
X6748753Y-11977793D01*
X6748753Y-11977793D02*
X6739229Y-12015888D01*
X6739229Y-12015888D02*
X6729705Y-12034936D01*
X6729705Y-12034936D02*
X6720182Y-12044460D01*
X6720182Y-12044460D02*
X6701134Y-12053984D01*
X6701134Y-12053984D02*
X6682086Y-12053984D01*
X6682086Y-12053984D02*
X6663039Y-12044460D01*
X6663039Y-12044460D02*
X6653515Y-12034936D01*
X6653515Y-12034936D02*
X6643991Y-12015888D01*
X6643991Y-12015888D02*
X6634467Y-11977793D01*
X6634467Y-11977793D02*
X6634467Y-11930174D01*
X6634467Y-11930174D02*
X6643991Y-11892079D01*
X6643991Y-11892079D02*
X6653515Y-11873031D01*
X6653515Y-11873031D02*
X6663039Y-11863508D01*
X6663039Y-11863508D02*
X6682086Y-11853984D01*
X6920182Y-11920650D02*
X6920182Y-12053984D01*
X6872562Y-11844460D02*
X6824943Y-11987317D01*
X6824943Y-11987317D02*
X6948753Y-11987317D01*
X7053515Y-11939698D02*
X7034467Y-11930174D01*
X7034467Y-11930174D02*
X7024943Y-11920650D01*
X7024943Y-11920650D02*
X7015420Y-11901603D01*
X7015420Y-11901603D02*
X7015420Y-11892079D01*
X7015420Y-11892079D02*
X7024943Y-11873031D01*
X7024943Y-11873031D02*
X7034467Y-11863508D01*
X7034467Y-11863508D02*
X7053515Y-11853984D01*
X7053515Y-11853984D02*
X7091610Y-11853984D01*
X7091610Y-11853984D02*
X7110658Y-11863508D01*
X7110658Y-11863508D02*
X7120182Y-11873031D01*
X7120182Y-11873031D02*
X7129705Y-11892079D01*
X7129705Y-11892079D02*
X7129705Y-11901603D01*
X7129705Y-11901603D02*
X7120182Y-11920650D01*
X7120182Y-11920650D02*
X7110658Y-11930174D01*
X7110658Y-11930174D02*
X7091610Y-11939698D01*
X7091610Y-11939698D02*
X7053515Y-11939698D01*
X7053515Y-11939698D02*
X7034467Y-11949222D01*
X7034467Y-11949222D02*
X7024943Y-11958746D01*
X7024943Y-11958746D02*
X7015420Y-11977793D01*
X7015420Y-11977793D02*
X7015420Y-12015888D01*
X7015420Y-12015888D02*
X7024943Y-12034936D01*
X7024943Y-12034936D02*
X7034467Y-12044460D01*
X7034467Y-12044460D02*
X7053515Y-12053984D01*
X7053515Y-12053984D02*
X7091610Y-12053984D01*
X7091610Y-12053984D02*
X7110658Y-12044460D01*
X7110658Y-12044460D02*
X7120182Y-12034936D01*
X7120182Y-12034936D02*
X7129705Y-12015888D01*
X7129705Y-12015888D02*
X7129705Y-11977793D01*
X7129705Y-11977793D02*
X7120182Y-11958746D01*
X7120182Y-11958746D02*
X7110658Y-11949222D01*
X7110658Y-11949222D02*
X7091610Y-11939698D01*
X7215420Y-12053984D02*
X7215420Y-11920650D01*
X7215420Y-11939698D02*
X7224943Y-11930174D01*
X7224943Y-11930174D02*
X7243991Y-11920650D01*
X7243991Y-11920650D02*
X7272563Y-11920650D01*
X7272563Y-11920650D02*
X7291610Y-11930174D01*
X7291610Y-11930174D02*
X7301134Y-11949222D01*
X7301134Y-11949222D02*
X7301134Y-12053984D01*
X7301134Y-11949222D02*
X7310658Y-11930174D01*
X7310658Y-11930174D02*
X7329705Y-11920650D01*
X7329705Y-11920650D02*
X7358277Y-11920650D01*
X7358277Y-11920650D02*
X7377324Y-11930174D01*
X7377324Y-11930174D02*
X7386848Y-11949222D01*
X7386848Y-11949222D02*
X7386848Y-12053984D01*
X7482086Y-12053984D02*
X7482086Y-11920650D01*
X7482086Y-11939698D02*
X7491610Y-11930174D01*
X7491610Y-11930174D02*
X7510658Y-11920650D01*
X7510658Y-11920650D02*
X7539229Y-11920650D01*
X7539229Y-11920650D02*
X7558277Y-11930174D01*
X7558277Y-11930174D02*
X7567801Y-11949222D01*
X7567801Y-11949222D02*
X7567801Y-12053984D01*
X7567801Y-11949222D02*
X7577324Y-11930174D01*
X7577324Y-11930174D02*
X7596372Y-11920650D01*
X7596372Y-11920650D02*
X7624943Y-11920650D01*
X7624943Y-11920650D02*
X7643991Y-11930174D01*
X7643991Y-11930174D02*
X7653515Y-11949222D01*
X7653515Y-11949222D02*
X7653515Y-12053984D01*
X8043991Y-11844460D02*
X7872563Y-12101603D01*
X8301134Y-11853984D02*
X8320182Y-11853984D01*
X8320182Y-11853984D02*
X8339229Y-11863508D01*
X8339229Y-11863508D02*
X8348753Y-11873031D01*
X8348753Y-11873031D02*
X8358277Y-11892079D01*
X8358277Y-11892079D02*
X8367801Y-11930174D01*
X8367801Y-11930174D02*
X8367801Y-11977793D01*
X8367801Y-11977793D02*
X8358277Y-12015888D01*
X8358277Y-12015888D02*
X8348753Y-12034936D01*
X8348753Y-12034936D02*
X8339229Y-12044460D01*
X8339229Y-12044460D02*
X8320182Y-12053984D01*
X8320182Y-12053984D02*
X8301134Y-12053984D01*
X8301134Y-12053984D02*
X8282086Y-12044460D01*
X8282086Y-12044460D02*
X8272563Y-12034936D01*
X8272563Y-12034936D02*
X8263039Y-12015888D01*
X8263039Y-12015888D02*
X8253515Y-11977793D01*
X8253515Y-11977793D02*
X8253515Y-11930174D01*
X8253515Y-11930174D02*
X8263039Y-11892079D01*
X8263039Y-11892079D02*
X8272563Y-11873031D01*
X8272563Y-11873031D02*
X8282086Y-11863508D01*
X8282086Y-11863508D02*
X8301134Y-11853984D01*
X8453515Y-12034936D02*
X8463039Y-12044460D01*
X8463039Y-12044460D02*
X8453515Y-12053984D01*
X8453515Y-12053984D02*
X8443991Y-12044460D01*
X8443991Y-12044460D02*
X8453515Y-12034936D01*
X8453515Y-12034936D02*
X8453515Y-12053984D01*
X8653515Y-12053984D02*
X8539229Y-12053984D01*
X8596372Y-12053984D02*
X8596372Y-11853984D01*
X8596372Y-11853984D02*
X8577325Y-11882555D01*
X8577325Y-11882555D02*
X8558277Y-11901603D01*
X8558277Y-11901603D02*
X8539229Y-11911127D01*
X8729706Y-11873031D02*
X8739229Y-11863508D01*
X8739229Y-11863508D02*
X8758277Y-11853984D01*
X8758277Y-11853984D02*
X8805896Y-11853984D01*
X8805896Y-11853984D02*
X8824944Y-11863508D01*
X8824944Y-11863508D02*
X8834468Y-11873031D01*
X8834468Y-11873031D02*
X8843991Y-11892079D01*
X8843991Y-11892079D02*
X8843991Y-11911127D01*
X8843991Y-11911127D02*
X8834468Y-11939698D01*
X8834468Y-11939698D02*
X8720182Y-12053984D01*
X8720182Y-12053984D02*
X8843991Y-12053984D01*
X8967801Y-11853984D02*
X8986849Y-11853984D01*
X8986849Y-11853984D02*
X9005896Y-11863508D01*
X9005896Y-11863508D02*
X9015420Y-11873031D01*
X9015420Y-11873031D02*
X9024944Y-11892079D01*
X9024944Y-11892079D02*
X9034468Y-11930174D01*
X9034468Y-11930174D02*
X9034468Y-11977793D01*
X9034468Y-11977793D02*
X9024944Y-12015888D01*
X9024944Y-12015888D02*
X9015420Y-12034936D01*
X9015420Y-12034936D02*
X9005896Y-12044460D01*
X9005896Y-12044460D02*
X8986849Y-12053984D01*
X8986849Y-12053984D02*
X8967801Y-12053984D01*
X8967801Y-12053984D02*
X8948753Y-12044460D01*
X8948753Y-12044460D02*
X8939229Y-12034936D01*
X8939229Y-12034936D02*
X8929706Y-12015888D01*
X8929706Y-12015888D02*
X8920182Y-11977793D01*
X8920182Y-11977793D02*
X8920182Y-11930174D01*
X8920182Y-11930174D02*
X8929706Y-11892079D01*
X8929706Y-11892079D02*
X8939229Y-11873031D01*
X8939229Y-11873031D02*
X8948753Y-11863508D01*
X8948753Y-11863508D02*
X8967801Y-11853984D01*
X9158277Y-11853984D02*
X9177325Y-11853984D01*
X9177325Y-11853984D02*
X9196372Y-11863508D01*
X9196372Y-11863508D02*
X9205896Y-11873031D01*
X9205896Y-11873031D02*
X9215420Y-11892079D01*
X9215420Y-11892079D02*
X9224944Y-11930174D01*
X9224944Y-11930174D02*
X9224944Y-11977793D01*
X9224944Y-11977793D02*
X9215420Y-12015888D01*
X9215420Y-12015888D02*
X9205896Y-12034936D01*
X9205896Y-12034936D02*
X9196372Y-12044460D01*
X9196372Y-12044460D02*
X9177325Y-12053984D01*
X9177325Y-12053984D02*
X9158277Y-12053984D01*
X9158277Y-12053984D02*
X9139229Y-12044460D01*
X9139229Y-12044460D02*
X9129706Y-12034936D01*
X9129706Y-12034936D02*
X9120182Y-12015888D01*
X9120182Y-12015888D02*
X9110658Y-11977793D01*
X9110658Y-11977793D02*
X9110658Y-11930174D01*
X9110658Y-11930174D02*
X9120182Y-11892079D01*
X9120182Y-11892079D02*
X9129706Y-11873031D01*
X9129706Y-11873031D02*
X9139229Y-11863508D01*
X9139229Y-11863508D02*
X9158277Y-11853984D01*
X9301134Y-11853984D02*
X9301134Y-11892079D01*
X9377325Y-11853984D02*
X9377325Y-11892079D01*
X9672563Y-12130174D02*
X9663039Y-12120650D01*
X9663039Y-12120650D02*
X9643991Y-12092079D01*
X9643991Y-12092079D02*
X9634468Y-12073031D01*
X9634468Y-12073031D02*
X9624944Y-12044460D01*
X9624944Y-12044460D02*
X9615420Y-11996841D01*
X9615420Y-11996841D02*
X9615420Y-11958746D01*
X9615420Y-11958746D02*
X9624944Y-11911127D01*
X9624944Y-11911127D02*
X9634468Y-11882555D01*
X9634468Y-11882555D02*
X9643991Y-11863508D01*
X9643991Y-11863508D02*
X9663039Y-11834936D01*
X9663039Y-11834936D02*
X9672563Y-11825412D01*
X9739230Y-11873031D02*
X9748753Y-11863508D01*
X9748753Y-11863508D02*
X9767801Y-11853984D01*
X9767801Y-11853984D02*
X9815420Y-11853984D01*
X9815420Y-11853984D02*
X9834468Y-11863508D01*
X9834468Y-11863508D02*
X9843991Y-11873031D01*
X9843991Y-11873031D02*
X9853515Y-11892079D01*
X9853515Y-11892079D02*
X9853515Y-11911127D01*
X9853515Y-11911127D02*
X9843991Y-11939698D01*
X9843991Y-11939698D02*
X9729706Y-12053984D01*
X9729706Y-12053984D02*
X9853515Y-12053984D01*
X10091611Y-12053984D02*
X10091611Y-11853984D01*
X10177325Y-12053984D02*
X10177325Y-11949222D01*
X10177325Y-11949222D02*
X10167801Y-11930174D01*
X10167801Y-11930174D02*
X10148753Y-11920650D01*
X10148753Y-11920650D02*
X10120182Y-11920650D01*
X10120182Y-11920650D02*
X10101134Y-11930174D01*
X10101134Y-11930174D02*
X10091611Y-11939698D01*
X10301134Y-12053984D02*
X10282087Y-12044460D01*
X10282087Y-12044460D02*
X10272563Y-12034936D01*
X10272563Y-12034936D02*
X10263039Y-12015888D01*
X10263039Y-12015888D02*
X10263039Y-11958746D01*
X10263039Y-11958746D02*
X10272563Y-11939698D01*
X10272563Y-11939698D02*
X10282087Y-11930174D01*
X10282087Y-11930174D02*
X10301134Y-11920650D01*
X10301134Y-11920650D02*
X10329706Y-11920650D01*
X10329706Y-11920650D02*
X10348753Y-11930174D01*
X10348753Y-11930174D02*
X10358277Y-11939698D01*
X10358277Y-11939698D02*
X10367801Y-11958746D01*
X10367801Y-11958746D02*
X10367801Y-12015888D01*
X10367801Y-12015888D02*
X10358277Y-12034936D01*
X10358277Y-12034936D02*
X10348753Y-12044460D01*
X10348753Y-12044460D02*
X10329706Y-12053984D01*
X10329706Y-12053984D02*
X10301134Y-12053984D01*
X10482087Y-12053984D02*
X10463039Y-12044460D01*
X10463039Y-12044460D02*
X10453515Y-12025412D01*
X10453515Y-12025412D02*
X10453515Y-11853984D01*
X10634468Y-12044460D02*
X10615420Y-12053984D01*
X10615420Y-12053984D02*
X10577325Y-12053984D01*
X10577325Y-12053984D02*
X10558277Y-12044460D01*
X10558277Y-12044460D02*
X10548753Y-12025412D01*
X10548753Y-12025412D02*
X10548753Y-11949222D01*
X10548753Y-11949222D02*
X10558277Y-11930174D01*
X10558277Y-11930174D02*
X10577325Y-11920650D01*
X10577325Y-11920650D02*
X10615420Y-11920650D01*
X10615420Y-11920650D02*
X10634468Y-11930174D01*
X10634468Y-11930174D02*
X10643992Y-11949222D01*
X10643992Y-11949222D02*
X10643992Y-11968269D01*
X10643992Y-11968269D02*
X10548753Y-11987317D01*
X10720182Y-12044460D02*
X10739230Y-12053984D01*
X10739230Y-12053984D02*
X10777325Y-12053984D01*
X10777325Y-12053984D02*
X10796373Y-12044460D01*
X10796373Y-12044460D02*
X10805896Y-12025412D01*
X10805896Y-12025412D02*
X10805896Y-12015888D01*
X10805896Y-12015888D02*
X10796373Y-11996841D01*
X10796373Y-11996841D02*
X10777325Y-11987317D01*
X10777325Y-11987317D02*
X10748753Y-11987317D01*
X10748753Y-11987317D02*
X10729706Y-11977793D01*
X10729706Y-11977793D02*
X10720182Y-11958746D01*
X10720182Y-11958746D02*
X10720182Y-11949222D01*
X10720182Y-11949222D02*
X10729706Y-11930174D01*
X10729706Y-11930174D02*
X10748753Y-11920650D01*
X10748753Y-11920650D02*
X10777325Y-11920650D01*
X10777325Y-11920650D02*
X10796373Y-11930174D01*
X10872563Y-12130174D02*
X10882087Y-12120650D01*
X10882087Y-12120650D02*
X10901134Y-12092079D01*
X10901134Y-12092079D02*
X10910658Y-12073031D01*
X10910658Y-12073031D02*
X10920182Y-12044460D01*
X10920182Y-12044460D02*
X10929706Y-11996841D01*
X10929706Y-11996841D02*
X10929706Y-11958746D01*
X10929706Y-11958746D02*
X10920182Y-11911127D01*
X10920182Y-11911127D02*
X10910658Y-11882555D01*
X10910658Y-11882555D02*
X10901134Y-11863508D01*
X10901134Y-11863508D02*
X10882087Y-11834936D01*
X10882087Y-11834936D02*
X10872563Y-11825412D01*
X11234468Y-12130174D02*
X11224944Y-12120650D01*
X11224944Y-12120650D02*
X11205896Y-12092079D01*
X11205896Y-12092079D02*
X11196372Y-12073031D01*
X11196372Y-12073031D02*
X11186849Y-12044460D01*
X11186849Y-12044460D02*
X11177325Y-11996841D01*
X11177325Y-11996841D02*
X11177325Y-11958746D01*
X11177325Y-11958746D02*
X11186849Y-11911127D01*
X11186849Y-11911127D02*
X11196372Y-11882555D01*
X11196372Y-11882555D02*
X11205896Y-11863508D01*
X11205896Y-11863508D02*
X11224944Y-11834936D01*
X11224944Y-11834936D02*
X11234468Y-11825412D01*
X11310658Y-11920650D02*
X11310658Y-12053984D01*
X11310658Y-11939698D02*
X11320182Y-11930174D01*
X11320182Y-11930174D02*
X11339230Y-11920650D01*
X11339230Y-11920650D02*
X11367801Y-11920650D01*
X11367801Y-11920650D02*
X11386849Y-11930174D01*
X11386849Y-11930174D02*
X11396372Y-11949222D01*
X11396372Y-11949222D02*
X11396372Y-12053984D01*
X11520182Y-12053984D02*
X11501134Y-12044460D01*
X11501134Y-12044460D02*
X11491611Y-12034936D01*
X11491611Y-12034936D02*
X11482087Y-12015888D01*
X11482087Y-12015888D02*
X11482087Y-11958746D01*
X11482087Y-11958746D02*
X11491611Y-11939698D01*
X11491611Y-11939698D02*
X11501134Y-11930174D01*
X11501134Y-11930174D02*
X11520182Y-11920650D01*
X11520182Y-11920650D02*
X11548753Y-11920650D01*
X11548753Y-11920650D02*
X11567801Y-11930174D01*
X11567801Y-11930174D02*
X11577325Y-11939698D01*
X11577325Y-11939698D02*
X11586849Y-11958746D01*
X11586849Y-11958746D02*
X11586849Y-12015888D01*
X11586849Y-12015888D02*
X11577325Y-12034936D01*
X11577325Y-12034936D02*
X11567801Y-12044460D01*
X11567801Y-12044460D02*
X11548753Y-12053984D01*
X11548753Y-12053984D02*
X11520182Y-12053984D01*
X11643992Y-11920650D02*
X11720182Y-11920650D01*
X11672563Y-11853984D02*
X11672563Y-12025412D01*
X11672563Y-12025412D02*
X11682087Y-12044460D01*
X11682087Y-12044460D02*
X11701134Y-12053984D01*
X11701134Y-12053984D02*
X11720182Y-12053984D01*
X11939230Y-11920650D02*
X11939230Y-12120650D01*
X11939230Y-11930174D02*
X11958277Y-11920650D01*
X11958277Y-11920650D02*
X11996373Y-11920650D01*
X11996373Y-11920650D02*
X12015420Y-11930174D01*
X12015420Y-11930174D02*
X12024944Y-11939698D01*
X12024944Y-11939698D02*
X12034468Y-11958746D01*
X12034468Y-11958746D02*
X12034468Y-12015888D01*
X12034468Y-12015888D02*
X12024944Y-12034936D01*
X12024944Y-12034936D02*
X12015420Y-12044460D01*
X12015420Y-12044460D02*
X11996373Y-12053984D01*
X11996373Y-12053984D02*
X11958277Y-12053984D01*
X11958277Y-12053984D02*
X11939230Y-12044460D01*
X12148753Y-12053984D02*
X12129706Y-12044460D01*
X12129706Y-12044460D02*
X12120182Y-12025412D01*
X12120182Y-12025412D02*
X12120182Y-11853984D01*
X12310658Y-12053984D02*
X12310658Y-11949222D01*
X12310658Y-11949222D02*
X12301134Y-11930174D01*
X12301134Y-11930174D02*
X12282087Y-11920650D01*
X12282087Y-11920650D02*
X12243992Y-11920650D01*
X12243992Y-11920650D02*
X12224944Y-11930174D01*
X12310658Y-12044460D02*
X12291611Y-12053984D01*
X12291611Y-12053984D02*
X12243992Y-12053984D01*
X12243992Y-12053984D02*
X12224944Y-12044460D01*
X12224944Y-12044460D02*
X12215420Y-12025412D01*
X12215420Y-12025412D02*
X12215420Y-12006365D01*
X12215420Y-12006365D02*
X12224944Y-11987317D01*
X12224944Y-11987317D02*
X12243992Y-11977793D01*
X12243992Y-11977793D02*
X12291611Y-11977793D01*
X12291611Y-11977793D02*
X12310658Y-11968269D01*
X12377325Y-11920650D02*
X12453515Y-11920650D01*
X12405896Y-11853984D02*
X12405896Y-12025412D01*
X12405896Y-12025412D02*
X12415420Y-12044460D01*
X12415420Y-12044460D02*
X12434468Y-12053984D01*
X12434468Y-12053984D02*
X12453515Y-12053984D01*
X12596373Y-12044460D02*
X12577325Y-12053984D01*
X12577325Y-12053984D02*
X12539230Y-12053984D01*
X12539230Y-12053984D02*
X12520182Y-12044460D01*
X12520182Y-12044460D02*
X12510658Y-12025412D01*
X12510658Y-12025412D02*
X12510658Y-11949222D01*
X12510658Y-11949222D02*
X12520182Y-11930174D01*
X12520182Y-11930174D02*
X12539230Y-11920650D01*
X12539230Y-11920650D02*
X12577325Y-11920650D01*
X12577325Y-11920650D02*
X12596373Y-11930174D01*
X12596373Y-11930174D02*
X12605896Y-11949222D01*
X12605896Y-11949222D02*
X12605896Y-11968269D01*
X12605896Y-11968269D02*
X12510658Y-11987317D01*
X12777325Y-12053984D02*
X12777325Y-11853984D01*
X12777325Y-12044460D02*
X12758277Y-12053984D01*
X12758277Y-12053984D02*
X12720182Y-12053984D01*
X12720182Y-12053984D02*
X12701134Y-12044460D01*
X12701134Y-12044460D02*
X12691611Y-12034936D01*
X12691611Y-12034936D02*
X12682087Y-12015888D01*
X12682087Y-12015888D02*
X12682087Y-11958746D01*
X12682087Y-11958746D02*
X12691611Y-11939698D01*
X12691611Y-11939698D02*
X12701134Y-11930174D01*
X12701134Y-11930174D02*
X12720182Y-11920650D01*
X12720182Y-11920650D02*
X12758277Y-11920650D01*
X12758277Y-11920650D02*
X12777325Y-11930174D01*
X12853515Y-12130174D02*
X12863039Y-12120650D01*
X12863039Y-12120650D02*
X12882087Y-12092079D01*
X12882087Y-12092079D02*
X12891611Y-12073031D01*
X12891611Y-12073031D02*
X12901134Y-12044460D01*
X12901134Y-12044460D02*
X12910658Y-11996841D01*
X12910658Y-11996841D02*
X12910658Y-11958746D01*
X12910658Y-11958746D02*
X12901134Y-11911127D01*
X12901134Y-11911127D02*
X12891611Y-11882555D01*
X12891611Y-11882555D02*
X12882087Y-11863508D01*
X12882087Y-11863508D02*
X12863039Y-11834936D01*
X12863039Y-11834936D02*
X12853515Y-11825412D01*
M02*
